<!-- Generated by IcoMoon.io -->
<svg version="1.1" xmlns="http://www.w3.org/2000/svg" width="32" height="32" viewBox="0 0 32 32">
<title>nintendoswitch</title>
<path d="M18.901 32h4.899c4.501 0 8.2-3.699 8.2-8.2v-15.6c0-4.5-3.699-8.2-8.2-8.2h-5c-0.099 0-0.2 0.099-0.2 0.2v31.6c-0.001 0.101 0.1 0.2 0.301 0.2zM25 14.401c1.801 0 3.199 1.5 3.199 3.197 0 1.803-1.5 3.2-3.199 3.2-1.8 0-3.2-1.399-3.2-3.2-0.1-1.799 1.4-3.197 3.2-3.197zM15.2 0h-7c-4.5 0-8.2 3.7-8.2 8.2v15.6c0 4.501 3.7 8.2 8.2 8.2h7c0.099 0 0.2-0.099 0.2-0.199v-31.601c0.001-0.101-0.1-0.2-0.2-0.2zM12.901 29.401h-4.701c-3.101 0-5.601-2.5-5.601-5.601v-15.6c0-3.101 2.5-5.601 5.601-5.601h4.6l0.101 26.803zM5 9.599c0 1.7 1.3 3 3 3s3-1.3 3-3c0-1.697-1.3-3-3-3s-3 1.303-3 3z"></path>
</svg>
