<!-- Generated by IcoMoon.io -->
<svg version="1.1" xmlns="http://www.w3.org/2000/svg" width="32" height="32" viewBox="0 0 32 32">
<title>playstation</title>
<path d="M11.98 3.462v23.396l5.22 1.681v-19.621c0-0.92 0.405-1.535 1.059-1.321 0.848 0.241 1.013 1.085 1.013 2.007v7.834c3.254 1.591 5.816-0.003 5.816-4.204 0-4.316-1.501-6.233-5.917-7.769-1.743-0.597-4.97-1.581-7.188-2.003h-0.003zM18.188 25.117l8.394-3.033c0.953-0.344 1.101-0.833 0.328-1.091-0.781-0.256-2.183-0.185-3.142 0.164l-5.606 1.999v-3.18l0.32-0.113s1.601-0.56 3.884-0.82c2.261-0.24 5.046 0.039 7.249 0.881 2.464 0.801 2.721 1.963 2.101 2.762s-2.163 1.381-2.163 1.381l-11.391 4.142v-3.062l0.027-0.031zM2.412 24.799c-2.533-0.727-2.952-2.224-1.803-3.094 1.068-0.78 2.878-1.401 2.878-1.401l7.487-2.684v3.084l-5.366 1.963c-0.94 0.361-1.1 0.843-0.319 1.101 0.781 0.26 2.183 0.2 3.124-0.16l2.584-0.941v2.765c-0.161 0.039-0.341 0.059-0.521 0.097-2.584 0.441-5.326 0.261-8.049-0.639l-0.016-0.091z"></path>
</svg>
