<!-- Generated by IcoMoon.io -->
<svg version="1.1" xmlns="http://www.w3.org/2000/svg" width="32" height="32" viewBox="0 0 32 32">
<title>steam</title>
<path d="M15.972 0c-8.401 0-15.29 6.48-15.942 14.716l8.576 3.544c0.727-0.495 1.604-0.787 2.549-0.787 0.084 0 0.167 0.005 0.251 0.008l3.815-5.523v-0.079c0-3.327 2.704-6.032 6.032-6.032 3.325 0 6.032 2.708 6.032 6.036s-2.707 6.033-6.032 6.033h-0.14l-5.435 3.881c0 0.069 0.005 0.14 0.005 0.212 0 2.5-2.020 4.528-4.52 4.528-2.18 0-4.021-1.564-4.441-3.636l-6.14-2.543c1.901 6.716 8.067 11.64 15.39 11.64 8.836 0 15.998-7.164 15.998-16s-7.164-16-15.998-16zM10.053 24.28l-1.964-0.813c0.349 0.724 0.952 1.332 1.752 1.667 1.729 0.719 3.724-0.101 4.443-1.833 0.351-0.84 0.352-1.759 0.007-2.599s-1-1.495-1.836-1.844c-0.832-0.347-1.72-0.332-2.504-0.040l2.031 0.84c1.275 0.533 1.879 2 1.345 3.273-0.529 1.276-1.996 1.88-3.272 1.349h-0.001zM25.273 11.876c0-2.216-1.804-4.020-4.020-4.020-2.22 0-4.020 1.804-4.020 4.020 0 2.22 1.8 4.020 4.020 4.020 2.217 0 4.020-1.8 4.020-4.020zM18.243 11.869c0-1.669 1.351-3.021 3.020-3.021 1.665 0 3.021 1.352 3.021 3.021 0 1.668-1.356 3.020-3.021 3.020-1.671 0-3.020-1.352-3.020-3.020z"></path>
</svg>
