<svg height="149.88936mm" viewBox="0 0 174.2841 149.88936" width="174.2841mm" xmlns="http://www.w3.org/2000/svg"><path d="m330.52539 0c-6.76664 0-11.56927.3334219-15.22851 1.234375-.0335.00747-.0723.013947-.10547.021484-.81663.1853119-1.58714.431191-2.32618.7207031-.028.00675-.0604.012726-.0879.019531l-1.35742.046875-.60547.7460937c-.28884.184366-.59973.4116509-.92773.6738281-1.6577 1.062056-3.04426 2.4080907-4.35352 4.1230469-2.02149 2.6478915-7.38433 8.5427325-11.91797 13.0976565-8.2393 8.277974-8.24861 8.281282-19.33398 9.958984-28.47225 4.3091-55.50509 13.265257-67.38672 22.326172-4.79228 3.654576-6.84456 10.392587-4.5 14.773438 1.32063 2.467627.42946 3.256089-10.21094 9.048828-24.63616 13.412145-56.43355 36.685784-71.15625 52.082034-11.65331 12.18645-24.419207 28.86862-36.207028 46.65039-.0931.14016-.188283.27762-.28125.41797-15.987846 24.1733-30.127243 50.34243-37.105468 70.09765-4.66275 13.20015-9.840435 37.52614-11.386719 53.50391-.917082 9.47622-1.928795 14.7703-3.476563 17.27344-.951018.8378-2.218858 1.43189-3.878906 1.95117-1.960775.25374-6.04163 1.03587-10.271484 1.99804-5.199805 1.18269-9.2124539 2.75942-12.1445314 4.7754-.1347923.0935-.2793548.18305-.4082031.27929-3.0370102 2.20701-4.8225926 4.92736-5.44335938 8.23633-1.12276535 5.98484-.14977829 9.49365 4.58984378 16.55078 5.4319481 8.088 12.3916071 12.02955 21.2597661 12.03711l1.197265.002c.08014.00042.155629.004.236328.004h.05078c.02437.00006.04787.002.07227.002 1.548751 0 2.710646.008 3.619141.0566l1.236328.12891c.209404.19575.387941.42066.541015.66992l-.779296 5.19727c-.150852 1.00595-.252335 1.93026-.294922 2.79297-.167682 1.58786-.02967 2.93839.541015 4.09375.27064.65826.654221 1.25491 1.166016 1.79687l-.002.29688v.15039l.720703.21094c4.568037 3.62211 16.629181 4.50758 44.947266 5.38085l30.376949.9375c.15222.29514.37133 1.01815.62305 2.04688v.99805c0 1.6639.36347 3.97283.80859 5.13281.0161.0418.0154.073.0293.11328-.81918.94766-2.52139 1.50033-5.50976 1.98633-.84186.017-1.7708.0272-2.85352.0293-18.323444.0395-34.023776 6.03792-38.509766 14.71289-3.840011 7.42575-3.891485 14.76778-.04102 30.13281.153369.62661.314286 1.25966.482422 1.89844.02938.11298.05422.21625.08398.33007 5.477559 20.94657 7.057166 26.19626 26.349609 27.80664 7.171856.80579 16.794446 1.06798 30.107426 1.07813h.62109c.20988.0003.39189.004.60352.004l6.91992.004 4.85156.0274 14.05664.21679 4.66602 3.46485c2.56666 1.90537 11.26731 9.25403 19.33398 16.33203 8.06667 7.07799 19.16602 15.88605 24.66602 19.57226 5.5 3.68618 14.79935 10.17219 20.66601 14.41407 5.86667 4.24183 16.73884 10.5764 24.16016 14.07617 23.0158 10.85397 57.30954 23.99299 67.4707 25.84961v-.002c5.86599 1.07184 11.36689 1.69207 16.80274 1.83594.58503.04 1.11972.0694 1.5664.0801.69807.0167 1.56674-.0103 2.53906-.0664 14.15968-.27034 28.38154-3.91362 47.98243-11.71289 30.72219-12.22443 46.5066-19.61053 56.69726-26.53515 5.19704-3.53144 15.74923-10.69146 23.44922-15.91016s20.365-15.12521 28.14649-22.01563c7.78148-6.89045 16.23861-14.12391 18.79296-16.07226l4.53125-3.45508 15.64063-.0859h12.61523c30.90717 0 39.66154-1.20388 45.69336-6.27929 4.99412-4.20231 7.15994-9.325 11.42578-27.01953 1.53033-6.34782 2.33212-11.67725 2.38282-16.2129.0983-1.34825.10305-2.43562-.01-3.15624-.0532-.33959-.1177-.67652-.18359-1.01172-.79663-7.17015-4.03165-12.01011-9.97266-15.62305-5.84028-3.5517-20.39594-6.69727-30.99219-6.69727h-1.76172c-.0335-.00006-.0701-.002-.10351-.002h-2.10742c-2.43796-.27495-3.94691-.56843-4.76563-.94336v-4.19531-2.79883-.64844l.13477-1.69531 32.32617-.95117c30.51689-.89753 39.46273-1.69609 43.4668-4.35938.39278-.20389.74451-.41333 1.01367-.63671.13874-.11515.25935-.24957.3789-.38477l1.67774-.71875-.24805-2.97461c.55038-2.69263.53027-6.16432-.22265-9.02539-.41322-1.57017 1.24386-2.14267 7.71093-2.66602 9.63897-.78009 13.62795-3.28523 20.0293-12.57422 2.9783-4.32177 4.05195-6.84223 4.31836-10.71093.009-.12182.026-.23494.0332-.35938.45187-2.71407.2363-5.16645-.63281-7.3457-1.61437-5.57674-6.32402-8.56703-16.04492-10.76758-5.85179-1.32466-9.85989-3.05739-12.48242-5.64258-2.3123-2.66009-3.28763-4.55077-3.94727-8.95312-.12923-1.11781-.19516-2.30923-.19922-3.59571-.0288-9.54292-4.50727-40.2154-7.0625-48.37109-3.37912-10.78537-8.27387-17.88522-12.97851-18.82617-3.33506-.66701-5.76486-.25554-7.55664 1.41211-1.35165.87942-2.19643 2.61642-2.99415 5.72461-.0343.12366-.0722.23827-.10546.36523-.81411 3.1047-2.09431 8.00768-2.84375 10.89649-1.28178 4.94086-6.24057 10.78099-10.05079 12.33789-.88865.17807-1.79401.2107-2.70898.0547-2.43968-1.27389-8.4196-6.09501-14.58594-11.8379-15.00561-13.97513-22.85726-18.53884-30.25-16.51171-1.47475.34021-2.89253.94436-4.28125 1.81445-.36744.23021-.73336.50273-1.0957.79297-4.02638 2.75042-6.36106 6.41156-7.03516 11.12304-.27611 1.05796-.42968 2.0763-.42968 3.00782 0 .41975.1214 1.24382.33007 2.33007.27615 3.11368 1.06923 6.57244 2.41211 10.42774 3.39848 9.75674 6.84748 36.87967 5.49414 43.20898-.91143 4.26248-1.45004 4.70275-6.22461 5.09571-.72.0593-1.40713.0975-2.08007.12304l-1.68946-.0859c-1.32079-.0667-2.40028-.0797-3.35547-.10547-2.55304-.33598-4.83651-1.07201-7.10937-2.28516-1.25735-.74796-2.6955-1.7058-4.43555-2.95703-.60271-.47496-1.21202-.97152-1.83984-1.51758-3.54161-3.08035-12.17353-9.98174-19.18164-15.33594-16.70895-12.76565-25.00525-21.21092-33.75391-34.35937-9.11656-13.70132-9.71556-15.19075-17.83398-44.46289-9.32958-33.63897-13.16717-42.41045-22.14453-50.61524l-7.18946-6.57226 10.57422.72656c9.62876.65994 11.23985.39664 18.0625-2.9414 2.93752-1.43719 5.4893-3.15022 7.70899-5.16993 2.40175-2.1121 4.40038-4.61242 5.92968-7.47265 1.47059-2.60125 2.67126-5.52917 3.63086-8.83008 1.60717-5.52839 2.81312-7.38063 5.19532-7.97852 4.91108-1.23261 18.48587 1.7872 27.01562 6.00977 2.21545 1.09673 4.52479 2.02194 6.86914 2.81445 1.35107.49311 2.61243.8942 3.875 1.16406 12.36215 3.2525 25.14744 2.36954 31.79492-2.85937 1.46473-1.15216 2.4093-2.61186 2.8711-4.27149.29379-.50077.40185-1.01409.34765-1.6621.16906-1.28523.0111-2.65877-.47265-4.11329-1.10523-4.10871-4.19656-8.61433-9.01953-12.5664-8.62579-7.06817-37.42624-26.129729-49.90821-33.031252l-10.71679-5.923828.58203-7.005859c.35244-4.249964.36851-6.03844-.79883-7.822266v-.0059l-.008-.0059c-.637587-.9710343-1.621597-1.9426003-3.104987-3.3089223-9.49108-8.742077-30.29543-16.090739-60.58203-21.402343-15.48053-2.714945-17.53428-3.407149-21.20703-7.136719-2.23673-2.271322-5.55971-5.37619-7.38477-6.900391-1.82502-1.5242-5.23007-5.536242-7.56445-8.9140621-1.85832-2.6889342-3.62914-4.5973012-5.89258-5.9492188l-.82617-1.0332031-1.38477-.0390625c-3.82591-1.50385655-9.08267-1.9453125-17.65039-1.9453125zm-2.74609 11.730469c13.43618-.14078 17.06694.703232 20.36328 3.861328 2.01717 1.932567 4.68446 6.262488 5.92773 9.621094 5.0301 13.588286 17.74555 45.424294 22.14258 55.439453 3.11534 7.095862 4.87208 11.078091 5.44727 13.572265.0206.154222.0431.311402.0469.427735.0312.96284.0175 1.739229-.0684 2.404297-.0296.07252-.0563.14768-.0918.216797-.2602.359367-.56701.724803-.90235 1.089843-.59108.502677-1.38354.984608-2.37305 1.587891-4.19641 2.558358-6.58164 2.688688-48.41406 2.642578-19.088-.021-30.31499-.13298-37.22265-.4668-4.88637-.27921-8.03841-.71211-10.04493-1.38672-.13634-.0606-.27943-.11903-.39843-.18359-.65225-.35385-1.20383-.725128-1.67383-1.123046l-.0566-.05664-.63867-.638672c-.24005-.28358-.45209-.577885-.61524-.898437-.20156-.572215-.32372-1.202657-.4082-1.919922-.13915-1.181394.65016-4.213214 1.9375-7.777344.37587-.884037.77763-1.80167 1.25781-2.824219 4.64448-9.890521 17.22724-40.775267 22.13086-54.322265.38808-1.072127.76982-2.074265 1.15039-3.041016 1.99927-4.525445 3.60102-7.687834 5.00195-9.90039 3.07372-4.346582 6.47476-6.097273 11.11524-6.208985 2.34726-.0565 4.46726-.09512 6.38672-.115234zm3.50781 17.970703c-2.72515-.0289-5.74621.159335-8.00781.541016-6.56708 1.108304-6.58719 1.125204-10.18946 9.759765-1.98489 4.757737-6.7116 17.466441-10.50586 28.242188-7.37725 20.951542-7.5114 24.292135-1.02148 25.673828 1.62884.346775 4.16224.917745 5.62891 1.267578.40454.09655 1.71175.172722 3.48242.236328 3.53069.456702 15.27204.403485 25.67773.03516 21.27326-.372357 26.18534-1.521715 26.16016-5.851562-.0172-2.938587-13.8045-42.802987-17.9336-51.853516-.87379-1.915256-1.53958-3.297529-2.18554-4.328125-.64011-1.256032-1.15037-2.073506-1.4707-2.271484-.37676-.232849-1.14339-.40822-2.12891-.542969-.84159-.245162-1.85027-.424152-3.14844-.617187-1.19336-.177449-2.72233-.273677-4.35742-.291016zm-47.3418 2.488281c.28495.01785.47281.06103.60352.117188.0105.336127-.81546 2.631085-2.03711 5.826171l-2.16406 5.388672c-2.60731 6.489071-7.93144 19.298178-11.83204 28.464844-6.45937 15.17992-8.74594 21.565475-8.06054 25.533203.11123 2.467784 1.27193 3.729429 3.16797 5.060549 1.62565 1.81779 3.17419 4.22519 3.62304 5.69726 1.54615 5.07066 4.63966 7.55161 10.43164 8.36719 8.66868 1.22064 66.01062 1.68673 89.125.72461 17.7114-.73727 21.36692-1.25158 23.66797-3.33398 1.49666-1.35447 2.72071-3.62924 2.72071-5.05469 0-1.35291 1.6722-4.02058 3.77539-6.0957 1.32814-.92012 2.30166-1.81794 2.77929-3.154301 2.09099-3.47625.62849-7.835826-5.57812-22.41211-2.96644-6.966667-8.24707-19.772503-11.73633-28.458984l-6.33984-15.775391c.0115-.0035.0286-.0065.041-.0098l4.83985.855469c2.68709.475577 5.82145 1.137499 6.96679 1.470703 3.52441 1.02528 22.23046 44.224453 26.67578 61.605468.56539 2.21063 1.03415 4.310391 1.41602 6.312501.0499.28225.11203.57719.1582.85547.0184.10207.0349.2012.0527.30273.71431 4.41183.95326 8.32472.73242 11.79297-.14906 2.34093-.4394 4.43895-.90625 6.33594-2.48593 8.12574-9.13918 12.82072-20.53516 15.30469-14.47667 3.15548-23.03786 3.13324-33.17187-.28321-1.57894-.6229-3.20119-1.19589-4.85938-1.71875-20.17722-6.93838-39.91111-6.50901-62.80468 1.35157-3.15036 1.08168-6.02244 2.03478-8.23438 2.74218-2.47843.3871-4.87075.61538-7.24219.68555-1.99117-.32753-4.28235-.70256-9.05468-1.44531-16.598-2.58327-22.56326-5.51832-26.11133-12.84766-1.04509-2.15886-1.77291-3.87935-2.20899-5.63867-.28702-1.64707-.4352-3.42979-.45703-5.33789.132-3.03741.77737-6.94517 1.91602-12.95117.81115-4.278619 1.87013-8.542639 3.29297-13.126956 1.18852-3.679868 2.58694-7.613548 4.18359-11.78711 2.76867-7.034887 6.35315-15.104194 11.06445-25.027343 7.52099-15.841028 8.66388-17.536681 12.32813-18.269532 2.22145-.444291 5.58595-1.195406 7.47656-1.669921l1.2207-.306641c.25223-.0296.54619-.0714.74414-.08594.0971.0022.24487-.0092.33008-.0039zm45.86914 1.84375c1.56834-.0083 3.12563.0743 4.29493.251953 5.20705.791161 6.94188 4.157866 17.13867 33.257813 6.78776 19.371261 7.02583 20.483082 4.63672 21.761719-2.44994 1.311188-32.23764 1.652745-46.1836.9375-3.185-.230586-5.6724-.526597-6.95703-.894532-.17522-.09298-.30759-.194738-.44531-.294922-.41406-.654424-.37639-1.974855.27539-4.603515.0996-.374723.20756-.774337.32226-1.1875.0886-.323686.18331-.659976.28711-1.017578.14468-.507031.34767-1.153021.50977-1.703125 1.03402-3.341508 2.56329-7.83586 4.77344-14.095704 10.16598-28.79337 11.46297-31.244076 16.99023-32.113281 1.21022-.190318 2.78909-.290494 4.35742-.298828zm64.02539 2.339844 7.72657 1.798828c2.65499.617742 5.25013 1.412938 7.14453 2.146484 1.23753.77725 2.40839 1.694684 3.53515 2.773438.92941 1.061485 1.89307 2.38119 3.07813 4.166015.58986.888402 1.31142 2.087393 2.10156 3.470704.28888.516016.58379 1.054035.87891 1.597656.29611.534888.60136 1.10457.91015 1.677734 2.96952 5.634041 6.13132 12.397497 8.75977 18.9375 3.14328 7.820897 5.93358 13.562647 6.20117 12.759766.71293-2.138797-8.38807-25.04747-13.79101-34.714844-2.12484-3.801886-3.63428-6.995946-3.81641-7.986328.59793-.0067 2.25985.57438 4.51367 1.515625 2.70755 1.223592 6.34958 2.928276 10.30859 4.837891 8.76454 4.22752 13.82392 7.321478 15.7129 11.005859.25262.96598.40325 2.094905.50976 3.572266.0352.488188.0482.921541.0606 1.357421-.2967 1.733903-.88803 3.641929-1.74805 5.677735-1.25516 2.560149-3.06395 5.508696-5.40039 9.019531-8.72311 13.107802-9.66933 17.896201-4.60937 23.357422.51612.55707.91015 1.05653 1.21093 1.5918.16276.31307.29331.62662.41211.9414.52617 1.68309.31622 4.08482-.42578 9.32422-1.09117 7.70505-3.10444 13.99706-6.31055 19.36914-.18002.29559-.35423.59584-.54101.88672-.10371.16363-.21425.32248-.32031.48438-.36693.555-.74058 1.10459-1.13282 1.64257-.0554.0756-.11398.14935-.16992.22461-.34327.46452-.7.92099-1.0625 1.37305-1.11986 1.31782-2.34646 2.63605-3.72265 3.98438-2.27818 2.1449-4.86396 4.14252-7.81641 6.0371-9.04392 5.80347-17.76131 5.67127-29.06055-.4414l-8.21289-4.44336 11.79492-1.31641c3.35718-.37481 6.43505-.8996 9.2461-1.56445 4.5167-.89668 8.16477-2.25235 11.13476-4.1582 3.1452-1.79546 5.57201-3.95781 7.25-6.49024 3.92903-5.92969 4.01267-15.9414.11524-30.972654-.14799-.634239-.29586-1.231009-.44141-1.777344-.19233-.721935-.45504-1.605099-.75195-2.560546-2.22102-7.6411-5.34625-16.439133-9.41992-26.535157-4.50301-11.160071-9.58828-23.083252-11.30079-26.496093l-2.70898-5.394532c-.0454-.246138-.066-.449553-.0391-.568359.002-.0043.002-.01161.004-.01563.004-.01357.0128-.0197.0176-.03125.0423-.02649.0968-.04984.17578-.06445zm-130.3789.0098c1.19454-.01407.59343 1.870231-2.41211 8.519532-4.29126 9.493729-9.32193 22.158519-13.50391 33.625-1.37816 3.694042-2.67289 7.266707-3.75 10.421875-.63872 1.871016-1.23358 3.763137-1.7832 5.65039-1.2775 4.027714-2.23739 7.403361-2.70313 9.664061-2.75402 13.36804-2.67063 17.41157.49024 23.60742 5.09141 9.97996 11.9274 13.38334 31.07617 15.47266l7.68164.83789-8.60937 4.56836c-12.06334 6.40173-18.87404 6.27258-28.67774-.54297-3.63628-2.52795-6.68059-5.22359-9.23437-8.23437-.23879-.29173-.48154-.58005-.71289-.87696-.0998-.12465-.19677-.25118-.29493-.37695-.99278-1.30121-1.91814-2.65079-2.76953-4.04883-.0233-.0391-.0471-.0779-.0703-.11719-.26043-.43046-.503-.87301-.75-1.3125-3.06397-5.65723-5.00756-12.40396-6.17188-20.90039-.0335-.24456-.0538-.43126-.084-.66015-.0204-1.31016-.1117-2.20175-.29297-2.69141-.10414-1.38355-.0724-2.41293.16602-3.25.12757-.34274.29198-.66561.49219-.98633.2696-.35852.52955-.708.77539-1.04883.0281-.0327.0582-.067.0859-.0996.27314-.32001.57381-.65232.92188-1.02344.0687-.0733.12486-.14566.1914-.21875.008-.008.0133-.0139.0215-.0215 1.44469-1.34913 2.33498-2.889188 2.6875-4.681637.0238-.101621.0466-.203813.0664-.306641.0113-.07153.0197-.144443.0293-.216796.1875-1.142016.13028-2.370172-.17773-3.732422-.012-.05943-.0301-.121754-.043-.181641-.0549-.228306-.10491-.454925-.17383-.691406-.94455-3.653684-3.31816-8.132791-7.22461-13.78125-5.61826-8.123649-6.84961-10.923986-6.84961-15.576172 0-2.103847.14855-3.537063.56836-4.691406 1.34276-2.075963 5.5947-5.173536 10.88867-8.175781 4.1137-2.156401 8.89992-4.357281 13.72657-6.259766l4.14648-1.634766 2.38281-.828125c.0103.003.0234.0044.0332.0078l-5.07032 9.449218c-6.40369 11.93836-13.59756 29.964236-13.06445 32.732422.21957 1.140148 2.67425-3.677142 5.45508-10.703125 5.16868-13.059065 12.34405-26.158289 17.14062-31.289062.53363-.570803 1.32375-1.153718 2.23633-1.689453 1.35641-.670111 3.04473-1.328184 4.78906-1.923828.18304-.04157.36936-.09163.54688-.123047 2.68789-.475729 5.9297-1.171089 7.20312-1.544922.24211-.07108.45045-.113225.6211-.115235zm65.71875 10.269532c-.51451 0-1.08983.283392-1.70313.787109-.62679.404092-1.26096 1.07034-1.91015 1.947266-1.1092 1.299828-2.23489 3.143081-3.39649 5.539062-.64413 1.328626-1.28086 2.830332-1.9082 4.390625-2.14673 4.959606-3.94463 10.433827-4.71289 14.673828-.24077 1.022659-.44068 1.967942-.58789 2.814454-.26518.954158-.43555 1.686335-.43555 1.998046 0 .129499.0604.275222.14649.429688-.0315.802254.0351 1.380808.25195 1.597656.54066.540669 3.52197 1.391192 6.625 1.888672 5.27749.846096 13.1195.499376 17.98828-.517578 1.04024-.109297 1.8715-.227165 2.21094-.357422.38791-.148853.71986-.352333.99414-.617188.35596-.170651.66517-.348393.86523-.535156 1.43588-1.340507 1.12127-3.530987-1.75586-12.236328-2.6261-7.945766-4.9852-13.613672-7.21484-17.103516-1.90888-3.459696-3.52495-4.699218-5.45703-4.699218zm.2539 4.214844c1.28402.05003 2.45745.837315 3.66407 2.609374.0821.13164.16326.249307.24609.392579.002.0024.002.0054.004.0078.29209.50582.59066 1.106063.89648 1.765625 2.5537 5.901122 6.2722 18.799875 6.38672 22.033203-.15125.451156-.42986.75978-.81641 1.019531-3.38554.848171-17.45631 1.262777-20.17578.460938-2.32943-.686842-1.54941-4.197023 5.08789-22.837891.97198-2.729815 2.15824-4.472728 3.41016-5.232421.2214-.08445.44944-.14696.68945-.181641.0435-.0063.0839-.0047.12695-.0098.16123-.01559.32285-.03348.48047-.02734zm-121.97851 25.21289 1.58398 1.826172 2.70313 3.675781c5.20666 7.079974 5.45204 13.406439.76758 19.755859-1.15857 1.57035-2.12758 3.19844-2.91797 4.86719-.70445 1.19494-1.13281 2.25999-1.375 3.5293-1.08702 3.52477-1.38938 7.18539-.86328 10.86718.76885 5.3808 5.10954 19.32074 7.38281 23.70703.55279 1.06659.40689 1.94848-.83789 3.17383l-1.57617 1.16992c-.39479.29324-2.15772 1.59319-2.8711 2.1211-.25585.16627-.47142.31132-.74805.48828-20.20517 12.92508-41.77399 33.87388-53.67578 52.13281-16.89096 25.91305-33.60976 74.33358-36.01562 104.30274-.48767 6.07475-1.54694 11.45921-2.35352 11.96484-.80657.50562-17.591064.93618-37.298825.95508-7.015726.007-12.723135-.01-17.396484-.0586-.252884-.003-.478476-.007-.728516-.01-13.780181-.15817-17.987562-.61889-18.392578-1.66797-1.156902-2.99664.999288-27.4793 3.628906-41.21289 5.67908-29.65988 20.675015-63.64118 42.519531-96.34766 31.796106-47.6064 58.522616-72.06032 109.751956-100.417966zm245.1582.722656c2.65701.787332 11.40777 5.602907 31.56445 17.300782.747.433519 1.45708.862522 2.17969 1.292968 3.62094 2.260905 7.07345 4.448096 9.88086 6.310546 12.58204 8.68673 19.83499 16.69283 21.66016 23.96485.65805 2.62185.22583 3.76766-1.83594 4.87109-.71201.38105-1.52896.6714-2.47461.87891-1.42395.19605-3.10814.31113-4.95703.35351-3.29806-.0968-7.63796-.67166-13.55469-1.74609-3.38063-.61391-6.06336-1.219-8.35547-1.90039-2.26628-.76728-4.34671-1.62834-6.15234-2.56055-1.41791-.81925-2.7266-1.7555-4.04297-2.89844-3.46016-3.00431-10.56519-5.34961-16.19922-5.34961-2.59638 0-5.37984-1.20118-7.31445-2.84961-.7692-1.09259-1.6316-2.54973-2.47266-4.12695-.002-.0521-.0137-.10438-.0137-.15625 0-.98963-1.78988-4.44093-3.97656-7.66797-1.85373-2.7357-3.41563-6.147432-3.86133-8.279296-.054-.603203-.0697-1.2063-.0391-1.808593.55295-2.670561 3.48022-8.321837 6.05664-12.123047.6815-.867469 1.31444-1.658051 1.85547-2.3125.67552-.606684 1.29441-1.052487 2.05273-1.19336zm28.42188 25.183596-1.37305 1.57812c-.13223.0501-.27011.088-.39844.14649-2.60291 1.18595-4.13489 3.57704-4.34179 6.04492-.32343.88828-.22875 1.64913.26562 2.5.26943.87581.71932 1.71371 1.38672 2.45117 4.63899 5.12606 15.2832 1.76985 15.2832-4.81836 0-3.46815-4.44909-6.48681-8.71094-6.79101zm-304.94141.87305c-1.11238-.031-2.29745.32371-4.05273 1.05078-3.13899 1.3002-4.08636 2.44515-4.16797 5.11523-.003.0399-.0156.0815-.0156.12109 0 .0309.007.0628.008.0937-.00073.0581-.008.10644-.008.16602 0 .0977.0139.19214.0176.28906-.0331.57934.0624 1.15717.26953 1.72461.43374 1.54799 1.35531 2.89795 2.67774 3.82422 3.71461 2.60168 9.54017 2.68007 11.63476.15625.35807-.43145.63185-.92081.83985-1.44336.21075-.41775.35205-.86583.4121-1.3457.0837-.48679.0958-.99299.043-1.50977-.0356-.86106-.20739-1.73665-.5039-2.57617-.19157-.57648-.43885-1.10553-.73828-1.58203-.68567-1.16283-1.63193-2.16621-2.80274-2.82031-1.46185-.81668-2.5009-1.23269-3.61328-1.26367zm308.48633 5.6914c.12966.008.25445.0249.37304.0488.16012.12751.3249.2741.50391.45312.26787.26786.44626.48692.56055.67774-.0524.26583-.29054.54598-.70313.84961-.36227.0512-.84336.0723-1.45703.0723-2.22617 0-2.73532-.28968-1.92969-1.24023.85779-.6435 1.84848-.91033 2.65235-.86133zm-308.72266.10156c.83948 0 1.72908.55451 2.1582 1.29102.008.14005-.01.2837-.0527.42969-.29804.19869-.96991.27929-2.10547.27929-1.01008 0-1.65114-.064-1.99414-.21679-.0595-.21882-.0808-.43707-.0566-.6543.45864-.65358 1.27448-1.12891 2.05078-1.12891zm265.23438 1.45704c.12378.0462.26777.26549.42773.55859l.85938 1.98437c.13263.30652.25019.6593.36132 1.03321.0351.12086.0684.24768.10157.37304.0868.32747.16976.66434.24218 1.03125.009.0427.0167.0859.0254.12891.71372 3.74582.69901 9.33806.12304 14.31055-.30259 2.04657-.73992 3.95589-1.30664 5.54492-1.22456 3.43356-2.63361 5.95131-4.7207 8.09766-1.11204 1.02315-2.38035 2.03205-3.70313 3.00195-1.25175.82414-2.66804 1.6309-4.31054 2.45898-3.29998 1.66371-8.09934 3.44113-10.66602 3.95117l-1.10937.22071c-.96896.13088-1.95879.25133-3.03321.37109l3.47461-2.21875c11.33809-7.24214 19.42528-19.79204 21.63477-33.43359.31846-1.49489.57767-2.93586.70117-4.20508l.10352-1.05664c.27614-1.59008.49887-2.2628.79492-2.15234zm-223.31446.4414c.22808.47823.55785 1.90732.94727 3.71875.24826 1.5714.63556 3.30996 1.125 5.125 3.4162 14.17723 11.10652 25.41243 22.0957 32.17969 1.46409.9016 2.10756 1.39748 1.83008 1.48437-.81589-.17395-1.62294-.35863-2.41406-.55859-1.04458-.32728-2.41338-.789-4.16992-1.40234-17.15365-5.98961-24.7832-19.93018-20.67774-37.7793.0551-.23973.0965-.41093.14649-.625.33637-.69495.71235-1.4125 1.11718-2.14258zm-79.84375 24.4961c-1.6276-.0474-2.79272.46111-4.28125 1.75976-.69333.23205-1.243.49495-1.52734.7793-.57859.57858-.99022 1.28781-1.25977 2.06836-2.19837 2.63326-1.8426 4.13765 1.14649 7.31054.54193.84411 1.21398 1.61956 2.02539 2.25782.5414.42586 1.13974.80092 1.77734 1.12695 1.81822 1.17705 3.6514 1.63672 6.16993 1.63672.64268 0 1.27109-.0465 1.88281-.12891 2.20416-.18756 4.21604-.86843 5.55273-2.07812.97726-.88441 1.63901-1.6705 1.98633-2.46875.002-.005.004-.009.006-.0137.029-.0675.0556-.13542.0801-.20313.23166-.55472.36523-1.13465.36523-1.73242 0-1.58995-1.62015-3.78542-3.85547-5.73047-1.76644-2.01926-3.12569-2.97854-5.17968-3.37695-.8857-.40267-1.76348-.71768-2.59375-.89258-.88026-.18543-1.62694-.29502-2.29493-.31445zm2.60547 6.4121c.30619.00071.61395.0172.91992.0449.2336.035.46608.0713.68164.1289.0355.01.0764.0129.11133.0234.0535.0154.10213.0359.1543.0527 1.2482.4198 2.11484 1.22734 2.11914 2.28711-.00006.0172-.006.0318-.006.0488-.0261 1.28691-1.21854 2.06857-2.68359 2.26172-1.19008-.015-2.62909-.50785-4.00391-1.51953-.56142-.41313-.96746-.73156-1.27344-1.00586-.0634-.10493-.11101-.20211-.15234-.29492.0881-.33003.22223-.65821.4043-.96485.8181-.73605 2.24105-1.06593 3.72851-1.0625zm189.09961.16407c9.02251-.14301 18.16368 1.55036 28.44531 5.15039 23.10528 8.09008 46.49123 22.91106 52.21094 33.08789 3.38351 6.02018 8.41129 21.55077 14.93555 46.125 9.58707 36.11078 20.17685 50.81468 56.62695 78.6289 13.86615 10.5809 31.0962 26.70258 38.46485 35.79102 1.37183 1.85321 2.66865 3.70623 3.85156 5.56055 1.81365 3.07206 3.89518 7.07709 5.44336 10.4707 1.36509 3.09476 2.4345 5.8833 3.2207 8.51367.84551 3.51289.94537 7.25505.85547 14.69531-.0972 8.04775-.79102 14.41552-1.68945 15.49805-.83876 1.01065-4.36539 2.22031-7.83594 2.6875-4.48237.6034-8.8535 2.06767-12.98633 4.23633-.52868.22057-1.01941.43741-1.44726.64453-2.89346 1.4007-5.85733 3.67232-8.72461 6.55273-9.39841 8.57144-16.406 21.07851-18.71094 34.98829-1.60057 9.65916-1.12696 13.09254 2.875 19.21875.0389.062.0815.12522.12109.1875.1545.23438.27652.44452.44141.6875l.23633.34961c.006.009.0116.0166.0176.0254l2.72071 4.00781.0156.0254c-.001.0126-.00038.0245-.002.0371-.25084.51107-.61714 1.10544-1.0918 1.77539l-8.19531 8.20898c-20.05731 20.09364-48.49577 40.29653-76.36914 54.25391-16.05804 8.04094-27.8971 12.37799-48.1582 17.63867-23.00421 5.97294-26.24695 6.02729-46.42383.77344-21.47335-5.59143-37.31727-11.647-57.62695-22.02539-28.16297-14.39146-50.70102-30.47717-70.48633-50.30469l-8.68555-8.70508c-.31168-.49746-.50006-.91815-.60352-1.30078l1.98633-4.00586.91602-1.63867c1.16758-2.08903 1.9438-3.66256 2.43164-5.19727 2.346-5.02477 2.21854-6.38647.86523-12.64062-2.90938-13.44548-11.01263-28.35334-19.87109-36.55469-.01-.009-.0175-.0163-.0273-.0254-.82129-.78792-1.65575-1.53131-2.49805-2.22656-6.18357-5.29683-10.53956-6.90959-24.58984-10.03711-.33707-.075-.61801-.15994-.9043-.24609-.94113-.412-1.65763-.88405-2.21094-1.47657-1.12987-1.63569-1.69254-4.97122-2.73828-12.61132-.0251-.18329-.038-.37598-.0586-.5625-.1137-3.12979.0675-6.25487.54687-9.38477 1.17726-6.06342 3.8377-13.15685 7.96094-21.18164 6.074-11.82138 23.9153-29.86041 46.375-46.89063 13.27237-10.06386 21.9589-17.49177 28.52539-24.77343.99691-1.08511 1.91248-2.14139 2.75391-3.18164.0593-.0713.13001-.15052.1875-.22071.0645-.0788.13415-.17692.19921-.25781 3.2725-4.03713 6.02202-8.15569 8.64844-12.77734 4.36648-7.68358 7.42499-14.57084 11.43945-26.8418.37028-1.11197.72041-2.21268 1.05079-3.30273 2.01556-6.35875 4.26525-13.93042 7.07226-23.75391 8.26426-28.92185 11.09791-33.42645 28.1543-44.77539 13.75192-9.1502 31.0612-16.93659 46.00586-20.69336 5.54887-1.39484 10.92047-2.14076 16.33398-2.22656zm-106.44922 12.38086c.28381.0503.58529.13258.90039.24414.34242.14648.64708.26465.97657.40234.5255.24296 1.09382.52533 1.79101.89453 1.37393.72757 3.02614 1.2488 5.14649 1.61914 4.46561 1.27254 8.2859 1.52097 13.89648 1.17383l6.81836-.42187 2.37891.008-6.33594 5.92578c-8.4413 7.89585-12.72106 16.71094-18.83789 38.80273-6.98765 25.23693-10.76396 37.45874-15.94336 47.31641-1.61296 2.90779-3.36736 5.80175-5.25 8.64258-2.17332 3.15779-4.64644 6.40713-7.63281 10.16015-7.49687 9.42146-13.2699 14.56101-35.90625 31.96875-14.88265 11.44502-15.57182 11.80712-23.47071 12.32813l-5.99804.39648c-1.37511-.39011-2.15584-1.20173-2.68555-2.58789l-.31641-1.58203c-.3081-1.54051-.53874-3.15347-.70898-4.81836-.0424-.8588-.0731-1.75579-.0898-2.70117-.0525-6.34238.59448-14.96418 1.66406-22.48242 4.4463-23.40988 16.41392-51.05772 33.06054-74.61328 3.83843-5.15169 7.91862-10.21687 12.11524-15.05274 15.98097-17.57478 38.45585-36.02126 44.42773-35.62304zm-108.60547 16.85547c-.96222-.0243-1.98017.005-3.06054.082-6.20025.44371-8.43278 1.28128-11.666018 4.3789-1.271231 1.21792-2.211381 2.51951-2.853516 3.84961-.721996 1.42159-1.139896 3.00277-1.144531 4.73438-.00002.003-.002.008-.002.0117 0 .002-.000004.004 0 .006-.000004.004 0 .008 0 .0117 0 .59455.120783 1.227.328125 1.87305.205127.94637.593231 1.85964 1.197265 2.7168 1.105569 1.81918 2.837218 3.40565 5.124998 4.56836.44459.24085.89559.45317 1.34961.61914.008.003.0229.007.0312.01.89269.35395 1.85495.64829 2.88281.875 9.04228 1.99438 17.66456-.84791 21.82227-7.19336 1.90401-2.90589 1.90804-3.59439.0449-7.19726-3.32857-6.43675-7.31911-9.1759-14.05469-9.3457zm-1.39257 5.53124c1.72696-.0229 3.43242.33428 4.94921 1.10157.38384.20822.75711.43579 1.1211.67578 4.37121 2.98773 4.12617 6.63703-.66992 9.11719-4.33579 2.24213-8.55948 2.47304-12.93164.70898-3.73948-1.5088-4.52587-2.91908-2.73438-5.73047.57196-.70759 1.25745-1.47619 2.16211-2.38086.44073-.44073.89066-.83015 1.34375-1.19531.88368-.58848 1.80514-1.11384 2.7168-1.54688 1.30365-.47493 2.6793-.73188 4.04297-.75zm-1.33399 3.59571c-2.67586 0-4.02537 1.49335-3.42187 3.32812.0119.34653.10118.69147.30273 1.01758.10319.16701.2978.30986.55078.42969.88067 1.04298 2.02406 1.89062 2.56836 1.89062 1.79787 0 4.25325-3.84487 3.36914-5.27539-.47308-.76546-1.98903-1.39062-3.36914-1.39062zm287.79492 2.66601c-1.55884 0-4.04588 1.65628-6.63086 4.11524-1.13558.98728-2.21913 2.15141-3.23632 3.44922-2.09486 2.48038-4.02004 5.27186-5.30078 7.89648-1.09356 2.241-1.85307 5.58624-2.2754 9.16797-.83535 4.2354-.9441 8.38945-.0703 11.85937.32142 2.49178.88393 4.50109 1.71875 5.50977 1.83818 2.22104 2.13467 1.67154 3.66016-6.79101 2.11396-11.72701 3.59277-15.44414 9.88867-24.85743 5.88665-8.80131 6.22374-10.34961 2.24609-10.34961zm-142.4375.0605c-.35424.0137-.6335.10616-.8164.28906-.15956.15957.12094.86506.69336 1.89063.0942.23815.21143.49585.38086.78906.19218.47433.62517 1.07272 1.22851 1.76367.71133 1.05722 1.50442 2.18835 2.42969 3.40235 5.16783 6.78043 10.70611 20.66725 10.74609 26.94531.01 1.57277.40252 4.29821.87305 6.05664.81111 3.03118.94858 3.07077 2.64844.74609 2.77936-3.801 2.84136-11.06872.83398-18.62695-.17281-.7482-.36407-1.46609-.58594-2.11719-.0818-.23995-.1807-.48809-.27148-.73242-1.55843-4.68909-3.86621-9.3396-6.80859-13.19726-2.70533-3.54689-8.87189-7.30513-11.35157-7.20899zm72.22657 13.04297c-1.18623-.01-2.36195.17777-3.57227.53125-.54471.083-1.09085.18233-1.64062.32031-.74388.1867-1.89213.85188-3.24414 1.80078-4.80354 2.54348-7.7617 5.28228-12.09961 10.96485-1.07599 1.23614-1.86902 2.30377-2.19336 3.0332-.89386 1.32099-1.4232 2.24609-1.21875 2.24609.32853 0 5.33423-2.69998 11.125-6 5.58589-3.18325 11.58833-5.78311 13.70117-5.96484 1.16622.11187 2.84884.64865 4.83594 1.49023 2.39216 1.10331 5.27694 2.69716 7.99804 4.48438 3.67934 2.4166 6.93161 4.38349 8.52539 5.19141 1.28988.87215 1.58171.89086 1.10938-.10743-.37001-2.19918-6.95052-9.8872-11.2168-12.84375-5.02994-3.48574-8.6291-5.11862-12.10937-5.14648zm-242.636722 26.955095c-4.558914-.0601-9.722594 2.1933-13.865235 5.40625-2.651242 1.80629-4.491967 3.73589-5.625 5.94336-1.32953 2.05158-2.123047 4.1699-2.123047 6.15625 0 5.4356 3.6562 11.26243 8.597656 13.70117 8.438306 4.16455 19.822197 1.54506 26.785158-6.16211.0398-.0441.074-.0869.11328-.13086 2.7301-2.7121 4.50391-5.78239 4.50391-8.41797 0-.3809-.0192-.75924-.0508-1.13281-.009-1.91541-.55972-3.87336-1.63476-5.97656-2.16938-4.24415-11.190395-9.31416-16.701172-9.38672zm208.197262 2.60742c-2.18515 0-13.90851 9.39912-16.09375 12.62891l-1.05078.95117.67383-.0957c.0286.65455.63029 1.1836 1.36914 1.1836 2.73296 0 11.32113-4.18936 14.27344-6.96289 3.52677-3.31321 3.99854-7.70508.82812-7.70508zm68.54688 0c-.55297 0-.88481.18137-1.03906.49219-.97487.80396-.54032 2.51359.83007 4.45117.39067.79142.90943 1.53797 1.54297 2.11133.28425.25724.70204.56816 1.19141.90429 1.74628 1.57655 3.92882 3.082 6.3457 4.17969 4.23261 1.92234 6.15099 2.63073 6.94336 2.33594.56774.0617.49414-.34452.49414-1.06641 0-.0546-.0247-.12893-.0625-.21094-.0548-.13453-.17499-.31486-.30273-.50195-.0177-.16003-.13038-.35227-.36719-.58008-.0817-.0786-.21034-.18827-.29883-.27148-3.18156-3.6982-12.8835-11.84375-14.5332-11.84375-.16796 0-.32411.009-.47266.0234-.0228-.003-.0643-.0234-.084-.0234-.0468 0-.085.0148-.12891.0195-.0149-.003-.0471-.0195-.0586-.0195zm-276.072268 4.41406c2.850421-.0807 5.606223.63249 8.048829 2.16406 2.946432 1.84749 4.264193 4.15154 4.070312 6.52149-.471192 1.84243-1.565494 3.73553-3.087891 5.38867-1.314121 1.19854-3.020067 2.3345-5.138671 3.33984-4.796689 2.27618-12.546004 2.74082-16.427735 1.10352-.805746-.60994-1.564278-1.29592-2.21875-2.00586-.559686-1.07393-.865234-2.51692-.865234-4.25586 0-2.09722.340755-3.53238 1.332031-4.91797.545436-.64238 1.154479-1.29054 1.806641-1.92578.440274-.38549.917154-.78277 1.478515-1.21094 3.514871-2.68093 7.337127-4.09736 11.001953-4.20117zm242.384768.1875c-3.8442.0895-7.91233 4.5095-15.28125 13.33203-5.41773 6.48642-8.45786 9.99687-11.95899 12.65235-1.43416 1.0417-2.98381 2.00796-4.69726 2.96484-2.78205 1.47417-6.22796 2.94848-11.08008 4.97461-28.33596 11.83242-39.2011 19.55042-41.13477 29.21875-.0136.0681-.0167.123-.0293.18945-.28347.90063-.48828 1.69522-.48828 2.13867 0 .28238.23277.78149.62695 1.42383.76658 2.02876 2.98282 4.50489 8.0918 9.79688 8.74359 9.05677 9.00237 9.37361 6.70312 11.99023-1.29696 1.31435-3.12983 2.90419-5.08984 4.46485-4.60957 3.33826-10.36228 6.25195-13.07422 6.25195-2.36789 0-6.8378-2.68447-13.4043-8.04883-10.9706-8.96229-13.33934-9.35122-20.52148-2.61133-.16477.1399-.33329.27993-.48047.41602-.40576.37517-.85608.84628-1.32422 1.35742-5.29742 5.41284-9.92568 12.32829-13.33203 19.68555-.66219 1.25391-1.26376 2.45383-1.73438 3.52539-.70534 1.60602-1.29535 3.49129-1.78125 5.5957-.83117 2.70715-1.48049 5.41255-1.9082 8.06836-2.4354 15.12246 3.11342 51.30169 10.51563 68.57031 3.51196 8.19307 8.41204 15.15318 18.20898 25.83008.0446.0485.09.0961.13477.14453.56302.61274 1.07755 1.18965 1.67382 1.82813.4137.44298.7836.81165 1.18555 1.23633 1.62461 1.76257 3.20697 3.39982 4.67774 4.80273 8.41668 8.25025 15.44913 12.99658 29.49609 20.55078 12.47004 6.70613 16.46274 9.20515 17.87695 16.70899.22427 1.73015.44079 3.90688.64844 6.15625.0995 1.95053.15927 4.13853.21094 6.66211.17205 8.40325.99104 17.33498 1.82031 19.84765.36124 1.09458.87864 2.18639 1.50977 3.25195 1.21875 2.85833 3.01004 4.59331 5.76171 6.42579 1.72552 1.32649 3.60483 2.39521 5.50782 3.05859 5.2241 1.82113 9.57202 1.89399 15.45507.25976 3.48871-.9691 5.59002-2.7218 6.73633-6.06445.92457-1.87088 1.14258-4.26874 1.14258-9.10742 0-.59039.0117-1.10542.0215-1.63672.23488-2.75561.51451-4.92193.89843-6.69336.54903-1.69002 1.37952-3.25265 2.64649-5.11719.71581-1.05342 1.33996-2.31512 1.89648-3.7832l1.86914-2.51758-.002-.21679.002-.002-.0137-1.41992-.01-1.17773 1.10743-2.11914-.22657-7.85547c.70163-9.83793.62186-23.87407-.082-44.25-.54632-15.8145-.9521-24.78779-1.99219-30.5586l-.14257-4.01562-1.38477-1.42774c-1.30394-3.00779-3.19082-4.85544-6.06445-7.27343-2.33088-1.96131-7.03283-4.9836-10.44922-6.71485-2.45257-1.2428-4.31751-2.52595-5.76367-4.08789-.73883-1.05141-1.45882-2.20924-2.0625-3.36718-.45348-.86986-.8202-1.65838-1.14844-2.42774-.64375-2.08039-1.0766-4.5633-1.39453-7.62891-.0859-.82791-.13897-1.63306-.17383-2.42578.0187-.73466.0464-1.50845.0898-2.35742.0971-1.89768.21223-3.45211.38477-4.7832.50456-2.54238 1.38665-4.87603 2.66992-7.03711 1.10295-1.70142 2.40878-3.32962 3.89649-4.87305.11863-.12215.23912-.24264.35937-.36328 4.48822-4.22627 11.11817-7.72057 20.21289-10.84961 12.52563-4.30948 27.10639-2.63206 40.88672 4.63086.0102.005.0191.0122.0293.0176.90863.47946 1.81598.98185 2.71679 1.50976 6.82779 4.00134 10.8638 10.34067 11.77539 17.60352.0626.94581.10485 1.92039.10352 2.96484-.002 1.42875-.063 2.77184-.17187 4.05469-.45952 3.29274-1.50697 6.67325-3.17774 10.0332-.93512 1.88055-1.80039 3.33144-2.79883 4.60547-1.83089 1.98211-4.11078 3.81548-6.94336 5.60742-.64097.38003-1.30575.76583-2.05273 1.1836-13.57175 7.59042-13.69921 7.91513-14.96289 37.71875-1.00176 23.62817-1.30176 42.11159-.9336 53.46289.039 3.17684.12327 5.4934.26368 6.42969.026.17342.0719.36722.10547.54883.018.20046.0358.38828.0547.57812l-.0195 3.30664.95313 1.48438c.86224 2.33702 2.44771 5.09827 3.80859 6.54687.39011.41525.71834.84823 1.01953 1.29883.63746 1.23234 1.13567 2.5231 1.52539 4.01367.34912 1.78798.55033 4.07573.67578 7.29492.30332 7.78452 1.47796 12.19015 4.53711 14.80664.66708.76612 1.39932 1.33231 2.1875 1.63477.40676.15608.89669.28441 1.42383.39648 1.05219.38698 2.21728.708 3.53906.96875 4.86161.95906 7.53554.68896 13.13672-1.33203 10.43437-3.7649 11.9786-7.20262 13.125-29.18945.58606-11.24019 1.30348-17.05755 2.51367-19.96485.29521-.56392.62354-1.10011.98633-1.61132 1.76416-1.99667 7.33228-5.78689 13.08594-8.84766 17.05837-9.07453 25.54786-15.13151 35.76562-25.51172 8.55248-8.68847 14.5413-16.17401 19.03907-24.88281.38143-.69096.75203-1.38275 1.10547-2.07227.76759-1.49751 1.55974-3.39885 2.35351-5.61328 2.65164-6.79604 4.70005-14.5985 6.52735-24.17773h.004v-.0215c.90166-4.729 1.75703-9.84623 2.5957-15.56836 3.52699-24.06399-.87015-41.89604-14.85937-60.17578-.0929-.12683-.18633-.2422-.2793-.36718-.25751-.33353-.49388-.66611-.75781-1-.11126-.14076-.21239-.25909-.32226-.39649-.33376-.42133-.66721-.82845-1-1.22265-8.48803-10.18035-13.10016-9.59728-26.48438 1.95117-8.9328 7.70755-12.97839 7.96162-21.95703 1.375-3.51901-2.58153-6.75272-5.61825-7.18555-6.7461-.44015-1.14706 1.34261-3.91217 5.15039-8.04687l1.70899-1.72266c4.01085-4.0418 6.22637-6.49145 7.42382-8.51758.99847-1.32277 1.66203-2.36534 1.82813-2.92578.29662-1.00099.0516-2.7801-.60742-4.83008-.38132-1.75233-1.2288-3.58835-2.52735-5.68945-.20395-.33-.47431-.68209-.7832-1.04687-2.10109-2.99859-4.97522-5.28362-10.60937-8.68555-5.13332-3.09955-11.43336-6.3198-14-7.15625-7.05585-2.29948-21.28552-8.62598-27.4336-12.07227-2.12562-1.52342-4.15485-3.25185-6.28711-5.33593-2.34214-2.55392-5.14859-5.89562-7.67382-9.21289-6.47086-8.50048-10.09135-12.74181-13.93555-12.65235zm-243.748049 3.53711c-.358646-.01-.725994.0316-1.107422.12695-6.327732.79953-10.550078 7.34213-5.480468 10.29493 3.135333 1.82615 3.818032 1.77431 8.480468-.63672 2.599519-1.34424 3.55619-2.38213 3.648438-4.25977.06734-.27807.07213-.55958.0078-.84961.412195-1.70348-.229422-3.08768-1.628906-3.85156-.613026-.37674-1.44447-.59258-2.595703-.72461-.252661-.029-.497238-.0251-.746094-.0352-.190923-.036-.382942-.0592-.578125-.0644zm517.400389 8.03516c1.81143-.1363 4.0704 1.4005 5.875 4.5 2.6037 4.47193 4.28313 9.22035 5.35938 16.39258.002.0138.004.0291.006.043.11744.78533.22466 1.61084.32812 2.45704.0246.20485.0502.40664.0742.61523.0911.78304.17744 1.59279.25781 2.43164.0174.17694.0337.35571.0508.53516.58368 6.35554.88214 14.34096 1.02539 24.85156l.36719 26.96289-.0117.20703c-.39203.0547-1.23337.11139-2.26367.16992l-34.75195.0957-37.03125.10351-.78906-4.76953c-.43393-2.62276-.79713-7.28856-.80469-10.36914-.0181-6.9024-2.08032-17.33864-5.37305-27.18945-1.37076-4.10094-2.8967-11.93388-3.39258-17.40625-.13425-1.48153-.23225-2.68807-.30859-3.78711.006-3.21504.30921-5.9627.95117-7.69922.43893-.72355 1.02371-1.44748 1.79297-2.3418.93904-1.09168 1.63065-1.83243 2.25-2.33789.79025-.39133 1.63025-.63468 2.49414-.69922.63139.13171 1.36179.41943 2.33594.86328 2.05893.93812 7.37833 4.58973 11.82226 8.11524 12.80902 10.16197 22.79172 16.24104 28.23633 17.25.39886.0989.76189.16601 1.03906.16601.0813 0 .16736-.0106.25-.0137.0631.002.1359.0137.19727.0137 3.30608 0 6.14305-1.36281 8.59375-4.14648.24951-.24222.49003-.49904.72461-.76953 1.01995-1.02413 1.88235-2.13348 2.4668-3.26367.67175-1.29901 1.50714-3.688 2.27929-6.31446 1.06533-3.09744 2.01813-6.71575 2.875-10.87304.73791-1.91355 1.5891-3.15067 2.54883-3.69727.17066-.0469.34496-.0821.52539-.0957zm-273.59375 4.24414 4.96875 4.64062 1.74805 1.79297c8.63225 8.85441 19.57544 16.54341 35.88867 25.21875 14.82417 7.88348 21.62075 11.68472 23.04688 15.13477.45241 2.08363-.83839 4.32961-3.55274 7.54492-.62289.63081-1.29047 1.28866-2.04101 2.00781-5.81696 5.57361-8.02684 8.61746-8.61133 12.48828-.10643.54812-.17578 1.09514-.17578 1.65625 0 .0922.0119.1867.0137.2793-.005.18875-.0137.37385-.0137.56836 0 6.5461 3.41624 12.64589 11.21484 20.02148 8.01638 7.58155 14.33713 10.89649 20.7793 10.89649.68266 0 1.6499-.18301 2.79101-.49219.1084-.0174.22077-.0248.32813-.0449.84798-.15908 2.23776-.66983 3.90625-1.39063 5.56512-2.14668 12.68094-5.72905 17.18554-8.9082 7.72441-5.45155 12.66573-1.48867 17.3418 13.90625 2.45348 8.07757 2.72332 11.35612 2.03125 24.78516-2.04469 39.67404-22.21041 71.60973-60.13672 95.23828-.53108.33087-.93476.58861-1.42578.89648-.95402.58103-1.79516 1.1231-2.62109 1.65235-.0226.0144-.0478.0286-.0703.043-.91715.58871-1.83732 1.18305-2.61523 1.72656-6.14144 4.14342-7.65397 6.22014-10.53711 11.92187-3.67808 7.27382-4.12322 9.57205-4.89258 25.33203-.28646 5.86836-.72273 11.48048-1.15234 15.25196-.29872 2.04193-.61894 3.62787-.94336 4.52539-.13526.30905-.28642.58358-.43555.86133-.32446.51367-.69407.97682-1.10937 1.38476-2.37131 1.97434-6.22222 2.50987-9.42774.97852-3.27167-1.56291-3.59983-2.48349-4.27539-11.99414-.64512-9.08225-1.19866-10.7865-4.66797-14.4043l-.37695-.39258c-.22439-.30652-.4562-.6045-.69531-.88867-1.28248-1.52442-2.09586-2.51253-2.61524-4.25-.10721-.43003-.2076-.88306-.29687-1.39258l-.33789-18.0957c-.21354-11.50394.11307-30.67784.72656-42.60742 1.29585-25.19861.97128-24.56767 15.66211-30.31641 12.17325-4.7636 15.88023-7.51365 20.32813-15.08008 1.9469-3.31194 2.88823-5.50449 3.30273-8.62695.84878-3.4414 1.01928-7.07753.45508-10.83985-.32342-2.15671-.81793-4.27233-1.45899-6.34765-3.81821-15.46676-16.08386-28.03656-35.36914-35.88477-8.26847-3.36488-14.48227-5.32662-20.30859-5.83593-1.95802-.32047-3.55572-.32278-5.42383-.0469-6.60162.46702-13.37912 2.86824-22.85937 7.2793-27.37187 12.73583-39.41763 36.61815-29.2793 58.04883 1.81344 3.83329 3.84148 6.89388 6.33008 9.41601 1.31695 1.42031 2.77536 2.60589 4.49414 3.6543 2.94363 1.90854 6.439 3.42366 10.72851 4.72656 5.08831 1.54553 10.22823 3.88829 11.41993 5.20508 1.7849 1.97231 2.36532 7.67411 3.30078 32.36523.62372 16.48506.91023 35.34807.63281 41.91602-.45595 10.79686-.87949 12.41194-4.40039 16.85742-3.52536 4.45111-3.89258 5.87009-3.89258 14.98242 0 .58748-.008 1.06144-.0117 1.58594-.004.52355-.005 1.08436-.0137 1.55664-.001.077-.006.13347-.008.20898-.007.33656-.0209.62227-.0312.9336-.13146 1.80741-.32657 3.48221-.56055 4.86523-.43191 1.40338-1.14977 2.15864-2.33984 2.99219-3.33891 2.33866-4.4175 2.42123-8.76172.67774-2.4123-.96812-4.11046-3.11106-5.22656-6.82227-.66106-3.41056-1.31976-9.59184-1.70118-16.1582-.005-.50818-.0137-1.00142-.0137-1.5293 0-10.73909-.58538-15.3702-2.68945-21.14844-.50316-1.64718-1.10857-3.132-1.84375-4.50976-2.90311-6.10801-6.69402-8.97869-19.97852-16.90625-16.95616-10.11863-38.4142-32.22985-45.24609-46.62305-9.06724-19.1026-11.89979-30.44147-12.05078-48.23828-.0213-2.51507-.0127-4.61264.0156-6.53906.14921-4.49077.49977-8.35464 1.08203-11.76368.40296-1.7667.92328-3.45247 1.62891-5.33593 3.66818-9.79106 7.89485-15.69532 11.23633-15.69532 1.4509 0 7.45545 2.77943 13.34375 6.17578 13.97513 8.06087 19.79479 8.79701 29.17187 3.69336 8.55851-4.65811 16.86665-13.86401 18.71875-20.74218 2.09724-7.78855-.084-13.52083-7.96289-20.91797-1.24531-1.16917-2.39962-2.37666-3.40429-3.52149-1.57617-1.98688-2.73339-3.67033-3.16211-4.63672-.0857-.50996-.0727-1.0017.041-1.48437 1.11953-2.38109 6.87483-5.87124 28.61133-17.90039 9.80173-5.42436 16.32133-9.71867 22.58398-14.98047 3.49451-2.77608 6.59996-5.61794 9.78321-8.87305l.61914-.63281 2.91015-2.73437zm67.00977 3.58203c-.0369 0-.0714.0133-.10742.0195-.27995-.0146-.53516-.004-.76954.0293-1.23899.008-1.69869.4616-1.47265 1.22656-.0294.13907-.0547.28031-.0547.44336 0 1.55667 11.10687 8.98658 16 10.70312 1.27459.44713 2.2197.66404 2.87305.6875.85267.13012 1.12695-.19839 1.12695-.92968 0-.37911-.58635-1.1086-1.50586-2.01172-1.22437-1.34166-3.20288-3.08806-5.92773-5.16016-3.82334-2.90746-7.45993-4.6425-9.83008-4.9414-.12571-.0337-.24901-.0664-.33203-.0664zm-135.64844.0488c-2.07814.0752-5.24069 1.53947-8.83398 4.28515-1.63207 1.2471-3.26792 2.65186-4.59375 3.90235-.16403.1548-.30901.30462-.46094.45703-.96243.93791-1.75556 1.78248-2.08594 2.30664-2.24736 3.56542.89971 2.99206 10.36328-1.88867 5.23811-2.70151 7.90737-4.79955 8.16211-6.41407.005-.026.0254-.0582.0254-.082 0-.034-.007-.0645-.008-.0977.001-.0239.008-.0486.008-.0723 0-.093-.0156-.17028-.0215-.25781.19875-.66327.0709-1.24941-.41797-1.73828-.27193-.27193-.73075-.368-1.31836-.33399-.25254-.0472-.51891-.0772-.81836-.0664zm-35.50977 22.61914c-.25552 0-1.04752.87972-2.03125 2.125-.0699.0592-.14135.1089-.21093.17187-2.04092 1.847-5.17226 6.72837-6.07032 9.21875-.16394.3474-.26757.6234-.26757.76758 0 .0332.0128.0593.0273.084-.0114.08-.0273.16577-.0273.23242 0 1.7796 5.23991-1.06688 9.01953-4.08399 2.50622-1.5119 4.31445-2.86268 4.31445-3.29883 0-.24207-.21037-.65292-.51953-1.125.12179-2.30557-1.25417-3.54137-3.07422-3.42187-.49396-.40803-.91488-.66992-1.16016-.66992zm204.62305.16992c-.6372.0489-.97665.59301-1.11914 1.62305-.27558.32782-.28881.84021-.082 1.45898.00001.003-.00002.006 0 .01-.00007.008-.002.0149-.002.0234 0 .009.006.022.006.0312.0351 2.35189 1.50912 4.03196 5.66015 6.44922 3.11668 1.81493 6.13232 3.36027 6.70117 3.4336 1.91615.24709-2.79244-7.32176-6.3125-10.23828-.54625-.4867-1.09285-.90782-1.62109-1.24024-1.4962-1.07318-2.54246-1.60362-3.23047-1.55078zm-348.410155 7.92969c-.744528.002-1.558146.0267-2.431641.0684-2.389-.0324-4.760152.19675-7.041015.69336-3.491177.56468-6.561941 1.4161-7.855469 2.26367-4.962973 3.25187-9.799282 10.2926-10.808594 15.73633-.609554 3.28763-.497534 4.72981 1.511719 7.36132.995762 1.62516 2.472355 3.2392 4.279297 4.73829 2.844226 2.67113 6.012766 4.58205 9.380859 5.61914 1.241909.38239 2.47174.69969 3.6875.96289.438703.10831.910382.20131 1.404297.28125 7.036248 1.27512 13.504495.56812 18.646484-1.72852.610122-.22467 1.182493-.45975 1.675782-.71484 1.251037-.64694 2.39368-1.48176 3.423828-2.45117 4.035718-3.39942 6.480658-8.22932 6.568358-14.1211.11562-7.76802-2.89636-11.78416-12.230468-16.30273-3.631495-1.75802-6.045336-2.41489-10.210937-2.40625zm495.523435.004c-3.06309-.046-5.09456.33433-7.67383 1.36328-1.87728.60068-3.652 1.4194-5.35546 2.4629-.67391.39265-1.3191.81812-1.93946 1.26953-5.33924 3.54694-8.01367 8.01183-8.01367 13.40625 0 8.08074 5.42288 14.98282 14.24414 18.1289 10.65407 3.79971 22.39413 1.83133 30.24024-5.07031.0521-.0459.0969-.0909.14843-.13672 2.26033-1.62801 3.614-3.11737 4.4336-5.05469 1.92667-3.117 2.31856-6.26314 1.27734-9.81054-.21309-1.42561-.77133-2.67344-1.75781-4.16797-3.52217-6.66915-8.01406-10.03023-15.69531-11.46094-2.57601-.68571-5.29528-.97603-8.08594-.86523-.0599-.00024-.11976.002-.17969.002-.56572-.0282-1.14052-.0589-1.64258-.0664zm-498.390622 6.62689c5.609968-.21317 11.307953 1.35617 15.36914 4.77343 7.231212 6.08467 3.841058 16.27749-6.355469 19.10938-3.389252.94133-7.073848 1.35828-9.914062 1.20898-.247181-.0144-.494127-.0286-.740235-.0488-.874285-.0824-1.657735-.2204-2.285156-.42969-.733334-.24465-2.880998-.78217-4.771484-1.19531-4.652032-1.01655-10.50008-6.66122-10.556641-10.16602-.000255-.021-.0038-.0414-.0039-.0625.0073-1.57837 1.989072-4.84456 4.412109-7.26758 3.712653-3.71267 9.235735-5.70871 14.845704-5.92187zm497.642582.1914c1.33124-.009 2.89039.0556 4.76757.16992.0161.001.0287.003.0449.004 5.13415.43926 8.77486 1.44171 11.52148 3.35547.18185.131.35592.26917.5332.4043 1.90033 1.47254 3.36256 3.42598 4.59375 6.00781l1.07227 2.25c.25176 1.54061-.0376 2.975-.87305 4.31836l-2.18164 1.94922c-2.33102 2.08278-6.51953 4.42081-9.30859 5.19531-4.57348 1.27001-9.32078 1.49617-13.4375.85547-4.56977-.99207-8.35655-3.17037-10.68946-5.91211-1.036-1.94384-1.59128-4.95752-1.36523-7.65234.36934-4.40104 1.14261-5.39212 6.41992-8.21875 3.1054-1.66329 5.18093-2.45737 7.85352-2.6875.34609-.0145.67065-.0366 1.04883-.0391zm4.70703 4.00977c-1.0331-.0417-2.10002.0295-3.18164.23242-9.40604 1.76459-13.37941 11.1847-5.97657 14.16992 1.30034.52437 2.7342.86427 4.21094 1.05078 1.26614.19777 2.5382.23936 3.7793.15235 1.15551-.0237 2.28819-.17143 3.36328-.45117 3.17616-.67147 5.89785-2.03927 7.17578-3.95313 1.01496-1.52006 1.22303-3.1068.83203-4.59375-.0363-.43896-.20037-.8456-.5039-1.25781-1.48771-2.89708-5.2615-5.17057-9.69922-5.34961zm-503.550784.13476c-.455296.0185-.913716.0564-1.376954.11329-9.496221 1.16515-12.441339 9.35214-4.847656 13.47851 1.633959.88789 3.948543 1.46163 6.371094 1.72852.409728.0473.81792.0786 1.224609.0996.04115.003.08189.007.123047.01.496171.0554.988887.0824 1.482422.0606.05007-.00015.100443.00068.150391 0 .05633.001.111905-.00045.167969 0 .04808-.001.09657-.00023.144531-.002.230038-.00091.45995-.003.685547-.0176 2.338665-.0901 4.489162-.4946 5.904296-1.25196 1.54418-.82641 2.433266-2.52805 2.554688-4.8164.134479-.83983.03808-1.68242-.261719-2.49805-1.239808-4.19474-6.382672-7.14512-12.322265-6.9043zm342.236324 13.03125c-.57465.0009-1.14282.11209-1.69726.31836-1.6186.43153-2.92826 1.71133-3.97461 3.84375-.64083 1.04819-.94492 1.77331-.91602 2.50196-.25313 1.38293.22567 2.35651 1.6211 3.89843.97167 1.0737 2.03044 1.79875 3.0957 2.23829.54184.26864 1.06485.43359 1.51172.43359 3.52539.53175 6.73242-2.14679 6.73242-6.96094 0-2.69253-.92506-4.18286-3.25-5.24219-.001-.00062-.003-.001-.004-.002-1.01219-.69026-2.07445-1.03092-3.11914-1.0293zm-181.62109.23829c-.24454.007-.48887.0402-.73242.082-.63354.016-1.23082.15612-1.74219.47656-.018.0113-.033.0256-.0508.0371-1.17434.55576-2.03538 1.60098-2.49024 2.85547-1.35907 2.45092-.89494 4.94384 1.43555 7.94726.77354.99689 2.3371 1.40986 3.99024 1.33008 2.72976.64584 5.29864-.91451 6.0332-4.07422 1.43949-4.44329-2.4802-8.76839-6.44336-8.65429zm-103.33984 22.66211-6.7168 6.99023c-3.69462 3.84457-7.7912 9.37105-9.10352 12.28125l-.67187 1.49219-2.14258 3.80273-31.134765.18164c-17.359733.10171-35.763149.45729-40.896484.79102-1.042643.0678-2.062279.11235-3.066407.14258-1.760473-.0117-3.397976-.0274-4.921875-.0488-.599121-.0169-1.224358-.0326-1.787109-.0508-10.23916-.6398-17.977628-3.61207-22.853516-8.84571-2.9464623-3.16265-3.3917665-7.23874-1.3125-9.44531.279809-.26979.602663-.52958.978516-.7793.06587-.0394.124606-.0843.193359-.12109 6.514114-3.48624 29.919153-5.27934 76.101563-5.82812zm387.46484.0898 50.26758.54297c37.88795.40879 52.87009 1.04729 60.83594 2.59179 10.0074 1.94035 14.79804 3.46721 16.25976 5.3379.32361.72808.45254 1.55211.41211 2.43359-.61542 4.02555-4.60252 8.76857-9.53711 11.13672-2.32889 1.11763-7.14366 2.22446-12.04101 3.02929-3.74536.22213-8.93591.34786-16.51563.41407-4.97428-.34355-18.77702-.64941-34.88477-.73438l-36.21289-.1914-.16211-.27735c-.27785-.77732-1.10501-2.14505-2.2246-3.79297l-.89063-1.51953c-1.80185-3.07461-5.98264-8.59962-9.29101-12.2793zm-421.875 31.58789c9.60818.0138 12.69974.183 13.22656 1.14258l-.85156 2.9707c-.71383 2.48897-1.2998 6.03097-1.30273 7.86914h-.002l-.002 1.4043-.26563 1.9375-.54492.006-29.519529.18945c-22.223897.14278-32.319878-.2518-36.65039-1.81445-.766729-.35715-1.437171-.70285-1.941407-1.04688-.389127-.34376-.651233-.72427-.8125-1.14453-1.17425-3.06002 2.207482-7.94947 6.242188-9.02539 2.10819-.56217 17.842533-1.44484 34.964844-1.96094zm456.99805.12109c1.84052.006 3.92134.0196 6.26953.0391 2.26988.0188 4.80116.0605 7.33789.10546 7.94295.21596 16.88141.57203 23.55078.97852 15.56923.94893 18.70327 1.50547 20.29102 3.60156 1.86298 2.45948 2.33819 6.03428 1.35351 8.11914-.23313.21641-.49689.4419-.79297.68164-.107.0867-.22011.16569-.33203.2461-.71367.32223-1.69711.57829-3.22656.77343-5.64816.38563-17.82043.65821-31.42969.65821-.0708 0-.12027 0-.1914 0h-32.86524l-.73828-3.33399c-.40675-1.83333-1.23291-5.28268-1.83594-7.66601l-.7832-3.09571c.51654-.93105 3.46612-1.14008 13.39258-1.10742zm-443.42969 46.69727c2.97478-.01 6.10048.042 9.36523.1582 18.69976.66548 24.89331 1.6991 30.28516 6.72656l2.0293 2.13086c.18392.19316.32988.36687.50781.55664.3056.35903.60957.71678.92383 1.10547 6.42046 7.94136 7.61628 10.52491 10.53711 22.75391 1.64035 6.86793 2.44482 10.6754 2.30273 13.05859-.008.094-.0133.19068-.0234.28125-.006.0634-.0178.12033-.0254.18164-.17602.83577-.45264 1.54906-.83398 2.16016-.59829.76269-1.49332 1.33492-2.72656 1.97266-.63539.32857-1.52401.61198-2.72657.86328-.32571.0636-.70807.12775-1.06445.1914-4.64824.78264-13.29558 1.20132-29.875 1.54493-29.94146.62052-33.506974.45453-42.935546-2.00586-1.113813-.29066-2.073148-.62802-2.919922-1.08594-2.304189-1.526-3.662351-3.75836-4.957031-7.24024-.931243-2.80655-1.824498-6.58065-2.900391-11.79101-.771253-3.73504-1.317028-7.18787-1.662109-10.28711-.03179-.37352-.07385-.7683-.09766-1.12305-.428202-6.3808-.404125-10.14047 1.035157-12.63281 2.249535-3.21135 8.936002-5.48079 19.023437-6.63867 4.503952-.45444 10.093832-.73807 15.892582-.86914.28646-.002.55637-.0108.8457-.0117zm430.60937.0176c7.31277.16463 14.52079.58945 20.07422 1.20703 5.24339.78642 9.43329 1.9471 12.49219 3.49414.28904.14618.52224.27907.76758.41406 1.0648.82894 1.88529 1.79106 2.47656 2.94727.37527 1.5272.41103 3.91121.40235 8.12695-.021 10.26523-2.71877 23.99257-5.93946 30.2207-2.49324 4.8214-7.16794 6.41309-21.70703 7.39063-6.41707.43147-13.76731.96117-16.33398 1.17773-2.56668.21668-8.56732-.0344-13.33399-.55859-4.76666-.52418-13.52267-1.02358-19.45898-1.10938-.60083-.009-1.14031-.0253-1.69922-.0391-2.09262-.21751-4.49814-.46201-6.11914-.63672-1.647-.29499-3.0626-.60506-4.16211-.93164-3.97215-2.10935-3.55108-6.98464-1.17969-18.35156 1.85685-8.90052 5.98721-17.24558 11.08789-23.16211 1.0622-1.17549 2.19364-2.32442 3.41602-3.45117.0654-.0603.11368-.10124.17773-.16016 2.12534-1.8325 4.35139-3.24536 6.60547-4.10547 2.20003-.83943 12.7474-1.86726 23.43945-2.2832 3.15341-.12267 6.1403-.18043 8.99414-.18945zm-402.48242 22.46289c-2.26236-.0191-4.82198.47844-7.22265 1.57226-.67608.30805-1.237.63951-1.70508.98242-.88211.41126-1.36715.9492-1.4043 1.5918v.002c-.0975.11482-.13652.21831-.11133.31835-.2854 1.16213.63789 2.19607 2.82422 2.61719 1.79946.34659 3.44264.57463 4.93164.69727.29324.0377.58238.0582.86719.0605 5.46597.30227 8.53516-1.01508 8.53516-3.81835 0-2.52714-2.94425-3.99168-6.71485-4.02344zm373.98242.0957c-2.72939-.0277-4.89092.67198-6.05468 2.07422-.2278.27448-.40604.51365-.5586.74023-.38114.34863-.53204.73935-.43554 1.15235.007.65166.55415 1.23011 1.7539 2.10742 2.9641 2.16741 8.43171 2.39551 13.27344.55469 4.56862-1.737 4.31169-3.46162-.7793-5.23633-2.61074-.91013-5.07635-1.37106-7.19922-1.39258zm28.33985 1.25195c-.94793-.0386-1.78675.13601-2.41992.50586-.79342.32256-1.39989.80068-1.65625 1.46875-.41587 1.08371.26697 2.56046 1.52343 3.29297 3.28494 1.91509 7.71518 1.46261 9.14063-.51367.29205-.15984.4707-.35116.4707-.58203 0-.0921-.0325-.18552-.0625-.2793.0409-.1754.0625-.3582.0625-.54883 0-2.15497-3.72756-3.43582-6.89648-3.32812-.0533-.003-.10941-.0135-.16211-.0156zm-430.75977.0664c-1.52055.001-3.27144.43362-4.93554 1.32422-.0423.0226-.0701.0457-.11133.0684-.0429.0223-.0861.0376-.12891.0605-1.60352.85819-2.26237 1.2491-2.04883 1.78321-.55688 1.0367.11833 1.95212 2.04297 2.45508.62037.16212 1.2171.28365 1.79688.38086 1.0926.48588 2.06274.54166 3.10937.21875 3.15684-.1369 5.01278-1.52272 4.47071-3.73047.15669-.93229-.51896-1.67682-1.66211-2.10547-.0326-.0142-.0601-.034-.0937-.0469-.0459-.0176-.10507-.0241-.1543-.0391-.14399-.0455-.29086-.0874-.44727-.12305-.55157-.16293-1.1716-.24661-1.83789-.24609zm-23.337888 1.27734c-3.055468 0-6.131997 1.42393-7.335938 3-.62967.46037-.891855.784-.804687 1.11719l-.703125.36914 1.017578.29102c.0217.0257.04542.0509.07031.0762.03512.0935.06517.18686.121094.27734.61291.9917 2.617449 1.47014 4.804688 1.48828 1.328969.11107 2.659685-.0442 3.80664-.44531 1.228451-.31948 2.262128-.80254 2.798828-1.44922.713493-.8597 1.026116-1.65206.984376-2.33398.0034-.0731-.0057-.14328-.0293-.21094-.03516-.1971-.09928-.3837-.197266-.55859-.118-.49058-.545096-.81896-1.322266-1.11719-.157324-.0604-.327519-.11121-.505859-.1543-.72644-.22553-1.631557-.34961-2.705078-.34961zm476.427738 0c-1.86376 0-2.82622.47739-3.14258 1.59375-.46555.48522-.51562 1.10876-.041 1.77344.21618 1.11889.84042 2.13672 1.58008 2.44922.45286.19133 1.05269.32256 1.72852.41016 2.55814.65678 5.97532.44866 7.47461-.53321 1.099-.30223 1.91428-.68458 2.06054-1.13086.35906-1.09563-1.70894-2.55251-4.36523-3.52343-1.25596-.62165-2.74565-1.03907-4.19531-1.03907-.13799 0-.26929.015-.40235.0254-.23513-.0145-.46913-.0254-.69726-.0254z" fill="#7b7b7b" stroke-width="1.33333" transform="scale(.26458333)"/></svg>