<!-- Generated by IcoMoon.io -->
<svg version="1.1" xmlns="http://www.w3.org/2000/svg" width="27" height="32" viewBox="0 0 27 32">
<title>Hexis</title>
<path d="M13.328 0.007c-0.158 0-0.299 0.015-0.437 0.031-0.054 0.005-0.143 0.004-0.18 0.010-0.019 0.003-0.031 0.012-0.049 0.016-0.057 0.010-0.114 0.028-0.167 0.042-0.008 0.002-0.015 0.006-0.023 0.008-0.039 0.011-0.075 0.026-0.112 0.039-0.040 0.014-0.082 0.028-0.12 0.044-0.002 0.001-0.003 0.002-0.005 0.003-0.019 0.008-0.044 0.020-0.062 0.029-0.034 0.016-0.072 0.027-0.104 0.044-0.014 0.008-0.031 0.010-0.044 0.018-0.092 0.055-0.166 0.113-0.255 0.203-0.009 0.009-0.025 0.015-0.034 0.023-0.003 0.003-0.046 0.064-0.049 0.068-0.012 0.013-0.030 0.020-0.042 0.034-0.003 0.004-0.040 0.057-0.044 0.062-0.008 0.010-0.010 0.010-0.018 0.021-0.007 0.009-0.059 0.082-0.068 0.094-0.235 0.3-0.598 0.796-1.369 1.859-0.913 1.258-1.047 1.431-1.304 1.762-0.015 0.019-0.040 0.054-0.055 0.073-0.144 0.188-0.281 0.356-0.411 0.513-0.146 0.177-0.288 0.348-0.424 0.492-0.090 0.095-0.18 0.179-0.268 0.26-0.016 0.015-0.033 0.027-0.049 0.042-0.148 0.134-0.299 0.258-0.456 0.364-0.019 0.013-0.038 0.026-0.057 0.039-0.067 0.044-0.139 0.085-0.208 0.125-0.010 0.006-0.021 0.010-0.031 0.016-0.208 0.116-0.424 0.223-0.679 0.318-0.005 0.002-0.008 0.003-0.013 0.005-0.050 0.018-0.104 0.037-0.156 0.055-0.116 0.040-0.274 0.079-0.404 0.117-0.228 0.068-0.465 0.137-0.742 0.206-0.355 0.090-0.997 0.233-1.591 0.37-0.679 0.154-1.27 0.292-1.736 0.393-0.027 0.006-0.029 0.007-0.055 0.013-0.008 0.002-0.026 0.006-0.034 0.008-0.33 0.072-0.647 0.147-0.705 0.167-0.004 0.001-0.009 0.006-0.013 0.008-0.015 0.005-0.032 0.017-0.047 0.023-0.020 0.007-0.037 0.019-0.055 0.026-0.001 0-0.001 0.002-0.003 0.003-0.099 0.041-0.192 0.078-0.279 0.138-0.075 0.052-0.188 0.149-0.253 0.216l-0.117 0.12v0.016l0.016 0.495v0.013c0.008 0.096 0.008 1.672 0.013 1.965 0 0.015-0 0.086 0 0.102 0.009 1.172 0.018 2.582 0.018 6.864 0 0.052 0 0.031 0 0.083v7.976l0.232 0.172c0.044 0.033 0.098 0.061 0.143 0.094 0.295 0.218 0.613 0.433 0.95 0.643 0.022 0.014 0.043 0.025 0.065 0.039 0.146 0.090 0.288 0.184 0.435 0.268 0.002 0.001 0.005 0.001 0.008 0.003 0.597 0.347 1.171 0.639 1.601 0.794 0.353 0.127 0.677 0.262 0.974 0.388 0.115 0.049 0.289 0.113 0.364 0.148 0.009 0.004 0.035 0.011 0.044 0.016 0.015 0.008 0.101 0.038 0.109 0.044 0.016 0.011 0.28 0.089 0.437 0.141 0.157 0.053 0.267 0.093 0.456 0.148 0.006 0.002 0.012 0.003 0.018 0.005 0.27 0.081 0.515 0.147 0.815 0.221 0.101 0.025 0.202 0.056 0.299 0.078 0.153 0.035 0.343 0.068 0.508 0.102 0.002 0 0.004-0 0.005 0 0.008 0.002 0.016 0.004 0.023 0.005 0.040 0.008 0.079 0.021 0.12 0.029 0.103 0.020 0.21 0.052 0.31 0.070 0.006 0.001 0.010 0.001 0.016 0.003 0.011 0.002 0.012 0.001 0.023 0.003 0.014 0.002 0.028 0.008 0.042 0.010l0.341 0.057v-0.010h0.008v-18.138h-0.034c-0.006 0-0.584-0.027-0.786-0.036-0.372-0.018-0.802-0.041-1.598-0.078-0.308-0.014-0.303-0.018-0.578-0.031-0.297-0.014-0.318-0.018-0.521-0.029-0.485-0.027-1.347-0.065-1.398-0.086-0.013-0.004-0.024-0.008-0.036-0.013-0.003-0.001-0.005-0.002-0.008-0.003-0.005-0.002-0.008-0.008-0.013-0.010-0.037-0.017-0.067-0.042-0.099-0.068-0.019-0.015-0.038-0.029-0.055-0.047-0.028-0.029-0.048-0.062-0.068-0.094-0.022-0.039-0.037-0.080-0.049-0.125-0.006-0.022-0.012-0.042-0.016-0.065-0.004-0.027-0.010-0.052-0.010-0.081-0.001-0.051 0.012-0.108 0.021-0.164 0.021-0.112 0.059-0.222 0.104-0.323 0.006-0.013 0.012-0.022 0.018-0.034 0.025-0.044 0.041-0.082 0.065-0.112 0.015-0.019 0.029-0.051 0.044-0.062 0.031-0.018 0.074-0.036 0.164-0.055 0.011-0.004 0.204-0.029 0.226-0.034 0.265-0.046 0.633-0.095 1.559-0.219l0.979-0.133c0.317-0.041 0.896-0.117 0.908-0.117 0.018 0 0.053 0.014 0.083 0.026l0.065 0.031c0.045 0.020 0.762 0.294 1.408 0.544 0.165 0.064 0.162 0.064 0.341 0.133 0.074 0.029 0.020 0.008 0.088 0.034 0.743 0.287 1.464 0.566 1.57 0.604 0.011 0.004 0.025-0.002 0.036 0l0.034 0.013 0.003-0.003 0.026-0.010c0-0 0.008 0.003 0.008 0.003 0.001-0 0.004-0.002 0.005-0.003 0.039-0.007 0.089-0.030 0.141-0.055 0.027-0.013 0.047-0.016 0.078-0.034 0.063-0.036 0.099-0.060 0.122-0.094l0.052-0.047-0.146-0.664c-0.016-0.073-0.011-0.063-0.031-0.154-0.086-0.391-0.136-0.641-0.148-0.718-0.001-0.010-0.019-0.087-0.018-0.088 0.002-0.003 0.004-0.008 0.008-0.010s0.123-0.003 0.154-0.005c0.184-0.013 0.68-0.036 0.935-0.036 0.082-0 0.046-0.011 0.083-0.013 0.033-0.002 0.157-0.004 0.159-0.005v-0.005h0.003v-0.003c0-0 0.008 0 0.008 0s0-0.005 0-0.005c0-0-0.003-0.010-0.003-0.010s0.003 0 0.003 0c0-0.022-0.152-0.998-0.338-2.168-0.073-0.461-0.077-0.501-0.133-0.856-0.080-0.525-0.2-1.275-0.198-1.32 0-0.006-0-0.015 0-0.021 0.004-0.045 0.024-0.074 0.036-0.107 0.012-0.027 0.027-0.052 0.044-0.078 0.033-0.046 0.072-0.092 0.122-0.135 0.005-0.004 0.008-0.009 0.013-0.013 0.001-0 0.002 0 0.003 0 0.017-0.014 0.046-0.025 0.065-0.039 0.062-0.044 0.137-0.082 0.216-0.12 0.058-0.028 0.11-0.057 0.177-0.081 0.010-0.004 0.019-0.010 0.029-0.013 0.004-0.001 0.009-0.001 0.013-0.003 0.079-0.026 0.172-0.040 0.26-0.060 0.195-0.042 0.405-0.069 0.638-0.075 0.057-0.002 0.112-0.006 0.169-0.005 0.273 0.005 0.523 0.035 0.744 0.088 0.049 0.012 0.098 0.025 0.143 0.039s0.084 0.031 0.125 0.047c0.082 0.032 0.156 0.064 0.224 0.102 0.052 0.028 0.099 0.055 0.141 0.086 0.027 0.019 0.058 0.037 0.081 0.057 0.025 0.023 0.042 0.047 0.062 0.070 0.030 0.035 0.048 0.072 0.068 0.109 0.014 0.029 0.037 0.056 0.044 0.086 0.003 0.012 0.011 0.022 0.013 0.034 0.001 0.006 0.005 0.012 0.005 0.018s-0.026 0.176-0.026 0.187c-0.007 0.097-0.103 0.707-0.18 1.208-0.053 0.34-0.057 0.368-0.125 0.797-0.187 1.17-0.338 2.144-0.338 2.166 0 0 0.003-0 0.003 0s-0.003 0.010-0.003 0.010 0 0.005 0 0.005c0 0 0.008-0 0.008 0v0.003h0.003v0.003h0.003v0.003c0.002 0.001 0.124 0.003 0.156 0.005 0.037 0.002 0.001 0.013 0.083 0.013 0.254 0 0.751 0.023 0.935 0.036 0.029 0.003 0.149 0.003 0.154 0.005s0.006 0.007 0.008 0.010c0 0.002-0.017 0.079-0.018 0.088-0.012 0.078-0.062 0.327-0.148 0.718-0.020 0.091-0.015 0.081-0.031 0.154l-0.146 0.664 0.052 0.047c0.024 0.034 0.060 0.058 0.122 0.094 0.031 0.018 0.052 0.021 0.078 0.034 0.052 0.025 0.102 0.048 0.141 0.055 0.001 0 0.004 0.002 0.005 0.003 0 0 0.007-0.003 0.008-0.003l0.029 0.013 0.034-0.013c0.011-0.002 0.026 0.004 0.036 0 0.105-0.037 0.826-0.317 1.57-0.604 0.068-0.026 0.014-0.005 0.088-0.034 0.179-0.069 0.176-0.069 0.341-0.133 0.647-0.25 1.363-0.524 1.408-0.544l0.068-0.031c0.029-0.011 0.061-0.026 0.078-0.026 0.013 0 0.61 0.080 0.955 0.125l0.935 0.125c1.055 0.141 1.54 0.203 1.775 0.25 0.101 0.020 0.141 0.038 0.174 0.057 0.017 0.013 0.032 0.048 0.049 0.070 0.022 0.027 0.038 0.061 0.060 0.099 0.004 0.008 0.009 0.015 0.013 0.023 0.050 0.107 0.091 0.233 0.112 0.354 0.007 0.045 0.018 0.091 0.018 0.133 0 0.002 0 0.004 0 0.005 0 0.006-0.003 0.010-0.003 0.016-0 0.086-0.018 0.118-0.029 0.156s-0.023 0.075-0.042 0.109c-0.019 0.032-0.040 0.062-0.068 0.091-0.017 0.018-0.036 0.031-0.055 0.047-0.032 0.027-0.064 0.053-0.102 0.070-0.015 0.007-0.032 0.024-0.047 0.029-0.006 0.002-0.012 0.004-0.018 0.005-0.005 0.002-0.154 0.008-0.161 0.010-0.103 0.015-0.771 0.049-1.635 0.091-0.318 0.016-0.324 0.019-0.692 0.036-0.391 0.018-0.386 0.021-0.713 0.036-0.369 0.017-0.679 0.032-0.885 0.042-0.202 0.009-0.78 0.037-0.786 0.036h-0.034v0.005h-0.003v9.066c0 0.563 0.003 0.073 0.003 0.567v8.499h0.008v0.010l0.341-0.057c0.067-0.011 0.135-0.032 0.203-0.044 0.183-0.033 0.29-0.048 0.458-0.083 0.017-0.004 0.035-0.009 0.052-0.013 0.019-0.004 0.040-0.007 0.057-0.010 0.055-0.012 0.122-0.036 0.18-0.049 0.142-0.032 0.28-0.070 0.424-0.107 0.222-0.055 0.417-0.099 0.625-0.159 0.23-0.065 0.364-0.114 0.554-0.177 0.099-0.031 0.212-0.052 0.305-0.083 0.048-0.016 0.135-0.055 0.213-0.088 0.009-0.006 0.092-0.036 0.107-0.044 0.006-0.003 0.025-0.008 0.031-0.010 0.015-0.007 0.063-0.026 0.081-0.034 0.040-0.018 0.12-0.045 0.167-0.065 0.319-0.139 0.743-0.313 1.127-0.45 0.269-0.096 0.613-0.263 0.976-0.453 0.003-0.002 0.007-0.003 0.010-0.005 0.005-0.003 0.010-0.008 0.016-0.010 0.265-0.139 0.526-0.297 0.807-0.466 0.082-0.049 0.167-0.091 0.247-0.141 0.011-0.007 0.020-0.014 0.031-0.021 0.010-0.006 0.021-0.012 0.031-0.018 0.072-0.045 0.136-0.085 0.206-0.13 0.239-0.154 0.437-0.298 0.635-0.443 0.001-0.001 0.002-0.002 0.003-0.003 0.069-0.050 0.152-0.094 0.219-0.143l0.232-0.172v-7.976c0-0.054 0-0.032 0-0.086-0-4.431 0.008-5.995 0.018-7.101 0.001-0.037 0.002-0.229 0.003-0.263 0.005-0.2 0.004-1.482 0.010-1.564 0-0-0-0.007 0-0.008l0.005-0.125 0.010-0.375v-0.016l-0.122-0.125c-0.067-0.069-0.182-0.166-0.255-0.216-0.080-0.054-0.168-0.087-0.255-0.125-0.004-0.002-0.007-0.004-0.010-0.005-0.022-0.009-0.042-0.025-0.068-0.034-0.003-0.001-0.007-0.004-0.010-0.005-0.015-0.005-0.020-0.013-0.036-0.018-0.003-0.001-0.005-0.004-0.008-0.005-0.006-0.002-0.062-0.013-0.073-0.016-0.098-0.027-0.336-0.087-0.633-0.151-0.021-0.005-0.066-0.016-0.088-0.021-0.461-0.1-1.043-0.235-1.715-0.388-0.667-0.154-1.42-0.323-1.78-0.416-0.062-0.016-0.107-0.031-0.167-0.047-0.375-0.099-0.705-0.199-0.974-0.299-0.112-0.042-0.231-0.081-0.331-0.125-0.136-0.061-0.262-0.132-0.385-0.203-0.108-0.062-0.22-0.122-0.323-0.195-0.029-0.021-0.060-0.043-0.088-0.065-0.12-0.090-0.239-0.199-0.357-0.307-0.059-0.055-0.122-0.111-0.182-0.172-0.157-0.157-0.329-0.355-0.513-0.578-0.128-0.154-0.264-0.323-0.406-0.508-0.325-0.425-0.694-0.923-1.364-1.846-0.809-1.115-1.206-1.662-1.437-1.952-0-0.001-0.005-0.005-0.005-0.005-0.006-0.008-0.007-0.008-0.013-0.016-0.004-0.005-0.041-0.058-0.044-0.062-0.008-0.010-0.021-0.014-0.029-0.023-0.003-0.003-0.034-0.047-0.036-0.049-0.009-0.010-0.027-0.017-0.036-0.026-0.101-0.106-0.18-0.17-0.279-0.229-0.012-0.007-0.027-0.009-0.039-0.016-0.005-0.003-0.006-0.005-0.010-0.008-0.011-0.006-0.031-0.007-0.042-0.013 0 0-0.003-0.003-0.003-0.003-0.016-0.009-0.036-0.013-0.052-0.021-0.023-0.011-0.049-0.024-0.073-0.034-0.035-0.015-0.072-0.029-0.109-0.042-0.039-0.014-0.078-0.030-0.12-0.042-0.008-0.002-0.015-0.006-0.023-0.008-0.054-0.014-0.114-0.031-0.172-0.042-0.017-0.003-0.027-0.012-0.044-0.016-0.037-0.007-0.126-0.006-0.18-0.010-0.139-0.016-0.279-0.031-0.437-0.031zM13.331 10.744c-0.007-0.007-0.101 0.47-0.206 1.059l-0.19 1.075v8.499l0.003 8.499 0.19 1.065c0.003 0.019 0.004 0.015 0.008 0.034 0.1 0.559 0.188 1.025 0.195 1.018s0.092-0.463 0.19-1.013l0.177-1v-0.018l0.003-0.016v-17.105l-0.003-0.016v-0.070l-0.177-1c-0.098-0.55-0.183-1.006-0.19-1.013z"></path>
</svg>
