<svg height="619.33337" viewBox="0 0 432.9408 619.33338" width="432.9408" xmlns="http://www.w3.org/2000/svg"><path d="m216.4707 0c-11.38988 0-13.29057.36679462-18.84961 3.6347656-7.06315 4.152176-7.75001 5.129222-34.48632 49.0312504-12.09287 19.856942-20.7461 34.224692-28.40235 45.058593-2.70087 3.761011-5.223 7.050371-7.6289 9.972661-17.47525 20.74009-33.934043 24.51614-83.298832 37.60742-33.533731 8.89297-33.8112017 8.99726-39.3945318 14.75781l-.5800781.59766-.2773437.24414-3.08203128 2.63672v.0684.51562l-.47070312.48629.26367188 169.69531.20703124 133.24024v36.8125.0781.0957l1.18945308 1c.1760591.28531.3356643.46678.4355469.4668.0008316 0 .00113-.0993.00195-.10156l5.6582032 4.75195.4101562.37695c9.6153934 8.84541 20.7064764 16.88616 34.3183594 24.81055.302729.18558.600368.36772.896484.54688.09794.16542.212954.28125.34375.28125.02101 0 .05266-.0224.07617-.0273 1.939856 1.16601 3.778493 2.23826 5.335938 3.0586.361091.19019.96073.48508 1.398437.70898.797066.4487 1.567396.84389 2.291016 1.16797.669666.35554 1.332676.7106 2.013672 1.0664.422873.25448.797237.46168 1.021484.52735 2.360951 1.22396 4.774356 2.45065 7.275391 3.68164 25.65974 12.62956 34.786058 16.14967 56.667971 21.86133 8.06666 2.10559 15.26666 3.65653 16 3.44726 1.75769-.50156 2.52617-350.16524.77343-351.91797-.0138-.0138-.0792-.0304-.10742-.0449v-.35742l-.3164-.0176c.16074-.34682-.46988-.45627-2.01758-.46679-.26279-.002-.51254.0161-.75586.043-.13299.004-.24048.004-.38477.01-.31507.0119-1.12128-.004-1.76367-.01-7.05881-.7667-20.37215-1.77209-35.478514-2.62304-44.21952-2.49092-43.283203-2.22429-43.283203-12.29883 0-6.55773 2.434591-11.71865 5.894531-12.49219 6.52614-1.45904 53.973306-8.64844 57.074216-8.64844 1.87137 0 16.3193 5.93186 32.10743 13.1836l28.70507 13.18554 4.10938-2.49804c2.25987-1.37431 4.10847-2.95876 4.10547-3.51953-.002-.56079-1.20352-7.18976-2.66797-14.73243-1.45899-7.51461-2.64934-14.22714-2.65821-14.97656.00096-.0129.00094-.0264.002-.0391.0648-.70479 4.51811-1.27148 10.03711-1.27148 6.25907 0 9.341-.37833 10.38672-1.32618l.26562-.004.79883-.002-.7148749-4.33387c-.12673-.76903-.2649-1.68721-.4043-2.62109-.74696-7.73129-2.38958-21.52478-4.45313-37-4.3929-32.943788-5.24325-42.342491-4.06445-44.929691 4.58822-10.070024 32.55021-11.814321 45.28125-5.25 1.09835.636028 2.12226 1.328369 3.03906 2.09375.52672.439719.98809.856109 1.40821 1.273437.49726.593528.92099 1.216444 1.22461 1.882813 1.1788 2.5872.32844 11.985903-4.06446 44.929691-1.97481 14.80973-3.57362 28.13105-4.36328 36.0332-.15101 1.07282-.42065 3.12945-.49609 3.58789l-.71289 4.33398h.22656l.83203.002c1.04192.95045 4.1257 1.33008 10.39258 1.33008 5.55957 0 10.04297.5751 10.04297 1.2871 0 .70733-1.19963 7.45734-2.66407 15-1.46444 7.54268-2.66301 14.17164-2.66601 14.73243-.002.56077 1.8456 2.14522 4.10547 3.51953l4.10742 2.49804 28.70703-13.18554c15.78813-7.25174 30.23605-13.1836 32.10742-13.1836 3.10091 0 50.54613 7.1894 57.07227 8.64844 1.52428.34078 3.47493 2.16341 4.33398 4.04883 1.94359 4.26571 2.01101 11.67248.46289 15.20117-.14479.17248-.27195.33482-.43359.51758l-1.18164 1.33594c-2.90299 1.16156-14.8501 2.23852-40.60742 3.68945-20.3705 1.14748-37.80183 2.47042-40.22656 3.03711l-.45118.0254v1.12891c-1.67629 21.09275-1.95112 349.82724-.18945 350.91601 1.54356.95398 24.85459-4.83467 38.85547-9.64843 6.23333-2.14315 21.83464-9.06505 34.66797-15.38282 2.76523-1.3613 5.43271-2.71721 8.02734-4.07031.21425-.10678.46173-.22678.67188-.33203.0605-.0165.11955-.025.18164-.0488.25172-.0966.46711-.22701.64453-.375 1.30699-.65962 2.51873-1.28094 3.62109-1.86133.20311-.0942.41645-.18113.60742-.28125.0843-.026.15896-.033.2461-.0664.55837-.21428 1.06203-.54308 1.42578-.89649 1.6837-.93695 3.53447-2.02871 5.5332-3.26172 13.47121-7.86747 24.47203-15.85508 34.01172-24.63086l.40625-.37304 7.28906-6.1211v-.0957-36.89062l.20703-133.24024.26368-169.69531-.47071-.48633v-.51562l-2.71093-2.37891-1.0586-1.02539c-.29338-.30559-.60115-.60825-.92969-.9043-4.89792-4.9774-6.75941-5.54292-38.63476-13.99609-76.87323-20.38645-73.94384-18.11285-119.33008-92.638754-26.73631-43.9020284-27.42513-44.8790744-34.48828-49.0312504-5.55904-3.26797098-7.45777-3.6347656-18.84766-3.6347656zm-.57031 207.93164c-.50685.0462-.9526 1.24627-1.34766 3.56055-6.337 37.12298-6.08345 28.70874-6.06835 202.08593.009 109.0503-.0634 146.52684 1.43945 168.28516.008.14088.0145.27751.0312.39649.87957 12.44941 2.28409 19.82166 4.54492 32.74023.0924.52798.21469 1.02128.3457 1.49023.0335.31585.11587.92581.13868 1.17579.0836.91667.75299 1.66796 1.48632 1.66796.17147 0 .32487-.0239.47071-.11132.52121-.23749.92519-.84456.97265-1.55664.017-.25452.0665-.70652.10352-1.0879.71542-3.03191 1.70874-9.39549 3.80273-23.24414 2.497-16.51146 2.62224-25.0154 2.61524-179.33398l-.008-162-3.17578-21.13086c-.73961-4.91998-1.40805-8.91434-2.02734-12.22852-.45435-3.45112-.94691-6.0547-1.44727-7.78124.0168-.0371.0273-.0741.0273-.11329 0-.0268-.0272-.0669-.0352-.0977-.0211-.86101-.30872-1.64701-.84961-1.89453-.15478-.22283-.30918-.37744-.46094-.42774-.19445-.27114-.38031-.41078-.55859-.39453z" fill="#ececec" stroke-width="1.333333"/></svg>