<!-- Generated by IcoMoon.io -->
<svg version="1.1" xmlns="http://www.w3.org/2000/svg" width="32" height="32" viewBox="0 0 32 32">
<title>NightwaveSyndicate</title>
<path d="M16.411 0.004c-0.071-0-0.168 0.009-0.245 0.010-0.169-0.001-0.332-0.008-0.503-0.005-0.398 0.007-0.786 0.028-1.161 0.057-0.469 0.037-0.912 0.086-1.273 0.156l-0.833 0.161 0.021 0.211c0.012 0.115 0.050 0.237 0.086 0.273s0.065 0.138 0.065 0.227c0 0.099 0.032 0.14 0.128 0.146 0.023 0.002 0.097-0.008 0.141-0.013h0.003c0.005-0.002 0.054-0.011 0.063-0.013 0.002-0 0.008-0.002 0.010-0.003 0.077-0.011 0.103-0.005 0.229-0.029 0.648-0.12 0.866-0.136 2.383-0.18 1.404-0.040 1.956-0.004 3.596 0.232 0.253 0.036 0.26 0.031 0.26-0.18 0-0.119 0.035-0.219 0.076-0.219s0.064-0.097 0.052-0.221c-0.002-0.022-0.010-0.033-0.013-0.052 0.005-0.022 0.026-0.097 0.026-0.102 0-0.009-0.081-0.026-0.099-0.036-0.112-0.104-0.408-0.154-1.359-0.294-0.245-0.036-0.539-0.058-0.828-0.078-0.098-0.007-0.18-0.021-0.281-0.026-0.004-0-0.009 0-0.013 0-0.089-0.005-0.185-0.002-0.276-0.005-0.003-0-0.005 0-0.008 0-0.091-0.004-0.141-0.018-0.245-0.018zM10.416 0.577c-0.894 0.121-1.143 1.195-0.388 1.672 0.175 0.111 0.401 0.142 0.622 0.109 0.042-0.006 0.079-0.022 0.12-0.034 0.165-0.044 0.325-0.115 0.445-0.232 0.171-0.167 0.21-0.271 0.224-0.461 0.002-0.010 0.001-0.021 0.003-0.031 0.002-0.041 0.013-0.059 0.013-0.112 0-0.039-0.006-0.055-0.008-0.089-0.002-0.029-0.005-0.057-0.010-0.086-0.017-0.162-0.053-0.279-0.161-0.401-0.238-0.268-0.527-0.381-0.859-0.336zM20.729 0.741c-0.011-0-0.012 0.012-0.021 0.013-0.155 0.009-0.202 0.112-0.234 0.346-0.020 0.144-0.046 0.305-0.060 0.359-0.016 0.062 0.078 0.139 0.253 0.203 1.084 0.399 1.473 0.558 2.086 0.854 1.023 0.494 2.195 1.263 3.128 2.052 0.010 0.008 0.016 0.007 0.026 0.016 0.022 0.022 0.105 0.085 0.112 0.096 0.033 0.053 0.079 0.067 0.135 0.055 0.005 0.001 0.020 0.013 0.023 0.013 0.001 0 0.005-0.003 0.005-0.003s0.002-0.003 0.003-0.003c0 0 0.010 0.008 0.010 0.008 0.006 0 0.064-0.061 0.086-0.078 0.077-0.043 0.162-0.090 0.279-0.201l0.294-0.276-0.245-0.219c-0.448-0.402-1.018-0.809-1.62-1.206-0.045-0.030-0.042-0.031-0.089-0.063-0.018-0.012-0.049-0.027-0.068-0.039-1.1-0.709-2.326-1.355-3.385-1.727-0.32-0.112-0.507-0.163-0.646-0.18-0.012-0.001-0.063-0.023-0.073-0.023zM7.651 1.173c-0.245-0.010-0.486 0.018-0.654 0.086-0.334 0.135-1.671 1.038-2.117 1.43-0.044 0.038-0.247 0.213-0.453 0.385-0.389 0.327-1.428 1.357-1.729 1.716-0.17 0.202-0.326 0.423-0.523 0.677-0.007 0.009-0.027 0.027-0.034 0.036-0.015 0.019-0.017 0.028-0.031 0.047-0.222 0.287-0.484 0.605-0.596 0.771-0.172 0.253-0.218 0.412-0.245 0.695-0.005 0.026-0.007 0.052-0.010 0.078-0.001 0.020-0.007 0.028-0.008 0.049-0.001 0.014 0.001 0.024 0 0.039-0.004 0.056-0.012 0.113-0.010 0.169 0 0.003 0 0.005 0 0.008v0.008c0 0.096 0.012 0.159 0.021 0.232 0.004 0.084-0.001 0.208 0.008 0.255 0.041 0.218 0.258 0.503 0.518 0.737 0.006 0.005 0.013 0.011 0.018 0.016 0.16 0.141 0.333 0.265 0.497 0.331 0.489 0.195 1.025 0.156 1.51-0.109 0.025-0.013 0.047-0.040 0.070-0.055 0.245-0.15 0.452-0.357 0.849-0.878 1.008-1.323 2.162-2.388 3.935-3.635 0.422-0.297 0.653-0.718 0.693-1.268 0.028-0.386-0.071-0.831-0.224-1.018-0.25-0.306-0.532-0.538-0.807-0.661-0.185-0.083-0.432-0.13-0.677-0.141zM7.445 2.113c0.197-0.040 0.411 0.005 0.612 0.141 0.312 0.21 0.408 0.645 0.273 0.971-0.001 0.001-0.002 0.002-0.003 0.003-0.038 0.091-0.105 0.167-0.18 0.234-0.024 0.022-0.047 0.044-0.073 0.063-0.081 0.054-0.166 0.099-0.255 0.122-0.015 0.003-0.029 0.005-0.044 0.008-0.321 0.067-0.662-0.050-0.836-0.333-0.178-0.289-0.179-0.572-0.005-0.836 0.134-0.205 0.314-0.332 0.51-0.372zM15.973 3.663c-0.026 0-0.050 0.002-0.076 0.003-0.277 0.002-0.554 0.007-0.831 0.029-0.471 0.025-0.92 0.065-1.284 0.13-1.4 0.253-3.178 0.957-4.391 1.737-1.263 0.812-2.617 2.161-3.484 3.474-0.122 0.184-0.221 0.363-0.221 0.396s-0.027 0.071-0.060 0.083-0.2 0.322-0.372 0.688c-0.442 0.934-0.527 1.137-0.581 1.424-0.026 0.139-0.071 0.269-0.104 0.289s-0.082 0.195-0.107 0.385c-0.025 0.191-0.069 0.346-0.099 0.346s-0.070 0.148-0.089 0.331c-0.018 0.183-0.068 0.458-0.109 0.612-0.023 0.085-0.021 0.518-0.034 0.797-0.009 0.192-0.020 0.313-0.023 0.549-0.004 0.116-0.023 0.266-0.023 0.365 0 0.045 0.009 0.12 0.010 0.169 0.002 0.133 0.014 0.264 0.021 0.396 0.011 0.47 0.016 1.025 0.049 1.148 0.041 0.154 0.090 0.404 0.109 0.557s0.062 0.31 0.096 0.346 0.063 0.138 0.063 0.227c0 0.167 0.221 0.875 0.391 1.255 0.054 0.121 0.096 0.249 0.096 0.284 0 0.063 0.507 1.083 0.701 1.411 0.056 0.095 0.176 0.249 0.268 0.388 0.026 0.040 0.066 0.113 0.089 0.143 0.018 0.023 0.147 0.202 0.247 0.339 0.159 0.224 0.312 0.468 0.414 0.594 0.516 0.632 1.564 1.62 2.229 2.102 0.371 0.269 0.697 0.491 0.724 0.492 0.060 0.003 0.237-0.383 0.294-0.643 0.015-0.068 0.006-0.12-0.026-0.177-0.002-0.004-0.005-0.011-0.008-0.016-0.057-0.086-0.182-0.189-0.464-0.398-0.726-0.539-1.684-1.477-2.182-2.133-0.224-0.296-0.409-0.555-0.409-0.578s-0.038-0.088-0.086-0.146c-0.041-0.049-0.096-0.113-0.135-0.161-0.133-0.213-0.228-0.396-0.339-0.594-0.357-0.732-0.831-1.89-0.831-2.107 0-0.080-0.031-0.177-0.070-0.216s-0.091-0.242-0.115-0.451c-0.022-0.19-0.070-0.34-0.109-0.391-0.005-0.026-0.008-0.045-0.013-0.073-0.072-0.115-0.091-1.728-0.060-2.76 0.006-0.119 0.008-0.247 0.016-0.357 0.007-0.116 0.015-0.178 0.023-0.247 0.010-0.111 0.024-0.187 0.036-0.276 0.040-0.076 0.084-0.232 0.104-0.409 0.022-0.199 0.069-0.419 0.104-0.49s0.118-0.302 0.182-0.513c0.184-0.603 0.565-1.462 0.888-2.052 0.048-0.081 0.093-0.163 0.143-0.245 0.081-0.133 0.164-0.265 0.224-0.331 0.040-0.043 0.117-0.149 0.174-0.234 0.223-0.331 0.478-0.656 0.758-0.969 0.033-0.037 0.070-0.070 0.104-0.107 0.268-0.291 0.552-0.575 0.859-0.841 0.010-0.009 0.021-0.017 0.031-0.026 0.671-0.577 1.424-1.085 2.208-1.482 1.18-0.597 2.526-1.007 3.815-1.174 0.129-0.017 0.25-0.014 0.378-0.026 0.074-0.004 0.151-0.005 0.227-0.008 0.212-0.003 0.391-0.010 0.656-0.010 0.336-0 0.437 0.011 0.664 0.013 1.819 0.129 3.809 0.752 5.367 1.74 0.666 0.422 1.608 1.226 2.096 1.781 0.059 0.063 0.117 0.129 0.174 0.193 0.203 0.237 0.424 0.493 0.497 0.576s0.117 0.146 0.138 0.188c0.133 0.179 0.25 0.368 0.37 0.555 0.012 0.028 0.031 0.047 0.039 0.073 0.027 0.085 0.076 0.154 0.112 0.154s0.065 0.044 0.065 0.099c0 0.055 0.038 0.142 0.086 0.193 0.044 0.047 0.123 0.192 0.195 0.331 0.035 0.069 0.065 0.143 0.099 0.214 0.048 0.109 0.107 0.235 0.107 0.271 0 0.044 0.023 0.081 0.052 0.081 0.005 0 0.013 0.027 0.018 0.029 0.045 0.102 0.098 0.197 0.141 0.302 0.049 0.14 0.099 0.281 0.206 0.612 0.076 0.235 0.146 0.437 0.185 0.547 0.010 0.035 0.021 0.069 0.031 0.104 0.315 0.867 0.407 3.238 0.174 4.589-0.073 0.423-0.16 0.799-0.193 0.836s-0.060 0.135-0.060 0.219c0 0.1-0.067 0.323-0.174 0.604-0.213 0.558-0.575 1.34-0.846 1.828-0.002 0.004-0.005 0.011-0.008 0.016-0.001 0.002-0.004 0.004-0.005 0.005-0.133 0.238-0.243 0.406-0.299 0.43-0.031 0.013-0.055 0.054-0.055 0.094 0 0.124-0.868 1.192-1.365 1.677-0.591 0.578-0.947 0.871-1.414 1.172-0.273 0.176-0.315 0.248-0.31 0.375-0 0.003-0.014 0.014-0.013 0.016 0.002 0.004 0.008 0.028 0.010 0.034 0.003 0.023-0.008 0.031-0.003 0.060 0.052 0.279 0.218 0.638 0.297 0.638s0.607-0.414 1.154-0.867c0.039-0.030 0.074-0.053 0.112-0.083 0.122-0.099 0.251-0.229 0.378-0.344 0.157-0.139 0.37-0.307 0.471-0.409 0.746-0.751 0.884-0.918 1.451-1.758 0.513-0.76 0.859-1.499 1.203-2.396 0.007-0.020 0.033-0.065 0.039-0.083 0.038-0.108 0.057-0.16 0.091-0.258 0.084-0.235 0.169-0.401 0.258-0.674 0.048-0.148 0.114-0.432 0.146-0.63s0.089-0.502 0.128-0.674c0.044-0.197 0.066-0.909 0.068-1.62 0-0.027 0.008-0.065 0.008-0.091 0-0.24-0.017-0.525-0.042-0.82-0.002-0.023-0-0.042-0.003-0.065-0.011-0.261-0.011-0.666-0.031-0.758-0.039-0.173-0.099-0.487-0.133-0.698-0.064-0.394-0.35-1.329-0.526-1.721-0.054-0.121-0.099-0.256-0.099-0.297 0-0.091-0.63-1.34-0.729-1.445-0.039-0.041-0.13-0.192-0.206-0.333s-0.163-0.255-0.193-0.255c-0.030 0-0.052-0.045-0.052-0.099s-0.023-0.11-0.052-0.122c-0.029-0.013-0.148-0.163-0.263-0.333-0.285-0.423-1.487-1.639-2.109-2.133-0.615-0.488-1.354-0.92-2.13-1.297-1.014-0.492-2.098-0.879-3.128-1.065-0.373-0.067-0.836-0.105-1.32-0.13-0.27-0.020-0.54-0.027-0.81-0.029-0.020-0-0.040-0.003-0.060-0.003zM4.963 4.082c0.033-0.002 0.065-0.005 0.102 0 0.020 0 0.038 0.006 0.057 0.008 0.24 0.050 0.511 0.21 0.604 0.391 0.183 0.356 0.083 0.815-0.206 1.023-0.017 0.013-0.031 0.027-0.049 0.039-0.196 0.11-0.555 0.146-0.75 0.068-0.004-0.001-0.007-0.006-0.010-0.008-0.095-0.047-0.174-0.11-0.242-0.182-0.054-0.059-0.102-0.121-0.102-0.161 0-0.019-0.018-0.020-0.026-0.034-0.021-0.041-0.048-0.079-0.063-0.122-0.014-0.023-0.021-0.065-0.029-0.117-0.012-0.073-0.009-0.146 0-0.219 0.007-0.046 0.008-0.099 0.026-0.141 0.035-0.079 0.090-0.154 0.18-0.25 0.114-0.122 0.274-0.224 0.383-0.266 0.042-0.012 0.083-0.023 0.125-0.029zM27.585 4.996v0.003l-0.094 0.094c-0.091 0.034-0.186 0.105-0.326 0.25l-0.232 0.242 0.307 0.333c0.169 0.184 0.355 0.392 0.411 0.461s0.135 0.162 0.174 0.208c0.179 0.212 0.729 0.95 0.729 0.979 0 0.018 0.121 0.217 0.271 0.443 0.157 0.237 0.398 0.669 0.602 1.060 0.003 0.006 0.005 0.010 0.008 0.016 0.007 0.013 0.009 0.023 0.016 0.036 0.192 0.373 0.354 0.712 0.354 0.776 0 0.051 0.032 0.094 0.070 0.094 0.007 0 0.007 0.018 0.013 0.021 0.019 0.044 0.062 0.123 0.078 0.161 0.015 0.083 0.054 0.21 0.117 0.341 0.074 0.154 0.134 0.321 0.135 0.37s0.041 0.15 0.089 0.227c0.009 0.015 0.027 0.008 0.039 0.021 0.030 0.069 0.072 0.109 0.12 0.091 0.004-0.001 0.024-0.006 0.029-0.008 0.002-0 0.004 0.003 0.005 0.003 0.058-0.017 0.235-0.063 0.393-0.104l0.286-0.076-0.081-0.273c-0.044-0.151-0.102-0.297-0.13-0.326s-0.052-0.096-0.052-0.151c0-0.095-0.129-0.39-0.365-0.885-0.005-0.017-0.031-0.081-0.034-0.091-0.012-0.054-0.036-0.071-0.057-0.099-0.077-0.158-0.105-0.227-0.211-0.443-0.419-0.851-0.539-1.074-0.674-1.255-0.030-0.041-0.215-0.325-0.411-0.633s-0.377-0.575-0.398-0.594c-0.022-0.019-0.194-0.222-0.385-0.451-0.335-0.401-0.515-0.601-0.659-0.698l-0.135-0.143zM16.486 5.449c-0.229 0-0.234 0.005-0.234 0.299 0 0.165 0.025 0.331 0.057 0.367s0.113 0.216 0.18 0.398c0.046 0.125 0.061 0.192 0.070 0.263 0.003 0.019 0.018 0.052 0.018 0.070 0 0.001-0 0.002 0 0.003-0 0.086-0.031 0.171-0.089 0.328-0.067 0.183-0.152 0.372-0.19 0.422-0.122 0.161-0.086 0.867 0.057 1.133 0.19 0.352 0.182 0.99-0.018 1.411-0.086 0.18-0.156 0.346-0.156 0.367s0.047 0.039 0.104 0.039 0.104-0.036 0.104-0.081 0.074-0.178 0.164-0.297c0.358-0.474 0.414-0.663 0.357-1.193-0.088-0.814-0.073-0.922 0.154-1.242 0.365-0.515 0.458-0.779 0.411-1.169-0.023-0.193-0.061-0.505-0.083-0.693l-0.042-0.339-0.315-0.044c-0.174-0.024-0.421-0.044-0.549-0.044zM15.216 5.488c-0.069-0.043-0.738 0.050-0.982 0.122-0.009 0.003-0.058 0.008-0.063 0.010-0.001 0.001-0.001 0.004-0.003 0.005-0.015 0.006-0.081 0.013-0.086 0.018-0.055 0.055 0.321 0.854 0.435 0.924 0.014 0.009 0.024 0.032 0.036 0.047 0.027 0.045 0.046 0.088 0.065 0.125 0.053 0.166 0.067 0.416 0.021 0.672-0.080 0.44-0.040 1.059 0.073 1.096 0.043 0.014 0.081 0.054 0.081 0.089s0.094 0.198 0.211 0.365c0.228 0.326 0.252 0.517 0.177 1.242-0.002 0.013-0.004 0.018-0.005 0.031-0.028 0.258-0.023 0.315 0 0.297 0.019 0.049 0.078-0.050 0.268-0.482 0.057-0.13 0.082-0.305 0.094-0.487 0.007-0.050 0.012-0.103 0.013-0.151 0-0.006 0.005-0.020 0.005-0.026s-0.007-0.022-0.008-0.029c-0-0.018-0.004-0.034-0.005-0.052v-0.003c-0.001-0.015-0.001-0.030-0.003-0.044-0.006-0.051-0.003-0.105-0.016-0.156-0.022-0.151-0.054-0.294-0.107-0.404-0.074-0.154-0.135-0.406-0.135-0.56s0.062-0.406 0.135-0.56c0.066-0.137 0.1-0.318 0.117-0.513 0.005-0.035 0.006-0.072 0.008-0.107 0.001-0.027 0.008-0.050 0.008-0.078 0-0.053-0.009-0.1-0.013-0.151-0.004-0.034-0.004-0.069-0.010-0.104-0.020-0.167-0.051-0.322-0.109-0.443-0.074-0.154-0.137-0.365-0.138-0.469s-0.030-0.205-0.065-0.227zM18.512 5.759c-0.071 0.002-0.101 0.029-0.146 0.089-0.11 0.146-0.129 0.552-0.029 0.615 0.118 0.073 0.080 0.788-0.052 0.997-0.066 0.104-0.135 0.207-0.156 0.227s-0.102 0.13-0.177 0.245c-0.086 0.131-0.109 0.311-0.115 0.622-0.002 0.031-0 0.063 0 0.094-0 0.109-0.009 0.158-0.005 0.318l0.018 0.784c-0.004 0.025-0.012 0.047-0.018 0.068l-0.263 0.388c-0.054 0.080-0.065 0.109-0.112 0.182-0.002 0.002-0.006 0.009-0.008 0.010s-0.001 0.006-0.003 0.008c-0.079 0.126-0.182 0.282-0.195 0.318-0.073 0.191 0.041 0.112 0.461-0.315 0.54-0.55 0.624-0.724 0.625-1.305 0-0.119 0.003-0.211 0.013-0.297 0.001-0.017 0.007-0.029 0.008-0.044 0.040-0.268 0.16-0.429 0.516-0.797 0.405-0.419 0.505-0.667 0.505-1.237 0-0.291 0.034-0.515 0.086-0.568 0.116-0.117 0.009-0.18-0.557-0.323-0.211-0.053-0.325-0.080-0.396-0.078zM12.999 5.869c-0.143 0-0.438 0.122-0.677 0.245-0.077 0.033-0.139 0.071-0.172 0.102-0.006 0.005-0.039 0.011-0.042 0.016-0.001 0.002 0.006 0.011 0.005 0.013-0.016 0.015-0.084 0.041-0.086 0.052-0.011 0.058 0.17 0.306 0.404 0.549 0.497 0.517 0.555 0.639 0.555 1.198 0 0.514 0.145 0.815 0.612 1.266 0.357 0.345 0.428 0.532 0.43 1.148 0 0.16 0.021 0.345 0.047 0.411 0.070 0.182 0.223-0.479 0.227-0.974 0.003-0.372-0.024-0.451-0.292-0.839l-0.206-0.297c-0.033-0.055-0.069-0.12-0.089-0.164v-0.859c0-0.040-0.005-0.035-0.005-0.073 0.030-0.253 0.016-0.463-0.049-0.656-0.008-0.042-0.007-0.207-0.016-0.214-0.132-0.095-0.521-0.702-0.521-0.813 0-0.061-0.057-0.112-0.125-0.112zM20.466 6.499c-0.002 0-0.006 0.024-0.008 0.026-0.007 0.005-0.014 0.005-0.021 0.013-0.12 0.070-0.167 0.293-0.201 0.732l-0.044 0.581-0.438 0.477c-0.29 0.317-0.393 0.481-0.461 0.695-0.021 0.062-0.029 0.125-0.036 0.188-0.026 0.127-0.057 0.2-0.091 0.432-0.086 0.59-0.089 0.596-0.492 1.010-0.223 0.229-0.406 0.441-0.406 0.471s0.015 0.055 0.034 0.055c0.029 0 0.268-0.2 0.497-0.367 0.065-0.043 0.011 0.003 0.104-0.060 0.034-0.023 0.047-0.050 0.078-0.073 0.202-0.153 0.415-0.287 0.448-0.331 0.031-0.041 0.076-0.234 0.12-0.346 0-0.001 0.002-0.002 0.003-0.003 0.001-0.002 0.002-0.005 0.003-0.008 0.074-0.193 0.15-0.352 0.203-0.583 0.026-0.112 0.077-0.198 0.156-0.289 0.038-0.043 0.089-0.082 0.135-0.122 0.099-0.084 0.198-0.163 0.388-0.284 0.473-0.3 0.588-0.466 0.766-1.083 0.074-0.257 0.15-0.518 0.169-0.581 0.003-0.009-0.013-0.022-0.013-0.031 0.017-0.020 0.045-0.042 0.034-0.052-0.003-0.003-0.053-0.025-0.063-0.031-0.008-0.010-0.005-0.023-0.018-0.031-0.009-0.006-0.031-0.014-0.042-0.021-0.057-0.048-0.127-0.1-0.242-0.167-0.212-0.122-0.348-0.171-0.458-0.182-0.012-0.004-0.062-0.034-0.068-0.034s-0.010 0.009-0.016 0.010c-0.002-0-0.020-0.010-0.021-0.010zM2.96 6.566c0.257 0 0.347 0.041 0.544 0.24 0.194 0.195 0.234 0.291 0.234 0.531s-0.041 0.334-0.234 0.529c-0.188 0.189-0.292 0.239-0.505 0.237-0.512-0.004-0.823-0.299-0.823-0.779 0-0.134 0.011-0.216 0.039-0.289 0.010-0.022 0.027-0.041 0.039-0.063 0.036-0.060 0.074-0.114 0.159-0.19 0.19-0.17 0.302-0.216 0.547-0.216zM11.012 6.689l-0.039 0.021c-0 0-0.002-0.003-0.003-0.003s-0.002 0.003-0.003 0.003l-0.003-0.005-0.039 0.026c-0.131 0.028-0.397 0.2-0.591 0.359-0.019 0.013-0.057 0.034-0.070 0.044-0.043 0.033-0.047 0.047-0.068 0.068-0.007 0.005-0.050 0.032-0.052 0.034s0.009 0.009 0.008 0.010c-0.001 0.004-0.013 0.009-0.013 0.013-0 0.001-0.005 0.004-0.005 0.005 0 0.128 0.14 0.257 0.656 0.602 0.377 0.251 0.596 0.57 0.596 0.865 0 0.199 0.229 0.643 0.43 0.831 0.088 0.083 0.331 0.269 0.542 0.414 0.342 0.236 0.396 0.306 0.51 0.68 0.070 0.23 0.161 0.506 0.201 0.612 0.106 0.284 0.267 0.254 0.193-0.036-0.032-0.125-0.078-0.415-0.104-0.646-0.011-0.094-0.048-0.157-0.068-0.24-0.005-0.040-0.006-0.117-0.010-0.138-0.002-0.009-0.041-0.050-0.047-0.063-0.092-0.242-0.22-0.451-0.44-0.62-0.329-0.252-0.418-0.454-0.477-1.102-0.011-0.121-0.043-0.179-0.065-0.292-0.001-0.003 0.001-0.005 0-0.008s-0.002-0.005-0.003-0.008c-0.032-0.163-0.058-0.37-0.094-0.427-0.084-0.135-0.377-0.433-0.635-0.677zM22.32 7.616c-0.001 0-0.004 0.005-0.005 0.005-0.139 0.016-0.348 0.399-0.432 0.797-0.093 0.439-0.151 0.51-0.643 0.826-0.436 0.28-0.615 0.467-0.755 0.818-0.003 0.006-0.003 0.012-0.005 0.018-0.030 0.077-0.060 0.15-0.089 0.247-0.171 0.572-0.278 0.728-0.635 0.935-0.335 0.194-0.654 0.442-0.654 0.51 0 0.027 0.041 0.034 0.089 0.013s0.32-0.138 0.607-0.258c0.637-0.266 0.784-0.398 1.065-0.966 0.114-0.23 0.209-0.375 0.349-0.487 0.003-0.003 0.010-0.005 0.013-0.008 0.141-0.11 0.324-0.188 0.617-0.284 0.358-0.116 0.828-0.598 1.018-1.042 0.084-0.196 0.18-0.357 0.214-0.357s0.063-0.045 0.063-0.099c0-0.012-0.058-0.056-0.070-0.076l-0.003-0.003c-0.112-0.175-0.606-0.585-0.734-0.589-0 0-0.002-0.003-0.003-0.003s-0.002 0.003-0.003 0.003c-0 0-0.002-0.003-0.003-0.003zM9.234 7.874l-0.122 0.115c-0.075 0.050-0.151 0.107-0.31 0.258l-0.37 0.352 0.195 0.156c0.108 0.085 0.404 0.233 0.659 0.331 0.077 0.029 0.094 0.050 0.148 0.073 0.078 0.042 0.24 0.115 0.289 0.151 0.086 0.080 0.146 0.19 0.253 0.401 0.305 0.602 0.517 0.805 1.057 1.016 0.593 0.231 0.643 0.275 0.909 0.771 0.123 0.229 0.255 0.457 0.294 0.505 0.105 0.13 0.214 0.104 0.159-0.036-0.027-0.067-0.111-0.326-0.188-0.576-0.16-0.522-0.351-0.752-0.901-1.089-0.408-0.249-0.547-0.47-0.651-1.026-0.034-0.181-0.182-0.394-0.37-0.596-0.144-0.155-0.306-0.308-0.487-0.414-0.178-0.104-0.366-0.229-0.417-0.279-0.037-0.036-0.067-0.060-0.099-0.070zM23.877 9.007l-0.19 0.185c-0.104 0.1-0.246 0.296-0.318 0.438-0.271 0.538-0.36 0.622-0.841 0.792-0.181 0.064-0.371 0.175-0.544 0.294-0.040 0.027-0.084 0.053-0.12 0.083-0.228 0.175-0.398 0.361-0.398 0.477 0 0.057-0.023 0.112-0.052 0.125s-0.1 0.119-0.159 0.234c-0.109 0.215-0.284 0.326-0.992 0.628-0.229 0.097-0.387 0.204-0.362 0.245 0.028 0.045 0.088 0.047 0.161 0.008 0.065-0.035 0.275-0.087 0.466-0.115 0.219-0.031 0.392-0.085 0.555-0.156 0.015-0.002 0.090-0.016 0.094-0.016 0.002 0 0.037-0.039 0.042-0.042 0.023-0.013 0.045-0.033 0.068-0.047 0.048-0.027 0.099-0.065 0.143-0.102 0.122-0.096 0.243-0.207 0.372-0.357 0.387-0.449 0.395-0.452 1.297-0.641 0.387-0.081 0.455-0.128 0.956-0.643 0.26-0.267 0.37-0.41 0.422-0.51l0.044-0.052-0.016-0.021c0-0.013 0.025-0.044 0.018-0.052-0.038-0.046-0.198-0.235-0.357-0.419zM1.442 9.223c-0.424 0-0.969 0.53-0.969 0.943 0 0.181 0.273 0.68 0.424 0.773 0.046 0.029 0.181 0.076 0.299 0.104s0.26 0.039 0.318 0.026 0.187-0.043 0.289-0.068c0.102-0.024 0.268-0.136 0.367-0.247 0.143-0.161 0.18-0.274 0.18-0.555 0-0.005-0.003-0.010-0.003-0.016s0.003-0.006 0.003-0.010c0-0.041-0.011-0.060-0.013-0.094-0.006-0.074-0.013-0.144-0.029-0.208-0.002-0.005-0.006-0.011-0.008-0.016-0.019-0.072-0.039-0.142-0.068-0.185-0.13-0.2-0.568-0.448-0.792-0.448zM7.763 9.431c-0.004 0-0.038 0.048-0.047 0.055-0.006 0-0.038-0.012-0.042-0.010-0.094 0.036-0.529 0.684-0.529 0.789 0 0.002 0.003 0.004 0.003 0.005-0 0-0.003 0.005-0.003 0.005s0.008 0.004 0.008 0.005c0.021 0.11 0.269 0.207 0.802 0.31 0.644 0.124 0.64 0.12 0.992 0.57 0.344 0.438 0.665 0.617 1.299 0.719 0.486 0.078 0.612 0.138 0.792 0.383 0.057 0.077 0.207 0.257 0.336 0.401 0.051 0.057 0.091 0.061 0.146 0.104 0.008 0.008 0.025 0.031 0.031 0.036 0.034 0.031 0.042 0.022 0.068 0.036 0.040 0.023 0.099 0.086 0.122 0.086 0.128 0 0.129-0.003 0-0.133-0.072-0.073-0.216-0.297-0.318-0.5-0.243-0.486-0.417-0.643-0.987-0.865-0.594-0.232-0.669-0.288-0.865-0.672-0.23-0.452-0.475-0.76-0.695-0.875-0.204-0.106-0.528-0.221-0.805-0.307-0.055-0.026-0.18-0.075-0.193-0.086-0.036-0.031-0.089-0.057-0.117-0.057zM25.114 10.803c-0.119-0.046-0.532 0.276-0.737 0.576-0.113 0.165-0.207 0.269-0.341 0.341s-0.305 0.114-0.568 0.151c-0.103 0.015-0.156 0.049-0.242 0.068-0.089 0.019-0.174 0.043-0.247 0.068-0.292 0.101-0.527 0.239-0.732 0.503-0.257 0.331-0.446 0.482-0.797 0.581-0.002 0.001-0.003 0.002-0.005 0.003-0.005 0.001-0.011 0.001-0.016 0.003-0.115 0.031-0.245 0.058-0.404 0.083-0.304 0.049-0.584 0.121-0.622 0.159-0.046 0.046 0.2 0.064 0.729 0.055 0.869-0.015 0.824 0.001 1.612-0.607 0.257-0.198 0.304-0.208 0.927-0.208 0.075 0 0.099-0.014 0.164-0.016 0.013-0 0.021-0.002 0.034-0.003 0.007-0 0.014 0 0.021 0h0.003c0.038-0.002 0.078-0.001 0.115-0.005 0.013-0.001 0.031-0.001 0.044-0.003h0.003c0.054-0.006 0.084-0.016 0.13-0.023 0.313-0.045 0.552-0.135 0.826-0.375 0.134-0.117 0.331-0.261 0.438-0.318 0.192-0.103 0.191-0.103 0.076-0.326-0.064-0.123-0.143-0.273-0.177-0.331s-0.080-0.157-0.102-0.221-0.080-0.134-0.13-0.154zM6.643 11.22c-0.069 0.015-0.144 0.171-0.422 0.779-0.039 0.086-0.053 0.179-0.029 0.203 0.085 0.085 0.645 0.156 0.932 0.117 0.408-0.054 0.559-0.001 1.021 0.359 0.483 0.377 0.84 0.487 1.385 0.43 0.468-0.049 0.733 0.040 1.104 0.367 0.136 0.12 0.337 0.264 0.445 0.32 0.065 0.034 0.063 0.017 0.099 0.029 0.001 0 0.015 0.010 0.016 0.010s-0.004-0.007-0.003-0.008c0.104 0.027 0.109-0.022-0.091-0.224-0.129-0.13-0.344-0.357-0.477-0.503-0.294-0.323-0.533-0.429-1.117-0.495-0.444-0.050-0.455-0.055-0.943-0.557-0.514-0.53-0.643-0.595-1.383-0.698-0.191-0.027-0.402-0.076-0.466-0.109-0.029-0.015-0.050-0.026-0.073-0.021zM13.346 11.668l-0.003 0.003h-0.044l-0.576 0.568-0.576 0.57v0.073l0.003 0.234v3.081l0.036 0.013v0.016l0.719 0.237c0.397 0.131 0.711 0.255 1 0.406s0.552 0.329 0.852 0.563c0.754 0.589 0.987 1.075 1.057 2.221 0.037 0.602 0.055 0.68 0.169 0.68 0.112 0 0.13-0.059 0.13-0.438 0.001-0.956 0.202-1.609 0.643-2.078 0.139-0.148 0.289-0.284 0.448-0.411 0.009-0.008 0.019-0.016 0.029-0.023 0.482-0.381 1.064-0.675 1.807-0.919l0.721-0.237v-0.016l0.034-0.010 0.003-1.69v-1.688l-0.099-0.096-0.474-0.479-0.573-0.578h-2.685zM0.622 12.158c-0.011 0-0.023 0.047-0.034 0.055-0.386 0.277-0.715 2.866-0.539 4.487 0.084 0.776 0.287 1.724 0.453 2.125l0.099 0.24 0.331-0.099c0.182-0.055 0.342-0.112 0.357-0.128s-0.055-0.433-0.156-0.927c-0.16-0.779-0.183-1.064-0.182-2.159 0.001-1.198 0.092-2.076 0.286-2.755 0.038-0.134 0.070-0.342 0.070-0.461 0-0.044-0.015-0.059-0.021-0.089-0.001-0.007-0.004-0.014-0.005-0.021-0.010-0.038-0.034-0.083-0.068-0.107-0.012-0.007-0.032-0.015-0.047-0.021-0.038-0.019-0.060-0.040-0.128-0.060-0.148-0.044-0.321-0.081-0.385-0.081-0.002 0-0.005 0.005-0.008 0.005s-0.021-0.005-0.023-0.005zM31.364 12.158c-0.064 0-0.238 0.036-0.385 0.081-0.068 0.020-0.089 0.041-0.128 0.060-0.015 0.006-0.035 0.014-0.047 0.021-0.034 0.024-0.057 0.068-0.068 0.107-0.001 0.007-0.004 0.014-0.005 0.021-0.005 0.030-0.021 0.045-0.021 0.089 0 0.119 0.032 0.327 0.070 0.461 0.195 0.679 0.285 1.557 0.286 2.755 0.001 1.095-0.023 1.38-0.182 2.159-0.101 0.494-0.17 0.913-0.154 0.93s0.165 0.069 0.333 0.12c0.033 0.010 0.039 0.005 0.070 0.013 0.040 0.011 0.081 0.019 0.112 0.021 0.062 0.011 0.161 0.038 0.174 0.031 0.076-0.040 0.313-0.849 0.451-1.539 0.188-0.942 0.165-3.158-0.042-4.133-0.166-0.786-0.282-1.107-0.417-1.169-0.005-0.002-0.013-0.026-0.018-0.026-0.002 0-0.018 0.005-0.021 0.005s-0.007-0.005-0.010-0.005zM15.744 12.606c0.098-0.022 0.274-0.022 0.404 0.003 0.097 0.018 0.137 0.037 0.172 0.068 0.009 0.010 0.035 0.015 0.042 0.029 0.028 0.054 0.029 0.143 0.029 0.323 0 0.007 0 0.006 0 0.013-0 0.337-0.014 0.366-0.219 0.438-0.114 0.040-0.197 0.067-0.211 0.068-0.001-0-0.002 0-0.003 0-0.016-0-0.043-0.013-0.060-0.016-0.032-0.013-0.069-0.028-0.148-0.057-0.176-0.065-0.193-0.097-0.193-0.445 0-0.171 0.005-0.266 0.029-0.323 0.035-0.031 0.063-0.061 0.141-0.094 0.007-0.003 0.011-0.002 0.018-0.005zM14.554 12.608c0.053 0.010 0.062 0.028 0.094 0.039 0.028 0.013 0.070 0.025 0.086 0.044 0.026 0.065 0.035 0.162 0.044 0.349l0.005 0.099v0.008c-0 0.008-0.002 0.014-0.003 0.021-0.003 0.064-0.003 0.146-0.018 0.18-0.023 0.054-0.064 0.075-0.138 0.094-0.092 0.023-0.209 0.057-0.26 0.073s-0.179-0.003-0.284-0.042c-0.176-0.065-0.19-0.099-0.19-0.443 0-0.17 0.003-0.254 0.026-0.31 0.004-0.008 0.007-0.016 0.013-0.023 0.029-0.047 0.077-0.064 0.174-0.086 0.118-0.026 0.32-0.027 0.451-0.003zM17.393 12.608c0.131-0.025 0.335-0.023 0.453 0.003 0.096 0.021 0.143 0.040 0.172 0.086 0.002 0.003 0.009 0.002 0.010 0.005 0.029 0.058 0.031 0.151 0.031 0.323 0 0.003 0 0.002 0 0.005-0 0.171-0.002 0.265-0.031 0.32s-0.087 0.077-0.195 0.109c-0.145 0.044-0.306 0.045-0.451 0.003-0.216-0.064-0.226-0.082-0.227-0.432 0-0.001 0-0.001 0-0.003s0-0.001 0-0.003c0-0.147 0.010-0.209 0.026-0.266 0.009-0.023 0.009-0.050 0.023-0.070 0.002-0.003 0.010-0.005 0.013-0.008 0.034-0.035 0.075-0.054 0.174-0.073zM25.817 12.764c-0.178 0.024-0.469 0.194-0.799 0.471l-0.143 0.12c-0.121 0.084-0.299 0.128-0.521 0.13h-0.349c-0.708 0-0.721 0.002-1.055 0.245-0.734 0.533-0.703 0.522-1.414 0.523-0.075 0-0.087 0.013-0.159 0.016-0.289-0.014-0.469-0.003-0.497 0.044-0.019 0.005-0.101 0.005-0.109 0.010-0.078 0.051-0.045 0.068 0.138 0.070 0.134 0.001 0.4 0.046 0.591 0.099 0.58 0.162 0.863 0.134 1.396-0.135 0.269-0.136 0.438-0.207 0.602-0.227 0.001-0 0.002 0 0.003 0 0.104-0.005 0.266 0.026 0.406 0.047 0.053 0.014 0.096 0.023 0.159 0.042 0.527 0.161 0.846 0.13 1.43-0.135 0.288-0.131 0.575-0.255 0.635-0.273 0.080-0.025 0.101-0.093 0.078-0.25-0.017-0.119-0.060-0.234-0.094-0.255s-0.060-0.129-0.060-0.237c0-0.036-0.025-0.055-0.034-0.091-0.017-0.073-0.029-0.157-0.065-0.188-0.031-0.026-0.079-0.034-0.138-0.026zM14.38 12.996c-0.107 0-0.155 0.020-0.182 0.057-0.050 0.025-0.079 0.059-0.089 0.109-0.014 0.072 0.016 0.157 0.068 0.19 0.058 0.037 0.119 0.053 0.177 0.057 0.16 0.012 0.299-0.087 0.299-0.253 0-0.129-0.046-0.15-0.185-0.146-0.029-0.005-0.040-0.016-0.089-0.016zM15.942 12.996c-0.211 0-0.247 0.021-0.247 0.161 0 0.090 0.021 0.185 0.047 0.211s0.084 0.021 0.133 0.026c0.026 0.009 0.050 0.016 0.078 0.013 0.010-0.001 0.014-0.004 0.023-0.005 0.004-0.001 0.009-0.001 0.013-0.003 0.008-0.001 0.019-0.005 0.026-0.008 0.024-0.009 0.045-0.018 0.065-0.034 0.035-0.016 0.081-0.022 0.102-0.047 0.101-0.122 0.039-0.208-0.083-0.26-0.039-0.031-0.087-0.055-0.156-0.055zM17.507 12.996c-0.253 0-0.281 0.018-0.281 0.169 0 0.018 0.013 0.022 0.016 0.039-0 0.011 0.009 0.028 0.016 0.039 0.013 0.042 0.021 0.086 0.044 0.104 0.001 0.001 0.001 0.004 0.003 0.005 0.004 0.003 0.004 0.016 0.008 0.018 0.015 0.006 0.055 0.004 0.081 0.008 0.030 0.009 0.061 0.026 0.091 0.026 0.010 0.002 0.026-0.009 0.036-0.010 0.005-0.001 0.009-0.002 0.013-0.003 0.015-0 0.025 0.004 0.039 0.003 0.101-0.008 0.143-0.053 0.169-0.13 0.005-0.010 0.007-0.020 0.010-0.031 0.004-0.017 0.013-0.023 0.016-0.044 0.006-0.051-0.009-0.064-0.013-0.091-0.007-0.041-0.046-0.074-0.102-0.083-0.041-0.006-0.064-0.018-0.146-0.018zM5.833 13.205l-0.073 0.263c-0.040 0.144-0.073 0.397-0.073 0.56-0 0.052 0.009 0.056 0.010 0.091-0.001 0.008-0.008 0.042-0.008 0.047-0 0.007 0.013 0.009 0.016 0.016 0.001 0.004 0.002 0.010 0.003 0.013 0.018 0.092 0.063 0.128 0.24 0.128 0.143-0 0.414-0.047 0.602-0.104 0.199-0.061 0.332-0.074 0.469-0.076 0.051-0.004 0.1-0.003 0.143 0 0.15 0.020 0.295 0.071 0.5 0.18 0.098 0.052 0.16 0.055 0.242 0.091 0.066 0.028 0.134 0.054 0.193 0.073 0.281 0.088 0.542 0.112 0.914 0.021 0.648-0.158 0.767-0.147 1.344 0.13 0.502 0.242 0.826 0.31 0.826 0.174 0-0.038-0.061-0.068-0.133-0.068s-0.315-0.137-0.539-0.302c-0.224-0.165-0.453-0.331-0.51-0.367-0.011-0.007-0.132-0.011-0.164-0.018-0.149-0.048-0.319-0.061-0.508-0.057-0.091-0.007-0.105-0.019-0.203-0.023-0.755-0.034-0.777-0.042-1.039-0.274-0.454-0.401-0.743-0.493-1.542-0.495zM14.963 14.004c0.132-0.025 0.328-0.015 0.435 0.021 0.174 0.058 0.195 0.102 0.214 0.411 0.009 0.146 0.007 0.212-0.010 0.268-0.003 0.010-0.002 0.033-0.005 0.042-0.001 0.002-0.004 0.003-0.005 0.005-0.029 0.051-0.084 0.075-0.193 0.115-0.133 0.048-0.191 0.072-0.247 0.073s-0.111-0.021-0.237-0.068c-0.172-0.063-0.189-0.106-0.19-0.43 0-0.004 0-0.004 0-0.008 0-0.284 0.036-0.344 0.154-0.393 0.031-0.009 0.037-0.027 0.086-0.036zM16.606 14.007c0.11-0.024 0.294-0.022 0.409 0.003 0.001 0 0.002-0 0.003 0 0.088 0.028 0.151 0.049 0.177 0.099 0.029 0.056 0.031 0.152 0.031 0.326-0 0.343-0.013 0.37-0.219 0.443-0.124 0.043-0.184 0.059-0.24 0.060-0.018-0.001-0.037-0.009-0.055-0.010-0.049-0.010-0.093-0.027-0.182-0.076-0.156-0.085-0.172-0.13-0.151-0.445 0.022-0.324 0.040-0.357 0.227-0.398zM13.679 14.020c0.235 0.057 0.246 0.073 0.266 0.419 0.007 0.122-0.003 0.167-0.010 0.224-0.018 0.093-0.065 0.157-0.167 0.195-0.013 0.005-0.011 0.010-0.026 0.016-0.024 0.009-0.027 0.006-0.047 0.013-0.082 0.027-0.147 0.043-0.203 0.047-0.017 0-0.034-0.007-0.052-0.008-0.050-0.008-0.094-0.019-0.193-0.055-0.173-0.064-0.193-0.104-0.193-0.417 0-0.312 0.020-0.352 0.193-0.419 0.119-0.046 0.281-0.052 0.432-0.016zM18.617 14.020c0.234 0.057 0.243 0.073 0.263 0.411 0.020 0.343 0.014 0.352-0.214 0.435-0.266 0.097-0.232 0.098-0.484 0.005-0.057-0.021-0.078-0.049-0.107-0.076-0.018-0.019-0.047-0.029-0.057-0.057-0.006-0.017-0.004-0.061-0.008-0.083-0.010-0.055-0.020-0.11-0.021-0.208 0-0.301 0.022-0.345 0.193-0.411 0.119-0.046 0.284-0.052 0.435-0.016zM13.604 14.324c-0.119 0-0.256 0.217-0.221 0.352 0.040 0.153 0.29 0.168 0.419 0.073 0.007-0.001 0.018-0.005 0.023-0.005 0.019 0 0.025-0.046 0.036-0.076 0.004-0.010 0.016-0.015 0.018-0.026 0-0.002-0.003-0.005-0.003-0.008 0.002-0.014 0.013-0.013 0.013-0.029 0-0.045-0.032-0.085-0.073-0.12-0.056-0.087-0.134-0.161-0.214-0.161zM16.734 14.35c-0.043 0.003-0.088 0.020-0.138 0.047-0.131 0.070-0.181 0.277-0.089 0.37 0.024 0.024 0.124 0.039 0.224 0.042 0.001 0 0.007 0.003 0.008 0.003s0.001-0.003 0.003-0.003c0.004 0 0.004 0.003 0.008 0.003 0.171 0 0.198-0.025 0.198-0.201 0-0.021-0.008-0.034-0.010-0.052-0.017-0.136-0.091-0.216-0.203-0.208zM18.302 14.353c-0.044-0.008-0.089-0.004-0.133 0.013-0.066 0.025-0.096 0.124-0.099 0.224-0.005 0.036 0.004 0.069 0.023 0.102 0.008 0.025-0 0.062 0.016 0.078 0.043 0.043 0.115 0.046 0.188 0.034 0.007 0 0.016-0.002 0.023-0.003 0.025-0.006 0.047-0.015 0.070-0.026 0.028-0.011 0.054-0.011 0.086-0.031 0.045-0.029 0.055-0.067 0.052-0.109 0.001-0.003 0.005-0.005 0.005-0.008 0.018-0.13-0.099-0.251-0.232-0.273zM15.208 14.364c-0.042-0.010-0.083 0.002-0.138 0.031-0.134 0.072-0.184 0.279-0.091 0.372 0.030 0.030 0.090 0.038 0.156 0.039 0.032 0.007 0.060 0.005 0.091-0.005 0.132-0.017 0.26-0.067 0.26-0.135 0-0.034-0.063-0.125-0.141-0.203-0.022-0.022-0.036-0.024-0.055-0.039-0.028-0.022-0.058-0.054-0.083-0.060zM26.401 14.793l-0.091 0.013v-0.008l-0.117 0.023-0.065 0.010c-0.006 0.001-0.022 0.009-0.029 0.010-0.159 0.027-0.475 0.131-0.732 0.25l-0.37 0.172c-0.099 0.016-0.244-0.003-0.362-0.021l-0.26-0.081c-0.605-0.185-0.838-0.164-1.456 0.13-0.514 0.245-0.71 0.262-1.203 0.112-0.375-0.114-0.875-0.138-0.875-0.042 0 0.034 0.122 0.080 0.273 0.104s0.379 0.104 0.505 0.177c0.504 0.293 0.763 0.321 1.401 0.148l0.349-0.094c0.073-0.007 0.159-0.039 0.229-0.034 0.071 0.004 0.144 0.044 0.214 0.065l0.339 0.156c0.331 0.152 0.612 0.228 0.878 0.245 0.001 0 0.002-0 0.003 0s0.004 0 0.005 0c0.226 0.013 0.442-0.016 0.669-0.096 0.163-0.058 0.385-0.104 0.495-0.104h0.201v-0.568zM7.031 15.059c-0.221-0.023-0.444 0.012-0.719 0.099-0.248 0.079-0.521 0.143-0.607 0.143-0.148 0.001-0.159 0.028-0.159 0.513 0 0.282 0.023 0.536 0.049 0.563 0.074 0.075 0.425-0.021 0.904-0.245 0.492-0.23 0.616-0.241 1.091-0.096 0.532 0.162 0.834 0.131 1.456-0.151l0.188-0.086c0.108-0.046 0.218-0.091 0.305-0.107 0.029-0.004 0.059-0.024 0.089-0.026 0.093-0.008 0.218 0.028 0.328 0.052l0.289 0.076c0.376 0.096 0.687 0.138 0.766 0.107 0.105-0.042 0.053-0.078-0.25-0.177-0.21-0.069-0.485-0.178-0.612-0.245-0.062-0.033-0.131-0.032-0.195-0.055-0.089-0.034-0.169-0.056-0.245-0.070-0.060-0.009-0.122-0.018-0.185-0.018-0.093 0-0.203 0.016-0.323 0.042-0.067 0.012-0.126 0.003-0.195 0.023-0.55 0.161-0.816 0.14-1.258-0.094-0.273-0.145-0.495-0.224-0.716-0.247zM17.596 15.332c0.030-0 0.054-0.002 0.083 0 0.057 0.005 0.111 0.014 0.177 0.042 0.185 0.077 0.203 0.116 0.203 0.411v0.003c0 0.003 0 0.003 0 0.005-0 0.279-0.025 0.337-0.177 0.406-0.1 0.046-0.184 0.065-0.268 0.068-0.013 0-0.023 0-0.036 0-0.084-0.004-0.168-0.026-0.266-0.073-0.129-0.062-0.156-0.133-0.156-0.404 0-0.001 0-0.001 0-0.003s0-0.001 0-0.003c0-0.007 0.003-0.006 0.003-0.013 0.001-0.3 0.013-0.324 0.245-0.401 0.077-0.026 0.135-0.034 0.193-0.039zM14.351 15.337c0.057 0.006 0.111 0.011 0.18 0.031 0.233 0.070 0.255 0.111 0.258 0.367 0 0.018 0.003 0.019 0.003 0.039-0 0.071-0.008 0.107-0.013 0.156s-0.004 0.12-0.018 0.148c-0.002 0.006-0.008 0.007-0.010 0.013-0.030 0.049-0.080 0.075-0.177 0.109-0.119 0.042-0.191 0.062-0.26 0.065-0.036-0.001-0.068-0.014-0.104-0.018-0.049-0.009-0.093-0.014-0.161-0.042-0.133-0.054-0.156-0.116-0.156-0.417 0-0.321 0.016-0.36 0.19-0.427 0.040-0.015 0.082-0.015 0.122-0.021 0.049-0.006 0.094-0.005 0.148-0.005zM15.924 15.343c0.101-0.003 0.208-0.005 0.281 0.023 0.166 0.064 0.185 0.107 0.185 0.411v0.008c-0.001 0.286-0.025 0.344-0.177 0.414-0.098 0.045-0.163 0.061-0.229 0.065-0.014 0-0.030 0.006-0.044 0.005-0.071-0.004-0.14-0.029-0.242-0.081-0.151-0.077-0.168-0.124-0.148-0.398 0.012-0.17 0.034-0.327 0.049-0.357 0.004-0.004 0.011-0.007 0.016-0.010 0.031-0.038 0.116-0.061 0.214-0.076 0.032-0.005 0.061-0.003 0.096-0.005zM15.968 15.72c-0.018 0-0.023 0.014-0.039 0.016-0.016-0.002-0.024-0.013-0.042-0.013-0.050-0-0.078 0.023-0.096 0.065-0.074 0.055-0.114 0.133-0.070 0.247 0.009 0.024 0.041 0.041 0.073 0.057 0.012 0.018 0.046 0.023 0.073 0.026 0.001 0 0.002-0 0.003 0s0.002-0 0.003 0c0.022 0.008 0.043 0.017 0.068 0.016 0.117 0.012 0.242-0.006 0.279-0.065 0.096-0.156-0.042-0.349-0.25-0.349zM14.393 15.733c-0.042-0.004-0.055 0.019-0.089 0.023-0.159 0.021-0.245 0.113-0.18 0.284 0.019 0.050 0.073 0.071 0.146 0.081 0.025 0.009 0.050 0.013 0.078 0.010 0 0 0.003 0.003 0.003 0.003h0.003c0.003 0 0.012-0.005 0.016-0.005 0.022 0.002 0.030 0.010 0.052 0.010 0.074 0 0.11-0.020 0.133-0.057 0.044-0.028 0.065-0.069 0.065-0.151 0-0.098-0.036-0.138-0.104-0.164-0.003-0.003-0.009-0-0.013-0.003-0.032-0.010-0.053-0.026-0.109-0.031zM17.52 15.733c-0.019-0.002-0.022 0.011-0.039 0.010-0.055 0.002-0.104 0.014-0.148 0.039-0.055 0.031-0.104 0.068-0.104 0.135-0 0.003-0.003 0.005-0.003 0.008 0 0.006 0.007 0.007 0.008 0.013 0.002 0.032 0.004 0.063 0.018 0.102 0.010 0.026 0.036 0.040 0.060 0.055 0.022 0.013 0.052 0.022 0.086 0.026 0.031 0.012 0.063 0.014 0.099 0.008 0.18 0.006 0.289-0.091 0.245-0.219-0.005-0.103-0.052-0.142-0.169-0.161-0.008-0.002-0.015-0.006-0.023-0.008-0.013-0.002-0.014-0.006-0.029-0.008zM20.958 16.358c-0.033 0.009-0.049 0.030-0.049 0.063 0 0.038 0.044 0.068 0.096 0.068s0.306 0.159 0.565 0.352l0.471 0.349h0.714c0.712 0 0.716 0.001 1.016 0.242 0.38 0.306 0.662 0.467 0.927 0.529 0.115 0.027 0.464 0.043 0.776 0.039 0.282-0.004 0.436-0.020 0.542-0.076l0.073-0.003 0.013-0.065c0.076-0.094 0.108-0.245 0.138-0.529l0.042-0.419h-0.294c-0.162 0-0.494 0.054-0.74 0.12l-0.029 0.008c-0.116 0.018-0.291 0.055-0.367 0.055-0.031 0-0.069 0.003-0.099 0-0.043-0.004-0.085-0.017-0.125-0.029l-0.349-0.172c-0.596-0.296-0.896-0.323-1.599-0.146l-0.224 0.057c-0.050 0.003-0.119 0.023-0.167 0.021-0.069-0.005-0.142-0.022-0.214-0.042l-0.372-0.177c-0.326-0.155-0.539-0.229-0.664-0.24-0.028-0.002-0.063-0.010-0.081-0.005zM20.158 16.559c-0.004 0-0.112 0.038-0.133 0.044-0.136 0.023-0.305 0.067-0.56 0.156-0.559 0.195-1.441 0.582-1.529 0.669-0.004 0.004 0.043 0.099 0.055 0.133 0 0 0 0.002 0 0.003v0.003c0 0.002 0.005 0.001 0.005 0.003 0.028 0.078 0.045 0.14 0.12 0.292 0.111 0.226 0.276 0.623 0.365 0.883 0.015 0.045 0.028 0.040 0.044 0.081 0.032 0.079 0.071 0.186 0.091 0.234l0.068 0.159 0.036-0.023c0.002 0.001 0.008 0.021 0.010 0.021 0.049 0 0.201-0.114 0.339-0.253 0.13-0.131 0.244-0.208 0.276-0.198-0.004 0.007-0.009 0.014-0.013 0.021-0.008 0.002 0.001 0.010-0.010 0.010-0.045 0-0.081 0.037-0.081 0.083s-0.122 0.212-0.271 0.367l-0.273 0.284 0.081 0.518 0.036 0.229 0.023 0.227 0.008-0.010 0.013 0.076 0.19-0.229c0.114-0.137 0.193-0.185 0.193-0.122 0 0.005-0.005 0.006-0.005 0.010-0.032 0.062-0.086 0.142-0.13 0.216-0.041 0.047-0.073 0.074-0.125 0.148-0.164 0.235-0.184 0.372-0.112 0.807 0.011 0.064 0.020 0.072 0.029 0.107v0.12l0.023-0.029c0.008 0.010 0.029-0.004 0.042-0.008-0 0 0-0.003 0-0.003 0.021-0.007 0.037-0.004 0.078-0.042 0.071-0.065 0.132-0.168 0.135-0.229 0.001-0.017 0.005-0.019 0.008-0.029 0.005-0.007 0.008-0.011 0.013-0.018 0.006 0.002 0.011 0.002 0.018 0.018 0.018 0.045-0.052 0.22-0.156 0.385s-0.19 0.338-0.19 0.383-0.064 0.111-0.146 0.148c-0.123 0.056-0.815 0.553-1.221 0.878-0.057 0.046-0.213 0.158-0.346 0.25-0.386 0.265-0.659 0.602-0.911 1.122-0.129 0.266-0.252 0.484-0.271 0.484s-0.139-0.219-0.268-0.484c-0.281-0.579-0.519-0.829-1.422-1.49-0.377-0.276-0.769-0.572-0.87-0.659-0.233-0.199-0.301-0.199-0.26 0 0.018 0.086 0.087 0.528 0.151 0.979l0.117 0.82 0.69 0.214c0.71 0.22 1.027 0.345 1.245 0.508 0.040 0.033 0.087 0.066 0.128 0.109 0.053 0.054 0.103 0.106 0.154 0.174 0.005 0.007 0.008 0.006 0.013 0.013 0.081 0.103 0.185 0.228 0.185 0.25 0 0.062 0.038 0.068 0.089 0.052l0.010 0.013 0.018-0.021c0.003-0.002 0.005-0.001 0.008-0.003 0.003 0 0.011 0.013 0.013 0.013 0.057 0 0.21-0.145 0.339-0.32 0.157-0.214 0.341-0.364 0.557-0.456 0.177-0.075 0.399-0.171 0.495-0.214s0.197-0.072 0.227-0.065 0.257-0.052 0.505-0.133c0.381-0.124 0.453-0.172 0.464-0.315 0.022-0.309 0.056-0.55 0.154-1.078 0.13-0.702 0.138-0.271 0.010 0.521-0.056 0.344-0.090 0.639-0.076 0.654 0.069 0.070 0.427-0.136 0.727-0.375 0.034-0.028 0.075-0.047 0.107-0.078 0.025-0.023 0.058-0.039 0.081-0.063 0.417-0.414 0.517-0.74 0.521-1.706 0.007-1.532 0.119-4.153 0.182-4.346 0.007-0.035 0.011-0.099 0.018-0.13 0.033-0.069 0.070-0.192 0.081-0.336 0.003-0.041-0.003-0.060-0.003-0.094 0.008-0.050 0.005-0.105-0.005-0.135-0.007-0.041-0.029-0.068-0.047-0.094-0.025-0.035-0.054-0.068-0.107-0.076-0.014-0.007-0.037-0.031-0.044-0.031zM11.716 16.585c-0.030 0.009-0.039 0.041-0.060 0.060-0.091 0.049-0.127 0.102-0.096 0.18 0.005 0.014 0.008 0.035 0.013 0.049-0 0.044-0.011 0.076-0.003 0.13 0.024 0.159 0.072 0.325 0.107 0.37s0.094 1.209 0.13 2.586c0.037 1.377 0.102 2.652 0.143 2.833 0.093 0.403 0.495 0.889 0.911 1.096 0.364 0.181 0.492 0.186 0.445 0.023-0.019-0.067-0.089-0.546-0.154-1.065-0.032-0.254-0.062-0.325-0.096-0.513-0.014-0.091-0.032-0.271-0.039-0.302-0.004-0.019-0.019-0.034-0.026-0.055-0.009-0.032-0.027-0.167-0.034-0.177-0.111-0.151-0.25-0.412-0.25-0.466 0-0.026 0.073 0.042 0.164 0.148l0.167 0.195 0.049-0.427c0.047-0.406 0.038-0.44-0.167-0.701-0.271-0.345-0.281-0.508-0.013-0.206l0.201 0.227 0.063-0.521 0.065-0.521-0.234-0.24c-0.364-0.372-0.438-0.568-0.115-0.299 0.148 0.122 0.304 0.224 0.346 0.224 0.007 0 0.022-0.045 0.031-0.055 0.082-0.081 0.233-0.443 0.24-0.609 0.001-0.038 0.017-0.085 0.036-0.104s0.135-0.248 0.258-0.505l0.224-0.466-0.188-0.133c-0.032-0.022-0.133-0.052-0.193-0.083-0.206-0.114-0.464-0.234-0.693-0.302-0.003-0.001-0.009-0.004-0.013-0.005-0.053-0.018-0.137-0.066-0.169-0.073-0.052-0.011-0.214-0.073-0.359-0.138-0.33-0.147-0.557-0.199-0.693-0.156zM9.953 16.593c-0.278-0.033-0.474 0.043-0.982 0.292l-0.297 0.146c-0.049 0.014-0.122 0.056-0.169 0.063-0.013 0.002-0.026 0.007-0.039 0.008-0.077 0.007-0.209-0.029-0.302-0.042l-0.284-0.068c-0.68-0.161-0.922-0.131-1.57 0.198-0.226 0.114-0.459 0.208-0.518 0.208-0.081 0-0.097 0.048-0.065 0.193 0.039 0.179 0.143 0.568 0.206 0.768 0.015 0.048 0.053 0.074 0.104 0.081 0.001 0 0.001 0.002 0.003 0.003v0.005l0.018-0.008c0.003 0 0.008-0.003 0.010-0.003 0.003 0.001 0.011 0.010 0.013 0.010 0.007 0 0.039-0.021 0.049-0.023 0.177-0.032 0.457-0.189 0.836-0.49 0.261-0.207 0.293-0.214 0.883-0.198 0.665 0.018 1-0.076 1.313-0.367 0.097-0.090 0.182-0.16 0.26-0.216 0.006-0.004 0.012-0.009 0.018-0.013 0.239-0.166 0.454-0.195 0.966-0.195 0.239 0 0.402-0.008 0.513-0.023 0.006-0.003 0.018-0.005 0.021-0.008 0.006-0.001 0.005-0.004 0.010-0.005l0.055 0.005-0.036-0.010c0.054-0.013 0.115-0.026 0.122-0.047 0.019-0.057-0.043-0.086-0.18-0.086-0.115 0-0.402-0.051-0.638-0.112-0.125-0.032-0.228-0.054-0.32-0.065zM20.804 17.442l0.063 0.076c-0.026 0.015-0.011 0.064 0.091 0.177 0.077 0.086 0.225 0.258 0.331 0.38 0.156 0.181 0.392 0.292 0.68 0.375 0.042 0.013 0.094 0.024 0.141 0.034 0.090 0.020 0.155 0.054 0.26 0.068 0.125 0.017 0.224 0.032 0.31 0.055 0.257 0.067 0.398 0.196 0.799 0.612 0.414 0.429 0.492 0.478 0.872 0.555 0.229 0.046 0.525 0.11 0.659 0.141s0.274 0.059 0.313 0.063c0.096 0.009 0.344-0.609 0.378-0.872 0-0.003 0.005-0.013 0.005-0.016 0-0.004-0.005-0.007-0.005-0.010 0.002-0.036 0.014-0.090 0.003-0.102-0.006-0.006-0.094-0.005-0.112-0.010-0.002-0.001-0.006-0.002-0.008-0.003-0.088-0.036-0.268-0.040-0.453-0.044-0.087-0.004-0.094-0.020-0.193-0.021-0.604-0.003-0.716-0.025-0.883-0.159-0.613-0.49-0.755-0.575-1.255-0.615-0.034-0.003-0.075-0.006-0.112-0.008-0.074-0.005-0.127-0.011-0.219-0.016l-0.716-0.036c-0.067-0.024-0.131-0.063-0.206-0.12l-0.245-0.19c-0.087-0.068-0.117-0.068-0.182-0.109-0.030-0.020-0.070-0.053-0.094-0.068zM14.158 17.572l-0.167 0.279c-0.003 0.005-0.007 0.018-0.010 0.023-0.057 0.105-0.109 0.238-0.172 0.396-0.025 0.065-0.050 0.118-0.076 0.193-0.034 0.094-0.067 0.16-0.099 0.263-0.089 0.288-0.161 0.547-0.161 0.573s0.334 0.223 0.745 0.438 0.884 0.515 1.052 0.667c0.062 0.056 0.083 0.047 0.138 0.086 0.027 0.023 0.072 0.070 0.086 0.073 0.014 0.010 0.052 0.052 0.057 0.052 0.002 0-0.002-0.031 0-0.034 0.023 0.009 0.082 0.063 0.091 0.057 0.040-0.025 0.036-0.071-0.010-0.117-0.035-0.035-0.057-0.195-0.065-0.349-0.002-0.025-0.006-0.030-0.008-0.055-0-0.005-0.003-0.006-0.003-0.010-0.017-0.196-0.040-0.402-0.068-0.438-0.010-0.013-0.022-0.069-0.034-0.099-0.043-0.168-0.097-0.318-0.169-0.492-0-0.001 0-0.002 0-0.003s-0.002-0.005-0.003-0.005c-0.072-0.171-0.134-0.347-0.227-0.5-0.211-0.351-0.604-0.774-0.786-0.883zM17.768 17.608c-0.148 0-0.958 0.927-0.958 1.096 0 0.050-0.027 0.091-0.057 0.091-0.128 0-0.546 1.746-0.443 1.849 0.056 0.056 0.054 0.057 0.43-0.279 0.194-0.174 0.667-0.472 1.047-0.664 0.262-0.132 0.36-0.201 0.477-0.276 0.039-0.021 0.193-0.105 0.195-0.107 0-0-0.003-0.005-0.003-0.005 0.001-0.001 0.021-0.012 0.021-0.013-0.001-0.028-0.075-0.287-0.164-0.576-0.183-0.592-0.403-1.049-0.521-1.099-0.003-0.001-0.011-0.018-0.013-0.018-0 0-0.005 0.005-0.005 0.005-0.002-0-0.004-0.005-0.005-0.005zM10.942 17.848c-0.159-0.040-0.47 0-0.76 0.065l-0.232 0.008-0.151 0.117c-0.027 0.014-0.091 0.022-0.109 0.036-0.090 0.070-0.282 0.221-0.427 0.336-0.25 0.199-0.299 0.211-0.93 0.216-0.753 0.006-0.891 0.048-1.32 0.409-0.168 0.141-0.391 0.303-0.495 0.357l-0.188 0.096 0.216 0.453c0.12 0.25 0.255 0.457 0.299 0.458 0.098 0.004 0.504-0.324 0.646-0.521 0.139-0.192 0.251-0.314 0.378-0.398 0.005-0.004 0.013-0.012 0.018-0.016 0.131-0.082 0.278-0.122 0.482-0.146 0.689-0.082 1.013-0.268 1.424-0.799 0.037-0.037 0.066-0.060 0.099-0.091 0.218-0.243 0.517-0.402 0.826-0.404 0.12-0.001 0.262-0.030 0.318-0.065 0.079-0.050 0.058-0.074-0.094-0.112zM11.072 18.957c-0.025-0.005-0.064 0.001-0.12 0.018-0.084 0.026-0.174 0.091-0.263 0.148-0.171 0.111-0.345 0.257-0.529 0.482-0.316 0.388-0.501 0.488-1.018 0.539-0.503 0.050-0.947 0.3-1.25 0.708-0.124 0.167-0.295 0.348-0.38 0.401l-0.154 0.094 0.31 0.401c0.172 0.22 0.339 0.401 0.37 0.401 0.119 0 0.489-0.548 0.578-0.815 0.071-0.145 0.143-0.243 0.221-0.326 0.14-0.114 0.348-0.233 0.565-0.302 0.514-0.163 0.804-0.419 1.078-0.956 0.045-0.088 0.096-0.161 0.146-0.237 0.037-0.053 0.069-0.105 0.104-0.148 0.064-0.080 0.126-0.15 0.177-0.18 0.179-0.106 0.239-0.213 0.164-0.229zM20.851 19.181c-0.080 0.081 0.316 0.364 0.719 0.516 0.405 0.152 0.583 0.256 0.716 0.443 0.013 0.017 0.027 0.039 0.039 0.057 0.038 0.062 0.073 0.129 0.109 0.214 0.221 0.515 0.596 0.853 1.143 1.036 0.253 0.085 0.476 0.183 0.497 0.219 0.024 0.039 0.054 0.054 0.089 0.057 0.005 0.001 0.009 0.008 0.013 0.008 0.002 0 0.011-0.013 0.013-0.013 0.081-0.012 0.183-0.1 0.307-0.284 0.11-0.163 0.224-0.308 0.253-0.32s0.052-0.066 0.052-0.117c0-0.122-0.489-0.294-0.99-0.349-0.091-0.010-0.137-0.030-0.201-0.044-0.048-0.016-0.125-0.022-0.167-0.042-0.058-0.027-0.108-0.073-0.159-0.12-0.035-0.026-0.074-0.064-0.109-0.096-0.677-0.74-0.781-0.803-1.458-0.909-0.262-0.041-0.553-0.125-0.648-0.188s-0.193-0.093-0.219-0.068zM13.387 19.692c-0.009 0.009-0.012 0.103-0.021 0.135-0.029 0.083-0.049 0.205-0.073 0.417l-0.018 0.18-0.026 0.169 0.005 0.003-0.005 0.057 0.049 0.026v0.018l0.729 0.38c0.854 0.446 1.391 0.782 1.391 0.87 0 0.034 0.029 0.063 0.068 0.063 0.052 0 0.072-0.047 0.068-0.12 0-0.002 0.003-0.001 0.003-0.003 0-0-0.003-0.005-0.003-0.005-0-0.002 0-0.003 0-0.005 0-0.001 0-0.002 0-0.003-0-0.006-0.004-0.009-0.005-0.016-0.033-0.254-0.3-0.774-0.602-1.089-0.332-0.347-1.151-0.922-1.435-1.034-0.018-0.008-0.034-0.025-0.052-0.018-0.019-0.004-0.066-0.033-0.073-0.026zM18.559 19.692c-0.068-0.068-1.060 0.594-1.526 1.018-0.24 0.219-0.737 1.132-0.672 1.237 0.057 0.092 0.090 0.080 0.258-0.102 0.084-0.091 0.578-0.388 1.094-0.659l0.938-0.492v-0.013l0.049-0.026-0.008-0.076 0.003-0.003-0.010-0.055-0.031-0.289c-0.011-0.093-0.025-0.125-0.039-0.206-0.001-0.101-0.014-0.164-0.036-0.208-0.008-0.030-0.009-0.119-0.018-0.128zM30.528 19.983c-0.013-0-0.046 0.072-0.068 0.102-0.002 0.003-0.003 0.003-0.005 0.005s-0.004 0.008-0.005 0.010c-0.095 0.14-0.225 0.421-0.229 0.549-0.001 0.037-0.062 0.193-0.135 0.346s-0.137 0.334-0.138 0.401c-0.001 0.067-0.032 0.122-0.070 0.122s-0.070 0.037-0.070 0.081c0 0.087-0.091 0.298-0.219 0.555-0.022 0.043-0.040 0.083-0.063 0.128-0.449 0.866-1.34 2.268-1.87 2.872-0.084 0.096-0.227 0.259-0.32 0.365-0.102 0.116-0.151 0.179-0.156 0.234l-0.005 0.005 0.016 0.016c0.003 0.046 0.026 0.087 0.091 0.159 0.075 0.083 0.139 0.11 0.216 0.096 0.019 0.003 0.053-0.014 0.073-0.026 0.158-0.089 0.401-0.365 0.951-1.026 0.304-0.366 0.41-0.509 0.763-1.047 0.578-0.881 1.219-2.061 1.219-2.242 0-0.055 0.029-0.099 0.065-0.099s0.087-0.11 0.112-0.245c0.025-0.134 0.075-0.245 0.109-0.245s0.062-0.055 0.063-0.122c0-0.067 0.040-0.201 0.091-0.299s0.115-0.263 0.141-0.365c0.042-0.167 0.021-0.192-0.216-0.258-0.144-0.040-0.296-0.073-0.339-0.073zM20.721 19.988c-0.004 0-0.009 0.007-0.013 0.008-0.117-0.011-0.221-0.011-0.229 0-0.001 0.001-0.004 0.221-0.005 0.242-0 0 0 0.005 0 0.005-0.001 0.005-0.002 0.018-0.003 0.023v0.003c-0.032 0.199-0.040 0.869-0.042 1.852-0.004 0.225-0.006 0.204-0.010 0.448-0.043 2.481-0.088 3.019-0.299 3.599-0.525 1.439-1.818 2.468-3.435 2.734-0.316 0.052-0.495 0.075-0.674 0.078-0.027 0-0.054 0-0.081 0-0.178-0.003-0.355-0.027-0.667-0.078-0.778-0.129-1.375-0.372-1.956-0.797-0.46-0.336-0.514-0.39-0.888-0.891-0.399-0.535-0.578-0.918-0.753-1.604-0.124-0.487-0.139-0.816-0.141-2.891 0-0.037 0-0.029 0-0.065 0-0.023 0-0.022 0-0.044 0-0.014 0-0.012 0-0.026-0-1.389-0.010-2.017-0.047-2.25-0.003-0.020-0.005-0.058-0.008-0.076-0.002-0.016-0.003-0.191-0.005-0.195-0.011-0.017-0.059-0.009-0.083-0.021-0.032-0.031-0.080-0.044-0.128-0.039-0.007-0.002-0.016 0.001-0.023 0-0.011 0-0.014-0.009-0.026-0.008l-0.201 0.021v0.029l-0.036 0.010v2.586c0 1.32 0.011 2.082 0.055 2.604 0.002 0.030 0.005 0.060 0.008 0.089 0.014 0.343 0.031 0.57 0.060 0.599 0.048 0.048 0.089 0.145 0.089 0.216 0 0.193 0.385 0.943 0.706 1.37 0.634 0.844 1.462 1.417 2.43 1.734 0.076 0.027 0.156 0.049 0.234 0.073 0.101 0.028 0.195 0.069 0.299 0.091 0.038 0.008 0.081 0.008 0.122 0.016 0.073 0.016 0.141 0.041 0.216 0.055 0.068 0.012 0.198 0.001 0.284 0.008 0.157 0.018 0.337 0.054 0.443 0.055 0.365 0.004 0.869-0.080 1.336-0.188 0.029-0.007 0.077-0.008 0.104-0.016 0.034-0.010 0.068-0.026 0.102-0.036 0.145-0.038 0.318-0.069 0.432-0.112 0.339-0.128 1.122-0.593 1.318-0.784 0.047-0.045 0.198-0.183 0.336-0.307 0.505-0.457 1.229-1.611 1.229-1.958 0-0.071 0.038-0.168 0.086-0.216 0.034-0.034 0.057-0.244 0.070-0.721 0-0.004-0-0.017 0-0.021 0.008-0.096 0.005-0.367 0.010-0.482 0.035-0.757 0.049-1.758 0.042-2.737v-1.917l-0.034-0.008v-0.031l-0.201-0.018c-0.008-0-0.015-0.011-0.023-0.010zM1.471 20.004c-0.044-0.017-0.207 0.004-0.365 0.047-0.264 0.071-0.283 0.093-0.242 0.268 0.024 0.104 0.071 0.219 0.104 0.255s0.060 0.11 0.060 0.164c0 0.198 0.726 1.708 1.188 2.471 0.193 0.32 0.389 0.645 0.435 0.721s0.098 0.155 0.117 0.174c0.019 0.019 0.112 0.144 0.206 0.279s0.195 0.277 0.227 0.315c0.031 0.038 0.12 0.149 0.198 0.245s0.318 0.386 0.536 0.643c0.218 0.257 0.437 0.469 0.484 0.471 0.001 0 0.004-0.003 0.005-0.003s0.005 0.005 0.005 0.005c0.004 0 0.035-0.029 0.047-0.036 0.089-0.038 0.198-0.131 0.255-0.216l0.047-0.044-0.005-0.008c0.001-0.003 0.010-0.010 0.010-0.013 0-0.022-0.088-0.134-0.193-0.245-0.236-0.249-0.24-0.255-0.753-0.94-0.496-0.662-1.13-1.713-1.464-2.372-0.025-0.051-0.051-0.1-0.076-0.151-0.092-0.193-0.156-0.348-0.156-0.411 0-0.057-0.032-0.104-0.070-0.104-0.009 0-0.008-0.021-0.016-0.026-0.048-0.113-0.092-0.227-0.138-0.341-0.020-0.056-0.022-0.086-0.047-0.143-0.071-0.161-0.171-0.445-0.224-0.633s-0.133-0.355-0.177-0.372zM18.755 20.952l-0.039 0.029c-0-0 0-0.008 0-0.008s-0.018 0.013-0.018 0.013c-0.005-0.003-0.008-0.023-0.013-0.023-0.033 0-0.147 0.073-0.255 0.161s-0.476 0.363-0.82 0.609c-0.344 0.247-0.732 0.558-0.859 0.693-0.244 0.258-0.508 0.736-0.443 0.802 0.052 0.052 0.040 0.059 0.245-0.117 0.101-0.086 0.623-0.391 1.159-0.674s1.009-0.557 1.052-0.609c0.009-0.011-0.001-0.075 0.005-0.099 0.031-0.074 0.038-0.164 0.021-0.289-0.005-0.116-0.009-0.205-0.029-0.299zM13.262 20.962c-0.002 0-0.006 0.025-0.008 0.026-0.003 0-0.025-0.017-0.026-0.016v0.003c-0 0-0.002 0.010-0.003 0.010l-0.026 0.206c-0.016 0.068-0.035 0.075-0.047 0.167-0.027 0.215-0.020 0.312 0.010 0.385l-0.005 0.081 0.122 0.068c0.004 0.003 0.004 0.005 0.008 0.008 0.1 0.079 0.575 0.349 1.055 0.599s0.953 0.524 1.052 0.609c0.284 0.244 0.318 0.117 0.076-0.281-0.041-0.067-0.071-0.088-0.104-0.141-0.004-0.006-0.001-0.007-0.005-0.013-0.001-0.001-0.007-0.007-0.008-0.008-0.198-0.306-0.334-0.441-0.979-0.904-0.363-0.261-0.749-0.548-0.857-0.638s-0.223-0.161-0.255-0.161zM21.309 20.962c-0.079-0-0.064 0.128 0.044 0.372 0.054 0.121 0.117 0.344 0.138 0.495s0.066 0.293 0.099 0.315 0.080 0.094 0.104 0.161c0.025 0.067 0.19 0.224 0.37 0.349s0.409 0.298 0.508 0.383c0.11 0.095 0.175 0.139 0.247 0.135 0.042-0.002 0.118-0.065 0.174-0.104 0.017-0.010 0.037-0.022 0.055-0.036 0.043-0.034 0.061-0.031 0.12-0.083l0.279-0.245-0.174-0.138c-0.096-0.075-0.377-0.201-0.625-0.284-0.287-0.095-0.552-0.253-0.703-0.393-0.039-0.046-0.081-0.097-0.117-0.159-0.002-0.009-0.016-0.020-0.016-0.029 0-0.097-0.436-0.739-0.503-0.74zM10.716 21.535c-0.030-0.004-0.078 0.001-0.146 0.018-0.476 0.12-0.875 0.35-1.068 0.617-0.11 0.153-0.201 0.316-0.201 0.362s-0.079 0.17-0.174 0.273c-0.041 0.045-0.034 0.061-0.060 0.094l-0.128 0.146 0.086 0.078c0.030 0.049 0.054 0.093 0.154 0.172 0.065 0.052 0.106 0.061 0.164 0.094 0.036 0.026 0.101 0.085 0.112 0.086 0.003 0 0.010-0.012 0.013-0.013 0.001 0 0.007 0.002 0.008 0.003s0.012 0.013 0.013 0.013c0 0 0.002-0.003 0.003-0.003 0.121 0.001 0.34-0.467 0.385-0.823 0.046-0.36 0.29-0.703 0.633-0.888 0.223-0.121 0.297-0.217 0.206-0.229zM19.752 24.106c-0.004 0-0.037 0.024-0.047 0.029-0.055-0.018-0.135 0.023-0.273 0.146-0.16 0.142-0.19 0.223-0.19 0.516 0 0.192-0.026 0.366-0.057 0.385s-0.043-0.134-0.026-0.344c0.001-0.007-0.001-0.006 0-0.013 0.007-0.082-0.003-0.106-0.016-0.169-0.005-0.075 0.002-0.201-0.016-0.201-0.087 0.001-0.234 0.348-0.234 0.549 0 0.269-0.264 0.731-0.518 0.906-0.128 0.088-0.602 0.265-1.055 0.393-1.067 0.303-1.069 0.303-1.112 0.518-0.020 0.101-0.081 0.246-0.135 0.32-0.098 0.134-0.1 0.134-0.198 0-0.054-0.075-0.115-0.22-0.135-0.32-0.043-0.214-0.046-0.215-1.089-0.51-0.431-0.122-0.689-0.205-0.872-0.284-0.013-0.006-0.024-0.009-0.036-0.016-0.17-0.077-0.269-0.152-0.354-0.255-0.001-0.001-0.002-0.002-0.003-0.003-0.067-0.078-0.134-0.152-0.193-0.25-0.032-0.051-0.072-0.146-0.096-0.247-0.14-0.582-0.191-0.732-0.255-0.732-0 0-0.002 0-0.003 0-0.040-0.001-0.17-0.094-0.292-0.208-0.162-0.153-0.251-0.208-0.31-0.18-0.009-0.004-0.037-0.028-0.042-0.029-0.002-0-0.001 0.047-0.003 0.049-0.039 0.082-0.039 0.306-0.029 0.654 0.001 0.024-0.003 0.020-0.003 0.044 0.001 0.022 0.002 0.026 0.003 0.047 0.001 0.034 0.001 0.047 0.003 0.083 0.003 0.082 0.014 0.080 0.018 0.156 0.011 0.166 0.025 0.347 0.049 0.456 0.014 0.086 0.023 0.307 0.036 0.315 0.039 0.025 0.091 0.108 0.115 0.185 0.059 0.191 0.331 0.417 0.693 0.648 0.012 0.008 0.024 0.016 0.036 0.023 0.003 0.002 0.007 0.003 0.010 0.005 0.113 0.068 0.252 0.141 0.406 0.216 0.15 0.077 0.253 0.157 0.427 0.232 0.227 0.097 0.367 0.127 0.547 0.188 0.041 0.014 0.104 0.039 0.141 0.049 0.407 0.124 0.717 0.174 0.797 0.070 0-0.001 0.002 0.001 0.003 0h0.076l-0.083-0.083c-0.061-0.145-0.417-0.37-0.958-0.586-0.806-0.322-1.331-0.64-1.49-0.904-0.146-0.242-0.286-0.848-0.271-1.174l0.010-0.224 0.029 0.211c0.102 0.738 0.395 1.257 0.852 1.503 0.078 0.042 0.631 0.201 1.125 0.352 0.324 0.101 0.571 0.198 0.682 0.299 0.013 0.043 0.024 0.066 0.039 0.146 0.030 0.163 0.099 0.285 0.182 0.372 0.001 0.001 0.002 0.004 0.003 0.005s0.002-0 0.003 0c0.277 0.284 0.749 0.162 0.849-0.375 0.019-0.101 0.038-0.162 0.083-0.206 0.004-0.003 0.004-0.005 0.008-0.008 0.002-0.001 0.008-0.004 0.010-0.005 0.066-0.043 0.244-0.090 0.354-0.133 0.648-0.178 1.111-0.339 1.424-0.513 0.004-0.002 0.025-0.008 0.029-0.010 0.012-0.007 0.024-0.028 0.036-0.036 0.278-0.169 0.454-0.35 0.555-0.586l0.104-0.245 0.003 0.208c0.001 0.106-0.028 0.204-0.076 0.302-0.011 0.022-0.024 0.044-0.036 0.065-0.189 0.311-0.64 0.599-1.451 0.927-0.602 0.243-0.957 0.462-1.021 0.612l-0.086 0.086h0.068c0 0.001-0 0.002 0 0.003l-0.003 0.005h0.013c0.076 0.098 0.399 0.038 0.779-0.073 0.484-0.141 1.042-0.377 1.492-0.651 0.072-0.042 0.134-0.096 0.193-0.138 0.11-0.078 0.255-0.158 0.323-0.232 0.162-0.176 0.294-0.365 0.294-0.417s0.037-0.105 0.081-0.12c0.052-0.017 0.090-0.337 0.112-0.914 0.001-0.039-0.004-0.031-0.003-0.068 0.018-0.36 0.015-0.637-0.018-0.727-0.003-0.008-0.002-0.043-0.005-0.049-0.002-0.003 0-0.044-0.003-0.044zM13.174 24.665c-0.007 0 0.007 0.041 0.005 0.052-0.022 0.035-0.025 0.088-0.008 0.174 0.056 0.286 0.146 0.447 0.393 0.594 0.030 0.020 0.092 0.044 0.13 0.063 0.208 0.1 0.476 0.201 0.927 0.339 0.421 0.128 0.653 0.207 0.797 0.279 0.029 0.018 0.067 0.036 0.089 0.055 0.003 0.003 0.010 0.005 0.013 0.008 0.001 0.001 0.001 0.004 0.003 0.005 0.035 0.032 0.060 0.072 0.086 0.112 0.005 0.021 0.018 0.038 0.018 0.063 0 0.066 0.021 0.141 0.047 0.167 0.018 0.018 0.124 0.026 0.216 0.034 0.023 0.008 0.044 0.019 0.068 0.018 0.008 0 0.015-0.005 0.023-0.005 0.003-0 0.007-0.002 0.010-0.003 0.218-0.001 0.255-0.024 0.294-0.203 0.011-0.050 0.025-0.087 0.047-0.122 0.007-0.009 0.012-0.020 0.021-0.029 0.030-0.036 0.072-0.067 0.151-0.104 0.173-0.081 0.496-0.184 1.128-0.378 0.435-0.133 0.786-0.283 0.883-0.38 0.135-0.136 0.26-0.485 0.255-0.638 0.003-0.021 0.024-0.082 0.021-0.086-0-0-0.010 0.003-0.010 0.003-0.001-0.001 0.004-0.009 0.003-0.010-0.043-0.043-1.416 0.311-1.747 0.451-0.123 0.052-0.325 0.236-0.448 0.411-0.108 0.154-0.166 0.235-0.242 0.276-0.012 0.005-0.032 0.003-0.044 0.008-0.073 0.028-0.153 0.036-0.318 0.036-0.189 0-0.343-0.032-0.453-0.086-0.063-0.040-0.114-0.098-0.159-0.167-0.009-0.023-0.023-0.044-0.023-0.070 0-0.095-0.121-0.206-0.336-0.32-0.002-0.001-0.004-0.004-0.005-0.005-0.006-0.003-0.061-0.019-0.070-0.023-0.070-0.035-0.185-0.067-0.271-0.102-0.025-0.009-0.054-0.034-0.078-0.039-0.011-0.002-0.069-0.019-0.086-0.023-0.129-0.046-0.215-0.095-0.37-0.138-0.539-0.151-0.781-0.211-0.891-0.195-0.009-0.001-0.062-0.018-0.068-0.018zM26.348 26.595c-0.061 0.014-0.129 0.067-0.227 0.167-0.632 0.643-2.25 1.72-3.471 2.362-0.407 0.214-0.769 0.378-1.036 0.464-0.082 0.026-0.136 0.097-0.143 0.174-0 0.001-0.005 0.002-0.005 0.003 0 0.002 0.002 0.003 0.003 0.005s-0.003 0.005-0.003 0.008c0 0.001 0 0.001 0 0.003 0 0.005 0.004 0.006 0.005 0.010s0.005 0.006 0.005 0.010c-0 0.002-0.010 0.009-0.010 0.010 0 0.043 0.025 0.059 0.073 0.060 0.101 0.024 0.347-0.064 0.964-0.328 1.377-0.589 2.582-1.327 3.917-2.398 0.3-0.241 0.314-0.305 0.115-0.477-0.071-0.061-0.124-0.087-0.185-0.073zM5.505 26.606c-0.030 0.009-0.056 0.032-0.091 0.063-0.199 0.171-0.182 0.236 0.117 0.477 1.423 1.142 2.752 1.938 4.258 2.547 0.339 0.137 0.506 0.194 0.596 0.195 0.004 0.001 0.045 0.018 0.047 0.018 0.006 0 0.005-0.026 0.010-0.031 0.017-0.011 0.027-0.032 0.031-0.057 0.005-0.004 0.005-0.010 0.005-0.016 0.001-0.009 0.005-0.013 0.005-0.023 0-0.002-0.003-0.004-0.003-0.005 0-0.004 0.003-0.004 0.003-0.008 0-0.077-0.041-0.138-0.089-0.138-0.022 0-0.201-0.092-0.279-0.122-0.014-0.006-0.019-0.009-0.034-0.016-0.478-0.196-1.528-0.747-2.164-1.135-0.541-0.33-1.013-0.682-1.792-1.333-0.417-0.348-0.532-0.441-0.622-0.414zM20.554 30.061c-0.024-0.008-0.050-0.005-0.083 0.003-0.083 0.018-0.461 0.115-0.839 0.216-2.057 0.55-5.258 0.55-7.315 0-1.055-0.282-0.974-0.281-1.060-0.016-0.042 0.129-0.088 0.298-0.102 0.375s-0.063 0.228-0.107 0.336-0.081 0.212-0.081 0.229c0 0.113 1.277 0.432 2.503 0.625 0.16 0.025 0.339 0.038 0.508 0.057 0.121 0.019 0.295 0.058 0.396 0.070 0.020 0.002 0.223 0.001 0.271 0.003 0.001 0 0.004-0 0.005 0 0.056 0.004 0.115 0.002 0.172 0.005 0.002 0.001 0.031 0.005 0.031 0.005 0.003 0.003 0.086-0.003 0.094 0 0.859 0.046 1.75 0.028 2.602-0.049 0.075-0.005 0.157-0.012 0.227-0.018 0.009-0.001 0.035-0.001 0.044-0.003 0.019-0.003 0.045-0.010 0.065-0.013 0.030-0.003 0.059-0.007 0.089-0.010 0.143-0.017 0.294-0.026 0.432-0.047 0.050-0.007 0.069-0.016 0.117-0.023 0.028-0.005 0.060-0.005 0.089-0.010 0.105-0.019 0.207-0.046 0.315-0.068 0.969-0.167 1.705-0.338 1.922-0.479 0.001-0.001 0.001-0.002 0.003-0.003 0.058-0.039 0.119-0.076 0.107-0.109-0.020-0.052-0.105-0.324-0.188-0.602-0.1-0.338-0.144-0.451-0.216-0.474z"></path>
</svg>
