<svg height="610.62433" viewBox="0 0 613.81317 610.62433" width="613.81317" xmlns="http://www.w3.org/2000/svg"><path d="m307.69922 0c-.3557-.00026617-.71414.00703816-1.07031.0078125-1.2743.00103804-2.54914.01586361-3.82618.02929687-.45296.0056858-.90428.0063223-1.35742.01367188-17.50124.2440622-34.96485 1.63699455-47.6914 4.10937495l-16 3.109375.42382 3.9863278c.23311 2.192364.98246 4.555287 1.66602 5.251953s1.24414 2.647318 1.24414 4.333985c0 3.485907.6773 3.590193 10.98047 1.685547 12.43571-2.298866 16.5892-2.611849 45.68555-3.441406 26.926-.76768 37.53789-.09095 69 4.40039.13564.01936.23098.03076.35937.04883.20542.03647.38911.05326.57031.07617 3.89802.522413 4.07032.179294 4.07032-3.558594 0-.767919.0754-1.479202.20117-2.097656.10766-.366036.20272-.678664.32226-1.089844.24493-.588768.55463-.957031.89454-.957031.79214 0 1.23343-1.874103 1-4.246094-.0412-.418261-.0888-.792855-.14454-1.15039.22738-.8984669.39258-1.5963331.39258-1.746094 0-.3579396-.78203-.7835246-2.20703-1.2617188-2.62484-1.6604808-9.08394-2.6475523-25.75391-5.0859374-6.28102-.9187508-13.50628-1.56208846-21.17968-1.95507818-.0369-.001891-.0724-.005933-.10938-.007813-.0116-.00061461-.0236-.00134-.0351-.001953-.97555-.04950368-1.96582-.08772322-2.95513-.12890587-1.21528-.05262769-2.43033-.10530169-3.66407-.14453125-.69745-.02488223-1.42282-.03892765-2.15039-.0546875-1.34373-.03407929-2.68823-.06546506-4.04687-.08398438-.27914-.00388795-.56024-.00453592-.83984-.0078125-1.25803-.01417047-2.51299-.03225551-3.7793-.03320312zm-105.51367 10.748047c-.77072.01306-1.55588.0727-2.35352.179687-17.14436 2.29954-21.94247 22.799268-7.46875 31.908204 6.52075 4.103775 16.8609 2.756222 22.76758-2.96875 3.92948-3.808608 4.55798-5.158383 4.61133-10.716797.0753-.895448.071-1.802988-.0195-2.71875-.15442-4.361667-.95572-6.319805-3.42383-9.089844-3.98907-4.477044-8.71827-6.685182-14.11328-6.59375zm195.42968 3.300781c-.37367-.000985-.68734.04951-.96289.140625-2.64165.337015-3.31929 2.473981-3.91601 6.738281-.38329 2.739132-.91203 5.826344-1.17383 6.861328-.29924 1.183007 1.50456 2.608971 4.85742 3.837891 20.79585 7.622288 28.23548 10.655077 40 16.310547 19.62404 9.433723 42.10333 24.110263 60 39.173828.77967.656247 1.59066 1.237824 2.375 1.761719.10854.127883.22845.263712.28516.355469.63137 1.021584 1.44361 1.426761 2.54101 1.185546.2004.06416.38001.109439.51758.113282.0467.0013.12371-.02892.18164-.03906.0511.02409.13974.07991.16211.08008.0944.0008.32518-.143024.64649-.386718 1.45486-.744168 3.95693-2.649006 6.34375-4.898438l5.61523-5.292969-4.66797-4.167968c-24.83358-22.186647-66.44842-46.510831-99.01562-57.875-5.17309-1.805127-8.81306-2.994861-11.43164-3.513672-.97036-.249386-1.74481-.383152-2.35743-.384766zm-252.62695 8.228516c-4.07192-.01311-7.95638.531375-10.77539 1.667968-6.39845 2.579786-32.03311 19.818901-40.585937 27.294922-.83896.733333-4.753408 4.030599-8.699219 7.326172-7.465777 6.235472-27.388535 25.91707-33.173828 32.771485-7.378092 8.741559-18.41374 22.944569-22.714844 29.236329-3.630551 5.31087-4.535401 7.85693-4.990234 14.51562-.109222.66359-.185183 1.37248-.224609 2.11914-.08193 1.13232-.101017 2.26733-.05469 3.4004.0048 1.01692.03789 1.93358.08594 2.79687.05294 2.66743.204829 5.05214.457031 6.39648 1.276704 6.80543 11.390896 17.36742 19.833984 20.71289 9.376769 3.71542 19.676059 2.97318 28.978516-2.08984 5.344756-2.90899 9.312479-6.9115 17.65625-17.80273 19.33414-25.23709 41.46125-45.57874 75.4707-69.382816 8.09112-5.663169 12.48413-13.682606 13.25196-24.191406.53836-7.368193-1.32939-15.876749-4.27149-19.455078-4.79377-5.83045-10.20587-10.230555-15.47851-12.583984-3.98531-1.778832-9.5303-2.71556-14.76563-2.732422zm.71484 17.71875c2.92662.03925 5.95585 1.009583 8.85352 2.957031 7.05824 4.743677 8.35061 15.439659 3.38281 21.681641-.78743.891068-1.63333 1.676492-2.51953 2.367187-7.42857 5.308885-17.75767 3.642795-22.2832-3.679687-3.40506-5.509521-3.44564-10.946951-.1211-15.990235 3.21786-4.881425 7.80981-7.401349 12.6875-7.335937zm159.74415 29.572265c-6.19596.02889-12.39671.320371-18.5918.855469-8.25898.501148-15.99028 1.318009-22.43555 2.47461-26.86006 4.820018-61.00181 18.241363-84.26562 33.123042-24.23061 15.50013-50.17066 41.2355-66.81446 66.28711-2.33869 3.52009-4.25195 6.91922-4.25195 7.55469 0 .11599-.0348.2353-.0664.35352-.16771.28141-.33579.56332-.50195.8457-.16963.16957-.35555.31779-.56641.40039-.62402.24444-3.84766 6.14467-7.1621 13.11133-8.251574 17.34412-9.979725 21.52731-11.013676 26.78906-.257106.90461-.464805 1.77285-.578125 2.50781-.490752 1.75523-1.101481 3.15694-1.558594 3.43946-.628942.38871-1.537129 3.68183-2.019531 7.31836-.482403 3.63652-1.342077 6.61132-1.910156 6.61132-.568082 0-1.320437 2.85066-1.671876 6.33399-.351437 3.48334-1.295812 8.73268-2.097656 11.66601-.792419 2.89886-1.236201 13.58787-1.371094 25.49805-.110432 2.57443-.181753 5.01763-.18164 7.16992.000107 2.04771.06716 4.36887.173828 6.82032.12324 12.03212.562369 22.88942 1.359375 25.8457.79082 2.93334 1.738672 7.73268 2.105469 10.66601.366796 2.93333 1.20506 5.9049 1.863281 6.60157s1.197266 2.64437 1.197266 4.32812c0 3.19073 4.197588 16.68241 7.449218 23.93946 1.03539 2.31082 1.882813 4.74918 1.882813 5.41796 0 1.19768 9.706718 20.66307 13.425778 26.92383 4.05605 6.82807 14.68027 22.03216 19.51172 27.92188 9.89464 12.06196 30.02164 30.94313 42.78125 40.13281 7.12129 5.12888 13.37114 9.34208 13.88672 9.36328 1.14798.0474 4.51757-7.30698 5.62305-12.27148.73954-3.32112-.10244-4.31793-9.54102-11.28907-13.92382-10.28381-32.30953-28.13982-41.86133-40.65625-4.30415-5.64004-7.82617-10.61377-7.82617-11.05468 0-.4409-.74934-1.69848-1.66601-2.79297-.89042-1.06315-2.17202-2.60037-2.92188-3.50586-1.25943-2.00399-2.4702-3.9812-3.64453-5.94922-6.87497-12.88552-18.43359-40.47803-18.43359-45.14453 0-1.52007-.61633-3.37999-1.36914-4.13281-.75282-.75282-1.74388-4.62243-2.20313-8.59961-.43288-3.74876-1.375527-7.20103-2.156249-8.02735-.325852-1.61487-.548692-2.71436-.892579-4.42578-.843027-9.89092-.993693-34.90429-.460937-50.89062.302491-5.17056.679291-9.8894 1.121094-13.76563.03663-.0902.07331-.20203.111328-.25.81588-1.02938 1.831544-4.97552 2.257813-8.76953.42627-3.794 1.32493-7.99465 1.99609-9.33398.67117-1.33932 2.23397-5.73621 3.47266-9.76954 3.73485-12.16115 11.79545-30.09647 18.16992-41.30273 1.12848-1.8781 2.28371-3.76209 3.4961-5.66211.10818-.16954.21944-.33668.32812-.50586.7536-1.08245 1.46341-2.02552 2.08203-2.69922.75922-.82681 2.28086-2.83203 3.38086-4.45703 17.64323-26.06366 45.51395-50.04316 75.94531-65.34375 23.86276-11.997953 51.26253-20.019039 77.17578-22.86328 1.98092-.13671 3.9959-.25007 6.04297-.34375 4.02287-.03563 8.51668-.05469 14.16797-.05469 5.05508 0 9.15577.01578 12.88867.04297 3.16431.140782 6.27299.328678 9.29102.570313 32.18735 3.869361 66.32456 15.687326 93.47461 32.816406 13.12475 8.28048 32.09945 24.39053 41.20898 34.99023 4.79612 5.58068 10.16281 11.74256 11.92774 13.69336 1.76494 1.9508 3.20898 3.92715 3.20898 4.39063 0 .78818 1.23861 2.45692 4.82422 6.5039.81992.92543 1.91099 3.0053 2.42383 4.6211.51282 1.6158 1.49186 2.9375 2.17578 2.9375.20251 0 .39114.0818.56055.21484.19646.3248.39522.64849.58984.97461.0592.22154.0937.46165.0937.71485 0 1.04763.74935 2.69892 1.66602 3.66796 2.09199 2.21153 7.66601 13.53594 7.66601 15.57422 0 .83635.45391 1.51953 1.00781 1.51953.36723 0 .68817.23882 1.18555 1.25196.15228.35062.30826.69854.45899 1.05078.93481 2.27717 2.42165 6.73718 5.33593 15.69726 1.66962 5.13333 3.48792 10.53333 4.04102 12 6.13173 16.25996 7.92016 62.06321 3.43555 88-1.39479 8.06667-3.04414 15.23694-3.66602 15.9336-.62189.69667-1.13086 2.57348-1.13086 4.16992 0 7.61892-21.2034 53.1831-25.59766 55.00781-.58868.24445-1.07031 1.05842-1.07031 1.8086 0 2.37198-16.65623 22.7219-26.17969 31.98437-11.33241 11.02184-18.13056 16.64077-27.08789 22.38867-6.7135 4.30803-6.92049 4.62116-6.06054 9.20508 1.00028 5.33192 4.21634 12.16992 5.72265 12.16992 2.48873 0 30.56457-22.48682 40.52539-32.45703 14.30854-14.32201 16.96089-17.51724 27.83008-33.54297 13.44941-19.83007 20.94983-35.84216 30.50781-65.12695.92036-2.81988 2.18037-8.21988 2.79883-12 .61848-3.78011 1.73305-9.57305 2.47656-12.87305.72995-3.23994 1.13733-13.58093 1.25977-25.04297.12468-2.6688.19495-5.23323.19531-7.625.00036-2.26582-.0761-4.73797-.20312-7.32226-.13608-11.04538-.54395-20.8648-1.25196-24.00977-.7429-3.3-1.88756-9.30064-2.54492-13.33398-1.22668-7.52645-6.71074-25.38856-10.08984-32.86719-1.04412-2.31083-1.89844-4.84494-1.89844-5.63086 0-1.73144-12.08531-25.58332-13.98437-27.59961-.74147-.78726-2.53429-3.6379-3.98438-6.33398-1.45011-2.69609-3.10141-4.90235-3.66797-4.90235-.0126 0-.0246-.005-.0371-.006-.3045-.43643-.61865-.87112-.92773-1.30665-.0329-.18425-.0644-.37239-.0644-.57617 0-1.03888-.45-2.08757-1-2.33203-.55-.24444-2.8-3.0991-5-6.34375-5.47549-8.075299-28.54073-31.265399-40.47073-40.689299-27.20806-21.492585-65.9938-38.830586-100.86328-45.087892-6.37682-1.144317-14.01222-1.954319-22.17187-2.457032-6.92007-.602264-13.85692-.905419-20.80078-.873047zm-209.839848 8.03711c5.069708.01382 12.103698 3.684672 14.238278 7.8125 3.68741 7.13066 1.50595 16.576431-4.66992 20.224611-3.70813 2.19045-10.796964 2.83159-14.609374 1.32031-3.092085-1.22574-6.8125-4.87746-6.8125-6.68555 0-.937019-.600651-1.703121-1.333984-1.703121-.04379 0-.08617-.009-.128906-.02539-.728232-1.760308-1.134006-3.620716-1.195313-5.480469.04404-3.916288 1.031603-6.072814 4.396485-9.640625 2.174792-2.305948 5.318534-4.556832 7.404296-5.363281.618887-.177447 1.24067-.31764 1.865235-.416015.276174-.0238.55535-.04376.845703-.04297zm433.533198 17.634765-1.20898 1.207032c-1.92958.404735-3.8366 2.357327-6.81445 5.429684l-4.47266 4.61524 5.91016 6.375c3.25056 3.50617 6.80085 7.44513 7.88867 8.7539 1.08782 1.30879 2.59535 3.10879 3.35156 4 3.42959 4.04184 13.95899 18.14634 13.95899 18.69922 0 .3388 2.34712 4.13531 5.21484 8.43555 6.12804 9.18922 18.78516 33.47234 18.78516 36.03906 0 .97896.60065 1.7793 1.33398 1.7793.15073 0 .29465.0531.43164.13476.32023.71331.65335 1.45006.9375 2.10352.001.0325.007.0629.008.0957.0249 1.28333 1.20615 4.73269 2.62305 7.66602 1.41691 2.93334 2.59619 6.09096 2.62109 7.01758.0249.92661.78704 2.87299 1.69336 4.32422.26793.42902.604.80419.96875 1.12304.56294.92369 1.3185 1.33356 2.08594 1.03906.0227-.009.10773-.0336.13281-.043.16681.00083.3283-.0156.47852-.0586 1.11034-.31753 4.50374-1.21809 7.54102-2.00195l5.52148-1.42578-1.54492-5.23242c-.8497-2.87777-1.98393-5.67143-2.52149-6.20899s-.97656-1.83644-.97656-2.88672c0-1.99826-1.74073-6.29206-7.45312-18.07031-.0457-.16063-.15152-.46078-.17774-.57617-.33315-1.46647-.99214-2.68995-1.54883-2.94531-.76777-1.56835-1.48482-3.04535-2.38086-4.85938-.40318-1.41371-.96003-2.56538-1.47265-2.99414-7.82356-15.77777-10.12519-20.03581-12.68555-23.46094-.5781-.77336-4.13923-6.20755-7.91406-12.07422s-7.2015-10.96537-7.61524-11.33203c-.41374-.36667-3.75326-4.24073-7.41992-8.60937-6.98708-8.32476-10.7321-12.779108-13.56836-14.312502l-1.65234-1.728516-.0215.02148zm-212.90624 8.667966c-4.39057 0-4.48047.1143-4.48047 5.73242 0 3.15333.50103 6.30334 1.11328 7 .61212.69667 2.16151 4.11628 3.44336 7.59961 2.21997 6.03199 2.21877 6.63598-.01 12.66797-1.28692 3.48333-2.9323 7.10928-3.65625 8.0586-2.33612 3.06337-1.64545 16.53705 1.10742 21.60742 3.64822 6.71952 3.49419 18.89347-.34179 26.92773-1.64394 3.44309-2.99024 6.59309-2.99024 7 0 .40689.9.73828 2 .73828s2-.69161 2-1.53906c0-.84744 1.41206-3.39874 3.13672-5.66797 6.8674-9.03587 7.94804-12.6218 6.85156-22.72265-1.68686-15.53953-1.43096-17.61286 2.91992-23.72461 7.00172-9.83535 8.77681-14.85399 7.89063-22.30274-.43903-3.69025-1.15071-9.63508-1.58203-13.21093l-.78516-6.5-6.06836-.83204c-3.3377-.45748-8.08451-.83203-10.54882-.83203zm-25.68555.53711c-4.64597-.11661-19.21664 2.01743-20.38672 3.1875-1.05079 1.05078 6.14865 16.3049 8.33203 17.6543 2.58549 1.59792 3.63483 8.89022 2.31641 16.09766-1.53563 8.3948-.72248 20.1908 1.4414 20.91211.82635.27543 1.50196 1.0328 1.50196 1.68359 0 .65077 1.83381 3.78553 4.07617 6.9668 4.19553 5.95224 4.84729 9.43559 3.63672 21.86328-.11532.80571-.23087 1.61472-.32032 2.42968-.45548 4.14977-.6487 6.08664-.4375 6.39063.0706 2.41648 1.3996-.52031 5.5586-9.92383 1.1384-2.57394 1.79756-5.99938 2-9.61719.3558-2.65223.26555-5.11021-.24805-7.59961-.39152-3.23299-1.14297-6.25785-2.26562-8.58203-1.41691-2.93334-2.57618-7.73464-2.57618-10.66797s1.15927-7.73267 2.57618-10.66601c1.47534-3.05433 2.35375-7.09228 2.53711-11.56836.11727-1.59534.0943-3.16968-.0762-4.75195-.2826-3.98508-1.12173-7.57323-2.46093-10.34571-1.41691-2.93334-2.5962-6.94849-2.6211-8.92187-.0249-1.97339-.59663-3.92788-1.26953-4.34375-.19069-.11786-.65074-.18061-1.31445-.19727zm64.55664 5.35157c-1.36699.0309-1.93552.59672-2.79102 1.7246-2.11952 2.79435-2.48927 10.52672-.56054 11.71875 2.26303 1.39863 1.56841 15.05828-.96875 19.04688-1.2664 1.99086-2.6307 3.92045-3.03125 4.28711-.40055.36667-1.91356 2.46601-3.36329 4.66601-2.30757 3.50141-2.59723 5.96366-2.3125 19.75196l.32227 15.57422c-.018.0863-.0334.1783-.0527.26171l-5.30078 7.80469c-2.94634 4.33866-5.70706 8.80143-6.13477 9.91602-1.40109 3.65121.8201 2.14773 8.87305-6.00586 10.36416-10.49371 11.96586-13.82542 11.97656-24.90235.01-10.04655 1.01897-12.17684 10.27734-21.71484 7.76549-8.00003 9.71485-12.73929 9.71485-23.61914 0-.11535.003-.22167.004-.33594.13982-1.25118.24988-2.47821.30274-3.63672l.14453-3.14257c.28918-1.90393.70438-3.23759 1.20508-3.73829 2.2344-2.23441.14794-3.43541-10.72266-6.16601-4.04852-1.01696-6.21504-1.52115-7.58203-1.49023zm-105.73242 2.11132c-4.29904 0-18.27046 6.11203-18.66602 8.16602-.2128 1.10497 3.28263 5.8084 7.76953 10.45117 9.53241 9.86357 10.61133 12.18362 10.61133 22.85547 0 9.80189 2.79653 15.5504 11.75195 24.14648 6.85287 6.57788 8.20133 10.16949 8.23243 21.9375.008 3.05669.41297 6.59701.90039 7.86719 1.33561 3.48055 4.31777-9.15487 4.38867-18.5957.0533-7.0978-.47606-8.60927-5.60742-16l-5.66602-8.16211v-17.04492c0-.30696-.005-.59011-.006-.89258.58079-4.46311.5147-8.04867-.36328-11.42969-.23777-3.28749-.57407-5.39806-.96484-5.67773-2.52805-1.80933-10-13.39529-10-15.50586 0-1.16345-1.07094-2.11524-2.38086-2.11524zm143.19531 12c-.12737 0-.27292.19811-.42969.5293-2.46001 1.18597-3.29816 5.58507-3.96289 14.20508l-.85351 11.05664-8.36329 9.11523c-9.32877 10.16539-9.00162 9.43577-11.29296 25.09375-1.64734 11.25721-1.70968 11.38543-9.45118 19.28907-4.2866 4.3764-7.79492 8.4264-7.79492 9s.29809 1.04296.66211 1.04296c1.26526 0 20.01566-13.79133 21.60156-15.88867 1.59775-2.11299 4.65314-10.78965 6.30079-17.89062 1.1141-4.80147 3.59228-7.32957 13.03124-13.29492 9.06874-5.73134 11.31202-8.88247 14.7129-20.66016 1.41855-4.91262 2.87994-9.9076 3.24804-11.10156.0568-.18439.0781-.37318.0664-.56641.40175-.41719.56981-.82041.33984-1.0332-.10499-.0972-.45422-.30876-.95703-.59375-.15806-.20754-.35729-.40049-.63086-.58594-.15673-.10625-.40333-.24977-.5918-.36914-1.08495-.90449-2.65208-1.93831-4.83203-3.18555-4.20833-2.40776-7.17411-3.81724-9.30859-3.95312-.36924-.13025-.64986-.20899-.78906-.20899-.16179 0-.31466.0365-.46485.0899-.0541-.016-.21671-.0899-.24023-.0899zm-335.773438 1.33203c4.92428 0 6.637781.74716 10.425781 4.53516 3.716402 3.7164 4.533203 5.54195 4.533203 10.13281 0 4.59085-.816801 6.41642-4.533203 10.13282-3.611804 3.6118-5.576178 4.52448-9.666015 4.49218-9.82072-.0776-15.800782-5.69422-15.800782-14.84375 0-2.31519.109693-3.88729.533203-5.20312.287571-.66546.613673-1.32075.988282-1.95313.683563-.97941 1.64959-1.95626 3.052734-3.20898 3.639856-3.24967 5.776634-4.08399 10.466797-4.08399zm154.451168 2.33399-.66992.36719c-.0544-.0175-.10782-.0332-.14648-.0332-.004 0-.01.002-.0137.002l-.0488-.0488-.11719.0742c-2.81713.27108-13.57304 7.3109-15.50195 9.96093-.0106.008-.12247.0802-.12891.0859-.0653.0583-.0947.14053-.0937.24219-.0634.12598-.10547.24084-.10547.33398 0 2.45024 2.67839 4.89373 12.57227 11.46289 7.22556 4.79751 11.42773 10.85474 11.42773 16.47461 0 3.79344 4.40534 12.25956 8.2461 15.84766 1.69787 1.58618 6.38854 5.1456 10.42187 7.91016 6.55902 4.49576 7.59122 5.87046 9.78906 13.00781 1.35152 4.38896 3.07597 9.62981 3.83008 11.64648 2.02848 5.42458 5.13963 4.8658 3.7207-.66797-.61112-2.38333-1.51762-7.93203-2.01367-12.33203-1.03532-9.18351-4.27393-15.22061-10.86523-20.24804-6.30644-4.81016-7.96659-8.64401-9.09961-21.00977-.53371-5.82486-1.93139-12.12486-3.10547-14-1.79989-2.87465-9.59305-10.90269-14.63672-15.45703zm216.90821 17.66601c-.0224 0-.0539.0211-.0781.0254-2.66839.26716-6.72669 7.64952-8.34765 15.2754-1.78247 8.38568-2.84617 9.7488-12.29493 15.77148-10.32085 6.57856-13.16778 10.18575-16.32812 20.68945-3.28408 10.91492-5.31726 13.89294-12.17383 17.83789-6.43072 3.69993-12.51172 8.43253-12.51172 9.73633 0 .52292.75131.62147 1.66797.22071.91667-.40078 6.16539-2.59924 11.66406-4.88672 12.21937-5.08339 15.03936-7.63361 20.43555-18.47461 4.39301-8.82561 7.3287-11.14696 18.77344-14.85157 6.85766-2.2198 15.88793-11.41369 19.53125-19.88281 1.60732-3.73631 3.44877-6.79297 4.09179-6.79297.64303 0 1.16993-.8491 1.16993-1.88672 0-2.21645-12.83448-12.78125-15.52735-12.78125-.0151 0-.0317.007-.0469.008-.006-.00033-.0198-.008-.0254-.008zm-251.01368 4.91993-1.19531 1.11328c-1.47619.78719-3.54688 2.64826-7.09765 6.0039l-7.09375 6.70313 3.75781 2.96484c2.06654 1.6299 7.75415 4.48447 12.63867 6.34571 1.53015.58306 2.73262 1.06458 3.8125 1.52539 1.99799 1.03406 3.48892 1.90319 4.63086 2.74804 1.60308 1.52468 2.75297 3.66404 4.76758 7.62305 5.84639 11.48901 9.90597 15.36974 20.27734 19.39258 11.37031 4.4103 12.35808 5.2429 17.45117 14.70508 2.3551 4.37542 4.89174 8.70637 5.63672 9.62304 2.01273 2.47661 4.11794 2.0155 3.05274-.66797-.50943-1.28333-2.13042-6.23333-3.60157-11-3.07526-9.96419-6.72468-14.35122-17.2832-20.77539-7.82403-4.76043-10.51311-8.97088-12.50195-19.57226-1.14647-6.11118-8.39631-14.62568-16.41797-19.2832-3.42176-1.98674-7.01336-4.38085-7.98242-5.32227-.75386-.73238-1.36275-1.21916-2.01563-1.39453zm280.86915 21.64257-3.63868 3.48633c-2.00094 1.91704-4.75689 5.68965-6.12304 8.38477-5.20417 10.26672-6.89323 11.84796-16.125 15.08203-3.16829 1.10991-6.55996 2.90078-9.65625 4.93359-.75201.46108-1.45386.94937-2.125 1.46289-4.88983 3.55394-8.58789 7.5179-8.58789 9.90039 0 1.08142-.45 2.1657-1 2.41016-.55.24444-1.91867 2.24531-3.04102 4.44531-2.08997 4.09673-5.47136 6.2217-19.05664 11.98047-4.38771 1.85995-7.39551 3.88554-6.91797 4.65821.52929.85639 1.68483.9171 3.0957.1621 1.23883-.66293 5.25326-1.63008 8.91993-2.15039 4.56471-.64774 8.26322-1.62702 11.5957-3.20117.37407-.056.76656-.11529.85547-.11523.13674.00008.65784-.42545 1.36719-1.0586.27597-.1611.5518-.32291.82421-.49414 1.34982-.75374 2.57241-1.65424 3.79297-2.80273 1.97084-1.67081 3.93556-3.66385 6.02539-6.07617 7.41668-8.56119 7.57148-8.6364 24.86328-12.24024 7.42807-1.54811 8.72141-2.41166 18.32227-12.23437 7.3737-7.54412 9.95225-11.02398 9.01367-12.16406-.72315-.87838-3.80957-4.47027-6.85937-7.98243zm-430.333989 4.10547c-8.308385 0-18.6421516 10.20034-18.5449216 18.30664.071223 5.93822 6.5400506 14.04913 12.6660156 15.88086 2.909291.86991 6.191016 1.36209 7.291016 1.09375s3.597059-.86927 5.548828-1.33398c1.95177-.4647 5.10177-2.58636 7-4.7168 2.744724-3.08048 3.451172-5.25134 3.451172-10.59961 0-.0697-.0053-.13923-.0059-.20898.000507-.10101.0059-.18126.0059-.28516 0-2.15736-.148692-3.71997-.576172-5.12304-.38821-1.84436-.950828-3.43583-1.628907-4.47071-2.494593-3.80722-10.923895-8.54297-15.207031-8.54297zm121.218749 4c-.15165 0-.50535.30739-.96094.77735-.31808-.0256-.58397-.0271-.7207.0254-1.80891.69414-10.125 13.07238-10.125 15.07031 0 .0447.0137.0884.0176.13281-.002.0169-.0176.0519-.0176.0664 0 .0884.0311.18115.082.27734.64848 2.03131 5.49943 3.82652 15.41992 5.72461 12.3451 2.36201 12.26753 2.31729 19.03125 10.90625 6.58889 8.36697 12.76796 11.76387 24.93164 13.70703 9.31462 1.48802 11.72422 2.64915 15.17579 7.3125 1.08556 1.46666 4.00518 4.91602 6.48828 7.66602 2.48312 2.75 5.64406 5 7.02539 5 2.45488 0 2.45499-.0567-.0137-2.52539-1.38914-1.38913-4.1189-5.69877-6.06641-9.57617-4.65962-9.27712-8.04924-12.21412-18.97852-16.45118-11.39996-4.41954-12.80979-5.51337-16.56054-12.83789-4.41241-8.61661-9.11504-14.4959-13.3418-16.68164-4.34192-2.2453-12.48863-5.23821-17.88867-6.79297-.63205-.3137-1.06538-.55986-1.23828-.70898-.69667-.60082-1.71346-1.0918-2.25977-1.0918zm332.34375 26.0918c-2.76246-.0282-9.91609 5.69277-13.61133 11.05664-.63536.92227-1.24219 1.73255-1.84765 2.46875-1.25807 1.28111-2.33602 2.32981-3.28125 3.13477-2.78159 1.96819-6.28949 2.90461-12.3418 3.76172-11.90389 1.68579-17.52924 4.61204-23.4375 12.1914-6.60491 8.473-10.78566 10.75431-23.4082 12.77539-5.83134.93371-11.19982 2.29552-11.92969 3.02539-.88048.88048 3.82398 1.23557 13.98242 1.05664 16.67821-.29376 15.81461.0312 30.92188-11.57031 4.92925-3.78536 5.85056-3.99219 17.79882-3.99219 13.80237 0 17.90001-1.28936 25.66993-8.07617 2.56667-2.24192 6.33509-4.96764 8.375-6.05664 3.68802-1.96885 3.6976-2.00465 1.47851-6.25781-1.22743-2.35248-2.76557-5.17735-3.41601-6.27735-.65046-1.1-1.52377-3.00761-1.94141-4.24023-.41764-1.2326-1.55113-2.54441-2.51953-2.91602-.14281-.0548-.30802-.0821-.49219-.084zm-353.5 7.98438c-1.45044-.13415-2.6246 2.36203-8.39062 14.92187-.75699 1.6489-.99804 3.37502-.53711 3.83594 1.62493 1.62494 12.34472 2.96788 17.84961 2.23633 7.81812-1.03893 10.74865-.0133 19.60937 6.86718 9.26413 7.19374 16.09135 9.30754 26.55859 8.22266 8.97933-.93068 14.07811.75445 21.19141 7 2.60625 2.28832 6.43617 5.04139 8.50977 6.11719 5.42393 2.81396 5.56463 1.49866.39453-3.68946-2.47636-2.485-6.58119-6.79383-9.1211-9.57421-5.6336-6.16696-10.23214-8.19425-21.43945-9.45313-8.51991-.95701-8.70688-1.06661-18.0625-10.6543-9.86327-10.10791-12.35464-11.35881-26.54687-13.32422-3.66667-.50777-7.67563-1.44574-8.90821-2.08398-.42413-.21962-.7727-.39092-1.10742-.42187zm128.26563 8.58984-.0332.0312h-.88281l-11.02344 10.86133-10.95898 10.79687-.0176.0176-.0469.0469.0156 1.37696-.0176.0176.0488 4.28125v26.63867 32.36133l.66211.21289.004.30078 13.83203 4.52539c15.22826 4.98161 24.01098 9.55343 35.50976 18.48242 14.4675 11.23425 18.90046 20.51291 20.2461 42.38281.7066 11.48382 1.08905 13 3.27343 13 2.14357 0 2.47347-1.11011 2.48047-8.33398.0169-18.23864 3.9054-30.71476 12.36524-39.66602 10.86081-11.49169 24.52439-19.56131 43.79492-25.86523l13.83203-4.52539.004-.28125.66211-.21289.0195-32.22461.0176-29.62695.0137-1.15626-.0117-.0117v-.4375l.01-.88672-.01-.01v-.0957l-1.75781-1.66992-9.22852-9.27735-10.99414-11.05273h-1.1582-50.32422zm-244.054691 9.33398c-.476053 0-.964873.38818-1.480469 1.19922-7.0586414 8.09937-12.7861192 55.64701-9.53320312 85.47656 1.61431302 14.8034 5.49036792 32.89975 8.68554692 40.54688l1.9140622 4.58203 6.335938-1.9082c3.484542-1.04868 6.575534-2.1439 6.867187-2.43555.291654-.29166-1.058877-8.23986-3-17.66211-3.062002-14.863-3.526042-20.31944-3.507812-41.21289.01995-22.86779 1.776164-39.61724 5.513672-52.57812.73875-2.56183 1.34375-6.51698 1.34375-8.78907 0-3.64053-.613661-4.31284-5.15625-5.67383-2.83508-.84941-6.164719-1.54492-7.400391-1.54492-.111639 0-.222657.014-.333984.0352-.06493-.007-.206906-.0352-.248047-.0352zm589.693361 0c-1.23568 0-4.56531.69551-7.40039 1.54492-4.54259 1.361-5.1543 2.0333-5.1543 5.67383 0 2.27209.60304 6.22724 1.3418 8.78907 3.73751 12.96088 5.49367 29.71033 5.51367 52.57812.0182 20.89345-.44581 26.34989-3.50781 41.21289-1.94112 9.42225-3.27466 17.3855-2.96485 17.69531.30983.30982 3.19872 1.3554 6.42188 2.32422 3.22318.96882 6.29411 1.53023 6.82422 1.24805 1.4481-.77088 5.98264-16.22636 8.625-29.40234 3.60617-17.98201 3.1943-60.26199-.76758-78.86524-2.82833-13.28063-4.89256-19.79739-7.11719-21.94922-.42471-.5639-.83157-.84961-1.23047-.84961-.0456 0-.20072.0309-.27539.0391-.10254-.0146-.20457-.0391-.30859-.0391zm-296.15235 8.20899c1.45.006 2.99057.13079 4.27149.37109 1.70579.32001 2.78354.52996 3.46875 1.01953 1.09043 1.04032 1.18774 2.7796 1.18945 7.11328-.00013.341-.006.61066-.008.91993-.003.44797-.003.91429-.0117 1.30468-.009.44293-.0298.80941-.0508 1.17969-.009.16661-.0122.36316-.0234.51758-.24423 3.03528-1.10761 3.5233-4.10547 4.56836-1.71039.59625-3.21408 1.08093-3.91406 1.27148-.25333-.001-.51752-.0239-.7793-.0508-.33747-.1501-1.61441-.64009-3.43945-1.30664-3.38172-1.23511-3.66797-1.89958-3.66797-8.53711 0-4.08558.11466-5.89996.9336-6.87305.59804-.34504 1.32921-.67984 2.2871-1.08007.10609-.0443.19931-.0753.30274-.11719.91259-.20373 2.18262-.30676 3.54687-.30078zm-30.72656.0488c1.57084-.008 3.17307.10446 4.42774.33984.66196.12418 1.20367.2361 1.6875.35156.69633.25913 1.25562.5185 1.65234.85352.5933 1.22428.76045 3.24177.94727 7.06054l.17578 3.60157c-.22904 2.9273-.9524 3.50941-3.10938 4.05078-1.7652.44304-4.0152 1.06136-5 1.37305-.98478.3117-3.44036-.0371-5.45703-.77344-3.37477-1.23223-3.66797-1.90531-3.66797-8.45508 0-6.86302.14731-7.14822 4.10547-8.01758 1.12867-.24788 2.66745-.37652 4.23828-.38476zm63.31445 0c1.57084.008 3.10962.13687 4.23829.38476 1.68997.37118 2.68201.64263 3.26757 1.35547.00089.001.001.003.002.004.76486 1.07373.83251 2.84196.83398 6.54687.00002.0435 0 .0732 0 .11719-.0001.30684-.005.54573-.006.82617-.002.45624-.002.93448-.01 1.32813-.0898 4.56319-.67328 4.9389-4.31641 6.0332-2.77238.83273-5.89559.84429-8.66797.0312-2.73469-.80198-3.73314-1.23587-4.10547-3.32422-.17107-1.05401-.21818-2.49232-.22265-4.52344-.0003-.13596-.004-.23753-.004-.3789 0-.0235 0-.0391 0-.0625s0-.039 0-.0625c.00083-2.50156.0259-4.12985.27344-5.24219.27633-.71605.70088-1.34905 1.25-1.89649.67259-.34433 1.64074-.53455 3.03906-.79687 1.25467-.23539 2.8569-.34809 4.42773-.33984zm157.96485 3.27734c-3.28452-.0102-9.31046 3.30099-16.17383 9.03516l-4.79687 4.00781c-.77622.35814-1.58928.59656-2.55665.7539h-12.07617c-13.58134 0-13.79746.051-20.20703 4.68555-14.07703 10.17874-13.50921 9.97075-27.14453 9.99805-1.88876.004-3.73814.0531-5.4707.13281-3.13296-.0677-5.24356.10771-6.32031.51953-1.45088.19673-2.50182.42163-2.87696.66406-1.50394.97191-.84119 1.30515 2.66797 1.33985 2.56667.0254 7.66536.88011 11.33203 1.90039 11.12968 3.09693 16.52365 2.57956 26.74414-2.56836 10.32639-5.20124 13.02717-5.52045 22.46875-2.65625 10.11671 3.06901 16.20202 2.49794 27.39453-2.56836 5.53257-2.50432 11.01339-4.84789 12.17969-5.20898 1.53164-.47418 1.9525-1.80689 1.51367-4.79688-.33418-2.27691-1.13832-4.46816-1.78711-4.86914-.27032-.16707-.51729-.62489-.71679-1.24023-.012-.0851-.0274-.1711-.0391-.25586-.11182-.81586-.23839-1.54807-.37695-2.23047-.0159-.25444-.0469-.50074-.0469-.75977 0-2.06693-.85432-4.46744-1.89844-5.33398-.44247-.36722-1.05454-.54647-1.8125-.54883zm-220.20117 4.46487c-2.2751 0-3.3165.24224-3.76953 1.18164-.82424.46198-1.27102 1.10439-1.43946 1.99219-.26158 1.3788.33344 3.01985 1.32227 3.64649 4.15862 2.63544 9.13281.61398 9.13281-3.71094 0-2.43195-.35593-3.03665-2.9668-2.97266-.55963-.10298-1.29339-.13672-2.27929-.13672zm29.95312 0c-4.04383 0-4.70703.4394-4.70703 3.11133 0 1.71112.39977 3.51112.88867 4 .63678.63678 1.83792.90115 3.15625.87695.67441.0896 1.38363-.0136 2.05664-.26757 1.32538-.3188 2.54747-.89858 3.2168-1.70508 2.70836-3.26337.59772-6.01563-4.61133-6.01563zm30.04688 0c-4.84461 0-5.42188.34352-5.42188 3.22266 0 1.77222.75131 3.53797 1.66797 3.92383.27262.11478.68405.20541 1.14649.2832.71134.25774 1.43891.39665 2.14843.40234.34719.0599.68714.0262 1.04492-.0859.26705-.0416.52693-.0988.78125-.17188 2.25587-.20005 3.15277-1.00176 3.53321-3.25976.0537-.20991.0839-.42697.0996-.64844.005-.067.0185-.13131.0195-.19922.36017-3.25622-.002-3.4668-5.01953-3.4668zm-223.96289 4-1.38868 5c-.76371 2.75-1.39248 7.54936-1.39648 10.66602-.007 5.66294-.003 5.66674 4.99414 5.65234 2.75-.008 7.94504-.90794 11.54492-2 1.39245-.42241 2.64416-.76451 3.81446-1.04297 1.01445-.11967 2.2743-.25507 3.0625-.35742 1.79805-.23348 3.22833-.33505 4.54101-.29883 2.96237.35266 5.88604 1.53102 9.9336 3.66016 10.32978 5.43378 15.27093 6.11028 25.84374 3.54492 12.42244-3.01413 14.72409-2.79026 25.7793 2.50781 9.62987 4.61499 15.8125 5.91901 15.8125 3.33399 0-.73334-1.13354-1.33399-2.51953-1.33399-1.386 0-6.03665-2.57951-10.33398-5.73242-4.29735-3.15292-8.7125-6.30292-9.8125-7-.54567-.3458-2.68409-.7336-5.6875-1.08203-1.87537-.37716-3.86545-.55051-6.07813-.54687-1.61918-.11696-3.28586-.22675-5.01367-.30469-14.49096-.6537-14.87789-.75482-19.91211-5.17578-8.71687-7.65499-14.26357-9.42804-29.58008-9.46094zm210.57812 14.96289c1.42764.005 2.86289.12754 3.96289.36914.41973.0922.77883.18041 1.11524.26954 2.74703 1.00434 2.88281 2.03327 2.88476 7.83593-.00018.40283-.005.72942-.008 1.08789-.003.37033-.003.76623-.01 1.09571-.0972 4.56223-.6986 5.03384-4.18164 6.24804-2.31267.80621-3.54674 1.22678-4.59961 1.26172-.26269-.0134-.5269-.0283-.79297-.0547-.96648-.16744-1.95729-.69365-3.74023-1.66407-2.98889-1.6268-3.28647-2.50931-2.87695-8.53515.4206-6.18914.76172-6.78616 4.33203-7.57032 1.06607-.23415 2.48642-.34866 3.91406-.34375zm-32.23633.0274c1.89636-.006 3.84389.22032 5.12891.64648 3.34024 1.10778 3.77972 1.94319 4.13086 7.8457.10789 1.81366.16164 3.09793.10547 4.09376-.12053.96665-.31712 1.70239-.6543 2.26562-.60676.76586-1.68981 1.19761-3.54687 1.86914-5.10073 1.8445-4.46053 1.83866-9.29688.0723-2.53088-.92437-3.32791-1.53277-3.56836-4.55274-.005-.0686-.007-.16124-.0117-.23242-.0303-.43985-.0537-.90995-.0664-1.45508-.006-.23352-.005-.51663-.008-.76953-.005-.43237-.0114-.85506-.0117-1.35352.003-5.72024.15807-6.80027 2.76171-7.77343.51776-.12896 1.09915-.25118 1.83203-.38867.94775-.1778 2.06727-.26397 3.20508-.26758zm-31.10937.10547c1.09968.0357 2.22161.1833 3.30859.44531 4.50581 1.08611 4.68045 1.36153 5.06446 7.97266.11164 1.92212.16564 3.26723.10742 4.30273-.30668 2.53057-1.22597 3.07277-4.03711 4.05273-2.16326.75414-3.55922 1.15414-4.87305 1.23438-1.11622-.0434-2.27335-.47283-4.59375-1.32031-3.32464-1.21426-3.66797-1.95377-3.66797-7.92774 0-5.95312.35493-6.72591 3.66797-8.01367 1.42344-.55329 3.19063-.80553 5.02344-.74609zm94.66601 0c1.09969.0357 2.22357.1833 3.31055.44531 4.48967 1.08222 4.68053 1.37987 5.05859 7.83594.3828 6.53681.27769 6.75325-4.09375 8.33398-5.10074 1.8445-4.46247 1.83866-9.29882.0723-.98184-.3586-1.69892-.67873-2.22852-1.10157-1.15538-1.12777-1.42433-2.91717-1.43555-7.07031.0112-5.70792.40158-6.50142 3.66407-7.76953 1.42343-.55329 3.19063-.80553 5.02343-.74609zm-92.84961 6.23632c-2.28178 0-4.88596 4.14848-4.21484 6.71485.78104 2.98669 5.88077 3.26132 8.29492 1.29883.0587-.003.1362-.0137.1875-.0137.67334 0 1.22461-1.18792 1.22461-2.64062 0-.68252-.3224-1.33339-.8457-1.9043-1.02388-1.79573-3.00815-3.45508-4.64649-3.45508zm89.51172.51368c-.64502-.03-1.2967.0609-1.92187.30078-2.12432.81519-2.8895 5.9484-1.14649 7.6914.89331.89332 2.44506 1.04716 3.95703.70313.95541-.065 1.93445-.45361 3.0918-1.19141.97435-.62112 1.27119-1.51766 1.0918-2.42969.2495-2.61745-2.33656-4.94687-5.07227-5.07421zm-28.83398.0176c-.96006-.0643-2.07328.20899-3.28125.85547-2.51221 1.34449-3.45205 5.2882-1.68164 7.0586.48888.48889 2.58822.88867 4.66601.88867 3.27759 0 3.7793-.5108 3.7793-3.85742 0-3.02977-1.3703-4.8039-3.48242-4.94532zm-30.50586.16993c-.61256.005-1.25781.23018-2.04297.65039-2.56689 1.37375-3.53625 5.30555-1.74805 7.09375.54425.54424 1.56526.80472 2.74219.85742.81455.25697 1.67225.17791 2.44531-.1582 2.36916-.38694 4.5918-1.39109 4.5918-2.61915 0-.65485-1.21379-2.40519-2.69727-3.88867-1.33893-1.33893-2.27008-1.94329-3.29101-1.93554zm215.32031 8.28125-1.72851.23242-.0117-.13281-2.03711.4082-1.48828.19922c-2.89589.38841-9.45592 2.63705-14.57813 4.99804l-7.98828 3.68165c-1.00867.11063-2.03644.13301-3.125.0645l-7.93359-2.41016c-11.61299-3.52734-16.05063-3.13172-27.9043 2.48047-9.85869 4.66767-13.62782 5.01705-23.08398 2.14844-3.9759-1.20614-8.63544-1.86483-12.05274-1.92578-.2465-.01-.46832-.01-.68555-.008-2.39674.0179-4.04882.36147-4.04882 1.11133 0 .63961 2.36965 1.54278 5.26562 2.00586 2.89599.46309 7.24534 1.98732 9.66602 3.38867 9.66183 5.59328 14.63731 6.11647 26.88086 2.82618l9.47656-2.54688c1.08092-.003 2.14905.0619 3.2207.20508l9.00781 4.11523c11.80622 5.39208 20.29888 6.20173 29.81641 2.84375 3.11774-1.1 7.3922-2 9.5-2h3.83203v-10.84174zm-374.75781 4.90226c-3.23407.0793-6.61527.7647-10.57422 2.01367-4.76666 1.50378-10.01797 2.74295-11.66797 2.75195-2.83682.0163-3 .549-3 9.79493 0 5.37779.4209 10.19824.93555 10.71289 1.42289 1.42288 8.15237-.37951 17.3418-4.64649 9.43835-4.38256 11.83014-4.59228 20.93554-1.83007 10.21248 3.09807 15.97473 2.50335 27.90821-2.88477l8.17968-3.69531c1.72316-.45877 3.30857-.64715 4.99024-.57227l9.78515 2.49024c7.21286 1.83528 13.20366 2.68453 14.71289 2.08593 2.02034-.80135 1.03102-1.50088-4.78906-3.39453-4.03334-1.31231-9.3187-3.42089-11.74609-4.68555-6.58318-3.42976-13.65209-3.91588-21.93555-1.50781-10.54892 3.06665-15.68394 2.69199-24.1543-1.76367-6.55248-3.44681-11.53175-5.00124-16.92187-4.86914zm206.74219 5.19336c1.32889.009 2.57741.32699 4.09375.95508 3.54631 1.46892 3.91981 2.21185 3.92187 7.87304.00001.0159 0 .027 0 .043 0 .0246.00002.042 0 .0664-.004 5.38361-.469 6.43765-3.39648 7.77148-1.76251.80304-3.29124 1.23532-4.78321 1.33789-.46985.008-.93897.004-1.41211-.01-1.49577-.12031-3.01044-.57396-4.74023-1.4082-2.48484-1.19841-2.99806-2.52679-3-7.7793 0-.01 0-.0173 0-.0274 0-.0624.002-.10483.002-.16601.004-5.92703.23298-6.2716 4.74219-7.75977 1.83475-.6055 3.24337-.90543 4.57227-.89648zm-64.33789.0606c1.3978.0139 2.9132.28393 4.6875.8125 4.76591 1.41978 4.98975 1.66902 4.99804 7.55273.00002.0147-.00001.0262 0 .041-.006 2.82855-.14675 4.66975-.54297 5.93164-.53364 1.18211-1.58182 1.67206-3.65429 2.39453-2.44021.85066-3.95849 1.27837-5.3711 1.29297-.0254-.001-.0507-.003-.0762-.004-1.39124-.00028-2.69395-.39986-4.6875-1.20117-2.55666-1.02765-3-2.20109-3-7.94727 0-6.12659.33632-6.87167 3.66797-8.14648 1.30115-.49788 2.58071-.74052 3.97852-.72656zm31.87304.0976c1.8054-.0277 3.61062.17947 4.91602.67578 3.19004 1.21286 3.56445 2.03826 3.56445 7.8418 0 5.65608-.4348 6.68378-3.39648 8.0332-1.89016.86122-3.23533 1.31338-4.51172 1.39454-.29538.002-.59205.007-.88477-.006-1.3023-.10391-2.63644-.60389-4.51172-1.55274-2.89665-1.46568-3.2529-2.41065-2.875-7.64453.23716-3.28471.68244-6.37817.98829-6.87305.69315-1.12155 3.70193-1.823 6.71093-1.86914zm.34961 7.43164c-.35111 0-.6811.0254-1 .0605-.17914-.0125-.34716-.0394-.53515-.041-.72635-.006-1.24639.1969-1.61524.64258-1.85555.96167-2.50597 2.89964-1.57031 5.33789.17644.4598.63143.84322 1.24023 1.15039.31027.55237.88328.72517 1.84571.70703.44095.1151.91153.14508 1.39062.0957 2.14862.16963 4.38448-.22389 5.04883-1.29883 1.84296-2.98197-.80827-6.6543-4.80469-6.6543zm-31.04492.19727c-4.01888-.0961-5.73148 2.17875-4.30859 5.88672.37554.97864 1.25275 1.52202 2.71093 1.68359.54822.20885 1.16779.25527 1.79688.16797.18294.0567.38705.0644.60547.0312.19906.0103.39489.0332.59375.0332 1.45983 0 2.28506-.27788 2.71484-1.05078.81997-.53427 1.0625-1.39886 1.0625-2.94922 0-2.24099-.48768-3.07046-2.55469-3.49414-.42213-.17248-.9155-.24642-1.48242-.2207-.10706-.0114-.19207-.0263-.30469-.0371-.28818-.0278-.56605-.0444-.83398-.0508zm60 0c-3.03911-.0727-4.75216 1.21539-4.79492 3.44922-.009.0897-.0293.17508-.0293.26758 0 .56109.12641 1.12711.33203 1.63085.0555.17776.11261.35407.1836.53907.37554.97864 1.25275 1.52202 2.71093 1.68359.60898.232 1.30613.26836 2.00586.13867 3.77625.14689 6.23838-2.1336 4.72657-4.87109-.19013-1.97349-1.13372-2.4819-4.30079-2.78711-.28818-.0278-.56605-.0444-.83398-.0508zm67.32227 11.86523c-.98732.0661-1.47852.48911-1.47852 1.26953 0 .73333.81664 1.33399 1.81641 1.33399.99976 0 5.88248 2.99934 10.84961 6.66601l9.03125 6.66797h13.71484c13.65204 0 13.74018.0207 19.48438 4.625 7.28771 5.84152 12.67818 8.90128 17.76953 10.08399 2.2.51105 8.89596.85909 14.8789.77539 5.69314-.0797 8.96446-.24387 10.96485-1.4668l.79882-.0176.16602-.77148c1.66529-1.74128 2.1388-4.86325 2.73633-10.58008l.83398-7.98242h-5.63672c-3.10077 0-9.49355 1.02724-14.20703 2.2832l-3.59375.95703c-3.35244.48191-5.4996.53141-7.50195.0781l-7.47852-3.70117c-11.43052-5.65597-17.1846-6.17988-30.66796-2.79297l-6.54297 1.64258c-1.41301-.0176-2.78771-.18578-4.21094-.51563l-7.99219-3.79297c-6.99444-3.32164-11.56228-4.90723-13.73437-4.76172zm-15.90821 3.94141c-.13823.00051-.88114.21637-1.93359.54492-2.61895.41088-6.26772 1.52639-11.33008 3.28125-10.72851 3.71901-27.66737 11.08534-29.3418 12.75977-.23199.23198 1.32558 3.94294 3.46094 8.24804s5.27389 11.87813 6.97461 16.82813c.94866 2.76111 2.03341 5.21087 2.97656 6.86523l.91993 2.1836.44335-.29102c.17295.14755.33051.24219.46094.24219.93993 0 3.86977-2.16078 6.50977-4.80078s5.15961-4.44 5.59961-4c.0701.0701.11296.13819.14453.20312-.0831.13902-.14563.26328-.23438.40625-.0197.0314-.0368.0623-.0566.0937-.15715.0582-.35047.0977-.60937.0977-.85556 0-1.55469.72632-1.55469 1.61523s-2.34228 4.03891-5.20508 7l-5.20508 5.38477 1.53711 9.92773.71094 4.58594.4375 4.08789.16602-.19531.22461 1.44922 3.66601-4.36328c2.19301-2.60978 3.66797-3.56397 3.66797-2.37305 0 .0549-.0134.10734-.0156.16211-.41352.81164-.90539 1.70153-1.44141 2.63086-.79058.73206-2.20986 2.46558-3.54297 4.36719-3.14577 4.48728-3.5119 7.1204-2.13867 15.42968.21335 1.29098.38137 2.22293.55664 2.88672l.01 1.4043.36133-.44141c.43742.6317 1.06695.14127 2.39063-1.05664 1.36692-1.23706 2.53389-3.20532 2.5918-4.375.0173-.34942.0568-.60822.11132-.79297.0658-.0979.13139-.19423.19727-.29297.12463-.0312.27386.13095.43555.52735.35194.86286-.99541 4.15998-2.99414 7.32617-1.99873 3.16618-3.63282 6.45943-3.63282 7.31836s-1.27849 2.14407-2.83984 2.85547c-2.35755 1.07417-15.5867 10.53211-23.38281 16.7168-1.1.87263-4.09935 3.02337-6.66602 4.77929-7.40112 5.06428-12.66836 11.51581-17.50781 21.44922-2.47141 5.07277-4.7935 9.22266-5.16016 9.22266-.36667 0-2.68867-4.14975-5.16015-9.22266-5.38742-11.05815-9.96908-15.83177-27.29102-28.4375-7.2375-5.26698-14.74693-10.92512-16.6875-12.57422-4.46026-3.78972-5.74131-3.79108-4.95508-.002.34237 1.65 1.63012 10.04765 2.86328 18.66211l2.24219 15.66406 13.24414 4.08594c20.28475 6.25964 24.31638 8.33784 29.29688 15.10547.97025 1.31839 2.00781 2.53099 2.98046 3.52734.46307.69582.80079 1.26649.80079 1.47656 0 1.26742.72489 1.57094 1.82421 1.13868l.0938.125.0684-.0781.0137.0195.19531-.23242c.0173-.009.0353-.0203.0527-.0293.15719.0603.29966.0977.41797.0977 1.1 0 4.01758-2.73921 6.48242-6.08789 3.01016-4.08956 6.51157-6.94263 10.66602-8.68945 3.40183-1.43036 7.6862-3.27147 9.51953-4.0918 1.83334-.82032 3.79462-1.38293 4.35938-1.25.56476.1329 4.91411-1.01559 9.66601-2.55078 7.30998-2.3616 8.67564-3.28538 8.87305-6.00782.1664-2.29468.39731-4.4478.6914-6.74414.0334-.0923.0384-.16106.0274-.21484.46139-3.55238 1.11783-7.5547 2.23828-13.5918 2.48569-13.39302 2.64751-5.16425.19531 9.94336-1.06636 6.56974-1.70865 12.17611-1.42773 12.45703 1.61183 1.61182 11.66985-4.01608 17.54492-9.8164 7.99908-7.89733 9.9181-14.14895 10-32.58399.1329-29.92784 2.38418-82.92383 3.58398-84.3789.73559-.89209 1.54055-4.24346 1.79102-7.44727.046-.5879.0791-1.13812.0977-1.65625.32592-1.60332.2568-2.54088-.22461-3.35742-.37004-1.60259-1.23824-2.48323-2.86133-2.71484-.41378-.26074-.77863-.44182-.98438-.44141zm-159.64843.20508c-2.16241-.0623-3.63375.57168-4.4668 1.91406-1.05292.80312-1.28453 1.70102-.80664 2.9082.005.0125.009.0266.0137.0391-.0599.99131-.003 2.11789.19531 3.41796.46176 3.03104 1.38575 6.20553 2.05274 7.05469.66698.84916 1.78525 23.04982 2.48633 49.33399.70108 26.28418 1.92824 50.61662 2.72656 54.07226 1.77748 7.6942 9.53451 16.94694 17.52539 20.90235 6.97232 3.45124 9.42269 3.58829 8.52148.48046-.37213-1.28333-1.6981-10.43203-2.94531-20.33203-1.24723-9.9-2.93269-18.9-3.74609-20-2.13208-2.88334-4.8125-7.81514-4.8125-8.85547 0-.44488 1.19788.59179 2.72265 2.30079.32405.40659.66809.80471 1.02149 1.16406l2.62304 3.05078.94532-8.14258c.89969-7.75177.74644-8.39339-3.1836-13.35547-5.20732-6.57477-5.43471-9.66545-.28711-3.90429l3.8418 4.29882 1.23438-9.94531 1.23437-9.94531-1.24414-1.26367c-.31806-.84055-.89793-1.31292-1.77734-1.80664l-1.46094-1.48438c-6.97772-7.09286-8.41965-10.80685-2.20899-5.6875 2.83104 2.33359 5.81402 4.24219 6.63086 4.24219 1.31204 0 5.05335-9.13116 5.18946-12.66602.0282-.73334.35208-1.63334.71875-2 .36667-.36667 2.59699-4.68883 4.95703-9.60547l4.29101-8.93945-3.62304-2.5c-3.4296-2.36545-16.57309-8.04961-20.48243-8.85742-.99494-.2056-4.09186-1.38337-6.88086-2.61719-4.74082-2.09726-8.38062-3.19584-11.00585-3.27148zm-38.64844.2832c-4.18643.0767-8.16321 1.72297-16.27344 5.68359l-8.16211 3.98633c-1.14548.21299-2.27902.29387-3.49023.26563l-9.27735-2.1875c-13.03852-3.07362-17.69498-2.48755-30.125 3.78711-4.32822 2.18487-8.7987 3.97265-9.93359 3.97265-1.55892 0-1.86529.89585-1.25195 3.66602.75723 3.42011 2.76385 10.84276 3.96484 14.66601.29941.95315.98497 1.47816 2.02148 1.58985l.0273.0898.17187-.0879c.14212.008.28917.0119.44336.006.0591.0252.13213.0703.17383.0703.18795 0 .46678-.0719.80273-.1875 3.41393-.65416 8.98186-3.9186 16.17188-9.58984 5.01512-3.95575 5.63354-4.0939 16.94727-3.79102 12.75671.3415 19.19499-1.44647 25.18164-6.99609 7.68752-7.12632 10.55796-8.10352 23.83593-8.10352 1.16406 0 2.23109-.008 3.22657-.0254 4.22192.11768 6.63876-.042 7.18164-.47265.26563-.0428.55433-.0821.77929-.13086l.31055.0176-.18555-.0527c1.09536-.25388 1.70215-.58262 1.84375-1.00195.36751-1.08824-.82542-1.66602-3.43945-1.66602-2.20188 0-7.71177-.95019-12.24414-2.11132-3.60129-.92262-6.18931-1.44252-8.70117-1.39649zm210.72656 16.33984.9668 1.16016c-.61282.22431-.0937 1.42026 1.9414 3.67969 1.48357 1.6471 4.34948 4.90526 6.36914 7.24023 4.31182 4.98495 10.57186 7.72743 20.72266 9.08203 9.60386 1.28161 11.03146 2.13453 21.30273 12.71875 7.94008 8.18199 9.39342 9.10184 16.69727 10.57422 4.4.887 10.09935 2.09825 12.66602 2.69141 2.56667.59317 5.26667 1.13693 6 1.20703 2.20891.21133 8.94419-17.44034 7.28711-19.09766-.5386-.53868-3.60193-1.00356-7.80469-1.26757-.49068-.038-1.0018-.0669-1.53516-.0899-.0201-.00095-.0424-.001-.0625-.002-1.6498-.0778-3.43188-.12617-5.28711-.13672-11.57872-.0657-13.73693-.44845-16.93359-2.99414-11.4881-9.1487-13.92526-10.96722-22.98633-11.75-.94469-.10029-1.96794-.16489-3.04492-.21094-1.34497-.0812-2.73506-.15713-4.37891-.23828l-14.42383-.71289c-.37531-.1661-.74545-.35767-1.11914-.57813l-6.86132-5.29687c-3.26769-2.52261-5.82776-4.08207-7.32813-4.63672zm-127.49609 2.5-.88477 1.45899c-2.359 2.49004-6.07591 10.70991-9.13476 20.54101-1.71127 5.5-3.12016 10.41413-3.13086 10.91797-.011.50382 6.42917 4.26995 14.3125 8.3711s16.96664 9.82307 20.18554 12.71484c1.69456 1.52236 3.37335 2.78818 4.69532 3.5957.31566.2326.56006.38513.67968.39649.85017.45561 1.47837.64743 1.74219.48437.76907-.4753.69469-1.34829-.1875-2.23047-.44406-.44406-.83902-1.756-1.10547-3.43164-.0574-1.84283-.19852-3.92869-.38672-5.90039-.43187-7.90265-4.26049-19.1761-9.56054-27.92382-4.40419-7.2691-13.64961-17.42166-16.51563-18.26368zm69.22265.66797c-2.84697 0-18.39453 17.69689-18.39453 20.9375 0 .95085-.47517 1.72852-1.05664 1.72852-2.44742 0-10.49492 33.33711-8.52344 35.30859 1.06786 1.06786 1.07132 1.06448 8.27344-5.33203 3.73011-3.31286 12.75056-9.01724 20.04492-12.67773 7.29436-3.66048 13.25289-7.10121 13.24219-7.64453-.011-.54331-1.41959-5.48829-3.13086-10.98829-3.20405-10.29776-7.05388-18.6657-9.42773-20.79296-.0544-.0487-.10931-.10242-.16211-.14454-.24447-.23075-.46623-.38227-.63867-.38476-.0108-.00016-.0471.0266-.0625.0312-.0538-.0106-.11303-.041-.16407-.041zm-134.74023 4.24805c-3.55536.0304-8.23508.69151-12.2793 1.66406l-2.92383.0879-1.62304 1.25391c-1.44079.52619-2.61738 1.08588-3.35547 1.65625-1.72428 1.33247-5.41374 4.22187-8.19922 6.42187-4.79797 3.78949-5.73756 4.00725-17.83594 4.10938-14.4503.12203-17.12548.94663-25.35742 7.82422-3.22347 2.69313-7.48586 5.73819-9.47266 6.76562l-3.61132 1.86719 4.16796 8.6582c2.29306 4.76216 4.87398 8.6844 5.73438 8.7168 1.87427.0705 9.65325-6.16945 12.37695-9.92773 5.50297-7.59325 8.9156-9.7609 16.83203-10.69922 13.50284-1.60047 19.69157-5.10828 27.82032-15.76563.24395-.31983.49637-.63027.75586-.93554 1.5325-1.50147 2.90208-2.77645 4.10937-3.78125 3.66662-2.64087 8.02614-4.16424 12.37109-4.18555 2.29379-.0112 5.03785-.56853 6.09961-1.24024 1.50712-.95349 1.11381-1.42671-1.79297-2.15625-.97244-.24407-2.29051-.34703-3.8164-.33398zm5.92187 21.48242c-.47024-.004-1.10342.10365-1.9082.35352-4.71689 1.4645-9.84507 5.53712-15.19531 12.0664-6.0652 7.40176-9.62164 9.26615-19.53516 10.24219-9.6557.95067-18.12442 5.73615-23.9375 13.52734-2.38323 3.19421-5.67121 6.63209-7.30664 7.64063l-2.97266 1.83398 5.99219 7.63672c3.29615 4.19963 6.47943 7.63477 7.07422 7.63477 2.56814 0 12.21289-14.07741 12.21289-17.82617 0-.0444.0175-.095.0215-.14063.60083-1.06661 1.19998-2.00462 1.83203-2.83008 2.5468-2.4337 7.35866-5.20201 12.12695-6.70507 9.86231-3.10883 15.40474-8.00321 20.6543-18.23829 2.5973-5.06393 5.95397-9.48594 8.21289-10.82031 3.71396-2.19388 4.76623-4.35587 2.72851-4.375zm188.58008 4.10352c-.27424-.004-.48387.0519-.60547.17383-1.54041 1.54446 6.03945 6.9806 13.75977 9.86914 10.85434 4.06114 13.42589 6.16301 16.61914 13.58593 4.23012 9.83317 11.396 16.31751 21.89258 19.81055 4.24228 1.41174 8.07317 3.0238 9.24414 3.85742.17056.1257.28605.23057.33789.31446.49652.79906 1.11079 1.19623 1.83398 1.19921.0367.003.0777.0215.11328.0215.0315 0 .0837-.0336.1211-.043 1.55834-.16749 3.58598-2.04797 6.01367-5.62305 2.1164-3.11667 4.29766-5.86689 4.84766-6.11132.55-.24445 1-1.24442 1-2.22266 0-2.32936-9.36689-5.62647-18.97461-6.67969-6.21214-.681-8.33235-1.59056-11.33399-4.86328-13.91701-15.17392-15.50287-16.17836-28.82226-18.24023-5.02157-.77736-10.62383-2.39186-12.44922-3.5879-1.36904-.89698-2.77494-1.44757-3.59766-1.46093zm-143.26758 9.8125c-.24007-.0229-.41155.0112-.50781.10742-.50972.50972-1.00209 3.06773-1.28125 6.30078-.15658 1.21164-.31197 2.61481-.49609 4.24219l-.88477 7.8125.95703.49804-.008.3418 14 7.27149c16.37783 8.50465 26.66602 14.90252 26.66602 16.58398 0 .65688.60065 1.19531 1.33398 1.19531.97285 0 1.36867-.80658 1.31641-2.13867.007-.0634.0175-.12389.0176-.19531.00001-.0309-.027-.11417-.0391-.16797-.00029-.001-.002-.003-.002-.004 0-.002 0-.004 0-.006-.00032-.22715-.0334-.46426-.11133-.70507-.83883-4.97615-5.90661-14.59433-11.54687-20.45313-6.93994-7.20882-25.81297-20.33946-29.41407-20.68359zm98.2793.0156c-3.20102.34537-20.47872 11.93613-28.86133 19.53125-4.61175 4.17849-14.11875 21.61693-12.8789 23.62305 1.08524 1.75596 1.74335 1.49585 4.9707-1.96875 1.61498-1.73372 11.03555-7.37753 20.93555-12.54102l18-9.38672-.006-.26367.95898-.49414-.16406-1.45508.0527-.0273-.16601-.97266-.63281-5.58984c-.11869-1.04905-.25629-2.08813-.40235-3.08398-.25867-3.68724-.7977-6.72348-1.36133-7.28711-.0815-.0815-.23191-.10701-.44531-.084zm230.01367 5.67774c-1.34329-.007-5.78231 9.56497-5.89258 12.70507-.01.2744-.23068.95279-.5332 1.77344-.36862.45128-.62779 1.12192-.70898 1.78321-.40802.96649-.86438 1.99926-1.37891 3.06445-1.4169 2.93334-2.59815 6.38268-2.62305 7.66601-.001.0735-.0104.14302-.0156.21485-.27172.61119-.59514 1.3111-.89063 1.96289-.14806.097-.3057.15625-.4707.15625-.73333 0-1.33398.68762-1.33398 1.52734 0 7.11368-27.29936 51.98801-41.25 67.80664-1.61684 1.83333-4.39643 4.97796-6.17774 6.98828-2.01455 2.27356-2.97846 3.46579-3.03515 4.54297l-.0371.043.0332.0332c-.0119.94704.67991 1.82196 2.00586 3.28711 1.56631 1.73076 2.69407 2.71657 4.4082 2.18165.58271.0168 1.16223-.33377 1.90235-1.05079 3.08527-2.25266 7.96501-7.97234 17.48437-19.37304 5.82396-6.97497 7.83259-9.72609 14.59961-19.98633 11.09366-16.82032 23.40039-39.31459 23.40039-42.77344 0-.12953.009-.25455.0254-.37695.00009-.00063-.00009-.001 0-.002.18098-.39575.35623-.79158.53516-1.1875.00035-.00079.002-.001.002-.002.20325-.20473.44645-.32422.70899-.32422.70009 0 1.66692-2.1013 2.14843-4.66797s1.40883-4.66601 2.06055-4.66601 1.18936-1.05066 1.19336-2.33399c.005-1.28333.81268-3.87169 1.79492-5.7539.98223-1.88222 2.18113-5.0036 2.66602-6.93555.79946-3.18531.41532-3.64286-4.12696-4.9043-2.75497-.76508-5.6771-1.39443-6.49414-1.39843zm-368.9082.004c-.45006.00074-.95301.0822-1.5.19727-.0836.007-.16616.008-.25.0176l-3.85547.4414v.54883l-.66797.16797v49.36719c0 25.64482.18145 40.46834 1.05078 50.43359.25847 8.19918.66431 11.7311 1.28321 12.34961.91667.91608 1.66601 2.77949 1.66601 4.14063 0 3.68176 7.43948 17.99657 13.58594 26.14257 14.36647 19.04008 33.64414 31.33016 56.80859 36.21485.44553.0939.93175.18371 1.40235.27539 1.67502.38137 3.36464.73991 5.08398 1.05273 1.79252.32614 3.97057.54431 6.39453.66602 2.91636.31956 5.60782.52599 7.57813.54687 10.40827.1103 27.94258-2.99374 37.85156-6.70117 6.507-2.43458 21.54391-11.33141 25.29492-14.96484.8942-.86616 3.78334-3.51368 6.41992-5.88477 9.68896-8.71328 23.58008-30.71528 23.58008-37.34765 0-1.36114.75131-3.22455 1.66797-4.14063.65603-.65562 1.07321-4.55542 1.32813-13.86133.56625-6.57562.79964-15.49502.90234-28.13476.27763-14.60574.31354-30.99446.0918-44.32422l.01-25.83008-.66601-.16602v-.55078l-2.56836-.24804c-.65552-.29801-1.32478-.38976-2.00782-.28516-.67195-.11199-1.27575-.15231-1.79101-.0234-1.41595-.0614-2.47561-.0206-2.58399.13867-.0443.065-.121 2.22214-.21289 5.39844-.27053 1.85109-.45184 4.85328-.57812 9.15625-.0296.89276-.0551 1.88607-.0781 2.88477-.0106.52042-.0238.96068-.0332 1.51758-.0327 1.71352-.0471 3.94476-.0664 5.96484-.0115 1.29877-.0251 2.59063-.0332 4.04492-.0253 4.48441-.0414 9.70323-.043 15.63477-.0306 1.6949-.0576 2.7433-.0879 4.48242-.82565 47.33956-1.68468 57.59608-5.74414 68.66601-10.07298 27.46851-34.86648 47.12125-65.87305 52.21094-12.76048 2.09461-14.50319 2.09461-27.26367 0-14.93119-2.45093-26.38894-7.09141-37.53125-15.19726-8.81604-6.41353-9.86181-7.45695-17.03125-17.01368-7.66033-10.21108-11.10748-17.50868-14.45508-30.59765-1.81823-7.10923-2.41794-11.88239-2.61328-31.4668-.0502-6.46219-.0703-14.13424-.0703-23.68945 0-1.4494-.004-2.45422-.004-3.82617-.00098-4.11654-.004-8.16857-.01-11.54883-.003-1.30641-.009-2.61661-.0137-3.83399-.0456-14.87146-.18908-22.46766-.66602-26.23828-.14533-3.03556-.30374-4.97184-.47265-5.23828-.28507-.44966-.88185-.80617-1.63868-1.04883-.45334-.35601-.97788-.501-1.58984-.5zm-189.492188.28711c-.116884.001-.291942.0269-.421875.0332-.702319-.0673-1.694565.0847-2.771485.35156-.902277.16441-1.841219.35896-2.792968.61523-5.06297 1.36332-5.419877 1.75553-4.634766 5.08985.467788 1.98667 1.373065 4.18223 2.011719 4.8789.638654.69666 1.162109 2.10697 1.162109 3.13281 0 3.78124 13.900716 32.60739 22.746094 47.16993 3.70719 6.10331 7.455494 12.29701 8.330078 13.76367.874585 1.46667 1.891147 2.96731 2.257813 3.33398.366667.36666 2.138809 2.76536 3.939453 5.33203 1.800645 2.56667 3.763094 5.26667 4.359375 6 .596283.73333 2.299204 2.83463 3.785156 4.66797 1.485952 1.83333 6.124807 7.34585 10.308594 12.25 4.183788 4.90414 8.35677 8.9541 9.273437 9 .02237.001.05245-.007.07617-.008.05423.035.12651.0898.150391.0898.08441 0 .256974-.0878.490234-.23828 2.108032-.79996 6.283203-4.54232 6.283203-5.86328 0-.42308-1.649345-2.50477-3.666015-4.625-4.525095-4.75748-4.610326-4.86291-14.445313-17.93945-13.360863-17.7645-32.554687-50.78815-32.554687-56.01172 0-1.09342-.600652-1.98828-1.333985-1.98828-.128273 0-.24957-.0386-.367187-.0918-.339088-.78323-.669075-1.57084-1.001953-2.35742-.174242-1.39321-1.201627-4.48739-2.445313-7.29102-1.364703-3.07644-3.315353-8.51828-4.333984-12.09375-1.018632-3.57547-2.539105-6.76634-3.378907-7.08984-.20995-.0809-.564351-.11602-1.02539-.11133zm332.552738 18.17188-.69922.5039c-.0134-.0303-.0295-.0885-.041-.10156-.0157-.0179-.0823.004-.17773.0469-.13287-.14949-.26767-.25196-.40821-.25196-.62431 0-2.83137 1.38708-4.90429 3.08203-2.07293 1.69494-9.16953 6.92888-15.76953 11.63282-6.6 4.70395-14.00522 10.66015-16.45508 13.23437-4.67802 4.9155-9.75529 14.06309-8.50195 15.31641.99768.99769.77866 1.10193 4.71289-2.26563 1.92765-1.65 11.91548-7.43113 22.19335-12.8457 10.27787-5.41458 19.3624-10.65969 20.18946-11.65625.2754-.33184.46453-1.0101.59375-1.87695.42344-1.06382.37624-2.22949.1914-3.75586-.0386-2.6522-.34461-5.64826-.81835-7.83203zm-105.33985.19726c-.0914 0-.1905.0927-.29297.23047-.17052-.0507-.30589-.0711-.35742-.0195-.0954.0954-.21135.78732-.33203 1.69922-.41122 1.3917-.817 3.4061-1.09961 5.66797-.57277 4.58439-.70827 6.47273.14063 7.92773l-.0527.95703 2.05274 1.10938c.14219.11481.25798.21707.41406.33984 1.92613 1.51512 11.02933 6.65325 20.22851 11.41992s18.28444 10.00452 20.18946 11.63868c5.43816 4.665 6.09219 2.24261 1.44531-5.35547-5.629-9.20392-6.28128-9.8364-20.99609-20.3418-6.96667-4.97373-14.36262-10.44463-16.43555-12.1582-2.07292-1.71356-4.28-3.11524-4.9043-3.11524zm154.33985.002c-1.51004-.004-1.20812 2.45993.87304 7.1289 1.03002 2.31083 2.20849 6.55375 2.61914 9.42774.41065 2.874 1.26115 5.574 1.89063 6 .62948.42601 1.53099 1.82367 2.0039 3.10547.47291 1.28181 3.6804 4.28115 7.12696 6.66601s7.81529 5.66809 9.70898 7.29492c4.53696 3.89756 5.18828 3.79999 11.44336-1.69726l5.33399-4.6875-3.33399-2.58985c-1.83334-1.42467-7.23334-3.87725-12-5.45117-8.25083-2.72435-16-8.09469-16-11.08789 0-1.85411-8.39342-14.10637-9.66601-14.10937zm-203.68946 10.91992c-.56832.0119-1.33659.13089-2.31054.375-9.13307 2.28904-16.80105 6.70458-20.49414 11.80273-2.11164 2.91505-3.83985 6.02335-3.83985 6.90625 0 .88288-1.49869 3.22297-3.33203 5.20117-1.49947 1.61797-2.45298 2.74134-2.84961 3.70118l-.77344.87109.62891.57227c.28795 1.15007 1.5849 2.30435 3.99414 4.20312 1.336 1.05293 2.73346 1.96467 3.89258 2.5957.66169.46533 1.20559.8023 1.41015.81055.0903.004.1842-.021.2793-.0449.10492.0285.18807.0394.27149.0488.009.003.0548.0352.0605.0352.0126 0 .0298-.0152.043-.0176.004.00011.0114.002.0156.002 2.31339.0209 6.51772-8.91661 7.38672-15.70117.87892-6.86195 5.5777-13.41937 12.15039-16.95899 4.63323-2.49517 5.92951-4.45374 3.46679-4.40234zm172.76563 49.05469c-1.07393-.0152-2.69525 1.23839-5.07617 3.33398-2.93637 2.58446-3.59855 4.18545-3.6543 9.16992-.16666 1.53071-.32114 3.31953-.5 5.64649-.0365.4748-.0828.90245-.12305 1.35937-.1491.54603-.31647.92926-.49414 1.03906-.49576.30642-.71761-1.66299-.60937-4.55273.36001-1.64429.44667-3.91218.24609-5.61328-.0197-2.18856-.26961-3.68696-.70117-3.6836-1.66284.0149-4.49805 6.59808-4.49805 10.44336 0 5.13975-5.09049 13.99599-9.96484 17.33594-2.45209 1.68021-11.56251 5.05881-20.2461 7.50781-20.47144 5.7735-20.46747 5.7711-21.29101 9.8711-.38648 1.92407-1.55626 4.6644-2.59961 6.08789-1.8778 2.56202-1.91712 2.56202-3.79492 0-1.04334-1.42349-2.21313-4.16382-2.59961-6.08789-.82156-4.09012-.86796-4.11012-20.875-9.75391-16.96319-4.78514-20.8475-6.48644-24.26953-10.62305-1.26975-1.53488-2.82357-3.40999-3.45118-4.16796-.0648-.0783-.1343-.18561-.20507-.29688-.031-.0507-.061-.10155-.0918-.15234-.60092-1.02497-1.35206-3.03118-1.80078-4.88477-2.68943-11.10938-3.69563-13.95508-4.93359-13.95508-.74485 0-3.27168-1.79754-5.61524-3.99414-3.27573-3.07033-5.22301-4.61752-6.31641-3.8125-.17584-.0781-.32767-.13402-.42578-.13867-.25819-.0122-.45602 1.09581-.58593 2.90234-.27304 2.15457-.24172 5.74303-.0801 10.6836.007.24208.003.44635.0117.6914.0155.44987.0328.80465.0488 1.23047.0163.44387.0231.76884.041 1.23438.0228.59106.053 1.15743.0801 1.73633.39563 8.46976 1.22328 15.48441 1.91992 15.93164.74425.47777 1.72777 2.06848 2.18555 3.53515 1.92174 6.15713 13.31217 14.25299 30.19336 21.45899 16.33398 6.97242 26.5485 9.0582 28.66797 5.86133l1.27148.0117-1.08203-1.08203c-.59165-2.72073-7.95394-7.33928-18.85352-11.66406-15.46795-6.13744-25.56936-12.22787-28.61914-17.25391-2.08525-3.43646-4.09808-10.72739-4.87109-16.79687-.10426-1.29915-.2064-2.47029-.30469-3.5-.0303-.74468-.0399-1.45775-.01-2.10156l.19922-4.26758.5586 4c1.96576 14.08696 7.6123 23.97668 16.36328 28.66016 1.99352 1.0669 23.20979 7.76177 31.13281 9.9375 1.51602.73884 2.70062 1.48589 3.61133 2.27148.21387.80738.44933 1.85015.66797 3.01562 2.52019 13.43359 17.34292 13.4614 19.86133.0371.38534-2.05404.79872-3.24293 1.79492-4.09765.52189-.34221 1.1332-.67854 1.79492-1.01367.76159-.30279 1.69251-.58658 2.86914-.90039 13.80176-3.68095 23.13577-6.86456 29.55469-10.38477.20524-.10535.45454-.2219.60351-.3125.14877-.0905.30097-.20166.45118-.30078 5.64893-3.30518 8.88967-6.93861 10.88867-11.57813l2.01172-4.66797.043 4c.0973 8.96848-8.49846 16.04864-29.95704 24.67383-12.01456 4.82921-19.30969 9.28946-20.07031 12.14258l-1.18359 1.18359h1.28125c.0143.0263.0231.0542.0391.0801.006.01.0152.0177.0215.0274l-.0703.0644.11133-.01c3.89732 5.50832 43.28811-9.80732 53.55664-20.88281 3.11667-3.3616 5.66602-6.92514 5.66602-7.91797 0-.99282.68716-2.03439 1.52734-2.31445.90027-.30008 1.60776-5.38245 2.04883-14.52149.63225-8.47851.60198-19.85742-.45117-19.85742-.0886 0-.25559.0642-.45703.15625-.17601-.11367-.37153-.17657-.5918-.17968zm-125.14063 10.68945c-.24851 0-.3061.43694-.22265 1.14844-.24012.69137-.0805 1.74526.20117 3.18554 1.14154 5.83729 2.65989 8.96296 8.22461 11.92774.57631.3287 1.24413.64868 1.96289.96484 3.95283 1.80166 9.53096 3.64495 17.64844 6.10547 8.32148 2.52235 13.11289 4.102 15.83789 5.49023 1.56456 1.00695 2.46041 2.04764 3.30859 3.39649.0672.33248.10352.67978.10352 1.05664 0 1.25465.39978 2.68104.88867 3.16992.3752.37521 2.03026.69436 4.02148.82422.69955.26357 1.42736.31846 2.13477.17187.20121-.0255.40115-.0678.59961-.12109 3.64672-.07 4.29374-.66793 5.00586-3.91015.9572-4.35813 1.62188-4.66881 25.84179-12.05665 8.34504-2.54551 15.04122-5.43182 16.89063-7.28125 2.8592-2.85918 6.19375-11.62278 5.33594-13.67773-.006-.0609-.0122-.12315-.0332-.14453-.009-.009-.0415-.01-.0586-.0156-.0253-.0372-.0405-.0913-.0703-.12109-.81715-.81714-27.16729 5.9386-33.52735 8.5957-2.36736.98904-6.23271 4.53287-8.58984 7.87696-4.19864 5.95669-4.43517 6.08007-11.5918 6.08007-4.57103 0-8.14509-.92473-10.20898-2.51171-.55598-.51884-1.06235-1.11378-1.5293-1.79102-.2851-.56832-.44336-1.18054-.44336-1.83594 0-1.77556-2.20156-3.8449-6.125-5.96289-.14083-.0949-.28666-.20138-.42187-.28125-.22248-.13142-.63289-.31228-1.12891-.51367-3.95424-1.93347-9.28065-3.88145-15.65625-5.66016-9.90845-2.76433-14.7596-4.06632-17.00391-3.9082-.61764-.11733-1.13326-.20117-1.39453-.20117zm253.16211 36.75976c-1.28465.0843-2.65981 1.118-4.76367 3.24805-16.16856 16.36976-65.95265 47.41698-86.47851 53.93164-1.57468.49977-2.68109 1.82385-2.82618 3.30469-.005.0247-.0293.0551-.0293.0781 0 .0402.009.073.0117.11133-.002.0453-.0117.0892-.0117.13477 0 .0183.002.0327.002.0508-.00007.001-.002.005-.002.006 0 .008.004.0155.004.0234.002.1672.0103.32558.0274.47265-.008.0332-.0312.0718-.0312.10157 0 .80417.22125 1.27569 1.10156 1.30468 1.90712.49666 6.83671-1.34355 18.76367-6.41992 26.41612-11.24327 49.54128-25.33324 75.13477-45.7793 5.75105-4.59437 6.05375-5.83214 2.22851-9.10742-1.18776-1.01699-2.13168-1.52651-3.13086-1.46094zm-399.78711.22071c-.76581.0492-1.37662.52895-2.21875 1.25-3.81216 3.26406-3.50522 4.50619 2.24219 9.09765 27.2874 21.79928 52.77902 36.96341 81.66602 48.57813 6.41529 2.57942 9.78935 3.79872 11.54101 3.85156.39292.12644.70022.21651.79297.21875.29475.007.55289-.34539.73633-.88672.1081-.20327.17435-.45621.21289-.74804.15241-.13669.17031-.31669.043-.54297.002-.0746.008-.142.008-.22071 0-.0386-.007-.0766-.01-.11523.00087-.0452.01-.0832.01-.12891 0-1.46667-.75284-2.66797-1.67187-2.66797-.19451 0-.56091-.0918-1.00196-.22656-1.21359-.74096-2.84814-1.52872-4.99414-2.40234-9.1678-3.73216-29.31855-14.2389-41.52344-21.64844-10.38252-6.30317-19.45238-13.01403-34.38281-25.44141-7.3249-6.09688-9.76443-8.07508-11.44922-7.96679zm287.47852 65.91992c-.26995.0112-.56279.0578-.88672.12891-1.59654.35026-8.83091 2.21562-16.07617 4.14453-39.45532 10.50412-100.86499 10.50412-140.32031 0-20.23855-5.38808-18.68597-5.36449-20.33594-.30078-.79947 2.45352-1.67293 5.66029-1.94141 7.12695-.26848 1.46667-1.17996 4.3555-2.02539 6.41992-.84543 2.0644-1.53711 4.03011-1.53711 4.36719 0 2.15979 24.47633 8.23724 47.98438 11.91601 2.82989.44285 5.75537.83061 8.72656 1.18555 3.15674.5083 6.08601.93871 8.62305 1.25391.69616.0865 2.50679.15175 4.91797.20117 1.38042.10379 2.98743.19024 4.77343.25976 1.46132.36328 5.79355.45507 11.6875.3418 15.12932.34428 30.65355-.26551 45.15235-1.8457 4.86338-.43502 9.14064-1.02121 13.58007-1.8086 29.31654-4.50508 47.39987-9.49967 46.13086-12.80664-.3823-.99626-1.98735-6.14902-3.5664-11.45117-2.24264-7.53038-2.9971-9.21117-4.88672-9.13281z" fill="#eee" stroke-width="1.333333"/></svg>