<svg height="533.34918" viewBox="0 0 391.91153 533.34918" width="391.91153" xmlns="http://www.w3.org/2000/svg"><path d="m156.13477.00195313c-.20432-.0400144-.10017.5962769.40429 2.07226567.0158.046229.0665.2251059.0859.2851562.37736 2.2083612 1.3609 6.2183535 2.66406 10.695313 4.48404 15.404741 7.55944 32.86464 8.99805 49.677734.21745 5.25622.29657 11.115422.30078 18.136719.006 9.543517-.13537 16.977618-.58789 23.478519-6.4591 51.34588-28.40541 91.92211-82.84375 153.26367-29.76256 33.53667-39.765423 46.16964-49.033203 61.92578-10.3951 17.67271-14.938118 31.42466-17.617188 53.32812-1.860576 15.21173-.490856 31.59385 3.490235 46.59766.0063.024.01127.0502.01758.0742.02031.0772.04736.16407.06836.24219 3.505309 13.0724 8.993284 25.08413 16.060547 34.33984l2.507813 3.28516 1.904297 2.65039c-.03937.0546-.08908.10381-.150391.14843h-2.382813l-3.402343-.46679c-3.571443-.4895-13.272224-4.1492-21.556604-8.13279-3.337586-1.6049-6.2734508-2.91725-8.7773438-3.98047-3.6484938-1.86369-6.2851562-2.98506-6.2851562-2.61133 0 .11071.02509141.25032.07226562.41797-.04437891.01419-.07226562.03784-.07226562.07422 0 2.08357 8.4281868 13.97291 16.605469 23.92187 2.313602 2.81487 4.613909 5.50502 6.689453 7.73633 20.017753 21.52004 43.495173 36.03213 70.654297 43.66601 7.060001 2.10199 14.217381 3.66605 21.384761 4.63477 1.7438.23569 3.57258.41562 5.4375.57031.0962.0164.48112.0778.5625.0918 1.40517.24164 3.98831.34246 7.20118.3457 1.61728.0725 3.24072.12777 4.87304.15235.17015.009.45327.0302.5918.0351 1.04889.0375 2.31184.0265 3.73047-.0254 14.56419-.15255 29.24085-2.16631 40.93555-5.85156 16.82219-5.30101 32.76913-16.20965 43.53515-29.7832 2.47601-3.12169 5.0872-7.13074 7.60547-11.5625.002-.003.004-.007.006-.01 1.31999-2.18038 2.56999-4.41841 3.74219-6.7168.3782-.72782.73888-1.46748 1.09961-2.20703.001-.003.003-.005.004-.008 1.62004-3.32209 3.06826-6.76404 4.34766-10.3457 1.54793-3.95651 2.82114-7.76909 3.67383-11.15821 1.60616-6.38395 2.63099-14.73767 2.69922-19.93359.0271-.76534.014-1.40845-.0293-1.94336-.0863-1.79232-.34975-2.91016-.83008-2.91016-.44719 0-4.04742 2.9561-8.00195 6.57032-2.56329 2.3427-5.31657 4.45163-8.19336 6.31445-3.99388 2.31951-8.25427 4.49046-11.93555 6.03125-3.51024 1.32041-7.07349 2.27242-10.60937 2.85742-1.9504.10625-4.23651.1423-7.11328.14844-3.63047.008-6.29775-.0507-8.5625-.22852-.0971-.0195-.19617-.0344-.29297-.0547-11.13315-2.3352-18.94914-6.62293-27.15625-14.89844-12.54383-12.64837-18.61833-29.42479-18.61133-51.40625.006-21.4423 4.64154-37.63556 20.03906-70 12.05855-25.34614 18.56663-42.59745 23.89063-63.33399 1.51094-5.885 2.83867-11.84565 3.99804-17.86718.8305-4.09377 1.57771-8.19669 2.23438-12.33203.31766-2.00045.59628-4.38387.85547-6.92774 3.61713-28.12208 3.56193-57.30808-.0762-86.47851-.22989-2.09186-.47406-4.06004-.74805-5.72852-.0169-.10312-.0357-.2055-.0527-.30859-3.68548-26.001806-10.2142-51.931502-19.55468-77.023441-5.01837-13.481151-11.45735-28.085711-15.18946-34.9648434-1.45501-2.778926-2.50048-4.4194392-2.78711-4.13281248-.008.008493-.00072.0771616-.006.0976563-.00019-.00026196-.002.00026176-.002 0-.23211-.31613423-.41122-.51585556-.50976-.53515625zm137.91211 31.24804687c-1.70775.595397-15.03034 24.56471-24.18946 43.619141-12.56253 26.134829-20.66555 48.759439-25.17578 70.869139-.3022 1.29332-.59965 2.5836-.875 3.85352-.64599 2.97925-1.1876 6.5572-1.64453 10.46679-.44202 2.94328-.74811 5.84113-.96094 9.03516-.4047 4.34426-.68352 8.70868-.83789 13.11719-.02.57056-.0221 1.10564-.0391 1.66992-.0523 1.48994-.0861 2.9726-.10156 4.44531-.17108 10.88165.28245 20.73583 1.67968 30.60156.35244 2.97149.76895 5.66177 1.25977 7.94141.24518 1.13875.50145 2.26055.75781 3.38086 4.66531 21.84156 14.24693 45.84681 31.80078 83.28711 10.74346 22.91456 17.35156 41.17276 22.06446 61.12891 1.25961 5.74484 2.25102 11.34021 3.00586 16.80273.52401 4.66129.86644 9.63987 1.04687 14.67578.0189 2.41128.0267 5.02968.0234 8.05859-.003 2.98256-.0129 5.56577-.0312 7.90821-.29161 7.68997-1.0065 14.84913-2.15039 20.50195-.23396 1.0869-.48094 2.16657-.74414 3.23828-.0294.11166-.0542.24164-.084.35156-3.38916 12.49266-8.34654 23.73189-14.91211 33.79883-4.14523 6.2022-8.97407 12.07002-14.51562 17.59766-3.57014 3.56117-7.38541 6.95642-11.32227 10.10937-.39808.30709-.78021.62414-1.18359.92774-9.19069 6.91712-24.56902 15.51054-31.46875 17.58398-4.3345 1.30256-1.96675 2.53936 9.91797 5.17969 5.64519 1.25414 14.89367 1.83738 24.86719 1.85156 1.40161.0311 2.80704.0644 4.22265.084 5.35777.074 10.64421-.18591 15.8418-.74024 6.33309-.31203 10.44904-.80743 14.69922-1.77148 2.12347-.36779 4.05626-.7687 5.66797-1.21289 27.22616-7.5036 52.78503-24.19025 68.12695-44.47656 1.56004-2.06281 3.21795-4.562 4.88867-7.30469 4.78326-7.21383 8.67487-14.93071 11.61328-23.03516 1.48678-3.63824 2.69532-7.0478 3.4707-9.92578 1.00025-3.71259 1.77407-8.78059 2.28907-14.24609.76825-5.73515 1.03177-11.47628.69922-17.43555-.0766-4.65267-.38829-8.86459-.97461-11.97852-5.68147-30.17402-20.24383-59.1533-67.8418-135.00586-10.58395-16.86666-21.80483-35.76667-24.93555-42-12.5096-24.90693-19.56838-53.28954-21.11133-83.0957-.0897-3.81652-.13066-7.85889-.12304-12.23828.009-5.0125.0534-9.39098.13672-13.33594 1.19875-22.942612 5.54258-46.366601 13.08789-69.400388 1.62397-4.957527 2.8954-9.232328 3.60156-11.951171.14923-.438502.29026-.873077.44141-1.3125.20271-.589318.21254-.824745.0625-.757813.0861-.457162.13073-.79114.0781-.84375-.001-.0014-.004.0013-.006 0-.0004-.000466.00042-.0054 0-.0059-.002-.0022-.009.0052-.0117.0039-.0292-.02034-.0637-.03222-.11132-.01563z" fill="#f1f1f1" stroke-width="1.333333"/></svg>