<!-- Generated by IcoMoon.io -->
<svg version="1.1" xmlns="http://www.w3.org/2000/svg" width="32" height="32" viewBox="0 0 32 32">
<title>OstronSigil</title>
<path d="M12.787 0.004c-0.001 0 0.006 0.020 0.005 0.021-0.003 0-0.014-0.017-0.016-0.016-0 0 0.003 0.013 0.003 0.013-0.035-0.031-0.042-0.014 0 0.078 0.052 0.114 0.119 0.342 0.18 0.503 0.042 0.123 0.030 0.132 0.086 0.279 0.112 0.293 0.193 0.541 0.273 0.789 0.024 0.077 0.046 0.153 0.068 0.229 0.061 0.211 0.11 0.398 0.156 0.586 0.018 0.080 0.045 0.162 0.060 0.242 0.013 0.062 0.019 0.123 0.031 0.185 0.043 0.264 0.078 0.531 0.096 0.828 0.021 0.335 0.027 0.702 0.026 1.13-0.001 0.622-0.013 1.024-0.044 1.359-0.003 0.028-0.004 0.058-0.008 0.086-0.015 0.14-0.054 0.259-0.078 0.383-0.056 0.262-0.121 0.522-0.201 0.781-0.060 0.183-0.123 0.365-0.193 0.544-0.042 0.113-0.091 0.226-0.138 0.339-0.745 1.746-1.994 3.36-4.089 5.289-0.358 0.327-0.806 0.721-1.279 1.13-0.19 0.162-0.363 0.317-0.565 0.484-1.498 1.242-2.639 2.244-3.391 2.974-0.244 0.237-0.509 0.557-0.768 0.896-0.122 0.148-0.225 0.294-0.328 0.438-0.033 0.047-0.081 0.099-0.112 0.146-0.013 0.019-0.021 0.041-0.034 0.060-0.118 0.176-0.224 0.352-0.318 0.526-0.088 0.151-0.153 0.28-0.219 0.414-0.005 0.011-0.011 0.023-0.016 0.034-0.062 0.129-0.138 0.272-0.172 0.375-0.117 0.359-0.192 0.715-0.25 1.068-0.008 0.043-0.021 0.081-0.029 0.125-0.024 0.136-0.032 0.274-0.044 0.411-0.002 0.023-0.006 0.047-0.008 0.070-0.020 0.261-0.027 0.524-0.008 0.786 0.010 0.143 0.033 0.285 0.055 0.427 0.102 0.761 0.358 1.476 0.758 2.128 0.108 0.176 0.223 0.348 0.352 0.513 0.053 0.070 0.11 0.138 0.167 0.206 0.065 0.076 0.121 0.156 0.19 0.229 0.339 0.357 0.435 0.467 0.367 0.5-0.001 0-0.002-0-0.003 0-0.014 0.006-0.043 0.006-0.068 0.008l-0.138-0.010c-0.089-0.004-0.218-0.033-0.326-0.050-0.166-0.025-0.33-0.053-0.56-0.112-0.334-0.092-0.714-0.211-1.198-0.388-0.149-0.055-0.142-0.037-0.271-0.081-0.039-0.015-0.084-0.026-0.122-0.042-0.34-0.137-0.503-0.187-0.557-0.161-0.010 0-0.109-0.038-0.109-0.034 0 0.115 0.667 0.792 1.292 1.362 0.041 0.036 0.072 0.066 0.115 0.102 0.132 0.118 0.272 0.266 0.388 0.359 1.7 1.364 3.726 2.272 6.052 2.729 0.093 0.019 0.185 0.042 0.279 0.060 0.431 0.081 0.862 0.148 1.287 0.19 0.019 0.002 0.050 0.001 0.070 0.003 0.004 0 0.009 0.002 0.013 0.003 0.203 0.018 0.454 0.027 0.711 0.034 0.224 0.011 0.444 0.018 0.672 0.021 0.063 0.001 0.179 0.003 0.242 0.003 0.062-0 0.169-0.006 0.234-0.008 0.782-0.011 1.55-0.063 2.26-0.167 0.021-0.003 0.074-0.005 0.094-0.008 0.046-0.008 0.082-0.020 0.128-0.029 0.020-0.003 0.051-0.005 0.070-0.008 0.044-0.008 0.084-0.020 0.128-0.029 0.181-0.033 0.379-0.058 0.547-0.096 1.425-0.33 2.749-1.019 3.656-1.901 0.203-0.197 0.387-0.43 0.568-0.664 0.015-0.019 0.032-0.036 0.047-0.055 0.029-0.039 0.063-0.070 0.091-0.109 0.095-0.127 0.172-0.263 0.255-0.396 0.027-0.043 0.055-0.086 0.081-0.13 0.068-0.114 0.141-0.225 0.201-0.344 0.134-0.257 0.23-0.509 0.318-0.758 0.116-0.33 0.192-0.639 0.206-0.914 0-0.003 0.002-0.007 0.003-0.010 0-0.002-0-0.003 0-0.005 0.001-0.027 0.016-0.062 0.016-0.089v-0.117c0.001-0.021-0-0.034 0-0.052v-0.263l-0.682 0.406c-0.173 0.103-0.347 0.187-0.521 0.273-0.145 0.072-0.265 0.131-0.414 0.195-0.447 0.187-0.894 0.317-1.339 0.393-0.070 0.011-0.141 0.023-0.211 0.031-0.195 0.012-0.349 0.027-0.693 0.026-0.393-0.001-0.587-0.016-0.794-0.034-0.75-0.119-1.464-0.409-2.102-0.878-1.014-0.745-1.511-1.765-1.511-3.089 0.001-1.301 0.373-2.25 1.685-4.281 1.928-2.986 2.686-5.41 2.68-8.565-0-0.176-0.026-0.344-0.031-0.518-0.013-0.428-0.035-0.852-0.078-1.258-0.020-0.182-0.052-0.363-0.078-0.544-0.059-0.408-0.134-0.82-0.229-1.224-0.054-0.234-0.115-0.47-0.18-0.703-0.069-0.24-0.149-0.487-0.232-0.732-0.163-0.498-0.348-0.999-0.563-1.5-0.056-0.13-0.115-0.259-0.174-0.388-0.13-0.286-0.236-0.57-0.383-0.859-0.133-0.261-0.293-0.511-0.448-0.779-0.079-0.145-0.141-0.245-0.216-0.375-0.088-0.143-0.168-0.289-0.247-0.411-0.234-0.378-0.426-0.657-0.477-0.62zM24.004 1.851c-0.046-0.034-0.487 0.549-1.042 1.326-0.191 0.257-0.369 0.499-0.529 0.727-0.010 0.015-0.021 0.029-0.031 0.044-0.055 0.078-0.139 0.185-0.185 0.253-0.273 0.403-0.531 0.825-0.776 1.255-0.479 0.804-0.837 1.553-1.122 2.305-0.009 0.021-0.015 0.044-0.023 0.065-0.075 0.201-0.149 0.408-0.214 0.612-0.060 0.173-0.133 0.354-0.182 0.521-0.025 0.085-0.036 0.22-0.057 0.32-0.015 0.061-0.038 0.117-0.052 0.18-0.125 0.537-0.163 0.941-0.172 1.419-0 0.004 0 0.009 0 0.013-0 0.008 0 0.020 0 0.029-0.018 0.321-0.020 0.637 0 0.948 0 0.006 0.002 0.012 0.003 0.018 0.008 0.131 0.029 0.264 0.044 0.396 0.030 0.505 0.080 0.967 0.172 1.276 0.066 0.22 0.141 0.417 0.211 0.62 0.036 0.111 0.073 0.229 0.115 0.341 0.088 0.23 0.201 0.469 0.31 0.706 0.178 0.387 0.401 0.817 0.656 1.266 0.078 0.138 0.151 0.274 0.24 0.424 0.073 0.122 0.12 0.218 0.198 0.346 0.374 0.613 0.838 1.373 1.154 1.891 0.059 0.098 0.125 0.203 0.18 0.297 0.633 1.046 1.117 2.12 1.425 3.115 0.048 0.169 0.093 0.343 0.133 0.518 0.041 0.186 0.085 0.369 0.112 0.576 0.007 0.049 0.012 0.099 0.018 0.148 0.027 0.243 0.034 0.494 0.042 0.745 0.001 0.128 0.011 0.182 0.010 0.336-0.001 0.15-0.011 0.18-0.013 0.302-0.020 0.545-0.083 1.042-0.198 1.422-0.042 0.136-0.094 0.269-0.146 0.401-0.316 0.731-0.876 1.547-1.469 2.143-0.146 0.14-0.298 0.279-0.461 0.414-0.137 0.112-0.282 0.223-0.438 0.333-0.105 0.077-0.217 0.151-0.328 0.227-0.559 0.363-1.187 0.695-1.813 0.964-0.083 0.035-0.165 0.073-0.245 0.104-0.331 0.132-0.658 0.25-0.966 0.333-0.134 0.036-0.189 0.071-0.203 0.104l-0.125 0.042 0.185 0.036c0.003 0.003-0.027 0.014-0.021 0.016 0.051 0.014 0.322 0.059 0.526 0.094 0.113 0.022 0.126 0.037 0.281 0.063 0.081 0.013 0.226 0.015 0.323 0.026 0.018 0.003 0.041 0.008 0.057 0.010 0.073 0.012 0.234 0.015 0.336 0.023 0.025 0.002 0.056 0.003 0.083 0.005 0.007 0 0.012 0.002 0.018 0.003 0.008 0.001 0.046 0.007 0.052 0.008s0.060 0.002 0.068 0.003c0.125 0.007 0.227 0.014 0.362 0.018 0.076 0.002 0.156 0.004 0.237 0.005 0.147 0.004 0.272 0.007 0.453 0.005 0.154 0.003 0.187 0.009 0.352 0.010 0.502 0.003 0.993-0.025 1.477-0.068 0.602-0.037 1.154-0.086 1.513-0.159 0.784-0.159 1.535-0.406 2.255-0.688 1.023-0.4 1.933-0.902 2.672-1.477 0.085-0.065 0.166-0.131 0.247-0.198 0.123-0.104 0.273-0.2 0.383-0.307 0.067-0.066 0.124-0.138 0.188-0.206 0.023-0.023 0.043-0.047 0.065-0.070 0.132-0.144 0.26-0.29 0.378-0.443 0.115-0.144 0.219-0.291 0.318-0.44 0.026-0.040 0.048-0.080 0.073-0.12 0.077-0.124 0.166-0.245 0.232-0.372 0.035-0.069 0.057-0.125 0.089-0.19 0.001-0.002 0.002-0.003 0.003-0.005s0.001-0.005 0.003-0.008c0.323-0.667 0.49-1.201 0.523-1.773 0.059-0.516 0.040-1.021-0.089-1.487-0.132-0.48-0.341-0.975-0.615-1.505-0.172-0.336-0.396-0.705-0.654-1.099-0.122-0.187-0.255-0.39-0.398-0.594-0.219-0.31-0.476-0.651-0.75-1.008-0.714-0.937-1.555-1.99-2.737-3.383-1.034-1.218-1.57-1.866-1.985-2.401-0.109-0.14-0.191-0.247-0.271-0.354-0.052-0.072-0.111-0.15-0.159-0.219-0.074-0.108-0.159-0.223-0.227-0.328-0.041-0.063-0.071-0.123-0.109-0.185-0.107-0.183-0.207-0.367-0.302-0.555-0.003-0.006-0.005-0.012-0.008-0.018-0.159-0.316-0.295-0.64-0.419-0.969-0.024-0.065-0.052-0.128-0.076-0.193-0.107-0.301-0.196-0.607-0.273-0.917-0.025-0.1-0.048-0.201-0.070-0.302-0.065-0.296-0.117-0.596-0.156-0.898-0.014-0.11-0.026-0.22-0.036-0.331-0.020-0.207-0.026-0.416-0.034-0.625-0.001-0.124-0.011-0.216-0.010-0.352 0.001-0.438 0.024-0.838 0.055-1.229 0.011-0.108 0.030-0.217 0.044-0.326 0.041-0.309 0.087-0.619 0.154-0.93 0.022-0.101 0.053-0.203 0.078-0.305 0.079-0.325 0.161-0.652 0.268-0.977 0.010-0.030 0.024-0.061 0.034-0.091 0.131-0.386 0.278-0.769 0.448-1.151 0.103-0.231 0.103-0.277 0.164-0.438 0.17-0.318 0.208-0.424 0.156-0.398 0.001-0.006 0.025-0.054 0.023-0.055-0-0-0.008 0.010-0.008 0.010s0.005-0.013 0.005-0.013c-0-0-0.010 0.013-0.010 0.013s0.006-0.015 0.005-0.016z"></path>
</svg>
