<svg height="400.66324" viewBox="0 0 499.66547 400.66324" width="499.66547" xmlns="http://www.w3.org/2000/svg"><path d="m233.45117 0v1.6875l-.004 5.7675781-.24219 141.8046919-.25391 149.21289-7.5 5.81445c-18.61001 14.42613-40.33773 27.12535-55 32.14648-21.32826 7.30391-66.91161 10.43318-84.261717 5.81641-.102167-.0278-.204426-.0499-.306641-.0781-8.813729-2.4345-28.826787-11.99478-37.40029-17.87307-13.253404-9.08698-26.019012-31.73642-27.794922-48.34961-.202405-3.21609-.152922-6.55337.128906-9.82422 1.126094-10.30126 4.990756-19.75442 10.404297-24.88086l3.488281-3.30273-1.855468-3.44727c-.869548-1.61465-1.817847-2.96915-2.306641-3.33789l-.150391-.24805-.259765.21875c-.731348.37284-3.154329 2.32317-5.78125 4.67188-11.461169 10.24733-18.0189896 19.1441-21.3984378 29.65429-.026024.0777-.05857.15687-.083984.23438-.018898.0576-.03223.11441-.050781.17188-.1012904.32418-.1995695.65111-.2949218.97851-.098792.33902-.1937872.68657-.28125 1.0293-.8518484 3.15729-1.4564511 6.46424-1.8242188 10.01367-.76979648 7.42951-.48962937 14.3784.8964844 21.00976.3154019 2.75902.9182132 4.62797 2.0039062 7.25782 3.477609 10.064 9.7360034 19.48917 19.0156254 28.88867 34.20007 34.64188 103.772389 58.49785 189.613279 65.01758 3.09577.23512 8.58961.37338 15.03125.45508 5.94369.2061 15.49013.18846 26.02735.0117 8.25517-.0745 16.40052-.21311 23.92773-.40234l.625.0332-.008-.0488c10.29836-.26446 19.10726-.61268 23.39648-1.04297 104.60509-10.49383 179.55267-46.46971 196.20117-94.17774 2.21366-6.34347 2.55347-8.95555 2.50977-19.33398-.0779-18.48589-4.39357-29.57413-17.13672-42.80078-2.04066-2.19957-4.22417-4.33612-6.53125-6.36719-3.3435-3.10844-5.94009-5.33203-6.2793-5.33203-.008 0-.0193.009-.0273.01l-.17969-.15039-.24804.40625c-.56999.51846-1.43361 1.73794-2.19532 3.15235l-1.83984 3.41992 3.60742 3.60742c4.69312 4.69312 7.437 10.19737 9.17774 18.41016.91507 4.3173 1.39001 8.26185 1.38671 12.0957 0 .006.00001.0118 0 .0176-.006.8132-.0424 1.61246-.0703 2.41601-.41674 7.56751-2.76925 14.9163-7.38867 24.11524-5.57549 11.10282-13.30747 20.80651-20.51758 25.75-8.59593 5.89366-28.69467 15.49115-37.47265 17.89453-6.82342 1.86823-10.56094 2.18753-25.4961 2.17383-12.02276-.011-20.62985-.55931-27.5-1.75-5.5-.95323-12.475-2.12411-15.5-2.60352-18.88448-2.99285-48.59376-18.59004-71.25-37.40429l-6.25195-5.19141-.25195-147.64453-.2461-145.2656275v-4.45925438h-16.99609-14.01367zm50 38.957031v.0918 126.453122.0469.12695c.00037 69.51618.20739 126.37305.45899 126.37305.0115 0 .14006-.0729.17578-.0879.003.008.007.0879.01.0879 1.33213 0 25.0604-14.57905 40.72266-24.65821 6.68048-4.12449 12.02982-7.46703 12.47266-7.87109.10306-.094.17023-.31741.21679-.61719.55941-.42984.94813-.75735.95117-.85351.0261-.825-9.28351-50.4375-20.6875-110.25l-20.73461-108.750025h-6.79297-4.70312zm-73.5.0918c-.0678 0-.1241.0037-.1914.0039-2.34691.0087-3.82487.06849-4.75782.277344-.92256.129538-1.55043.289029-1.55078.46875-.00002.0122-.1755.937867-.1914 1.033203-.0474.148681-.0944.292293-.13672.466797-1.06127 4.37626-40.56033 212.291022-40.86328 215.095702-.06.55539-.0486 1.03648.20117 1.57422-.00027.005-.01.0589-.01.0625 0 .0209.0795.0889.11133.12891 1.17988 2.10141 6.28385 5.32492 25.88867 17.38672 13.59415 8.36374 25.24269 15.26661 27.32422 16.21289.0202.0106.42217.25539.42578.25585.0003.00004-.0003-.0444 0-.0449.00015.00005-.00014-.0214 0-.0215.99393.0786 1.25-25.81433 1.25-126.40039v-126.499999h-1-5.89062zm-78.07031 38.169919c-.13933-.18078-5.66563 3.298289-12.28125 7.730469-11.77471 7.88856-12.01941 8.126905-11.56641 11.328125.25451 1.7986 1.77971 16.274216 3.38868 32.167966.91603 9.04888 1.82721 16.93701 2.54687 22.41407.42797 3.91525.76105 6.79229.82227 6.85546.001.001.2696.16713.27343.16993.0318.10004.0615.17668.0859.19921.44125.40708 11.36472 7.32072 24.27539 15.36329 12.80303 7.97551 18.88427 11.61967 21.73633 12.80859.78298.45427 1.33603.76281 1.40234.76562.0443.002.10278-.0701.16993-.19726.54033.13701.71679-.002.71679-.31641 0-.003.0307-.14631.0312-.15234.007-.0173.021-.0285.0274-.0469.33549-.96841 2.55446-10.83421 4.93164-21.92382l4.32226-20.16211-20.31445-33.33789c-11.17309-18.335376-20.42899-33.48522-20.56832-33.666zm236.60156.583984c-.0518-.008-.0851-.0031-.0996.01367-2.28172 2.631823-26.40457 42.933434-36.02929 59.824214-.0749.12834-.15774.26959-.23047.39454l-3.80664 6.24218.10351.49414c-.12471.26765-.21076.4721-.20703.5293.11715 1.79366 8.03531 39.18617 8.80078 41.56055.24726.76694.94758.99321 1.68164.54297 4.13914-2.53875 47.27901-29.58164 47.38672-29.70508.341-.39081 4.61133-44.10438 5.89063-59.416017l.53125-5.191406-.14649-.09766c-.00034-.08791.0125-.307045.004-.314453-3.28808-2.836752-22.27299-14.630029-23.87891-14.876954zm-330.904295 45.339846-14.814453 16.02539c-8.146957 8.81452-14.9635866 16.4466-15.1484376 16.96094-.00698.0194.052369.16097.1328125.33984l-.171875.21094.3789062.6875c-.00192.20447.036775.38163.125.52929.213121.3567 4.6052849 8.35313 9.1503909 16.63086 17.882877 33.43034 55.293752 102.18437 63.976562 117.28516l2.451172 4.26367 5.146485-2.94531c2.830644-1.62076 17.521482-10.12576 32.646482-18.89844l27.5-15.94922 5.60742-28.86718c3.08322-15.8769 5.33322-29.14119 5-29.47461s-24.90742-15.8247-54.60742-34.42579c-29.699996-18.6011-57.009456-35.74536-60.687498-38.09765zm425.236325.49219-29.52148 18.53906c-35.49985 21.85752-90.44954 56.17422-92.09375 57.75586-.0918.0883-.0441.84025.0703 1.89258-.0491.19028-.0703.37311-.0488.54687.0204.16543.36159 1.98905.46289 2.57422 2.07272 13.91094 9.59629 52.33456 10.72657 53.46484.54576.54576 15.06669 9.1979 32.26757 19.22852s31.51326 18.27642 31.80665 18.32422c.41343.0673 75.44974-135.80615 76.78124-139.03321.0157-.0379-.0355-.14493-.11523-.28125l.0547-.0976-.63867-.71289c-3.51771-4.61025-20.55318-23.02774-27.05079-29.33008z" fill="#e5e5e5"/></svg>