<?xml version="1.0" encoding="UTF-8" standalone="no"?>
<!-- Created with Inkscape (http://www.inkscape.org/) -->

<svg
   xmlns:dc="http://purl.org/dc/elements/1.1/"
   xmlns:cc="http://creativecommons.org/ns#"
   xmlns:rdf="http://www.w3.org/1999/02/22-rdf-syntax-ns#"
   xmlns:svg="http://www.w3.org/2000/svg"
   xmlns="http://www.w3.org/2000/svg"
   xmlns:sodipodi="http://sodipodi.sourceforge.net/DTD/sodipodi-0.dtd"
   xmlns:inkscape="http://www.inkscape.org/namespaces/inkscape"
   width="400"
   height="300"
   viewBox="0 0 105.83334 79.374998"
   version="1.1"
   id="svg8"
   inkscape:version="0.92.4 (5da689c313, 2019-01-14)"
   sodipodi:docname="Simaris.svg">
  <defs
     id="defs2" />
  <sodipodi:namedview
     id="base"
     pagecolor="#ffffff"
     bordercolor="#666666"
     borderopacity="1.0"
     inkscape:pageopacity="0.0"
     inkscape:pageshadow="2"
     inkscape:zoom="0.98994949"
     inkscape:cx="206.09153"
     inkscape:cy="102.85714"
     inkscape:document-units="px"
     inkscape:current-layer="layer1"
     showgrid="false"
     units="px"
     inkscape:window-width="1680"
     inkscape:window-height="987"
     inkscape:window-x="-8"
     inkscape:window-y="-8"
     inkscape:window-maximized="1" />
  <metadata
     id="metadata5">
    <rdf:RDF>
      <cc:Work
         rdf:about="">
        <dc:format>image/svg+xml</dc:format>
        <dc:type
           rdf:resource="http://purl.org/dc/dcmitype/StillImage" />
        <dc:title></dc:title>
      </cc:Work>
    </rdf:RDF>
  </metadata>
  <g
     inkscape:label="Layer 1"
     inkscape:groupmode="layer"
     id="layer1"
     transform="translate(0,-217.62501)">
    <path
       id="path3738"
       transform="matrix(0.26458334,0,0,0.26458334,0,217.62501)"
       style="fill:#f2f2f2;stroke-width:0.60422826"
       d="m 186.74023,12.279297 v 2.675781 l -0.14843,98.921872 v 0.0508 l -0.0274,18.35743 -0.11133,73.86914 c -0.0989,5.75071 -0.22782,8.69318 -0.39648,9.38476 l -10.04102,5.84766 c -24.50923,14.27662 -41.7932,21.76109 -56.82617,24 -3.28393,0.43426 -6.65623,0.67629 -9.92773,0.70117 -0.61405,0.002 -1.22217,-0.009 -1.83008,-0.0195 -0.35981,-0.006 -0.7166,-0.014 -1.07226,-0.0254 -2.55106,-0.13064 -5.0767,-0.41515 -7.605474,-0.84961 -18.618251,-3.19877 -38.744669,-15.42719 -47.380859,-28.78906 -3.026145,-4.68203 -4.605496,-9.29962 -4.734375,-14.44336 0.009,-0.72217 0.02195,-1.44843 0.06445,-2.3711 0.02164,-0.46967 0.0588,-0.89949 0.08984,-1.34375 0.562911,-5.4753 2.606537,-11.62894 6.185547,-19.08593 0.461302,-0.96114 0.850285,-1.85284 1.195312,-2.68946 l 1.066406,-2.2539 c 0.03551,-0.0438 0.06094,-0.098 0.07617,-0.16211 l 0.462891,-0.98047 -0.441406,-0.60156 c -0.0017,-0.006 -5.8e-5,-0.0194 -0.002,-0.0254 -0.189279,-0.59638 -1.45403,-2.27859 -2.810547,-3.73829 l -2.466797,-2.65429 -3.898438,4.23047 c -10.319877,11.19571 -15.480979,18.90393 -17.800781,26.58593 -0.431993,1.43054 -0.730639,3.10726 -0.90625,4.90625 -0.355719,2.69913 -0.334932,5.41235 0.01367,8.1875 0.265724,2.81745 0.793381,5.53043 1.572265,7.75196 1.155229,3.29492 2.587022,6.5127 4.267579,9.64258 0.256217,0.47718 0.517123,0.95285 0.785156,1.42578 0.150514,0.26741 0.304105,0.53431 0.458984,0.80078 0.138387,0.23704 0.278571,0.47306 0.419922,0.70898 0.209133,0.34993 0.422079,0.69871 0.638672,1.04688 0.138788,0.22309 0.278475,0.44591 0.419922,0.66797 0.216162,0.33888 0.435043,0.6766 0.658203,1.01367 0.177222,0.26851 0.35794,0.53581 0.539062,0.80273 0.150518,0.22088 0.299625,0.44208 0.453126,0.66211 0.338479,0.48767 0.685638,0.971 1.037109,1.45313 0.01274,0.0174 0.02435,0.0354 0.03711,0.0527 8.397514,11.49915 20.467915,21.40217 35.34375,28.78711 6.864219,3.40766 13.723277,6.3821 20.734375,8.9668 0.03194,0.0145 0.344748,0.14772 0.367188,0.1582 0.234644,0.1096 1.053298,0.38184 2.076172,0.70703 20.161259,7.13573 41.704999,11.11696 68.316409,12.81836 2.1842,0.13964 8.98545,0.18563 17.58789,0.17383 16.1152,0.23454 34.44428,0.0449 49.0039,-0.49414 7.51165,-0.14727 13.09929,-0.31315 14.67774,-0.47852 19.99057,-2.09442 37.64583,-5.81137 54.1289,-11.44336 1.96117,-0.59239 3.40167,-1.0612 3.87696,-1.2832 0.0818,-0.0382 1.13683,-0.48645 1.33984,-0.57617 6.74029,-2.50817 13.30577,-5.34288 19.76367,-8.54883 3.5075,-1.74125 6.83877,-3.63751 10.02344,-5.64648 0.25181,-0.15789 0.50443,-0.31527 0.75391,-0.47461 0.59182,-0.38023 1.18177,-0.76133 1.76172,-1.15039 0.92378,-0.61653 1.83398,-1.2433 2.72461,-1.88086 0.23773,-0.17075 0.46954,-0.34531 0.70507,-0.51758 0.90796,-0.66231 1.79881,-1.3347 2.67188,-2.01953 0.16259,-0.12752 0.32685,-0.25455 0.48828,-0.38282 0.94691,-0.7529 1.87372,-1.51878 2.7793,-2.29882 0.34917,-0.29954 0.68813,-0.605 1.03125,-0.90821 0.46053,-0.40918 0.91568,-0.82175 1.36523,-1.23828 9.6749,-8.90067 16.8037,-19.28018 20.75391,-30.54687 1.07028,-3.05265 1.65559,-7.02997 1.74804,-10.93555 6.8e-4,-0.0235 0.001,-0.0469 0.002,-0.0703 0.0665,-1.55745 0.0195,-3.07621 -0.14063,-4.54883 -0.16907,-1.94178 -0.46965,-3.76114 -0.93164,-5.29102 -0.40743,-1.34922 -0.90862,-2.70071 -1.50391,-4.07031 -0.0758,-0.17451 -0.15133,-0.35021 -0.23046,-0.52539 -0.52299,-1.20133 -1.11248,-2.39019 -1.78125,-3.5625 -0.2354,-0.41262 -0.50623,-0.85841 -0.8086,-1.33203 -0.004,-0.007 -0.0111,-0.0145 -0.0156,-0.0215 -2.9772,-4.93951 -7.29197,-10.3817 -13.46094,-17.07422 l -3.89844,-4.23047 -2.46679,2.65429 c -1.35652,1.4597 -2.62127,3.14191 -2.81055,3.73829 -0.002,0.006 -1.6e-4,0.0205 -0.002,0.0273 l -0.43946,0.59961 0.46094,0.97461 c 0.0156,0.0686 0.0417,0.12609 0.0801,0.17187 l 1.0625,2.2461 c 0.34538,0.83773 0.73519,1.73061 1.19726,2.69336 3.44601,7.17987 5.44403,13.00953 6.1211,18.14062 0.0661,0.73279 0.11744,1.48899 0.15429,2.28906 0.0739,1.60327 0.0543,3.0827 -0.0586,4.48633 -0.17279,1.50179 -0.47668,2.96237 -0.91406,4.40235 -5.65045,18.6029 -34.06778,36.44098 -59.13086,37.57421 -0.1947,0.005 -0.38809,0.0122 -0.58399,0.0156 -0.6369,0.0115 -1.27433,0.0219 -1.91796,0.0195 -2.33948,-0.0192 -4.73135,-0.13532 -7.10743,-0.36523 -15.58588,-1.65966 -33.07229,-8.88379 -59.59961,-24.33594 l -10.04296,-5.84766 c -0.16834,-0.69072 -0.29573,-3.6282 -0.39454,-9.35742 l -0.13867,-92.25391 -0.15039,-99.007808 v -2.640625 h -0.004 -13.28907 -13.28906 z m -9.66796,26.539062 -1.44141,0.04492 h -3.91406 -5.35352 v 0.002 h -0.0703 -0.4375 l -14.4043,75.958986 -14.40234,75.96094 0.0684,0.0449 -0.0195,0.0976 1.53906,0.90235 c 0.99279,0.64383 8.98189,5.43525 18.15625,10.88672 4.6715,2.77583 8.59131,5.0225 11.7168,6.74414 1.93042,1.16444 3.42865,2.07915 3.72851,2.29492 0.83081,0.59781 2.25994,1.09608 3.17383,1.10742 l 1.34766,0.0137 0.3125,0.006 v -0.002 -87.00781 -0.0215 -0.002 -86.984376 -0.002 z m 45.92187,0 v 0.002 0.04297 0.002 86.984376 0.002 0.0215 87.00976 h 1.11328 0.31836 0.0586 c 0.008,0 0.0549,-0.0235 0.0664,-0.0254 0.96231,-0.1286 4.53732,-1.91017 8.18164,-4.08984 1.14075,-0.68227 3.80403,-2.24346 5.59766,-3.30664 9.50193,-5.36757 20.78715,-11.9541 23.54883,-13.8711 l 1.0957,-0.64257 -0.36719,-1.87305 c -0.0944,-0.48373 -4.42442,-23.30226 -6.76953,-35.65039 -2.13171,-11.53787 -4.50768,-24.28843 -7.23437,-38.66797 L 234.21289,38.865234 h -0.4375 -0.0703 v -0.002 h -5.35547 -3.91406 z m -104.0957,26.447266 c -0.2061,0.0099 -0.4343,0.03445 -0.69141,0.06445 -0.24804,0.02896 -0.57914,0.131708 -0.95117,0.267578 -0.82039,0.09324 -1.69539,0.546872 -2.73047,1.216797 -0.95123,0.544788 -2.20858,1.367581 -3.68555,2.367188 -0.51894,0.337433 -1.00051,0.636184 -1.55859,1.013671 l -6.83008,4.621094 0.004,1.339844 c -0.13639,0.247864 -0.20828,0.46091 -0.13086,0.591797 0.0161,0.02724 0.0535,0.513457 0.0781,0.71875 5.3e-4,0.05261 0.008,0.108839 0.01,0.162109 -0.001,0.214714 -0.01,0.411003 -0.002,0.652344 0.012,0.521769 0.0491,1.124226 0.0996,1.775391 0.21348,7.377775 1.6945,33.203769 2.27148,39.960939 l 0.006,0.10351 0.0547,1.36719 0.0195,0.0117 0.006,0.11523 1.51367,0.94532 c 1.81047,1.19993 7.52592,4.85403 15.29102,9.75586 9.03562,5.70387 16.70086,10.39138 17.0332,10.41406 0.0746,0.005 0.16355,-0.002 0.25781,-0.0156 0.0105,0.004 0.11684,0.0683 0.12109,0.0684 0.18603,0.005 0.37404,-0.10852 0.57032,-0.30078 0.11372,-0.0514 0.23916,-0.0904 0.33398,-0.15234 0.59212,-0.38669 4.3756,-12.06568 6.22461,-19.21485 0.94995,-3.67305 1.8843,-13.7679 1.30859,-14.13867 -0.31646,-0.20384 -9.04561,-14.157053 -14.83007,-23.599607 l -0.58789,-0.964844 c -1.7418,-2.850804 -3.24725,-5.337516 -3.95704,-6.574218 -0.57219,-0.996964 -2.5702,-4.27504 -4.4414,-7.283203 -0.49537,-0.796356 -0.80405,-1.267214 -1.17383,-1.847657 l -1.95313,-3.205078 -0.56445,-0.0078 c -0.34401,-0.196055 -0.68564,-0.249144 -1.11523,-0.228516 z m 162.27148,0 c -0.42814,-0.02058 -0.7685,0.03219 -1.11133,0.226563 L 279.49023,65.5 277.5,68.763672 c -0.36162,0.5685 -0.65667,1.019286 -1.13672,1.791016 -1.8712,3.008163 -3.87116,6.286239 -4.44336,7.283203 -0.69689,1.214244 -2.18678,3.674817 -3.88476,6.455078 l -0.73828,1.210937 c -5.78483,9.44068 -14.43485,23.269684 -14.75,23.472654 -0.57571,0.37085 0.35667,10.46562 1.30664,14.13867 1.09807,4.24569 2.86885,10.04869 4.25781,14.17579 0.0476,0.17021 0.21012,0.72072 0.24609,0.85156 0.36526,1.32865 0.90006,2.6952 1.3086,3.41601 0.18463,0.42763 0.33188,0.7191 0.4121,0.77149 0.10841,0.0708 0.22929,0.12331 0.34766,0.18359 0.12774,0.16778 0.23535,0.2793 0.29102,0.2793 0.002,0 0.0786,-0.0469 0.084,-0.0488 0.0517,0.0239 0.10361,0.0469 0.13867,0.0469 0.003,0 0.0783,-0.045 0.084,-0.0469 0.0421,0.008 0.10844,0.0385 0.14062,0.0391 0.22282,0.005 8.03956,-4.76909 17.3711,-10.60937 6.03529,-3.77727 9.91739,-6.22435 12.43164,-7.90821 l 4.32617,-2.69921 0.0469,-0.96875 c 0.12278,-0.2711 0.16211,-0.52119 0.16211,-0.79297 0,-0.96291 0.4357,-9.44021 0.96875,-18.83789 0.39748,-7.007495 0.70046,-13.199395 0.88086,-17.437503 0.10983,-1.498111 0.17635,-2.719114 0.21485,-3.785156 0.0704,-0.837597 0.095,-1.533797 0.0898,-2.146485 0.005,-0.212431 -0.003,-0.409768 -0.0137,-0.609375 -0.008,-0.136872 -0.0106,-0.284692 -0.0234,-0.408203 -0.009,-0.08004 -0.0178,-0.158062 -0.0293,-0.234375 -7.9e-4,-0.0056 -0.001,-0.01197 -0.002,-0.01758 l 0.0293,-1.511719 -6.83203,-4.621094 c -1.10825,-0.749627 -2.13788,-1.417382 -3.08594,-2.005859 -0.51974,-0.333919 -1.06252,-0.684172 -1.49805,-0.945312 -1.3428,-0.915552 -2.39813,-1.533144 -3.38672,-1.646485 -0.37278,-0.136241 -0.70665,-0.238569 -0.95507,-0.267578 -0.25712,-0.03002 -0.48336,-0.05455 -0.68946,-0.06445 z M 56.730469,94.738281 c -0.200348,0.01136 -0.539574,0.196953 -1.001953,0.529297 -0.726902,0.23033 -1.596966,0.957636 -2.791016,2.310547 -0.136216,0.154342 -0.698574,0.734778 -0.917969,0.972656 -1.887857,1.816069 -4.39593,4.335999 -7.693359,7.722659 -2.900808,2.97931 -5.463679,5.69321 -7.488281,7.89453 l -4.251953,4.30859 0.04492,0.082 -0.0098,0.01 0.183594,0.33984 c 1.95e-4,0.002 -0.01027,0.0137 -0.0098,0.0156 0.0931,0.34892 5.525519,10.55201 12.072266,22.67383 6.54675,12.12185 17.869508,33.1891 25.160156,46.81445 l 13.255859,24.77344 2.9375,0.35742 c 5.190474,0.63296 5.704353,0.57257 7.660156,-0.90039 1.631675,-1.22884 37.003591,-21.68115 38.447261,-22.23047 0.0158,-0.006 0.0511,-0.13904 0.0742,-0.19336 l 0.25977,-0.14648 0.0117,-0.0703 0.004,-0.002 0.0996,-0.59766 0.75,-4.38476 c 2.0203,-10.68706 5.78977,-33.99178 5.60352,-35.58594 -0.02,-0.17116 -0.0806,-0.34937 -0.17188,-0.53516 l 0.004,-0.96875 -5.03125,-3.23632 c -0.95424,-0.6488 -1.94178,-1.31647 -3.25976,-2.17579 -10.8901,-7.10029 -72.687894,-47.086259 -73.791021,-47.746089 -0.03951,-0.02363 -0.08948,-0.0347 -0.15039,-0.03125 z m 286.605471,0 c -0.0609,-0.0034 -0.11088,0.0076 -0.15039,0.03125 -1.10313,0.65983 -62.90092,40.645799 -73.79102,47.746089 -1.29867,0.84673 -2.26776,1.50056 -3.21289,2.14258 l -5.07812,3.26953 0.004,0.97071 c -0.0906,0.18496 -0.15195,0.36271 -0.17187,0.5332 -0.18638,1.59529 3.5882,24.92896 5.60742,35.60547 l 0.79883,4.66992 0.0508,0.30664 0.002,0.002 0.01,0.0566 0.25976,0.14648 c 0.0231,0.0543 0.0584,0.18734 0.0742,0.19336 1.5989,0.60835 36.84024,21.02706 38.33789,22.21289 1.64351,1.30137 2.20617,1.40159 6.04102,1.07617 1.1155,-0.0946 2.16265,-0.22115 2.98633,-0.34961 0.002,-2.7e-4 0.004,2.7e-4 0.006,0 6.9e-4,-1.1e-4 0.001,1.2e-4 0.002,0 0.89029,-0.13908 1.51517,-0.28173 1.62695,-0.39062 0.21532,-0.20969 9.49485,-17.37418 20.6211,-38.14453 11.12625,-20.77036 22.43948,-41.82318 25.13867,-46.78321 2.66226,-4.89214 4.82549,-9.03679 4.88476,-9.35156 l 0.0625,-0.11523 -0.008,-0.01 0.043,-0.0801 -0.0254,-0.0273 -1.09961,-1.11328 -1.06836,-1.08203 c -2.09667,-2.2566 -5.50881,-5.8366 -9.5625,-10 -3.3111,-3.40069 -5.82234,-5.92296 -7.71094,-7.738285 -0.20873,-0.226537 -0.75347,-0.788738 -0.88476,-0.9375 -1.19587,-1.354971 -2.0654,-2.081385 -2.79297,-2.310547 -0.46138,-0.331369 -0.79989,-0.518067 -1,-0.529297 z" />
  </g>
</svg>
