<!-- Generated by IcoMoon.io -->
<svg version="1.1" xmlns="http://www.w3.org/2000/svg" width="40" height="32" viewBox="0 0 40 32">
<title>Simaris</title>
<path d="M18.538 0.001v0.281l-0.017 11.522v0.006l-0.016 10.714v0.001c-0.011 0.652-0.026 0.999-0.045 1.088l-1.168 0.68c-2.885 1.68-4.908 2.552-6.671 2.799-0.006 0.001-0.011 0.002-0.017 0.002s-0.011 0.001-0.016 0.002c-0.342 0.041-0.69 0.063-1.029 0.067-0.093 0-0.185-0-0.277-0.002-0.324-0.013-0.645-0.047-0.966-0.102-2.163-0.372-4.501-1.792-5.504-3.345-0.354-0.548-0.538-1.087-0.551-1.69 0.001-0.079 0.004-0.164 0.008-0.264 0.003-0.065 0.008-0.125 0.012-0.185 0.070-0.629 0.307-1.335 0.717-2.188 0.056-0.116 0.104-0.226 0.145-0.327l0.114-0.242c0.008-0.007 0.013-0.017 0.014-0.031l0.051-0.108-0.051-0.070c-0-0.001 0-0.002-0-0.003-0.022-0.069-0.169-0.265-0.327-0.434l-0.287-0.308-0.453 0.491c-1.199 1.301-1.798 2.196-2.068 3.089-0.051 0.167-0.086 0.364-0.106 0.574-0.042 0.324-0.039 0.65 0.006 0.984 0.032 0.314 0.092 0.615 0.179 0.863 0.134 0.383 0.301 0.757 0.496 1.12 0.029 0.055 0.059 0.109 0.090 0.163 0.018 0.032 0.036 0.063 0.054 0.095 0.016 0.027 0.032 0.054 0.048 0.082 0.026 0.044 0.053 0.087 0.080 0.131 0.013 0.021 0.027 0.042 0.040 0.063 0.025 0.040 0.051 0.079 0.077 0.118 0.023 0.035 0.047 0.071 0.071 0.106 0.016 0.024 0.032 0.047 0.049 0.071 0.040 0.058 0.081 0.115 0.123 0.172 0.976 1.337 2.378 2.488 4.107 3.346 0.8 0.397 1.599 0.743 2.415 1.044 0.005 0.002 0.033 0.014 0.036 0.016 0.023 0.011 0.096 0.035 0.188 0.065 2.357 0.841 4.875 1.307 7.989 1.506 0.244 0.016 0.978 0.021 1.922 0.020 1.913 0.030 4.135 0.007 5.866-0.059 0.849-0.017 1.473-0.036 1.653-0.055 2.322-0.243 4.372-0.675 6.286-1.329 0.23-0.069 0.397-0.124 0.452-0.15 0.013-0.006 0.105-0.046 0.144-0.063 0.787-0.292 1.554-0.623 2.308-0.997 0.632-0.314 1.219-0.666 1.759-1.053 0.084-0.061 0.168-0.122 0.25-0.184 0.017-0.013 0.034-0.026 0.051-0.040 0.059-0.045 0.118-0.091 0.175-0.137 0.026-0.021 0.051-0.041 0.077-0.062 0.057-0.046 0.113-0.093 0.169-0.14 0.014-0.012 0.028-0.023 0.041-0.035 1.279-1.091 2.212-2.394 2.711-3.818 0.135-0.386 0.206-0.9 0.206-1.392 0.001-0.105-0.002-0.207-0.010-0.308-0.001-0.016-0.002-0.032-0.004-0.048-0.001-0.012-0.002-0.024-0.003-0.036-0.019-0.235-0.056-0.454-0.111-0.638-0.047-0.157-0.106-0.314-0.175-0.473-0.009-0.020-0.017-0.040-0.026-0.059-0.061-0.14-0.13-0.279-0.208-0.415-0.028-0.049-0.060-0.102-0.096-0.158-0.346-0.574-0.847-1.206-1.563-1.983l-0.453-0.491-0.287 0.308c-0.158 0.17-0.304 0.365-0.326 0.434-0 0.001 0 0.002-0 0.003l-0.051 0.070 0.051 0.108c0.002 0.013 0.006 0.023 0.014 0.030l0.115 0.244c0.041 0.1 0.089 0.209 0.145 0.325 0.4 0.834 0.632 1.511 0.711 2.107 0.008 0.085 0.014 0.173 0.018 0.267 0.008 0.185 0.007 0.355-0.006 0.517-0.020 0.176-0.056 0.347-0.107 0.515-0.67 2.206-4.095 4.318-7.049 4.369-0.043 0-0.085 0-0.128 0-0.315-0.003-0.639-0.023-0.957-0.059-1.774-0.222-3.778-1.065-6.776-2.811l-1.168-0.68c-0.019-0.089-0.033-0.435-0.044-1.084l-0.016-10.719-0.017-11.525v-0.283h-3.088zM17.415 3.084l-0.172 0.005h-1.131l-3.347 17.649 0.008 0.005-0.002 0.011 0.182 0.107c0.119 0.077 1.043 0.631 2.106 1.263 0.547 0.325 1.015 0.594 1.379 0.794 0.214 0.129 0.381 0.231 0.415 0.256 0.097 0.069 0.262 0.127 0.369 0.129l0.193 0.002v-20.216zM22.75 3.084v20.221h0.173c0.003 0 0.011-0.003 0.018-0.005 0.124-0.024 0.528-0.227 0.941-0.473 0.135-0.081 0.379-0.225 0.593-0.352 1.114-0.629 2.465-1.417 2.792-1.644l0.128-0.075-0.043-0.218c-0.011-0.056-0.514-2.706-0.786-4.139-0.248-1.341-0.524-2.823-0.841-4.495l-1.672-8.816h-1.137zM10.691 6.156c-0.033-0.001-0.070 0.003-0.114 0.008-0.029 0.003-0.068 0.015-0.111 0.031-0.095 0.011-0.196 0.063-0.316 0.141-0.106 0.061-0.237 0.145-0.4 0.255-0.067 0.043-0.137 0.089-0.21 0.139l-0.794 0.537 0.001 0.15c-0.020 0.033-0.025 0.058-0.015 0.074 0.002 0.004 0.005 0.024 0.009 0.059-0 0.004-0 0.007-0 0.011-0.001 0.033-0 0.071 0.001 0.11 0.001 0.061 0.006 0.132 0.012 0.208 0.025 0.862 0.197 3.855 0.264 4.639l0.007 0.171 0.002 0.001 0.001 0.013 0.107 0.067c0.217 0.143 0.949 0.611 1.845 1.176 1.050 0.663 1.94 1.207 1.979 1.21 0.008 0.001 0.018-0.001 0.029-0.002 0.004 0.002 0.014 0.008 0.015 0.008 0.022 0.001 0.043-0.009 0.066-0.032 0.014-0.006 0.027-0.013 0.039-0.021 0.069-0.045 0.508-1.402 0.723-2.232 0.11-0.427 0.219-1.599 0.152-1.642-0.036-0.023-1.029-1.61-1.701-2.707l-0.297-0.487c-0.108-0.178-0.2-0.332-0.252-0.423-0.066-0.116-0.299-0.497-0.516-0.846-0.065-0.104-0.116-0.186-0.163-0.258l-0.2-0.329-0.065-0.001c-0.031-0.018-0.061-0.025-0.096-0.027zM29.474 6.156c-0.035 0.001-0.065 0.009-0.096 0.027l-0.065 0.001-0.198 0.325c-0.047 0.073-0.099 0.156-0.165 0.262-0.217 0.349-0.45 0.73-0.516 0.846-0.060 0.104-0.171 0.288-0.299 0.5l-0.24 0.394c-0.672 1.097-1.675 2.7-1.712 2.724-0.067 0.043 0.042 1.216 0.152 1.642 0.128 0.494 0.334 1.17 0.495 1.649 0.005 0.019 0.024 0.082 0.028 0.097 0.043 0.157 0.108 0.323 0.155 0.405 0.020 0.046 0.036 0.075 0.045 0.081 0.013 0.009 0.028 0.017 0.042 0.024 0.014 0.018 0.026 0.030 0.032 0.030 0 0 0.008-0.005 0.010-0.005 0.006 0.003 0.012 0.005 0.016 0.005 0 0 0.007-0.004 0.008-0.004 0.007 0.002 0.013 0.003 0.018 0.003 0.026 0.001 0.934-0.554 2.018-1.232 0.7-0.438 1.151-0.722 1.443-0.918l0.503-0.314 0.005-0.112c0.014-0.032 0.019-0.061 0.019-0.092 0-0.112 0.051-1.097 0.113-2.188 0.046-0.813 0.088-1.646 0.109-2.138 0.009-0.132 0.016-0.256 0.020-0.356 0.007-0.093 0.012-0.177 0.010-0.245 0-0.045-0.003-0.087-0.009-0.125l0.003-0.174-0.794-0.537c-0.092-0.062-0.177-0.118-0.259-0.17-0.105-0.069-0.194-0.125-0.273-0.173-0.156-0.106-0.279-0.178-0.394-0.191-0.043-0.016-0.082-0.028-0.111-0.031-0.045-0.005-0.082-0.009-0.114-0.008zM3.435 9.58c-0.023 0.001-0.063 0.023-0.116 0.061-0.084 0.027-0.186 0.111-0.325 0.268-0.018 0.020-0.060 0.065-0.090 0.097-0.221 0.212-0.517 0.509-0.91 0.913-0.339 0.348-0.638 0.665-0.874 0.921l-0.49 0.497 0.005 0.009-0.001 0.001 0.021 0.039c0 0.001-0.001 0.002-0.001 0.002 0.011 0.041 0.642 1.226 1.403 2.634s2.076 3.856 2.923 5.438l1.54 2.878 0.341 0.042c0.603 0.074 0.663 0.067 0.89-0.105 0.19-0.143 4.299-2.519 4.467-2.583 0.003-0.001 0.007-0.011 0.011-0.024l0.027-0.015 0.001-0.008 0-0 0.010-0.059 0.083-0.487c0.234-1.231 0.678-3.981 0.657-4.167-0.002-0.020-0.009-0.041-0.020-0.063l0.001-0.112-0.553-0.356c-0.115-0.079-0.247-0.167-0.41-0.273-1.265-0.825-8.444-5.47-8.572-5.547-0.005-0.003-0.010-0.004-0.017-0.004zM36.73 9.58c-0.007-0-0.013 0.001-0.018 0.004-0.128 0.077-7.307 4.722-8.572 5.547-0.16 0.105-0.291 0.192-0.405 0.27l-0.558 0.359 0.001 0.112c-0.011 0.022-0.018 0.043-0.020 0.063-0.022 0.186 0.423 2.935 0.657 4.167l0.083 0.483 0.011 0.064 0 0 0.001 0.006 0.027 0.015c0.005 0.014 0.009 0.023 0.012 0.024 0.186 0.071 4.28 2.443 4.454 2.58 0.191 0.151 0.256 0.163 0.702 0.125 0.13-0.011 0.251-0.026 0.347-0.040 0-0 0.001-0 0.001-0s0-0 0-0c0.103-0.016 0.176-0.033 0.189-0.045 0.025-0.024 1.103-2.018 2.396-4.431s2.607-4.859 2.92-5.435c0.309-0.568 0.562-1.052 0.569-1.089l0.006-0.011-0.001-0.001 0.005-0.009-0.003-0.003 0-0-0.25-0.253c-0.243-0.262-0.641-0.679-1.113-1.164-0.394-0.404-0.689-0.701-0.91-0.912-0.029-0.032-0.071-0.076-0.089-0.096-0.139-0.157-0.24-0.242-0.324-0.268-0.054-0.039-0.093-0.060-0.116-0.061z"></path>
</svg>
