<!-- Generated by IcoMoon.io -->
<svg version="1.1" xmlns="http://www.w3.org/2000/svg" width="32" height="32" viewBox="0 0 32 32">
<title>SolarisUnited</title>
<path d="M29.592 0c-0.001 0-0.001 0-0.002 0-0.096 0.003-0.212 0.055-0.337 0.154-0.11 0.087-1.811 1.079-3.779 2.204-0.125 0.071-0.235 0.135-0.358 0.206-1.683 0.96-3.243 1.867-3.466 2.036-0.002 0.001-0.008 0.005-0.010 0.007l-0.058 0.046-0.198 0.138v15.079h0.226c0.016 0 0.031-0.001 0.047-0.003 0.007-0.001 0.015-0.001 0.023-0.003 0.005-0.001 0.011-0 0.016-0.001 0.092-0.011 0.179-0.037 0.215-0.067 0.024-0.020 0.063-0.047 0.106-0.074 0.015-0.009 0.031-0.018 0.047-0.027 0.037-0.013 0.075-0.022 0.107-0.022 0.019 0 0.039-0.003 0.057-0.007 0.056-0.013 0.106-0.045 0.123-0.082 0.013-0.028 0.613-0.373 1.48-0.859 0.268-0.148 0.485-0.267 0.782-0.431 0.583-0.323 1.252-0.692 1.883-1.038l3.302-1.804-0.001-0.236v-0.497l0.019-6.911c0.004-1.642 0.003-3.071-0.001-4.315 0.005-1.948 0.005-3.318-0.004-3.344-0.010-0.029-0.024-0.051-0.043-0.068-0-0-0-0.003-0-0.003-0.010-0.012-0.022-0.023-0.034-0.033-0.002-0.001-0.004-0.004-0.006-0.005-0.011-0.008-0.022-0.014-0.033-0.020-0.005-0.003-0.010-0.004-0.015-0.007-0.009-0.004-0.019-0.007-0.029-0.008-0.008-0.001-0.015-0.003-0.023-0.004-0.010-0.001-0.020-0.001-0.030-0.001-0.002 0-0.005-0.001-0.007-0zM2.234 0.127c-0.002 0-0.005 0.001-0.007 0.001-0.001 0-0.001 0-0.002 0.001s-0 0-0 0c-0.141 0.049-0.15 0.901-0.105 7.502l0.039 5.763v0.003l3.696 2.094c2.033 1.152 3.766 2.119 3.853 2.15 0.008 0.003 0.022 0.005 0.032 0.008 0.006 0.001 0.012 0.003 0.018 0.004 0.074 0.018 0.183 0.033 0.299 0.041 0.048 0.004 0.096 0.005 0.142 0.007l0.334 0.004v-13.055l-4.091-2.261c-2.25-1.244-4.141-2.261-4.202-2.261-0.001 0-0.003 0.001-0.004 0.001-0 0-0.001-0.001-0.002-0.001s-0 0-0 0h-0s-0-0-0-0zM12.981 6.162l-0.024 1.23c-0.014 0.676-0.013 4.809 0.001 9.183 0.007 2.249 0.014 3.809 0.022 4.97 0.004 0.835 0.011 1.433 0.019 1.869 0.017 0.868 0.044 1.113 0.088 1.113 0 0 0.001-0 0.001-0s0 0 0.001 0c0.003 0 0.011-0.003 0.017-0.005 0.003 0.001 0.006 0.001 0.009 0.001 0.072-0.003 1.423-0.705 3.001-1.563l2.87-1.563 0.039-6.909c0.022-3.803 0.026-7.203 0.009-7.554l-0.030-0.639h-0.219c-0.12 0-0.231 0.025-0.245 0.055-0.053 0.112-2.527 1.384-2.612 1.343-0.002-0.001-0.009-0.005-0.012-0.007-0.049-0.025-0.471-0.262-0.981-0.55-0.706-0.406-1.511-0.878-1.534-0.909-0.026-0.035-0.131-0.063-0.234-0.063h-0.080zM2.191 14.557c-0.012 0-0.022 0.001-0.032 0.003-0.001 0-0.003 0-0.004 0-0.003 0-0.008 0-0.011 0.001-0 0-0-0-0 0s-0 0-0 0h-0c-0 0-0-0-0.001 0h-0c-0.003 0.001-0.007 0.003-0.010 0.003s-0.006 0.001-0.008 0.003c-0 0-0.001 0-0.001 0s-0 0-0 0h-0c-0.002 0.001-0.004 0.003-0.006 0.004s-0.003 0.001-0.004 0.003-0.004 0.001-0.006 0.003c-0 0-0 0-0 0s-0 0-0 0h-0c-0 0-0.001 0.001-0.001 0.001s-0.001 0.001-0.002 0.001c-0.004 0.003-0.008 0.007-0.011 0.011-0 0-0 0-0 0s-0.001 0.001-0.001 0.001c-0.004 0.005-0.008 0.012-0.011 0.019-0.007 0.016-0.013 0.037-0.017 0.064-0.009 0.054-0.012 0.133-0.012 0.248v0c0 0.114 0.004 0.264 0.009 0.461 0 0.001-0 0.001 0 0.001s-0 0.001 0 0.001l0.022 0.83 4.128 2.248c2.27 1.236 4.186 2.25 4.257 2.253 0.047 0.001 0.085-0.005 0.115-0.029 0.006-0.005 0.012-0.011 0.018-0.017 0-0 0-0 0-0s0-0 0-0c0.019-0.015 0.035-0.033 0.044-0.053 0.044-0.097 0.057-0.423 0.048-0.747v-0c0-0.065-0-0.124-0.001-0.178s-0.002-0.103-0.004-0.147v-0c-0.002-0.044-0.005-0.084-0.008-0.12v-0c-0.004-0.036-0.008-0.068-0.013-0.097s-0.011-0.054-0.018-0.077v-0c0-0 0-0 0-0-0.007-0.023-0.015-0.043-0.024-0.062-0.002-0.004-0.004-0.007-0.006-0.009-0.007-0.022-0.015-0.041-0.024-0.050-0.004-0.004-0.016-0.013-0.028-0.021-0.004-0.004-0.007-0.009-0.011-0.013-0.224-0.215-8.187-4.539-8.359-4.539-0 0-0.001 0-0.001 0s-0 0-0 0-0.001 0-0.001 0h-0s-0-0-0-0c-0 0-0 0-0 0s-0 0-0 0zM2.249 17.378c-0.142 0-0.207 0.29-0.207 0.926 0 0.249-0.014 0.458-0.032 0.506-0.002 0.005-0.004 0.007-0.006 0.008-0.038-0.008-0.464-0.15-0.976-0.325-0.205-0.070-0.376-0.127-0.536-0.181-0.247-0.084-0.44-0.147-0.453-0.147-0 0-0 0.001-0.001 0.001s-0.003-0.001-0.003-0.001c-0 0-0.001 0.001-0.001 0.003-0.001-0-0.006-0.003-0.007-0.003-0.004 0-0.008 0.020-0.011 0.056-0.008 0.083-0.013 0.257-0.014 0.465-0.001 0.060-0.002 0.119-0.001 0.185l0.003 0.705 5.167 2.735c2.983 1.579 5.234 2.729 5.324 2.722 0.028-0.003 0.052-0.007 0.071-0.020 0.006-0.004 0.012-0.009 0.018-0.017 0-0-0-0 0-0 0.006-0.007 0.011-0.015 0.015-0.025 0-0-0-0 0-0v-0c0.005-0.009 0.009-0.021 0.013-0.035v-0c0.004-0.013 0.008-0.029 0.011-0.047 0-0 0-0 0-0 0.017-0.089 0.027-0.234 0.035-0.473 0.006-0.191 0.010-0.443 0.016-0.773 0.012-0.758 0.003-1.444-0.021-1.526-0.032-0.108-1.172-0.776-4.169-2.443-2.269-1.262-4.175-2.295-4.235-2.295zM29.622 17.474c-0.167 0.017-1.445 0.694-4.163 2.203-2.219 1.232-4.079 2.287-4.133 2.344-0.108 0.115-0.147 2.902-0.041 2.99 0.031 0.026 0.119 0.034 0.195 0.017s2.474-1.265 5.329-2.775l5.191-2.745-0.001-0.59c-0.001-0.325-0.029-0.628-0.064-0.673-0.048-0.063-0.259-0.014-0.883 0.204-1.239 0.433-1.174 0.426-1.174 0.123 0-0.615-0.098-1.060-0.242-1.098-0.003-0.001-0.007-0.001-0.013-0zM18.938 23.295c-0.004-0.001-0.014 0.001-0.028 0.007-0.001-0-0.002-0-0.003-0-0.093-0.008-1.287 0.644-2.984 1.626-0.036 0.021-0.068 0.038-0.104 0.059l-2.92 1.673 0 0.058-0.004 1.826-0.004 1.884 0.039 0.024 0 0.011 0.622 0.367c0.278 0.167 0.649 0.387 1.030 0.611 0.491 0.289 0.941 0.526 1.046 0.554 0 0 0 0 0 0 0.006 0.001 0.015 0.005 0.019 0.005 0.048 0.001 0.089-0.003 0.124-0.015h0c0.012-0.004 0.023-0.009 0.033-0.015 0.009-0.005 0.018-0.012 0.026-0.019 0.001-0.001 0.002-0.001 0.003-0.003 0-0 0-0 0-0 0.005-0.005 0.010-0.011 0.014-0.016 0.004-0.004 0.007-0.008 0.011-0.012v-0s0-0 0-0c0-0-0-0 0-0 0.004-0.005 0.007-0.012 0.011-0.018s0.006-0.009 0.009-0.015c0-0.001 0.001-0.001 0.002-0.003 0-0 0-0 0-0.001s0-0 0-0v-0c0-0-0-0 0-0 0.004-0.008 0.008-0.019 0.012-0.028 0.002-0.005 0.005-0.009 0.007-0.015v-0c0-0 0-0 0-0 0.002-0.005 0.003-0.011 0.005-0.016 0.001-0.003 0.002-0.007 0.003-0.009 0.003-0.009 0.006-0.017 0.008-0.027 0-0 0-0 0-0s0-0 0-0c0.002-0.008 0.004-0.018 0.005-0.027 0.002-0.012 0.005-0.022 0.007-0.035v-0c0-0 0-0 0-0 0.003-0.017 0.004-0.039 0.007-0.057 0.002-0.014 0.003-0.028 0.005-0.043 0-0.004 0.001-0.007 0.001-0.011 0.001-0.015 0.004-0.027 0.005-0.044 0-0 0-0 0-0 0.004-0.057 0.007-0.122 0.009-0.194 0-0.003 0-0.004 0-0.007v-0c0-0 0-0 0-0.001s0-0 0-0 0-0 0-0c0.001-0.031 0.001-0.070 0.001-0.104 0.001-0.048 0.002-0.092 0.002-0.146v-0.728l0.812-0.463 0.724-0.411c0.845-0.48 1.57-0.926 1.612-0.991 0-0 0-0.001 0.001-0.001s0.002-0.001 0.002-0.001v-0s0-0 0-0c0-0 0-0.001 0-0.001s0-0 0-0 0.001-0.001 0.002-0.001c0.030-0.047 0.049-0.588 0.057-1.292 0-0 0-0 0-0.001 0-0.031 0-0.067 0.001-0.099 0.020-1.371 0.005-3.287-0.051-3.549-0.028-0.132-0.058-0.202-0.108-0.235-0.001-0.001-0.002-0.003-0.003-0.004-0.019-0.025-0.041-0.038-0.069-0.042z"></path>
</svg>
