<svg height="650.58972" viewBox="0 0 542.61206 650.58972" width="542.61206" xmlns="http://www.w3.org/2000/svg"><path d="m501.79297 0c-.34575 0-3.75373 2.3137031-7.57227 5.1425781-2.08822 1.5470122-12.10923 8.5065929-25.67578 17.8574219-.01.0067-.0215.01478-.0312.02148-.13353.07738-.26247.167694-.38672.265625-8.42186 5.80417-18.19557 12.516511-28.67383 19.695313-21.93036 14.884474-44.26621 30.26623-58.17578 40.146484-.73009.442578-1.37752.895333-1.84375 1.3125-1.30918.934449-2.56301 1.83116-3.68164 2.640625-1.65857.748319-3.91683 2.452521-5.96289 4.410157-.22528.174185-.4267.332563-.62109.486328-1.12924.850059-1.91286 1.465334-2.22266 1.759765l-.92578.88086-3.4082 2.847656v.390625 152.874998.0391.15625 153.072234h3.41015.32422.10352c.12548 0 .25516-.0133.38281-.0195.0981-.005.19434-.004.29297-.0117.0182-.001.0365-.004.0547-.006.0665-.006.13253-.014.19922-.0215 1.75392-.17289 3.5045-.74669 4.1875-1.42969.40912-.40913 1.06786-.95039 1.79492-1.49414.35158-.26248.71875-.52494 1.08398-.77344.39923-.15036.78552-.24403 1.11713-.24403 1.076 0 2.95237-1.17338 4.16992-2.60742.42837-.50453 4.38724-3.30197 10.625-7.5586 7.42566-4.89767 16.76447-11.07251 27.00586-17.86523 3.83298-2.54227 8.23128-5.43902 12.38281-8.18555.0746-.0372.15048-.0739.19727-.13086 19.17692-12.6864 40.0363-26.4366 51.00781-33.59375l19.02539-12.41015c.062-.0375.24524-.15485.30274-.18946l5-3.00976v-.26172l.01-.006-.01-4.51172v-150.619c.34564-80.637084.49304-120.243187 0-139.847655v-16.2246094l-1.15625-.3027344c-.56762-2.51069577-1.32716-2.6757812-2.33008-2.6757812zm-463.91797 2.6660156c-.211397 0-.399452.2732691-.566406.9804688-.020982.0888728-.03828.2506114-.058594.3535156h-1.304688v133.85742c0 42.78993.06138 72.41914.216797 93.14258.01286 1.83432.03223 3.36061.04687 5.0332.04003 4.42674.08331 8.55673.134766 12.04883.0201 1.28337.04208 2.55847.06445 3.70703.05367 3.01957.106482 6.08536.171875 8.35156l.03125 12.2168v.0274.0156l39.152344 26.58789c.261261.19811.499725.35669.738281.50195l15.380859 10.44532 7.396485 5.02539c23.733593 16.12475 44.375283 30.00208 55.837893 37.58203.47439.3852.9342.76689 1.33984 1.12305 1.16427 1.02223 2.65112 1.88777 3.69727 2.20117.92468.60274 1.9476 1.27541 2.58203 1.67969.20679.27881.68345.56129 1.33594.81054.13035.0752.48459.30275.53906.32617 1.46666.63067 5.21731 1.18593 8.33398 1.23243l5.666028.08395v-132.60156-.05664-132.656253l-1.97656-1.310547-.0234-.404297-3.03125-1.621094-.004-.002-5.23437-3.470703-4.92188-3.263672c-.13979-.254403-.3976-.414383-.76562-.507812h-.002l-6.11523-4.054688c-.00068-.000625-.001-.0013-.002-.002-.29767-.271949-.60806-.494214-.91993-.660156-.17439-.11074-.35084-.210975-.52734-.298828-.001-.000665-.003-.0013-.004-.002l-.83007-.550782c-.007-.0046-.0127-.009-.0195-.01367-1.13672-.776723-2.36235-1.588995-3.70704-2.458985l-41.3123-27.388532c-17.907051-11.872096-34.150151-22.50573-46.80859-30.689453-.207897-.327033-.555176-.561607-.966797-.628906-3.613188-2.334008-7.053137-4.550144-9.9375-6.388672-.002-.0014-.0039-.0025-.0059-.0039-1.506812-1.083961-3.050923-2.2726928-4.257772-3.2988344-1.950165-1.6581569-4.658007-3.0529393-6.630859-3.5019531-1.48871-.8882997-2.562743-1.4980469-2.72461-1.4980469-.0014 0-.0025.00193-.0039.00195-.000491-.0000084-.0034-.00195-.0039-.00195zm184.05859 122.6679644c-.22264 0-.41939.37128-.5957 1.33204h-1.39258v185.33398 185.33398h1.38672c.002.0104.004.0307.006.041v.002c.12951.7024.27171 1.07755.42578 1.22071.0509.0472.10642.0679.16016.0684.002-.00002.01-.004.0117-.004.003.00016.006.004.01.004.31975 0 2.65464-1.31905 6.22657-3.4629 1.54525-.80631 3.22436-1.78182 4.83789-2.83593 4.18144-2.73173 9.25286-5.80745 11.26953-6.83399 1.55165-.78983 2.87718-1.77742 3.41015-2.48437 7.60993-4.81877 15.96288-10.15215 25.25586-16.1836l2.52149-1.63671c.26421-.0427.38471-.11439.35351-.22852l20.04102-13.00781c.50486-.035 1.39075-.6277 2.21484-1.4375l23.86914-15.49219v-.006-.0352l.33985-153.49023c0-.002-.00001-.002 0-.004.00001-.008-.00002-.01 0-.0176.00026-.1179-.00026-.15573 0-.27344.002-.81307.002-1.08812.004-1.89258.26439-119.90801.29007-145.03873-1.05078-150.04687-.004-.015-.008-.0342-.0117-.0488-.00043-.002-.002-.002-.002-.004-.00065-.002-.001-.005-.002-.008-.04-.14396-.0806-.26278-.12305-.375-.015-.0403-.0296-.0884-.0449-.125-.0335-.0789-.0685-.14034-.10352-.20313-.0264-.0482-.0528-.10285-.0801-.14258-.0235-.0337-.0481-.0579-.0723-.0859-.0421-.0496-.0848-.0984-.12891-.13281-.0147-.0113-.03-.0175-.0449-.0273-.051-.0341-.10262-.0647-.15625-.084-.0006-.00022-.001.00021-.002 0-.008-.003-.0169-.005-.0254-.008-.0006-.00019-.001.00019-.002 0-.12144-.0383-.24933-.0527-.38476-.0527-.005 0-.0148.004-.0195.004-.0117-.00009-.0214-.004-.0332-.004-.46262 0-2.04718.74212-4.28906 1.93945-.5874.19996-1.18998.47775-1.76953.81641-1.88394.92383-4.08263 2.21579-6.125 3.64648-.15915.11149-.31855.21516-.47852.32618-.67483.40344-1.39755.8442-2.10546 1.27343-.01.006-.0195.0116-.0293.0176-2.34325 1.41321-4.82887 2.94321-7.42383 4.57227-.006.004-.012.006-.0176.01-.0166.011-.0281.0161-.0449.0273-.29686.15389-.56302.32082-.80273.50781-.79286.49984-1.57253.98694-2.37696 1.5-4.73303 3.01869-9.23737 5.77654-13.0625 8.02148-5.4714 3.21004-9.52552 5.34815-10.89648 5.70899-.43458-.11009-.88863-.30507-1.39258-.56055-1.85775-1.18481-11.31471-7.55083-22.80273-15.36133-5.50948-3.74579-10.704-7.14131-14.91602-9.78906-.80017-.58797-1.50347-1.11201-2.03711-1.52539-.87996-.68166-2.03825-1.30092-3.19336-1.74805-.1815-.09-.35875-.17068-.53125-.23047-1.9453-1.12267-3.29965-1.81836-3.6543-1.81836-.005 0-.0102.006-.0156.006-.005-.00023-.0168-.006-.0215-.006-.012 0-.0233.0101-.0352.0117-.0115-.001-.0371-.0117-.0469-.0117zm-184.783199 170.66602c-.145519 0-.282472.005-.41211.0137-.13916.009-.268852.0263-.390625.0527-.0061.001-.01542.00057-.02148.002-.09503.0217-.180791.0574-.265625.0937-.01858.008-.04049.0108-.05859.0195-.0031.001-.0086.002-.01172.004-.06054.03-.112676.0751-.167968.11523-.03834.0276-.07934.0491-.115235.082-.02171.0201-.03971.0501-.06055.0723-.06567.0693-.130265.14035-.1875.23242-.07485.12042-.141862.26217-.203125.42773-.244372.66042-.385247 1.70921-.451171 3.36719-.000095.002.000093.004 0 .006-.0985 2.48468-.03071 6.33909.101562 12.3125.000341.0154-.000342.0256 0 .041l.373047 16.84179 58.757812 38.37891.002.002c.840977.74408 1.594641 1.26953 1.927735 1.26953.0052 0 .02524.009.03125.01l9.281253 6.0625c15.66204 10.23016 29.637 19.24224 41.60742 26.89453.1916.19811.41014.38892.6582.56445.63073.53059 1.21484.94348 1.59766 1.08008.1.0357.18615.0547.25781.0547.0495 0 .16265.0442.26563.082.00069.00026.001-.00025.002 0 5.04246 3.21659 10.03973 6.4033 13.86523 8.80274.013.008.0299.0192.043.0273 3.28919 2.15694 6.37249 4.09563 7.82617 4.88281.0956.0518.17926.085.27344.13477.004.002.006.004.01.006 3.3746 2.05394 5.50169 3.28176 5.7832 3.29492.96047.0449 1.68497-.184 2.23242-.9082.002-.002.004-.004.006-.006.33407-.31316.60539-.6844.76172-1.0918.75271-1.9615.97253-8.60208.81055-15.17773-.00007-.003.00006-.005 0-.008 0-5.27426-.11289-8.6729-.46094-11.02148-.17403-1.17429-.40786-2.08698-.71484-2.83985-.0259-.0634-.061-.11061-.0879-.17187-.00035-.001-.002-.003-.002-.004-.12793-.46065-.25939-.84389-.40234-1.0332-.0426-.0565-.21227-.19403-.31836-.29102-.83211-1.40456-2.01803-2.64488-3.00195-3.04687-.52019-.21253-2.83864-1.63809-5.85547-3.54688-15.26437-10.53349-48.29327-32.25622-77.863284-51.38476-.724972-.60514-1.4323-1.07464-1.951172-1.26172-2.665972-1.72309-5.480063-3.5585-8.058594-5.21875-.03101-.0204-.05909-.0385-.08984-.0586-7.260562-4.6747-13.991631-8.97741-20.058594-12.82813-.110107-.12443-.267451-.22042-.457031-.29297-1.495327-.94865-2.882735-1.8242-4.27539-2.70312-2.127226-1.36523-4.191362-2.66474-6.140625-3.86133-8.372496-5.22843-13.803494-8.47472-14.355924-8.47472-.01034 0-.01904-.00003-.0293 0-.000236 0-.0017 0-.002 0-.0014 0-.0025 0-.0039 0zm.888671 57.33398c-.133586 0-.257228.0146-.375.0391-.04806.008-.09859.0122-.144531.0234-.02079.005-.03835.0154-.05859.0215-.921296.25781-1.397776 1.13992-1.441407 2.27539-.955747 2.81196-1.408203 8.19317-1.408203 16.47266 0 3.84001-.142602 7.07321-.345703 8.90429-.287965.65317-.612423 1.10566-.976563 1.35352-.950787-.32487-3.585605-1.35863-7.019531-2.73242-1.107225-.44875-2.427224-.99653-3.695312-1.51758-.04872-.15082-.174612-.27173-.369141-.36133l1.074219-.61719-2.054688.42383c-1.40351-.57926-2.436129-.98861-3.945315-1.61915-8.7760861-3.66667-16.2678605-6.66602-16.6464845-6.66602-.0168547 0-.0323681.0276-.0488281.0527-.0156601-.004-.13973877-.0527-.14648438-.0527-.0676665 0-.13006309.403-.18554688 1.13086-.16141092 2.10261-.26010027 6.94921-.24609374 12.58204.00039492.21696-.00478471.39985-.00390625.61914l.05859372 14.33398 87.60937513 55.58984c27.386238 17.37724 50.937548 32.0714 67.232418 42.00782 1.01441.89712 2.09113 1.56387 2.79493 1.69922 1.2783.77609 2.753 1.68212 3.92187 2.38671.10657.10878.22452.20408.32617.31641 1.32732 1.46666 3.07004 2.68097 3.87305 2.69727.61598.0125 2.02827.71814 3.48047 1.6914.0511.69536.37899.95738.79297.57031.17333.12737.35039.2427.51953.375 1.72569 1.34986 3.40749 2.16614 4.88672 2.45899 1.39369.74945 2.24747 1.1501 2.44726 1.13086.80019-.0771 1.36205-.24019 1.76758-1.24805.0002-.0005-.0002-.001 0-.002v-.002c.002-.005.004-.0125.006-.0176.00006-.00016.002.00016.002 0 .38547-.16093.49587-.53178.29883-1.09571.0494-.23667.0972-.48837.14063-.77734 0 0 .002-.002.002-.002.1122-.24156.2121-.49688.28906-.7793.0405-.14858.0767-.49308.10938-.97461.0887-.27189.17897-.54442.27734-.80078.51856-1.35132.4957-1.83292-.18359-1.59961.0275-.93408.0483-2.13298.0664-3.38281.47349-2.87305.53584-8.24626.27735-18.58203-.00008-.003.00007-.007 0-.01.1863-14.97798.0262-28.37696-.3711-29.99609-.0434-.17679-.25723-.45881-.55273-.78907-.008-.1349-.0153-.37942-.0234-.50585-.00098-.0151-.0198-.0425-.0254-.0605-.003-.0626-.04-1.26514-.041-1.27344-.0368-.29351-4.48088-3.31582-9.88672-6.85742-.56108-.50275-1.20947-.92461-1.82813-1.19141-1.01004-.65716-1.98897-1.29554-3.01953-1.95898-3.96436-2.71106-7.91368-5.2993-10.76172-7-.14688-.10089-.34393-.23418-.49219-.33594-.0725-.083-.1622-.17485-.2207-.25-.001-.001-.00088-.003-.002-.004-.12682-.1632-.21952-.30642-.27344-.42773-.17152-.38591-.89951-.71431-1.79688-.88086-.8553-.58525-1.82457-1.24301-2.72265-1.85547-.56377-.66142-1.92119-1.58061-3.54102-2.41406-2.25519-1.53197-4.65691-3.1573-7.16015-4.84766-.68821-.70236-1.54508-1.28856-2.27735-1.53515-2.12427-1.4323-4.16207-2.80935-6.46093-4.35352-.34875-.25923-.69327-.50582-1.01368-.68164-2.09121-1.40393-4.4828-3.00115-6.71875-4.49805 0 0-.002-.002-.002-.002-.67493-.5678-1.313-1.01039-1.76172-1.17773-.001-.00048-.003-.001-.004-.002-.86336-.57761-1.73842-1.1626-2.62305-1.7539-.93111-.62237-1.8049-1.20999-2.75977-1.84766-.85857-.70797-1.6194-1.21918-2.22461-1.48828-.001-.0005-.003-.001-.004-.002-.00048-.00032-.001.00031-.002 0-.003-.001-.007-.005-.01-.006-.87973-.58708-1.59282-1.06823-2.49219-1.66797-2.78001-1.85385-5.18642-3.43539-7.89258-5.23438-.002-.001-.002-.003-.004-.004-1.34172-.95794-2.681646-1.86413-3.867191-2.56446-2.730017-1.81205-5.469343-3.63029-8.091797-5.36523-.0037-.003-.0081-.005-.01172-.008-.849149-.75002-1.661501-1.30442-2.16211-1.43555-.000434-.00029-.0015.00029-.002 0-1.102895-.72898-2.365556-1.57252-3.445312-2.28516-.104127-.0687-.228128-.15213-.332031-.2207-.366489-.24185-.808205-.53748-1.171876-.77734-.18726-.15305-.364745-.319-.55664-.46094-.692125-.51195-1.394688-.93626-2.013672-1.22656-1.294373-.85257-2.278121-1.49069-3.53125-2.31446-.000485-.00031-.0015.00032-.002 0-.7003-.75244-2.179851-1.78128-3.896485-2.65234-.292021-.14818-.703214-.39528-1.05664-.59375-2.848249-1.86677-5.892002-3.86963-8.451172-5.53711-.0033-.002-.0065-.005-.0098-.008-.266164-.19554-.564378-.39951-.816406-.58985-1.738529-1.31295-3.477396-2.48687-4.884766-3.33398-.10819-.13015-.191568-.24364-.226562-.32617-.197278-.46526-1.088073-.85046-2.128906-.98633-.950597-.61416-1.979163-1.28012-2.861328-1.84766-1.747835-1.82813-7.169946-5.43745-10.955078-7.44726 0 0-.002-.002-.002-.002-.105787-.0855-.214642-.16754-.326172-.24804-.101111-.0778-.207387-.15041-.314453-.22266-.0032-.002-.0066-.004-.0098-.006-.817843-.54971-1.792792-.92632-2.767578-.94922-.000207-.00001-.0017.00001-.002 0-.0015-.00007-.01034-.006-.01172-.006-.0081 0-.01535.004-.02344.004-.01889-.00027-.03776-.004-.05664-.004h-.002zm464.255858 1.95899c-.34552.0427-1.03114.32689-1.95117.77734-.14786-.0433-.30979-.0703-.49414-.0703-.45256 0-.94858.1655-1.44531.43164 0 0-.002-.002-.002-.002-.18785-.0312-.56569.23026-1.1289.74609-.79249.42525-1.49364.93718-1.99414 1.49024-.18909.20893-.40125.39442-.60547.58984-.91789.54341-1.6645.96665-2.75391 1.63086-.2136.13023-.52387.32797-.74414.46289-.76177.0676-2.08342.91464-3.2539 2.02539 0 0-.002.002-.002.002-1.91217 1.19164-3.97857 2.48909-6.29297 3.96289-.0716.0453-.14201.0877-.21484.13672-11.48192 7.31544-27.69763 17.94844-49.71484 32.60352-26.36251 17.54739-49.47738 33.1567-61.42579 41.43164-.83366.31563-1.87753 1.03199-2.76562 1.91406-2.04855 1.43154-3.57223 2.51772-4.56641 3.25391-.13907.0159-.26648.10787-.38476.28906 0 0-.002.002-.002.002-.49491.37409-.86437.66417-.9414.76172-1.83881 2.32884-2.49054 58.99773-.69922 60.78906.53136.53135 2.01948.69064 3.30859.35352.27458-.0718 2.65948-1.4869 6.20118-3.64062.31748.0807.60206-.11442.93945-.56641v-.002c2.8325-1.72901 7.54489-4.66299 11.83984-7.32813.0184-.0102.0344-.021.0527-.0312.26514-.14761.51107-.29601.76562-.44531.7961-.27567 1.12993-.45127.97461-.56641.38023-.23888.67267-.45896 1.00195-.6875.005-.003.009-.007.0137-.01 2.29338-1.42629 3.79267-2.34461 6.39062-3.9668.001-.00067.003-.001.004-.002.0004-.00026.002.00025.002 0 .29922-.15213.61498-.36284.93945-.58985.006-.004.0132-.009.0195-.0137 1.77107-1.10629 4.14296-2.60013 6.03907-3.78711.21218-.13283.46209-.29003.67578-.42383.19887-.12452.42874-.26917.6289-.39453.5019-.0556.63813-.12253.37891-.23828.22089-.13835.46899-.29425.69141-.43359.00045-.00029.002.00028.002 0 .87548-.34237 1.57969-.7838 1.92578-1.20899 14.75442-9.24922 31.7615-19.95432 50.88086-32.07422l47.50586-30.11523c.11169-.0298.15853-.065.16211-.10352l40.35352-25.58007v-.45508h.002v-11.90235-.25-11.65429l-.66602.10351v-1.17383l-.30273.0293c-.0467-.14355-.0924-.30685-.14063-.38281-.81416-1.2826-4.39818-.29139-14.98047 4.14062-21.01777 8.80256-19.91015 8.66317-19.91015 2.49805 0-6.79946-.49207-12.55757-1.33203-16.53516v-5.08372h-1.8711c-.28556-.36092-.58532-.59984-.89843-.69922-.0521-.0165-.12374-.0191-.21485-.008zm-182.47656 118.25195c-.21194.016-.41382.14303-.63281.39063-.0349.0395-.0773.11241-.11328.1582-.61967.22183-1.24746.53419-1.83399.91406-1.80888.97696-4.18217 2.54122-7.23242 4.73242-.76174.45697-1.66792 1.07182-2.70703 1.83204-9.22884 5.97972-22.58901 15.00696-38.6875 26.19335l-.30469.21094c-.0114.008-.0218.0156-.0332.0234l-23.98828 16.46484c-.11815.0232-.20705.065-.22657.15625l-25.32031 17.37895-.0625 38.30664-.0644 38.30859.66797.49219v.2207l3.5664 2.52344.002.002c.19878.18853.41161.33813.63867.45312l6.40625 4.5332c4.71542 3.39198 10.95962 7.84775 17.38672 12.37891 8.8 6.20408 16.92974 11.31698 18.0664 11.36328 1.03068.0419 1.86281-.10616 2.54102-.54101.0391-.0251.083-.0413.12109-.0684.00073-.00052.001-.001.002-.002.17476-.12403.33888-.27041.49218-.43945.15225-.16792.29348-.35812.42578-.57422.00071-.001.001-.003.002-.004.001-.002.002-.005.004-.008.0371-.0611.0679-.13993.10352-.20508l.9082-.0742.16407-3.79883v-.002c.0585-.42432.11332-.86968.16015-1.35351.00006-.00061-.00006-.001 0-.002.00012-.001-.00012-.003 0-.004.0506-.52321.0948-1.08293.13281-1.67969.00015-.002-.00014-.006 0-.008.00008-.001-.00007-.003 0-.004.0761-1.19595.12883-2.54651.16211-4.0625.0001-.005-.0001-.0109 0-.0156.00005-.002-.00005-.005 0-.008.003-.14596.001-.3392.004-.48829.0222-1.16879.0318-2.4589.0352-3.82812.00003-.0133.002-.0238.002-.0371l.006-.12891.66797-15.42187 2.24218-1.96484 17.43946-11.92579c.51603-.0739.78088-.24567.85156-.58203l4.88672-3.34179c4.93113-3.37238 9.57379-6.63293 13.63281-9.54493 5.65325-3.45798 9.27136-6.12119 11.4375-8.54882 1.26761-1.03033 2.1018-1.77515 2.25977-2.07032.00075-.001.001-.006.002-.008.003-.006.007-.0249.01-.0312.005-.009.0212-.0253.0254-.0332.12632-.23604.23817-1.25418.34179-2.60938.036-.15049.0789-.29917.10742-.45117.24313-1.29599.35517-6.33739.375-13.38281.0576-3.03495.11446-6.09851.14844-9.65039.00067-.0641.001-.1116.002-.17578.0492-4.77488.0776-9.91774.084-15.17969.00001-.005-.00001-.009 0-.0137.00013-.1041-.00011-.21027 0-.31446.0108-9.99968-.062-20.34447-.20898-29.46679-.006-.4002-.007-.86272-.0137-1.25782-.0405-2.36943-.0871-4.64346-.13867-6.79296-.0001-.004.0001-.008 0-.0117-.0516-2.15-.1091-4.1733-.17187-6.04102-.0001-.003.00009-.005 0-.008-.0628-1.86758-.13104-3.57851-.20508-5.10156-.00011-.002.00011-.004 0-.006-.0741-1.52437-.15474-2.85987-.24024-3.97657-.46614-6.08878-.77986-8.93034-1.47265-10.24414-.0145-.0299-.0281-.0612-.043-.0898-.0459-.26561-.0918-.45074-.13672-.52344-.23053-.373-.54896-.61099-.96484-.72265-.12831-.0608-.2614-.10953-.4043-.13672-.0519-.01-.16126.0196-.29688.0684-.13565.007-.2801.0265-.43164.0527-.21105-.13307-.40027-.20677-.57812-.19336z" fill="#dedede" stroke-width="1.333333"/></svg>