<svg height="24.000055" viewBox="0 0 20 24.000055" width="20" xmlns="http://www.w3.org/2000/svg"><path d="m10 0c-.1188259 0-.2240016.01141146-.328125.0234375-.0404892.00354859-.107312.0028061-.1347656.0078125-.014007.00255428-.0233747.00891724-.0371094.01171875-.042452.007774-.085842.02083171-.125.03125-.00618.0016449-.011467.0041463-.017578.0058594-.029311.0080873-.056334.01962893-.083984.02929688-.030376.010537-.061143.0210412-.089844.0332031-.00129.00056411-.00261.001382-.00391.001953-.014444.006267-.032859.0147435-.046875.0214844-.025182.0120206-.054348.0198886-.078125.0332031-.010345.005853-.022918.007517-.033203.0136719-.06902.0413015-.1246062.0851649-.1914063.15234376-.00684.006418-.018976.0111076-.025391.0175781-.00225.002269-.034472.0479411-.037109.0507813-.00881.009969-.022807.0150795-.03125.0253906-.00254.003106-.030133.0430321-.033203.046875-.00601.007461-.00734.007658-.013672.015625-.00494.006511-.044267.0616273-.050781.0703125-.1763656.22524977-.4488057.59749151-1.0273406 1.39453131-.6852195.944018-.7854433 1.0738259-.9785156 1.3222657-.0109205.0142324-.0303764.0408982-.0410156.0546874-.1081286.1409209-.2109745.2671901-.3085938.3847657-.1097128.1330833-.2163239.2614717-.3183593.3691406-.0678146.0709263-.1350221.1343427-.2011719.1953125-.0121129.0111645-.0249905.0203715-.0371094.03125-.1109427.1004007-.224172.1938001-.3417969.2734375-.014253.00969-.02852.019853-.042969.029297-.050443.033132-.1039761.063932-.15625.09375-.00743.00425-.015959.00752-.023437.011719-.155894.086869-.318376.1675501-.5097656.2382813-.00345.00128-.0063.00262-.00977.00391-.037605.013859-.077931.027588-.1171875.041016-.087206.029834-.2056632.05912-.3027344.087891-.1714136.0509466-.3490567.1030506-.5566365.154292-.2664905.0675744-.7479995.1745633-1.1933594.2773437-.509742.1156697-.9527589.2193244-1.3027343.2949219-.020331.00439-.02178.00558-.041016.00977-.00588.00128-.019716.00463-.025391.00586-.24761873.053737-.48519246.1104217-.52929685.125-.003123.00103-.006609.00477-.009766.00586-.0109112.00378-.0238988.013111-.0351562.017578-.0149413.00532-.0274798.014073-.0410156.019531-.00087773.0003539-.001081.0016-.001953.00195-.074175.030545-.14432933.058793-.20898437.1035157-.0559235.038683-.14105739.1118794-.18945313.1621093l-.08788975.0898416v.011719l.01171875.3710937v.00977c.0057022.07183.005684 1.2542866.0097656 1.4746094.00021082.01138-.00020682.064338 0 .076172.007049.8795066.0137082 1.9372299.01367187 5.1503909-.00000018.03895.00000117.02318 0 .0625v5.976563.0078l.17382813.128906c.0328097.02452.0737493.04578.10742187.07031.22150777.16347.45973777.324691.71289068.482422.016597.01033.03214.01901.048828.0293.1092061.06737.2160111.137686.3261719.201171.00183.0011.00403.000903.00586.002.4478098.26017.8783641.479721 1.2011719.595704.2652116.09529.5076009.196548.7304688.291015.08658.03674.2168187.08451.2734375.111328.00681.0032.026033.0084.033203.01172.01147.0061.075509.02888.082031.0332.012112.008.2098062.06678.328125.105469.1179219.03962.200272.06945.3417968.111328.00443.0013.00923.0026.013672.0039.2029224.06103.3865622.110503.6113281.166016.075674.01885.151711.04186.2246094.05859.114829.02636.2576557.05112.3808594.07617.00126.000254.00265-.000254.00391 0 .00571.0012.01184.0027.017578.0039.030408.0061.059559.01563.089844.02148.07736.01537.1575338.03926.2324219.05273.00459.000827.00714.0011.011719.002.00837.0015.0093.000507.017578.002.010344.0018.020941.0061.03125.0078l.2558594.04297v-.0078h.00586v-6.796875-.002-.0039-.002-6.7890627-.00977-.00195-.00391h-.025396c-.0048.000007-.4380869-.020421-.5898438-.027357-.279217-.0135574-.6016948-.0307608-1.1992183-.0585942-.2307708-.0108403-.2275706-.013314-.4335938-.0234375-.2228368-.0106869-.2387901-.0135667-.390625-.0214844-.3641752-.0198847-1.0103954-.0488115-1.0488281-.0644531-.00947-.00293-.018299-.00624-.027344-.00977-.00192-.0007498-.00396-.00118-.00586-.00195-.00392-.0016-.00592-.00607-.00977-.00781-.027739-.012582-.050622-.031515-.074219-.050781-.014387-.011245-.028541-.021907-.041016-.035156-.021016-.021834-.036115-.046171-.050781-.070312-.01621-.029214-.028101-.060341-.037109-.09375-.00436-.016193-.00914-.031731-.011719-.048828-.00273-.019911-.00771-.038923-.00781-.060547-.0004755-.038071.00895-.080969.015625-.1230469.016018-.084113.044408-.1667424.078125-.2421875.00477-.00976.00877-.016222.013672-.025391.018755-.032687.030849-.061364.048828-.083984.011547-.014343.021843-.038001.033203-.046875.023568-.013875.055503-.026938.1230469-.041016.00819-.0028.1528817-.02173.1699219-.025391.1984844-.034153.4750582-.071114 1.1699219-.1640624l.734375-.099609c.2378903-.030908.672016-.087891.6816406-.087891.013203 0 .039616.010659.0625.019531l.048828.023437c.034053.015273.571409.2204157 1.0566406.4082031.123712.047772.1213311.047967.2558594.099609.055882.021452.015194.00575.066406.025391.5576346.2151991 1.0987736.4249884 1.1777343.453125.00793.00282.018836-.00135.027344 0l.025391.00977.00195-.00195.019531-.00781c.0002097-.0000252.00565.00198.00586.00195.001-.0001363.00288-.00179.00391-.00195.0293-.00527.066607-.022243.1054687-.041016.019879-.0096.035542-.012078.058594-.025391.046942-.027113.074018-.044685.091797-.070312l.0390641-.0351668-.109375-.4980468c-.0120739-.0544633-.0084025-.0470379-.0234375-.1152344-.0647565-.293723-.1023125-.4809013-.1113281-.5390625-.00111-.00716-.013921-.0653-.013672-.066406.00156-.00254.00265-.00601.00586-.00781.00293-.00121.092549-.00227.1152344-.00391.138062-.00996.5103215-.027054.7011719-.027344.061871-.0000939.034511-.00862.0625-.00977.024917-.00139.1179005-.00287.1191406-.00391v-.00195-.00195h.00195v-.00195c.0000402-.0001447.00586.0001463.00586 0 0-.00002.0000013-.00388 0-.00391 0-.0000641-.00195-.00771-.00195-.00781.0000004-.0002963.00195.0003024.00195 0 0-.016671-.1139313-.7489371-.2539062-1.6269531-.0551443-.3459122-.0578052-.376236-.0996075-.6425769-.0601238-.3935564-.150322-.9569296-.1484375-.9902344.0000555-.00469-.0001736-.011337 0-.015625.003-.0338.017628-.055576.027344-.080078.00894-.02012.020128-.039263.033203-.058594.024892-.034245.054263-.068886.091797-.1015625.00378-.00329.00587-.00651.00977-.00977.0003973-.000332.00155.0003315.00195 0 .013075-.010828.034171-.018856.048828-.029297.046466-.033038.1027771-.061724.1621094-.089844.043372-.020959.082883-.042401.1328125-.060547.00743-.00264.013936-.00721.021484-.00977.00294-.0009926.00681-.0009717.00977-.00195.059546-.01976.1293055-.029959.1953125-.044922.1460447-.031579.3041399-.052132.4785156-.056641.042435-.00117.083875-.00478.1269525-.00391.205074.00351.39246.026091.558594.066406.03691.0093.07366.018807.107422.029297.03351.010296.06269.023576.09375.035156.06141.02366.117094.047875.167969.076172.03891.020967.07416.041555.105468.064453.01992.014509.04348.027662.06055.042969.01893.017031.03126.035168.04687.052734.02227.02604.03625.054144.05078.082031.01074.021671.02792.041953.0332.064453.0019.00871.0086.01652.0098.025391.000629.0047.0035.00894.0039.013672.00094.00488-.01967.1322244-.01953.140625-.0055.072967-.07706.5305256-.134765.90625-.04009.25506-.04244.2759773-.09375.5976562-.139991.8776273-.253907 1.608574-.253907 1.625 0 .0002967.002-.0002907.002 0-.000005.0000971-.002.00775-.002.00781-.000001.000027 0 .00389 0 .00391 0 .0001327.0058-.0001316.0059 0v.00195h.002v.00195h.002v.00195c.0012.001.09286.00256.117187.00391.02799.00114.000893.00967.0625.00977.190851.0002901.563109.017385.701172.027344.02203.00191.111908.00229.115235.00391.0032.00181.0043.00527.0059.00781.000328.00117-.01265.059228-.01367.066406-.009.058161-.04657.2453395-.111328.5390625-.01503.068196-.01137.060771-.02344.1152344l-.109375.4980468.03906.035156c.01778.025627.04485.0432.0918.070312.02305.013312.03871.015788.05859.025391.03886.018772.07617.035748.105469.041016.001.0001606.0029.00182.0039.00195.000205.0000278.0056-.00198.0059-.00195l.02149.00977.02539-.00977c.0085-.00135.01942.00282.02734 0 .07896-.028137.6201-.237926 1.177734-.453125.05121-.019639.01052-.00394.06641-.025391.134529-.051643.132148-.051838.25586-.099609.485231-.1877874 1.022587-.39293 1.05664-.4082031l.05078-.023437c.02196-.0083.04591-.019531.05859-.019531.01011 0 .457815.060035.716796.09375l.701172.09375c.791205.1058351 1.155494.1520986 1.332032.1875.07571.015182.105832.028235.130859.042969.01275.00996.02416.035962.03711.052734.01628.020363.02867.045953.04492.074219.0033.00604.0066.011259.0098.017578.03728.080299.068.1749089.08398.265625.005.033998.01331.068291.01367.099609.000014.0012-.000007.00271 0 .00391.000046.00425-.0019.00754-.002.011719-.000123.064529-.01348.088849-.02148.1171875-.0087.028351-.01699.056651-.03125.082031-.01432.023735-.03035.04686-.05078.068359-.01274.013819-.02687.023411-.04102.035156-.02423.020045-.04776.039797-.07617.052734-.01126.0055-.02437.018218-.03516.021484-.0045.0014-.009.00264-.01367.00391-.0039.00155-.115882.00636-.121094.00781-.0773.011419-.57859.036866-1.226563.068359-.238625.011837-.243042.014356-.519531.027344-.293117.013769-.289443.015482-.535156.027344-.277223.013072-.50946.023743-.664063.03125-.151757.00694-.585042.027365-.589843.027344h-.02539v.00391h-.002v6.8027337c0 .422073.0019.05445.002.425781v6.376954h.0059v.0078l.25586-.04297c.04998-.0084.101635-.02398.152344-.0332.137613-.0248.217618-.03599.34375-.0625.01265-.0027.02632-.007.03906-.0098.01457-.003.02978-.005.04297-.0078.04117-.0089.09181-.02734.134765-.03711.106764-.02436.209932-.05284.31836-.08008.16661-.04143.313186-.07439.46875-.119141.172696-.04893.273467-.08591.416015-.132812.07436-.02342.159043-.0392.228516-.0625.0357-.01197.101312-.04159.160156-.06641.0064-.0042.06894-.02725.08008-.0332.0047-.0022.01896-.0057.02344-.0078.01118-.0054.04699-.01917.06055-.02539.03016-.01377.08975-.03347.125-.04883.23925-.104207.557826-.234933.845703-.337891.201926-.07222.460231-.197616.732422-.339844.0025-.0013.0053-.0026.0078-.0039.0041-.0021.0076-.0057.01172-.0078.198483-.104275.394704-.222659.605469-.34961.06134-.0366.125285-.06813.185547-.105468.0084-.0052.01502-.01038.02344-.01563.0075-.0047.01594-.009.02344-.01367.05369-.03359.101862-.06372.154297-.09766.179535-.11553.327837-.223793.476562-.332031.000702-.000511.0013-.0014.002-.002.05186-.03728.114301-.07023.164063-.107422l.173828-.128906v-.0098-5.974609c-.000002-.04058 0-.02428 0-.06445-.000033-3.324395.0061-4.4982362.01367-5.3281247.000556-.02805.0014-.172066.002-.1972657.0035-.1499471.0033-1.1121912.0078-1.1738281.000023-.0003076-.000022-.00555 0-.00586l.0039-.09375.007483-.2811577v-.0117188l-.0918-.09375c-.05038-.051455-.136756-.1248414-.191406-.1621094-.05976-.040753-.12581-.065482-.191406-.09375-.0028-.00117-.005-.00275-.0078-.00391-.01674-.0069-.03184-.018714-.05078-.025391-.0025-.0009763-.0053-.00296-.0078-.00391-.0111-.00388-.01534-.00979-.02734-.013672-.0019-.0006589-.0039-.00327-.0059-.00391-.0045-.0015-.04624-.00939-.05469-.011719-.07371-.020289-.25245-.065071-.47461-.1132812-.01586-.00344-.04926-.011883-.06641-.015625-.345756-.074686-.782345-.176522-1.287109-.2910156-.500601-.115438-1.065697-.2426202-1.335938-.3125-.04668-.011801-.08038-.023428-.125-.035156-.281345-.074492-.528939-.1490331-.730469-.2246094-.08422-.031184-.172986-.0607-.248046-.09375-.102308-.045638-.19642-.09933-.289043-.152332-.081186-.0463523-.165016-.0918961-.242187-.1464844-.021977-.015788-.044681-.0323319-.066407-.0488281-.090332-.0672474-.179403-.1493173-.267578-.2304688-.044609-.0409921-.091543-.0835516-.136719-.1289062-.118081-.1179925-.247193-.2666864-.384765-.4335938-.096339-.1158055-.198223-.2424025-.304688-.3808593-.244006-.3186482-.520921-.6923805-1.023437-1.3847657-.607251-.8366953-.905177-1.24719841-1.078125-1.46484372-.000309-.00038982-.0036-.003523-.0039-.003906-.0046-.005751-.0054-.006239-.0098-.0117187-.0031-.003843-.03066-.0437694-.0332-.046875-.0061-.007477-.01543-.0104822-.02148-.0175781-.002-.002254-.02557-.0351617-.02734-.0371094-.0065-.007138-.02026-.0124298-.02734-.0195313-.07554-.079171-.134768-.12746376-.208984-.171875-.009-.005409-.02021-.006543-.0293-.0117187-.0034-.001965-.0044-.003876-.0078-.005859-.008-.004607-.02301-.005311-.03125-.009766 0 0-.002-.001953-.002-.001953-.01203-.006628-.02678-.009419-.03906-.015625-.01728-.00841-.03675-.0177068-.05469-.0253906-.02643-.0111579-.05419-.021467-.08203-.03125-.02921-.0104468-.05876-.02261862-.08984-.03125-.0061-.0017131-.0114-.0042145-.01758-.0058594-.04019-.01069248-.08524-.02334066-.128906-.03125-.0128-.0025842-.02014-.0093364-.0332-.01171875-.02741-.00500683-.094233-.00426434-.134722-.00781293-.104123-.01202604-.209299-.0234375-.328125-.0234375zm.002 8.0566406c-.005261-.005074-.0755187.3522873-.1543438.7949219l-.1425781.8066406v6.3769529l.00195 6.376953.1425782.798829c.00254.01423.00335.01134.00586.02539.075068.419477.1411335.7688.1464847.763672.0055-.0053.06923-.347108.142578-.759766l.132813-.75v-.01367l.002-.01172v-.02734-.01172-6.390625-.01367-6.3769528-.013672l-.002-.011719v-.013672-.013672-.011719-.013672l-.132813-.75c-.073461-.4126626-.137376-.7546996-.142576-.7597696z" fill="#d8d8d8" stroke-width=".014126"/></svg>