<svg height="2048" viewBox="0 0 2048 2048" width="2048" xmlns="http://www.w3.org/2000/svg"><g transform="translate(-.000945 .39857)"><path d="m1014.1955 1890.2398-9.2247-61.7398-.039-493-.039-493 9.2908-62.21315c5.1099-34.21724 9.5672-61.89224 9.9052-61.5.338.39223 4.5111 26.81315 9.2735 58.71315l8.659 58v499.5 499.5l-8.6449 58c-4.7547 31.9-8.9381 58.3329-9.2966 58.7398-.3585.407-4.8029-27.043-9.8766-61zm-247.1955-85.8781c-58.55558-11.7936-126.00062-33.8975-160.11966-52.4763-15.42849-8.4013-39.39841-19.8036-61.88034-29.436-40.0878-17.1757-106.01434-62.3143-155.75-106.639l-11.25-10.026.0121-462.6422c.008-319.57893-.34054-476.62894-1.12821-507.87292l-1.1403-45.23071 5.70417-7.05994c3.13729-3.88296 8.6703-9.50654 12.29558-12.49684 11.52215-9.50401 18.87021-12.34842 57.81518-22.38008 43.37062-11.17165 136.56983-36.35369 161.44148-43.62083 96.19381-28.10645 125.30984-49.56046 180.47325-132.98088 17.13475-25.91189 22.71423-34.90022 75.73114-122 78.76369-129.39835 77.10751-126.91284 91.32753-137.06003 16.60975-11.85247 34.2097-16.400353 63.46808-16.400353 29.2584 0 46.8583 4.547883 63.4681 16.400353 14.2419 10.16284 12.6014 7.70092 91.3324 137.06003 75.5571 124.14396 91.1185 147.84875 115.8922 176.53839 33.4692 38.7596 65.1913 56.49468 140.3073 78.44249 24.8717 7.26714 118.0709 32.44918 161.4415 43.62083 38.6887 9.96565 45.9419 12.76102 57.4994 22.16021 3.5425 2.88094 9.1131 8.49255 12.3792 12.47023l5.9382 7.23216-1.1412 45.26784c-.7889 31.29157-1.1375 188.10692-1.1292 507.91005l.012 462.6422-11.25 10.026c-49.2431 43.8857-115.8454 89.5815-154.75 106.1739-21.4117 9.1318-47.6702 21.6187-62.8923 29.9076-34.1068 18.5721-101.5615 40.678-160.1077 52.4698l-16.5 3.3232-.2509-526.0082c-.1381-289.30447-.082-526.17706.1244-526.38351.2064-.20646 52.9694-3.32149 117.2509-6.92231 64.2816-3.60081 118.6756-6.99766 120.8756-7.54856 2.766-.69262 5.6038-2.64787 9.1987-6.33774 7.1013-7.28911 9.8681-15.94947 8.9425-27.99143-.7067-9.1936-4.4189-23.1587-8.0545-30.30062-4.7338-9.29935 3.1468-7.41484-99.4341-23.77772l-92.3473-14.73051-6.6527 3.55808c-5.3402 2.85617-154.537 71.57546-165.6526 76.29878-3.8164 1.62171-8.5481.13562-16.0761-5.04911-9.8061-6.75375-9.8133-2.11587.086-55.65959 4.7763-25.83449 8.4793-47.17672 8.2288-47.42717-.6506-.65058-38.946-2.35678-53.4886-2.38311-12.123-.022-12.25-.0461-12.25-2.33092 0-1.2698 7.425-57.81725 16.5-125.66099s16.5-124.61292 16.5-126.15375c0-6.24035-4.066-14.01227-10.8854-20.80665-15.0916-15.03629-41.2471-23.41124-73.1146-23.41124-31.86753 0-58.02297 8.37495-73.11458 23.41124-6.78719 6.7623-10.88777 14.56806-10.88356 20.71764.001 1.49187 7.42602 58.24559 16.5 126.11938s16.49814 124.46129 16.49814 125.75c0 2.32876-.075 2.34325-12.25 2.36529-14.54256.0263-52.83805 1.73253-53.48862 2.38311-.25045.25045 3.45251 21.59268 8.2288 47.42717 9.89919 53.54372 9.89204 48.90584.0859 55.65959-7.528 5.18473-12.25962 6.67082-16.07607 5.04911-11.11562-4.72332-160.31238-73.44261-165.65264-76.29878l-6.65265-3.55808-92.34735 14.73051c-102.58087 16.36288-94.70022 14.47837-99.43407 23.77772-3.6356 7.14192-7.34778 21.10702-8.05446 30.30062-.92561 12.04196 1.84113 20.70232 8.9425 27.99143 3.59483 3.68987 6.43271 5.64512 9.19867 6.33774 2.2.5509 56.59401 3.94775 120.87558 7.54856 64.28156 3.60082 117.04449 6.71585 117.25094 6.92231.20645.20645.26244 237.07904.12442 526.38351l-.25095 526.0082z" fill="#d8d8d8"/><path d="m1014.6677 1892.2355-8.7613-58.7355.01-498.5.01-498.5 8.7512-58.73933c4.8131-32.30662 9.0442-58.40662 9.4024-58 .3582.40663 4.5414 26.83933 9.2961 58.73933l8.6449 58 .011 498.5.011 498.5-8.659 58c-4.7624 31.9-8.9487 58.331-9.303 58.7355s-4.5867-25.6955-9.4055-58zm-251.6677-88.7288c-56.47897-12.1214-126.22474-34.9186-152.86424-49.9656-12.84168-7.2534-40.59115-20.6593-62.11608-30.0084-45.64964-19.8276-116.38984-68.4421-163.76968-112.5469l-6.25-5.818.004-466.8339c.003-316.39666-.35236-479.82007-1.10244-507.13234l-1.10672-40.29843 2.85244-4.12946c7.52757-10.89763 22.70852-23.18407 34.28288-27.74626 2.8591-1.12695 18.33189-5.4478 34.38396-9.60189 33.9743-8.79206 124.62936-33.17603 152.18588-40.93415 117.21124-32.99904 142.40252-52.99371 216.69175-171.99137 6.86721-11 27.92867-45.425 46.80324-76.5 45.19148-74.40302 73.18772-119.8796 79.10702-128.5 11.77593-17.14954 29.03914-28.17513 51.89799-33.145985 12.2237-2.658155 47.7763-2.658155 60 0 12.168 2.646035 22.5599 6.904375 31.0852 12.737925 9.5593 6.54109 14.8596 11.73834 20.8128 20.40806 5.9193 8.6204 33.9155 54.09698 79.107 128.5 18.8746 31.075 39.936 65.5 46.8032 76.5 72.6308 116.34108 99.151 138.11185 205.6918 168.85472 23.7657 6.85772 124.2814 34.00378 163.1856 44.0712 16.0521 4.15387 31.5248 8.47454 34.384 9.60149 11.5743 4.56219 26.7553 16.84863 34.2828 27.74626l2.8525 4.12946-1.1068 40.29843c-.75 27.31189-1.1053 190.71338-1.1024 507.04944v466.751l-6.25 5.8574c-30.2095 28.3118-71.7125 59.7209-111.75 84.5714-23.9812 14.8846-34.6045 20.627-52 28.1084-19.2656 8.2858-51.3445 23.7909-62.885 30.395-19.9459 11.4142-77.3267 31.3273-123.9159 43.0032-17.3221 4.3411-44.1838 10.0626-47.2427 10.0626-1.9394 0-1.9564-4.5754-1.9564-525.871v-525.87103l8.75-.63056c4.8125-.34681 57.8-3.34712 117.75-6.66736 82.0975-4.54685 110.0212-6.40736 113.1375-7.53818 9.3542-3.39432 16.3403-14.3473 17.1367-26.86717.8844-13.90318-4.9262-35.1546-11.6413-42.57682l-3.6329-4.01542-90.8787-14.48123c-49.979-7.96468-91.9511-14.48123-93.2671-14.48123s-4.0706 1.08525-6.1213 2.41167-40.7901 19.37734-86.0876 40.11316c-71.7887 32.86272-82.8052 37.62906-85.8363 37.13719-4.1548-.67423-11.5348-5.23986-16.1236-9.97479l-3.3189-3.42461 8.7218-47.14503c4.7971-25.92977 8.4775-47.38944 8.1788-47.68817-.8288-.8288-33.3454-2.37673-50.5128-2.40463-14.0367-.0228-15.25-.1687-15.25-1.83353 0-.9948 7.4534-57.3573 16.5632-125.25 11.2045-83.50464 16.4051-125.13256 16.0745-128.66895-1.989-21.28023-31.0021-38.71091-70.6081-42.42039-48.06679-4.50192-94.20619 15.747-96.65954 42.42039-.32314 3.5132 4.94874 45.70068 16.07455 128.63458 9.10547 67.87379 16.55539 124.23629 16.55539 125.25 0 1.70916-1.10834 1.84491-15.25 1.8679-17.05037.0277-49.68187 1.57375-50.50078 2.39265-.29213.29214 3.38691 21.75323 8.17567 47.69131l8.70682 47.16015-3.31586 3.42147c-4.586 4.73208-11.96678 9.29759-16.12057 9.97165-3.03103.49187-14.04763-4.27447-85.8363-37.13719-45.29744-20.73582-84.03683-38.78674-86.08754-40.11316s-4.80529-2.41167-6.1213-2.41167c-1.316 0-43.28815 6.51655-93.27144 14.48123l-90.8787 14.48123-3.6329 4.01542c-6.83071 7.54994-12.59504 28.87032-11.56149 42.76216.9443 12.69228 7.72196 23.29449 17.05685 26.68183 3.11635 1.13082 31.04008 2.99133 113.13754 7.53818 59.95 3.32024 112.9375 6.32055 117.75 6.66736l8.75.63056v525.87103 525.871l-2.75-.083c-1.5125-.046-9.725-1.5803-18.25-3.4099z" fill="#bababa"/><path d="m1014.6948 1891.737-8.7311-58.237-.022-498-.022-498 8.7512-58.73933c4.8131-32.30662 9.0428-58.40662 9.3993-58 .3565.40663 4.5426 26.83933 9.3026 58.73933l8.6544 58 .01 497.5.01 497.5-8.6526 58c-4.7589 31.9-8.947 58.3317-9.3068 58.737-.3598.4054-4.5832-25.4696-9.3853-57.5zm-250.87183-88.2176c-56.8702-11.9843-126.03871-34.6094-154.32297-50.4792-14.57094-8.1755-33.38729-17.2709-59-28.5193-23.68864-10.4035-41.28872-20.3458-72.5-40.9557-32.80279-21.6608-68.42956-49.1898-91.18958-70.4628l-7.68958-7.1871-.4096-472.7077c-.2986-344.61097-.73979-482.15104-1.62809-507.5562l-1.21849-34.8486 2.73577-3.94771c1.50467-2.17125 6.64497-7.66784 11.4229-12.21465 13.65458-12.99411 18.24903-14.97439 59.68492-25.72514 45.928-11.91626 141.01148-37.632 164.309-44.43809 83.87104-24.50191 115.00253-44.33019 156.96975-99.97721 17.98732-23.85054 35.45682-51.30976 97.33828-153 56.17395-92.31104 73.53576-120.25149 78.23588-125.90542 9.39815-11.30534 26.0986-21.69063 40.93884-25.4581 21.9426-5.570518 51.0574-5.570518 73 0 15.5443 3.94621 33.1959 15.2525 42.2206 27.04343 4.9962 6.52752 22.5355 34.85917 76.9633 124.32009 51.8477 85.22028 57.1189 93.70926 74.8244 120.5 22.7161 34.37261 37.1871 52.71946 55.6186 70.51536 29.0761 28.0734 58.8629 42.97495 123.8559 61.96185 23.2975 6.80609 118.3809 32.52183 164.309 44.43809 41.2031 10.69037 45.9822 12.73699 59.3991 25.43711 4.6547 4.4061 9.8028 9.95819 11.4401 12.33797l2.9769 4.32687-1.2076 34.24137c-.8753 24.81544-1.3192 164.50517-1.6127 507.44738l-.405 473.206-7.6913 7.1888c-22.7618 21.2746-58.3875 48.8029-91.1913 70.4644-31.2113 20.6099-48.8114 30.5522-72.5 40.9557-25.62 11.2516-44.4339 20.3462-59 28.5204-6.05 3.3952-14.375 7.5229-18.5 9.1728-30.8874 12.3541-70.4754 25.3405-101.5 33.2959-16.2817 4.175-50.0658 11.49-53.0662 11.49-1.2433 0-1.4338-69.9001-1.4338-526 0-500.28914.085-525.99956 1.75-525.99099.9625.005 54.175-2.93149 118.25-6.52542l116.5-6.53442 5.5-2.74708c9.3473-4.66868 15.0182-15.6956 14.9826-29.13359-.042-15.8988-8.3915-39.97918-14.7639-42.58003-.9453-.3858-43.1156-7.31831-93.7118-15.40557l-91.9932-14.70411-8.0068 4.22889c-13.3874 7.07066-165.4662 76.39232-167.5905 76.39232-4.4849 0-17.4785-8.44469-19.8703-12.91392-.5749-1.07415 2.1258-17.89046 7.8305-48.75904l8.7081-47.1194-4.0423-.59217c-2.2233-.32569-17.2049-.89459-33.2924-1.26423-20.6005-.47333-29.25-1.00471-29.25-1.79698 0-.61871 7.425-56.64088 16.5-124.49371s16.5-125.24427 16.5-127.53653c0-7.18461-2.7751-13.21039-9.2923-20.17734-10.143-10.84294-24.5496-17.90631-45.9054-22.50686-14.8508-3.19922-42.7538-3.19922-57.60459 0-20.43207 4.40156-35.29168 11.46739-44.86604 21.33406-6.63101 6.83346-9.63798 12.72787-10.08339 19.76597-.21777 3.44105 5.95639 52.59176 16.19992 128.9629 9.10349 67.87151 16.5518 123.93683 16.5518 124.58959 0 .87342-7.72434 1.36432-29.25 1.8589-16.0875.36964-31.06907.93854-33.29237 1.26423l-4.04237.59217 8.70809 47.1194c5.70479 30.86858 8.40545 47.68489 7.83058 48.75904-2.39186 4.46923-15.38547 12.91392-19.87029 12.91392-2.12434 0-154.20314-69.32166-167.5905-76.39232l-8.00687-4.22889-91.99313 14.70411c-50.59623 8.08726-92.76654 15.01977-93.71181 15.40557-6.37244 2.60085-14.72194 26.68123-14.76397 42.58003-.0355 13.43799 5.63533 24.46491 14.98264 29.13359l5.5 2.74708 116.5 6.53442c64.075 3.59393 117.2875 6.53037 118.25 6.52542 1.66446-.009 1.75 25.70185 1.75 525.99099v526l-2.25-.089c-1.2375-.049-9.30466-1.5751-17.92703-3.3921z" fill="#909090"/><path d="m1014.6882 1890.75-8.7247-58.25-.029-497-.029-497 8.7613-58.73548c4.8188-32.30451 9.0512-58.40451 9.4055-58 .3543.40452 4.5406 26.83548 9.303 58.73548l8.659 58 .032 496 .032 496-8.7992 59.2488c-4.8396 32.5868-9.0439 59.2493-9.3428 59.25-.2989.0006-4.4697-26.2113-9.2683-58.2488zm-248.1882-86.834c-32.46886-6.7547-62.06961-14.8285-94.5-25.7755-28.0496-9.4683-50.16252-18.2745-59.59891-23.7345-11.32011-6.5499-41.16413-21.0215-60.40109-29.289-19.87848-8.5432-23.5479-10.4488-46-23.8889-40.93419-24.5038-85.10205-57.1215-117.70114-86.9217l-9.20113-8.4112-.39939-476.6976c-.28146-335.93896-.74147-485.80805-1.55789-507.55133l-1.1585-30.85373 3.41198-4.64627c8.05738-10.97216 23.17667-22.97117 34.08942-27.05416 2.90125-1.08549 18.49187-5.40367 34.64583-9.59595 31.40955-8.15141 122.93521-32.74002 149.37082-40.12886 80.19291-22.41419 112.14081-38.04002 144.19127-70.52449 28.97633-29.36871 45.94887-54.36011 122.81675-180.84281 34.40849-56.61765 68.13721-111.67393 75.04629-122.5 17.16862-26.90212 44.09298-39.494366 84.44569-39.494366 40.3527 0 67.2771 12.592246 84.4457 39.494366 6.9161 10.83703 40.6487 65.90036 75.0454 122.5 45.1978 74.37291 58.2133 95.20394 75.6026 121 18.3916 27.28296 29.7616 41.77172 45.4063 57.86102 33.3937 34.3428 64.0711 49.57915 146 72.513 25.5197 7.14358 117.2921 31.79319 149.3708 40.12029 16.154 4.1933 31.7446 8.51231 34.6458 9.5978 10.9163 4.08429 26.0322 16.08216 34.0955 27.06236l3.418 4.65448-1.1668 30.34552c-.8288 21.55439-1.2819 168.59032-1.5639 507.54313l-.397 477.1976-9.2012 8.4112c-32.5992 29.8002-76.767 62.4179-117.7012 86.9217-22.4521 13.4401-26.1215 15.3457-46 23.8889-19.237 8.2675-49.081 22.7391-60.4011 29.289-19.3851 11.2164-81.6754 32.4517-127.5989 43.4995-15.3429 3.6911-40.9304 9.0945-43.0661 9.0945-.5773 0-.9339-200.8347-.9339-526v-526h3.339c1.8365 0 55.1993-2.93473 118.5839-6.52162 81.6606-4.62111 116.1887-6.91599 118.4837-7.8749 5.1684-2.1595 9.9728-7.01411 13.1477-13.28528 2.7811-5.49309 2.9441-6.48874 2.9168-17.8182-.023-9.42399-.5177-13.7098-2.3059-19.96489-2.7471-9.60941-7.6673-19.16277-10.9908-21.34038-1.6294-1.06764-33.0132-6.46911-94.8513-16.32491l-92.4162-14.72934-4.7035 2.89769c-6.0926 3.75352-168.0589 77.96492-170.1303 77.95206-3.2302-.0201-11.975-4.92992-16.4962-9.26193-3.75-3.59319-4.5608-4.95176-4.0906-6.85483.3225-1.30541 4.3205-22.62347 8.8844-47.37347l8.2982-45-2.7863-.76611c-1.5324-.42136-16.2707-1.09636-32.7517-1.5s-30.2197-.98836-30.5304-1.29938c-.3106-.31102 6.881-56.11102 15.9815-124 12.1622-90.72966 16.4336-125.20314 16.121-130.10968-2.3335-36.62679-79.5794-56.64674-134.01778-34.7336-13.86874 5.58261-24.67882 13.92259-30.15245 23.26265-2.09918 3.58197-2.91825 6.48525-3.23617 11.47095-.31309 4.91002 3.95383 39.31163 16.13598 130.09474 9.10889 67.88076 16.30071 123.68076 15.98181 124-.31889.31924-14.06426.91068-30.54527 1.31432s-31.21929 1.07864-32.75172 1.5l-2.78625.76611 8.29811 45c4.56396 24.75 8.56197 46.06806 8.88447 47.37347.47014 1.90307-.34059 3.26164-4.09065 6.85483-4.52114 4.33201-13.26598 9.24187-16.49621 9.26193-2.07137.0129-164.03772-74.19854-170.13032-77.95206l-4.70345-2.89769-92.4162 14.72934c-65.41113 10.42526-93.17351 15.22555-95.00787 16.42747-3.00701 1.97027-8.7819 13.4782-11.14172 22.20271-2.61746 9.67701-3.14082 25.14128-1.07332 31.71442 2.30102 7.31554 7.96625 14.61893 13.54601 17.46298 4.35958 2.22212 8.10131 2.49697 119.91096 8.80814 63.47602 3.58295 116.91352 6.51446 118.75 6.51446h3.33904v526c0 500.3184-.0854 525.9958-1.75 525.9142-.9625-.047-8.05-1.3963-15.75-2.9982z" fill="#707070"/><path d="m1014.7007 1889.6997-8.7992-59.1997.031-496 .031-496 8.7247-58.25c4.7986-32.0375 8.9694-58.24944 9.2683-58.24876.2989.00069 4.5032 26.66319 9.3428 59.25l8.7992 59.24876-.033 495-.033 495-8.6861 58.5c-4.7773 32.175-8.9471 58.8148-9.2662 59.1997-.319.3848-4.5398-25.9402-9.3794-58.5zm-249.2007-86.162c-58.08826-12.1717-127.13857-34.6207-155.54389-50.5689-13.11226-7.3619-42.62365-21.5549-62.45611-30.0371-43.07502-18.4231-108.87612-63.4243-159.70238-109.2201l-8.70238-7.8411-.41274-480.6852c-.2827-329.24748-.76313-489.17169-1.52495-507.62231l-1.11221-26.93701 4.09645-5.30977c9.48888-12.29934 23.52728-22.79285 36.35821-27.17725 3.3-1.12763 24.225-6.7671 46.5-12.53217 53.50954-13.84899 146.30049-39.20144 167-45.62794 83.73621-25.99729 113.82995-50.43735 170.93779-138.82388 13.96185-21.60894 29.04742-46.09563 79.26078-128.65497 56.94938-93.63453 61.78821-101.28739 68.80143-108.81326 12.4715-13.38312 25.66339-20.65063 45.02472-24.804431 15.18778-3.258409 44.76278-3.258409 59.95058 0 19.3613 4.153801 32.5532 11.421311 45.0247 24.804431 7.0231 7.53649 12.1011 15.56653 68.8105 108.81326 50.3859 82.84915 65.3198 107.09237 79.2517 128.65497 57.1079 88.38659 87.1992 112.82473 170.9378 138.82415 20.792 6.45557 113.7391 31.85291 167 45.63193 22.275 5.76272 43.2 11.40028 46.5 12.52791 12.8309 4.3844 26.8693 14.87791 36.3582 27.17725l4.0965 5.30977-1.1132 26.93701c-.7632 18.46758-1.2424 178.07188-1.5241 507.62151l-.4109 480.6844-8.7032 7.8419c-34.5025 31.0876-70.4066 57.9702-110.7033 82.8871-21.584 13.3461-32.9569 19.4166-50.8215 27.1267-21.3301 9.2059-46.9736 21.5755-60.6785 29.2694-30.974 17.3888-116.4497 44.2256-170.25 53.4534l-3.75.6432v-525.8072-525.80729l118.318-6.67334c97.2976-5.48774 119.0639-6.97177 122.5164-8.35317 5.4326-2.17371 11.5364-9.16586 14.2313-16.30251 1.8526-4.90611 2.0677-7.09044 1.6391-16.64709-.2713-6.05-1.2226-13.7-2.1141-17-1.9997-7.40259-7.804-19.47803-10.5624-21.97438-1.6606-1.5028-19.7518-4.6785-94.9978-16.67571l-92.9467-14.8194-4.7919 2.92296c-2.6355 1.60763-41.8218 19.87019-87.0805 40.58346-89.5548 40.986-83.519 38.76661-92.0011 33.82922-7.1924-4.18664-11.2103-8.2518-11.2103-11.34213 0-2.23849 14.6668-83.72674 16.5141-91.7516.3935-1.70969-.014-2.3515-1.7507-2.76062-1.2449-.29317-16.1403-.94261-33.1009-1.44321-16.9606-.50059-30.9903-1.0631-31.1773-1.25002-.1869-.18692 7.0402-55.46006 16.0603-122.82921 9.02-67.36915 16.4079-125.41436 16.4175-128.98936.036-13.59973-9.3719-25.28287-27.4066-34.03261-16.965-8.23079-34.5854-11.9556-56.5564-11.9556s-39.59136 3.72481-56.55638 11.9556c-17.77105 8.62184-27.41267 20.43335-27.43385 33.60799-.005 3.34146 7.38819 61.381 16.43015 128.97675s16.28131 123.05997 16.08746 123.25382c-.19386.19386-14.22932.76205-31.18992 1.26264-16.9606.5006-31.856 1.15004-33.10088 1.44321-1.74177.41019-2.14269 1.04644-1.73957 2.76062 1.70903 7.26731 16.50299 89.56701 16.50299 91.80717 0 3.02976-4.07658 7.13408-11.21026 11.28656-8.48211 4.93739-2.44632 7.15678-92.00114-33.82922-45.25873-20.71327-84.44496-38.97583-87.08051-40.58346l-4.79191-2.92296-92.94664 14.8194c-76.6714 12.22448-93.31801 15.15478-95.06744 16.73475-3.41859 3.08743-7.92297 13.04349-10.50334 23.21561-3.12268 12.30994-3.26302 24.81477-.36541 32.55931 2.59283 6.92996 8.7451 13.93449 14.13229 16.09002 3.45246 1.3814 25.21877 2.86543 122.51635 8.35317l118.31801 6.67334v525.76199c0 419.9721-.25152 525.7509-1.25 525.7071-.6875-.03-8.45-1.5635-17.25-3.4075z" fill="#505050"/><path d="m1014.7172 1889.198-8.7829-58.698.083-496.5.083-496.5 8.8205-58c4.8513-31.9 9.0658-57.325 9.3654-56.5.2997.825 4.4194 27.6 9.1549 59.5l8.61 58 .01 494.5.01 494.5-8.7 58.5c-4.785 32.175-8.9628 58.8141-9.2841 59.198-.3212.3839-4.5364-25.7161-9.3669-58zm-240.2172-83.8644c-22.24464-4.6343-40.7664-9.0281-58.36305-13.8451-39.60334-10.8412-87.90822-28.2933-104.95055-37.9176-13.17892-7.4426-43.07846-21.9037-63.6864-30.8023-42.63756-18.4112-108.60997-63.3742-158.70443-108.1639l-9.70442-8.6767-.44031-484.214c-.27685-304.46019-.81707-492.75225-1.45522-507.214l-1.01492-23 2.26779-3.5142c6.44077-9.98069 19.07724-20.87541 31.17428-26.87738 3.61912-1.79563 18.32315-6.15583 37.41952-11.09605 87.67606-22.6817 173.45266-46.49598 199.78205-55.46575 75.67945-25.78213 103.88137-52.11989 170.83913-159.54662 7.71318-12.375 29.46339-47.925 48.33379-79 71.19976-117.24885 76.52827-125.64205 85.44309-134.58577 17.98582-18.04412 37.65903-24.756345 72.55965-24.756345 35.3516 0 54.7669 6.729675 73 25.303105 9.4469 9.62327 7.6216 6.74521 85.0123 134.03901 21.5677 35.475 44.4225 72.825 50.7885 83 64.7378 103.4735 93.4902 130.03527 168.3749 155.54662 26.3293 8.96977 112.106 32.78405 199.782 55.46575 19.0964 4.94022 33.8004 9.30042 37.4195 11.09605 12.0938 6.00033 24.7167 16.88202 31.1783 26.87738l2.2718 3.5142-1.0216 22.5c-.6484 14.27893-1.1815 199.59387-1.4592 507.1828l-.4375 484.6828-11.2045 9.9745c-50.6944 45.1295-114.3356 88.4174-157.2045 106.9285-20.6079 8.8986-50.5075 23.3597-63.6864 30.8023-20.6628 11.6689-77.8295 31.4268-125.3136 43.3107-9.7955 2.4516-45.4582 10.1184-47.0662 10.1184-.4471 0-.6309-1050.91668-.1838-1051.10569.1375-.0581 53.6168-3.16289 118.8428-6.89947 109.7778-6.28881 118.8902-6.94554 122.5947-8.8354 7.7016-3.92909 13.3714-12.45471 15.2791-22.97535 2.8216-15.56006-6.5862-46.52754-15.2491-50.19551-1.2196-.51639-43.4784-7.49749-93.9085-15.51354l-91.691-14.57465-3.8718 2.44417c-2.1295 1.34429-41.3861 19.63731-87.2369 40.65116-82.138 37.64464-83.4182 38.18944-86.9789 37.01433-4.974-1.64158-14.2242-8.15056-15.9733-11.23977-1.3166-2.32522-.6846-6.65154 7.215-49.39434 4.7619-25.76525 8.3362-47.16741 7.9429-47.56036-.3932-.39294-15.3393-1.22396-33.2133-1.8467-17.8741-.62273-32.5589-1.20799-32.6329-1.30056-.074-.0926 7.4463-56.8375 16.7119-126.09982 14.4084-107.70699 16.6996-126.58659 15.832-130.45817-4.0179-17.92836-23.8881-31.94581-54.9127-38.73802-12.1878-2.66827-45.8122-2.66827-58 0-31.00301 6.78749-50.89522 20.81134-54.90601 38.70829-.8588 3.83214 1.48259 23.11819 15.83808 130.45817 9.26523 69.27868 16.78259 126.03697 16.70525 126.12955-.0773.0926-14.76488.67783-32.63897 1.30056-17.87409.62274-32.82011 1.45376-33.21337 1.8467-.39326.39295 3.18106 21.79511 7.94293 47.56036 7.89963 42.7428 8.53157 47.06912 7.21502 49.39434-1.74911 3.08921-10.99935 9.59819-15.97338 11.23977-3.56062 1.17511-4.84083.63031-86.97889-37.01433-45.8508-21.01385-85.1074-39.30687-87.23689-40.65116l-3.87181-2.44417-91.69098 14.57465c-50.43004 8.01605-92.68884 14.99715-93.90844 15.51354-8.4528 3.57899-18.10088 34.72345-15.35623 49.57064 2.03714 11.01987 7.67375 19.66561 15.38622 23.60022 3.70443 1.88986 12.81689 2.54659 122.59468 8.8354 65.22603 3.73658 118.70529 6.84135 118.84279 6.89947.1375.0581.25 236.58069.25 525.60569 0 419.7888-.25145 525.4791-1.25 525.3959-.6875-.057-4.4-.7603-8.25-1.5623z" fill="#2f2f2f"/><path d="m1014.6955 1888.2101-8.7844-58.7101.01-494.5.01-494.5 8.7774-58.70922c4.8275-32.29006 9.0469-58.39006 9.3762-58 .3294.39007 4.5133 27.03422 9.2977 59.20922l8.6988 58.5-.028 494-.028 494-8.659 58c-4.7624 31.9-8.9341 58.3195-9.2704 58.7101-.3363.3905-4.5644-25.7095-9.3958-58zm-248.1955-84.6724c-33.73102-7.068-62.60999-14.9395-95-25.8941-18.99099-6.423-51.95628-18.9848-53.94594-20.5567-5.72067-4.5197-42.18302-22.3543-71.80535-35.1217-40.33398-17.3842-106.24147-62.4489-155.8895-106.5904l-10.76878-9.5744-.47783-488.1502c-.26281-268.4826-.88304-496.7002-1.37829-507.1502-.52629-11.10492-.53074-19.74388-.0107-20.7902 1.95466-3.9327 12.99084-15.70324 18.95233-20.21343 10.79203-8.16473 17.91196-10.83783 53.32405-20.01991 81.83005-21.2179 170.07756-45.63192 194.81002-53.89496 59.1528-19.76277 89.79379-41.4825 125.67124-89.0815 19.77141-26.23094 36.91479-53.06072 95.5258-149.5 44.11472-72.58691 70.48607-115.52132 75.85667-123.5 10.06208-14.94843 25.15055-26.34893 42.13627-31.83719 20.92311-6.760478 60.07691-6.760478 81.00001 0 16.9857 5.48826 32.0742 16.88876 42.1363 31.83719 5.3706 7.97868 31.7419 50.91309 75.8566 123.5 58.611 96.43928 75.7544 123.26906 95.5258 149.5 35.8775 47.599 66.5185 69.31873 125.6713 89.0815 25.0932 8.38355 112.3963 32.54068 192.81 53.35129 38.8933 10.06537 46.0614 12.85531 57.6375 22.43358 3.6506 3.02058 9.17 8.72867 12.2653 12.68466l5.6279 7.19271-.5407 6.12813c-1.9431 22.02312-2.4838 141.98224-2.4867 551.68203v456.5539l-10.75 9.6203c-48.5705 43.4661-115.5843 89.3182-155.9987 106.7371-29.6223 12.7674-66.0847 30.602-71.8054 35.1217-1.9896 1.5719-34.9549 14.1337-53.9459 20.5567-32.343 10.9387-70.9303 21.3329-99.5 26.802-4.675.895-9.5125 1.8444-10.75 2.1099l-2.25.4826v-525.519c0-289.03553.1125-525.55381.25-525.59624.1375-.0424 53.575-3.12345 118.75-6.84672 110.3408-6.30346 118.7754-6.9118 122.5-8.83523 8.3785-4.32675 14.6989-14.30505 16.0143-25.28251 1.7403-14.52277-6.9339-42.34477-14.7624-47.34943-1.3367-.85451-39.6369-7.39449-94.2372-16.09154l-91.9852-14.65193-7.5148 3.98906c-4.1331 2.19398-43.4717 20.46121-87.4191 40.59384-90.3648 41.39675-80.8319 38.24826-92.4059 30.51946-9.6376-6.43573-9.6562-2.28859.2512-55.9912 4.7859-25.94211 8.5312-47.33792 8.3228-47.54625-.2083-.20834-14.3029-.85553-31.3212-1.43821-17.0184-.58267-31.8721-1.15679-33.0083-1.2758-2.0185-.21145-1.6812-3.08679 14.7496-125.7164 11.1772-83.42073 16.6069-126.84117 16.1937-129.5-4.1713-26.84433-47.2978-45.84743-96.0489-42.32264-39.13486 2.82952-69.34095 20.41478-72.69739 42.32264-.40438 2.63938 5.11324 46.68959 16.22083 129.5 9.25851 69.025 16.79187 125.55531 16.7408 125.62291-.0511.0676-14.90957.63433-33.0189 1.25938-18.10932.62506-33.10389 1.31432-33.32126 1.53169s3.52054 21.62057 8.30646 47.56268c9.90731 53.70261 9.88871 49.55547.25112 55.9912-11.57396 7.7288-2.04105 10.87729-92.40585-30.51946-43.94743-20.13263-83.28605-38.39986-87.41916-40.59384l-7.51474-3.98906-91.98526 14.65193c-54.60031 8.69705-92.90048 15.23703-94.23714 16.09154-5.67108 3.62545-11.11033 16.52603-13.88011 32.92021-1.38227 8.18158-1.45809 10.85816-.46088 16.27019 2.05523 11.15413 7.42118 19.22117 15.59287 23.44192 3.72486 1.92393 12.15108 2.53178 122.5 8.83699 65.175 3.72402 118.6125 6.80487 118.75 6.84633.6538.19716.15388 1051.06839-.5 1051.02059-.4125-.03-7.95-1.5635-16.75-3.4075z" fill="#1c1c1c"/><path d="m1014.7222 1888.1961-8.7777-58.6961.086-495.5.086-495.5 8.8081-58c4.8444-31.9 9.057-57.325 9.3612-56.5s4.4222 27.6 9.1512 59.5l8.5982 58v493.5 493.5l-8.6939 58.5c-4.7816 32.175-8.954 58.8133-9.2719 59.1961-.3179.3829-4.528-25.7171-9.3558-58zm-250.2222-85.1727c-58.36227-12.3134-126.01244-34.4186-155-50.6476-14.69835-8.229-33.768-17.4066-59.70962-28.7364-47.12193-20.5801-111.34844-64.4534-164.03068-112.0498l-6.7403-6.0896-.01-458.392c-.009-410.30285-.56974-535.13518-2.48018-551.82763-.45297-3.95786-.10626-4.68786 5.58881-11.76724 7.3002-9.07467 17.8628-17.60916 27.38167-22.12413 4.55892-2.16238 19.87377-6.66001 43.91661-12.89734 91.43107-23.71954 172.12593-46.21582 197.90293-55.17176 64.09327-22.26853 94.72547-48.3208 143.13313-121.73276 16.36143-24.81269 27.90278-43.37797 66.57216-107.08714 49.45144-81.473 79.83233-130.63923 84.34252-136.49382 5.83324-7.57199 16.21549-16.04602 25.71344-20.9874 27.02524-14.060078 78.76111-14.087173 105.73201-.0554 8.849 4.60378 19.102 12.65524 24.4922 19.23333 4.4186 5.39233 22.3899 34.32116 71.94 115.80327 88.1836 145.01272 102.9505 166.96225 132.255 196.58416 30.7522 31.08529 59.1384 45.95622 124.6805 65.31763 24.663 7.28557 113.8523 31.47577 164.4029 44.58987 24.0428 6.23733 39.3577 10.73496 43.9166 12.89734 9.5092 4.51038 20.0797 13.04721 27.3578 22.09442 5.8301 7.24726 6.0311 7.68887 5.5827 12.26724-1.9021 19.42367-2.4402 140.84817-2.4402 550.66316v459.1621l-13.9321 12.2932c-51.5356 45.4728-111.7245 86.0586-156.8583 105.7703-25.9416 11.3298-45.0113 20.5074-59.7096 28.7364-29.265 16.3843-100.8519 39.6543-157 51.0344l-16 3.2429-.5-525.0766c-.275-288.79206-.4022-525.24932-.2826-525.46054.1195-.21122 53.4445-3.40372 118.5-7.09445 92.449-5.24482 119.047-7.04386 121.7826-8.23717 7.7557-3.38316 14.1286-12.70308 16.145-23.61086 2.9106-15.74519-6.0205-45.24328-15.1975-50.19481-.8539-.46072-42.8945-7.43298-93.4235-15.4939l-91.871-14.65622-8.5765 4.46352c-4.7171 2.45494-44.2353 20.78211-87.8183 40.72704l-79.2418 36.26353-6.2582-3.08552c-3.442-1.69704-8.0333-4.9068-10.2028-7.1328l-3.9446-4.04727 8.8083-47.56149c4.8446-26.15882 8.597-47.77277 8.3388-48.031s-15.2861-.98807-33.3953-1.62187l-32.9257-1.15235 16.7872-125.07517c10.7335-79.97106 16.6011-126.69794 16.2711-129.57517-1.7033-14.84724-17.1819-28.84719-40.4952-36.6269-13.8546-4.62331-27.0285-6.59914-44-6.59914-30.63519 0-56.84218 8.08967-72.46619 22.36913-3.08304 2.81773-6.6972 6.98594-8.03147 9.26271-5.54159 9.456-6.15652 2.33821 11.93421 138.13674 9.0823 68.1766 16.67199 124.89056 16.86597 126.03102.34769 2.04423-.11354 2.08987-32.61911 3.22752-18.13449.63468-33.17697 1.35914-33.42773 1.60991-.25077.25077 3.49957 21.86689 8.3341 48.03583l8.79004 47.57988-3.93991 4.04245c-2.16695 2.22334-6.7561 5.43093-10.19812 7.12797l-6.25821 3.08552-79.24179-36.26353c-43.58298-19.94493-83.10122-38.2721-87.8183-40.72704l-8.57651-4.46352-91.87095 14.65622c-50.52903 8.06092-92.5696 15.03318-93.42349 15.4939-7.75064 4.18192-15.13756 24.33366-15.40353 42.02133-.19153 12.73665 1.88947 18.52201 9.40059 26.13454 4.74154 4.80556 6.36065 5.79538 11.00494 6.72773 2.995.60125 55.17046 3.80633 115.94546 7.12241s112.8625 6.28348 115.75 6.59423l5.25.565v525.42809c0 288.9854-.3375 525.3877-.75 525.3385-.4125-.049-8.85-1.7984-18.75-3.8871z" fill="#0e0e0e"/><path d="m1014.6702 1887.2393-8.7512-58.7393v-493.5-493.5l8.7791-58.71611c4.8285-32.29386 9.0621-58.39386 9.408-58s4.3043 25.46611 8.7965 55.71611l8.1677 55v499.5 499.5l-8.1677 55c-4.4922 30.25-8.4611 55.3327-8.8197 55.7393-.3587.4067-4.5902-25.6933-9.4033-58zm-250.1702-84.2983c-55.27876-11.4126-124.77949-34.0057-153.5-49.8993-16.37935-9.0642-30.66347-15.9936-54.5-26.4385-25.92291-11.3592-26.83158-11.8255-49.5-25.3982-41.89756-25.0863-86.33799-57.9228-119.5-88.2973l-8-7.3275-.6957-490.0401c-.38264-269.52205-1.05787-497.6901-1.50051-507.0401l-.8048-17 2.72807-4.14756c6.41526-9.75332 21.017-21.91695 32.30021-26.90692 2.95748-1.30794 19.46122-6.02827 36.67498-10.48963 35.28845-9.14586 108.44836-28.79035 143.79775-38.61178 56.46731-15.68881 84.40801-25.88548 108.11803-39.45659 16.06087-9.1929 26.8961-17.70436 42.38352-33.29377 28.40457-28.59162 45.8165-54.22182 122.00739-179.59375 37.08294-61.0199 68.3977-112.10105 76.31706-124.48964 11.26131-17.61655 30.59726-30.71459 51.674-35.003603 17.9428-3.651274 45.0572-3.651274 63 0 21.0767 4.289013 40.4127 17.387053 51.674 35.003603 7.9194 12.38859 39.2341 63.46974 76.3171 124.48964 77.8296 128.06845 96.4636 155.28649 125.6467 183.52772 29.6153 28.65937 59.6397 43.62385 126.3622 62.98016 26.4481 7.67265 120.8108 33.20834 164.2977 44.46099 17.2138 4.45422 33.7175 9.16871 36.675 10.47665 11.2227 4.96318 25.9241 17.24221 32.3917 27.05448l2.6366 4-.8057 17c-.4432 9.35-1.1184 237.51805-1.5005 507.0401l-.6948 490.0401-8 7.3275c-33.162 30.3745-77.6024 63.211-119.5 88.2973-22.6684 13.5727-23.5771 14.039-49.5 25.3982-23.8365 10.4449-38.1207 17.3743-54.5 26.4385-28.7654 15.9184-97.9198 38.3907-153.7106 49.9494l-18.2856 3.7885-.2519-525.1398c-.1386-288.8269-.1694-525.29725-.069-525.48969.1008-.19245 50.9508-3.198 113-6.67901 62.0493-3.481 115.6817-6.57402 119.1833-6.87335 10.7673-.92047 17.9211-6.6374 22.4811-17.96579 4.2615-10.5866 1.8818-32.06391-5.2221-47.13196-2.7003-5.72744-7.371-11.5-9.305-11.5-.4987 0-41.8025-6.525-91.7862-14.5s-91.5594-14.5-92.3905-14.5c-.831 0-3.6783 1.3222-6.3274 2.93821-2.649 1.61602-41.8555 19.88969-87.1256 40.60815l-82.3091 37.66993-6.1909-3.05235c-3.4049-1.67879-7.9461-4.85335-10.0914-7.05458l-3.9007-4.00224 8.7733-47.59755c4.8254-26.17865 8.5448-47.82614 8.2654-48.10554s-15.2988-1.0203-33.3764-1.64644l-32.8683-1.13843 16.7743-125.05958c10.8766-81.08959 16.5875-126.64175 16.2431-129.55958-1.7795-15.07464-17.1768-28.901-41.1167-36.9216-25.6759-8.60221-61.1109-8.60221-86.78679 0-23.93855 8.02015-39.33021 21.84051-41.11938 36.9216-.34721 2.92663 5.33798 48.22539 16.2602 129.55899l16.79407 125.05898-32.88543 1.13903c-18.08699.62647-33.11403 1.36763-33.39343 1.64703s3.44 21.92689 8.26533 48.10554l8.77332 47.59755-3.90064 4.00224c-2.14536 2.20123-6.68652 5.37579-10.09148 7.05458l-6.19083 3.05235-82.30917-37.66993c-45.26974-20.71846-84.47627-38.99213-87.12532-40.60815-2.64904-1.61601-5.49637-2.93821-6.32739-2.93821s-42.40672 6.525-92.39044 14.5-91.28753 14.5-91.78624 14.5c-1.93398 0-6.60471 5.77256-9.30495 11.5-6.39287 13.55978-9.1724 31.86506-6.45623 42.519 3.48896 13.6851 11.75647 21.55643 23.7152 22.57875 3.50157.29933 57.13405 3.39235 119.18327 6.87335 62.04923 3.48101 112.89923 6.48656 113 6.67901.10078.19244-.0418 236.63527-.31677 525.42849l-.5 525.0786z"/></g></svg>