<svg height="24.000002" viewBox="0 0 23.999998 24.000002" width="23.999998" xmlns="http://www.w3.org/2000/svg"><path d="m12.308594 0c-.053436-.00019893-.126247.00686349-.183594.0078125-.126954-.00099703-.248867-.00633844-.376953-.00390625-.298593.00491086-.589602.02102815-.871094.04296875-.35174.02741601-.683716.0641953-.955078.1171875l-.625.12109375.015625.15820313c.00911.0861681.037726.17769652.064453.20507812s.048828.10362958.048828.16992188c0 .0743634.02414.10469462.095703.109375.016936.001166.072893-.005674.1054687-.009766h.00195c.00373-.001115.040448-.008161.046875-.009766.00169-.00024991.00608-.001692.00781-.001953.057667-.00817.077126-.003878.171875-.0214844.4862403-.09035331.6494533-.10216028 1.7871153-.13476498 1.052803-.0301727 1.467103-.002698 2.697266.17382812.19.0272615.195312.0235809.195312-.13476562 0-.0896216.02615-.1640625.05664-.1640625.031 0 .04816-.0727875.03906-.16601562-.0016-.0163198-.0076-.0250962-.0098-.0390625.0039-.0167572.01953-.0723922.01953-.0761719 0-.006843-.061-.0193732-.07422-.0273438-.083701-.07773293-.306086-.1158062-1.019491-.22070306-.183774-.02702152-.404242-.04319241-.621094-.05859375-.073636-.0052298-.134678-.01561884-.210937-.01953124-.0031-.00016679-.0066.00016443-.0098 0-.06707-.0033832-.138399-.0015305-.207031-.0039063-.0019-.0000664-.0039.00006561-.0059 0-.068308-.00283958-.105428-.01338111-.183519-.01367183zm-4.496094.4296875c-.6703418.0903805-.8569357.8958911-.2910156 1.2539063.1311721.082982.3005215.1067369.4667968.082031.03135-.00428.059612-.016731.089844-.025391.1238091-.032895.2438126-.085975.3339844-.1738282.1284653-.125163.1575924-.202963.1679687-.3457031.00163-.0077.000615-.015663.00195-.023437.0015-.030891.00977-.044032.00977-.083984 0-.029443-.00485-.041446-.00586-.066406-.00182-.021779-.00346-.042524-.00781-.0644531-.0126989-.12153068-.039936-.20921732-.1210971-.30078178-.1782536-.20110238-.3950315-.28559262-.6445312-.25195312zm7.734375.12304688c-.0081-.00002142-.0088.008679-.01563.009766-.116272.006713-.151326.0840763-.175781.25976562-.01499.10765813-.03468.22885228-.04492.26953128-.0117.046497.05836.1040426.189453.1523437.813115.2995844 1.104462.4183439 1.564453.640625.767297.3707805 1.645946.9470083 2.345703 1.5390625.0075.00637.01183.00557.01953.011719.01621.016193.07872.063707.08398.072266.02451.039872.05911.050074.101562.041016.0036.0007663.01473.00969.01758.00977.000451.0000126.0034-.00194.0039-.00195.000302-.0000095.0016-.00193.002-.00195.000383.0000948.0075.00586.0078.00586.0043.0000368.04824-.045705.06445-.058594.05797-.03254.121151-.067182.208984-.1503906l.220686-.20704368-.183594-.1640624c-.335949-.3017065-.763634-.6070556-1.214843-.9042969-.033671-.0227929-.031332-.0233189-.066407-.046875-.013796-.009266-.036614-.0199352-.050781-.0292969-.82494-.5314659-1.744159-1.01609778-2.539062-1.29492188-.239978-.08417594-.380071-.12254592-.484376-.13476562-.0089-.001003-.04707-.017558-.05469-.0175781zm-9.8085938.32421874c-.1835414-.00769774-.3642656.01339902-.4902343.06445313-.2501785.10139525-1.2534762.77843005-1.5878907 1.07226565-.0328032.0288227-.1855629.1595341-.3398437.2890625-.2919107.2450773-1.070671 1.0177053-1.296875 1.2871094-.1275149.1518674-.2442779.3174486-.3925781.5078124-.0055555.0070383-.0200436.0204791-.0253906.0273438-.0113163.0145281-.0124578.0209334-.0234376.0351562-.1662584.2150213-.3626139.4536488-.4472656.578125-.1288889.1895254-.16378142.3091156-.18359372.5214844-.003733.01948-.005108.039-.007813.058594-.001036.015221-.004927.020726-.005859.037109-.00060719.010673.00050473.01838 0 .029297-.003363.042305-.009.084586-.007813.1269532-.00000519.00194-.00000294.00392 0 .00586v.00195.00195.00195c.0002619.071968.009348.1190002.015625.1738281.003214.063249-.00077123.1558778.005859.1914063.0305754.1638311.19323992.3772104.38867192.5527343.00414.00377.00947.00801.013672.011719.1201049.1057614.2497735.1989548.3730477.2480554.3666302.1460302.7690879.1169646 1.1328125-.0820313.0184217-.0100786.0349946-.0301135.0527344-.0410156.1835038-.1127731.3392371-.2678716.6367187-.6582031.7559617-.991912 1.6214077-1.7909739 2.9511719-2.7265625.3163615-.2225837.4895094-.5381368.5195312-.9511719.0210498-.2895975-.0529333-.6230302-.1679687-.7636719-.1874358-.2291585-.3993094-.4035951-.6054687-.49609372-.138511-.06214644-.3242711-.09777101-.5078126-.10546876zm-.1542968.70507808c.1476331-.0301641.3079201.0034128.4589844.1054688.2336462.1578469.3062967.4834545.2050781.7285156-.0004415.000773-.00151.00118-.00195.00195-.028721.068561-.078502.1255079-.1347657.1757812-.018073.016318-.035593.032892-.054687.046875-.060936.040699-.1243949.073961-.1914062.091797-.01121.00234-.021772.00398-.033203.00586-.2409605.050348-.4964066-.03767-.6269531-.25-.1331408-.2165423-.1338992-.4287308-.00391-.6269507.1006542-.1534865.2351793-.2491327.3828125-.2792969zm6.3964846 1.1621094c-.01929 0-.03735.00187-.05664.00195-.207846.00141-.415201.00543-.623047.021484-.353116.019023-.69014.048456-.96289.097656-1.050225.1894486-2.3833587.7178326-3.2929701 1.3027382-.9474131.6092129-1.9625111 1.6208467-2.6132813 2.6054687-.0914425.1383528-.1660156.271899-.1660156.296875s-.020523.05289-.044922.0625-.1497029.2418089-.2792969.515625c-.3314018.7002112-.3953788.8531274-.4355468 1.0683594-.019429.1041009-.053534.2015188-.078125.2167969-.024591.015277-.061216.1461331-.080078.2890624-.018862.1429288-.052007.2597657-.074219.2597657s-.052665.1111388-.066406.2480469c-.0137421.1369079-.0506793.3436932-.0820313.4589842-.017299.06361-.016095.388798-.025391.597656-.00641.144018-.014985.23441-.017578.41211-.00333.08692-.017582.199559-.017578.273437.0000018.0341.00702.08962.00781.126953.00137.09963.010409.198042.015625.296875.00809.352628.012272.768721.037109.861328.030921.115292.067689.302678.082031.417969s.04653.232386.072266.259766.046875.103742.046875.169922c0 .125408.1658309.656177.2929687.941406.040484.09082.072266.186601.072266.212891 0 .04707.3799762.812521.5253907 1.058593.041959.071.1322116.186807.2011719.291016.019752.02975.049136.08457.066406.107422.013213.01749.1105665.151536.1855469.253906.1190224.168135.2338487.351327.3105469.445313.3868788.47408 1.172976 1.214983 1.671875 1.576172.2784414.201583.5228097.368307.5429687.36914.044886.0019.1774791-.287298.2207031-.482422.01135-.05123.00476-.09-.019531-.132812-.00188-.0032-.00367-.0085-.00586-.01172-.0424148-.064139-.1363724-.141966-.3476531-.298827-.5444188-.404192-1.2632449-1.107667-1.6367188-1.599609-.1682914-.221675-.3066406-.416264-.3066406-.433594s-.028611-.06635-.064453-.109375c-.030487-.0366-.071694-.08491-.1015624-.121094-.1001103-.159762-.171245-.297257-.2539065-.445313-.2680241-.548704-.6230469-1.417447-.6230469-1.580078 0-.05974-.023299-.132519-.052734-.162109s-.06798-.181573-.085937-.337891c-.016329-.142151-.052179-.254641-.082031-.292968-.00388-.0193-.00562-.03404-.00977-.05469-.0538-.0864-.06798-1.296008-.044922-2.070312.00487-.08894.00577-.185542.011719-.267578.00498-.08719.01098-.133864.017578-.185547.0078-.08341.018342-.140082.027344-.207032.02964-.05694.06326-.1736483.078125-.3066402.01667-.1491163.051886-.3145446.078128-.3671856.0262424-.0526403.0882862-.2262405.1367188-.3847656.1381805-.4522788.4240885-1.0966376.6660156-1.5390625.0356201-.0611123.0696142-.1220621.1074219-.1835937.0608426-.0998588.1232607-.1991048.1679687-.2480469.0296851-.0324968.0878496-.1119126.1308594-.1757813.1669429-.2479044.3588266-.4919228.5683594-.7265624.024914-.027812.052833-.052623.078125-.080078.2010562-.2185262.4140383-.4310985.6445312-.6308594.0077-.00667.015713-.012886.023437-.019531.5031701-.4328669 1.0678664-.8139519 1.65625-1.1113281.8853345-.4474588 1.8947429-.7550856 2.8613279-.8808594.09653-.012561.187708-.010637.283203-.019531.0556-.00317.113205-.00353.169922-.00586.159047-.00255.293399-.00767.492188-.00781.251747-.0001835.32748.00798.498047.00977 1.364349.097014 2.857031.5637189 4.02539 1.3046875.499549.3168122 1.206027.9195534 1.572266 1.3359375.04457.047636.0878.096377.130859.1445312.152605.1775299.317629.3700609.373047.4316407.05598.062198.08749.1093928.103516.140625.09954.1343938.187333.2760152.277344.4160156.0093.020762.02324.035497.0293.054687.02005.063507.05724.1152344.08398.1152344s.04883.033044.04883.074219c0 .041176.02861.1064443.06445.1445313.0329.034963.09257.1442423.146484.2480468.02654.051682.04868.1075758.07422.1601563.03571.081755.08008.1762425.08008.203125 0 .032871.0174.060547.03906.060547.0038 0 .01.019903.01367.021484.0337.07684.07365.1476984.105468.2265624.03708.1053073.07387.2104242.154297.4589844.05692.1759127.109553.3277225.138672.4101563.0078.026232.01579.051667.02344.078125.235946.6499731.305053 2.4287041.130859 3.4414061-.05454.31705-.120211.599573-.144531.626953-.02431.02738-.04492.101313-.04492.164063 0 .07486-.05046.242-.130859.453125-.159401.418559-.431564 1.00503-.634766 1.371093-.0018.0032-.0041.0085-.0059.01172-.000693.0012-.0032.0027-.0039.0039-.100003.17861-.182242.30458-.224609.322265-.02302.0096-.04102.04083-.04102.07031 0 .09323-.651071.893762-1.023437 1.257812-.443095.433199-.710316.652992-1.060547.878906-.20446.131884-.236159.186376-.232422.28125-.000096.0021-.01037.01012-.0098.01172.0012.0032.0062.02076.0078.02539.0025.01747-.006.02311-.002.04492.03911.209565.163756.478515.222656.478515.05845 0 .455145-.310783.865234-.65039.02898-.02286.05543-.03943.08398-.0625.09169-.07409.188334-.171551.283203-.257813.117611-.104008.277327-.229982.353515-.30664.559462-.56291.662907-.688488 1.087891-1.31836.384599-.570018.644108-1.12461.902344-1.796875.0056-.01527.02454-.04875.0293-.0625.02814-.0813.04243-.119863.06836-.193359.06333-.175961.126683-.300502.193359-.50586.03599-.110831.08519-.324084.109376-.472656.02419-.148573.06663-.376156.0957-.505859.03311-.147737.04964-.681815.05078-1.214844.000225-.02018.0059-.04873.0059-.06836.000028-.180031-.01244-.394005-.03125-.615235-.0015-.01755-.000362-.03115-.002-.04883-.0085-.195376-.0079-.499197-.02344-.568359-.02904-.129702-.07391-.3649128-.09961-.5234378-.04796-.2958176-.262409-.9970776-.394531-1.2910156-.04083-.090824-.07422-.1917662-.07422-.2226562 0-.068052-.472625-1.0047364-.546875-1.0839844-.02899-.030942-.0976-.144034-.154297-.25-.0567-.1059669-.122381-.1914062-.144531-.1914062-.02215-.0000001-.03906-.033387-.03906-.074219s-.01756-.082187-.03906-.091797c-.02151-.00961-.111245-.122473-.197265-.25-.2139485-.3173876-1.1154285-1.229207-1.5818895-1.5996014-.461241-.3662503-1.015597-.6899829-1.597656-.9726563-.760433-.3692992-1.573433-.6595219-2.345703-.7988281-.279659-.0504464-.627033-.0789348-.990235-.0976563-.202289-.014874-.404627-.020533-.607421-.021484-.0153-.0000525-.02962-.00195-.04492-.00195zm-8.2578128.3144532c.024984-.00119.048893-.00351.076172 0 .014676.0001375.028341.00476.042969.00586.180265.037515.3835983.1578178.453125.2929688.1374956.2672737.0620317.6113502-.1542972.7675774-.012742.00959-.02344.020449-.037109.029297-.1468439.082635-.4159343.1091845-.5625.050781-.00273-.00109-.00506-.00468-.00781-.00586-.071075-.0352944-.1307934-.0826555-.1816435-.136718-.040483-.0441368-.0761719-.0904409-.0761719-.1210938 0-.013911-.01382-.014653-.019531-.025391-.015865-.030911-.036343-.059158-.046875-.091797-.010588-.017466-.015763-.049028-.021484-.087891-.00901-.054926-.00648-.1093743 0-.1640625.00557-.034719.00578-.074376.019531-.1054687.026223-.059298.067431-.1157319.1347657-.1875.085807-.091457.2055874-.1682905.2871093-.1992188.03139-.00932.062015-.017406.09375-.021484zm16.9667968.6855468v.00195l-.07031.070312c-.06809.025193-.139394.078865-.244141.1875l-.173828.1816407.230469.25c.127097.1378058.266059.2942634.308593.3457031.04253.05144.101287.1212228.13086.15625.134096.1588594.546875.712645.546875.734375 0 .013316.091.1630157.203125.3320312.118111.1780367.298844.5018773.451172.7949219.0022.0042.0037.00754.0059.011719.005.00992.0068.01744.01172.027344.144135.280089.265625.5338311.265625.5820313 0 .038477.02406.070312.05273.070312.005 0 .0051.013297.0098.015625.01444.033064.04657.092138.05859.1210937.01163.062551.04077.1578066.08789.2558594.0554.1152909.100591.2409247.101563.2773437.00097.036419.03097.1128829.06641.1699219.0071.01146.02024.00606.0293.015625.02243.051711.05431.082066.08984.068359.0029-.00111.01766-.0045.02148-.00586.0012-.0002618.0028.00228.0039.00195.04341-.012481.176165-.047316.294922-.078125l.214844-.056641-.06055-.2050781c-.03322-.1131072-.07664-.2230126-.09766-.2441406s-.03906-.072001-.03906-.1132813c0-.071354-.0967-.2927728-.273437-.6640625-.004-.013079-.02361-.060487-.02539-.068359-.0091-.040489-.02703-.052966-.04297-.074219-.057458-.1187213-.078637-.1705166-.158262-.3320232-.314617-.6381497-.404584-.8052189-.505859-.9414063-.022604-.0303959-.160999-.2440275-.308594-.4746094s-.282648-.4309015-.298828-.4453125c-.016177-.0144114-.145697-.1661865-.289063-.3378906-.250943-.3005453-.386396-.4506538-.49414-.5234375l-.101563-.1074219zm-8.324219.3398438c-.17169 0-.175781.0038-.175781.2246094 0 .1239378.01903.2480086.04297.2753906.02393.027382.08465.1619201.134766.2988281.03425.093575.04554.1439355.05273.1972656.0019.014228.01368.039005.01367.052734.000031.000444-.000031.00151 0 .00195-.000364.064716-.02316.1284249-.06641.2460938-.05032.136908-.114269.2790942-.142579.3164062-.09134.120402-.06467.6503248.04297.8496094.142644.2641022.136314.7428175-.01367 1.0585938-.06428.1353264-.117187.2593976-.117187.2753906s.03512.029297.07813.029297.07813-.027239.07813-.060547.05562-.1334673.123047-.2226563c.268513-.3551433.310448-.4975299.267578-.8945312-.06596-.6107617-.05488-.6914262.115234-.9316407.273765-.3865659.343244-.5841895.308594-.8769531-.01716-.1450407-.04564-.3789869-.0625-.5195312l-.03125-.2539063-.236328-.033203c-.130504-.01798-.31576-.033203-.41211-.033203zm-.953125.029297c-.05163-.032075-.553115.037747-.736328.091797-.0069.00212-.04386.00594-.04687.00781-.001.0006378-.000991.00318-.002.00391-.01135.0045-.06046.00966-.06445.013672-.04109.0413.240802.6403223.326172.6933593.01048.00651.01819.024092.02734.035156.02043.033517.03438.065773.04883.09375.03995.1243538.05055.3119955.01563.5039062-.06004.329947-.02992.7939157.05469.8222656.03232.010826.06055.040828.06055.066406s.07053.1484018.158203.2734375c.17132.2443209.18895.3875813.132813.9316406-.0012.010025-.0028.013437-.0039.023437-.02113.1934865-.01704.2361732 0 .2226563.01399.036618.05881-.037776.201172-.3613282.04288-.097452.06141-.2288357.07031-.3652343.0054-.037791.0089-.077199.0098-.1132813.000174-.00454.0039-.015333.0039-.019531-.000001-.00437-.0056-.016588-.0059-.021484-.000358-.013413-.0032-.025683-.0039-.039063v-.00195c-.000787-.010956-.000745-.022287-.002-.033203-.0043-.038405-.0023-.078518-.01172-.1171874-.01636-.1131553-.04043-.2202239-.08008-.3027344-.0554-.115291-.101562-.3046309-.101562-.4199219 0-.1152909.04616-.3046309.101562-.4199219.04945-.1029073.07513-.2385649.08789-.3847656.0036-.026505.0042-.053977.0059-.080078.000735-.020365.0059-.037809.0059-.058594 0-.040135-.007-.074827-.0098-.1132812-.0027-.025784-.0032-.0521-.0078-.078125-.01536-.1251056-.03858-.241607-.08203-.3320313-.0554-.1152909-.102542-.2740015-.103515-.3515625-.00098-.077562-.02252-.1535768-.04883-.1699219zm2.472657.203125c-.05345.00122-.07593.022076-.109375.066406-.08287.1098285-.09689.4140865-.02149.4609375.08848.054971.06014.59128-.03906.7480469-.04951.078249-.101528.1555109-.117188.1699219s-.07613.097126-.132812.1835937c-.06441.098229-.08143.2334542-.08594.4667969-.0018.023281-.000081.047113 0 .070312-.000336.081533-.0064.1185032-.0039.2382812l.01367.5878907c-.0032.018646-.009.035055-.01367.050781l-.197266.2910156c-.04054.060016-.0489.08145-.08398.1367188-.0012.00132-.0048.00663-.0059.00781-.0013.00141-.000673.00437-.002.00586-.05954.094417-.136227.2114045-.146485.2382813-.05478.1435063.03083.084138.345703-.2363281.405237-.4124419.468333-.5431514.46875-.9785156.000086-.089299.0024-.1582168.0098-.2226563.000427-.012555.0051-.021759.0059-.033203.02992-.200892.120077-.3215299.386719-.5976563.303625-.3144309.378906-.5001155.378906-.9277343 0-.2180567.02541-.3865363.06445-.4257813.08737-.08782.0071-.1348645-.417968-.2421875-.158297-.03997-.243426-.059809-.296875-.058594zm-4.134766.0820311c-.107556 0-.3287171.091595-.5078125.1835937-.057846.024913-.1045284.053128-.1289063.076172-.00424.00388-.029026.0081-.03125.011719-.0008591.0014.00456.00818.00391.00977-.012181.01147-.062836.030623-.064453.039063-.00832.04343.1272974.229631.3027344.4121094.3727161.3876752.4160156.4789938.4160156.8984375 0 .385251.1088283.6113607.4589846.9492187.267946.2585353.321051.3988013.322265.8613282.000316.1201395.0161.2586706.03516.3085937.05222.1367985.167121-.3594091.169921-.7304687.0021-.2789701-.01811-.3384228-.21875-.6289063l-.1543028-.2226615c-.02503-.040936-.05183-.090253-.06641-.1230468v-.6445313c0-.029903-.0036-.025919-.0039-.054687.02222-.1901075.01213-.3471091-.03711-.4921875-.0058-.031165-.0049-.155253-.01172-.1601562-.09885-.071114-.390625-.526422-.390625-.609375 0-.045728-.042532-.083984-.09375-.083984zm5.599609.4726563c-.0014 0-.0043.018384-.0059.019531-.0052.00403-.0108.0036-.01563.00977-.09005.052243-.12513.2195724-.150391.5488282l-.0332.4355468-.328125.3574219c-.21716.2378716-.294924.3608939-.345703.5214844-.01554.046197-.02204.093755-.02734.140625-.01978.095224-.04305.1503625-.06836.3242187-.06441.4424505-.06645.4471699-.369141.7578125-.167605.1720089-.304687.3309707-.304687.3535157s.01116.041016.02539.041016c.02184 0 .201317-.1502973.373047-.2753906.04881-.032461.0086.002.07813-.044922.0253-.017082.03516-.037278.05859-.054687.151656-.1151208.311286-.2152759.335938-.2480469.02299-.030567.05699-.1752542.08984-.2597656.000298-.0007649.0017-.00119.002-.00195.000728-.00188.0012-.00398.002-.00586.05559-.1444308.112381-.2643661.152343-.4375.01931-.083668.05784-.1486949.117188-.2167969.02834-.032584.06677-.061615.101562-.091797.0739-.063056.14884-.1225682.291016-.2128906.354586-.2252634.441245-.3495926.574219-.8125.05546-.193084.112563-.3886199.126953-.4355469.0021-.00686-.0095-.016274-.0098-.023437.01239-.014639.03352-.031508.02539-.039063-.0023-.00212-.03953-.018904-.04687-.023437-.006-.00714-.0041-.016932-.01367-.023437-.0067-.00458-.02304-.010424-.03125-.015625-.04245-.035967-.09496-.075146-.181641-.125-.158919-.091399-.260974-.1282578-.34375-.1367187-.0089-.0028-.04681-.025391-.05078-.025391-.0046 0-.0074.00674-.01172.00781-.0012-.0003138-.01498-.00781-.01563-.00781zm-13.1289059.0507812c.1925386 0 .2600929.030805.4082031.1796875.1453108.1460684.1757813.2179998.1757813.3984375s-.03047.250416-.1757813.3964844c-.141221.1419573-.2189942.1790043-.3789062.1777344-.3839885-.0030485-.6171875-.2243736-.6171875-.5839844 0-.1003131.00814-.1618631.029297-.2167969.00765-.01673.020239-.030684.029297-.046875.0268121-.0450276.0554774-.0854435.1191404-.1425781.1423178-.127724.2267716-.1621094.4101562-.1621094zm6.0390625.091797-.029297.015625c-.0001886-.0000099-.00177-.00195-.00195-.00195-.0003596 0-.00158.00195-.00195.00195l-.00195-.00391-.029297.019531c-.09839.021059-.2978002.1501504-.4433594.2695312-.014031.0097-.042469.025419-.052734.033203-.032495.024639-.035545.035345-.050781.050781-.00506.00353-.037822.024277-.039063.025391-.0008475.0007606.00642.00686.00586.00781-.0008309.00267-.00954.00706-.00977.00977-.0000602.000591-.00391.00335-.00391.00391 0 .096304.1053384.1929794.4921875.4511719.2825182.1885599.4472656.4275558.4472656.6484375 0 .1490964.1720926.4820208.3222656.6230469.066386.062343.2485474.2018893.40625.3105468.2564565.1767002.2968774.2292413.3828126.5097656.052844.1725027.1209051.3797219.1503906.4589844.079313.2132065.2000116.1901543.1445312-.027344-.023895-.093674-.058729-.3114385-.078125-.484375-.00792-.070607-.035932-.1179195-.050781-.1796875-.00386-.030269-.00462-.087946-.00781-.1035156-.00138-.00676-.031046-.0375-.035156-.046875-.0693326-.1811853-.1650068-.338279-.3300828-.4648452-.2465808-.1890573-.3131209-.3401514-.3574219-.8261719-.00829-.09099-.032535-.133951-.048828-.21875-.000416-.00217.0004194-.00371 0-.00586-.0004316-.00218-.00151-.00369-.00195-.00586-.0242448-.1226068-.0436206-.2774533-.0703157-.3203112-.0630103-.1011601-.2828178-.3247803-.4765625-.5078125zm8.4804684.6953125c-.000635 0-.0032.00382-.0039.00391-.104347.012312-.261045.298923-.324219.5976563-.06969.3295885-.112977.3824268-.482421.6191406-.327382.2097628-.461114.350159-.566407.6132813-.002.00461-.002.00909-.0039.013672-.02266.057995-.04465.112865-.06641.1855469-.128407.4289971-.208472.5461208-.476563.7011719-.25144.1454212-.490234.3315685-.490234.3828125 0 .020554.03057.025518.06641.00977.03584-.015752.240081-.1034524.455078-.1933594.477775-.1997961.587838-.2985176.798828-.7246093.0853-.1722699.1568-.2810892.261719-.3652344.0025-.002.0072-.00389.0098-.00586.105462-.082132.242916-.1413145.46289-.2128906.268134-.087247.621219-.448382.763672-.78125.06285-.1468508.135016-.2675782.160157-.2675782.02514.0000001.04687-.033437.04687-.074219 0-.00868-.04366-.042178-.05273-.056641l-.002-.00195c-.084-.1312672-.454362-.4389474-.550781-.4414063-.000359-.0000091-.0016-.00195-.002-.00195-.000685 0-.0013.00193-.002.00195-.000198-.0000095-.0018-.00195-.002-.00195zm-9.8144528.1933593-.0917968.0859374c-.0558828.0371789-.1130305.0799407-.2324219.1933594l-.2773437.2636719.1464843.1171875c.080801.064061.3031568.1748932.4941407.2480469.05745.022005.070208.0372.1113281.054687.058624.0317.1799442.085893.2167969.1132812.064607.06014.1091657.1421821.1894531.3007813.2285928.4515616.3874497.6036066.7929687.7617192.4445772.1733415.4825015.2062257.6816406.578125.0920838.1719701.1915749.3428779.2207032.3789063.0786975.0973401.1607896.0781265.1191406-.0273438-.0199185-.0504398-.083103-.2442928-.140625-.4316406-.1202425-.3916297-.2629448-.5639122-.6757812-.8164063-.3059182-.1871025-.4105183-.3528576-.4882813-.7695312-.0253934-.1360641-.1366953-.2953059-.2773437-.4472656-.1076368-.1162931-.2292625-.2311875-.3652344-.3105469-.1337903-.078086-.27461-.1719834-.3125-.2089844-.0275551-.0269093-.0505455-.0447629-.0742188-.0527343zm10.9824218.8496093-.142578.1386719c-.07824.075347-.184861.2221967-.238281.328125-.203482.4035204-.269899.4666391-.63086.59375-.136049.04791-.278021.1310322-.408203.2207031-.02979.020196-.06332.039696-.08984.0625-.170817.1314646-.298829.270485-.298829.3574219 0 .042504-.01755.08414-.03906.09375s-.07526.089313-.119141.1757812c-.08172.1610171-.212958.2443619-.74414.4707032-.171555.073103-.290155.1532247-.271485.1835937.02069.033657.06593.035533.121094.00586.04844-.026055.206243-.065487.349609-.085937.163892-.023378.294073-.063855.416016-.1171875.01144-.00166.06731-.011721.07031-.011719.0015.0000008.02781-.02912.03125-.03125.01752-.00977.03364-.024368.05078-.035156.03585-.020401.07463-.048979.107422-.076172.09159-.072167.182518-.1552827.279296-.2675781.289992-.3364866.29655-.3388245.972657-.4804687.290436-.060846.341405-.096353.716797-.4824219.19491-.2004536.277425-.3074184.316406-.3828125l.0332-.039063-.01172-.015625c.000137-.00946.01858-.033064.01367-.039063-.02827-.0345233-.148326-.1764121-.267573-.3144532zm-16.8261718.1621094c-.31806987 0-.72656245.3974158-.72656245.7070313 0 .1357838.20494663.5096196.31835937.5800781.0345004.021434.13608682.057164.22460938.078125.0885222.020963.1952713.029311.2382813.019531s.1404828-.032516.2167968-.050781c.0763139-.0182647.2011696-.1018129.2753906-.1855469.1073185-.1210744.1347657-.2058088.1347657-.4160156 0-.00406-.00191-.00765-.00195-.011719.0000149-.00347.00195-.00425.00195-.00781 0-.030489-.00815-.045007-.00977-.070312-.00461-.055165-.00982-.1083513-.021484-.15625-.00137-.00355-.00438-.0082-.00586-.011719-.0142588-.0542155-.029617-.1062121-.0507767-.1386744-.0975382-.1496383-.4262799-.3359375-.59375-.3359375zm4.7402344.15625c-.00305 0-.028697.035768-.035156.041016-.00428.0002597-.028675-.00881-.03125-.00781-.070728.027283-.3964844.5132709-.3964844.5917969 0 .00129.00187.00263.00195.00391-.0000245.0003532-.00195.00358-.00195.00391 0 .0008886.00573.003.00586.00391.015894.082846.2019399.1555631.6015625.2324219.4826917.092836.4796802.090156.7441406.4277344.2576246.3288533.4990114.462689.9746094.5390625.3642004.058484.4587941.1038224.59375.2871094.042445.057645.154864.1926959.2519531.3007812.038523.042886.068502.045723.109375.078125.00573.00565.01865.022984.023437.027344.025716.023419.031662.016377.050781.027344.029656.016892.073914.064453.091797.064453.095984 0 .096525-.00258 0-.099609-.0543151-.054613-.1621344-.2226186-.2382814-.3750149-.1821907-.3646254-.3129013-.481905-.7402344-.6484375-.4457366-.1737042-.5017839-.2160253-.6484375-.5039063-.1725246-.338665-.3562187-.570342-.5214844-.65625-.1532565-.0796652-.395795-.1658763-.6035156-.2304687-.0414019-.0194858-.1352656-.0564206-.1445313-.0644532-.02724-.023614-.0665296-.0429687-.0878906-.0429687zm13.0136724 1.0292969c-.08934-.034462-.39862.2067656-.552735.4316406-.08498.1239994-.15563.2018489-.255859.2558594-.10023.05401-.228548.085204-.425782.1132812-.07732.011007-.116695.036469-.18164.050781-.06702.01418-.130781.031995-.185547.050781-.218998.075801-.395331.1790132-.548828.3769531-.192556.248305-.334384.3611872-.597656.4355469-.0015.0004374-.0023.00152-.0039.00195-.0034.0009523-.0083.00102-.01172.00195-.08648.023564-.183914.043375-.302735.0625-.228009.0367045-.438262.0904604-.466802.1191474-.03443.03456.149681.04802.546875.04102.652115-.01155.618294.000902 1.208985-.4550785.192733-.1487779.228137-.15625.695312-.15625.05608 0 .07457-.010439.123047-.011719.01-.0002637.0157-.00163.02539-.00195.0051-.0003236.01058.000344.01563 0h.002c.0284-.00146.05822-.0006461.08594-.00391.01-.0009719.02351-.0008939.0332-.00195h.002c.04037-.00444.06321-.01169.09766-.017578.235083-.034024.414074-.1011959.61914-.28125.100358-.088116.248365-.1954792.328126-.2382812.1442-.077383.14341-.076976.05664-.2441407-.04799-.092461-.107382-.2048128-.132812-.2480468s-.05984-.1175696-.07617-.1660156-.05979-.1006284-.09766-.1152344zm-13.8535161.3125c-.051849.0114049-.1082979.1283086-.3164063.5839844-.029598.064807-.039506.1342278-.021484.1523437.063534.063866.4839784.1166431.6992188.087891.3056873-.040834.4191723-.0008978.765625.2695313.3622262.2827411.6297951.3649055 1.0390625.3222656.3510905-.036579.5499963.029917.828125.275391.101904.08994.252907.197951.3339844.240234.048551.02532.047334.01305.074219.02148.0009417.000193.011022.0078.011719.0078.00111 0-.00283-.0056-.00195-.0059.078074.02034.081567-.01674-.068359-.167969-.0968297-.0976124-.2581163-.2676163-.3574263-.3768958-.2202729-.2423846-.3996867-.3216147-.8378906-.3710937-.3331269-.0376142-.3412278-.0411366-.7070313-.4179688-.3856522-.3972785-.4821955-.4461895-1.0371093-.5234375-.1433662-.019957-.3014164-.0569462-.3496094-.0820312-.0221114-.0115091-.0374045-.0194267-.0546875-.015625zm5.0273441.3359375-.002.00195h-.033203l-.4316406.4257812-.4296876.4257813-.00195.00195v.054687l.00195.1757813v1.0390626 1.271484l.027344.0098v.01172l.5390625.177734c.2977112.0979.5335125.191425.7500005.304688.216487.113262.413871.246403.638671.421874.565677.441549.740354.806447.792969 1.666016.02763.451358.04154.509766.126953.509766.08382 0 .09739-.0442.09766-.328125.000661-.716847.151643-1.206776.482421-1.558594.104272-.110904.216833-.212947.335938-.308594.0071-.0057.01429-.0119.02148-.01758.361817-.28559.798082-.506165 1.355469-.689453l.541016-.177734v-.01172l.02539-.0078.002-1.267578v-1.2089841-.052734-.00391l-.07422-.072266-.355469-.359375-.429688-.4335937h-.04492-1.96875zm-9.54296912.3671875c-.007981 0-.0171956.035357-.0253906.041016-.2898319.2073954-.5362123 2.149249-.40429688 3.365234.06311941.581829.21491277 1.29319.33984375 1.59375l.0742188.179688.24804687-.07422c.13624506-.04121.25617453-.08424.26757813-.0957s-.0412899-.324983-.1171875-.695312c-.11972379-.584171-.13743142-.797951-.13671876-1.619141.00077997-.89879.0687078-1.556995.21484376-2.0664064.028885-.1006893.0527344-.2564011.0527344-.3457031 0-.032911-.0115139-.044085-.015625-.066406-.00062792-.00549-.002936-.010657-.003906-.015625-.007868-.028863-.0254271-.062373-.0507813-.080078-.008812-.00535-.0241892-.011165-.0351563-.015625-.02867-.014203-.045021-.029658-.0957031-.044922-.11085119-.033385-.2407479-.060547-.2890625-.060547-.001831 0-.00403.00376-.005859.00391-.002242-.0002183-.0161113-.00391-.0175781-.00391zm23.05664112 0c-.04832 0-.178212.027162-.289063.060547-.05068.015264-.06703.030719-.0957.044922-.01097.00446-.02634.01027-.03516.015625-.02535.017705-.04291.051215-.05078.080078-.00097.00497-.0033.010138-.0039.015625-.0041.022322-.01563.033495-.01563.066406 0 .089302.02384.2450138.05273.3457031.146131.5094104.214061 1.1676164.214843 2.0664064.000713.82119-.01699 1.03497-.136719 1.619141-.0759.370329-.127344.685085-.115234.697265.01212.01217.123975.05176.25.08984.02485.0075.02906.0036.05273.0098.03.008.06051.01389.08398.01563.04669.0084.120727.02886.130859.02344.05662-.0303.234575-.636432.337891-1.154297.141001-.706761.123659-2.368432-.03125-3.099609-.124846-.5892759-.211791-.8298769-.3125-.8769534-.004-.00136-.0097-.019531-.01367-.019531-.0013 0-.01369.00373-.01563.00391-.0026-.0002367-.0052-.00391-.0078-.00391zm-11.714844.3359375c.07369-.016428.205696-.016347.302734.00195.07269.013708.102661.027505.128906.050781.0071.00783.02641.011239.03125.021484.02084.040242.02149.1068992.02149.2421875.000007.00502 0 .00456 0 .00977-.000343.2529952-.01052.2743252-.164063.3281252-.08522.02986-.147858.05021-.158203.05078-.000491-.000012-.0015.000014-.002 0-.01208-.000355-.03218-.0099-.04492-.01172-.02368-.0095-.0521-.02122-.111328-.04297-.132226-.04854-.144531-.0731-.144531-.3339839 0-.1280809.0041-.199158.02148-.2421875.02642-.023461.04706-.045782.105469-.070312.0054-.00226.0085-.00181.01367-.00391zm-.892578.00195c.03981.00751.04629.02138.07031.029297.02102.00995.05273.01886.06445.033203.01974.048958.02637.1213229.0332.2617188l.0039.074219v.00586c-.000258.00581-.0016.010197-.002.015625-.0025.047682-.0026.1095488-.01367.1347651-.01748.0408-.04822.05636-.103516.07031-.06902.01741-.156802.04244-.195312.05469s-.134041-.0023-.212891-.03125c-.131956-.04843-.142578-.0746-.142578-.3320308 0-.1273422.0019-.1906987.01953-.2324218.0031-.00599.0055-.011956.0098-.017578.02172-.035455.05785-.048334.130859-.064453.08826-.019487.239781-.020456.337891-.00195zm2.128906 0c.09811-.018502.251584-.017533.339844.00195.07195.015885.10698.030372.128906.064453.0012.00213.0067.00164.0078.00391.02139.043238.02338.1134836.02344.2421875.000001.00206 0 .00182 0 .00391-.000053.1284978-.0018.1985977-.02344.2402348-.02196.04231-.06489.0574-.146484.08203-.1084.03272-.229491.03391-.337891.002-.162345-.04786-.169822-.06157-.169921-.3242188 0-.00105-.000001-.0009066 0-.00195-.000001-.00105 0-.0008962 0-.00195 0-.1105997.0077-.1568335.01953-.1992188.0064-.017333.007-.037827.01758-.052734.0017-.00257.0078-.00348.0098-.00586.02522-.026365.05601-.040572.13086-.054687zm6.318359.1171875c-.133365.017976-.351896.1454778-.599609.3535156l-.107422.089844c-.09059.06311-.224242.09622-.390625.09766h-.261719c-.531028 0-.540401.0014-.791015.183594-.550409.400033-.527408.391478-1.060547.392578-.05655.000114-.06562.0098-.119141.01172-.216736-.0104-.35139-.002-.373047.0332-.01434.0038-.07589.0038-.08203.0078-.0588.0382-.03369.05134.103516.05274.100356.00099.299993.03412.443359.07422.435168.121721.647255.100769 1.046875-.101563.20188-.102214.328156-.155303.451172-.169922.000491-.000024.0015.000023.002 0 .07769-.0036.199745.01946.304688.03516.03959.01013.07218.01693.11914.03125.395562.120623.634641.09756 1.072266-.101562.216323-.09843.430962-.190888.476562-.205078.05989-.01864.07575-.06998.05859-.1875-.01307-.08949-.04494-.1756465-.07031-.1914065-.02536-.015759-.04492-.096496-.04492-.1777344 0-.02671-.01909-.041426-.02539-.068359-.01286-.054985-.02142-.1177641-.04883-.140625-.02307-.019244-.05906-.025524-.103516-.019531zm-8.578125.1738281c-.07987 0-.116271.014778-.136718.042969-.03744.01839-.0593.04435-.06641.082031-.01023.054192.01212.1179492.05078.1425784.04345.02768.08914.03966.132813.04297.119779.0091.224609-.06489.224609-.1894536 0-.09639-.03421-.1123619-.138672-.109375-.02144-.00351-.03001-.011719-.06641-.011719zm1.171875 0c-.158112 0-.185547.016077-.185547.1210938 0 .067253.01604.1389936.03516.1582036.01901.01911.06267.01588.09961.01953.01951.007.03741.01195.05859.0098.0072-.000798.01038-.0027.01758-.0039.0032-.000676.0066-.0011.0098-.002.0057-.000673.0142-.0039.01953-.0059.01789-.0069.0334-.01361.04883-.02539.02622-.01225.06101-.016787.07617-.035156.07557-.091536.0294-.1562407-.0625-.1953126-.02932-.022891-.06557-.041016-.117188-.041016zm1.173828 0c-.189425 0-.210937.013792-.210937.1269532 0 .013142.0098.016536.01172.029297-.000071.00827.0071.02121.01172.029297.0096.031359.01592.064455.0332.078124.0011.000771.000845.0032.002.0039.0031.0022.0027.01232.0059.01367.01112.0047.04144.0027.06055.0059.02285.0067.04572.01935.06836.01953.0078.0012.01961-.0067.02734-.0078.0034-.000377.0064-.0014.0098-.002.01123-.000255.01857.0028.0293.002.07564-.0059.107474-.03985.126953-.097656.0041-.0077.0051-.015153.0078-.023437.0029-.013037.0099-.017151.01172-.033203.0043-.037937-.0065-.047728-.0098-.068359-.0049-.03092-.03445-.055847-.07617-.0625-.03046-.00486-.04831-.013672-.109375-.013672zm-8.755859.1562531-.0546875.1972654c-.029861.108085-.054526.297425-.054687.419922-.0000513.03931.00676.0417.00781.06836-.0006808.0059-.00574.03159-.00586.03516-.0001855.0055.00998.0069.011719.01172.0004396.0028.00143.0072.00195.0098.01377.06895.047491.09609.1796875.0957.1075246-.00031.3104171-.03521.4511719-.07813.1491837-.04549.249351-.05531.3515625-.05664.037973-.0028.075098-.002.1074219 0 .1124501.0153.2212887.05349.375.134765.073145.03868.1197557.04159.1816406.06836.04933.02104.1001717.04021.1445312.05469.2107904.06629.406628.08366.6855469.01563.4857154-.118466.5755555-.110577 1.0078125.09766.3765263.181383.6191406.232461.6191406.13086 0-.02883-.045417-.05078-.099609-.05078s-.2362718-.102642-.4042968-.226563c-.1680256-.123921-.3398025-.247991-.3828125-.275391-.00806-.0051-.098771-.0082-.1230469-.01367-.1121353-.03611-.2389807-.04606-.3808594-.04297-.068486-.0051-.078547-.01423-.1523437-.01758-.5665891-.025735-.5824544-.031362-.7792918-.205121-.3408281-.3008702-.557377-.3698043-1.15625-.3710942zm6.847656.5996094c.09882-.01864.245782-.01117.326172.01563.1306.04354.146426.0766.160156.308594.0065.109157.0049.159072-.0078.201172-.0021.0072-.0012.02496-.0039.03125-.000717.0017-.0031.0023-.0039.0039-.02157.03813-.06271.0562-.144531.08594-.09972.03626-.143224.05435-.185547.05469-.04232.000339-.08318-.01607-.177734-.05078-.128985-.04736-.141999-.07964-.142578-.322266 0-.0032-.000002-.0028 0-.0059.000125-.212867.027-.25788.115234-.294922.02326-.007.02768-.02041.06445-.02734zm1.232422.002c.08284-.01825.220508-.01668.306641.002.000548.000119.0014-.00012.002 0 .06584.02118.113098.03661.132812.07422.02202.042.02337.113754.02344.244141-.000199.256895-.0095.277863-.164063.332031-.0928.03252-.137821.04438-.179687.04492-.01356-.000421-.02739-.0064-.04102-.0078-.0365-.0074-.06961-.01992-.136718-.05664-.116877-.06394-.129292-.09715-.113282-.333985.01644-.243253.03032-.268008.169922-.298828zm-2.195312.0098c.176176.04269.184208.05461.199218.314453.0053.09121-.0024.125372-.0078.167969-.01332.06989-.04867.117772-.125.146484-.0096.0035-.0085.0078-.01953.01172-.01815.0064-.02026.0046-.03516.0098-.06136.02048-.110178.03256-.152343.03516-.01307.000072-.02584-.0052-.03906-.0059-.03729-.0061-.07067-.0139-.1445311-.04101-.129993-.04773-.1445313-.0777-.1445313-.3125 0-.233981.014992-.263843.1445313-.314453.089049-.03479.2108831-.03918.3242191-.01172zm3.703125 0c.175541.04254.182485.05485.197265.308593.01497.256922.01077.264042-.160156.326172-.199438.07252-.17418.07334-.363281.0039-.04293-.01576-.05887-.03687-.08008-.05664-.01331-.01411-.03537-.02171-.04297-.04297-.0046-.01273-.003-.04605-.0059-.0625-.0073-.04114-.01525-.08245-.01562-.15625.000368-.225812.01666-.258637.144531-.308593.08905-.03479.212836-.03918.326172-.01172zm-3.759766.228515c-.08921 0-.192256.162803-.166016.263672.02982.114612.21758.125921.314453.05469.005-.000426.0136-.0039.01758-.0039.01447 0 .01855-.03446.02734-.05664.003-.0073.01214-.01144.01367-.01953.00032-.0017-.0022-.0041-.002-.0059.0017-.01057.0098-.0097.0098-.02148 0-.03371-.02426-.06387-.05469-.08984-.04183-.0651-.100256-.121094-.160156-.121094zm2.347656.01953c-.03188.0023-.06573.01483-.103515.03516-.09822.05284-.135627.207764-.06641.277344.01769.01778.09301.02914.167969.03125.001.000132.005.002.0059.002.000862 0 .0011-.0019.002-.002.0027.000034.0032.002.0059.002.12815 0 .148438-.01886.148438-.150391 0-.01552-.006-.02525-.0078-.03906-.01301-.101794-.06814-.162245-.152344-.15625zm1.175781.002c-.03315-.0057-.06702-.0028-.09961.0098-.04931.01902-.07177.09271-.07422.167969-.0041.02694.0029.05177.01758.07617.0062.01867-.000279.04653.01172.05859.03201.03218.08637.03472.140625.02539.0055.000082.01208-.0015.01758-.002.01908-.0046.035-.01119.05274-.01953.02112-.0079.04031-.008.06445-.02344.03366-.02157.04125-.05061.03906-.08203.000482-.0022.0036-.0036.0039-.0059.0138-.09746-.07438-.187967-.173829-.205078zm-2.320312.0078c-.03143-.0076-.06258.0014-.103516.02344-.10037.05399-.138279.209017-.06836.279297.02264.02276.06742.02823.117187.0293.02379.0054.04532.0036.06836-.0039.0989-.01282.195312-.05026.195312-.101562 0-.02574-.04747-.09403-.105468-.152344-.01657-.01666-.02702-.01826-.04102-.0293-.02137-.01685-.04351-.04032-.0625-.04492zm8.394531.322266-.06836.0098v-.0059l-.08789.01758-.04883.0078c-.0043.000579-.01679.007-.02148.0078-.119113.01993-.356144.09822-.548828.1875l-.277344.128906c-.07435.01175-.183209-.0024-.271485-.01562l-.195312-.06055c-.454066-.138635-.62832-.122924-1.091797.09766-.385473.18345-.53261.196731-.902344.08398-.281292-.08577-.65625-.10317-.65625-.03125 0 .02514.09185.05992.205079.07813.113233.0182.284256.07773.378906.132813.377776.219836.572061.240649 1.050781.111328l.261719-.07031c.05461-.0053.119454-.0289.171875-.02539.05344.003.108275.03319.160156.04883l.253906.117187c.247995.113854.458693.17117.658203.183594.000659.000041.0013-.00004.002 0 .001-.000005.0029.000009.0039 0 .1697.0097.331718-.01189.501953-.07226.121903-.04324.288674-.07813.371094-.07813h.15039v-.425878zm-14.5273435.199105c-.1659397-.01732-.3326701.0088-.5390625.07422-.1863759.05911-.3905631.107055-.4550781.107422-.1109195.000639-.1191407.02137-.1191407.384766.0000001.211367.016986.401645.037109.421875.055635.05593.3184291-.01589.6777344-.183594.3690379-.172246.4623397-.180831.8183594-.07226.3993063.121766.6251997.09849 1.0917968-.113282l.140625-.06445c.08082-.03432.1632479-.06832.2285157-.08008.021729-.0033.044332-.01804.066406-.01953.070099-.006.1632269.02138.2460938.03906l.2167969.05664c.2820214.07208.5152077.103608.5742187.08008.078995-.0315.040064-.05838-.1875-.132813-.1577027-.05158-.3640734-.133883-.4589844-.183593-.046569-.02439-.098505-.02419-.1464843-.04102-.0666-.02581-.127074-.04197-.1835938-.05273-.045249-.0066-.091673-.01314-.1386719-.01367-.06986.000263-.1522233.01179-.2421875.03125-.049959.0093-.094165.0023-.1464844.01758-.4124609.120528-.6121695.104812-.9433593-.07031-.2049608-.108378-.3711697-.16823-.5371094-.185546zm7.9238285.205078c.02259-.00012.04031-.0012.0625 0 .04257.0037.08361.01076.132812.03125.138441.05764.152216.08707.152344.308594v.002c-.000001.002.000002.0019 0 .0039-.000324.209115-.01886.2525-.132813.304687-.07492.03433-.137992.04901-.201171.05078-.0098.00006-.01755.000185-.02734 0-.06304-.0027-.126222-.0193-.199219-.05469-.09646-.04676-.116824-.09998-.117187-.302734 0-.0011-.000001-.000882 0-.002-.000001-.000936 0-.001 0-.002 0-.0053.0019-.0047.002-.0098.000398-.224947.0094-.243.183593-.300781.05778-.01917.101294-.02579.144532-.0293zm-2.433594.003906c.0426.0043.08328.008.134766.02344.174804.05235.19146.08336.193359.27539.000074.01367.0019.01399.002.0293-.000294.05359-.0063.08038-.0098.117187-.0031.03684-.0033.09013-.01367.111329-.0016.0048-.006.0054-.0078.0098-.02264.03709-.05998.05651-.132812.08203-.08936.03131-.142967.04635-.195313.04883-.02701-.000618-.05105-.01032-.07813-.01367-.03674-.0071-.0695-.0104-.121094-.03125-.09996-.04039-.117187-.08665-.117187-.3125 0-.240794.01231-.270203.142578-.320313.02986-.01149.06141-.01106.0918-.01563.03683-.0047.07079-.0038.111328-.0039zm1.179687.0039c.07575-.0026.156082-.0034.210938.01758.124729.04767.138672.08049.138672.308594v.0059c-.000455.214695-.01853.258204-.132813.310546-.07334.03357-.122303.04544-.171875.04883-.01081.00013-.02249.0043-.0332.0039-.05295-.0028-.105282-.02171-.18164-.06055-.11326-.05761-.126109-.09312-.111329-.298828.0091-.127278.02517-.245578.03711-.267578.003-.003.0084-.0051.01172-.0078.0236-.02815.08721-.04607.160156-.05664.02377-.0036.04605-.0025.07226-.0039zm.0332.283203c-.01366 0-.01689.01035-.0293.01172-.01217-.0015-.01794-.0096-.03125-.0098-.03727-.000327-.05829.01719-.07227.04883-.0555.04092-.08537.100044-.05273.185547.0069.01819.03063.03086.05469.04297.009.01319.03481.01697.05469.01953.000589.000075.0014-.000069.002 0 .000621.000149.0013-.000148.002 0 .01676.0061.03206.01239.05078.01172.0876.0093.181743-.0045.208984-.04883.07206-.117202-.03124-.261719-.1875-.261719zm-1.18164.0098c-.03127-.003-.04137.01429-.06641.01758-.119323.01567-.183814.0844-.134766.212891.01431.03747.05494.05359.109375.06055.01884.007.03713.0098.05859.0078 0 0 .002.002.002.002h.002c.0026.000241.009-.0037.01172-.0039.01623.0018.02242.0078.03906.0078.05521 0 .08235-.01483.09961-.04297.03299-.02093.04883-.05163.04883-.113282 0-.07335-.02729-.103752-.07813-.123046-.0025-.002-.0071-.000235-.0098-.002-.02426-.0078-.03999-.01937-.08203-.02344zm2.345703 0c-.01394-.0014-.01658.0079-.0293.0078-.04129.0013-.07821.01087-.111328.0293-.041.02327-.07788.0507-.07813.101563-.000126.0022-.002.0036-.002.0059 0 .0044.0055.0054.0059.0098.0017.02395.0028.04762.01367.07617.0075.0197.02682.02991.04492.04101.01633.01002.03863.01623.06445.01953.0234.0087.04742.01074.07422.0059.135364.0047.216389-.0681.183594-.164062-.0034-.07708-.0392-.106761-.126953-.121094-.0063-.0016-.01113-.0048-.01758-.0059-.0096-.0012-.01051-.0048-.02148-.0059zm2.578125.46875c-.02469.0066-.03711.02234-.03711.04687 0 .02883.03317.05078.07226.05078s.229614.119559.423828.263672l.353516.261719h.535156c.533792 0 .537121.000673.761719.18164.284948.229594.496242.350005.695313.396485.08602.02009.3481.0326.582031.0293.211703-.003.327101-.01474.40625-.05664l.05469-.002.0098-.04883c.05716-.07043.08137-.183549.103516-.396484l.03125-.314454h-.220704c-.12124 0-.370391.04048-.554687.08984l-.02148.0059c-.08675.01366-.218294.04103-.27539.04101-.02358.000076-.05207.0026-.07422 0-.03238-.0032-.06346-.01245-.09375-.02148l-.261719-.128907c-.446931-.2223-.67202-.242492-1.199218-.109374l-.167969.04297c-.03757.0022-.08963.01713-.125.01563-.0517-.0034-.106696-.01678-.160156-.03125l-.279297-.132812c-.244225-.116584-.404291-.171799-.498047-.179688-.02078-.0017-.04711-.0075-.06055-.0039zm-.599609.150391c-.0031.000011-.08417.02875-.09961.0332-.101636.01743-.22861.05052-.419922.117187-.419483.146171-1.081014.436143-1.146484.501953-.0028.0028.032.07434.04102.09961-.000011.000377-.000004.0016 0 .002v.002c.000073.0012.0037.000781.0039.002.02126.05815.03361.104787.08984.21875.08349.169206.206937.467556.273437.66211.01147.03357.021.02972.0332.06055.02406.05942.05307.139286.06836.175782l.05078.11914.02734-.01758c.0018.000596.0062.01563.0078.01563.03675 0 .150683-.08569.253906-.189453.09782-.09833.182859-.156228.207032-.148438-.0033.0054-.0064.01017-.0098.01563-.0058.0017.000811.0078-.0078.0078-.03345 0-.06055.02756-.06055.0625s-.09119.159009-.203125.275391l-.205078.21289.06055.388672.02734.171875.01758.169922.0059-.0078.0098.05664.142578-.171875c.08575-.10254.144532-.138607.144532-.0918 0 .0036-.0037.0042-.0039.0078-.0237.04672-.06428.106641-.09766.162109-.03111.03502-.05504.05582-.09375.111328-.123.176366-.137674.278883-.08398.605469.0079.04807.01502.05422.02148.08008v.08984l.01758-.02148c.0063.0072.02204-.0031.03125-.0059-.000138 0 .000139-.0019 0-.002.01572-.005.02791-.0033.05859-.03125.05344-.04862.09926-.125905.101562-.171875.000626-.01267.004-.01431.0059-.02148.0035-.0055.0063-.0084.0098-.01367.0042.0017.0086.0013.01367.01367.01376.03391-.03904.164619-.117187.289062-.07815.124443-.142578.253349-.142578.287109s-.04833.08337-.109375.111329c-.09218.04222-.611189.415122-.916016.658203-.04301.0343-.15941.11847-.259765.1875-.289384.199045-.494372.451377-.683594.841797-.09663.199379-.188785.363281-.203125.363281s-.104542-.163897-.201172-.363281c-.210648-.434627-.389121-.621735-1.066406-1.117188-.282985-.207011-.576464-.42932-.652344-.494141-.174396-.148963-.2260536-.148927-.1953126 0 .013387.06485.065065.395795.1132812.734376l.08789.615234.517578.160156c.532323.165126.770459.258381.933594.38086.03004.0251.06555.04965.0957.08203.0397.04015.07761.07947.115235.130859.0038.0052.0059.0046.0098.0098.06099.07752.138672.171087.138672.1875 0 .04634.02841.05102.06641.03906l.0078.0098.01367-.01563c.0023-.0012.0035-.000633.0059-.002.0019.000333.0081.0098.0098.0098.04301 0 .157526-.108618.253906-.240234.117697-.160735.255531-.273137.417969-.341797.133011-.05622.299413-.127916.371094-.160156.07168-.03224.147841-.05403.169921-.04883s.193108-.03927.378907-.09961c.285819-.09282.339956-.129326.347656-.236328.01672-.231738.04205-.412247.115234-.808594.09719-.526395.103693-.203161.0078.390626-.0417.258214-.06762.479194-.05664.490234.05205.05233.320506-.101846.544922-.28125.0253-.0212.05619-.03525.08008-.05859.01907-.01708.04314-.0296.06055-.04687.312765-.310395.387425-.554731.390625-1.279297.0051-1.149374.08911-3.114845.136719-3.259765.0051-.02625.0083-.07407.01367-.09766.02499-.05169.05212-.143653.06055-.251953.0024-.03038-.0024-.04466-.002-.07031.0059-.03734.0039-.07863-.0039-.101563-.0051-.03097-.02147-.05096-.03516-.07031-.01879-.02657-.04054-.05079-.08008-.05664-.0102-.0054-.0275-.02345-.0332-.02344zm-6.3320316.01953c-.022359.007-.029058.03097-.044922.04492-.06845.03709-.095129.07671-.072266.134765.00406.01031.00585.02644.00977.03711-.0002564.03318-.00817.05665-.00195.09766.018054.119131.053999.243974.080078.277344.026079.03338.070244.906387.097656 1.939453.027413 1.033066.076208 1.989181.1074218 2.125.069499.302411.3711517.666802.6835938.822265.2726165.135647.3692216.139729.3339844.01758-.01455-.05044-.066468-.409722-.1152344-.798829-.023903-.190724-.046157-.243437-.072266-.384765-.010422-.06835-.024185-.203043-.029297-.226563-.00304-.01397-.014193-.02581-.019531-.04102-.00709-.02378-.020006-.125494-.025391-.132813-.083364-.113326-.1875-.308719-.1875-.349609 0-.01929.054588.03124.1230469.111328l.125.146484.037109-.320312c.035178-.304673.028664-.330362-.125-.525391-.2036053-.258413-.211036-.380732-.00977-.154297l.1503906.169922.046875-.390625.048828-.390625-.1757813-.179687c-.2728256-.278806-.3287712-.425844-.0859356-.224635.1106932.09172.2278276.167969.2597656.167969.00526 0 .01644-.0341.023438-.04101.061293-.06056.1749302-.332333.1796872-.457032.0011-.02883.013-.06372.02734-.07813s.101079-.185664.193359-.378906l.167969-.349609-.140625-.09961c-.02419-.01677-.09998-.03913-.144531-.0625-.154791-.08521-.3477597-.175165-.5195314-.226562-.00261-.000781-.00709-.0031-.00977-.0039-.039366-.01336-.10275-.04966-.1269531-.05469-.038902-.0081-.1604824-.05503-.2695313-.103516-.247154-.109907-.4174481-.14916-.5195312-.117187zm-1.3222656.0059c-.2085195-.02458-.355798.03195-.7363282.21875l-.2226562.109375c-.036803.01082-.091797.04226-.1269532.04687-.00971.0014-.019469.0049-.029297.0059-.057695.0053-.1568168-.02173-.2265625-.03125l-.2128907-.05078c-.5098041-.120805-.6917224-.09818-1.1777343.148438-.1692325.08587-.3442979.15625-.3886719.15625-.060954 0-.072809.03565-.048828.144531.029608.134423.1073384.425903.1542969.576172.011351.03632.03964.05533.078125.06055.00107.000145.0008657.0018.00195.002v.0039l.013672-.0059c.00209.000087.00565-.002.00781-.002.00218.000907.00821.0078.00977.0078.00493 0 .029495-.01549.037109-.01758.1330543-.02364.3426359-.141759.6269532-.367187.1960904-.15551.2197441-.160338.6621094-.148438.4987852.01342.7502978-.05727.984375-.27539.072779-.06782.1361691-.11975.1953124-.16211.0045-.0032.0092-.0067.013672-.0098.1795681-.124173.3407093-.146484.7246094-.146484.1790394 0 .3015902-.0063.3847656-.01758.0043-.0019.013623-.0036.015625-.0059.00435-.000754.00376-.0031.00781-.0039l.041016.0039-.027344-.0078c.04033-.0099.08643-.01918.091797-.03516.014369-.04278-.032558-.06445-.1347656-.06445-.086093 0-.3013007-.03834-.4785157-.08399-.093873-.02417-.1707279-.04064-.2402343-.04883zm8.1386722.636719.04687.05664c-.01944.0115-.008.04763.06836.132812.05801.06474.169077.193386.248047.285156.116893.135847.294329.218939.509765.28125.03154.0095.07069.01765.105469.02539.06765.01523.116155.04016.195313.05078.09388.01259.168106.02429.232422.04102.192946.05018.298405.146984.599609.458984.310456.32158.368717.358146.654297.416016.172039.03486.393784.08216.49414.105469.100357.02331.205705.04407.234376.04687.07207.0069.258164-.456711.283203-.654297.000137-.0021.0039-.0098.0039-.01172 0-.003-.0035-.005-.0039-.0078.0017-.02736.01049-.06759.002-.07617-.0046-.0046-.07063-.0035-.08398-.0078-.0015-.000638-.0043-.0013-.0059-.002-.06589-.02695-.200839-.02965-.339844-.0332-.06556-.0032-.07056-.0152-.144531-.01563-.452726-.0026-.53712-.01909-.662109-.119141-.459504-.367842-.566467-.431248-.941407-.460937-.02565-.0021-.05593-.0047-.08398-.0059-.05533-.0034-.09556-.0083-.164063-.01172l-.537109-.02734c-.05003-.01792-.09862-.04702-.154297-.08984l-.183602-.142585c-.06536-.05072-.08757-.05123-.136718-.08203-.02238-.01496-.05244-.03976-.07031-.05078zm-4.984375.09766-.125.208985c-.0023.0038-.0055.01359-.0078.01758-.04255.07847-.08209.178592-.128906.296875-.0188.04892-.03724.08825-.05664.144531-.02527.07074-.05039.120265-.07422.197266-.06691.21617-.120676.409887-.121093.429687-.000431.0198.250356.166935.558593.328125s.663204.386342.789063.5c.0465.042.0621.03498.103516.06445.01997.01761.05385.05249.06445.05469.01079.0077.03898.03905.04297.03906.0017.000006-.0014-.02358 0-.02539.01696.0065.06171.0471.06836.04297.03004-.01868.02668-.05322-.0078-.08789-.0263-.02643-.0425-.146432-.04883-.261719-.0012-.01839-.0044-.02265-.0059-.04102-.000033-.0035-.002-.0043-.002-.0078-.01238-.146822-.02998-.301635-.05078-.328125-.0074-.0094-.0163-.052-.02539-.07422-.03205-.126061-.07287-.238784-.126953-.36914-.000231-.000556.000231-.0014 0-.002-.000227-.000193-.0017-.0037-.002-.0039-.05364-.128552-.100606-.259997-.169922-.375-.158501-.26297-.452695-.580803-.589844-.662109zm2.707031.02734c-.111316 0-.71875.694898-.71875.822266 0 .03737-.02023.06836-.04297.06836-.09569 0-.409121 1.309229-.332031 1.386719.04175.04197.04066.04242.322266-.208985.145847-.130208.499948-.354175.785156-.498046.196792-.09927.269873-.150573.357422-.207032.02906-.01584.144822-.07902.146484-.08008.000068-.000043-.002-.0038-.002-.0039.000424-.000869.01564-.0091.01563-.0098-.00043-.02135-.05614-.21547-.123047-.43164-.137451-.444069-.301994-.786702-.390625-.824219-.0019-.000602-.0081-.01365-.0098-.01367-.000208-.000003-.0037.0039-.0039.0039-.0012-.000135-.0028-.0039-.0039-.0039zm-5.1191408.179687c-.1194196-.03013-.3523318.000102-.5703124.04883l-.1738282.0059-.1132812.08789c-.02025.01024-.068521.01685-.082031.02734-.067419.05237-.2114006.165483-.3203125.251954-.1876.148943-.2242211.158109-.6972656.162109-.5650047.0048-.6683666.03633-.9902344.306641-.1260371.10585-.2934097.227198-.3710937.267578l-.140625.07226.1621093.339844c.089659.187171.1909684.34245.2246094.34375.073284.0028.3778788-.242906.484375-.390625.1040921-.14438.1881871-.235579.2832032-.298828.00411-.0029.00973-.009.013672-.01172.098085-.06179.208308-.09114.3613282-.109375.5170642-.06161.7600011-.200653 1.0683593-.599609.027999-.02792.049267-.04473.074219-.06836.1633684-.181996.3880213-.301552.6191406-.302734.089687-.00044.1967662-.02243.2382813-.04883.058928-.03748.043342-.05532-.070313-.08399zm.097656.832032c-.018824-.0041-.047888.000577-.089844.01367-.063026.01967-.1307852.06796-.1972657.111328-.128059.08354-.258779.1924-.3964843.361328-.2371485.290917-.3760549.365937-.7636719.404297-.3775361.03737-.7102095.225028-.9375.53125-.093184.125544-.2212113.261141-.2851563.300781l-.1152344.07031.2324219.300782c.128879.165061.2540878.300781.2773438.300781.089289 0 .3664282-.410788.4335937-.611328.053596-.108555.1068727-.182002.1660156-.244141.1052984-.08553.2610562-.174983.4238282-.226562.3856146-.122188.6033367-.314521.8085937-.716797.033651-.06595.071851-.120825.109375-.177735.028135-.03961.051402-.07899.078125-.111328.048171-.05995.094761-.112169.1328125-.134765.1340447-.07959.1795199-.15967.1230469-.171875zm7.3339845.167968c-.06023.0607.237199.273189.539062.386719.303415.114114.437544.192086.53711.332031.0095.01251.02002.0292.0293.04297.02826.04644.05501.09702.08203.160157.165397.38648.447008.640053.857422.777343.189569.06341.356707.137485.373047.164063.01799.02927.04075.04069.06641.04297.0034.00065.0065.0059.0098.0059.0013 0 .0083-.0094.0098-.0098.0605-.0088.13719-.07481.230469-.21289.08275-.122497.167943-.230635.189453-.240235.0215-.0096.03906-.04944.03906-.08789 0-.09155-.366527-.220319-.742187-.261719-.06828-.0075-.103078-.02239-.150391-.0332-.03572-.01169-.0938-.01635-.125-.03125-.04362-.01999-.08137-.05449-.11914-.08984-.02643-.01916-.05584-.04836-.08203-.07227-.507721-.554814-.585945-.60262-1.09375-.68164-.196343-.03055-.414958-.09361-.486328-.140625-.07137-.04702-.145042-.06995-.164062-.05078zm-5.597656.382813c-.007.007-.0091.07724-.01563.101563-.02165.06194-.036784.153423-.054688.3125l-.013672.134765-.019531.126953.00391.002-.00391.04297.037109.01953v.01367l.5468746.285157c.640371.334265 1.042969.586253 1.042969.652343 0 .02582.02211.04687.05078.04687.03906 0 .05386-.03493.05078-.08984.000075-.0014.002-.000475.002-.002 0-.00023-.0019-.0036-.002-.0039-.000135-.0016.000164-.0022 0-.0039.000004-.000571.000008-.0014 0-.002-.000067-.0046-.003-.0069-.0039-.01172-.02489-.190777-.225045-.580293-.451171-.816406-.248987-.259983-.863285-.691552-1.076172-.775391-.01382-.0059-.02569-.01889-.03906-.01367-.01434-.0029-.04977-.02447-.05469-.01953zm3.878906 0c-.05096-.05123-.794922.445255-1.144531.763672-.180319.164231-.552387.848884-.503907.927734.04243.06902.06717.06.19336-.07617.06315-.06814.433223-.291195.820312-.49414l.703125-.369141v-.0098l.03711-.01953-.0059-.05664.002-.002-.0078-.04102-.02344-.216797c-.0079-.06994-.01901-.09393-.0293-.154297-.000542-.07552-.01041-.123128-.02734-.15625-.0062-.02219-.0071-.08905-.01367-.0957zm8.976562.21875c-.0099-.00005-.03421.05366-.05078.07617-.0014.0019-.0024.0019-.0039.0039-.0011.0016-.0027.0061-.0039.0078-.07156.104659-.168511.315549-.171875.412109-.000972.02786-.04616.144475-.101563.259766-.0554.115291-.10254.250341-.103515.300781-.00097.05044-.02407.0918-.05273.0918-.02867 0-.05273.02755-.05273.06055 0 .06504-.06854.223389-.164063.416015-.01631.03259-.02985.06232-.04687.0957-.336706.64966-1.004759 1.701126-1.402343 2.154297-.06322.07206-.170585.194428-.240235.273438-.07637.08664-.11292.134429-.117187.175781l-.0039.0039.01172.01172c.0026.03482.01954.06492.06836.119141.05601.06221.104144.08232.162109.07227.01432.0022.03962-.01066.05469-.01953.11822-.06672.301109-.273795.712891-.769531.227716-.274142.307676-.381891.572266-.785157.43376-.661101.914062-1.545694.914062-1.68164 0-.04093.02146-.07422.04883-.07422s.06516-.08271.08398-.183594c.01883-.100877.05655-.183593.08203-.183593s.04672-.04136.04687-.0918c.00018-.05044.02995-.15063.06836-.22461s.08651-.197507.105469-.273437c.03126-.125194.01549-.143779-.162109-.19336-.107719-.03007-.221957-.05453-.253907-.05469zm-7.355468.0039c-.0032.000236-.0066.0054-.0098.0059-.08803-.0079-.16604-.0086-.171875 0-.000576.00085-.0031.16613-.0039.18164-.000018.000334.000017.0036 0 .0039-.000664.0037-.0013.01369-.002.01758v.002c-.02437.14943-.0297.651804-.03125 1.388672-.0032.168438-.0046.15279-.0078.335937-.03228 1.860621-.06588 2.264129-.224609 2.699219-.393851 1.079615-1.36382 1.850737-2.576172 2.050781-.236636.03905-.371115.05658-.50586.05859-.02024.000098-.04032.000258-.06055 0-.13333-.0024-.26607-.01999-.5-.05859-.5837377-.096475-1.0310647-.279209-1.4667279-.5978-.3447059-.252075-.3856918-.292354-.6660157-.667969-.2995178-.401334-.4335625-.68868-.5644531-1.203125-.0928749-.365032-.1042677-.612233-.1054688-2.167969 0-.02805.0000007-.02152 0-.04883-.0000029-.01733.0000042-.01621 0-.0332-.0000044-.01034.0000086-.0092 0-.01953-.000311-1.041684-.00715-1.512584-.035156-1.6875-.00192-.01503-.00371-.04333-.00586-.05664-.0018-.01229-.00205-.143544-.00391-.146484-.00797-.01264-.044351-.0069-.0625-.01563-.023762-.02302-.059637-.03302-.095703-.0293-.00553-.0015-.012161.000579-.017578 0-.00856.000344-.010886-.0068-.019531-.0059l-.1503907.01563v.02148l-.027344.0078v1.939454c0 .989812.00858 1.561665.041016 1.953125.00188.02266.00381.04497.00586.06641.010183.25762.023117.427313.044922.449219.035841.036.066406.108609.066406.162109 0 .144707.2889711.707176.5292969 1.027344.4752502.63314 1.0963695 1.06306 1.8222655 1.300781.05723.02.117011.03702.175781.05469.07587.02088.146455.05179.22461.06836.02869.0061.06061.0059.0918.01172.05491.01214.105993.03075.162109.04102.05095.0093.148143.000836.212891.0059.117604.01316.252912.04018.332031.04102.273984.0029.651387-.06033 1.001953-.140625.02183-.0054.05789-.006.07813-.01172.02537-.0072.05075-.01951.07617-.02734.108804-.02884.238403-.05171.324219-.08398.254422-.09569.841617-.445083.988281-.58789.03496-.03404.148863-.137279.251953-.230469.378837-.342464.921875-1.208073.921875-1.46875 0-.0535.02861-.126109.06445-.162109.02539-.02551.04274-.183278.05273-.541016.000268-.0031-.000263-.01252 0-.01563.0061-.07194.0035-.275481.0078-.361328.02628-.567666.03638-1.318809.03125-2.052735v-1.4375l-.02539-.0059v-.02344l-.15039-.01367c-.006-.000378-.01149-.0083-.01758-.0078zm-14.4374971.011657c-.032836-.01271-.15548733.0032-.27343748.03516-.19796139.05358-.21233832.07012-.18164062.201172.0182904.07808.0531538.164026.078125.191406.0249713.02738.0449219.08273.0449219.123047-.00000001.148616.54477212 1.281153.89062502 1.853516.1449505.239883.2919757.48337.3261718.541015.034196.05765.073554.116449.087891.13086.014337.01441.083892.108105.1542969.208984.070405.10088.1466073.207505.1699218.236328.023315.02882.090337.111537.1484375.183594.0581.07206.2387584.289671.4023438.482422.1635855.192751.3274404.351711.3632812.353516.00075.000037.00312-.0019.00391-.002.000212.000048.00374.0039.00391.0039.00318 0 .026536-.02182.035156-.02734.06706-.02812.1485072-.0984.1914062-.162109l.035156-.0332-.00391-.0059c.0004876-.0023.00781-.0077.00781-.0098 0-.01663-.06568-.100264-.1445312-.183594-.17693162-.186869-.17990772-.191005-.56445422-.704961-.371671-.496749-.8474959-1.284865-1.0976562-1.779297-.018539-.038144-.038466-.074872-.0566406-.113281-.0688933-.144692-.1171875-.260839-.1171875-.308594 0-.04298-.024061-.07813-.052734-.07813-.00681 0-.00574-.01578-.011719-.01953-.036263-.08447-.069104-.170451-.1035157-.25586-.0149869-.041936-.0161962-.064454-.0351563-.107418-.0533597-.120916-.1281408-.334079-.1679688-.474609-.0398282-.140529-.0999765-.266577-.1328125-.279297zm12.9628904.710938-.0293.02148c-.000168-.00027.000159-.0057 0-.0059-.000162-.000185-.01329.0098-.01367.0098-.0035-.0026-.0062-.01758-.0098-.01758-.02441 0-.110356.05447-.191406.121094-.08105.06662-.357176.272149-.615235.457031-.258059.184883-.548741.418355-.644531.519531-.18291.193198-.381031.552303-.332031.601563.03901.03921.02977.04447.183593-.08789.07537-.06485.467278-.293046.869141-.505859s.756723-.417862.789063-.457031c.0069-.0084-.000603-.0564.0039-.07422.02312-.05552.02814-.123028.01563-.216797-.0039-.08715-.0068-.153469-.02149-.22461zm-4.1191404.0078c-.00162 0-.00414.01839-.00586.01953-.00194.000062-.018603-.01265-.019531-.01172v.002c-.0002444.000283-.0017.0074-.00195.0078l-.019531.154297c-.012233.05067-.026571.05593-.035156.125-.019997.160889-.014645.233817.00781.289063l-.00391.06055.091797.05078c.00288.0023.00285.0035.00586.0059.075311.05955.4313291.261871.7910151.449219.359686.187347.714573.392801.789063.457031.212635.183352.238333.0877.05664-.210937-.03076-.05056-.05294-.06609-.07813-.105469-.0028-.0042-.0011-.0055-.0039-.0098-.00047-.0007-.0054-.0051-.0059-.0059-.1487407-.229316-.2506527-.330606-.7343327-.677723-.272396-.195486-.561528-.411165-.642578-.478515-.081051-.067354-.1669964-.121094-.1914064-.121094zm6.0351564 0c-.05904-.000153-.04817.09579.0332.279297.04027.09082.08746.258135.103516.371094.01605.112959.04961.219588.07422.236328s.05964.07071.07813.121093c.01849.05038.142584.167989.277344.261719s.306819.22317.38086.28711c.08266.07138.131323.103948.185546.101562.0317-.0014.08855-.04849.13086-.07813.01237-.0077.02801-.01672.04102-.02734.03203-.02548.04573-.02353.08984-.0625l.208985-.183593-.13086-.103516c-.07168-.05599-.282374-.151031-.46875-.212891-.215255-.07145-.413733-.189528-.527344-.294922-.02892-.03429-.06042-.07269-.08789-.11914-.0017-.0068-.01172-.0152-.01172-.02148 0-.07287-.327193-.554583-.376953-.554688zm-7.9453126.429688c-.0227-.003-.0586.000879-.109375.01367-.3571014.08997-.6563819.262515-.8007813.462891-.082565.114572-.1503906.236784-.1503906.271484s-.059176.127328-.1308594.205078c-.03093.03355-.025816.04563-.044922.07031l-.095703.109375.064453.05859c.022243.0368.040797.06994.1152344.128906.048848.0387.07943.04564.1230469.07031.027106.01933.075738.06412.083984.06445.00243.000098.00724-.0093.00977-.0098.00101.000202.00491.0018.00586.002.0008987.000412.00935.0098.00977.0098.0002433 0 .0017-.0019.00195-.002.090453.00082.255085-.35053.2890625-.617188.034366-.2697.2176181-.526896.4746094-.666016.1672235-.09052.2223961-.162835.1542969-.171874zm6.7773436 1.927734c-.0033 0-.02798.01827-.03516.02148-.04145-.01364-.10133.01759-.205078.109375-.120376.106506-.142578.167192-.142578.386719 0 .143795-.01922.274303-.04297.289062-.02371.01476-.0325-.100643-.01953-.257812.000438-.0053-.000387-.0045 0-.0098.0052-.06118-.0026-.07983-.01172-.126953-.0037-.05608.0014-.1505-.01172-.15039-.06502.000584-.175781.260975-.175781.412109 0 .202011-.198086.548414-.388672.679688-.09588.06604-.451489.198671-.791016.294921-.800431.22692-.801784.227527-.833984.388672-.01512.07562-.06077.184285-.101562.240235-.07342.100696-.07502.100696-.148438 0-.0408-.05595-.08645-.164615-.101562-.240235-.03212-.160757-.03414-.16099-.816407-.382812-.322933-.09157-.516866-.153754-.654297-.212891-.0097-.0046-.01804-.0071-.02734-.01172-.127793-.05787-.20141-.113829-.265625-.191406-.000535-.000646-.0014-.0013-.002-.002-.05014-.05831-.1002073-.114007-.1445308-.1875-.023923-.03853-.054003-.109714-.072266-.185547-.1051557-.43664-.1430012-.548828-.1914062-.548828-.0001717 0-.00178.000005-.00195 0-.029765-.000826-.1276571-.07043-.21875-.15625-.1216024-.114574-.1885815-.156004-.2324218-.134766-.00655-.0029-.027544-.0213-.03125-.02148-.00163-.000078-.0004369.03502-.00195.03711-.029514.06132-.02951.229534-.021484.490235.0004741.01792-.00258.01484-.00195.0332.0005616.01643.00137.01954.00195.03516.0008924.02514.000919.03552.00195.0625.00235.06123.010247.06.013672.117188.00815.12441.01865.26056.037109.341796.010228.06474.017449.229943.027344.236329.0291.01878.068039.08103.085937.138671.044462.143197.248029.31281.5195313.486329.00925.0058.01776.01179.027344.01758.00219.0013.0056.0026.00781.0039.085064.05097.189382.106042.304688.162109.112745.05802.189489.117693.320312.173828.17038.07311.275284.09514.410156.140626.03077.01037.07769.02932.105469.03711.305551.09336.538136.130853.597656.05273.000304-.000398.0017.000403.002 0h.05664l-.0625-.0625c-.0458-.108426-.312892-.277575-.71875-.439453-.604794-.241225-.9979413-.480192-1.1171875-.677734-.1094397-.181295-.214511-.636363-.203125-.88086l.00781-.167968.021484.158203c.076861.553671.2965096.942875.6386716 1.126953.05882.03164.473282.150806.84375.263672.243093.07611.427915.148237.511719.224609.01.03252.01813.04954.0293.109375.02285.122438.07414.213544.136719.279297.000784.000843.0012.0031.002.0039.000258.000266.0017-.000265.002 0 .207833.212974.561519.121686.636719-.28125.01408-.07546.02881-.1212.0625-.154297.0027-.0019.0031-.004.0059-.0059.0015-.000984.0063-.0029.0078-.0039.04937-.03206.18281-.06762.265626-.09961.486353-.13379.833561-.254493 1.068359-.384765.0029-.0016.01901-.0063.02148-.0078.0092-.0056.01804-.0209.02734-.02734.208274-.126672.340291-.262786.416016-.439454l.07813-.183593.002.15625c.000856.07928-.02126.153258-.05664.226562-.0082.01675-.01811.03284-.02734.04883-.141777.233293-.479741.449595-1.08789.695313-.451358.182368-.71786.346542-.765625.458984l-.06445.06445h.05078c.000298.000519-.000316.0014 0 .002l-.002.0039h.0098c.05679.0733.299233.02831.583985-.05469.363201-.105862.781352-.28267 1.11914-.488281.05396-.03142.1005-.07185.144532-.103516.08267-.05871.191143-.118485.242187-.173828.121856-.132123.220703-.27348.220703-.3125s.0277-.07883.06055-.08984c.03884-.01301.06739-.252707.08399-.685546.0011-.0295-.0029-.02349-.002-.05078.01329-.269846.01151-.477841-.01367-.544922-.0021-.006-.0014-.03229-.0039-.03711-.0018-.0021.000083-.0332-.002-.0332zm-4.9335936.419922c-.00493 0 .00527.03109.00391.03906-.016575.02622-.01851.06583-.00586.13086.041773.214718.1098632.335104.2949218.445312.02253.01502.06885.03288.09766.04687.155754.07528.357347.15093.695313.253906.31542.09611.489509.155615.597656.208985.0215.01326.05029.02724.06641.04102.0024.002.0075.0038.0098.0059.001.000787.000945.0031.002.0039.02643.02435.04497.05391.06445.08398.0041.01558.01367.02878.01367.04687 0 .04932.01604.10579.03516.125.01345.01353.09297.01959.16211.02539.01735.006.0331.01414.05078.01367.0063.000226.01137-.0035.01758-.0039.0026-.00019.0052-.0016.0078-.002.163314-.000837.191411-.0183.220703-.152344.0081-.0372.01856-.06513.03516-.0918.0056-.0068.0092-.01487.01563-.02148.02284-.02686.05389-.05027.113281-.07812.129561-.06076.372206-.138019.845703-.283204.32629-.100048.5898-.212466.66211-.285156.101151-.101677.194952-.363986.191406-.478516.0026-.01591.01814-.06188.01563-.06445-.00017-.000174-.0076.0021-.0078.002-.000761-.001.0028-.007.002-.0078-.03195-.03212-1.06187.233457-1.310547.337891-.09256.03887-.243778.177157-.335938.308593-.08127.115877-.124691.176273-.18164.207032-.0088.0038-.02393.0025-.0332.0059-.05469.02128-.114608.02734-.238281.02734-.141922 0-.257089-.02378-.339843-.06445-.04747-.03-.08524-.0733-.119141-.125-.0064-.01747-.01758-.03337-.01758-.05273 0-.0716-.09099-.154738-.251953-.240234-.0013-.000772-.0027-.0032-.0039-.0039-.0044-.0026-.04539-.01419-.05273-.01758-.05223-.02591-.138794-.05039-.203125-.07617-.01903-.0064-.04065-.02544-.05859-.0293-.0082-.0018-.05182-.01457-.06445-.01758-.09709-.0347-.161314-.07098-.277344-.103516-.40433-.113395-.585577-.158257-.6679684-.146484-.00709-.000891-.046397-.01367-.050781-.01367zm9.8808596 1.447265c-.04563.01039-.0968.05058-.169922.125-.474141.482545-1.687842 1.290101-2.603516 1.771485-.305224.160461-.576704.283643-.777343.347656-.06161.01965-.10179.07262-.107422.130859-.000055.000504-.0039.0015-.0039.002 0 .0018.0018.0022.002.0039-.000102.0021-.002.0037-.002.0059 0 .000821-.000007.0011 0 .002 0 .0038.0033.0046.0039.0078.000224.0036.0035.0045.0039.0078-.000298.0013-.0078.0067-.0078.0078 0 .03206.01901.04428.05469.04492.07581.01796.2599-.04811.722656-.246094 1.032866-.441903 1.936799-.995222 2.9375-1.798828.224869-.180576.235504-.228691.08594-.357422-.05308-.04568-.09304-.06508-.138672-.05469zm-15.6328128.0078c-.02249.0067-.042018.0242-.068359.04687-.1490549.12829-.1368322.17696.087891.357422 1.066933.856793 2.0638823 1.453654 3.1933594 1.910156.2542118.102746.3795877.145638.4472656.146484.00322.000789.03376.01364.035156.01367.00472.000112.00361-.01938.00781-.02344.012777-.0083.020216-.02402.023438-.04297.00362-.0031.0041-.0074.00391-.01172.0005641-.0069.00391-.0097.00391-.01758 0-.0012-.0019-.0028-.00195-.0039.0001038-.0031.00195-.0027.00195-.0059.0000001-.05765-.030472-.103515-.066406-.103515-.016382 0-.150983-.06874-.2089844-.0918-.010758-.0046-.01392-.007-.025391-.01172-.3584595-.146688-1.1458375-.56034-1.6230469-.851562-.4059549-.247738-.7599724-.511558-1.34375-1-.3124448-.261342-.3993327-.330667-.4668027-.31047zm11.2871098 2.591797c-.01809-.0057-.03717-.0036-.0625.002-.06242.01377-.345618.0863-.628907.162109-1.542697.412851-3.943631.412851-5.4863278 0-.7913243-.211777-.7304078-.210742-.7949218-.01172-.031259.09643-.065674.223601-.076172.28125-.010497.05765-.047022.170814-.080078.251954s-.060547.158625-.060547.171875c0 .08489.9577922.32416 1.8769535.46875.119859.01885.25457.02817.380859.04297.09074.01407.221039.04326.296875.05273.01474.0018.167416.000538.203125.002.000687.000027.0032-.000027.0039 0 .042.003.08654.0013.128907.0039.0012.000626.02289.0034.02344.0039.0023.0023.06415-.0019.07031 0 .644205.03457 1.312454.02129 1.951171-.03711.05658-.0036.117929-.0093.169922-.01367.007-.000883.02651-.0011.0332-.002.01459-.002.03398-.0077.04883-.0098.02288-.0022.04414-.0054.06641-.0078.107146-.01275.22067-.01965.324219-.03516.03726-.0056.05151-.01196.08789-.01758.02123-.0037.0449-.0038.06641-.0078.07857-.0145.154952-.03458.236328-.05078.727016-.125266 1.278813-.253281 1.441407-.359375.0011-.000703.000905-.0013.002-.002.04349-.02909.08956-.05719.08008-.08203-.01495-.03916-.07888-.242778-.140625-.451171-.07516-.253693-.107855-.338366-.162109-.355469z" fill="#fbe8e7" stroke-width=".052269"/></svg>