<svg height="24.000002" viewBox="0 0 24 24.000002" width="24" xmlns="http://www.w3.org/2000/svg"><path d="m9.5878906.00390625c-.0003856.00028375.00418.01504279.00391.015625-.00196.00014453-.010259-.01279251-.011719-.01171875-.000306.00022515.00221.00942436.00195.00976563-.026559-.02289506-.031269-.01048563 0 .05859374.038733.08556837.089539.25634915.1347657.37695313.031272.0923158.022488.0990268.064453.20898438.083803.21958011.1443688.40557582.2050781.59179682.017621.057545.034409.1145923.050781.171875.04562.1585833.08232.2987187.117188.4394532.01348.059865.03355.1217875.04492.1816406.0098.046616.01451.092224.02344.1386719.03246.1981536.05816.3983996.07227.6210937.01592.2514248.02021.5268811.01953.8476563-.000993.466664-.0096.7683588-.0332 1.0195312-.0026.020931-.0031.043722-.0059.064453-.01128.1048254-.04025.1944663-.05859.2871094-.0418.196562-.09082.3918671-.150391.5859375-.0451.137387-.092522.2738408-.144531.4082031-.0318172.0849677-.0681653.1693734-.103486.2539064-.5586463 1.3093513-1.4957799 2.5196381-3.0664063 3.9667965-.2685314.245319-.6046154.541089-.9589843.847657-.1427609.121504-.2723912.2378-.4238282.363281-1.1237621.931152-1.9791329 1.682629-2.5429687 2.230469-.1832903.17809-.3817598.417939-.5761719.671875-.091346.111221-.1686135.220643-.2460938.328125-.025109.03543-.060388.07418-.083984.109375-.0097.01447-.015864.03037-.025391.04492-.088449.131825-.1678122.264259-.2382812.394531-.06616.113518-.1149281.209822-.1640625.310547-.00371.0084-.00806.01697-.011719.02539-.046236.09681-.1036716.203677-.1289063.28125-.087629.269375-.1441202.536256-.1875.800782-.00614.03241-.015692.0608-.021484.09375-.017892.101782-.02379.205492-.033203.308593-.00142.0175-.00464.03527-.00586.05273-.015114.195563-.020111.392779-.00586.589843.00775.107133.024867.213598.041016.320313.076854.570784.268838 1.107304.5683593 1.595703.08089.131898.1668931.260643.2636719.384766.039805.05287.082726.103174.125.154297.048617.05674.090485.117047.1425781.171874.2545435.267906.3262166.350314.2753907.375-.0007159.000137-.00122-.000128-.00195 0-.010137.0046-.032036.0046-.050781.0059l-.1035156-.0078c-.0669418-.0028-.1638345-.024675-.2441434-.037155-.1245239-.019103-.2476307-.039888-.4199218-.083984-.250535-.068723-.5354439-.157941-.89843752-.291016-.1117656-.040974-.10637952-.027844-.203125-.060547-.02954672-.01153-.06299891-.01961-.09179688-.03125-.25470662-.102949-.37716016-.140547-.41796875-.121094-.00735789.000146-.08203125-.028366-.08203125-.02539 0 .08642.50000015.594333.96875 1.021484.0308122.02675.0539823.04918.0859375.07617.099174.08841.2040776.199796.2910156.269531 1.2750594 1.022758 2.7946718 1.703638 4.5390625 2.046875.069986.01453.1390072.03171.2089844.04492.323258.06105.6468149.110953.9648438.142578.014478.0014.037758.000597.052734.002.00333.00035.00643.0016.00977.002.1524216.01356.3402637.01999.5332031.02539.1679647.0084.3326326.01364.5039062.01563.04722.000848.1338936.0024.1816407.002.046744-.000343.1265511-.0045.1757812-.0059.5862953-.0081 1.1622043-.04709 1.695313-.125.01575-.0024.05572-.0034.07031-.0059.03441-.0059.06187-.01536.0957-.02148.01469-.0025.03861-.0034.05274-.0059.03294-.0058.063-.01526.0957-.02148.135857-.02445.284523-.04314.410156-.07227 1.068969-.247837 2.062083-.764318 2.742187-1.425782.152197-.148025.290282-.322151.425782-.498046.0112-.01392.02416-.02697.03516-.04102.02181-.02895.04712-.05259.06836-.08203.07114-.09509.128656-.197135.191407-.296875.01995-.03247.04135-.06441.06055-.09766.05081-.08577.105893-.168919.150391-.257813.100635-.192805.172567-.382049.238281-.568359.08738-.247725.144112-.479393.154297-.685547.000121-.0024.0018-.0054.002-.0078.00019-.0016-.000185-.0023 0-.0039.000863-.02041.01172-.0466.01172-.06641v-.08789c.001-.0158-.000222-.02523 0-.03906v-.197266l-.511719.304687c-.129612.07746-.259972.140265-.390625.205079-.108733.05386-.198851.0979-.310547.146484-.335356.140158-.670842.237541-1.003906.294922-.05281.0082-.105393.01716-.158203.02344-.146009.0087-.261992.02016-.519531.01953-.294392-.00072-.440261-.01216-.595703-.02539-.562723-.0896-1.097662-.306898-1.5761722-.658203-.7607072-.558477-1.1332786-1.323466-1.1328706-2.316442.0003811-.975804.2799413-1.687536 1.2636718-3.210938 1.445885-2.239097 2.014566-4.0572595 2.009766-6.423828-.000269-.1316718-.01913-.2582102-.023438-.3886719-.009576-.321173-.026074-.6391127-.058594-.9433593-.015187-.1364671-.038685-.272569-.058593-.4082032-.044485-.3063264-.100575-.6150425-.171875-.9179687-.040201-.1756413-.086254-.3521534-.134766-.5273438-.051595-.1797128-.112013-.3655533-.173828-.5488281-.122087-.3731785-.260931-.7494632-.421875-1.125-.041784-.0972481-.08644-.1941591-.130859-.2910156-.097534-.2147413-.176643-.4278046-.28711-.6445313-.099925-.1960451-.219665-.3834222-.335937-.5839843-.059394-.10869222-.106094-.18361343-.16211-.28125005-.065626-.1075687-.125749-.21701159-.1855465-.30859375-.1753386-.28336043-.3194217-.49280179-.3574219-.46484375zm8.4121094 1.38476565c-.03464-.025486-.365453.4117716-.78125.9941406-.143451.1930041-.276384.3744543-.396484.5449219-.0076.01117-.01584.022022-.02344.033203-.0409.058331-.104177.1385414-.138672.1894531-.204769.3022278-.398115.6187929-.582031.9414063-.358965.6031287-.627797 1.1650352-.841797 1.7285156-.0064.016098-.01123.032769-.01758.048828-.05629.1507122-.111768.3058498-.160156.4589844-.04467.1300693-.09978.2653015-.136719.390625-.01882.063855-.02675.1653427-.04297.2402344-.01134.046094-.02822.088118-.03906.1347656-.09371.4030698-.122272.706082-.128906 1.0644531-.000204.00331.000198.00645 0 .00977-.000107.00631.000085.015111 0 .021484-.01357.2408634-.01486.477459 0 .7109375.000299.00471.0016.00897.002.013672.0061.098398.02205.1982943.0332.296875.02276.3787649.05981.7254375.128906.9570315.04932.165318.105411.312874.158203.464843.02711.08321.0545.171489.08594.25586.06576.172199.150598.352084.232421.529297.133487.290176.300819.613083.492188.949219.05874.103321.113149.205494.179688.318359.05438.09154.08965.16353.148437.259765.280773.459642.6284 1.029682.865234 1.417969.04399.07355.09363.152423.134766.222657.474709.784354.837376 1.589767 1.068359 2.335937.03585.126973.06977.257132.09961.388672.03052.139858.06411.27669.08398.431641.0052.03667.009.07439.01367.111328.02.182188.02551.370381.03125.558593.000688.09605.0084.136431.0078.251953-.00061.112625-.0085.134783-.0098.226563-.01509.408718-.06229.781607-.148438 1.066406-.03128.102201-.07018.20149-.109375.300781-.237261.548467-.656935 1.159967-1.101562 1.607422-.109351.105344-.223387.209466-.345703.310547-.103135.08408-.211239.167227-.328125.25-.07898.05779-.162545.113585-.246094.169922-.419173.272039-.889926.521518-1.359375.722656-.06192.02598-.123742.0546-.183594.07813-.247939.09922-.493685.187378-.724609.25-.100464.02724-.141388.05309-.152344.07813l-.09375.03125.138672.02734c.0021.002-.02006.01047-.01563.01172.03821.01079.241816.04412.394531.07031.08448.01662.0943.02795.210938.04687.06059.0098.169169.01149.242187.01953.01339.0023.03037.0057.04297.0078.05466.0091.175272.01094.251953.01758.01901.0016.04229.0024.0625.0039.005.00031.0087.0016.01367.002.0059.000914.03448.0051.03906.0059.0041.000643.04497.0013.05078.002.0937.0049.170435.01058.271484.01367.05732.0014.116902.0031.177735.0039.110472.0027.204322.0055.339843.0039.115739.0019.140343.007.263672.0078.37678.0025.744382-.01903 1.107422-.05078.45156-.02792.865579-.06456 1.134766-.119141.588317-.119294 1.151375-.304236 1.691406-.515625.767242-.300328 1.449916-.676843 2.003906-1.107422.06366-.04882.124882-.09816.185547-.148437.09231-.0782.204495-.149621.287109-.230469.05028-.04921.09273-.103492.140625-.154297.01708-.01733.03208-.03527.04883-.05273.09923-.10822.194986-.217821.283204-.332032.08625-.107752.164522-.218072.238281-.330078.0193-.02962.03611-.05997.05469-.08984.05804-.09324.124687-.183419.173828-.279297.02633-.05138.04252-.09341.06641-.142578.000663-.0014.0013-.0025.002-.0039.000918-.0019.001-.004.002-.0059.241949-.500011.36727-.901028.392578-1.330078.04406-.387279.02964-.765554-.06641-1.115234-.09896-.360303-.255921-.731434-.460938-1.128907-.129281-.251788-.296715-.528704-.490234-.824219-.09124-.140394-.191479-.292204-.298828-.445312-.164351-.232245-.357074-.488294-.5625-.755859-.53529-.703002-1.16622-1.492391-2.052735-2.53711-.775375-.9137219-1.177319-1.3996209-1.488359-1.8008479-.08153-.104667-.143376-.185481-.203125-.265625-.03899-.05392-.08293-.112185-.11914-.164063-.05552-.081258-.11902-.1668658-.169922-.2460932-.03039-.047308-.05321-.091954-.08203-.1386719-.080197-.1369386-.155558-.2754045-.226564-.4160157-.0023-.00445-.0036-.00922-.0059-.013672-.119286-.2368643-.221298-.4803037-.314412-.7265623-.018279-.04844-.039374-.0957616-.056641-.1445313-.080029-.2255726-.146747-.4555296-.205078-.6875-.018856-.0751985-.036157-.1507575-.052735-.2265625-.048742-.2221721-.088036-.4471568-.117187-.6738281-.01052-.082369-.01941-.1651444-.02734-.2480469-.01499-.1552256-.01947-.3119614-.02539-.46875-.001-.093127-.008-.1620538-.0078-.2636719.000583-.3288527.01824-.628654.04102-.921875.0086-.081267.02221-.1626723.0332-.2441406.03111-.2321072.06496-.4644934.115234-.6972656.01646-.076014.0401-.1524443.05859-.2285156.05928-.2440712.120823-.4889622.201172-.7324219.0075-.022831.01767-.045539.02539-.068359.09787-.289296.208297-.5765987.335938-.8632812.07717-.1733205.07738-.2074163.123047-.328125.127807-.2385615.156143-.3183121.117187-.2988281.00059-.00415.01869-.040194.01758-.041016-.0001-.0000737-.0057.00782-.0059.00781-.000137-.0002639.0041-.00962.0039-.00977-.000246-.0001809-.0075.00981-.0078.00977-.000253-.0004126.0042-.011475.0039-.011719z" fill="#f7f4e6" stroke-width=".069995"/></svg>