<svg height="682.67" viewBox="0 0 682.67 682.67" width="682.67" xmlns="http://www.w3.org/2000/svg">
    <g stroke-width="1.3333" transform="translate(-34.653 -25.99)">
        <path
            d="m380.67 605.87c-11.199-2.4701-13.155-3.9268-7.8838-5.8698 16.516-6.0873 37.138-21.005 49.228-35.61 9.0262-10.904 18.31-29.181 22.208-43.724 4.1499-15.481 4.1314-47.658-.0387-67.142-3.7615-17.575-10.226-36.885-18.587-55.525-3.6185-8.0667-10.83-24.125-16.025-35.685-17.31-38.515-22.709-59.303-23.802-91.648-.62844-18.591-.31184-24.524 2.0434-38.294 5.1502-30.108 13.623-54.786 30.187-87.918 11.647-23.298 20.657-39.58 21.458-38.778.31429.31429-1.541 7.02-4.1228 14.902-17.887 54.604-17.883 112.06.012 160.1 6.2717 16.838 9.4184 22.502 37.401 67.323 43.032 68.926 57.328 97.536 63.161 126.4 5.3804 26.625-3.3178 60.596-21.816 85.2-15.201 20.219-40.838 36.965-68.09 44.476-14.243 3.9253-51.088 4.9383-65.333 1.7963zm-122.67-6.4932c-35.552-5.6393-65.904-22.065-90.676-49.072-8.4448-9.2068-21.991-27.906-21.991-30.357 0-.63866 5.85 1.7537 13 5.3165 13.103 6.5292 21.183 9.3804 26.622 9.394 2.7354.007 2.5093-.63058-3.0361-8.5634-18.194-26.027-23.442-61.951-14.504-99.294 2.8652-11.971 14.875-35.975 24.082-48.135 9.2128-12.167 23.216-28.847 41.578-49.526 46.862-52.777 67.911-89.043 77.907-134.23 2.3684-10.707 2.8629-17.349 2.8967-38.91.0447-28.495-1.6098-41.083-8.7345-66.456-2.1462-7.6433-3.6196-14.18-3.2741-14.525 1.0904-1.0904 10.882 19.679 17.121 36.315 16.193 43.18 23.827 84.288 23.893 128.67.0791 52.557-9.2172 92.94-32.842 142.67-16.074 33.832-20.66 49.662-20.666 71.333-.007 22.052 6.1059 39.005 18.534 51.407 21.024 20.979 48.523 20.944 74.423-.0924l8.3333-6.7688v7.1806c0 16.184-9.6449 41.71-21.863 57.861-11.112 14.69-27.338 26.155-44.804 31.659-18.606 5.8632-44.762 7.5006-66 4.1318z"
            fill="#f7f4e6" />
        <path
            d="m382.04 605.99c-5.1117-1.0599-10.186-2.2695-11.277-2.688-1.2268-.47076 3.0877-3.2893 11.314-7.3913 7.6649-3.822 17.504-10.157 23.23-14.955 34.669-29.059 47.919-67.166 40.605-116.78-3.8265-25.955-10.115-44.676-28.289-84.221-18.298-39.815-23.915-55.047-29.235-79.283-3.6744-16.739-3.2676-58.063.75412-76.611 5.3681-24.758 15.922-54.194 28.418-79.261 6.6172-13.275 21.409-39.606 21.946-39.068.21662.21661-1.7402 6.9668-4.3484 15-19.656 60.544-17.559 123.47 5.7978 173.94 2.8847 6.2333 16.684 29.633 30.665 52 51.529 82.433 63.711 109.04 65.351 142.74.72586 14.916-1.2304 26.023-7.5224 42.708-12.69 33.651-43.813 60.225-84.297 71.975-12.93 3.7528-48.94 4.835-63.111 1.8967zm-121.37-6.061c-21.792-2.9453-44.93-11.866-64.427-24.838-13.739-9.1418-33.091-28.24-42.568-42.011-10.115-14.697-10.126-15.342-.17403-9.8744 10.939 6.0096 25.465 11.464 30.53 11.464h3.9673l-4.6144-6.4229c-15.631-21.758-23.075-53.077-19.389-81.578 4.95-38.273 17.399-59.502 68.026-116 42.434-47.355 64.172-82.194 75.289-120.67 5.8614-20.285 7.2555-32.356 6.7758-58.667-.46607-25.564-2.022-36.563-8.6704-61.295-2.1628-8.0457-3.7046-14.856-3.4261-15.135 1.9256-1.9256 18.472 38.829 25.888 63.764 10.561 35.51 14.899 65.189 14.907 102 .012 52.6-9.481 92.904-34.074 144.67-15.664 32.97-19.374 46.208-19.374 69.14 0 21.489 5.644 37.709 17.475 50.218 20.597 21.778 50.114 21.96 76.097.46858 3.4316-2.8383 6.5816-5.1606 7-5.1606 1.6409 0 .60748 11.896-1.969 22.667-9.0811 37.962-36.183 65.996-72.19 74.672-13.038 3.1414-41.195 4.4641-55.08 2.5874z"
            fill="#f3edd7" />
        <path
            d="m385.33 606.51c-3.3-.7471-8.3784-1.9746-11.285-2.7277l-5.2854-1.3694 9.7145-4.4996c14.32-6.6328 26.327-15.111 37.004-26.128 23.888-24.649 33.7-52.109 32.079-89.783-1.2643-29.392-7.4617-52.441-23.84-88.667-24.993-55.278-29.307-66.639-34.684-91.333-4.3051-19.774-4.24-55.284.14048-76.667 7.0994-34.655 24.324-76.864 45.978-112.67 5.5039-9.1003 5.975-8.965 2.1932.62973-4.1663 10.57-10.459 35.436-12.63 49.911-2.9363 19.573-3.9246 48.668-2.1732 63.976 4.6552 40.69 13.823 64.102 43.205 110.34 63.109 99.306 77.197 134.34 69.705 173.36-8.6258 44.923-42.912 79.919-91.455 93.348-11.546 3.1944-48.311 4.6208-58.667 2.2763zm-123.64-6.4972c-44.898-6.3569-84.234-31.545-110.36-70.671-3.1813-4.7633-5.624-8.8207-5.4282-9.0164.19576-.19577 6.6984 2.6738 14.45 6.3768 8.6496 4.1318 16.793 7.0524 21.081 7.5602 7.8305.92742 7.8147 1.4201.29244-9.1036-22.125-30.954-24.267-82.823-5.0298-121.82 7.7111-15.633 19.966-31.796 52.688-69.486 30.728-35.394 43.129-51.474 54.84-71.111 31.11-52.164 38.404-106.98 22.447-168.69-2.0925-8.0917-4.2124-15.912-4.7111-17.379-2.237-6.5801 5.171 7.2074 10.721 19.954 18.618 42.758 28.356 86.831 29.62 134.06 1.4704 54.938-6.9142 96.416-29.242 144.66-14.878 32.144-17.156 37.792-20.537 50.916-10.36 40.215 1.8775 76.862 30.148 90.283 7.7865 3.6967 9.9531 4.1156 21.333 4.1244 11.397.009 13.536-.40236 21.343-4.1018 4.7718-2.2614 12.113-6.9114 16.314-10.333 4.2012-3.4219 8.0332-6.2217 8.5156-6.2217 1.8933 0-1.068 19.378-4.6759 30.597-5.121 15.925-11.958 27.722-22.608 39.012-14.453 15.321-28.748 23.501-49.555 28.356-10.591 2.4713-40.317 3.6485-51.641 2.0451z"
            fill="#f0eace" />
        <path
            d="m383.62 606.03c-15.644-3.246-15.553-3.0053-3.3695-8.8972 14.337-6.9332 25.021-14.681 35.828-25.983 14.499-15.162 21.423-26.941 27.475-46.739 3.2905-10.764 3.5977-13.69 3.683-35.077.0792-19.848-.37445-25.425-3.037-37.333-5.5903-25.004-11.277-40.201-30.153-80.581-19.501-41.717-26.857-67.397-28.333-98.912-2.0282-43.304 12.138-92.3 42.635-147.46 5.9666-10.792 11-19.47 11.186-19.284.18556.18555-1.1229 4.3603-2.9076 9.2773-15.397 42.418-19.267 96.305-9.9377 138.37 6.2492 28.174 13.578 43.627 42.756 90.156 46.832 74.681 62.044 105.51 66.655 135.11 5.9077 37.913-13.227 80.012-47.636 104.8-11.155 8.0365-30.895 17.179-44.527 20.622-14.614 3.6914-46.874 4.7281-60.319 1.9384zm-117.94-6.0713c-28.458-2.9913-54.144-13.096-76.353-30.038-10.634-8.1119-30.409-29.109-37.591-39.913-3.4097-5.13-6.0394-9.4874-5.8436-9.6831.19576-.19577 6.7407 2.694 14.544 6.4217 9.9713 4.7632 16.472 7.0004 21.872 7.5272l7.6841.74957-3.5772-3.8441c-6.2643-6.7318-13.051-19.449-17.062-31.969-9.0927-28.386-7.3609-61.591 4.6903-89.929 8.0596-18.952 18.865-33.666 55.282-75.279 12.194-13.933 25.953-30.112 30.577-35.953 25.993-32.837 42.622-65.222 50.334-98.028 4.5574-19.386 5.71-54.03 2.529-76.019-1.8446-12.751-7.4208-37.08-10.878-47.462-2.1118-6.3411 5.2336 7.3487 10.581 19.72 19.787 45.778 30.191 95.542 30.191 144.41 0 52.004-10.579 97.12-33.302 142.02-23.045 45.534-26.815 81.115-11.635 109.8 5.5208 10.433 13.518 18.401 23.803 23.716 7.8936 4.0792 9.3758 4.3788 21.865 4.4203 12.814.0425 13.835-.17151 23.427-4.91 5.5162-2.725 12.779-7.375 16.14-10.333 3.3609-2.9584 6.5547-5.3788 7.0975-5.3788 2.067 0-.96106 19.635-4.8157 31.228-5.6673 17.044-14.485 31.105-26.767 42.684-17.001 16.029-34.954 23.6-61.814 26.071-15.966 1.4684-16.779 1.4678-30.98-.0249z"
            fill="#ede5c4" />
        <path
            d="m391.33 607.13c-1.4667-.3101-7.0941-1.4986-12.505-2.6412l-9.8388-2.0774 7.8388-3.4681c24.524-10.85 47.381-31.556 57.954-52.501 10.675-21.147 13.831-37.005 12.81-64.353-1.283-34.346-7.3489-54.529-32.845-109.29-29.173-62.652-35.205-101.5-23.899-153.93 6.505-30.166 25.202-74.617 44.952-106.87 3.5534-5.8031 3.5726-5.1149.1334 4.7913-9.9918 28.78-13.807 52.799-13.852 87.209-.0412 31.558 1.6947 43.525 9.8838 68.14 6.8494 20.588 13.861 34.189 34.377 66.679 62.505 98.99 75.668 131.33 69.151 169.91-4.0165 23.773-14.136 43.092-32.159 61.391-24.41 24.784-57.44 38.034-94 37.707-8.4333-.0755-16.533-.39085-18-.70094zm-121.33-6.6972c-28.406-2.4255-57.822-13.409-79.351-29.627-15.414-11.612-39.689-38.871-43.53-48.881-.5582-1.4547 3.0566-.18586 11.38 3.9943 12.873 6.465 25.564 10.489 28.966 9.1832 1.6749-.64272 1.4467-1.3974-1.2921-4.273-9.0606-9.513-17.748-29.706-20.967-48.738-2.2114-13.072-.8198-41.29 2.7003-54.754 3.1468-12.036 10.898-29.056 18.392-40.387 6.1033-9.227 25.189-32.605 44.314-54.28 20.803-23.576 26.651-30.643 36.962-44.667 45.687-62.133 57.6-120.08 39.606-192.67-1.818-7.3333-3.5947-14.533-3.9483-16-1.0599-4.3959 6.1437 9.8102 11.494 22.667 29.604 71.14 35.85 154.24 16.786 223.33-5.6836 20.601-10.209 32.227-22.837 58.667-23.246 48.674-26.278 78.404-11.068 108.54 16.317 32.33 56.408 38.322 85.438 12.768 3.3169-2.9197 6.4662-5.3085 6.9984-5.3085 1.3127 0-.40715 14.83-2.8608 24.667-1.0975 4.4-5.0298 14.266-8.7386 21.924-5.8468 12.073-8.2741 15.446-18.26 25.371-17.795 17.687-34.906 25.224-63.591 28.013-13.152 1.2787-16.306 1.3326-26.592.45428z"
            fill="#eae0ba" />
        <path
            d="m385.92 606.14c-17.072-3.2691-16.981-3.0636-4.1592-9.3925 26.618-13.139 47.986-35.551 58.144-60.984 6.7075-16.795 8.5365-29.369 7.7098-53.003-1.1586-33.126-7.3215-54.833-28.986-102.1-16.749-36.54-21.901-49.678-26.549-67.704-13.327-51.687-5.9137-101.29 24.554-164.3 8.7458-18.085 23.718-45.221 21.335-38.667-12.182 33.502-17.456 66.929-16.196 102.67 1.6237 46.071 11.136 74.101 40.949 120.67 22.809 35.625 46.832 76.512 55.229 94 14.274 29.725 18.424 44.19 18.55 64.667.32432 52.35-37.29 97.43-93.598 112.17-13.347 3.4948-43.564 4.5388-56.983 1.969zm-135.92-8.7751c-29.935-6.0082-58.17-22.208-80.933-46.434-8.7311-9.2923-22.401-27.517-22.401-29.865 0-.64924 2.5677.32431 5.7059 2.1635 12.486 7.3172 32.437 14.073 35.667 12.078.7508-.46401-.63983-3.2424-3.2023-6.398-6.0775-7.4843-13.478-22.547-16.94-34.483-4.4238-15.248-4.9868-41.71-1.2708-59.728 6.0607-29.387 15.735-45.985 49.367-84.7 55.18-63.518 69.518-83.442 83.175-115.58 18.175-42.771 20.995-91.316 8.1191-139.75-1.852-6.9667-3.6668-13.867-4.0329-15.333-1.1329-4.5389 6.23 10.063 11.094 22 19.453 47.747 27.606 89.135 27.575 140-.0315 53.341-8.5023 90.593-31.532 138.67-17.543 36.62-21.536 50.473-21.525 74.667.007 14.605.44282 17.894 3.5267 26.591 4.6412 13.089 11.83 23.264 21.432 30.332 10.339 7.6114 19.53 10.22 33.386 9.4758 13.067-.7018 24.819-5.7561 35.305-15.184 8.2314-7.4007 9.1384-6.3656 6.7868 7.7448-3.7967 22.781-14.256 43.666-29.233 58.374-15.67 15.388-31.977 23.597-52.873 26.618-14.678 2.1217-43.538 1.4904-57.197-1.251z"
            fill="#e8deb2" />
        <path
            d="m393.33 607.21c-1.8333-.34012-7.7946-1.5661-13.247-2.7245l-9.9139-2.106 9.4258-4.3659c13.908-6.4418 25.089-14.497 37.069-26.704 36.623-37.318 42.033-93.825 15.367-160.5-2.8157-7.0407-9.4308-22.078-14.7-33.417-24.512-52.746-30.77-75.49-30.827-112.05-.0591-37.46 8.788-72.062 29.488-115.33 7.1802-15.009 21.261-40.928 21.315-39.234.0133.42155-1.394 4.9363-3.1275 10.033-8.5066 25.01-12.79 52.87-12.824 83.402-.0299 27.079 2.9487 46.44 10.723 69.707 6.2129 18.592 13.72 33.205 31.113 60.563 41.7 65.589 58.766 96.99 68.264 125.61 3.4567 10.415 3.7388 12.848 3.7773 32.589.04 20.532-.11427 21.773-4.1099 33.048-13.867 39.131-45.547 67.122-88.494 78.189-10.987 2.8313-40.999 4.8409-49.298 3.3012zm-139.79-9.2814c-20.144-3.6778-46.174-14.707-60.835-25.776-12.897-9.7376-28.392-25.492-36.851-37.469-4.6875-6.6369-8.6807-12.528-8.8737-13.092-.19299-.56389 5.3996 1.7988 12.428 5.2504 13.31 6.5368 24.499 9.9947 27.996 8.6526 1.6402-.62941 1.0097-2.1662-3.2019-7.8034-25.846-34.594-26.786-91.334-2.2092-133.32 7.0327-12.014 23.572-32.781 48.485-60.878 43.689-49.273 63.966-80.639 75.41-116.65 7.1927-22.633 9.1296-35.568 9.2103-61.509.076-24.385-1.7247-38.495-7.8505-61.518-1.8698-7.0274-3.1353-13.042-2.8122-13.365.70841-.70842 11.894 25.553 16.51 38.762 15.04 43.038 23.088 93.795 21.161 133.45-2.3694 48.764-11.59 85.36-32.417 128.67-15.743 32.735-20.171 46.879-21.287 68-1.9837 37.523 17.068 66.464 47.37 71.959 14.708 2.6671 30.81-2.2875 45.892-14.121l7.6667-6.0155v6.5418c0 8.5248-4.0676 24.236-9.2127 35.583-13.616 30.029-40.08 49.955-73.454 55.309-11.775 1.8887-41.149 1.5206-53.124-.66579z"
            fill="#e7dcae" />
    </g>
</svg>