<svg height="512" viewBox="0 0 512 512" width="512" xmlns="http://www.w3.org/2000/svg"><g transform="translate(-.054717 -.001632)"><path d="m285.5 454.40305c-8.39929-1.85261-9.86658-2.94507-5.91284-4.40235 12.38664-4.56551 27.85369-15.75396 36.92124-26.70785 6.76963-8.17792 13.73218-21.88607 16.65593-32.79285 3.11245-11.6107 3.09854-35.74365-.029-50.35655-2.82109-13.18093-7.66917-27.66347-13.94029-41.64345-2.71389-6.05-8.1225-18.09379-12.01911-26.76397-12.98237-28.8864-17.03151-44.47736-17.85151-68.73603-.47133-13.94355-.23388-18.39337 1.53259-28.72031 3.86261-22.5812 10.21759-41.08974 22.64024-65.93844 8.73542-17.473236 15.49268-29.68465 16.09364-29.083691.23572.235718-1.15571 5.264987-3.09207 11.176155-13.41508 40.952626-13.41194 84.042266.009 120.073916 4.70376 12.62858 7.0638 16.87671 28.05085 50.49237 32.27424 51.69474 42.99634 73.15202 47.37072 94.79922 4.03527 19.96912-2.48831 45.44671-16.3617 63.9-11.40059 15.16416-30.62853 27.72361-51.06746 33.35663-10.68196 2.94397-38.31602 3.70373-49 1.3472zm-92-4.8699c-26.66404-4.22946-49.42827-16.549-68.00678-36.80388-6.33363-6.90512-16.49322-20.92972-16.49322-22.76773 0-.47899 4.3875 1.31531 9.75 3.98735 9.82757 4.89689 15.88756 7.03527 19.96651 7.04553 2.05151.005 1.882-.47294-2.27709-6.42256-13.64586-19.52059-17.58151-46.46311-10.8783-74.47032 2.14886-8.97836 11.15595-26.98149 18.06183-36.10154 6.90956-9.1249 17.4123-21.63544 31.18351-37.14483 35.1467-39.58287 50.93313-66.78217 58.43011-100.67241 1.77632-8.02991 2.14717-13.01141 2.17249-29.18276.0335-21.371502-1.20733-30.812073-6.55087-49.842128-1.60966-5.732508-2.71468-10.634711-2.45561-10.893785.81782-.817821 8.16177 14.759197 12.84066 27.235913 12.14469 32.38499 17.86999 63.21586 17.92006 96.5.0593 39.41789-6.91292 69.7053-24.63161 107-12.05518 25.374-15.49488 37.24687-15.49955 53.5-.005 16.53914 4.5794 29.25366 13.90082 38.55512 15.76772 15.73397 36.39261 15.70837 55.81704-.0693l6.25-5.07662v5.38544c0 12.13803-7.23366 31.28239-16.39695 43.3956-8.33437 11.01744-20.5033 19.61606-33.60305 23.74406-13.9545 4.39736-33.57152 5.62544-49.5 3.09885z" fill="#f7f4e6"/><path d="m286.52951 454.49007c-3.83377-.79492-7.63973-1.70212-8.45769-2.016-.92007-.35307 2.31577-2.46697 8.48563-5.54346 5.74866-2.86646 13.12812-7.61744 17.42218-11.21659 26.002-21.79407 35.93943-50.37463 30.45345-87.58568-2.86989-19.46628-7.58598-33.50671-21.21705-63.16604-13.72373-29.86095-17.93647-41.28545-21.92646-59.4623-2.75576-12.55416-2.45068-43.54757.56559-57.45848 4.02609-18.56818 11.94138-40.64512 21.31318-59.44563 4.96292-9.955982 16.05652-29.704365 16.4598-29.301081.16246.162462-1.30513 5.225092-3.26131 11.250288-14.74237 45.407663-13.16928 92.602033 4.34834 130.454903 2.16351 4.675 12.51311 22.225 22.99911 39 38.64648 61.82477 47.78303 81.78107 49.01293 107.05524.54439 11.18709-.92281 19.51704-5.64179 32.03095-9.51726 25.23814-32.85975 45.16859-63.22281 53.98135-9.69725 2.8146-36.7049 3.62627-47.3331 1.42253zm-91.02951-4.54571c-16.34411-2.20901-33.69774-8.89925-48.31988-18.62849-10.30448-6.85636-24.81815-21.18011-31.92599-31.50822-7.58598-11.02288-7.5945-11.50624-.13052-7.40579 8.20442 4.50722 19.09887 8.59814 22.89756 8.59814h2.9755l-3.46082-4.81721c-11.72357-16.31836-17.30642-39.80767-14.54182-61.18338 3.71252-28.70499 13.04953-44.62669 51.01933-86.99941 31.82584-35.51632 48.12906-61.64581 56.46653-90.5 4.39604-15.21374 5.44162-24.26663 5.08184-44-.34955-19.172799-1.5165-27.422545-6.50281-45.971455-1.62214-6.0343-2.77846-11.142336-2.56961-11.351191 1.44419-1.444184 13.8539 29.121564 19.41602 47.822646 7.92101 26.63216 11.17432 48.89211 11.18053 76.5.009 39.45029-7.11077 69.67804-25.55539 108.5-11.74834 24.72773-14.53047 34.65638-14.53047 51.85528 0 16.11703 4.23303 28.28143 13.10643 37.66374 15.44751 16.33346 37.58574 16.46978 57.07298.35143 2.57367-2.12875 4.93617-3.87045 5.25-3.87045 1.23064 0 .45561 8.92207-1.47674 17-6.81084 28.47177-27.13744 49.49712-54.14262 56.00382-9.77861 2.35608-30.89592 3.34807-41.31005 1.94054z" fill="#f3edd7"/><path d="m289 454.88045c-2.475-.56032-6.28383-1.48093-8.46407-2.0458l-3.96406-1.02702 7.28585-3.37474c10.73991-4.97463 19.74488-11.33292 27.7528-19.5959 17.91627-18.48689 25.27484-39.08189 24.05941-67.33699-.94825-22.04409-5.59627-39.33104-17.88016-66.5-18.7447-41.45872-21.98037-49.97929-26.01266-68.5-3.2288-14.8302-3.18001-41.46296.10536-57.5 5.32454-25.99105 18.24334-57.64782 34.48358-84.5 4.1279-6.825223 4.48129-6.723755 1.64487.472297-3.12474 7.927527-7.84407 26.576903-9.47272 37.433323-2.20221 14.67971-2.94346 36.50092-1.62991 47.98223 3.49141 30.5174 10.36704 48.07619 32.40398 82.75238 47.33206 74.47929 57.89789 100.75742 52.27874 130.0218-6.46934 33.69222-32.18365 59.93895-68.59101 70.01121-8.65985 2.39579-36.23295 3.46563-44 1.70721zm-92.73102-4.87286c-33.67314-4.76767-63.17522-23.65897-82.77345-53.00296-2.38596-3.57246-4.21799-6.61551-4.07116-6.76233.14682-.14683 5.0238 2.00534 10.83772 4.78259 6.48724 3.09889 12.59506 5.28929 15.81091 5.67016 5.87288.69556 5.86101 1.06509.21933-6.82773-16.5939-23.21521-18.20007-62.11695-3.77236-91.36732 5.78331-11.72493 14.97478-23.84688 39.51595-52.11473 23.04569-26.54527 32.34651-38.6057 41.12962-53.33299 23.3322-39.12286 28.80299-80.23714 16.8349-126.518185-1.56936-6.068752-3.15934-11.934095-3.5333-13.034095-1.67776-4.935083 3.87828 5.405516 8.0409 14.96529 13.96347 32.06821 21.26687 65.12298 22.21491 100.54342 1.10283 41.20365-5.18562 72.31164-21.93143 108.49129-11.15849 24.10816-12.86706 28.34412-15.40258 38.18682-7.76973 30.16157 1.40816 57.6463 22.61106 67.71258 5.83985 2.77252 7.46484 3.08668 16 3.09327 8.54776.007 10.15223-.30177 16.00694-3.07639 3.57881-1.69604 9.08495-5.18354 12.23587-7.75 3.15091-2.56645 6.02491-4.66628 6.38666-4.66628 1.42 0-.80102 14.53335-3.50691 22.94767-3.84079 11.94341-8.9684 20.79137-16.95625 29.25891-10.83992 11.49089-21.56132 17.62585-37.16631 21.26716-7.94301 1.85345-30.23782 2.73638-38.73102 1.53385z" fill="#f0eace"/><path d="m287.71751 454.52145c-11.73326-2.43454-11.66487-2.25395-2.52714-6.67286 10.75279-5.19992 18.76549-11.01081 26.87098-19.48709 10.87439-11.37185 16.06745-20.20583 20.60654-35.05403 2.46784-8.0728 2.69826-10.26723 2.76227-26.30747.0594-14.88584-.28084-19.06849-2.27774-28-4.19272-18.75269-8.45772-30.15048-22.61479-60.43574-14.62559-31.28751-20.14267-50.54798-21.2497-74.18405-1.52118-32.47831 9.10326-69.225 31.97639-110.596589 4.47494-8.094008 8.25012-14.602512 8.38929-14.463342.13917.139169-.84215 3.270246-2.18071 6.957947-11.54759 31.813234-14.45029 72.228444-7.45326 103.773904 4.68692 21.13056 10.18332 32.72032 32.06724 67.6173 35.12424 56.01053 46.53285 79.13536 49.99131 101.33057 4.43075 28.43505-9.92054 60.0088-35.72667 78.60097-8.36607 6.02738-23.17112 12.88422-33.39507 15.46667-10.96082 2.76857-35.1552 3.54609-45.23894 1.45381zm-88.45242-4.55349c-21.34365-2.24349-40.60823-9.8223-57.26509-22.52846-7.9756-6.08394-22.80689-21.8316-28.19294-29.93487-2.55731-3.84746-4.52952-7.11551-4.38269-7.26233.14682-.14683 5.05554 2.0205 10.90825 4.81628 7.47847 3.57239 12.3542 5.25033 16.40434 5.64542l5.76304.56218-2.68286-2.88309c-4.69821-5.04883-9.78837-14.58641-12.79647-23.97711-6.81954-21.2892-5.52066-46.19353 3.5177-67.4471 6.04474-14.21411 14.14878-25.24949 41.46163-56.45888 9.1453-10.45 19.46496-22.58418 22.93257-26.96484 19.49458-24.62763 31.96626-48.91683 37.75059-73.5211 3.41808-14.53917 4.2825-40.52246 1.89677-57.01406-1.38349-9.563471-5.5656-27.809958-8.15867-35.596155-1.58385-4.755795 3.92517 5.511528 7.93559 14.789792 14.84028 34.333613 22.64315 71.656163 22.64315 108.306363 0 39.00317-7.93444 72.83973-24.97636 106.51212-17.28383 34.15037-20.11153 60.83607-8.72629 82.3521 4.14056 7.82491 10.13852 13.8011 17.85195 17.78718 5.9202 3.05938 7.03186 3.28411 16.39906 3.31523 9.61029.0319 10.3763-.12863 17.57046-3.68252 4.13716-2.04375 9.58445-5.53125 12.10509-7.75 2.52065-2.21876 4.91606-4.03411 5.32314-4.03411 1.55022 0-.72079 14.72647-3.61178 23.42068-4.25048 12.78269-10.864 23.32911-20.07495 32.01306-12.75102 12.02148-26.21514 17.7001-46.36032 19.55289-11.97439 1.10132-12.58447 1.10082-23.23491-.0187z" fill="#ede5c4"/><path d="m293.5 455.34515c-1.1-.23257-5.32058-1.12398-9.37906-1.98092l-7.37907-1.55808 5.87907-2.60108c18.39321-8.13771 35.53565-23.66736 43.46538-39.37608 8.00616-15.86009 10.3736-27.75347 9.60737-48.26479-.96227-25.7593-5.51171-40.89663-24.63388-81.96417-21.87943-46.98915-26.40339-76.12711-17.92435-115.44735 4.87877-22.62455 18.90137-55.96242 33.71389-80.15268 2.66506-4.352296 2.67943-3.836209.10005 3.59345-7.49385 21.58535-10.35506 39.59919-10.38875 65.40655-.0309 23.66817 1.27105 32.64395 7.41286 51.10512 5.13708 15.44112 10.39601 25.64171 25.78239 50.00941 46.87866 74.2426 56.75125 98.50047 51.86319 127.43265-3.01236 17.83003-10.60231 32.3193-24.11909 46.04357-18.3072 18.58821-43.07973 28.52538-70.5 28.28011-6.325-.0566-12.4-.29314-13.5-.52571zm-91-5.0229c-21.30461-1.81913-43.36677-10.05641-59.51339-22.22033-11.56068-8.70915-29.76661-29.15312-32.64766-36.66102-.41865-1.09099 2.29247-.13939 8.5348 2.9957 9.65445 4.84875 19.17294 7.86645 21.72433 6.88739 1.25618-.48204 1.08502-1.04804-.96909-3.20471-6.79542-7.13472-13.31066-22.27938-15.72545-36.55373-1.65856-9.80414-.61485-30.96733 2.02524-41.06555 2.36007-9.02717 8.17331-21.79206 13.79437-30.29008 4.57745-6.92028 18.89193-24.45399 33.23549-40.70992 15.60197-17.68211 19.9881-22.98247 27.72179-33.5 34.26531-46.59956 43.19982-90.06204 29.70465-144.5-1.36346-5.5-2.69601-10.9-2.96125-12-.79495-3.296929 4.60775 7.357674 8.62031 17 22.20318 53.35501 26.8874 115.67645 12.58967 167.5-4.26268 15.45054-7.657 24.17048-17.12738 44-17.4347 36.50557-19.70844 58.8029-8.3012 81.40531 12.23763 24.24773 42.30585 28.74119 64.07861 9.57605 2.48768-2.18975 4.84963-3.98136 5.24878-3.98136.98455 0-.30536 11.1222-2.14557 18.5-.8231 3.3-3.77236 10.69944-6.55391 16.44319-4.3851 9.055-6.20558 11.58441-13.69525 19.02839-13.34648 13.26506-26.17937 18.9182-47.69356 21.00996-9.86381.95903-12.22956.99945-19.94433.34071z" fill="#eae0ba"/><path d="m289.43782 454.60636c-12.80365-2.45181-12.73542-2.29773-3.11936-7.04441 19.96373-9.85449 35.98983-26.66345 43.60795-45.73813 5.0306-12.5959 6.40237-22.02644 5.78239-39.75222-.86895-24.84436-5.49111-41.12452-21.73967-76.5716-12.56201-27.40466-16.426-37.25836-19.91192-50.77812-9.99529-38.7656-4.4353-75.96798 18.41584-123.22188 6.55934-13.564075 17.78867-33.915788 16.00114-29-9.13678 25.12655-13.09176 50.19696-12.14713 77 1.21778 34.55304 8.35189 55.57538 30.71196 90.5 17.1065 26.71897 35.12372 57.38418 41.42201 70.5 10.70563 22.29389 13.81768 33.14246 13.91283 48.5.24324 39.26268-27.9678 73.07234-70.19843 84.12963-10.01047 2.62106-32.67262 3.40411-42.73761 1.47673zm-101.93782-6.58133c-22.45094-4.50614-43.62713-16.65564-60.69959-34.82544-6.54835-6.96924-16.80041-20.63746-16.80041-22.39857 0-.48693 1.92575.24323 4.27944 1.62259 9.36444 5.48793 24.32808 10.55503 26.74991 9.05825.5631-.34801-.47987-2.43181-2.40172-4.7985-4.55812-5.6132-10.10814-16.91059-12.70527-25.86236-3.31784-11.43592-3.74008-31.28257-.95306-44.79628 4.54551-22.04026 11.80132-34.48905 37.02552-63.52472 41.38533-47.6388 52.13861-62.58168 62.38131-86.68572 13.63135-32.07851 15.74653-68.4868 6.0893-104.81428-1.389-5.225-2.75009-10.4-3.02465-11.5-.84967-3.404198 4.67249 7.546881 8.32024 16.5 14.59008 35.81023 20.70415 66.8512 20.68162 105-.0236 40.00608-6.37673 67.94496-23.64884 104-13.15704 27.46495-16.1522 37.85452-16.14401 56 .005 10.95388.33212 13.42069 2.64505 19.9436 3.48094 9.81691 8.87279 17.44778 16.07416 22.74912 7.75446 5.70851 14.64773 7.66499 25.03964 7.10686 9.80016-.52635 18.61391-4.31707 26.47883-11.38832 6.17351-5.55051 6.85382-4.77417 5.09008 5.80862-2.84755 17.08594-10.69172 32.74926-21.92501 43.78012-11.75269 11.5409-23.98306 17.69804-39.65459 19.96331-11.00865 1.59126-32.65376 1.11783-42.89795-.93828z" fill="#e8deb2"/><path d="m295 455.40395c-1.375-.25509-5.84593-1.17459-9.93541-2.04334l-7.43541-1.57953 7.06933-3.27445c10.43063-4.83138 18.81653-10.87253 27.80149-20.02805 27.46734-27.98873 31.52505-70.36896 11.52561-120.37766-2.11178-5.28051-7.07314-16.55886-11.02524-25.06301-18.38423-39.5592-23.07733-56.61755-23.12057-84.03791-.0443-28.09477 6.59098-54.04663 22.11604-86.5 5.38516-11.25707 15.94582-30.695902 15.98599-29.425152.01.316166-1.04553 3.702243-2.3456 7.524615-6.37994 18.757797-9.59272 39.652457-9.61791 62.551167-.0224 20.30911 2.21155 34.83033 8.04259 52.28006 4.65965 13.94428 10.29007 24.90401 23.33494 45.42195 31.275 49.19164 44.07415 72.74252 51.19793 94.20593 2.5925 7.81101 2.80407 9.63633 2.83295 24.44143.03 15.39901-.0857 16.33003-3.08245 24.78629-10.40037 29.34832-34.16043 50.34156-66.37054 58.6418-8.24031 2.12345-30.74897 3.63069-36.97374 2.47586zm-104.84315-6.96104c-15.10778-2.75837-34.63078-11.03039-45.62647-19.33222-9.673-7.30319-21.29431-19.11925-27.63827-28.10145-3.51566-4.9777-6.51054-9.39638-6.65528-9.8193s4.04968 1.3491 9.32093 3.93783c9.98275 4.90256 18.37424 7.49604 20.99735 6.48945 1.23018-.47206.75725-1.62466-2.4014-5.85252-19.38424-25.94587-20.08941-68.50016-1.65691-99.9884 5.27452-9.01046 17.67905-24.5856 36.36403-45.65868 32.76678-36.95467 47.9746-60.47895 56.55713-87.48562 5.39454-16.97504 6.84716-26.67605 6.90774-46.132.057-18.288792-1.29352-28.871323-5.88788-46.13852-1.40237-5.270582-2.3515-9.781135-2.10918-10.023451.53131-.531314 8.92048 19.164754 12.38243 29.071443 11.27979 32.278128 17.31595 70.345988 15.87067 100.090528-1.77707 36.57318-8.69217 64.02025-24.3125 96.5-11.80718 24.55097-15.12799 35.15896-15.96543 51-1.48776 28.14247 12.80094 49.8483 35.52743 53.9694 11.03113 2.00032 23.10778-1.71561 34.41876-10.5905l5.75-4.5116v4.90639c0 6.39364-3.05073 18.17665-6.90951 26.68702-10.21169 22.52139-30.05982 37.46646-55.09049 41.48154-8.83106 1.41656-30.86191 1.14045-39.84315-.49934z" fill="#e7dcae"/></g></svg>