<svg height="455.85864" viewBox="0 0 151.34381 120.6126" width="572.00812" xmlns="http://www.w3.org/2000/svg"><path d="m264.06055 0v4.0058594l-.24805 164.1406206v.082l-.22852 152.64062v.0176c-.16002 9.29323-.36469 14.23681-.63476 15.49805l-16.63867 9.6914c-41.09474 23.93767-69.92114 36.3496-95.0293 39.87305-.0797.01-.15849.0215-.23828.0312-.0773.0107-.15325.0188-.23047.0293-4.86647.58764-9.83556.90427-14.66602.95312-1.32524.007-2.64186-.007-3.94921-.0352-4.61995-.1839-9.18522-.66785-13.75586-1.45312-30.813271-5.29398-64.12114-25.53254-78.414066-47.64649-5.042441-7.80163-7.668083-15.49114-7.84961-24.07421.01791-1.12836.05186-2.33596.117188-3.75391.04252-.92308.112831-1.77549.177734-2.64062.99297-8.95545 4.379904-19.01881 10.210938-31.16797.796143-1.6588 1.484591-3.22486 2.070312-4.65625l1.628906-3.44336c.113527-.1.180535-.2467.205079-.43555l.728515-1.53906-.728515-.99219c-.003-.0113.0014-.0344-.002-.0449-.313255-.98699-2.407305-3.77174-4.652344-6.1875l-4.081985-4.39249-6.453124 7c-17.079432 18.52891-25.619703 31.28627-29.4589849 44-.719994 2.38424-1.22004719 5.18233-1.5097656 8.18359-.60298958 4.6194-.55589272 9.26145.0859375 14.01953.45493267 4.47081 1.3071311 8.76089 2.546875 12.29688 1.9120488 5.45351 4.2828564 10.77867 7.064453 15.95898.4184.77921.843813 1.55577 1.28125 2.32813.254299.45216.513552.90299.775391 1.35351.226537.38806.454209.77587.685547 1.16211.371681.62214.750795 1.24258 1.136718 1.86133.188097.30162.379277.60188.570313.90235.358892.56377.721202 1.12675 1.091797 1.6875.332632.50482.672717 1.00638 1.013672 1.50781.229621.33623.457607.67276.691406 1.00781.571637.82337 1.155987 1.64126 1.75 2.45508 13.898663 19.04174 33.881418 35.44054 58.511719 47.66797 11.390105 5.65448 22.773044 10.59146 34.408204 14.87695.0711.0322.47104.20288.51758.22461.33244.15529 1.36665.50478 2.68164.92969 33.58073 11.97604 69.4492 18.62028 113.81836 21.45703 3.4758.22222 13.93287.30196 27.375.29102 27.25585.42807 58.91332.0933 83.57226-.83399 12.09095-.24043 20.98752-.51054 23.55274-.7793 33.07387-3.46517 62.28456-9.61569 89.55664-18.93164 3.2722-.9878 5.65268-1.76348 6.44336-2.13281.18422-.0861 1.49957-.65227 2.04687-.89258 11.21471-4.16635 22.13503-8.87629 32.87696-14.20898 8.9978-4.46685 17.37158-9.49296 25.06054-14.99805 1.20376-.86186 2.39479-1.73394 3.56446-2.61914.24689-.18659.48714-.37681.73242-.56445.84078-.64379 1.6754-1.29159 2.49804-1.94727.36812-.29365.73139-.59059 1.09571-.88672.81244-.6593 1.61411-1.32526 2.4082-1.99609.19487-.16518.3922-.32821.58594-.49414 18.21698-15.54254 31.51643-34.10621 38.62695-54.38672 1.92944-5.50312 2.93193-12.82547 2.93555-19.82812.0188-1.48863-.0278-2.95376-.13672-4.39454-.0143-.22903-.0341-.4525-.0508-.67968-.0152-.16872-.024-.33982-.041-.50782-.27227-3.3429-.79042-6.46845-1.58203-9.08984-.67442-2.23334-1.5048-4.46924-2.49023-6.73633-.12226-.28126-.24565-.56339-.37305-.8457-.86797-1.99615-1.8459-3.97023-2.95703-5.91797-.3966-.6952-.85588-1.45036-1.36719-2.25-4.92712-8.17279-12.06709-17.17746-22.27344-28.25l-6.45312-7-4.08203 4.39258c-2.24504 2.41576-4.33707 5.20051-4.65039 6.1875-.003.0101.00089.0322-.002.043l-.73047.99414.72852 1.53906c.0243.18717.0914.33371.20313.43359l1.64062 3.46875c.58383 1.42527 1.27069 2.98304 2.0625 4.63282 5.7003 11.87676 9.00869 21.52088 10.13086 30.00976.10989 1.21603.19468 2.47088.25586 3.79883.12123 2.63136.0946 5.06326-.0879 7.36914-.28472 2.50579-.79201 4.94214-1.52149 7.34375-9.54433 31.4227-58.33372 61.5092-100.41601 62.24805-.60702.004-1.21637.005-1.82617.002-4.48979-.0454-9.0966-.3282-13.63282-.83984-25.2682-3.16349-53.82108-15.16934-96.52929-40.04688l-16.64063-9.69336c-.26938-1.26139-.47299-6.19557-.63281-15.44726l-.23042-152.70711-.24609-164.1914106v-4.0371094h-.006-21.99414-21.99414zm-16 43.923828-2.44922.076172h-6.55078-.28321-8.55859-.72461l-23.83789 125.71289-23.83789 125.71484.11328.0762-.0312.16015 2.58789 1.51953c1.68956 1.09293 14.85639 8.98909 30.00781 17.99219 7.79509 4.6319 14.45848 8.4605 19.64844 11.31641 3.05409 1.84365 5.4328 3.29682 5.91602 3.64453 1.375.9894 3.7375 1.81313 5.25 1.83203l2.38672.0254.36328.006v-.002-143.99817-.0371-.002-143.9609zm76 .002v.074172 143.96094.00195.03711 144h1.66601.70117.0996c.0455 0 .15113-.0355.25196-.0684 1.7732-.34842 7.52709-3.22858 13.39843-6.74023 1.92902-1.15374 5.40275-3.20771 8.45313-5.01563 15.87483-8.95519 35.12362-20.18371 39.7793-23.41406l1.8164-1.06445-.60547-3.09961c-.15619-.80007-7.32044-38.54952-11.19726-58.96289-3.52953-19.10395-7.4666-40.2185-11.98242-64.03321l-23.8164-125.60152h-.72461-.11328-8.44531-6.91016zm-171.79297 43.763625c-.46722-.01834-.99258.03681-1.63086.111328-.41081.04796-.96183.216255-1.57813.441407-1.35514.154831-2.79889.904194-4.50781 2.009765-1.51517.867336-3.38173 2.064782-5.69726 3.626953-.95861.619883-1.94695 1.270241-2.98829 1.97461l-11.30468 7.646484.008 2.13867c-.27976.46526-.35643.82056-.2168 1.05664.0328.0554.0751.34556.12891.8418-.00085.054-.004.10561-.004.16016-.011.47232-.001 1.00713.0176 1.56445.0208.87139.0807 1.8765.16602 2.96484.35896 12.28216 2.80429 54.91493 3.75781 66.08203l.0996 2.4336.0332.0195.01.1914 1.52929.95704c3.08887 2.04325 13.52261 8.69982 26.28125 16.7539 14.95401 9.43998 27.63946 17.19545 28.18946 17.23438.11891.008.26273-.007.41211-.0273.05.0234.20153.11104.21484.11133.3084.008.61789-.13375.94336-.45312.19926-.0885.38941-.18698.55469-.29492.97996-.63995 7.24066-19.9689 10.30078-31.80079 1.57219-6.07891 3.11881-22.78471 2.16601-23.39843-.51862-.33407-14.66514-22.94292-24.23828-38.56055l-4.23047-6.94141c-1.53378-2.53643-2.84541-4.72592-3.5957-6.0332-.94699-1.64999-4.25667-7.07427-7.35351-12.052734-.92192-1.482062-1.65486-2.645272-2.31836-3.679688l-2.85547-4.685547-.92578-.01172c-.43632-.251016-.86969-.361325-1.36719-.380859zm267.58398 0c-.49602.01947-.92633.129527-1.36133.378906l-.92968.01367-2.82617 4.636719c-.67078 1.044598-1.41253 2.222059-2.34961 3.728516-3.09684 4.978464-6.40652 10.402744-7.35352 12.052734-.84849 1.47837-2.42908 4.11005-4.25391 7.11914l-3.42187 5.61133c-9.5739 15.62354-23.86559 38.469-24.38672 38.80469-.95282.61372.59189 17.31952 2.16406 23.39843 1.82005 7.03714 4.75836 16.6621 7.0586 23.49414.0766.27417.33826 1.16713.39648 1.37891.61566 2.23953 1.5328 4.6017 2.21289 5.77344.28552.65257.50789 1.07144.63477 1.1543.18952.1238.3946.23601.60156.33984.1976.25402.36736.42578.45508.42578.007 0 .12012-.0672.14453-.0781.0824.0374.16631.0762.22266.0762.006 0 .0977-.0536.11523-.0606.0931.0219.18832.0455.25586.0469.36877.008 13.30624-7.89291 28.75-17.5586 9.97655-6.24398 16.39895-10.29161 20.56055-13.07812l7.17187-4.47461.0781-1.60157c.20481-.45031.26953-.86519.26953-1.3164 0-1.59364.72133-15.62257 1.60351-31.17578.65713-11.58503 1.25971-23.44587 1.5586-30.46289.12547-1.88336.23319-3.65342.27929-5.06446.10178-1.32374.16394-2.52594.14453-3.49218.00069-.63921-.0498-1.23747-.13476-1.78125l.0488-2.47852-11.30664-7.646484c-1.30397-.882013-2.52054-1.67506-3.69336-2.423828-1.49282-.984742-2.75988-1.781676-3.89258-2.460938-2.22414-1.516473-3.97209-2.540156-5.60938-2.726562-.61554-.224782-1.16574-.393493-1.57617-.441407-.63828-.07452-1.16364-.129667-1.63086-.111328zm-370.957029 48.783207c-.331221.0188-.892337.3242-1.65625.87304-1.203832.37977-2.644692 1.58265-4.623047 3.82422-.252837.28648-.856497.92372-1.28125 1.38281-3.152321 3.0218-7.359283 7.24651-12.970703 13.00977-4.823932 4.95447-9.090404 9.46988-12.447265 13.12109l-3.816407 3.86914-3.1230465 3.16016.00195.004-.042969.043.072266.13476-.015625.0156.2988281.55468c-.0001914.007-.013252.0275-.011719.0332.15408.57751 9.1455761 17.46369 19.9804691 37.52539 10.834888 20.06165 29.57262 54.92658 41.638672 77.47656l21.9375 41 4.861328.59375c8.590254 1.04757 9.442824.94749 12.679684-1.49023 2.70043-2.03377 61.24157-35.88197 63.63086-36.79102.0392-.0149.0964-.14993.16211-.3418l.39063-.2207.0195-.11914.006-.002.13867-.83985 1.18555-6.93359c3.32843-17.54098 9.6655-56.71161 9.35546-59.36524-.0337-.2888-.12841-.58617-.28515-.90039l.008-1.58984-7.88086-5.07227c-1.64099-1.1202-3.52445-2.37386-5.8418-3.88476-18.02314-11.75101-120.29736-77.92751-122.123042-79.01953-.06539-.0391-.147233-.0565-.248047-.0508zm474.332029 0c-.10075-.006-.18461.0117-.25.0508-1.8257 1.09202-104.09991 67.26852-122.12304 79.01953-2.28642 1.49074-4.14419 2.73001-5.77149 3.83984l-7.95117 5.11524.008 1.59179c-.15675.31422-.25139.61159-.28515.90039-.31001 2.65343 6.02684 41.81837 9.35546 59.36133l1.17774 6.88477.15234.91601.006.004.0156.0918.38867.21875c.0662.19379.12469.33072.16406.3457 2.6462 1.00679 60.96861 34.79916 63.44727 36.76172 2.71997 2.15354 3.6533 2.3196 10 1.78125 1.84626-.15662 3.57624-.36354 4.93945-.57617.004-.00055.008-.001.0117-.002.002-.00035.004-.002.006-.002 1.47083-.22997 2.50463-.46461 2.68945-.64453.35634-.34704 15.71494-28.75587 34.12891-63.13086s37.13439-69.21695 41.60156-77.42578c4.40364-8.09212 8.00166-14.98006 8.10352-15.50781l.0859-.15821-.0137-.0137.0723-.13476-.0449-.0449.002-.002-1.95703-1.98047-1.59961-1.62109c-3.46587-3.73123-9.13188-9.67053-15.85938-16.58008-5.60879-5.76056-9.81224-9.98049-12.96094-12.99805-.41621-.45005-1.01258-1.08099-1.26171-1.36328-1.97634-2.23929-3.41604-3.4412-4.61914-3.82226-.7651-.54979-1.32662-.85639-1.65821-.875z" fill="#faf5e8" transform="scale(.26458333)"/></svg>