<svg height="512" viewBox="0 0 512 512" width="512" xmlns="http://www.w3.org/2000/svg"><g transform="translate(-1.515846 3.999533)"><path d="m239.5 487.41375c-6.6-4.65306-14.1375-10.0334-16.75-11.95632l-4.75-3.49621.0483-28.73061.0483-28.73061 37.12602-25.5c20.41931-14.025 38.05245-25.5 39.18475-25.5 1.61697 0 2.21094.85833 2.76807 4 1.10031 6.2048.97187 73.3563-.14431 75.44189-.5329.99572-9.7579 7.79673-20.5 15.11334l-19.53113 13.30294v11.12091c0 11.28973-.67547 13.59109-3.95 13.45785-.8525-.0347-6.95-3.87012-13.55-8.52318zm-119.71452-139.21741-65.714514-41.69634-.035483-10.75c-.01952-5.9125.174743-10.75.431686-10.75.256944 0 5.940853 2.25 12.63091 5 6.690056 2.75 12.32983 5 12.53283 5s.369091-3.54375.369091-7.875c0-9.70373.823883-14.125 2.63213-14.125.760171 0 24.99427 15.7457 53.85355 34.99045 38.11568 25.41736 52.62311 35.60865 53.02585 37.25.30494 1.24275.42709 11.70955.27145 23.25955-.2717 20.16319-.36268 21.00782-2.28298 21.19634-1.15445.11333-29.78257-17.4319-67.71452-41.5zm204.93909 41.1949c-1.34349-1.3435-.85368-43.84547.52543-45.5921.6875-.87072 24.34107-16.95298 52.5635-35.73837 35.68901-23.75529 51.86049-33.98163 53.10994-33.58507 1.83125.58122 3.07656 7.35648 3.07656 16.73838 0 4.62384-.83125 4.72815 14.93208-1.87377 7.93672-3.32401 10.62407-4.06666 11.23469-3.10471.44143.69542.80894 5.3144.81669 10.2644l.0141 9-66.01632 41.84821c-36.30898 23.01652-66.80737 42.05507-67.7742 42.3079-.96683.25284-2.08393.13364-2.48245-.26487zm-105.89504-128.64124c-.18124-66.6875-.1892-129.6875-.0177-140l.31184-18.75h2.37915c1.30852 0 2.64654.43267 2.97337.96149.4859.7862 28.27007 20.10209 32.14534 22.34782 1.08027.62602 32.53221-18.7595 33.21179-20.47021.18335-.4615 1.58568-.8391 3.11632-.8391h2.78297l.38369 9.75c.21104 5.3625.1587 57.19079-.1163 115.17398l-.5 105.42399-36.5 23.76561c-20.075 13.07109-37.25171 23.79279-38.17047 23.82602-1.55003.056-1.69423-8.68179-2-121.1896zm-85.82953 28.83956-52.5-34.27407-.279877-12.65774c-.267473-12.09678-.190974-12.65775 1.726156-12.65775 2.189953 0 103.456401 65.92665 106.303721 69.20602 1.4107 1.62476 1.75 3.91706 1.75 11.82298 0 10.92492-.45998 13.00229-2.85699 12.90282-.90365-.0375-25.26801-15.49152-54.14301-34.34226zm193-93.39339v-114.803836l3.25-3.096418c1.7875-1.703029 23.725-17.128881 48.75-34.279671 25.025-17.150789 46.64962-32.270676 48.05472-33.599749 2.81219-2.6600421 5.23082-3.0892803 6.57284-1.166496.48813.699374.75692 52.609025.6102 117.84234l-.26224 116.59235-47.07652 30.80717c-25.89208 16.94394-47.30972 31.41489-47.59475 32.15765-.28502.74277-1.31498 1.35049-2.28879 1.35049-.97382 0-2.33077.675-3.01546 1.5s-2.53979 1.5-4.12244 1.5h-2.87756zm-148.5 80.82363c-1.1-.46939-23.15-15.21815-49-32.77502l-47-31.92159-.5-87.9116c-.591867-104.063947-.454209-114.41159 1.522052-114.41159.775975 0 24.825958 15.514999 53.444408 34.477775l52.03354 34.477775v99.52222 99.52223l-4.25-.0634c-2.3375-.0349-5.15-.44743-6.25-.91681z" fill="#fbf9f5"/><path d="m239.5 487.41375c-6.6-4.65306-14.1375-10.0334-16.75-11.95632l-4.75-3.49621.0471-28.73061.04711-28.73061 37.15168-25.5c20.43342-14.025 38.07472-25.5 39.20289-25.5 1.85637 0 2.11304.80742 2.70197 8.5 1.02592 13.4004.95856 68.92724-.086 70.87899-.51438.96113-9.73938 7.76861-20.5 15.12775l-19.56475 13.38024v11.10651c0 11.27497-.67629 13.57665-3.95 13.44344-.8525-.0347-6.95-3.87012-13.55-8.52318zm-119.70693-139.22113-65.706936-41.69262-.043067-10.75c-.023687-5.9125.189271-10.75.473239-10.75s5.90163 2.25 12.483694 5 12.199726 5 12.483694 5 .516306-3.54375.516306-7.875c0-9.70373.823883-14.125 2.63213-14.125.760171 0 24.99427 15.7457 53.85355 34.99045 38.11568 25.41736 52.62311 35.60865 53.02585 37.25.30494 1.24275.42709 11.70955.27145 23.25955-.27172 20.16463-.36254 21.00766-2.28298 21.19262-1.15057.11082-29.9068-17.5149-67.70693-41.5zm204.9315 41.19862c-1.34349-1.3435-.85368-43.84547.52543-45.5921.6875-.87072 24.34107-16.95298 52.5635-35.73837 35.68901-23.75529 51.86049-33.98163 53.10994-33.58507 1.83125.58122 3.07656 7.35648 3.07656 16.73838 0 4.62384-.83125 4.72815 14.93208-1.87377 7.93672-3.32401 10.62407-4.06666 11.23469-3.10471.44143.69542.80894 5.3144.81669 10.2644l.0141 9-66.01632 41.84821c-36.30898 23.01652-66.80737 42.05507-67.7742 42.3079-.96683.25284-2.08393.13364-2.48245-.26487zm-105.72457-147.39124c0-126.92365.14756-140 1.57988-140 .86893 0 9.08143 5.10017 18.25 11.33371 9.16856 6.23354 17.17296 11.62322 17.78753 11.97707.61458.35385 8.86237-4.29632 18.32844-10.33371 9.46606-6.03739 18.07761-10.97707 19.13678-10.97707 1.89135 0 1.92123 2.05822 1.67157 115.14838l-.2542 115.14838-36.74956 23.85162c-20.21226 13.11839-37.42476 23.85162-38.25 23.85162-1.32677 0-1.50044-16.20412-1.50044-140zm-86 47.55438-52.5-34.29204-.279877-12.63117c-.266697-12.03636-.186183-12.63117 1.709763-12.63117 2.167398 0 103.463534 65.94705 106.320114 69.21783 1.4115 1.61616 1.75 3.90076 1.75 11.81117 0 10.92711-.46067 13.00621-2.85699 12.89421-.90365-.04223-25.26801-15.50821-54.14301-34.36883zm193-93.35821v-114.803836l3.25-3.089989c1.7875-1.699494 24.3002-17.518329 50.02823-35.152967 25.72802-17.634638 47.47267-32.757418 48.32143-33.606178 1.86685-1.8668542 3.84888-1.9824356 5.0279-.2932.49144.7041266.65409 52.22028.37244 117.96727l-.5 116.71727-46 30.07723c-25.3 16.54248-46.74713 30.95721-47.66029 32.03273-.91316 1.07553-2.32056 1.9555-3.12756 1.9555-.80699 0-2.02746.675-2.71215 1.5s-2.53979 1.5-4.12244 1.5h-2.87756zm-148.5 80.81705c-1.1-.473-23.15-15.22945-49-32.7921l-47-31.93209-.254761-101.14451c-.221744-88.036455-.065908-101.14452 1.202461-101.14452.801471 0 24.87861 15.52802 53.50476 34.506712l52.04754 34.506711v99.493287 99.49329l-4.25-.0634c-2.3375-.0349-5.15-.45039-6.25-.92339z" fill="#f6f2e9"/><path d="m239.5 487.41375c-6.6-4.65306-14.1375-10.0334-16.75-11.95632l-4.75-3.49621.0471-28.73061.04711-28.73061 37.15168-25.5c20.43342-14.025 38.07472-25.5 39.20289-25.5 1.85637 0 2.11304.80742 2.70197 8.5 1.02592 13.4004.95856 68.92724-.086 70.87899-.51438.96113-9.73938 7.76861-20.5 15.12775l-19.56475 13.38024v11.10651c0 11.27497-.67629 13.57665-3.95 13.44344-.8525-.0347-6.95-3.87012-13.55-8.52318zm-119.70693-139.22113-65.706936-41.69262-.043067-10.75c-.023687-5.9125.189271-10.75.473239-10.75s5.90163 2.25 12.483694 5 12.199726 5 12.483694 5 .516306-3.54375.516306-7.875c0-9.70373.823883-14.125 2.63213-14.125.760171 0 24.99427 15.7457 53.85355 34.99045 38.11568 25.41736 52.62311 35.60865 53.02585 37.25.30494 1.24275.42709 11.70955.27145 23.25955-.27172 20.16463-.36254 21.00766-2.28298 21.19262-1.15057.11082-29.9068-17.5149-67.70693-41.5zm204.9315 41.19862c-1.34349-1.3435-.85368-43.84547.52543-45.5921.6875-.87072 24.34107-16.95298 52.5635-35.73837 35.68901-23.75529 51.86049-33.98163 53.10994-33.58507 1.83125.58122 3.07656 7.35648 3.07656 16.73838 0 4.62384-.83125 4.72815 14.93208-1.87377 7.93672-3.32401 10.62407-4.06666 11.23469-3.10471.44143.69542.80894 5.3144.81669 10.2644l.0141 9-66.01632 41.84821c-36.30898 23.01652-66.80737 42.05507-67.7742 42.3079-.96683.25284-2.08393.13364-2.48245-.26487zm-105.72457-147.39124c0-126.92365.14756-140 1.57988-140 .86893 0 9.08143 5.10017 18.25 11.33371 9.16856 6.23354 17.17296 11.62322 17.78753 11.97707.61458.35385 8.86237-4.29632 18.32844-10.33371 9.46606-6.03739 18.07761-10.97707 19.13678-10.97707 1.89135 0 1.92123 2.05822 1.67157 115.14838l-.2542 115.14838-36.74956 23.85162c-20.21226 13.11839-37.42476 23.85162-38.25 23.85162-1.32677 0-1.50044-16.20412-1.50044-140zm-86 47.55438-52.5-34.29204-.279877-12.63117c-.266697-12.03636-.186183-12.63117 1.709763-12.63117 2.167398 0 103.463534 65.94705 106.320114 69.21783 1.4115 1.61616 1.75 3.90076 1.75 11.81117 0 10.92711-.46067 13.00621-2.85699 12.89421-.90365-.04223-25.26801-15.50821-54.14301-34.36883zm193-93.35821v-114.803836l3.25-3.088764c1.7875-1.698819 22.825-16.476194 46.75-32.838609 23.925-16.362416 45.8373-31.481296 48.69399-33.597512 4.95159-3.6680933 7.7432-4.1751812 8.47869-1.54013.18003.644974.10232 53.470438-.17268 117.389921l-.5 116.21724-46 30.07726c-25.3 16.5425-46.74713 30.95724-47.66029 32.03276-.91316 1.07553-2.32056 1.9555-3.12756 1.9555-.80699 0-2.02746.675-2.71215 1.5s-2.53979 1.5-4.12244 1.5h-2.87756zm-148.5 80.81705c-1.1-.473-23.15-15.22945-49-32.7921l-47-31.93209-.254761-101.14451c-.221744-88.036455-.065908-101.14452 1.202461-101.14452.801471 0 24.87861 15.52802 53.50476 34.506712l52.04754 34.506711v99.493287 99.49329l-4.25-.0634c-2.3375-.0349-5.15-.45039-6.25-.92339z" fill="#f3eee1"/><path d="m235 484.17275-16.5-11.6763-.20702-28.99823-.20702-28.99822 37.14667-25.5c20.43066-14.025 38.07382-25.5 39.20702-25.5 1.86783 0 2.12116.79423 2.7111 8.5 1.02592 13.4004.95856 68.92724-.086 70.87899-.51438.96113-9.73938 7.76861-20.5 15.12775l-19.56475 13.38024v11.10651c0 11.27776-.68009 13.59026-3.95 13.43103-.8525-.0415-8.975-5.32981-18.05-11.75177zm-115.20795-135.98453-65.707955-41.68822-.042047-10.75c-.02313-5.9125.19029-10.75.474258-10.75s5.90163 2.25 12.483694 5 12.199726 5 12.483694 5 .516306-3.54375.516306-7.875c0-9.70373.823883-14.125 2.63213-14.125.760171 0 24.99427 15.7457 53.85355 34.99045 38.11568 25.41736 52.62311 35.60865 53.02585 37.25.30494 1.24275.42709 11.70955.27145 23.25955-.27175 20.16633-.36238 21.00747-2.28298 21.18822-1.14583.10783-30.06284-17.61617-67.70795-41.5zm204.93252 41.20302c-1.34349-1.3435-.85368-43.84547.52543-45.5921.6875-.87072 24.34107-16.95298 52.5635-35.73837 35.68901-23.75529 51.86049-33.98163 53.10994-33.58507 1.83125.58122 3.07656 7.35648 3.07656 16.73838 0 4.62384-.83125 4.72815 14.93208-1.87377 7.93672-3.32401 10.62407-4.06666 11.23469-3.10471.44143.69542.80894 5.3144.81669 10.2644l.0141 9-66.01632 41.84821c-36.30898 23.01652-66.80737 42.05507-67.7742 42.3079-.96683.25284-2.08393.13364-2.48245-.26487zm-105.72457-147.39124c0-125.9104.15632-140 1.55324-140 .85428 0 9.06678 5.10255 18.25 11.33901 9.18322 6.23645 17.1996 11.62614 17.81417 11.97707.61458.35094 8.86237-4.30162 18.32844-10.33901 9.46606-6.03739 18.07761-10.97707 19.13678-10.97707 1.89135 0 1.92123 2.05822 1.67157 115.14838l-.2542 115.14838-36.74956 23.85162c-20.21226 13.11839-37.42476 23.85162-38.25 23.85162-1.32677 0-1.50044-16.20412-1.50044-140zm-86 47.55438-52.5-34.29204-.279877-12.63117c-.2658-11.99586-.180774-12.63117 1.690484-12.63117 2.157065 0 103.504013 65.96637 106.339393 69.21593 1.41137 1.61755 1.75 3.90338 1.75 11.81307 0 10.92711-.46067 13.00621-2.85699 12.89421-.90365-.04223-25.26801-15.50821-54.14301-34.36883zm193-93.35821v-114.803836l3.25-3.089277c5.59909-5.322193 100.97032-70.1557424 102.39568-69.608781 1.12843.433021 1.35432 20.067871 1.35432 117.722484v117.20279l-47.08504 30.83006c-25.89678 16.95653-47.31992 31.44214-47.60699 32.19023s-1.3187 1.36016-2.29251 1.36016c-.97382 0-2.33077.675-3.01546 1.5s-2.53979 1.5-4.12244 1.5h-2.87756zm-148.5 80.81705c-1.1-.473-23.15-15.22945-49-32.7921l-47-31.93209-.254761-101.14451c-.221744-88.036455-.065908-101.14452 1.202461-101.14452.801471 0 24.87861 15.52802 53.50476 34.506712l52.04754 34.506711v99.493287 99.49329l-4.25-.0634c-2.3375-.0349-5.15-.45039-6.25-.92339z" fill="#ece3cc"/><path d="m235 484.17223-16.5-11.67682v-28.98067-28.98066l37-25.71027c22.16211-15.39983 37.80205-25.63278 39-25.51704 1.77031.17104 2.07473 1.1694 2.65075 8.69323 1.02781 13.42504.95855 68.92725-.0885 70.88358-.51573.96366-9.74073 7.75839-20.5 15.0994l-19.56225 13.34729v11.13487c0 11.3068-.67848 13.61869-3.95 13.45938-.8525-.0415-8.975-5.33004-18.05-11.75229zm-115.20647-135.98543-65.706465-41.6868-.043533-10.75c-.023942-5.9125.122559-10.75.325559-10.75s5.842774 2.25 12.53283 5c6.690057 2.75 12.373966 5 12.63091 5 .256943 0 .467169-3.54375.467169-7.875 0-9.70373.823883-14.125 2.63213-14.125.760171 0 24.99427 15.7457 53.85355 34.99045 38.11568 25.41736 52.62311 35.60865 53.02585 37.25.30494 1.24275.42709 11.70955.27145 23.25955-.27175 20.16688-.36232 21.00741-2.28298 21.1868-1.14432.10688-30.11188-17.6485-67.70647-41.5zm204.93104 41.20444c-1.34349-1.3435-.85368-43.84547.52543-45.5921.6875-.87072 24.34107-16.95298 52.5635-35.73837 35.68901-23.75529 51.86049-33.98163 53.10994-33.58507 1.83125.58122 3.07656 7.35648 3.07656 16.73838 0 4.62384-.83125 4.72815 14.93208-1.87377 7.93672-3.32401 10.62407-4.06666 11.23469-3.10471.44143.69542.80894 5.3144.81669 10.2644l.0141 9-66.01632 41.84821c-36.30898 23.01652-66.80737 42.05507-67.7742 42.3079-.96683.25284-2.08393.13364-2.48245-.26487zm-105.72457-147.39124c0-125.9104.15632-140 1.55324-140 .85428 0 9.06678 5.10255 18.25 11.33901 9.18322 6.23645 17.1996 11.62614 17.81417 11.97707.61458.35094 8.86237-4.30162 18.32844-10.33901 9.46606-6.03739 18.07761-10.97707 19.13678-10.97707 1.89135 0 1.92123 2.05819 1.67157 115.14609l-.2542 115.14608-36.76684 23.85392c-20.22176 13.11965-37.43426 23.85391-38.25 23.85391-1.30382 0-1.48316-16.92862-1.48316-140zm-86 47.55438-52.5-34.29204-.279877-12.63117c-.265604-11.98702-.179607-12.63117 1.686323-12.63117 2.149813 0 103.502834 65.97202 106.343554 69.22042 1.41168 1.61427 1.75 3.89718 1.75 11.80858 0 10.92711-.46067 13.00621-2.85699 12.89421-.90365-.04223-25.26801-15.50821-54.14301-34.36883zm193-93.47646v-114.922074l4.14078-3.544352c7.95827-6.81198 99.11371-68.7091321 100.72924-68.3980353 1.49384.2876614 1.6512 10.0908443 1.88409 117.3684913l.25411 117.05461-18.25411 11.90788c-10.03976 6.54933-31.50037 20.6936-47.69025 31.43171-16.18988 10.73812-30.29027 20.03423-31.33419 20.65803-1.04392.62381-2.40016 1.63631-3.01385 2.25-.6137.6137-2.37582 1.11582-3.91582 1.11582h-2.8zm-148.5 80.92806c-1.1-.47699-23.15-15.2308-49-32.78625l-47-31.91901-.254761-101.15036c-.221744-88.041569-.065909-101.15036 1.202461-101.15036.801471 0 24.87861 15.52802 53.50476 34.506712l52.04754 34.506711v99.493287 99.49329l-4.25-.0634c-2.3375-.0349-5.15-.45364-6.25-.93063z" fill="#e1d2ac"/><path d="m235 484.17223-16.5-11.67682v-28.98048-28.98047l37.38512-25.81453c20.56182-14.198 38.11182-25.67624 39-25.50721 1.28435.24443 1.74672 2.14738 2.25899 9.29731 1.00323 14.00218.9623 68.42263-.0529 70.31952-.49982.93393-9.72482 7.73254-20.5 15.10801l-19.59121 13.40995v11.12624c0 11.29798-.67897 13.61005-3.95 13.45077-.8525-.0415-8.975-5.33004-18.05-11.75229zm-115.20067-135.98809-65.700664-41.68414-.049333-10.75c-.027133-5.9125.116758-10.75.319758-10.75s5.842774 2.25 12.53283 5c6.690057 2.75 12.373966 5 12.63091 5 .256943 0 .467169-3.54375.467169-7.875 0-9.70373.823883-14.125 2.63213-14.125.760171 0 24.99427 15.7457 53.85355 34.99045 38.11568 25.41736 52.62311 35.60865 53.02585 37.25.30494 1.24275.42709 11.70955.27145 23.25955-.27177 20.16791-.36223 21.0073-2.28298 21.18414-1.14152.10511-30.2014-17.70838-67.70067-41.5zm204.92524 41.2071c-1.34349-1.3435-.85368-43.84547.52543-45.5921.6875-.87072 24.34107-16.95298 52.5635-35.73837 35.68901-23.75529 51.86049-33.98163 53.10994-33.58507 1.83125.58122 3.07656 7.35648 3.07656 16.73838 0 4.62384-.83125 4.72815 14.93208-1.87377 7.93672-3.32401 10.62407-4.06666 11.23469-3.10471.44143.69542.80894 5.3144.81669 10.2644l.0141 9-66.01632 41.84821c-36.30898 23.01652-66.80737 42.05507-67.7742 42.3079-.96683.25284-2.08393.13364-2.48245-.26487zm-105.72457-147.39124c0-123.40752.17672-140 1.49113-140 .82012 0 9.50409 5.4346 19.29771 12.07688l17.80659 12.07688 17.24006-11.07688c9.48204-6.09228 18.12495-11.07688 19.20649-11.07688 1.94531 0 1.96369 1.23578 1.71222 115.13288l-.2542 115.13287-36.76734 23.86713c-20.22203 13.12691-37.43453 23.86712-38.25 23.86712-1.30315 0-1.48266-16.94987-1.48266-140zm-86 47.52106-52.5-34.31887-.279877-12.6011c-.265436-11.9509-.178575-12.60109 1.683401-12.60109 2.123658 0 104.783276 66.99458 106.846476 69.72688 1.29884 1.72006 1.80715 19.65765.64301 22.69133-.33384.86999-1.34634 1.54578-2.25 1.50176-.90365-.04402-25.26801-15.52352-54.14301-34.39891zm193-93.47129v-114.950227l4.35055-3.636612c2.39281-2.000136 25.54824-18.185522 51.45651-35.967525 34.94728-23.985868 47.63341-32.192981 49.14945-31.7965281 2.04326.5343241 2.04349.5477331 2.04349 117.2008521v116.66647l-18.25 11.943c-10.0375 6.56865-31.49868 20.72875-47.6915 31.4669-16.19283 10.73814-30.29321 20.03428-31.33419 20.65808-1.04097.62381-2.3948 1.63631-3.00849 2.25-.6137.6137-2.37582 1.11582-3.91582 1.11582h-2.8zm-148.5 80.94479c-1.1-.48327-23.15-15.24447-49-32.80267l-47-31.92399-.254761-101.13395c-.222204-88.210134-.067802-101.13395 1.20826-101.13395.804661 0 24.881801 15.546955 53.504761 34.54879l52.04174 34.548789v99.451211 99.45121l-4.25-.0634c-2.3375-.0349-5.15-.45878-6.25-.94205z" fill="#d7c493"/><path d="m235 484.17223-16.5-11.67682v-28.98048-28.98047l37.38512-25.81453c20.56182-14.198 38.11182-25.67624 39-25.50721 1.28435.24443 1.74672 2.14738 2.25899 9.29731 1.00323 14.00218.9623 68.42263-.0529 70.31952-.49982.93393-9.72482 7.73254-20.5 15.10801l-19.59121 13.40995v11.12624c0 11.29798-.67897 13.61005-3.95 13.45077-.8525-.0415-8.975-5.33004-18.05-11.75229zm-115.20067-135.98809-65.700664-41.68414-.049333-10.75c-.027133-5.9125.116758-10.75.319758-10.75s5.842774 2.25 12.53283 5c6.690057 2.75 12.373966 5 12.63091 5 .256943 0 .467169-3.54375.467169-7.875 0-9.70373.823883-14.125 2.63213-14.125.760171 0 24.99427 15.7457 53.85355 34.99045 38.11568 25.41736 52.62311 35.60865 53.02585 37.25.30494 1.24275.42709 11.70955.27145 23.25955-.27177 20.16791-.36223 21.0073-2.28298 21.18414-1.14152.10511-30.2014-17.70838-67.70067-41.5zm204.92524 41.2071c-1.34349-1.3435-.85368-43.84547.52543-45.5921.6875-.87072 24.34107-16.95298 52.5635-35.73837 35.68901-23.75529 51.86049-33.98163 53.10994-33.58507 1.83125.58122 3.07656 7.35648 3.07656 16.73838 0 4.62384-.83125 4.72815 14.93208-1.87377 7.93672-3.32401 10.62407-4.06666 11.23469-3.10471.44143.69542.80894 5.3144.81669 10.2644l.0141 9-66.01632 41.84821c-36.30898 23.01652-66.80737 42.05507-67.7742 42.3079-.96683.25284-2.08393.13364-2.48245-.26487zm-105.70926-145.14124c.009-83.37312.38318-138.33171.94722-139.22361.6146-.97187.52427-1.73274-.26532-2.23468-.8119-.51614-.63685-.76601.54392-.7764.95762-.008 9.75409 5.41929 19.54771 12.06157l17.80659 12.07688 17.24006-11.07688c9.48204-6.09228 18.12495-11.07688 19.20649-11.07688 1.94531 0 1.96369 1.23578 1.71222 115.13288l-.2542 115.13287-36.76734 23.86713c-20.22203 13.12691-37.43453 23.86712-38.25 23.86712-1.30311 0-1.48081-16.68129-1.46735-137.75zm-86.01531 45.27106-52.5-34.31887-.279877-12.6011c-.265436-11.9509-.178575-12.60109 1.683401-12.60109 2.123658 0 104.783276 66.99458 106.846476 69.72688 1.29884 1.72006 1.80715 19.65765.64301 22.69133-.33384.86999-1.34634 1.54578-2.25 1.50176-.90365-.04402-25.26801-15.52352-54.14301-34.39891zm193-93.47129v-114.950227l4.35055-3.636612c2.39281-2.000136 25.54824-18.185522 51.45651-35.967525 34.94728-23.985868 47.63341-32.192981 49.14945-31.7965281 2.04326.5343241 2.04349.5477331 2.04349 117.2008521v116.66647l-18.25 11.943c-10.0375 6.56865-31.49868 20.72875-47.6915 31.4669-16.19283 10.73814-30.29321 20.03428-31.33419 20.65808-1.04097.62381-2.3948 1.63631-3.00849 2.25-.6137.6137-2.37582 1.11582-3.91582 1.11582h-2.8zm-148.5 80.94479c-1.1-.48327-23.15-15.24447-49-32.80267l-47-31.92399-.254761-101.13395c-.222204-88.210134-.067802-101.13395 1.20826-101.13395.804661 0 24.881801 15.546955 53.504761 34.54879l52.04174 34.548789v99.451211 99.45121l-4.25-.0634c-2.3375-.0349-5.15-.45878-6.25-.94205z" fill="#d6c28e"/></g></svg>