<svg viewBox="0 0 512 512" xmlns="http://www.w3.org/2000/svg"><g transform="translate(-4.821864 5.186525)"><path d="m239.5 487.41c-6.6-4.6531-14.138-10.033-16.75-11.956l-4.75-3.4962.0966-57.461 37.126-25.5c20.419-14.025 38.052-25.5 39.185-25.5 1.617 0 2.2109.85833 2.7681 4 1.1003 6.2048.97187 73.356-.14431 75.442-.5329.99572-9.7579 7.7967-20.5 15.113l-19.531 13.303v11.121c0 11.29-.67547 13.591-3.95 13.458-.8525-.0347-6.95-3.8701-13.55-8.5232zm-119.71-139.22-65.715-41.696-.03548-10.75c-.01952-5.9125.17474-10.75.43169-10.75.25694 0 5.9409 2.25 12.631 5s12.33 5 12.533 5 .36909-3.5438.36909-7.875c0-9.7037.82388-14.125 2.6321-14.125.76017 0 24.994003 15.746 53.854003 34.99 38.116 25.417 52.623 35.609 53.026 37.25.30494 1.2428.42709 11.71.27145 23.26-.2717 20.163-.36268 21.008-2.283 21.196-1.1544.11333-29.783-17.432-67.715-41.5zm204.94 41.195c-1.3435-1.3435-.85368-43.845.52543-45.592.6875-.87072 24.341-16.953 52.564-35.738 35.689-23.755 51.86-33.982 53.11-33.585 1.8312.58122 3.0766 7.3565 3.0766 16.738 0 4.6238-.83125 4.7282 14.932-1.8738 7.9367-3.324 10.624-4.0667 11.235-3.1047.44143.69542.80894 5.3144.81669 10.264l.0141 9-66.016 41.848c-36.309 23.017-66.807 42.055-67.774 42.308-.96683.25284-2.0839.13364-2.4824-.26487zm-105.9-128.64c-.18124-66.688-.1892-129.69-.0177-140l.31184-18.75h2.3792c1.3085 0 2.6465.43267 2.9734.96149.4859.7862 28.27 20.102 32.145 22.348 1.0803.62602 32.532-18.76 33.212-20.47.18335-.4615 1.5857-.8391 3.1163-.8391h2.783l.38369 9.75c.21104 5.3625.1587 57.191-.1163 115.17l-.5 105.42-36.5 23.766c-20.075 13.071-37.252 23.793-38.17 23.826-1.55.056-1.6942-8.6818-2-121.19zm-85.83 28.84-52.5-34.274-.27988-12.658c-.26747-12.097-.19097-12.658 1.7262-12.658 2.19 0 103.46 65.927 106.3 69.206 1.4107 1.6248 1.75 3.9171 1.75 11.823 0 10.925-.45998 13.002-2.857 12.903-.90365-.0375-25.268-15.492-54.143-34.342zm193-93.393v-114.8l3.25-3.0964c1.7875-1.703 23.725-17.129 48.75-34.28s46.65-32.271 48.055-33.6c2.8122-2.66 5.2308-3.0893 6.5728-1.1665.48813.69937.75692 52.609.6102 117.84l-.26224 116.59-47.077 30.807c-25.892 16.944-47.31 31.415-47.595 32.158-.28502.74277-1.315 1.3505-2.2888 1.3505-.97382 0-2.3308.675-3.0155 1.5s-2.5398 1.5-4.1224 1.5h-2.8776zm-148.5 80.824c-1.1-.46939-23.15-15.218-49-32.775l-47-31.922-.5-87.912c-.59187-104.06-.45421-114.41 1.5221-114.41.77598 0 24.826 15.515 53.444 34.478l52.034 34.478v199.04l-4.25-.0634c-2.3375-.0349-5.15-.44743-6.25-.91681z" fill="#fbf9f5"/><path d="m239.5 487.41c-6.6-4.6531-14.138-10.033-16.75-11.956l-4.75-3.4962.0471-28.731.0471-28.731 37.152-25.5c20.433-14.025 38.075-25.5 39.203-25.5 1.8564 0 2.113.80742 2.702 8.5 1.0259 13.4.95856 68.927-.086 70.879-.51438.96113-9.7394 7.7686-20.5 15.128l-19.565 13.38v11.107c0 11.275-.67629 13.577-3.95 13.443-.8525-.0347-6.95-3.8701-13.55-8.5232zm-119.71-139.22-65.707-41.693-.04307-10.75c-.02369-5.9125.18927-10.75.47324-10.75s5.9016 2.25 12.484 5 12.2 5 12.484 5 .51631-3.5438.51631-7.875c0-9.7037.82388-14.125 2.6321-14.125.76017 0 24.993997 15.746 53.853997 34.99 38.116 25.417 52.623 35.609 53.026 37.25.30494 1.2428.42709 11.71.27145 23.26-.27172 20.165-.36254 21.008-2.283 21.193-1.1506.11082-29.907-17.515-67.707-41.5zm204.93 41.199c-1.3435-1.3435-.85368-43.845.52543-45.592.6875-.87072 24.341-16.953 52.564-35.738 35.689-23.755 51.86-33.982 53.11-33.585 1.8312.58122 3.0766 7.3565 3.0766 16.738 0 4.6238-.83125 4.7282 14.932-1.8738 7.9367-3.324 10.624-4.0667 11.235-3.1047.44143.69542.80894 5.3144.81669 10.264l.0141 9-66.016 41.848c-36.309 23.017-66.807 42.055-67.774 42.308-.96683.25284-2.0839.13364-2.4824-.26487zm-105.72-147.39c0-126.92.14756-140 1.5799-140 .86893 0 9.0814 5.1002 18.25 11.334 9.1686 6.2335 17.173 11.623 17.788 11.977.61458.35385 8.8624-4.2963 18.328-10.334 9.4661-6.0374 18.078-10.977 19.137-10.977 1.8914 0 1.9212 2.0582 1.6716 115.15l-.2542 115.15-36.75 23.852c-20.212 13.118-37.425 23.852-38.25 23.852-1.3268 0-1.5004-16.204-1.5004-140zm-86 47.554-52.5-34.292-.27988-12.631c-.2667-12.036-.18618-12.631 1.7098-12.631 2.1674 0 103.46 65.947 106.32 69.218 1.4115 1.6162 1.75 3.9008 1.75 11.811 0 10.927-.46067 13.006-2.857 12.894-.90365-.0422-25.268-15.508-54.143-34.369zm193-93.358v-114.8l3.25-3.09c1.7875-1.6995 24.3-17.518 50.028-35.153s47.473-32.757 48.321-33.606c1.8668-1.8669 3.8489-1.9824 5.0279-.2932.49144.70413.65409 52.22.37244 117.97l-.5 116.72-46 30.077c-25.3 16.542-46.747 30.957-47.66 32.033-.91316 1.0755-2.3206 1.9555-3.1276 1.9555-.80699 0-2.0275.675-2.7122 1.5s-2.5398 1.5-4.1224 1.5h-2.8776zm-148.5 80.817c-1.1-.473-23.15-15.229-49-32.792l-47-31.932-.25476-101.14c-.22174-88.036-.06591-101.14 1.2025-101.14.80147 0 24.879 15.528 53.505 34.507l52.048 34.507v198.99l-4.25-.0634c-2.3375-.0349-5.15-.45039-6.25-.92339z" fill="#f6f2e9"/><path d="m239.5 487.41c-6.6-4.6531-14.138-10.033-16.75-11.956l-4.75-3.4962.0471-28.731.0471-28.731 37.152-25.5c20.433-14.025 38.075-25.5 39.203-25.5 1.8564 0 2.113.80742 2.702 8.5 1.0259 13.4.95856 68.927-.086 70.879-.51438.96113-9.7394 7.7686-20.5 15.128l-19.565 13.38v11.107c0 11.275-.67629 13.577-3.95 13.443-.8525-.0347-6.95-3.8701-13.55-8.5232zm-119.71-139.22-65.707-41.693-.04307-10.75c-.02369-5.9125.18927-10.75.47324-10.75s5.9016 2.25 12.484 5 12.2 5 12.484 5 .51631-3.5438.51631-7.875c0-9.7037.82388-14.125 2.6321-14.125.76017 0 24.993997 15.746 53.853997 34.99 38.116 25.417 52.623 35.609 53.026 37.25.30494 1.2428.42709 11.71.27145 23.26-.27172 20.165-.36254 21.008-2.283 21.193-1.1506.11082-29.907-17.515-67.707-41.5zm204.93 41.199c-1.3435-1.3435-.85368-43.845.52543-45.592.6875-.87072 24.341-16.953 52.564-35.738 35.689-23.755 51.86-33.982 53.11-33.585 1.8312.58122 3.0766 7.3565 3.0766 16.738 0 4.6238-.83125 4.7282 14.932-1.8738 7.9367-3.324 10.624-4.0667 11.235-3.1047.44143.69542.80894 5.3144.81669 10.264l.0141 9-66.016 41.848c-36.309 23.017-66.807 42.055-67.774 42.308-.96683.25284-2.0839.13364-2.4824-.26487zm-105.72-147.39c0-126.92.14756-140 1.5799-140 .86893 0 9.0814 5.1002 18.25 11.334 9.1686 6.2335 17.173 11.623 17.788 11.977.61458.35385 8.8624-4.2963 18.328-10.334 9.4661-6.0374 18.078-10.977 19.137-10.977 1.8914 0 1.9212 2.0582 1.6716 115.15l-.2542 115.15-36.75 23.852c-20.212 13.118-37.425 23.852-38.25 23.852-1.3268 0-1.5004-16.204-1.5004-140zm-86 47.554-52.5-34.292-.27988-12.631c-.2667-12.036-.18618-12.631 1.7098-12.631 2.1674 0 103.46 65.947 106.32 69.218 1.4115 1.6162 1.75 3.9008 1.75 11.811 0 10.927-.46067 13.006-2.857 12.894-.90365-.0422-25.268-15.508-54.143-34.369zm193-93.358v-114.8l3.25-3.0888c1.7875-1.6988 22.825-16.476 46.75-32.839 23.925-16.362 45.837-31.481 48.694-33.598 4.9516-3.6681 7.7432-4.1752 8.4787-1.5401.18003.64497.10232 53.47-.17268 117.39l-.5 116.22-46 30.077c-25.3 16.542-46.747 30.957-47.66 32.033-.91316 1.0755-2.3206 1.9555-3.1276 1.9555-.80699 0-2.0275.675-2.7122 1.5s-2.5398 1.5-4.1224 1.5h-2.8776zm-148.5 80.817c-1.1-.473-23.15-15.229-49-32.792l-47-31.932-.25476-101.14c-.22174-88.036-.06591-101.14 1.2025-101.14.80147 0 24.879 15.528 53.505 34.507l52.048 34.507v198.99l-4.25-.0634c-2.3375-.0349-5.15-.45039-6.25-.92339z" fill="#f3eee1"/><path d="m235 484.17-16.5-11.676-.41404-57.996 37.147-25.5c20.431-14.025 38.074-25.5 39.207-25.5 1.8678 0 2.1212.79423 2.7111 8.5 1.0259 13.4.95856 68.927-.086 70.879-.51438.96113-9.7394 7.7686-20.5 15.128l-19.565 13.38v11.107c0 11.278-.68009 13.59-3.95 13.431-.8525-.0415-8.975-5.3298-18.05-11.752zm-115.21-135.98-65.708-41.688-.04205-10.75c-.02313-5.9125.19029-10.75.47426-10.75s5.9016 2.25 12.484 5 12.2 5 12.484 5 .51631-3.5438.51631-7.875c0-9.7037.82388-14.125 2.6321-14.125.76017 0 24.993997 15.746 53.853997 34.99 38.116 25.417 52.623 35.609 53.026 37.25.30494 1.2428.42709 11.71.27145 23.26-.27175 20.166-.36238 21.007-2.283 21.188-1.1458.10783-30.063-17.616-67.708-41.5zm204.93 41.203c-1.3435-1.3435-.85368-43.845.52543-45.592.6875-.87072 24.341-16.953 52.564-35.738 35.689-23.755 51.86-33.982 53.11-33.585 1.8312.58122 3.0766 7.3565 3.0766 16.738 0 4.6238-.83125 4.7282 14.932-1.8738 7.9367-3.324 10.624-4.0667 11.235-3.1047.44143.69542.80894 5.3144.81669 10.264l.0141 9-66.016 41.848c-36.309 23.017-66.807 42.055-67.774 42.308-.96683.25284-2.0839.13364-2.4824-.26487zm-105.72-147.39c0-125.91.15632-140 1.5532-140 .85428 0 9.0668 5.1026 18.25 11.339s17.2 11.626 17.814 11.977c.61458.35094 8.8624-4.3016 18.328-10.339 9.4661-6.0374 18.078-10.977 19.137-10.977 1.8914 0 1.9212 2.0582 1.6716 115.15l-.2542 115.15-36.75 23.852c-20.212 13.118-37.425 23.852-38.25 23.852-1.3268 0-1.5004-16.204-1.5004-140zm-86 47.554-52.5-34.292-.27988-12.631c-.2658-11.996-.18077-12.631 1.6905-12.631 2.1571 0 103.5 65.966 106.34 69.216 1.4114 1.6176 1.75 3.9034 1.75 11.813 0 10.927-.46067 13.006-2.857 12.894-.90365-.0422-25.268-15.508-54.143-34.369zm193-93.358v-114.8l3.25-3.0893c5.5991-5.3222 100.97-70.156 102.4-69.609 1.1284.43302 1.3543 20.068 1.3543 117.72v117.2l-47.085 30.83c-25.897 16.957-47.32 31.442-47.607 32.19s-1.3187 1.3602-2.2925 1.3602c-.97382 0-2.3308.675-3.0155 1.5s-2.5398 1.5-4.1224 1.5h-2.8776zm-148.5 80.817c-1.1-.473-23.15-15.229-49-32.792l-47-31.932-.25476-101.14c-.22174-88.036-.06591-101.14 1.2025-101.14.80147 0 24.879 15.528 53.505 34.507l52.048 34.507v198.99l-4.25-.0634c-2.3375-.0349-5.15-.45039-6.25-.92339z" fill="#ece3cc"/><path d="m235 484.17-16.5-11.677v-57.961l37-25.71c22.162-15.4 37.802-25.633 39-25.517 1.7703.17104 2.0747 1.1694 2.6508 8.6932 1.0278 13.425.95855 68.927-.0885 70.884-.51573.96366-9.7407 7.7584-20.5 15.099l-19.562 13.347v11.135c0 11.307-.67848 13.619-3.95 13.459-.8525-.0415-8.975-5.33-18.05-11.752zm-115.21-135.99-65.706-41.687-.04353-10.75c-.02394-5.9125.12256-10.75.32556-10.75s5.8428 2.25 12.533 5c6.6901 2.75 12.374 5 12.631 5 .25694 0 .46717-3.5438.46717-7.875 0-9.7037.82388-14.125 2.6321-14.125.76017 0 24.994003 15.746 53.854003 34.99 38.116 25.417 52.623 35.609 53.026 37.25.30494 1.2428.42709 11.71.27145 23.26-.27175 20.167-.36232 21.007-2.283 21.187-1.1443.10688-30.112-17.648-67.706-41.5zm204.93 41.204c-1.3435-1.3435-.85368-43.845.52543-45.592.6875-.87072 24.341-16.953 52.564-35.738 35.689-23.755 51.86-33.982 53.11-33.585 1.8312.58122 3.0766 7.3565 3.0766 16.738 0 4.6238-.83125 4.7282 14.932-1.8738 7.9367-3.324 10.624-4.0667 11.235-3.1047.44143.69542.80894 5.3144.81669 10.264l.0141 9-66.016 41.848c-36.309 23.017-66.807 42.055-67.774 42.308-.96683.25284-2.0839.13364-2.4824-.26487zm-105.72-147.39c0-125.91.15632-140 1.5532-140 .85428 0 9.0668 5.1026 18.25 11.339s17.2 11.626 17.814 11.977c.61458.35094 8.8624-4.3016 18.328-10.339 9.4661-6.0374 18.078-10.977 19.137-10.977 1.8914 0 1.9212 2.0582 1.6716 115.15l-.2542 115.15-36.767 23.854c-20.222 13.12-37.434 23.854-38.25 23.854-1.3038 0-1.4832-16.929-1.4832-140zm-86 47.554-52.5-34.292-.27988-12.631c-.2656-11.987-.17961-12.631 1.6863-12.631 2.1498 0 103.5 65.972 106.34 69.22 1.4117 1.6143 1.75 3.8972 1.75 11.809 0 10.927-.46067 13.006-2.857 12.894-.90365-.0422-25.268-15.508-54.143-34.369zm193-93.476v-114.92l4.1408-3.5444c7.9583-6.812 99.114-68.709 100.73-68.398 1.4938.28766 1.6512 10.091 1.8841 117.37l.25411 117.05-18.254 11.908c-10.04 6.5493-31.5 20.694-47.69 31.432s-30.29 20.034-31.334 20.658c-1.0439.62381-2.4002 1.6363-3.0138 2.25-.6137.6137-2.3758 1.1158-3.9158 1.1158h-2.8zm-148.5 80.928c-1.1-.47699-23.15-15.231-49-32.786l-47-31.919-.25476-101.15c-.22174-88.042-.065909-101.15 1.2025-101.15.80147 0 24.879 15.528 53.505 34.507l52.048 34.507v198.99l-4.25-.0634c-2.3375-.0349-5.15-.45364-6.25-.93063z" fill="#e1d2ac"/><path d="m235 484.17-16.5-11.677v-57.961l37.385-25.815c20.562-14.198 38.112-25.676 39-25.507 1.2844.24443 1.7467 2.1474 2.259 9.2973 1.0032 14.002.9623 68.423-.0529 70.32-.49982.93393-9.7248 7.7325-20.5 15.108l-19.591 13.41v11.126c0 11.298-.67897 13.61-3.95 13.451-.8525-.0415-8.975-5.33-18.05-11.752zm-115.2-135.99-65.701-41.684-.04933-10.75c-.02713-5.9125.11676-10.75.31976-10.75s5.8428 2.25 12.533 5c6.6901 2.75 12.374 5 12.631 5 .25694 0 .46717-3.5438.46717-7.875 0-9.7037.82388-14.125 2.6321-14.125.76017 0 24.994003 15.746 53.854003 34.99 38.116 25.417 52.623 35.609 53.026 37.25.30494 1.2428.42709 11.71.27145 23.26-.27177 20.168-.36223 21.007-2.283 21.184-1.1415.10511-30.201-17.708-67.701-41.5zm204.93 41.207c-1.3435-1.3435-.85368-43.845.52543-45.592.6875-.87072 24.341-16.953 52.564-35.738 35.689-23.755 51.86-33.982 53.11-33.585 1.8312.58122 3.0766 7.3565 3.0766 16.738 0 4.6238-.83125 4.7282 14.932-1.8738 7.9367-3.324 10.624-4.0667 11.235-3.1047.44143.69542.80894 5.3144.81669 10.264l.0141 9-66.016 41.848c-36.309 23.017-66.807 42.055-67.774 42.308-.96683.25284-2.0839.13364-2.4824-.26487zm-105.72-147.39c0-123.41.17672-140 1.4911-140 .82012 0 9.5041 5.4346 19.298 12.077l17.807 12.077 17.24-11.077c9.482-6.0923 18.125-11.077 19.206-11.077 1.9453 0 1.9637 1.2358 1.7122 115.13l-.2542 115.13-36.767 23.867c-20.222 13.127-37.435 23.867-38.25 23.867-1.3032 0-1.4827-16.95-1.4827-140zm-86 47.521-52.5-34.319-.27988-12.601c-.26544-11.951-.17858-12.601 1.6834-12.601 2.1237 0 104.78 66.995 106.85 69.727 1.2988 1.7201 1.8072 19.658.64301 22.691-.33384.86999-1.3463 1.5458-2.25 1.5018-.90365-.044-25.268-15.524-54.143-34.399zm193-93.471v-114.95l4.3506-3.6366c2.3928-2.0001 25.548-18.186 51.457-35.968 34.947-23.986 47.633-32.193 49.149-31.797 2.0433.53432 2.0435.54773 2.0435 117.2v116.67l-18.25 11.943c-10.038 6.5686-31.499 20.729-47.692 31.467s-30.293 20.034-31.334 20.658c-1.041.62381-2.3948 1.6363-3.0085 2.25s-2.3758 1.1158-3.9158 1.1158h-2.8zm-148.5 80.945c-1.1-.48327-23.15-15.244-49-32.803l-47-31.924-.25476-101.13c-.2222-88.21-.0678-101.13 1.2083-101.13.80466 0 24.882 15.547 53.505 34.549l52.042 34.549v198.9l-4.25-.0634c-2.3375-.0349-5.15-.45878-6.25-.94205z" fill="#d7c493"/><path d="m235 484.17-16.5-11.677v-57.961l37.385-25.815c20.562-14.198 38.112-25.676 39-25.507 1.2844.24443 1.7467 2.1474 2.259 9.2973 1.0032 14.002.9623 68.423-.0529 70.32-.49982.93393-9.7248 7.7325-20.5 15.108l-19.591 13.41v11.126c0 11.298-.67897 13.61-3.95 13.451-.8525-.0415-8.975-5.33-18.05-11.752zm-115.2-135.99-65.701-41.684-.04933-10.75c-.02713-5.9125.11676-10.75.31976-10.75s5.8428 2.25 12.533 5c6.6901 2.75 12.374 5 12.631 5 .25694 0 .46717-3.5438.46717-7.875 0-9.7037.82388-14.125 2.6321-14.125.76017 0 24.994003 15.746 53.854003 34.99 38.116 25.417 52.623 35.609 53.026 37.25.30494 1.2428.42709 11.71.27145 23.26-.27177 20.168-.36223 21.007-2.283 21.184-1.1415.10511-30.201-17.708-67.701-41.5zm204.93 41.207c-1.3435-1.3435-.85368-43.845.52543-45.592.6875-.87072 24.341-16.953 52.564-35.738 35.689-23.755 51.86-33.982 53.11-33.585 1.8312.58122 3.0766 7.3565 3.0766 16.738 0 4.6238-.83125 4.7282 14.932-1.8738 7.9367-3.324 10.624-4.0667 11.235-3.1047.44143.69542.80894 5.3144.81669 10.264l.0141 9-66.016 41.848c-36.309 23.017-66.807 42.055-67.774 42.308-.96683.25284-2.0839.13364-2.4824-.26487zm-105.71-145.14c.009-83.373.38318-138.33.94722-139.22.6146-.97187.52427-1.7327-.26532-2.2347-.8119-.51614-.63685-.76601.54392-.7764.95762-.008 9.7541 5.4193 19.548 12.062l17.807 12.077 17.24-11.077c9.482-6.0923 18.125-11.077 19.206-11.077 1.9453 0 1.9637 1.2358 1.7122 115.13l-.2542 115.13-36.767 23.867c-20.222 13.127-37.435 23.867-38.25 23.867-1.3031 0-1.4808-16.681-1.4674-137.75zm-86.015 45.271-52.5-34.319-.27988-12.601c-.26544-11.951-.17858-12.601 1.6834-12.601 2.1237 0 104.78 66.995 106.85 69.727 1.2988 1.7201 1.8072 19.658.64301 22.691-.33384.86999-1.3463 1.5458-2.25 1.5018-.90365-.044-25.268-15.524-54.143-34.399zm193-93.471v-114.95l4.3506-3.6366c2.3928-2.0001 25.548-18.186 51.457-35.968 34.947-23.986 47.633-32.193 49.149-31.797 2.0433.53432 2.0435.54773 2.0435 117.2v116.67l-18.25 11.943c-10.038 6.5686-31.499 20.729-47.692 31.467s-30.293 20.034-31.334 20.658c-1.041.62381-2.3948 1.6363-3.0085 2.25s-2.3758 1.1158-3.9158 1.1158h-2.8zm-148.5 80.945c-1.1-.48327-23.15-15.244-49-32.803l-47-31.924-.25476-101.13c-.2222-88.21-.0678-101.13 1.2083-101.13.80466 0 24.882 15.547 53.505 34.549l52.042 34.549v198.9l-4.25-.0634c-2.3375-.0349-5.15-.45878-6.25-.94205z" fill="#d6c28e"/></g></svg>