<svg height="24.000034" viewBox="0 0 23.999998 24.000034" width="23.999998" xmlns="http://www.w3.org/2000/svg"><path d="m22.193825.0002606c-.000472.00002-.001.00016-.0015.00019-.07192.002-.158691.0411-.253056.11558-.08286.0654-1.358138.80916-2.833945 1.65285-.09366.0536-.176436.1015-.268375.15421-1.262625.71979-2.432084 1.40019-2.599204 1.52718-.0013.00096-.0063.004-.0074.005l-.04319.0343-.148469.10367v.0144 5.64024.001.006 5.6475404h.165056.0046c.01167 0 .02359-.00056.03559-.002.0056-.00044.01129-.001.01693-.002.0041-.00039.0081-.00029.01221-.00076.06924-.008.134456-.028.161601-.0506.01809-.0151.0472-.0351.07936-.0552.01129-.007.02316-.0138.0349-.0206.02772-.01.05606-.0168.0804-.0168.01436 0 .02892-.002.04296-.005.0421-.0101.07942-.0338.09203-.0612.0097-.0211.45954-.2801 1.109667-.64412.200827-.11084.364027-.20057.586393-.32359.437203-.24189.939325-.51863 1.412366-.77882l2.474577-1.35088v-.001l.002-.001-.000471-.17718v-.37278l.01404-5.1831904c.0033-1.23159.0021-2.30319-.0011-3.23633.004-1.46108.0037-2.4884-.0028-2.50767-.0072-.0215-.01801-.0383-.03191-.0513-.000059-.00014-.000118-.002-.000236-.002-.0078-.009-.01642-.0173-.02546-.0244-.0016-.001-.0031-.003-.0047-.004-.0079-.006-.01625-.0106-.02499-.0147-.0037-.002-.0074-.003-.01117-.005-.0069-.003-.01407-.005-.02142-.006-.0057-.001-.01142-.002-.01728-.003-.0074-.00088-.01502-.001-.02281-.001-.0018.00003-.0034-.00037-.0052-.00029zm-20.5182336.0953c-.00182 0-.00356.00064-.0053.001-.0004718.00014-.0009153.00032-.00138.00048-.0000281.00001-.0000885-.00001-.000118 0-.1058437.0368-.1123067.67607-.078555 5.62621l.029487 4.3219304v.001.00058.001l2.771748 1.57032c1.5244599.86366 2.8248235 1.58921 2.8896941 1.6123.00602.002.016653.004.024303.006.00427.001.00889.002.013592.003.055321.0133.1369621.025.2240298.031.035948.003.072196.004.1066592.005l.2506367.003v-4.8922604-.002-.001-4.8887-.004-.003l-3.0685712-1.69609c-1.6877258-.93283-3.1060871-1.69599-3.1518489-1.69599-.0009926 0-.0019.0004-.00288.00048-.0001651-.00001-.00101-.00048-.00115-.00048 0 0-.0001179.0001-.0001179.0001h-.000118s-.0001179-.0001-.0001179-.0001zm8.0602285 4.52572-.018314.92236c-.010114.5073-.00965 3.60643.00104 6.8869604.0055 1.68656.010245 2.85688.016586 3.72759.00312.62645.00797 1.0744.014513 1.40208.012874.65105.033208.83493.066345.83493.000059 0 .0004718-.0002.0005898-.0002.0001769.00001.0002948.0002.0004717.0002.00192 0 .00792-.002.012785-.004.00216.00053.00441.00093.00668.00086.054182-.002 1.0671196-.52907 2.2510096-1.17207l2.152527-1.16909v-.002-.00029-.001l.02949-5.18204c.01622-2.8523404.01924-5.4019004.0068-5.6657004l-.0226-.47962h-.09733-.0024-.06439c-.09027 0-.172903.0185-.183716.0412-.04008.0842-1.894968 1.0378-1.958675 1.00701-.0018-.00085-.0071-.004-.009-.005-.03677-.0184-.353131-.1962-.736014-.41257-.529811-.30429-1.133206-.65849-1.150672-.68206-.01928-.026-.098256-.0473-.1754241-.0473h-.054366-.00161-.00369zm-8.0923644 6.2966504c-.00916 0-.016549.00088-.024304.002-.000874.0001-.00191.0001-.00276.0002-.00251.00029-.0057.00014-.00806.00057-.0001121.00002-.0002359-.00002-.000348 0-.0000884.00002-.0001415.0001-.00023.0001h-.0001179c-.0001003.00002-.0003597-.00002-.00046 0h-.0001179c-.00263.0005-.00504.002-.00749.002-.00206.00059-.00429.00098-.00622.002-.0002182.0001-.0004777.0001-.0006912.0002-.0000767.00003-.0002713.00015-.000348.00019h-.0001179c-.00175.00073-.00318.002-.00484.003-.00104.00055-.00211.001-.00311.002-.00138.00085-.00295.001-.00426.002-.0000406.00003-.0000766.00005-.0001179.0001-.0000944.00005-.0001356.0002-.00023.00029h-.0001179c-.0003362.00025-.0005921.0007-.0009218.00096-.00046.0004-.0008174.00096-.00127.001-.00284.002-.0057.005-.00818.008-.0000416.00005-.0000708.00015-.0001179.00019-.0002949.0004-.0005131.00095-.0008062.001-.00304.004-.00589.009-.00841.0144-.00546.0121-.00972.0279-.013016.0481-.00661.0406-.00924.0997-.00921.18572v.0001c.0000172.0857.00277.19832.00668.3455.0000162.00062-.0000163.00083 0 .001.0000152.00057-.0000152.00077 0 .001l.016471.6226 3.0961011 1.68609c1.7028556.92732 3.1396775 1.68752 3.1929688 1.68937.035372.001.063495-.004.085926-.0216.00471-.004.00903-.008.013246-.0128.000059-.00005.0001769-.00015.0002359-.0002 0 0 .000118-.0001.000118-.0001.014484-.0115.026356-.025.033173-.0398.033302-.0724.042999-.31747.035822-.56015v-.00009c0-.0487-.0003539-.093-.00104-.13346-.0007077-.0404-.00176-.0771-.00334-.1103v-.0001c-.00159-.0332-.00371-.0631-.00634-.09v-.0001c-.00263-.027-.00583-.0511-.00968-.0727s-.00837-.0408-.013592-.0581v-.0001c-.0000095-.00003.00001-.00005 0-.0001-.00521-.0173-.011212-.0326-.017968-.0465-.00126-.003-.00283-.005-.00415-.007-.0056-.0167-.011378-.0305-.017622-.0374-.00281-.003-.011996-.01-.020963-.0161-.00295-.003-.0054-.007-.00852-.01-.1679078-.16133-6.1399861-3.40438-6.269135-3.40438-.0003007 0-.0005072 0-.0008061 0-.0000141 0-.0001003 0-.000118 0-.0003479 0-.000572.00009-.0009212.00009h-.0001179s-.000118-.00009-.000118-.00009c-.0000884 0-.0001415 0-.0002299 0-.0000885 0-.0001416 0-.00023 0zm.043078 2.11528c-.1066384 0-.1552658.21749-.1552658.69484 0 .18643-.010462.34314-.024304.37942-.00145.004-.00297.005-.00449.006-.028322-.006-.3482234-.11222-.73209894-.24385-.15409217-.0528-.28164431-.0955-.40210144-.13566-.18553293-.0627-.32969711-.1103-.33990304-.1103-.00013564 0-.00032436.00064-.00045999.00067-.00018872-.00002-.0022829-.00067-.0024191-.00067-.00027128 0-.00053666.001-.00080617.002-.00045999-.00009-.0047238-.002-.0049526-.002-.0029929 0-.0058389.0148-.0082931.0417-.005744.0624-.00944016.19283-.01048163.34838-.00048358.0452-.00111578.0896-.00092175.13874l.0020735.52882 3.87542416 2.0511c2.2369742 1.18397 3.9252898 2.04707 3.9933716 2.04149.021263-.002.038657-.005.053099-.0147.00479-.003.00932-.007.013476-.0126.0000171-.00002-.0000165-.00009 0-.00009.00415-.005.00806-.0113.011634-.0187.0000118-.00002-.0000124-.00005 0-.0001v-.0001c.00357-.007.00685-.016.00991-.0261v-.0001c.00305-.0101.00593-.0217.00852-.035.0000053-.00003-.0000053-.00005 0-.0001.012979-.0666.020492-.17561.026147-.35501.00452-.14352.00786-.33204.011864-.58003.00918-.56818.00197-1.08308-.016011-1.14421-.023751-.0807-.8792756-.58208-3.1270849-1.83242-1.701929-.94669-3.1310928-1.72125-3.1759226-1.72125zm20.5303275.0722c-.124919.0129-1.083664.5204-3.122592 1.65247-1.664372.9241-3.059242 1.71522-3.099787 1.75806-.08133.0859-.110214 2.17668-.03098 2.24277.0235.0196.08938.0255.146397.0131.05702-.0124 1.855564-.94903 3.996826-2.08127l3.893274-2.05856-.00092-.44274c-.000472-.2435-.02211-.47078-.04815-.50499-.03601-.0473-.194474-.0107-.662529.15277-.929616.32476-.880569.3196-.880569.0921 0-.46152-.07342-.79481-.181412-.8234-.0023-.00061-.0055-.00071-.0096-.0003zm-8.013118 4.36555c-.0032-.00051-.01028.001-.02073.005-.000714-.00005-.0012-.00024-.002-.00029-.06949-.006-.965154.48282-2.238223 1.21972-.02716.0155-.05076.0285-.07809.0442l-1.094693.62721-1.0953842.6272.0003539.0438-.00265 1.36952-.00277 1.41332.029371.0181.0001179.008.4662584.27527c.208544.12515.486412.29053.772183.45858.367983.21641.706075.39476.784737.41526.000033.00001.000059-.00001.000118 0 .0045.001.01144.004.01417.004.03615.001.06703-.002.09318-.011h.000118c.0087-.003.01694-.007.02465-.0114.0069-.004.01321-.009.01935-.0145.00069-.00061.0015-.001.0022-.002.000038-.00003.000059-.00005.000118-.0001.0039-.004.0073-.008.01083-.0121.0027-.003.0056-.006.0081-.009v-.0001s.000118-.0001.000118-.0001c.000017-.00002-.000017-.00005 0-.0001.0029-.004.0055-.009.0082-.0134.0022-.004.0045-.007.0066-.0109.000354-.00067.000808-.001.0012-.002.000118-.0002.000236-.00035.000354-.00058 0 0 .000118-.0001.000118-.0001v-.00009c.000013-.00003-.000013-.00005 0-.0001.0032-.006.0061-.0139.009-.0211.0016-.004.0034-.007.005-.0116v-.0001-.0001-.0001c.000009-.00003-.00001-.00005 0-.0001.0013-.004.0024-.008.0036-.0119.000731-.002.0014-.005.0021-.007.002-.007.0042-.0129.006-.0202.000027-.0001.000118-.0002.000118-.0003.000007-.00003-.000007-.00005 0-.0001.0015-.006.0027-.0136.0041-.0203.0018-.009.0038-.0168.0054-.0263v-.00009c.000004-.00003-.000005-.00005 0-.0001.0021-.0124.0033-.0292.0051-.043.0013-.0103.0025-.021.0037-.0321.000295-.003.000643-.005.00092-.008.0011-.0116.003-.0204.0039-.033.000007-.0001-.000006-.0002 0-.00029.0033-.0427.0054-.0913.0069-.14518.000049-.002.000177-.003.000236-.005v-.00009c.000003-.0001-.000003-.00025 0-.0004.000001-.00005-.000002-.00014 0-.00019.000002-.0001-.000002-.0002 0-.0003.000607-.0233.00059-.0524.00092-.0779.000472-.0357.0012-.0689.0012-.10915v-.00067-.00029-.0004-.54496l.608969-.34742.542854-.30842c.633497-.35992 1.177527-.69448 1.208953-.74346.000177-.00024.000295-.001.000472-.001.000295-.00039.0012-.001.0014-.001v-.0001s.000118-.0001.000118-.0001c.000118-.00019.000236-.00092.000354-.001 0 0 .000118-.0001.000118-.0001.000236-.00029.000961-.00095.0012-.001.02265-.0353.03698-.44131.04296-.96876.000001-.0001-.000002-.00025 0-.0004.000295-.0234.000177-.0505.000472-.0744.01463-1.02811.0034-2.46517-.03847-2.66207-.02099-.0987-.04317-.15127-.08109-.17659-.000879-.00093-.0017-.002-.0026-.003-.01436-.0185-.031-.0284-.05137-.0316z" fill="#fbf9f5" stroke-width=".053861"/></svg>