<svg viewBox="0 0 592 592" xmlns="http://www.w3.org/2000/svg">
    <g transform="translate(-.75127 -1.5025)">
        <path
            d="m274 562.6c-28.863-4.4466-45.877-9.4473-66.036-19.409-45.763-22.614-81.086-61.629-98.85-109.18-9.3707-25.084-15.072-65.186-11.806-83.05l.69237-3.7883 9.193 5.8378.60549 15.869c.72096 18.896 4.463 43.369 6.6313 43.369.56585 0 19.3-20.752 29.227-32.376l2.4563-2.8759 11.88 7.4348c6.5338 4.0892 12.034 7.899 12.223 8.4662.18908.56725-10.47 10.576-23.686 22.242s-24.03 21.851-24.03 22.635c0 2.539 10.463 22.005 17.278 32.144 7.5618 11.251 21.74 27.628 30.102 34.773 3.1178 2.6636 5.828 4.6664 6.0227 4.4506.1947-.21577 7.1597-20.796 15.478-45.735 8.3181-24.938 15.46-45.915 15.872-46.615.54338-.92426 4.1656.86489 13.248 6.5437 6.875 4.2986 12.874 8.4003 13.331 9.1147.54196.84702-6.6322 16.434-20.62 44.799-16.11 32.669-21.172 43.799-20.331 44.699 1.8938 2.0268 17.976 10.939 26.779 14.84 8.4474 3.7432 21.396 8.0813 32.341 10.835 6.3413 1.5955 25.686 4.6261 29.529 4.6261h2.2728l-.69586-15.598c-.41157-9.2256-.32563-15.456.21035-15.25.49841.19153 5.0115 3.0482 10.029 6.3482l9.1228 6 .0157 9.25c.0183 10.815-1.4033 10.08 14.887 7.6918 23.918-3.5067 45.818-11 65.97-22.572 4.7623-2.7347 9.1635-5.5118 9.7804-6.1712.84297-.90102-4.3129-12.22-20.75-45.552-12.029-24.394-21.872-44.502-21.872-44.685 0-.56933 25.984-16.462 26.915-16.462 1.1202 0 3.1428 5.6884 19.201 54 7.2212 21.725 13.288 39.677 13.482 39.892.19417.21576 2.904-1.787 6.0218-4.4506 8.3627-7.1445 22.541-23.522 30.102-34.773 6.8072-10.128 17.278-29.604 17.278-32.138 0-.78036-11.025-11.158-24.5-23.062s-24.496-21.941-24.491-22.306c.0106-.78318 23.368-15.163 24.629-15.163.47484 0 7.7992 7.875 16.276 17.5s15.736 17.5 16.13 17.5c2.2266 0 5.9493-24.492 6.6567-43.795l.59719-16.295 4.3957-2.5761c2.4176-1.4168 4.6643-2.3075 4.9926-1.9792 1.4655 1.4655 1.4298 24.969-.0579 38.146-8.8702 78.565-60.992 143.07-135.7 167.93-19.475 6.4811-33.376 8.719-56.433 9.0853-10.45.16598-20.35.0938-22-.16039zm-2.522-60.821c-9.0629-6.308-16.971-12.27-17.574-13.25-.79011-1.2838-.9297-53.12-.5-185.67.53425-164.8.75746-183.99 2.1504-184.87 1.2025-.75822 5.5357 1.7632 19.147 11.141 9.676 6.6668 17.977 12.112 18.446 12.101.46914-.0113 7.378-4.2942 15.353-9.5177s15.941-10.237 17.702-11.142c6.6526-3.4169 6.1537-13.498 6.7563 136.52.29973 74.615.78801 149.81 1.0851 167.11.38751 22.559.21477 32.228-.61136 34.222-.81064 1.9571-6.891 6.6892-20.542 15.987l-19.39 13.207v10.821c0 9.4876-.24644 11.067-2 12.821-1.1 1.1-2.3474 2-2.772 2s-8.1871-5.1611-17.25-11.469zm-114.87-136.05c-35.966-22.813-66.004-41.985-66.75-42.605-2.0434-1.6958-1.9223-20.727.13688-21.517.82135-.31518 6.4951 1.5252 12.608 4.0898s11.404 4.3742 11.757 4.0214c.35293-.35276.77728-63.923.94298-141.27.21657-101.09.61308-141 1.4102-141.96.60992-.7349 1.6231-1.1389 2.2516-.89772 1.4104.5412 102.65 67.499 104.04 68.809.64978.61304 1.2522 47.417 1.7202 133.64.39612 72.985.9754 142.44 1.2873 154.34.49905 19.045.37411 21.834-1.0416 23.25-.88479.8848-1.9141 1.6007-2.2873 1.5909-.37321-.01-30.106-18.683-66.072-41.497zm203.42 39.898c-1.4063-1.4063-1.5323-4.2367-1.0343-23.243.31184-11.903.89112-80.893 1.2873-153.31l.7203-131.67 2.3486-2.4998c1.7616-1.875 55.439-39.274 100.69-70.156.98161-.66987 2.0296-.63434 3.2079.10876 1.6494 1.0402 1.7788 9.2453 2.25 142.66.275 77.857.78872 141.85 1.1416 142.2.35288.35273 5.9153-1.5037 12.361-4.1255 11.305-4.598 11.769-4.6995 13.108-2.8671 2.1743 2.9735 1.9042 17.754-.36095 19.749-2.0061 1.7671-127.12 81.135-131.34 83.317-2.4579 1.271-2.9636 1.2521-4.3801-.16435z"
            fill="#d2cbc7" />
        <path
            d="m272.5 561.78c-60.478-7.0785-115.24-42.123-146.23-93.586-19.564-32.482-28.766-65.272-28.766-102.51 0-11.203.36524-17.439 1.0214-17.439.56179 0 2.7517 1.145 4.8665 2.5445l3.845 2.5445.53459 17.705c.5939 19.67 4.2788 42.944 6.6528 42.02.44462-.17307 7.6701-8.0772 16.057-17.565s15.647-17.25 16.134-17.25c.99434 0 23.889 13.95 23.889 14.556 0 .21329-10.462 9.6629-23.25 20.999-12.788 11.336-23.82 21.403-24.517 22.371-1.0834 1.504-.42539 3.415 4.5336 13.167 5.994 11.787 13.363 23.357 20.96 32.908 5.8782 7.3901 25.383 27 26.856 27 1.5263 0 .97301 1.5136 17.888-48.933 8.0099-23.888 14.758-43.627 14.995-43.865.41156-.41156 26.535 15.617 26.535 16.282 0 .17551-9.675 19.999-21.5 44.051s-21.5 44.102-21.5 44.555c0 1.0198 10.551 7.1962 22.555 13.203 18.307 9.1615 45.156 16.55 61.74 16.991l8.1521.21653-.32114-14.75c-.17663-8.1125.0603-14.727.5266-14.7.46626.0275 4.6727 2.615 9.3477 5.75l8.5 5.6999v18l8.1787-.21653c16.607-.43968 43.446-7.8225 61.767-16.991 11.949-5.9796 22.555-12.182 22.555-13.19 0-.66962-34.778-71.988-41.805-85.73l-2.111-4.128 12.381-7.6238c6.8095-4.1931 12.978-7.849 13.708-8.1243.96879-.36537 5.365 11.585 16.279 44.252 16.702 49.991 16.432 49.252 18.006 49.252 1.4419 0 21.018-19.71 26.816-27 7.5968-9.5507 14.966-21.12 20.96-32.908 4.962-9.7579 5.6176-11.663 4.5336-13.173-.69702-.97098-11.935-11.212-24.973-22.757-16.98-15.036-23.363-21.263-22.5-21.95 1.6668-1.3254 22.665-14.212 23.158-14.212.2196 0 7.4722 7.9875 16.117 17.75s16.078 17.892 16.518 18.065 1.2497-1.4019 1.7986-3.5c3.0098-11.503 4.3651-22.418 4.8486-39.047l.53013-18.233 4.2956-2.5174c2.3626-1.3846 4.553-2.5174 4.8675-2.5174s.57193 8.0724.57193 17.939c0 37.775-9.097 70.35-28.766 103.01-38.682 64.222-114.47 102.1-187.23 93.586zm-.85524-60.489c-8.4454-5.9528-15.91-11.435-16.588-12.182-.97117-1.0706-1.1358-40.565-.77601-186.11.39846-161.16.64332-184.75 1.9179-184.75.80362 0 8.9627 5.1002 18.131 11.334 9.1686 6.2335 17.173 11.623 17.788 11.977.61458.35385 8.8624-4.2963 18.328-10.334 9.4661-6.0374 18.056-10.977 19.089-10.977 1.8256 0 1.8934 3.7971 2.425 135.75.30077 74.662.788 150.48 1.0827 168.49.33425 20.423.16919 33.427-.43866 34.563-.53599 1.0015-9.7787 7.842-20.539 15.201l-19.565 13.38v11.107c0 11.276-.67768 13.582-3.95 13.439-.8525-.0372-8.4599-4.9381-16.905-10.891zm-116.35-136.85-65.707-41.693-.04307-10.75c-.02369-5.9125.18927-10.75.47324-10.75s5.9597 2.2743 12.613 5.0539c6.653 2.7796 12.383 4.7673 12.734 4.417s.77632-64.5.94629-142.55c.26242-120.51.51923-141.92 1.7025-141.92.76638 0 24.812 15.526 53.434 34.502l52.04 34.502.48531 132.25c.26692 72.736.60769 142.6.75728 155.25.26452 22.369.21713 23.005-1.728 23.193-1.1506.11082-29.907-17.515-67.707-41.5zm204.68 40.598c-.30305-.78975-.29357-11.303.0211-23.363.31465-12.06.78542-80.905 1.0462-152.99l.47407-131.06 3.2427-3.0813c2.3755-2.2573 92.832-64.964 100.29-69.524 3.3668-2.0584 3.394-1.0032 3.6749 142.94.15256 78.169.57355 142.42.93554 142.78s6.1866-1.6238 12.944-4.4127c9.214-3.8029 12.483-4.7591 13.077-3.8248.43509.68516.79741 5.2957.80516 10.246l.0141 9-66.016 41.848c-36.309 23.017-66.903 42.08-67.987 42.363-1.1748.30721-2.1928-.0645-2.5213-.92066z"
            fill="#ac9e96" />
        <path
            d="m282 562.67c-1.65-.23125-7.2286-.91151-12.397-1.5117-34.126-3.9629-70.658-19.679-99.137-42.648-9.5781-7.725-25.752-24.514-33.303-34.571-21.518-28.657-35.224-63.837-38.644-99.19-1.1011-11.385-1.2172-32.145-.19414-34.725.62511-1.5764 1.0374-1.5144 4.7826.71895l4.0985 2.444.10773 14.505c.13506 18.186 4.0696 44.351 6.8062 45.263.55586.18528 7.944-7.5479 16.418-17.185 8.4741-9.637 15.711-17.522 16.082-17.522.59317 0 22.627 13.414 23.55 14.337.19669.19668-10.674 10.132-24.156 22.079-13.483 11.947-24.514 22.148-24.514 22.669 0 .52115 2.4418 5.8163 5.4262 11.767 7.1064 14.17 17.392 29.367 27.848 41.147 8.5484 9.6308 20.427 20.632 21.317 19.742.26776-.26776 7.5081-21.357 16.09-46.864 8.5815-25.508 15.716-46.517 15.855-46.688.47134-.58106 26.455 16.016 26.09 16.665-5.1229 9.1097-42.636 87.677-42.292 88.575.63591 1.6572 13.829 9.3768 24.666 14.433 17.253 8.0497 45.239 15.535 61 16.316l6.5.32201-.34661-15.25c-.19063-8.3875.0344-15.225.5-15.194.46564.0307 4.6716 2.6698 9.3466 5.8648l8.5 5.809v18.77l6.5-.32201c15.761-.78082 43.747-8.2664 61-16.316 10.833-5.0542 24.03-12.776 24.665-14.431.26943-.70214-9.2581-21.163-21.172-45.469-13.223-26.976-21.303-44.551-20.74-45.114 2.3377-2.3377 24.813-15.673 25.365-15.05.34254.38657 7.6387 21.573 16.214 47.08 8.5749 25.508 15.81 46.596 16.078 46.864.89001.89001 12.769-10.111 21.317-19.742 10.456-11.78 20.742-26.978 27.848-41.147 2.9844-5.9507 5.4262-11.246 5.4262-11.767 0-.52116-11.025-10.717-24.5-22.657s-24.5-21.99-24.5-22.333c0-.48864 17.309-11.539 22.607-14.433.61715-.33708 8.113 7.3579 16.937 17.387 8.7065 9.8954 16.284 17.84 16.838 17.656 2.7751-.92503 6.6942-27.229 6.798-45.625l.0832-14.754 8.522-5.1475.60714 3.0357c.90698 4.5349.68604 22.936-.41165 34.286-5.7016 58.95-38.318 112.69-88.481 145.77-23.233 15.325-51.26 26.016-79.318 30.259-9.9809 1.509-32.379 2.6314-37.682 1.8882zm-11.5-62.249-16.5-11.677.008-29.248c.0745-264.96.53163-341.25 2.0452-341.25.85428 0 9.0668 5.1026 18.25 11.339s17.2 11.626 17.814 11.977c.61458.35094 8.8624-4.3016 18.328-10.339 9.4661-6.0374 18.056-10.977 19.089-10.977 1.8256 0 1.8934 3.7971 2.425 135.75.30077 74.662.788 150.48 1.0827 168.49.33513 20.476.16988 33.426-.44112 34.568-.53734 1.004-9.78 7.8318-20.539 15.173l-19.562 13.347v11.135c0 11.307-.67848 13.619-3.95 13.459-.8525-.0415-8.975-5.33-18.05-11.752zm-115.21-135.99-65.706-41.687-.04353-10.75c-.02394-5.9125.12256-10.75.32556-10.75s5.8855 2.2675 12.628 5.039c6.7422 2.7714 12.539 4.7591 12.881 4.417s.76013-64.485.92857-142.54c.26035-120.65.51551-141.92 1.7025-141.92.76792 0 24.814 15.526 53.436 34.502l52.04 34.502.48531 132.25c.26692 72.736.60769 142.6.75728 155.25.26454 22.371.21727 23.005-1.728 23.187-1.1443.10688-30.112-17.648-67.706-41.5zm204.68 40.604c-.30305-.78975-.29437-11.303.0193-23.363s.89365-81.052 1.2889-153.32l.71855-131.39 4.5-3.775c8.7328-7.3258 98.256-68.047 99.867-67.737 1.4987.28844 1.6741 12.004 2.133 142.47.275 78.184.79617 142.45 1.1582 142.81.36199.36183 6.1866-1.6239 12.944-4.4127 9.214-3.8029 12.483-4.7591 13.077-3.8248.43509.68516.79741 5.2957.80516 10.246l.0141 9-66.016 41.848c-36.309 23.017-66.903 42.08-67.987 42.363-1.1748.30721-2.1928-.0645-2.5213-.92066z"
            fill="#968479" />
        <path
            d="m283.5 562.66c-24.397-2.7229-35.836-5.0561-51.832-10.572-65.584-22.614-113.41-75.776-129.24-143.65-3.7917-16.262-6.0407-45.839-4.2904-56.427l.61668-3.7305 7.6804 4.58.43819 14.941c.60198 20.525 4.5401 45.441 7.1821 45.441.69674 0 8.116-7.7625 16.487-17.25s15.826-17.189 16.567-17.115c.74049.0744 6.3022 3.2158 12.359 6.9809 10.335 6.4239 10.906 6.9467 9.2718 8.4849-.95771.90159-11.979 10.717-24.491 21.812s-22.75 20.561-22.75 21.037c0 1.6734 5.866 13.911 10.612 22.14 2.6402 4.5772 8.1508 12.842 12.246 18.367 8.0765 10.896 29.466 32.937 31.353 32.308.6405-.2135 8.1168-21.285 16.614-46.826s15.552-46.564 15.676-46.718 6.0901 3.3807 13.256 7.8554l13.029 8.1358-19.521 39.645c-10.737 21.805-20.472 41.828-21.635 44.496l-2.1132 4.8516 2.9914 2.39c5.9846 4.7814 28.723 15.594 41.731 19.844 14.872 4.8588 32.009 8.4827 41.76 8.831l6.5.23215-.31215-15.25c-.17168-8.3875.0533-15.225.5-15.194.44668.0307 4.6016 2.6452 9.2332 5.81l8.4211 5.7542.0789 9.44.0789 9.44 6.5-.23215c9.6987-.34638 26.865-3.9644 41.5-8.747 18.295-5.9784 44.5-19.416 44.5-22.82 0-.72793-9.6887-21.06-21.53-45.182s-21.177-44.212-20.744-44.645c1.1635-1.1635 23.566-14.993 24.621-15.198.4972-.097 7.9634 20.946 16.592 46.761 8.6282 25.816 16.212 47.112 16.852 47.326 1.9017.63391 23.305-21.451 31.491-32.494 7.8427-10.579 16.892-25.852 20.764-35.043 2.1151-5.0206 2.1384-5.366.48517-7.1928-.95514-1.0554-12.04-11.041-24.633-22.19s-22.894-20.512-22.892-20.807c.005-.47532 15.902-10.628 21.485-13.721 1.9849-1.0997 3.2696.10248 17.901 16.75 8.6696 9.8641 16.338 17.935 17.041 17.935 2.6679 0 6.5995-24.933 7.1748-45.5l.41957-15 7.711-5.4281.63099 4.6036c1.6585 12.1-.47155 40.109-4.2981 56.52-5.0954 21.853-15.16 45.886-26.604 63.529-31.318 48.28-81.118 80.294-137.97 88.692-10.649 1.573-29.703 2.6458-35.5 1.9988zm-13-62.243-16.5-11.677.008-28.748c.0774-265.77.53201-341.75 2.0452-341.75.85428 0 9.0668 5.1026 18.25 11.339s17.2 11.626 17.814 11.977c.61458.35094 8.8624-4.3016 18.328-10.339 9.4661-6.0374 18.056-10.977 19.089-10.977 1.8256 0 1.8934 3.7971 2.425 135.75.30077 74.662.788 150.48 1.0827 168.49.33513 20.476.16988 33.426-.44112 34.568-.53734 1.004-9.78 7.8318-20.539 15.173l-19.562 13.347v11.135c0 11.307-.67848 13.619-3.95 13.459-.8525-.0415-8.975-5.33-18.05-11.752zm-115.21-135.99-65.706-41.687-.04353-10.75c-.02394-5.9125.12256-10.75.32556-10.75s5.8855 2.2675 12.628 5.039c6.7422 2.7714 12.539 4.7591 12.881 4.417s.76013-64.485.92857-142.54c.26035-120.65.51551-141.92 1.7025-141.92.76792 0 24.814 15.526 53.436 34.502l52.04 34.502.48531 132.25c.26692 72.736.60769 142.6.75728 155.25.26454 22.371.21727 23.005-1.728 23.187-1.1443.10688-30.112-17.648-67.706-41.5zm204.68 40.604c-.30305-.78975-.29437-11.303.0193-23.363s.89365-81.052 1.2889-153.32l.71855-131.39 4.5-3.775c8.7328-7.3258 98.256-68.047 99.867-67.737 1.4987.28844 1.6741 12.004 2.133 142.47.275 78.184.79617 142.45 1.1582 142.81.36199.36183 6.1866-1.6239 12.944-4.4127 9.214-3.8029 12.483-4.7591 13.077-3.8248.43509.68516.79741 5.2957.80516 10.246l.0141 9-66.016 41.848c-36.309 23.017-66.903 42.08-67.987 42.363-1.1748.30721-2.1928-.0645-2.5213-.92066z"
            fill="#887467" />
        <path
            d="m263 559.8c-15.75-2.7774-22.711-4.5797-35.342-9.151-67.788-24.534-117.38-85.468-127.71-156.9-1.8461-12.775-2.8308-35.735-1.7698-41.265l.81838-4.2652 7.1967 4.8963.61768 15.817c.75092 19.229 4.1422 41.795 6.7112 44.657.41449.46177 7.8908-7.2615 16.614-17.163 8.7232-9.9013 16.101-18.042 16.396-18.09 1.1282-.18393 22.465 13.645 22.465 14.56 0 .53058-10.575 10.354-23.5 21.83s-23.65 21.488-23.834 22.249c-.97168 4.0262 15.62 32.496 27.551 47.274 7.6267 9.4467 24.958 26.275 26.524 25.753.64854-.21618 8.1708-21.174 16.716-46.573 8.5454-25.399 15.925-46.18 16.399-46.18 1.4304 0 23.805 14.257 24.268 15.463.23643.61613-9.0323 20.365-20.597 43.887s-21.024 43.528-21.021 44.458c.003.93026 1.466 2.5441 3.25 3.5862 13 7.5938 18.329 10.366 27.267 14.184 16.71 7.1378 37.492 12.412 55.385 14.057l7.4082.68081-.70184-15.732c-.5864-13.145-.47781-15.597.66011-14.908.74908.45327 4.8187 3.0402 9.0436 5.7487l7.6817 4.9245v19.938l7.25-.66611c17.729-1.6289 38.576-6.9295 55.227-14.042 8.9379-3.8179 14.267-6.5903 27.267-14.184 1.784-1.0422 3.2465-2.6592 3.25-3.5935.003-.93429-9.6921-21.409-21.546-45.5-21.503-43.702-21.547-43.805-19.358-45.301 1.2069-.825 7.053-4.5108 12.991-8.1907l10.797-6.6907 1.5619 4.6907c17.939 53.872 30.394 89.635 31.325 89.946 1.5605.52016 18.904-16.325 26.518-25.755 11.938-14.786 28.52-43.244 27.551-47.28-.18366-.7646-11.134-10.962-24.334-22.66s-24.11-21.56-24.244-21.915c-.34604-.91561 22.611-14.75 23.472-14.145.391.275 7.8618 8.5278 16.602 18.34s16.23 17.462 16.644 17c2.6079-2.9054 5.9788-25.555 6.7121-45.1l.61005-16.26 3.4043-2.104c1.8724-1.1572 3.7182-1.7899 4.1017-1.406 1.1802 1.1812.68099 31.473-.68447 41.53-7.9771 58.754-39.732 108.89-89.33 141.05-39.618 25.683-89.845 36.345-134.29 28.508zm7.5-59.381-16.5-11.677.008-28.748c.076-261.12.54384-341.75 1.9831-341.75.82012 0 9.5041 5.4346 19.298 12.077l17.807 12.077 17.24-11.077c9.482-6.0923 18.102-11.077 19.156-11.077 1.8757 0 1.9274 2.8534 2.4682 136.25.3038 74.938.79258 150.76 1.0862 168.49.32316 19.518.15947 32.941-.41478 34.014-.52173.97485-9.7646 7.8069-20.54 15.182l-19.591 13.41v11.126c0 11.298-.67897 13.61-3.95 13.451-.8525-.0415-8.975-5.33-18.05-11.752zm-115.2-135.99-65.701-41.684-.04933-10.75c-.02713-5.9125.11676-10.75.31976-10.75s5.8855 2.2675 12.628 5.039c6.7422 2.7714 12.539 4.7591 12.881 4.417s.76013-64.485.92857-142.54c.26095-120.93.5136-141.92 1.7083-141.92.7711 0 24.818 15.545 53.436 34.544l52.034 34.544.4853 132.21c.26691 72.713.60768 142.56.75727 155.21.26455 22.372.21734 23.005-1.728 23.184-1.1415.10511-30.201-17.708-67.701-41.5zm204.67 40.607c-.30305-.78975-.29437-11.303.0193-23.363s.89365-81.052 1.2889-153.32l.71855-131.39 4.5-3.7635c2.475-2.0699 25.591-18.221 51.368-35.892 33.551-23 47.392-31.963 48.711-31.544 1.778.56433 1.8537 5.6175 2.1322 142.45.15879 78.024.58489 142.16.94688 142.52s6.1866-1.6239 12.944-4.4127c9.214-3.8029 12.483-4.7591 13.077-3.8248.43509.68516.79741 5.2957.80516 10.246l.0141 9-66.016 41.848c-36.309 23.017-66.903 42.08-67.987 42.363-1.1748.30721-2.1928-.0645-2.5213-.92066z"
            fill="#725b4d" />
        <path
            d="m274.5 561.62c-1.375-.25198-7.675-1.3893-14-2.5274-19.855-3.5726-36.178-8.9104-53.014-17.336-51.073-25.561-88.618-71.742-102.98-126.67-4.3223-16.529-6.0981-30.923-6.1288-49.68-.0147-8.9877.11972-16.472.29872-16.633.17899-.16027 2.0129.78733 4.0754 2.1058l3.75 2.3972.009 10.735c.0139 17.175 4.1354 46.779 6.897 49.541.81146.81146 1.4696.71804 2.4556-.34855.74084-.80143 7.9725-8.9996 16.07-18.218 9.1111-10.372 15.17-16.498 15.896-16.07 5.6463 3.328 21.672 13.568 21.672 13.848 0 .4226-42.182 38.159-45.625 40.816-1.3064 1.0084-2.3753 2.7178-2.3753 3.7987 0 2.6537 8.5815 19.82 14.477 28.96 2.628 4.0742 7.6989 11.157 11.269 15.74 7.3441 9.4278 25.983 28.168 28.016 28.168 1.8042 0 1.9333-.34958 18.358-49.748 7.9089-23.786 14.725-43.249 15.147-43.25.90992-.002 21.641 12.769 23.555 14.511 1.0782.98124-1.6703 7.2837-14.869 34.095-17.136 34.81-26.954 55.147-26.954 55.834 0 1.0096 15.489 9.9277 25.191 14.504 20.176 9.517 49.162 17.054 65.589 17.054h3.4626l-.41558-15.468-.41559-15.468 2.6444 1.7178c1.4544.94477 5.4078 3.5178 8.7852 5.7178l6.1409 4 .018 19.5h3.341c16.303 0 45.36-7.569 65.468-17.054 9.1758-4.3285 25.191-13.478 25.191-14.393 0-.84325-7.9596-17.486-18.2-38.054-6.2982-12.65-14.644-29.626-18.547-37.724l-7.096-14.724 12.487-7.6609c6.9207-4.2459 12.843-7.2666 13.286-6.7764.43961.48645 7.447 20.909 15.572 45.384s15.177 45.288 15.67 46.25 1.4618 1.75 2.1513 1.75c1.9626 0 20.737-18.935 27.93-28.168 3.5697-4.5825 8.6406-11.665 11.269-15.74 5.8959-9.1403 14.477-26.307 14.477-28.96 0-1.0809-1.0716-2.7903-2.3814-3.7987s-12.369-10.764-24.577-21.679l-22.195-19.846 11.166-6.9045c6.1414-3.7975 11.545-6.9045 12.009-6.9045.46344 0 7.4638 7.5375 15.556 16.75 8.0925 9.2125 15.32 17.406 16.061 18.207.98595 1.0666 1.6441 1.16 2.4556.34855 2.7948-2.7948 6.8833-32.409 6.897-49.957l.009-11.151 3.626-2.1394c1.9943-1.1767 3.8283-1.9372 4.0754-1.69 1.1154 1.1154.25076 34.156-1.153 44.057-10.12 71.386-59.466 132.74-126.53 157.32-22.477 8.2381-39.89 11.451-64.014 11.811-10.175.15183-19.625.0699-21-.18208zm-1.9697-60.454c-8.5083-6.0032-16.197-11.703-17.086-12.667-1.4801-1.6045-1.5784-17.223-1.164-184.88.24897-100.72.79512-183.68 1.2137-184.36.53493-.86554 6.046 2.3666 18.55 10.879 9.7839 6.6608 18.313 12.11 18.954 12.11s8.9603-4.9716 18.488-11.048c9.5272-6.0764 17.908-10.823 18.625-10.548 1.0578.40593 1.4054 26.035 1.8485 136.3.30015 74.689.78809 150.14 1.0843 167.66.44656 26.418.29742 32.231-.87275 34.017-.77624 1.1847-10.003 7.9962-20.504 15.137l-19.092 12.983-.037 11.095c-.0315 9.4491-.30831 11.341-1.8658 12.75-1.0058.91025-2.0183 1.6178-2.25 1.5723-.23169-.0455-7.3826-4.9943-15.891-10.997zm-116.53-137.03-66-41.946-.28498-9.9722c-.18842-6.5932.07753-9.9722.78487-9.9722.58842 0 6.2302 2.099 12.537 4.6643 6.3071 2.5654 11.804 4.328 12.215 3.917.41122-.41103.97267-64.497 1.2477-142.41.44167-125.14.67499-141.65 2-141.49.825.09516 24.675 15.62 53 34.5l51.5 34.327.71764 132.5c.3947 72.875.97483 142.11 1.2892 153.85.5479 20.467.15919 24.399-2.3793 24.068-.34516-.045-30.328-18.957-66.628-42.028zm204.58 40.71c-.84294-1.0157-1.0044-7.2572-.58837-22.75.31529-11.743.78623-80.391 1.0465-152.55l.47325-131.2 4.7566-4.0972c9.05-7.7955 98.67-68.661 100.44-68.216 1.6074.40302 1.7322 9.2793 2 142.24.15711 77.995.63139 142.16 1.054 142.58s6.1952-1.4224 12.828-4.0996c10.02-4.0444 12.217-4.6253 12.987-3.435.50987.78793.81221 5.1854.67188 9.7722l-.25516 8.3396-66.907 42.41c-36.799 23.326-67.006 42.41-67.128 42.41s-.74368-.62986-1.3826-1.3997z"
            fill="#624737" />
        <path
            d="m276.5 561.13c-46.388-5.3368-83.904-22.343-115.93-52.551-30.478-28.752-49.687-63.303-58.64-105.48-2.1717-10.23-2.7129-15.913-3.1521-33.101-.29165-11.412-.18997-20.75.22594-20.75.41592 0 2.22.90466 4.009 2.0104l3.2528 2.0104.0752 14.518c.0791 15.269.13221 15.793 3.2926 32.461 2.5413 13.404 2.7267 14 4.3528 14 .74546 0 8.4318-8.0514 17.081-17.892l15.725-17.892 10.602 6.5078c5.831 3.5793 10.947 6.8232 11.369 7.2087.42167.38551-8.1268 8.5459-18.997 18.134s-22.015 19.554-24.767 22.146l-5.0034 4.7122 5.7369 11.375c7.3527 14.579 17.298 29.367 27.885 41.462 9.789 11.184 21.709 21.808 23.01 20.507.83008-.83008 19.603-55.876 27.545-80.768 1.9303-6.05 3.8532-11.363 4.2732-11.806.41993-.44353 6.2069 2.6204 12.86 6.8086 10.969 6.9053 12.018 7.8193 11.255 9.8064-.463 1.2052-4.1041 8.7164-8.0914 16.691-13.375 26.752-33.973 69.177-33.973 69.974 0 3.2318 26.693 17.03 44.167 22.83 16.957 5.6291 28.875 8.1098 40.486 8.4272l9.8468.26919-.6916-29.856 2.3458 1.5274c1.2902.84009 5.0984 3.2439 8.4627 5.3417l6.1169 3.8143-.23374 19.172 9.8468-.26919c11.611-.31743 23.529-2.7982 40.486-8.4272 17.474-5.8005 44.167-19.598 44.167-22.83 0-.75408-17.601-37.027-34.873-71.867-4.4699-9.0165-8.1141-16.891-8.0984-17.5.0226-.8721 20.645-14.094 24.052-15.421.44479-.17323 2.5985 5.2268 4.786 12 9.5593 29.598 27.185 81.267 28.001 82.083 1.3002 1.3002 13.221-9.324 23.01-20.507 10.587-12.095 20.532-26.883 27.885-41.462l5.7369-11.375-5.0034-4.7122c-2.7518-2.5917-13.889-12.551-24.75-22.131-10.861-9.5802-19.747-17.737-19.747-18.125s4.9898-3.7482 11.088-7.4652c10.785-6.5735 11.136-6.7068 12.844-4.8745.96543 1.0361 8.1757 9.1962 16.023 18.134 7.8471 8.9375 14.862 16.25 15.589 16.25 1.5896 0 1.7837-.62917 4.3188-14 3.1753-16.747 3.2291-17.285 3.2876-32.793l.0557-14.772 3.383-2.2176c1.8606-1.2197 3.6695-2.2176 4.0196-2.2176.35014 0 .39996 9.5625.11072 21.25-.60082 24.278-2.7151 36.797-9.7865 57.951-15.417 46.119-47.617 85.288-89.783 109.21-33.203 18.84-76.738 28.422-111.15 24.463zm-5.7319-61.473-16.232-11.474.38747-103.22c.21311-56.769.42997-139.78.4819-184.47.0653-56.178.41943-81.25 1.1477-81.25.57928 0 8.5668 5.1026 17.75 11.339s17.2 11.626 17.814 11.977c.61458.35094 8.8624-4.3016 18.328-10.339 9.4661-6.0374 17.851-10.977 18.633-10.977 1.4601 0 1.4147-5.1672 1.9995 227.5.0429 17.05.4387 48.373.87965 69.607.50357 24.249.44641 39.242-.15368 40.314-.52548.93898-9.6963 7.6886-20.38 14.999l-19.424 13.292-.5 11.894c-.4615 10.978-.65401 11.908-2.5 12.083-1.1542.10928-8.8641-4.6626-18.232-11.284zm-114.77-135.89-65-41.322-.28455-10.056-.28455-10.056 12.186 5.0091c8.8596 3.6418 12.486 4.7089 13.285 3.9093.78202-.78282 1.0987-27.098 1.0987-91.299 0-159.64.31928-192.89 1.8485-192.52.74165.17783 24.312 15.548 52.379 34.156l51.03 33.833.54416 94.167c.29929 51.792.54139 111.04.53801 131.67-.003 20.625.27975 47.962.62916 60.75.60078 21.987.5374 23.246-1.167 23.168-.99124-.0451-31.052-18.677-66.802-41.404zm204.78 18.236c.2125-12.788.62607-81.959.91906-153.72l.5327-130.47 3.7109-3.2078c5.7116-4.9373 98.471-68.362 99.981-68.362 1.0947 0 1.4484 17.109 1.99 96.25.36223 52.938.52953 116.81.37177 141.95-.20768 33.09.0262 46.013.84774 46.835.84628.84657 4.2271-.1414 13.305-3.8881 8.8034-3.6334 12.305-4.6711 12.659-3.751.26848.69966.35624 5.0481.19502 9.6633l-.29313 8.3912-65.907 41.775c-36.249 22.976-66.535 41.775-67.302 41.775-1.1642 0-1.331-3.8442-1.0085-23.25z"
            fill="#492a17" />
    </g>
</svg>