<svg viewBox="0 0 64 64" xmlns="http://www.w3.org/2000/svg"><path d="m23.89 10.62c1.05-1.87 2.03-3.78 3.16-5.61-.13.72-.4 2.17-.54 2.89.93 1.17 2.04 2.17 3.2 3.1.28.63.83 1.88 1.1 2.51-.05 1.03-.09 2.06-.12 3.09-.26 4.47-2.37 8.82-5.76 11.8.41-3.16 1.36-6.24-.01-9.33 1.65-1.94.85-3.36-1.26-4.21 1.68.05 3.32.39 4.8 1.21-1.42-1.93-3.66-3.14-4.57-5.45z"/><path d="m37.76 7.61c-.32-.97-.63-1.94-.91-2.92 1.17 2.08 3.05 4.14 3.07 6.65-.97 1.98-3.03 3.08-4.44 4.69 1.24-.28 3.72-.83 4.97-1.11-.66.4-1.97 1.19-2.63 1.58.53.81 1.06 1.62 1.59 2.42-.7 2.12-1.75 4.45-.51 6.6.02.72.06 2.16.07 2.88-2.74-3.05-5.2-6.73-5.31-10.96l-.57-1.05c.2-.28.6-.82.8-1.09-.24-.47-.71-1.4-.94-1.86 1.18-2.28 3.17-3.9 4.81-5.83z"/><path d="m42.12 11.61c.29.6.86 1.79 1.15 2.39 1.2-.01 2.39-.01 3.59-.02 1.76 2.45 6.18 3.95 5.33 7.46 2.21 4.21 3.55 8.81 5.76 13.03.24 3.36-.51 6.97 1.17 10.07.18-3.29-.02-6.58-.06-9.87.9-1.4 1.72-2.85 2.53-4.3 3.29 4.63.18 10.49.43 15.64.3 2.99-.89 5.7-2.39 8.19-2.5-.75-4.91-1.73-7.41-2.46-2.75-9.94-5.79-19.81-8.42-29.79-.33-1.4-1.5-2.36-2.42-3.39.67-2.26.84-4.61.74-6.95z"/><path d="m17.28 14.06c1.78-.02 3.74.14 4.77-1.65-.15 2.05-.07 4.14.85 6.01-.92.97-2 1.89-2.4 3.22-2.93 10.04-5.62 20.16-8.71 30.16-2.48.48-4.71 1.91-7.23 2.17-3.11-3.64-2.24-8.68-2.88-13.06-.42-3.54-1.73-7.59.83-10.65.74 1.44 1.51 2.87 2.45 4.19.27 3.32-.71 6.89.83 9.99.36-3.13.02-6.29.33-9.41 1.67-5.31 5.19-10.13 5.79-15.7 1.73-1.82 3.54-3.56 5.37-5.27z"/><path d="m27.4 49.46c1.98-8.59 2.6-17.53 5.45-25.88.44 8.97 3.29 17.64 4.21 26.56-1.82 2.69-3.22 5.64-4.6 8.58-1.88-2.98-3.52-6.1-5.06-9.26z"/><path d="m19.97 39.06c2.58-3.1 5.18-6.19 7.7-9.34-.63 3.79-1.48 7.57-1.75 11.42-1.55.93-3.13 1.79-4.72 2.63-.31-1.6-.73-3.17-1.23-4.71z"/><path d="m36.71 30.15c2.58 2.81 4.75 5.98 7.44 8.7-.48 1.61-.96 3.22-1.42 4.83-1.59-.86-3.16-1.74-4.69-2.69.09-3.67-1.11-7.19-1.33-10.84z"/></svg>