<svg viewBox="0 0 1000 1000" xmlns="http://www.w3.org/2000/svg">
    <path
        d="m555.24 76.3c2.43.36 4.41 1.99 6.65 2.92 59.45 29 113.9 69.93 153.94 122.95 22.19 29.3 39.9 62.05 51.69 96.88 6.63 19.71 11.51 40.08 13.47 60.8 2.89-17.81 4.4-35.86 4.62-53.9.19-25.83-2.54-52.01-11.27-76.45-4.44-12.52-10.8-24.4-19.35-34.59 26.85 19.51 48.62 46.26 61.07 77.12 15.13 36.88 17.34 77.86 12.37 117.06-4.77 37.36-15.61 73.77-30.03 108.5-6.74 16.06-14.18 31.87-22.89 46.97-1.89 3.03-3.45 6.49-6.52 8.54-11.09 8.41-23.42 15.02-35.97 20.97-6.06 2.75-12.12 5.63-18.55 7.43 2.53-12.47 4.5-25.77.29-38.1-1.69-5.4-5.54-10.57-4.22-16.49 7.89-43.76 9.65-89.09.78-132.83-6.58-31.62-18.34-62.96-38.92-88.22.04.69.13 2.07.17 2.76l.93-.52c10.24 16.79 18.89 34.62 24.76 53.43 15.95 49.96 12.93 105.34-6.71 153.82-1.66 3.62-2.87 7.54-5.3 10.74 12.38-42.09 14.3-87.71 2.69-130.21-9.16-34.05-26.74-65.51-49.43-92.38-19.25-22.78-41.94-42.63-66.95-58.85-4.79-3.03-9.59-6.06-14.65-8.59 6.21 5.84 13.21 10.83 19.55 16.56 27.7 23.98 53.54 50.59 73.56 81.42 19.24 29.6 32.73 64.18 31.86 99.92-.51 33.74-14.48 66.27-35.72 92.13-13.05 15.98-28.59 29.95-45.91 41.17-15.92 10.78-35.03 16.52-54.23 16.8-32.28.5-63.63-10.99-91.18-27.14.45 9.28-4.85 17.49-10.3 24.53-3.65 4.54-7.59 8.89-12.1 12.59 6.03-17.03 10.56-34.86 10.64-53.03-.07-9.56-1.23-19.43-5.65-28.05 10.93 10.1 22.25 19.9 34.94 27.74 18.17 11.44 39.03 19.35 60.66 19.89 20.48.66 40.84-5.54 58.18-16.29 8.42-5.03 15.86-11.46 23.33-17.78.74-.65 1.2-1.47 1.36-2.46-1.84 1.56-3.38 3.44-5.15 5.06-1.48.18-2.13 1.53-3.12 2.41-11.36 8.9-25.32 14.47-39.73 15.58-18.48 1.47-37.07-3.41-53.42-11.87-2.64-1.48-5.47-2.75-7.66-4.88 15.5 3.42 32.11 3.36 47.04-2.46 15.15-5.75 27.7-16.82 37.45-29.55 7.77-9.95 13.79-21.09 20.21-31.92 1.97-3.79 4.13-8.26 2.71-12.58-1.09-2.91-4.8-2.93-7.15-1.72-6.56 3.15-10.65 9.57-14.1 15.7-3.22 5.77-8.29 11.1-15 12.44-7.43 1.52-14.98-1.9-20.35-6.88-3.79-3.35-5.96-7.99-8.7-12.13-16.28-25.54-36.43-49-61.19-66.66-11.9-8.54-24.98-15.47-38.9-20.07 34.47 3.1 66.09 19.87 93.36 40.35 6.1 4.54 11.84 9.51 17.65 14.4 3.63 3.08 9.13 2.09 12.58-.78 4.71-3.39 6.45-9.21 8.04-14.5 5.1-18.74 2.89-39.05-4.7-56.8-7.8-18.46-21.02-34.16-36.16-47.08-26.05-22.4-58.44-37.37-92.49-42.21-27.57-3.96-56.06-2.29-82.83 5.46 1.82.49 3.42-.54 5.11-1.02 20.9-4.54 42.79-5.45 63.79-.96 35.43 7.4 67.05 30.54 85.52 61.56-8.64-6.62-17.12-13.52-26.45-19.18-20.05-12.62-42.6-21.63-66.18-24.58-25.67-3.37-52 .72-75.98 10.23-31.2 12.44-59.09 32.7-81.72 57.41 1.85-.88 3.06-2.51 4.46-3.93 20.45-18.69 44.12-34.08 70.11-43.86 27.76-10.53 58.03-14.7 87.56-11.25 6.3.81 12.65 1.75 18.73 3.68-13.53 2.65-25.78 9.73-36.28 18.47-2.94 2.36-5.58 5.08-8.58 7.37-27.94-3.81-56.93 1.41-82 14.25-18 9.28-34.58 21.77-47.51 37.42 9.97-8.93 20.07-18.49 32.9-23.14 4.46-1.48 9.99-2.6 14.07.45 3.69 3 3.57 8.36 2.59 12.59-2.59 11.13-10.58 19.68-16.31 29.23-24.53 39.41-34.95 86.68-32.64 132.81 3.18 67.55 33.46 133.34 82.75 179.64 24.51 23.21 53.5 41.56 84.71 54.36 35.21 14.51 73.08 22.02 111.05 23.97 31.92 2.04 64.06-2.57 94.53-12.13 33.02-10.33 64.26-26.02 92.92-45.33 21.96-14.88 42.58-31.87 60.54-51.43 21.76-23.57 40.83-49.69 56.05-77.94 7.26-13.88 14.29-28.05 18.71-43.12-.16 4.18-1.59 8.15-2.61 12.16-9.39 32.72-26.61 62.75-47.37 89.55-33.21 42.51-75.84 77.56-123.68 102.42-32.21 16.68-67.04 28.55-102.99 33.76-34.83 4.97-70.46 3.48-105.01-2.93-37.32-7.08-73.31-21.27-105.27-41.84-49.7-31.86-89.32-78.04-116.93-129.96-5.88-11.1-11.21-22.51-15.73-34.23 1.39 18.39 6.87 36.27 13.75 53.3 23.28 55.93 66.27 102.94 118.63 133.08 30.23 17.45 63.6 29.25 97.9 35.48 31.8 5.8 64.36 6.97 96.55 4.44 35.38-2.86 70.3-11.44 102.9-25.5 51.77-22.2 97.02-57.83 134.01-100.02 33.14-37.9 60.55-80.81 81.21-126.71 1.13-2.11 1.26-4.59 2.52-6.64.25 2.35-1.33 4.28-2.03 6.42-17.33 44.43-40.08 86.97-69.46 124.64-33.05 42.56-74.93 78.52-123.04 103.01-61.23 31.46-131.6 43.9-200.02 37.65-39.79-3.62-79.14-13.28-115.71-29.49-26.06-11.63-50.84-26.62-71.89-45.99-14.42-13.33-27.07-28.88-35.5-46.71-1.69-3.18-3.41-6.96-6.98-8.36-2.12-.42-3.18 1.87-3.46 3.58-.91 5.86 1.51 11.52 3.65 16.85 8.16 18.99 20.47 35.77 32.72 52.28-24.04-18.48-42.88-42.9-58.52-68.67-18.98-31.69-33.35-66.02-43.99-101.35-1.2-3.97-2.39-7.95-3.05-12.05.86 12.73 3.69 25.25 6.29 37.73 8.53 38.11 22.89 74.99 43.1 108.44 33.51 55.94 83.11 101.18 139.42 133.55 47.07 26.96 98.51 46.57 151.79 56.86-60.49-7.72-120.44-23.02-175.83-48.89-54.46-25.41-104.23-62.17-141.24-109.82-21.76-27.88-39.05-59.23-51.05-92.5-30.31-83.97-27.34-178.97 6.09-261.57 15.15-37.23 36.88-72.13 65.79-100.25 2.45-2.64 4.58-8.63.31-10.53-5.1-.72-9.45 2.79-13.58 5.25-28.83 18.31-54.11 42.11-74.37 69.59-30.72 41.6-50.26 90.82-59.83 141.48-2.24 11.79-3.78 23.7-4.81 35.66-7.1-25.62-9.37-52.51-7.57-79 2.72-39.17 14.81-77.38 33.19-111.97 28.17-52.86 70.26-97.79 119.56-131.56 30.23-20.64 63.39-37.13 98.38-47.98 39.09-12.13 80.72-17.07 121.43-11.8 28.12 3.52 55.49 12.3 80.62 25.35-12.13-13.6-29.04-21.86-46.05-27.67-14.2-4.8-28.99-7.61-43.84-9.48 46.04-6.75 93.65 2.84 134.81 24.1 38.22 19.67 71.92 47.79 99.08 81.04-9.17-28.21-30.68-50.8-55-66.93 17.8 7.1 34.68 16.95 48.74 30.05 4.35 3.9 7.96 9.69 14.3 10.34 4.83.55 8.54-4.01 8.85-8.49.85-6.3-3.23-11.58-6.22-16.68-16.91-27.27-39.11-50.83-62.74-72.37-24.37-22.01-50.59-41.95-78.04-59.98-1.48-1.1-3.47-1.31-4.68-2.78z" />
</svg>