<svg height="1024" viewBox="0 0 1024 1024" width="1024" xmlns="http://www.w3.org/2000/svg"><path d="m404.603 93.775c-50.971 50.971-92.839 97.39-92.839 101.941 0 5.461 45.509 54.611 100.12 109.222l100.12 100.12 101.941-102.85 102.85-101.941-100.12-100.12c-54.611-54.611-103.761-100.12-109.222-100.12s-50.971 41.869-102.85 93.749zm-250.3 259.403c-53.701 53.701-97.39 101.941-97.39 106.491 0 11.832 183.857 195.689 195.689 195.689 5.461 0 54.611-45.509 109.222-100.12l100.12-100.12-100.12-100.12c-54.611-55.522-101.941-100.12-104.671-100.12s-49.15 43.689-102.85 98.299zm507.883 1.82-100.12 100.12 100.12 100.12c54.611 54.611 103.761 100.12 109.222 100.12 11.832 0 195.689-183.857 195.689-195.689 0-9.102-192.049-204.791-200.24-204.791-2.73 0-50.06 44.599-104.671 100.12zm-265.774 274.875-111.042 111.952.91 138.348c0 76.456 2.73 139.259 6.371 139.259 2.73 0 53.701-48.239 111.952-106.491l107.401-107.401 218.445 218.445 1.821-81.916c1.821-45.509 1.821-111.042 0-145.629l-1.821-63.713-107.401-107.401c-58.252-58.252-108.312-106.491-111.042-106.491s-54.611 50.06-115.593 111.042z"/></svg>