<svg viewBox="0 0 513 1024" xmlns="http://www.w3.org/2000/svg"><path d="m15.924 30.658c.61-10.273 1.219-20.458 1.916-30.645 28.206 8.967 58.067 5.92 87.231 7.748-.522 4.092-1.48 12.362-1.916 16.454-29.164 1.132-58.503.348-87.231 6.442zm312.1-29.164c22.721 1.132 45.618.174 68.34 1.742-.087 5.311-.261 15.844-.261 21.155-18.718 12.449-48.142 2.003-71.039 2.786.784-6.442 2.176-19.239 2.96-25.682zm89.756 5.571c26.466-.348 53.105-.087 78.961-6.616.087 10.012.174 20.11.348 30.209-26.03-4.962-52.495-5.659-78.874-5.746-1.829-2.09-5.572-6.182-7.4-8.27 1.742-2.35 5.224-7.225 6.964-9.577zm-301.131-3.918c21.677-1.916 43.615-1.829 65.293-.261 1.045 6.529 3.134 19.588 4.266 26.205-24.724.261-49.361.261-74.086.087 1.132-6.529 3.395-19.501 4.527-26.03zm75.565 3.743c40.481-.087 80.964-.958 121.358-.61 1.306 2.611 3.83 7.661 5.05 10.186-1.48 2.263-4.353 6.703-5.833 8.967-40.307.174-80.528-.871-120.836-.174.087-4.614.261-13.842.261-18.37zm-136.767 41.44c132.588 13.93 266.831 16.628 399.245-1.132 1.306 261.259.087 522.517.522 783.776-20.11 18.37-39.959 37.696-64.422 50.232-35.954 19.588-77.481 25.073-114.133 43.094-40.917 18.108-75.043 48.316-115.699 66.86-33.43 16.28-70.255 23.07-105.861 32.82 1.132-325.159.522-650.404.348-975.65zm277.017 21.677c-.087 6.269-.087 18.891-.087 25.247 36.216-3.395 72.519-6.093 108.735-9.228.174-6.093.522-18.282.697-24.376-36.041 6.703-72.779 8.358-109.344 8.358zm-265.873-7.748c.871 5.572 2.698 16.628 3.569 22.2 36.128 6.703 73.041 6.79 109.605 9.751 0-5.746.087-17.237.174-22.983-37.957-1.219-75.74-3.83-113.349-8.967zm136.245 9.664c-.087 5.833-.174 17.586-.261 23.418 35.693.697 71.387.697 107.08-.087-.871-5.659-2.698-16.889-3.569-22.548-34.388-1.045-68.862.871-103.25-.784zm11.926 256.122c-20.458 12.362-40.917 24.463-61.375 36.738-11.578-4.962-22.635-12.275-35.346-13.755-22.897 2.437-42.658 24.724-38.131 48.055 2.263 17.847 20.197 26.379 32.124 37.435 0 23.679-.174 47.36-1.219 71.039-23.244 10.882-43.094 38.392-24.985 62.855 14.452 25.334 46.924 22.2 67.208 6.093 20.11 12.188 40.307 24.115 60.766 35.606.61 23.244 8.793 52.321 35.867 55.891 31.08 5.746 50.232-27.074 47.185-54.498 20.458-12.71 41.265-24.811 62.246-36.651 9.141 4.875 18.544 9.141 28.206 12.797 28.642 4.092 55.369-30.383 41.091-56.587-5.311-12.623-18.891-18.457-28.816-26.814-.348-23.853-.261-47.708.61-71.561 23.157-11.317 43.355-39.525 25.334-64.162-14.538-25.073-46.489-20.807-66.599-5.485-20.72-12.101-41.439-24.202-62.072-36.564 3.743-28.119-17.15-61.636-48.665-54.498-26.03 4.005-33.604 31.601-33.43 54.063zm71.475 12.014c21.329 13.146 43.007 25.856 65.031 37.696.174 9.402.348 18.804.522 28.206-29.251 17.237-58.764 34.04-87.754 51.8-.087-33.778-.087-67.557.261-101.335 7.313-5.398 14.625-10.882 21.939-16.367zm-127.539 39.698c21.765-13.233 43.615-26.117 65.554-39.002 7.835 4.875 15.583 9.751 23.418 14.625-.174 33.865-.087 67.731.087 101.682-29.6-16.628-58.677-33.952-88.189-50.755-.174-6.616-.697-19.936-.871-26.553zm-30.993 54.671c7.922-5.05 15.844-10.012 23.766-15.061 29.513 17.76 59.286 34.997 89.843 51.016-30.035 16.889-59.983 33.952-89.233 52.234-8.096-5.05-16.193-9.925-24.202-14.886 0-24.463 0-48.839-.174-73.302zm143.384 36.043c29.861-16.802 59.635-33.691 89.06-51.277 5.92 3.743 17.76 11.143 23.679 14.886-.087 25.073-.174 50.232-.784 75.305-6.007 3.221-18.021 9.664-24.028 12.972-28.903-18.021-58.415-34.91-87.928-51.887zm-110.999 64.16c29.513-16.367 58.503-33.604 87.928-50.145-.435 34.388-.348 68.775-.958 103.163-7.835 4.353-15.67 8.793-23.505 13.146-21.155-13.407-42.745-25.943-64.422-38.131.261-9.402.61-18.718.958-28.032zm103.598-50.666c29.077 17.063 58.067 34.301 87.667 50.493.087 9.402.174 18.718.348 28.119-21.068 12.101-41.962 24.637-62.333 38.044-8.619-4.788-17.237-9.577-25.856-14.278.697-34.127.697-68.253.174-102.379z"/></svg>