<svg height="256" viewBox="0 0 64 128" width="128" xmlns="http://www.w3.org/2000/svg"><path d="m4.33 8.62c.07-1.18.14-2.35.22-3.52 3.24 1.03 6.67.68 10.02.89-.06.47-.17 1.42-.22 1.89-3.35.13-6.72.04-10.02.74z"/><path d="m40.18 5.27c2.61.13 5.24.02 7.85.2-.01.61-.03 1.82-.03 2.43-2.15 1.43-5.53.23-8.16.32.09-.74.25-2.21.34-2.95z"/><path d="m50.49 5.91c3.04-.04 6.1-.01 9.07-.76.01 1.15.02 2.31.04 3.47-2.99-.57-6.03-.65-9.06-.66-.21-.24-.64-.71-.85-.95.2-.27.6-.83.8-1.1z"/><path d="m15.9 5.46c2.49-.22 5.01-.21 7.5-.03.12.75.36 2.25.49 3.01-2.84.03-5.67.03-8.51.01.13-.75.39-2.24.52-2.99z"/><path d="m24.58 5.89c4.65-.01 9.3-.11 13.94-.07.15.3.44.88.58 1.17-.17.26-.5.77-.67 1.03-4.63.02-9.25-.1-13.88-.02.01-.53.03-1.59.03-2.11z"/><path d="m8.87 10.65c15.23 1.6 30.65 1.91 45.86-.13.15 30.01.01 60.02.06 90.03-2.31 2.11-4.59 4.33-7.4 5.77-4.13 2.25-8.9 2.88-13.11 4.95-4.7 2.08-8.62 5.55-13.29 7.68-3.84 1.87-8.07 2.65-12.16 3.77.13-37.35.06-74.71.04-112.07m31.82 2.49c-.01.72-.01 2.17-.01 2.9 4.16-.39 8.33-.7 12.49-1.06.02-.7.06-2.1.08-2.8-4.14.77-8.36.96-12.56.96m-30.54-.89c.1.64.31 1.91.41 2.55 4.15.77 8.39.78 12.59 1.12 0-.66.01-1.98.02-2.64-4.36-.14-8.7-.44-13.02-1.03m15.65 1.11c-.01.67-.02 2.02-.03 2.69 4.1.08 8.2.08 12.3-.01-.1-.65-.31-1.94-.41-2.59-3.95-.12-7.91.1-11.86-.09m1.37 29.42c-2.35 1.42-4.7 2.81-7.05 4.22-1.33-.57-2.6-1.41-4.06-1.58-2.63.28-4.9 2.84-4.38 5.52.26 2.05 2.32 3.03 3.69 4.3 0 2.72-.02 5.44-.14 8.16-2.67 1.25-4.95 4.41-2.87 7.22 1.66 2.91 5.39 2.55 7.72.7 2.31 1.4 4.63 2.77 6.98 4.09.07 2.67 1.01 6.01 4.12 6.42 3.57.66 5.77-3.11 5.42-6.26 2.35-1.46 4.74-2.85 7.15-4.21 1.05.56 2.13 1.05 3.24 1.47 3.29.47 6.36-3.49 4.72-6.5-.61-1.45-2.17-2.12-3.31-3.08-.04-2.74-.03-5.48.07-8.22 2.66-1.3 4.98-4.54 2.91-7.37-1.67-2.88-5.34-2.39-7.65-.63-2.38-1.39-4.76-2.78-7.13-4.2.43-3.23-1.97-7.08-5.59-6.26-2.99.46-3.86 3.63-3.84 6.21z"/><path d="m35.38 44.16c2.45 1.51 4.94 2.97 7.47 4.33.02 1.08.04 2.16.06 3.24-3.36 1.98-6.75 3.91-10.08 5.95-.01-3.88-.01-7.76.03-11.64.84-.62 1.68-1.25 2.52-1.88z"/><path d="m20.73 48.72c2.5-1.52 5.01-3 7.53-4.48.9.56 1.79 1.12 2.69 1.68-.02 3.89-.01 7.78.01 11.68-3.4-1.91-6.74-3.9-10.13-5.83-.02-.76-.08-2.29-.1-3.05z"/><path d="m17.17 55c.91-.58 1.82-1.15 2.73-1.73 3.39 2.04 6.81 4.02 10.32 5.86-3.45 1.94-6.89 3.9-10.25 6-.93-.58-1.86-1.14-2.78-1.71 0-2.81 0-5.61-.02-8.42z"/><path d="m33.64 59.14c3.43-1.93 6.85-3.87 10.23-5.89.68.43 2.04 1.28 2.72 1.71-.01 2.88-.02 5.77-.09 8.65-.69.37-2.07 1.11-2.76 1.49-3.32-2.07-6.71-4.01-10.1-5.96z"/><path d="m20.89 66.51c3.39-1.88 6.72-3.86 10.1-5.76-.05 3.95-.04 7.9-.11 11.85-.9.5-1.8 1.01-2.7 1.51-2.43-1.54-4.91-2.98-7.4-4.38.03-1.08.07-2.15.11-3.22z"/><path d="m32.79 60.69c3.34 1.96 6.67 3.94 10.07 5.8.01 1.08.02 2.15.04 3.23-2.42 1.39-4.82 2.83-7.16 4.37-.99-.55-1.98-1.1-2.97-1.64.08-3.92.08-7.84.02-11.76z"/></svg>