<svg viewBox="0 0 1024 1024" xmlns="http://www.w3.org/2000/svg"><path d="m360.496 5.527c0 5.043 22.187 16.137 49.417 26.221 61.52 21.178 127.075 84.716 141.193 135.143 27.23 95.809 4.034 147.244-130.1 289.446-120.014 128.082-155.312 192.628-155.312 282.387 1.009 154.305 123.039 251.123 360.043 283.396 53.451 7.059 64.546-7.059 18.153-23.196-41.349-14.119-109.929-78.665-133.125-126.066-60.512-116.989-21.178-260.2 125.057-462.913 113.963-159.347 111.946-266.25-9.077-336.847-67.571-40.341-266.25-89.759-266.25-67.571zm50.427 166.407c-37.315 50.426-54.46 110.938-46.392 161.364 7.059 42.358 26.221 88.75 36.307 88.75 4.034 0 24.205-20.171 44.375-45.383l37.315-44.375-33.282-29.248c-40.341-36.307-44.375-86.733-10.085-132.116 24.205-34.29 27.23-41.349 12.102-41.349-5.043 0-23.196 19.162-40.341 42.358zm209.773 307.601c-8.068 10.085-27.23 37.315-41.349 60.512l-26.221 41.349 43.367 44.375c65.554 64.546 83.708 159.347 51.435 265.242-8.068 27.23-13.111 51.435-11.094 52.444 2.018 2.018 20.171-15.128 41.349-38.324 86.733-95.809 103.879-209.774 47.401-323.736-17.145-35.298-44.375-76.647-60.512-91.776-27.23-26.221-29.248-26.221-44.375-10.085z"/></svg>