<!-- Generated by IcoMoon.io -->
<svg version="1.1" xmlns="http://www.w3.org/2000/svg" width="32" height="32" viewBox="0 0 32 32">
<title>Axi</title>
<path d="M13.841 4.198c0.546-1.331 0.989-2.717 1.097-4.161 0.136 1.419 0.541 2.792 1.102 4.098 0.546-1.303 0.971-2.664 1.089-4.078 0.128 1.444 0.551 2.838 1.117 4.168 4.75 0.858 8.744 4.797 9.577 9.564 1.326 0.579 2.722 1.024 4.173 1.124-1.404 0.156-2.77 0.548-4.065 1.104 1.303 0.538 2.659 0.974 4.068 1.102-1.414 0.141-2.828 0.48-4.093 1.135-0.536 1.758-1.137 3.545-2.307 5.001-1.743 2.387-4.435 3.902-7.27 4.594-0.73 1.233-1.021 2.699-1.192 4.113-0.136-1.396-0.551-2.747-1.094-4.035-0.556 1.283-0.974 2.631-1.102 4.030-0.121-1.441-0.569-2.83-1.14-4.151-3.688-0.697-6.971-3.2-8.571-6.601-0.493-0.931-0.682-1.977-1.052-2.956-1.291-0.662-2.735-1.006-4.178-1.122 1.434-0.118 2.817-0.546 4.133-1.114-1.301-0.546-2.667-0.966-4.080-1.082 1.459-0.113 2.865-0.569 4.201-1.155 0.639-3.306 2.697-6.327 5.612-8.035 1.223-0.745 2.589-1.21 3.975-1.545zM14.332 5.159c0.413 0 0.825 0 1.24-0.003-0.219-0.564-0.425-1.132-0.621-1.706-0.199 0.574-0.405 1.142-0.619 1.708zM17.129 3.44c-0.196 0.576-0.402 1.15-0.619 1.718h1.23c-0.211-0.569-0.418-1.142-0.611-1.718zM5.183 13.367c0.242-0.141 0.73-0.42 0.974-0.561-0.184 1.077-0.131 2.166-0.045 3.248-0.103 1.062-0.121 2.131 0.043 3.187-0.319-0.189-0.641-0.375-0.963-0.558 0.976 3.972 4.241 7.225 8.214 8.198-0.196-0.327-0.395-0.652-0.591-0.976 1.454 0.297 2.923-0.086 4.38 0.118 0.694 0.045 1.386-0.040 2.075-0.113-0.194 0.322-0.385 0.647-0.576 0.971 3.972-0.991 7.212-4.241 8.209-8.211-0.327 0.194-0.654 0.387-0.981 0.584 0.174-1.069 0.146-2.148 0.038-3.22 0.103-1.077 0.143-2.163-0.040-3.235 0.325 0.191 0.652 0.38 0.976 0.571-0.979-3.965-4.224-7.227-8.191-8.201 0.136 0.242 0.408 0.724 0.543 0.966-1.097-0.189-2.201-0.101-3.3-0.033-1.036-0.113-2.083-0.126-3.112 0.043 0.184-0.325 0.367-0.652 0.548-0.979-3.972 0.974-7.205 4.241-8.198 8.201zM3.412 14.937c0.594 0.184 1.18 0.39 1.761 0.611-0.003-0.413-0.005-0.825-0.008-1.238-0.579 0.219-1.162 0.435-1.753 0.626zM26.9 14.308c0.003 0.418 0.005 0.835 0.008 1.253 0.574-0.226 1.15-0.445 1.731-0.644-0.584-0.191-1.162-0.395-1.738-0.609zM3.392 17.115c0.601 0.189 1.2 0.395 1.791 0.611-0.013-0.408-0.023-0.818-0.035-1.225-0.581 0.214-1.167 0.42-1.756 0.614zM26.9 16.499c0.003 0.413 0.003 0.825 0.003 1.238 0.579-0.219 1.16-0.43 1.746-0.631-0.586-0.189-1.17-0.392-1.748-0.606zM14.322 26.886c0.216 0.571 0.428 1.142 0.631 1.718 0.199-0.576 0.405-1.147 0.619-1.713-0.418-0.003-0.833-0.003-1.25-0.005zM16.506 26.889c0.214 0.569 0.423 1.142 0.616 1.721 0.199-0.579 0.413-1.152 0.631-1.723-0.418 0.003-0.833 0.003-1.248 0.003z"></path>
<path d="M15.766 9.775c0.133-0.672-0.138-1.472 0.395-2.015 0.083 0.662 0.065 1.333 0.151 1.992 0.397 1.092 1.288 1.95 1.628 3.064-0.186 0.868-0.732 1.605-1.092 2.405 0.785-0.375 1.522-0.886 2.37-1.117 0.986 0.302 1.768 1.036 2.692 1.484 0.73 0.45 1.711-0.055 2.397 0.526-0.86 0.221-1.834-0.063-2.609 0.453-0.838 0.428-1.56 1.13-2.488 1.351-0.853-0.184-1.57-0.742-2.365-1.082 0.294 0.974 1.514 1.962 0.853 3.019-0.43 0.818-1.031 1.545-1.384 2.405-0.106 0.667-0.068 1.346-0.141 2.015-0.619-0.538-0.206-1.424-0.443-2.108-0.43-0.994-1.202-1.804-1.572-2.825 0.038-0.918 0.75-1.663 1.069-2.503-0.787 0.342-1.502 0.888-2.352 1.069-1.356-0.264-2.289-1.726-3.748-1.66-0.418-0.096-1.119 0.186-1.245-0.418 0.631-0.030 1.268 0.020 1.894-0.078 1.082-0.46 2.013-1.213 3.079-1.713 0.8 0.372 1.592 0.77 2.382 1.167-0.375-0.79-0.928-1.524-1.099-2.395 0.319-1.112 1.215-1.957 1.628-3.036zM16 10.147c-0.382 0.765-0.815 1.502-1.255 2.234 0.438 0.43 0.893 0.843 1.353 1.245 0.108-0.453 0.508-0.657 0.886-0.863-0.299-0.005-0.901-0.015-1.202-0.020 0.576-0.136 1.157-0.247 1.726-0.41-0.574-0.058-1.147-0.086-1.721-0.133 0.496-0.088 0.994-0.159 1.492-0.252-0.473-0.143-0.966-0.184-1.457-0.219 0.377-0.126 0.752-0.257 1.127-0.395-0.292-0.038-0.875-0.111-1.167-0.148 0.189-0.038 0.564-0.113 0.752-0.151-0.186-0.292-0.36-0.589-0.533-0.888zM15.288 15.038c0.231 0.221 0.465 0.443 0.699 0.662 0.226-0.216 0.455-0.435 0.684-0.654-0.231-0.231-0.463-0.463-0.692-0.694-0.231 0.229-0.463 0.458-0.692 0.687zM10.176 16.019c0.279 0.118 0.556 0.236 0.833 0.355 0.543 0.267 1.052 0.599 1.514 0.986-0.003-0.174-0.008-0.523-0.010-0.699 0.141 0.015 0.425 0.048 0.569 0.063-0.025-0.126-0.073-0.377-0.098-0.503 0.181-0.028 0.538-0.086 0.717-0.113-0.423-0.465-0.855-0.921-1.293-1.374-0.747 0.423-1.492 0.853-2.231 1.285zM18.385 16.122c0.176 0.023 0.531 0.068 0.707 0.091-0.025 0.128-0.075 0.38-0.101 0.506 0.141-0.013 0.425-0.038 0.566-0.050 0 0.171-0.003 0.511-0.005 0.682 0.362-0.282 0.752-0.523 1.165-0.722 0.015-0.040 0.045-0.116 0.060-0.153 0.377-0.153 0.755-0.299 1.132-0.443-0.747-0.44-1.502-0.87-2.249-1.311-0.428 0.463-0.855 0.928-1.275 1.401zM14.984 15.337c-0.231 0.229-0.465 0.458-0.697 0.687l0.679 0.679c0.224-0.231 0.45-0.465 0.677-0.697-0.221-0.224-0.44-0.445-0.659-0.669zM16.355 16.034c0.231 0.234 0.463 0.468 0.697 0.702 0.234-0.236 0.468-0.475 0.702-0.712-0.234-0.234-0.468-0.47-0.702-0.704-0.231 0.239-0.465 0.478-0.697 0.714zM15.99 16.318c-0.234 0.231-0.465 0.463-0.699 0.697 0.229 0.224 0.455 0.45 0.684 0.674 0.234-0.229 0.468-0.455 0.702-0.684-0.229-0.229-0.458-0.458-0.687-0.687zM15.617 18.559c0.121 0.098 0.36 0.294 0.478 0.392-0.357 0.070-0.712 0.146-1.067 0.224 0.392 0.096 0.787 0.191 1.18 0.289-0.538 0.040-1.074 0.091-1.613 0.148 0.513 0.292 1.099 0.372 1.67 0.47-0.35 0.035-1.049 0.106-1.399 0.141 0.44 0.116 0.88 0.226 1.321 0.33-0.254 0.050-0.765 0.151-1.019 0.201 0.337 0.098 0.677 0.194 1.019 0.287-0.131 0.018-0.392 0.055-0.523 0.073 0.091 0.201 0.274 0.599 0.367 0.797 0.418-0.77 0.865-1.527 1.306-2.284-0.543-0.382-0.953-1.238-1.721-1.069z"></path>
<path d="M12.003 9.143c0.946 0.631 1.124 1.877 1.678 2.805-0.594-0.911-1.353-1.746-1.678-2.805z"></path>
<path d="M18.405 11.936c0.516-0.946 0.76-2.108 1.63-2.81-0.249 1.082-1.059 1.894-1.63 2.81z"></path>
<path d="M9.2 11.953c0.966 0.377 1.779 1.044 2.629 1.62-0.88-0.508-2.148-0.636-2.629-1.62z"></path>
<path d="M20.198 13.629c0.785-0.528 1.512-1.17 2.38-1.555l0.347 0.206c-0.891 0.488-1.811 0.913-2.727 1.348z"></path>
<path d="M19.703 18.801c0.893 0.586 1.902 1.041 2.606 1.872-1.099-0.201-1.741-1.255-2.606-1.872z"></path>
<path d="M9.771 20.703c0.629-0.845 1.633-1.26 2.483-1.834-0.79 0.649-1.444 1.572-2.483 1.834z"></path>
<path d="M13.074 23.254c-0.186-1.054 0.697-1.894 1.087-2.807-0.294 0.958-0.574 1.937-1.087 2.807z"></path>
<path d="M17.897 20.373c0.355 0.938 1.308 1.796 1.077 2.86-0.496-0.898-0.787-1.884-1.077-2.86z"></path>
</svg>
