<!-- Generated by IcoMoon.io -->
<svg version="1.1" xmlns="http://www.w3.org/2000/svg" width="32" height="32" viewBox="0 0 32 32">
<title>Lith</title>
<path d="M14.924 3.941c0.576-1.246 0.921-2.583 1.086-3.941 0.175 1.355 0.508 2.692 1.081 3.936 5.314 0.414 10.036 4.728 10.815 10.016 0.112 1.274 0.094 2.558 0.028 3.834-0.619 5.040-4.86 9.356-9.874 10.117-0.35 0.132-0.926-0.023-1.081 0.421-0.546 1.152-0.782 2.421-0.969 3.674-0.16-1.363-0.51-2.703-1.086-3.948-5.9-0.431-11.127-5.809-10.884-11.81-0.261-3.438 1.297-6.862 3.811-9.166 1.934-1.781 4.456-2.895 7.072-3.134zM15.379 5.035c0.419 0.003 0.837 0.003 1.256 0.005-0.195-0.535-0.388-1.071-0.584-1.604-0.264 0.515-0.48 1.053-0.672 1.599zM5.576 11.876c-1.49 3.647-0.817 8.054 1.644 11.117 1.784 2.269 4.461 3.761 7.311 4.164-0.211-0.396-0.429-0.792-0.647-1.185 1.403 0.183 2.827 0.19 4.23-0.003-0.208 0.396-0.414 0.794-0.612 1.193 4.012-0.548 7.656-3.378 9.008-7.222 1.413-3.606 0.711-7.917-1.703-10.934-1.781-2.271-4.461-3.761-7.308-4.182 0.203 0.401 0.414 0.797 0.624 1.195-1.408-0.183-2.835-0.185-4.24 0.005 0.216-0.398 0.431-0.797 0.642-1.198-3.951 0.543-7.554 3.289-8.95 7.049zM15.389 26.937c0.178 0.556 0.386 1.101 0.665 1.616 0.193-0.533 0.383-1.066 0.576-1.596-0.414-0.005-0.827-0.013-1.241-0.020z"></path>
<path d="M16.241 10.976c0.571-0.264 0.896-1.347 1.634-0.929 1.038 0.419 1.726 1.358 2.692 1.896 0.383 0.274 0.919 0.409 1.144 0.853 0.241 0.792 0.332 1.622 0.411 2.441-0.37 0.33-0.733 0.665-1.096 1.005 0.282 0.345 0.66 0.639 0.835 1.058 0.036 0.919-0.911 1.363-1.383 1.967 0.099 0.865-0.086 1.761-0.68 2.426-0.5-0.096-0.962-0.378-1.474-0.398-1.078 0.34-2.165 0.713-3.304 0.784-0.672-0.409-1.243-0.977-1.949-1.347-0.208-1.091-1.38-1.558-1.67-2.626-0.472-0.178-1.218-0.114-1.474-0.591 0.284-0.815 0.462-1.655 0.548-2.512 0.284-0.7 0.591-1.396 0.929-2.071 1.144-0.391 2.055-1.32 2.185-2.558 0.914 0.053 1.774 0.373 2.652 0.604zM17.152 12.074c0.122 0.627-0.175 1.185-0.409 1.743 0.447-0.327 0.858-0.698 1.269-1.068 0.137 0.107 0.414 0.317 0.551 0.421-0.071-0.35-0.147-0.7-0.223-1.048-0.396-0.015-0.792-0.030-1.188-0.048zM12.529 13.703c0.051 0.338 0.099 0.672 0.145 1.010-0.947 0.685-1.441 1.809-2.154 2.708 0.523 0.122 1.040 0.266 1.561 0.409-0.185-0.127-0.553-0.376-0.738-0.5 0.269-0.216 0.561-0.398 0.86-0.566 0.239 0.211 0.477 0.419 0.718 0.627 0.028-0.117 0.089-0.35 0.119-0.467 0.274-0.043 0.551-0.089 0.825-0.134 0.030 0.282-0.030 0.543-0.2 0.771-0.216 0.568-0.535 1.086-0.957 1.528-0.086-0.472-0.162-0.941-0.239-1.413-0.132 0.112-0.398 0.337-0.53 0.452 0.272 0.683 0.815 1.162 1.446 1.515l-0.076-0.548c0.213 0.259 0.429 0.513 0.642 0.769 0.165-0.089 0.497-0.266 0.662-0.355-0.028 0.307-0.051 0.645-0.345 0.825-0.401-0.226-0.754-0.53-1.129-0.792 0.162 1.094 1.302 1.355 1.969 2.058 0.952-0.124 1.896-0.327 2.784-0.705 0.589-0.337 1.195 0.081 1.746 0.287 0.36-0.683 0.355-1.436 0.368-2.182 0.289-0.403 0.726-0.67 1.081-1.007-0.647-0.008-1.215 0.294-1.771 0.589 0.043-0.279 0.089-0.561 0.134-0.84 0.462-0.203 0.954-0.391 1.274-0.804-0.272 0.033-0.817 0.099-1.089 0.132 0.244-0.736 0.85-1.223 1.467-1.642-0.084-0.363-0.167-0.728-0.259-1.089-0.639 0.647-1.086 1.459-1.264 2.355-0.173 0.028-0.523 0.086-0.698 0.117-0.195 0.32-0.396 0.639-0.596 0.957 0.084-0.693-0.277-1.243-0.893-1.507-0.033-0.19-0.094-0.568-0.124-0.759-0.383 0.109-0.543 0.553-0.804 0.82-0.203-0.081-0.403-0.162-0.604-0.244-0.289 0.167-0.579 0.33-0.87 0.487-0.061 0.104-0.18 0.31-0.241 0.411-0.406-0.289-0.875-0.452-1.345-0.612-0.173-0.322-0.312-0.66-0.419-1.012 0.206-0.213 0.414-0.421 0.619-0.632-0.487-0.17-0.746-0.65-1.073-1.012zM13.646 14.848c0.023 0.145 0.071 0.436 0.094 0.581l0.058-0.274c0.292 0.365 0.657 0.632 1.139 0.614 0.2-0.612 0.398-1.228 0.604-1.84-0.528 0.452-1.091 1.254-1.896 0.919z"></path>
<path d="M15.96 17.147c0.581-0.188 1.195-0.051 1.789-0.028 0.107 0.272 0.244 0.538 0.269 0.832-0.581-0.086-1.165-0.094-1.736 0.061 0.066 0.203 0.132 0.406 0.198 0.609-0.122 0.266-0.244 0.535-0.363 0.804-0.203 0.211-0.403 0.424-0.604 0.637-0.261-0.256-0.535-0.495-0.822-0.723 0.612-0.206 0.7-0.825 0.695-1.386-0.173 0.289-0.343 0.581-0.508 0.878-0.312-0.315-0.83-0.657-0.51-1.155 0.15-0.145 0.452-0.436 0.604-0.581-0.053 0.277-0.162 0.825-0.216 1.101 0.388-0.36 0.69-0.85 1.203-1.051z"></path>
<path d="M17.584 18.611c0.472 0.033 0.348 0.845-0.079 0.853-0.485-0.053-0.383-0.848 0.079-0.853z"></path>
</svg>
