<!-- Generated by IcoMoon.io -->
<svg version="1.1" xmlns="http://www.w3.org/2000/svg" width="32" height="32" viewBox="0 0 32 32">
<title>Meso</title>
<path d="M14.818 4.304c0.582-1.377 0.981-2.827 1.211-4.303 0.224 1.476 0.661 2.908 1.197 4.3 4.588 0.425 8.903 3.202 11.037 7.308 2.114 3.805 2.108 8.539 0.378 12.49 1.016 1.188 2.047 2.384 3.354 3.267-1.459-0.652-3.022-1.010-4.597-1.229-2.545 3.636-6.9 5.989-11.366 5.858-4.466 0.131-8.821-2.224-11.372-5.858-1.598 0.221-3.185 0.588-4.655 1.266 1.345-0.9 2.428-2.114 3.433-3.368-1.677-3.639-1.732-8.009-0.026-11.645 1.988-4.501 6.527-7.645 11.407-8.085zM15.307 5.585c0.48 0 0.958 0 1.438 0.003-0.245-0.652-0.48-1.307-0.707-1.968-0.23 0.661-0.477 1.313-0.731 1.965zM4.92 11.591c-2.082 3.412-2.32 7.782-0.859 11.477 0.3-0.422 0.576-0.862 0.856-1.296 0.591 1.52 1.415 2.94 2.431 4.216-0.527 0.009-1.057 0.020-1.587 0.032 2.437 3.121 6.309 5.101 10.289 5.051 3.968 0.038 7.817-1.945 10.251-5.051-0.53-0.012-1.057-0.023-1.587-0.029 0.978-1.304 1.857-2.693 2.431-4.224 0.279 0.399 0.437 0.935 0.876 1.199 1.558-3.866 1.112-8.492-1.24-11.945-2.020-3.101-5.444-5.194-9.104-5.68 0.271 0.466 0.547 0.926 0.821 1.389-1.636-0.23-3.299-0.227-4.935 0 0.271-0.463 0.547-0.926 0.818-1.389-3.887 0.512-7.491 2.85-9.462 6.251zM4.762 23.84c-0.431 0.539-0.868 1.068-1.31 1.595 0.684-0.128 1.371-0.25 2.058-0.367-0.25-0.408-0.504-0.818-0.748-1.229zM26.542 25.071c0.69 0.114 1.377 0.236 2.064 0.361-0.443-0.524-0.879-1.057-1.31-1.595-0.245 0.416-0.504 0.824-0.754 1.234z"></path>
<path d="M13.074 12.104c0.777-0.725 1.945-0.687 2.94-0.734 1.298-0.076 3.010 0.183 3.546 1.558 0.416 0.221 0.675 0.553 0.614 1.051 0.163 0.006 0.489 0.017 0.652 0.026 0.574 0.614 1.278 1.144 1.677 1.898 0.218 0.871 0.023 1.782 0.146 2.667 0.017 0.67 0.317 1.494-0.259 2.020-1.13 1.261-2.448 2.335-3.596 3.581-1.75 0.905-3.823 0.687-5.633 0.067-0.044-0.114-0.131-0.338-0.175-0.451-0.477-0.361-0.873-0.812-1.264-1.266-0.038-0.169-0.114-0.504-0.148-0.673-0.181-0.003-0.541-0.009-0.722-0.015-0.521-0.571-1.179-1.063-1.514-1.776-0.052-0.777 0.137-1.549 0.111-2.329 0.035-0.673-0.128-1.409 0.204-2.032 0.964-1.363 2.454-2.236 3.421-3.593zM13.459 12.209c-0.020 1.034 0.716 1.788 1.15 2.652-0.259-0.937-0.352-1.983-1.15-2.652zM17.453 14.363c0.32-0.367 0.614-0.751 0.914-1.135 0.006-0.274 0.023-0.818 0.029-1.092-0.518 0.646-0.847 1.403-0.943 2.227zM10.632 15.813c0.026 0.023 0.026 0.023 0 0zM12.78 18.092c0.25 1.156 1.409 1.625 2.21 2.338-0.836-0.317-1.776-0.512-2.419-1.182-0.655 0.367-1.665 0.512-1.892 1.336 1.121 0.547 1.828 1.561 2.632 2.469 0.541-0.364 0.923-0.903 1.322-1.409-0.128 0.62-0.259 1.24-0.367 1.866 1.173 0.038 2.349 0.093 3.523 0-0.146-0.646-0.303-1.29-0.425-1.939 0.454 0.553 0.844 1.153 1.252 1.741 0.114-0.18 0.344-0.541 0.457-0.722 0.818-0.774 1.534-1.651 2.498-2.265-0.6-0.486-1.287-0.836-2.015-1.083-0.766 0.512-1.598 0.917-2.469 1.214 0.751-0.789 2.058-1.199 2.204-2.414-0.652-0.614-1.22-1.313-1.889-1.91 0.282 0.533 0.617 1.034 0.903 1.563-0.256 0.716-1.211 0.734-1.721 1.217 0.361-0.122 1.089-0.37 1.453-0.492-0.501 0.62-0.827 1.424-1.505 1.881-0.821 0.393-1.441-0.44-2.012-0.87 0.85 0.253 1.744 0.376 2.62 0.195-1.167-0.015-2.512-0.064-3.246-1.135 0.507 0.111 1.013 0.221 1.523 0.332-0.495-0.242-1.002-0.463-1.491-0.713-0.341-0.71 0.524-1.316 0.716-1.968-0.67 0.603-1.234 1.304-1.86 1.951zM10.18 16.404c0.207 1.098 0.032 2.213 0.093 3.319 0.329-0.111 0.658-0.224 0.984-0.341 0.399-0.521 1.281-0.792 0.836-1.584 0.102-0.087 0.306-0.262 0.408-0.349-0.812-0.253-1.68-0.443-2.32-1.045zM19.613 17.437c0.422 0.297 0.311 0.739 0.207 1.162 0.696 0.37 1.214 1.028 2.032 1.141 0.108-1.109 0.061-2.221-0.020-3.328-0.617 0.568-1.429 0.801-2.218 1.025z"></path>
<path d="M14.702 21.088c0.838-0.399 1.814-0.396 2.655-0.003-0.87 0.227-1.785 0.227-2.655 0.003z"></path>
</svg>
