<!-- Generated by IcoMoon.io -->
<svg version="1.1" xmlns="http://www.w3.org/2000/svg" width="32" height="32" viewBox="0 0 32 32">
<title>Neo</title>
<path d="M15.003 3.916c0.551-1.244 0.91-2.563 1.074-3.916 0.162 1.345 0.523 2.659 1.067 3.9 3.23 0.318 6.314 1.936 8.334 4.489 1.509 1.845 2.389 4.158 2.616 6.524 1.216 0.538 2.5 0.89 3.809 1.11-1.314 0.21-2.599 0.581-3.822 1.107-0.356 3.299-2.088 6.423-4.747 8.415-1.764 1.357-3.923 2.116-6.117 2.399-0.559 1.294-0.966 2.652-1.143 4.055-0.174-1.4-0.576-2.76-1.137-4.055-3.397-0.374-6.63-2.151-8.62-4.957-1.251-1.711-1.989-3.759-2.245-5.854-1.271-0.546-2.604-0.94-3.976-1.112 1.368-0.174 2.702-0.551 3.964-1.107 0.283-3.266 1.929-6.393 4.517-8.412 1.82-1.489 4.098-2.348 6.426-2.586zM15.458 5.011h1.239c-0.217-0.576-0.425-1.158-0.619-1.744-0.195 0.586-0.402 1.168-0.619 1.744zM9.474 6.884c-2.485 1.777-4.105 4.618-4.542 7.626 0.377-0.202 0.751-0.407 1.125-0.614-0.195 1.416-0.19 2.851-0.003 4.269-0.364-0.217-0.731-0.435-1.097-0.65 0.311 1.737 0.933 3.435 1.972 4.871 1.744 2.51 4.565 4.194 7.581 4.636-0.19-0.326-0.382-0.652-0.574-0.978 1.418 0.19 2.856 0.19 4.274 0-0.19 0.326-0.377 0.652-0.561 0.981 4.833-0.624 8.87-4.699 9.547-9.51-0.367 0.215-0.733 0.432-1.097 0.65 0.187-1.418 0.192-2.854-0.003-4.269 0.374 0.207 0.748 0.412 1.125 0.614-0.311-1.941-1.034-3.827-2.247-5.384-1.785-2.371-4.54-3.921-7.467-4.338 0.233 0.404 0.47 0.809 0.708 1.211-1.421-0.19-2.856-0.19-4.277 0 0.238-0.402 0.475-0.806 0.71-1.211-1.85 0.308-3.668 0.958-5.174 2.096zM3.322 16.022c0.586 0.195 1.168 0.402 1.744 0.619 0-0.415 0-0.827 0-1.239-0.576 0.217-1.158 0.422-1.744 0.619zM27.088 15.402v1.239c0.576-0.217 1.158-0.425 1.744-0.619-0.586-0.197-1.168-0.402-1.744-0.619zM15.458 27.033c0.217 0.574 0.422 1.155 0.619 1.739 0.197-0.584 0.402-1.163 0.619-1.739-0.415 0-0.827 0-1.239 0z"></path>
<path d="M13.071 13.016c1.001-1.082 2.207-1.992 3.006-3.248 1.072 1.57 2.609 2.74 3.89 4.13 0.71 0.705 1.365 1.494 2.245 2.005-1.423 1.155-2.624 2.551-3.946 3.814-0.751 0.756-1.544 1.476-2.189 2.331-0.87-1.13-1.957-2.058-2.942-3.081-1.062-1.024-2.032-2.149-3.193-3.064 1.221-0.751 2.083-1.929 3.129-2.887zM16.064 10.321c-0.035 0.493-0.051 0.983-0.058 1.476-0.308 0.465-0.637 0.918-0.978 1.36 0.344-0.205 0.7-0.382 1.069-0.531 0.351 0.159 0.69 0.341 1.016 0.554-0.844-0.738-1.057-1.79-1.049-2.859zM15.834 14.682c0.425 0.574 0.948 1.069 1.507 1.509l0.324-0.185c-0.361-0.748-1.084-1.226-1.658-1.797-0.043 0.116-0.129 0.354-0.172 0.473zM11.823 14.937c-0.349 0.356-0.7 0.713-1.052 1.067 0.72 0.708 1.436 1.418 2.141 2.141 0.473-0.162 0.948-0.311 1.428-0.45-0.546-0.452-1.062-0.935-1.565-1.433 0.111-0.222 0.22-0.445 0.329-0.667-0.46-0.149-0.907-0.341-1.282-0.657zM15.023 15.167c0.506 0.549 0.983 1.132 1.575 1.593 0.131-0.038 0.397-0.116 0.528-0.157-0.503-0.546-0.978-1.132-1.577-1.58-0.131 0.035-0.394 0.109-0.526 0.144zM20.331 14.942c-0.374 0.316-0.827 0.498-1.282 0.652 0.109 0.222 0.217 0.442 0.324 0.665-0.268 0.26-0.536 0.521-0.806 0.781 0.316 0.071 0.586 0.212 0.811 0.422-0.326-0.063-0.64-0.162-0.943-0.301-0.154 0.134-0.463 0.397-0.619 0.528 0.458 0.159 0.91 0.326 1.362 0.5 0.344-0.392 0.725-0.746 1.13-1.074-0.205-0.071-0.612-0.207-0.816-0.278 0.217 0.043 0.657 0.126 0.875 0.169 0.339-0.336 0.677-0.67 1.019-1.004-0.354-0.354-0.705-0.708-1.054-1.062zM14.598 16.001c0.412 0.564 0.938 1.036 1.481 1.471l0.273-0.185c-0.238-0.784-1.074-1.229-1.605-1.817-0.038 0.134-0.111 0.397-0.149 0.531zM13.044 18.279c0.217 0.215 0.437 0.43 0.655 0.645 0.564-0.235 1.17-0.412 1.78-0.21-0.339-0.27-0.672-0.551-0.998-0.834-0.475 0.152-0.956 0.278-1.436 0.399zM17.682 17.872c-0.331 0.288-0.667 0.571-1.009 0.847 0.609-0.21 1.216-0.030 1.782 0.205 0.197-0.195 0.397-0.389 0.597-0.584-0.458-0.152-0.915-0.303-1.37-0.468zM13.845 19.133c0.227 0.202 0.458 0.404 0.69 0.607 1.014-0.248 2.070-0.248 3.084 0 0.23-0.202 0.46-0.404 0.69-0.607-1.464-0.308-3-0.306-4.464 0zM14.778 20.182c0.197 0.116 0.597 0.351 0.796 0.468 0.334-0.003 0.67-0.003 1.006-0.003 0.2-0.116 0.599-0.349 0.799-0.468-0.864-0.114-1.739-0.111-2.601 0.003z"></path>
<path d="M12.882 17.232c0.794-0.291-0.091 0.842 0 0z"></path>
</svg>
