<svg height="1024" viewBox="0 0 1024 1024" width="1024" xmlns="http://www.w3.org/2000/svg"><path d="m450.661 3.684c112.209-13.575 228.805 10.786 325.428 69.611 102.93 61.658 182.824 160.657 221.035 274.375 40.45 119.247 35.194 253.532-15.585 368.849-50.185 116.23-145.391 212.169-261.165 263.313-103.25 46.438-222.132 56.401-331.873 29.161-108.872-26.601-207.918-90.682-277.436-178.483-75.553-94.292-115.454-216.145-110.655-336.854 3.885-126.927 57.635-251.475 147.357-341.334 80.26-81.997 188.95-135.382 302.895-148.636zm-187.625 149.277c-92.92 64.126-159.514 165.411-180.219 276.523-18.603 96.394-3.748 198.867 42.141 285.709 123.818-213.768 249.007-426.759 373.099-640.39-83.643 3.382-166.461 29.847-235.021 78.158zm262.765-78.021c125.463 211.62 250.79 423.376 376.071 635.133 41.547-81.677 56.264-176.517 41.776-266.969-14.443-93.606-61.109-181.636-129.669-246.859-76.787-74.226-181.499-117.922-288.178-121.304zm-49.682 250.561c-71.393 13.117-131.908 70.57-148.545 141.278-14.443 56.859-.046 119.795 37.159 165.045 35.285 43.786 90.864 70.479 147.174 70.113 49.775.365 99.183-20.339 134.285-55.579 36.473-36.154 57.316-87.664 55.716-139.084-1.006-54.711-27.469-108.187-70.068-142.512-42.781-35.194-101.331-50.048-155.721-39.262zm-337.266 414.098c51.282 83.734 131.131 149.779 223.594 183.145 94.384 34.6 200.833 35.057 295.491 1.325 94.017-32.908 175.329-99.639 227.296-184.47-248.779.046-497.604.046-746.383 0z"/></svg>