<svg height="1024" viewBox="0 0 1024 1024" width="1024" xmlns="http://www.w3.org/2000/svg"><path d="m460.649 38.118c3.935-50.662 97.881-50.826 102.308-.328 5.247 60.171.984 120.834 2.131 181.334 140.345 24.593 265.606 134.279 293.315 276.428 22.461 81.65 6.067 171.005-33.611 244.949-7.05 19.346-37.71 39.185-14.92 59.023 45.415 49.843 96.569 94.11 142.641 143.297 30.988 43.284-16.887 98.209-64.434 76.075-57.384-50.17-108.046-107.719-163.135-160.348-122.311 92.307-303.972 92.143-426.283 0-48.859 48.367-97.062 97.553-145.756 145.92-19.675 24.758-69.353 25.905-83.781-4.919-14.92-20.002-5.574-50.826 10.984-66.565 47.547-49.843 101.652-93.618 144.116-148.051-55.253-83.781-86.732-189.532-59.023-288.724 27.38-142.477 152.642-252.491 293.315-277.083 1.148-60.336-2.951-120.834 2.131-181.006zm-19.675 238.882c-124.77 27.38-223.47 141.329-232.652 268.886 66.565-.656 133.131-.491 199.533-.491 22.79-37.053 55.253-77.714 104.275-71.648 48.859-5.903 80.83 34.758 103.62 71.648 66.401 0 132.968-.164 199.533.491-9.673-178.055-202.484-319.056-374.309-268.886zm-232.161 319.385c4.427 43.94 14.1 87.552 36.726 125.917 10.166 16.067 21.806 44.924 45.908 34.267 43.12-46.071 94.765-85.749 130.344-138.05-2.951-5.41-9.018-16.067-12.133-21.478-66.894-1.968-133.951.491-200.845-.656zm402.838-.82c-1.475 7.378-4.263 22.298-5.574 29.676 36.234 48.53 84.437 87.388 126.081 131.328 5.083.328 15.083.656 20.166.82 40.661-43.284 56.892-103.292 62.467-161.004-67.714 0-135.427.984-203.14-.82zm-294.299 209.698c104.931 96.078 283.806 95.585 388.901.328-44.596-50.826-93.947-97.225-142.641-144.116-32.299 18.035-71.157 18.199-103.456 0-48.859 46.728-97.881 93.29-142.804 143.788z"/></svg>