<svg height="1024" viewBox="0 0 1024 1024" width="1024" xmlns="http://www.w3.org/2000/svg"><path d="m242.087.415c195.71-.441 391.508-.662 587.218.132 1.015 316.048.176 632.229.441 948.321-.397 24.844.795 49.733-.441 74.577-195.665.706-391.464.706-587.13 0 3.442-5.296 7.237-10.37 11.253-15.224 117.779-138.21 235.249-276.73 352.896-415.073 14.474-17.74 30.581-34.199 44.04-52.734 4.237-4.413-1.632-9.09-3.751-12.753-132.253-170.953-263.624-342.57-395.701-513.656-3.222-4.369-6.133-8.914-8.826-13.592zm-46.687 345.482c88.875.176 177.794 0 266.668.088 1.324 35.612 1.235 71.444.088 107.1-32.081 1.147-64.295-1.544-96.288 1.015-1.588 41.437-1.588 83.138-.044 124.618 32.037 2.559 64.251-.132 96.332 1.015 1.147 32.743 1.191 65.663 0 98.406-88.963.176-177.927.044-266.845.088-2.383-90.64-.309-181.457-1.015-272.14.353-20.079-1.191-40.246 1.103-60.191z"/></svg>