<svg viewBox="0 0 1024 1024" xmlns="http://www.w3.org/2000/svg"><path d="m517.436 64.4c69.551 134.317 169.049 248.698 259.84 368.477-36.648 23.764-73.469 47.442-110.465 70.858 11.577-16.626 23.242-33.166 34.906-49.792-56.669-55.45-112.032-112.467-172.531-163.826.697 96.363 25.94 192.204 75.819 274.813-61.456-13.405-125.438-13.405-187.242-2.35 47.355-82.609 87.571-171.399 77.822-269.764-63.893 51.272-124.48 106.635-183.412 163.478 17.584 19.673 35.081 39.433 52.055 59.716-42.916-27.595-85.221-55.972-125.351-87.397 102.717-113.251 205.26-229.025 278.556-364.212zm184.021 516.024c40.042-17.671 80.607-33.948 121.346-49.966 58.322 140.062 114.991 282.212 201.17 408.259-153.641-13.318-307.108 4.092-459.791 19.76.261-41.696.348-83.306 1.132-124.915 3.395 12.884 10.185 38.824 13.579 51.795 77.387-16.713 154.773-33.688 231.55-52.926-83.741-51.533-181.67-72.511-278.905-76.429 38.127-46.135 78.17-93.751 93.316-153.119 50.924 81.043 112.467 161.736 201.605 202.823-17.758-76.864-41-152.335-61.979-228.329-20.979 1.045-42.045 2.089-63.024 3.047zm-507.407-42.48c43.524 15.234 86.44 32.556 129.006 50.575-23.242-1.393-46.135-2.611-69.291-4.092-18.629 75.645-40.129 150.507-56.321 226.762 85.569-47.964 149.724-123.087 196.121-208.481 13.058 61.021 52.055 112.641 99.061 152.248-98.104 2.786-193.596 31.685-280.123 77.125 75.819 22.284 153.38 38.214 230.592 55.014 4.874-17.932 9.837-35.777 14.798-53.709.784 42.045 1.653 84.09 2.176 126.22-153.119-10.707-306.411-27.943-460.052-12.884 84.263-126.133 138.756-268.458 194.031-408.781zm231.637 53.535c54.232-3.221 108.724-4.613 163.042-.958-3.569 56.93-34.384 106.025-77.474 141.367-39.608-38.824-74.253-84.959-85.569-140.409z"/></svg>