<svg height="1024" viewBox="0 0 1024 1024" width="1024" xmlns="http://www.w3.org/2000/svg"><path d="m453.419 220.567c20.836-37.014 72.722-31.54 106.222-17.404 25.003 33.664-8.988 69.207-19.12 101.728-9.233 14.299-10.622 44.204-32.03 43.715-20.999-20.509-25.739-52.457-39.221-78.033-8.579-15.443-15.116-32.112-15.851-50.006zm-73.865 36.77c8.824-8.416 22.552-5.311 33.582-7.599 15.688 23.778 29.66 52.866 24.186 82.036-9.397 31.621-43.224 44.368-61.036 70.188-36.851 41.917-66.593 101.319-42.734 156.8 20.263 42.407 50.251 80.647 89.063 107.611 20.019 13.237 32.847 35.054 39.303 57.768.817 30.232 5.474 60.138 8.743 90.125 3.431 10.785-10.785 24.758-18.875 12.338-53.03-50.414-117.58-88.655-162.437-147.485-7.272-6.373-11.847-19.038-22.388-20.019-18.139 9.641-35.135 21.49-53.193 31.376-10.296 2.942-20.509 6.128-30.722 9.315-13.482-6.7-27.046-12.991-40.854-18.793 22.879-32.112 67.574-38.404 99.931-58.83-2.778-24.431-19.692-45.512-25.984-69.452-45.512 7.435-91.515 8.743-137.517 10.704-25.657.327-57.523 16.424-78.604-4.903 16.178-27.536 31.05-61.854 66.512-67.737 49.434-6.618 99.849 1.552 149.691.736 1.144-21.162 8.416-41.099 17.894-59.811-35.054-7.435-75.581-9.886-102.055-37.014-9.886-16.669-13.809-35.952-20.345-54.01 52.948-.408 100.176 29.578 150.671 42.407 30.968-48.535 74.192-87.919 117.171-125.75zm231.319-7.6c10.949 2.206 24.431-1.062 33.174 7.517 43.388 37.505 86.449 77.297 117.58 125.832 50.496-12.828 97.642-42.734 150.59-42.407-6.618 18.139-10.377 37.75-20.591 54.337-26.392 26.883-66.838 29.252-101.728 36.687 9.397 18.711 16.832 38.648 17.813 59.811 49.68.736 99.931-7.191 149.201-.899 35.625 5.802 50.742 40.037 67.083 67.655-20.754 21.816-52.948 5.393-78.604 5.148-46.002-1.961-92.004-3.268-137.517-10.704-6.047 24.023-23.778 45.103-25.657 69.698 32.275 20.182 76.724 26.555 99.603 58.585-13.89 5.802-27.536 12.093-40.936 18.956-29.415-6.536-54.663-22.715-79.503-38.893-10.132-7.272-16.178 7.599-22.471 12.991-47.146 62.589-115.046 103.607-171.589 156.473l-6.128 1.062c-18.139-19.774.981-49.68-1.144-73.538-2.533-35.054 11.521-71.823 41.427-91.76 38.73-26.964 68.718-65.122 88.981-107.529 23.859-55.399-5.802-114.802-42.571-156.637-17.894-25.984-51.886-38.648-61.282-70.515-5.311-29.089 8.498-58.177 24.267-81.872zm-180.332 266.535c25.984-14.952 52.049-32.602 81.627-38.812 30.232 5.719 55.072 26.31 83.344 37.75-1.307 8.988-6.047 15.525-14.136 19.529-22.797 11.684-45.512 23.778-69.207 33.582-27.7-12.991-57.115-24.267-81.791-42.407.082-2.451.163-7.272.163-9.641z"/></svg>