<!-- Generated by IcoMoon.io -->
<svg version="1.1" xmlns="http://www.w3.org/2000/svg" width="32" height="32" viewBox="0 0 32 32">
<title>Corpus</title>
<path d="M14.083 0.115c3.507-0.424 7.15 0.337 10.17 2.175 3.217 1.927 5.713 5.021 6.907 8.574 1.264 3.726 1.1 7.923-0.487 11.527-1.568 3.632-4.543 6.63-8.161 8.229-3.227 1.451-6.942 1.763-10.371 0.911-3.402-0.831-6.497-2.834-8.67-5.578-2.361-2.947-3.608-6.755-3.458-10.527 0.121-3.966 1.801-7.859 4.605-10.667 2.508-2.562 5.905-4.231 9.465-4.645zM8.22 4.78c-2.904 2.004-4.985 5.169-5.632 8.641-0.581 3.012-0.117 6.215 1.317 8.928 3.869-6.68 7.781-13.336 11.659-20.012-2.614 0.106-5.202 0.933-7.344 2.442zM16.431 2.342c3.921 6.613 7.837 13.23 11.752 19.848 1.298-2.552 1.758-5.516 1.305-8.343-0.451-2.925-1.91-5.676-4.052-7.714-2.4-2.32-5.672-3.685-9.006-3.791zM14.879 10.172c-2.231 0.41-4.122 2.205-4.642 4.415-0.451 1.777-0.001 3.744 1.161 5.158 1.103 1.368 2.84 2.202 4.599 2.191 1.555 0.011 3.099-0.636 4.196-1.737 1.14-1.13 1.791-2.739 1.741-4.346-0.031-1.71-0.858-3.381-2.19-4.454-1.337-1.1-3.167-1.564-4.866-1.227zM4.339 23.112c1.603 2.617 4.098 4.681 6.987 5.723 2.95 1.081 6.276 1.096 9.234 0.041 2.938-1.028 5.479-3.114 7.103-5.765-7.774 0.001-15.55 0.001-23.324 0z"></path>
</svg>
