<!-- Generated by IcoMoon.io -->
<svg version="1.1" xmlns="http://www.w3.org/2000/svg" width="32" height="32" viewBox="0 0 32 32">
<title>Grineer</title>
<path d="M7.566 0.013c6.116-0.014 12.235-0.021 18.351 0.004 0.032 9.877 0.006 19.757 0.014 29.635-0.012 0.776 0.025 1.554-0.014 2.331-6.115 0.022-12.233 0.022-18.348 0 0.108-0.166 0.226-0.324 0.352-0.476 3.681-4.319 7.352-8.648 11.028-12.971 0.452-0.554 0.956-1.069 1.376-1.648 0.132-0.138-0.051-0.284-0.117-0.399-4.133-5.342-8.238-10.705-12.366-16.052-0.101-0.137-0.192-0.279-0.276-0.425zM6.107 10.809c2.777 0.005 5.556 0 8.333 0.003 0.041 1.113 0.039 2.233 0.003 3.347-1.003 0.036-2.009-0.048-3.009 0.032-0.050 1.295-0.050 2.598-0.001 3.894 1.001 0.080 2.008-0.004 3.010 0.032 0.036 1.023 0.037 2.052 0 3.075-2.78 0.006-5.56 0.001-8.339 0.003-0.074-2.832-0.010-5.671-0.032-8.504 0.011-0.627-0.037-1.258 0.034-1.881z"></path>
</svg>
