<!-- Generated by IcoMoon.io -->
<svg version="1.1" xmlns="http://www.w3.org/2000/svg" width="32" height="32" viewBox="0 0 32 32">
<title>Infested</title>
<path d="M16.17 2.013c2.173 4.197 5.283 7.772 8.12 11.515-1.145 0.743-2.296 1.483-3.452 2.214 0.362-0.52 0.726-1.036 1.091-1.556-1.771-1.733-3.501-3.515-5.392-5.12 0.022 3.011 0.811 6.006 2.369 8.588-1.921-0.419-3.92-0.419-5.851-0.073 1.48-2.582 2.737-5.356 2.432-8.43-1.997 1.602-3.89 3.332-5.732 5.109 0.55 0.615 1.096 1.232 1.627 1.866-1.341-0.862-2.663-1.749-3.917-2.731 3.21-3.539 6.414-7.157 8.705-11.382zM21.921 18.138c1.251-0.552 2.519-1.061 3.792-1.561 1.823 4.377 3.593 8.819 6.287 12.758-4.801-0.416-9.597 0.128-14.368 0.617 0.008-1.303 0.011-2.603 0.035-3.904 0.106 0.403 0.318 1.213 0.424 1.619 2.418-0.522 4.837-1.053 7.236-1.654-2.617-1.61-5.677-2.266-8.716-2.388 1.191-1.442 2.443-2.93 2.916-4.785 1.591 2.533 3.515 5.054 6.3 6.338-0.555-2.402-1.281-4.76-1.937-7.135-0.656 0.033-1.314 0.065-1.97 0.095zM6.064 16.811c1.36 0.476 2.701 1.017 4.031 1.58-0.726-0.044-1.442-0.082-2.165-0.128-0.582 2.364-1.254 4.703-1.76 7.086 2.674-1.499 4.679-3.846 6.129-6.515 0.408 1.907 1.627 3.52 3.096 4.758-3.066 0.087-6.050 0.99-8.754 2.41 2.369 0.696 4.793 1.194 7.206 1.719 0.152-0.56 0.307-1.118 0.462-1.678 0.024 1.314 0.052 2.628 0.068 3.944-4.785-0.335-9.575-0.873-14.377-0.403 2.633-3.942 4.336-8.389 6.063-12.774zM13.303 18.484c1.695-0.101 3.398-0.144 5.095-0.030-0.112 1.779-1.075 3.313-2.421 4.418-1.238-1.213-2.32-2.655-2.674-4.388z"></path>
</svg>
