<?xml version="1.0" encoding="utf-8"?><!-- Generator: Adobe Illustrator 19.0.0, SVG Export Plug-In . SVG Version: 6.00 Build 0)  -->
<svg style="enable-background:new 0 0 612 792;" id="Layer_1" version="1.1"  viewBox="0 0 612 792" x="0px"
	 xmlns="http://www.w3.org/2000/svg" y="0px" xml:space="preserve">
<style type="text/css">
	.st0{fill:#FFFFFF;}
</style>
<g>
	<g>
		<path class="st0" d="M331,419c-15.9,0-31.9,0-47.9,0c0-14.9,0-29.7,0-44.8c15.9,0,31.9,0,47.9,0C331,389,331,404,331,419z
			 M293.6,396.1c0.5,4.5,1.1,9.5,1.7,14.2c4.9,0,9.8,0,13.5,0c2.1-2,3.7-3.6,5.3-5.1c1.9-1.9,5.1-3.5,5.6-5.7
			c2.1-9.1-1.3-12.2-10.4-10c-1.2,0.3-2.4,0.8-3.6,1.2c-0.2,0.5-0.4,1.1-0.5,1.6c2.2,1,4.4,2,5.7,2.6c-2.8,2.1-6.2,4.6-9.6,7.1
			c0.7-1.4,1.4-3.1,2.2-4.8C300,396.8,296.8,396.5,293.6,396.1z M303.9,382.5c-2.9,0.2-5.2,0.3-4.6,3.9c0.4,2,0.3,4,0.8,5.9
			c0.2,0.9,1.3,1.5,2,2.3c0.6-0.8,1.7-1.6,1.7-2.5C304.1,388.9,303.9,385.8,303.9,382.5z M297.4,383.4c-2,2.2-4.1,3.6-4,4.7
			c0.2,2.3,1.7,4.4,2.6,6.6c0.8-0.6,2.4-1.3,2.4-1.9C298.3,390.2,297.9,387.6,297.4,383.4z M305,387.6c0.6,0.5,1.3,0.9,1.9,1.4
			c1-1.2,2.4-2.3,2.9-3.7c0.2-0.6-1.5-1.9-2.3-2.8C306.7,384.1,305.9,385.8,305,387.6z"/>
		<path d="M293.6,396.1c3.2,0.3,6.4,0.7,9.8,1c-0.8,1.7-1.6,3.4-2.2,4.8c3.4-2.5,6.8-5,9.6-7.1c-1.4-0.6-3.5-1.6-5.7-2.6
			c0.2-0.5,0.4-1.1,0.5-1.6c1.2-0.4,2.4-0.9,3.6-1.2c9.1-2.2,12.5,0.9,10.4,10c-0.5,2.2-3.6,3.8-5.6,5.7c-1.6,1.6-3.2,3.1-5.3,5.1
			c-3.7,0-8.6,0-13.5,0C294.7,405.7,294.2,400.6,293.6,396.1z"/>
		<path d="M303.9,382.5c0,3.3,0.1,6.4-0.1,9.5c-0.1,0.9-1.1,1.7-1.7,2.5c-0.7-0.7-1.7-1.4-2-2.3c-0.5-1.9-0.5-3.9-0.8-5.9
			C298.7,382.8,301.1,382.7,303.9,382.5z"/>
		<path d="M297.4,383.4c0.5,4.3,0.9,6.8,0.9,9.4c0,0.7-1.5,1.3-2.4,1.9c-0.9-2.2-2.4-4.3-2.6-6.6
			C293.3,386.9,295.4,385.6,297.4,383.4z"/>
		<path d="M305,387.6c0.8-1.7,1.7-3.5,2.5-5.2c0.8,1,2.5,2.2,2.3,2.8c-0.5,1.4-1.9,2.5-2.9,3.7C306.3,388.5,305.7,388,305,387.6z"/>
	</g>
</g>
</svg>
