<svg height="173.406" viewBox="0 0 298 173.406" width="298" xmlns="http://www.w3.org/2000/svg"><path d="m149.90234 0c-4.685 9.619-8.90156 14.121391-15.10156 21.525391-12.914 13.43-57.330014 38.051937-71.791014 45.460937-8.608 48.039002 25.822265 79.033202 25.822265 79.033202-29.438-42.014-9.781843-56.841921-6.714843-59.919921 2.463999-2.593 16.228656-10.340562 30.472652-18.601562 18.317-10.618 36.66797-22.210938 36.66797-22.210938s35.14135 21.646938 36.15235 22.210938c14.393 8 28.00865 15.999609 30.47265 18.599609 3.067 3.078 22.72316 17.907874-6.71484 59.921874 0 0 34.43026-30.9942 25.82226-79.033202-14.461-7.4-62.44946-36.373687-69.98046-44.554687-4.346-5.433-10.16443-12.076641-15.10743-22.431641zm6.23243 86.681641c-1.70218.02628-3.10533.333546-4.20508.716797-1.765.616-1.44547.999031.39453 1.332031 13.34 2.358 15.00019 10.331156 12.74219 13.410151a3.692 3.692 0 0 0 -.97266 2.88672 3.354 3.354 0 0 0 .66406 1.36914l-20.38867 21.42969a7.33 7.33 0 0 1 3.2832 1.96094l.39454.40039a8.241 8.241 0 0 1 1.84765 2.90625l20.16016-21.18359a7.17 7.17 0 0 0 1.19336.81445 3.679 3.679 0 0 0 3.61328.0918c1.5-.757 5.91095 2.899 7.25195 3.875l.0273.0176-.73437.74219a2.521 2.521 0 0 0 0 3.53321 2.445 2.445 0 0 0 3.49023 0l5.81836-5.88868a2.521 2.521 0 0 0 0-3.53711v-.002a2.446 2.446 0 0 0 -3.49023 0l-.9707.98242c-.8-1.123-2.13666-3.03011-1.97266-3.66211.712-2.763-4.85937-9.312497-4.85937-9.312497-10.38151-10.51275-18.1806-12.961656-23.28711-12.882812zm-29.01758.984375-7.89258 7.59375 12.36328 7.884764-2.07031 6.86133-6.77735 2.09961-7.78515-12.517579-7.5 7.992189 9.7207 17.52148 17.41211-4.75c0-.033.00072-.0636.0117-.0996a4.048 4.048 0 0 1 1.09961-1.96875l2.02539-2.05078a3.938 3.938 0 0 1 1.99023-1.12109h.0293l4.67969-17.603518zm-77.019534 2.041015c-9.606 6.509-16.137109 10.577689-32.537109 13.429689-10.2550001 1.296-8.548547.84078-17.560547 1.55078 7.452 4.6 9.0893125 8.655 13.945312 15.5 4.369001 6.16 15.801907 30.68189 23.753907 49.58789 5.167.411 17.044922 3.61719 17.044922 3.61719-21.278-26.758-23.344469-39.6707-26.855469-53.7207 3.306-5.583 17.973437-12.09101 24.273437-15.5-1.859-5.064005-1.651453-8.575849-2.064453-14.464849zm197.804684 0c-.413 5.889-.20545 9.400844-2.06445 14.464849 6.3 3.40899 20.96744 9.917 24.27344 15.5-3.511 14.05-5.57747 26.9627-26.85547 53.7207 0 0 11.87797-3.20119 17.04297-3.61719 7.954-18.906 19.38686-43.42789 23.75586-49.58789 4.856-6.845 6.49231-10.9 13.94531-15.5-9.012-.71-7.30555-.25478-17.56055-1.55078-16.4-2.852-22.93111-6.920689-32.53711-13.429689zm-105.6914 26.507809c-1.422 2.975-3.35436 5.47099-6.44336 6.70899l4.76562 5.20703a5.138 5.138 0 0 1 2.07227-.51758l5.54297-5.82617zm-82.681643 2.42188c-3.987 2.692-5.664656 2.82586-12.472656 4.00586-4.257.541-3.548063.34662-7.289063.64062a30.453 30.453 0 0 1 8.263672 7.75c1.813 2.548 10.643359 21.10969 13.943359 28.92969 2.144.17 8.78125 1.54883 8.78125 1.54883a86.092 86.092 0 0 1 -14.972656-29.96094c1.372-2.307 5.131094-3.75601 7.746094-5.16601-.776-2.093-3.828-5.31205-4-7.74805zm178.941403 0c-.171 2.436-3.223 5.65505-4 7.74805 2.615 1.41 6.3741 2.85901 7.7461 5.16601a86.088 86.088 0 0 1 -14.97266 29.96094s6.6353-1.37883 8.7793-1.54883c3.3-7.82 12.13131-26.38169 13.94531-28.92969a30.451 30.451 0 0 1 8.26367-7.75c-3.741-.294-3.03206-.0996-7.28906-.64062-6.808-1.18-8.48466-1.31386-12.47266-4.00586zm-82.67578 10.32031-5.4707 5.75a5.436 5.436 0 0 1 -.61328 3.4375l26.5 28.95117a.859.859 0 0 0 .63086.21289c1.291 0 3.73586-1.51978 4.75586-2.55078l2.02539-2.05078c1.234-1.24 3.1625-4.58822 2.3125-5.44922zm-12.98242.0664a3.647 3.647 0 0 0 -2.62305 1.06445l-30.1582 27.17773a5.31 5.31 0 0 0 .13672 7.12305l3.69922 3.7461a5.6 5.6 0 0 0 3.98828 1.59961 4.762 4.762 0 0 0 3.34765-1.2129l26.79688-30.46874c1.585-1.607 1.13492-4.73056-.95508-6.85156v-.002l-.39453-.39844a5.477 5.477 0 0 0 -3.83789-1.77734z"/></svg>