<!-- Generated by IcoMoon.io -->
<svg version="1.1" xmlns="http://www.w3.org/2000/svg" width="32" height="32" viewBox="0 0 32 32">
<title>archwing</title>
<path d="M11.803 5.142c0.541-0.963 1.045-1.946 1.627-2.889-0.067 0.371-0.206 1.117-0.278 1.488 0.479 0.603 1.050 1.117 1.648 1.596 0.144 0.324 0.427 0.968 0.566 1.293-0.026 0.53-0.046 1.061-0.062 1.591-0.134 2.302-1.22 4.542-2.966 6.076 0.211-1.627 0.7-3.213-0.005-4.804 0.85-0.999 0.438-1.73-0.649-2.168 0.865 0.026 1.71 0.201 2.472 0.623-0.731-0.994-1.885-1.617-2.353-2.806z"></path>
<path d="M18.945 3.592c-0.165-0.499-0.324-0.999-0.469-1.504 0.602 1.071 1.571 2.132 1.581 3.424-0.5 1.020-1.56 1.586-2.286 2.415 0.639-0.144 1.916-0.427 2.559-0.572-0.34 0.206-1.014 0.613-1.354 0.814 0.273 0.417 0.546 0.834 0.819 1.246-0.36 1.092-0.901 2.292-0.263 3.399 0.010 0.371 0.031 1.112 0.036 1.483-1.411-1.571-2.678-3.466-2.734-5.644l-0.294-0.541c0.103-0.144 0.309-0.422 0.412-0.561-0.124-0.242-0.366-0.721-0.484-0.958 0.608-1.174 1.632-2.008 2.477-3.002z"></path>
<path d="M21.19 5.652c0.149 0.309 0.443 0.922 0.592 1.231 0.618-0.005 1.231-0.005 1.849-0.010 0.906 1.262 3.182 2.034 2.745 3.842 1.138 2.168 1.828 4.537 2.966 6.71 0.124 1.73-0.263 3.589 0.602 5.186 0.093-1.694-0.010-3.388-0.031-5.083 0.463-0.721 0.886-1.468 1.303-2.214 1.694 2.384 0.093 5.402 0.221 8.054 0.154 1.54-0.458 2.935-1.231 4.217-1.287-0.386-2.528-0.891-3.816-1.267-1.416-5.119-2.982-10.201-4.336-15.34-0.17-0.721-0.772-1.215-1.246-1.746 0.345-1.164 0.433-2.374 0.381-3.579z"></path>
<path d="M8.399 6.914c0.917-0.010 1.926 0.072 2.456-0.85-0.077 1.056-0.036 2.132 0.438 3.095-0.474 0.499-1.030 0.973-1.236 1.658-1.509 5.17-2.894 10.381-4.485 15.531-1.277 0.247-2.425 0.984-3.723 1.117-1.601-1.874-1.153-4.47-1.483-6.725-0.216-1.823-0.891-3.908 0.427-5.484 0.381 0.742 0.778 1.478 1.262 2.158 0.139 1.71-0.366 3.548 0.427 5.144 0.185-1.612 0.010-3.239 0.17-4.846 0.86-2.734 2.673-5.216 2.982-8.085 0.891-0.937 1.823-1.833 2.765-2.714z"></path>
<path d="M13.61 25.143c1.020-4.423 1.339-9.027 2.806-13.327 0.227 4.619 1.694 9.084 2.168 13.677-0.937 1.385-1.658 2.904-2.369 4.418-0.968-1.535-1.813-3.141-2.606-4.768z"></path>
<path d="M9.784 19.787c1.329-1.596 2.667-3.188 3.965-4.81-0.324 1.952-0.762 3.898-0.901 5.881-0.798 0.479-1.612 0.922-2.431 1.354-0.16-0.824-0.376-1.632-0.633-2.425z"></path>
<path d="M18.404 15.199c1.329 1.447 2.446 3.079 3.831 4.48-0.247 0.829-0.494 1.658-0.731 2.487-0.819-0.443-1.627-0.896-2.415-1.385 0.046-1.89-0.572-3.703-0.685-5.582z"></path>
</svg>
