<!-- Generated by IcoMoon.io -->
<svg version="1.1" xmlns="http://www.w3.org/2000/svg" width="32" height="32" viewBox="0 0 32 32">
<title>sortie</title>
<path d="M12.796 2.945q1.216-1.216 2.16-2.080t1.072-0.864 1.136 0.928 2.256 2.208l3.136 3.136-3.2 3.168-3.2 3.232-3.136-3.136q-1.312-1.344-2.208-2.32t-0.896-1.088 0.832-1.072q0.928-1.024 2.048-2.112zM4.989 11.040q1.216-1.248 2.176-2.16t1.024-0.912 1.024 0.896q1.056 0.992 2.24 2.24l3.136 3.104-3.136 3.136q-1.248 1.28-2.256 2.208t-1.168 0.928-1.728-1.504q-1.44-1.376-2.848-2.88-1.504-1.568-1.504-1.712t0.912-1.136 2.128-2.208zM20.86 11.104q1.184-1.248 2.24-2.24 0.96-0.896 1.024-0.896 0.192 0 3.216 3.088t3.024 3.28-1.504 1.76q-1.408 1.504-2.848 2.88-1.568 1.504-1.728 1.504t-1.168-0.928-2.256-2.208l-3.136-3.136zM12.54 19.68q3.52-3.456 3.6-3.456t1.12 0.992 2.352 2.336l3.36 3.36 0.064 1.984q0.064 0.8 0.064 2.144t-0.064 2.4l-0.064 2.56-6.816-6.816-3.36 3.36q-3.392 3.328-3.488 3.328-0.192 0-0.192-4.352l-0.032-4.352z"></path>
</svg>
