<!-- Generated by IcoMoon.io -->
<svg version="1.1" xmlns="http://www.w3.org/2000/svg" width="16" height="32" viewBox="0 0 16 32">
<title>standing</title>
<path d="M0.668 0.96q0-0.16 0.032-0.48v-0.48q0.416 0.128 0.96 0.192 0.32 0.032 0.96 0.032l0.832 0.032q-0.064 0.256-0.064 0.512h-0.608q-1.408 0.032-2.112 0.192zM10.396 0.032q0.448 0.032 1.28 0.032l0.864 0.032v0.672q-0.256 0.192-0.704 0.192-0.256 0-0.784-0.064t-0.752-0.064q0.096-0.576 0.096-0.8zM13.212 0.224q0.832 0 1.248-0.032 0.672-0.032 1.216-0.192v0.96q-0.96-0.192-2.464-0.192-0.032-0.064-0.224-0.256zM3.804 0.096q0.512-0.048 1.024-0.048l1.024 0.048 0.128 0.8q-0.576 0.016-1.152 0.016l-1.152-0.016zM6.172 0.224q0.64 0 1.888-0.032h1.888l0.16 0.32-0.16 0.288h-1.28q-0.832-0.016-1.456-0.016t-1.040 0.016v-0.576zM1.884 1.504q3.288 0.36 6.347 0.36 3.192 0 6.133-0.392 0.032 4.064 0.032 12.224v12.256l-0.288 0.256q-1.088 0.992-1.728 1.344-0.576 0.32-1.856 0.704-1.184 0.352-1.728 0.64-0.672 0.288-1.856 1.056-1.152 0.736-1.728 1.024t-1.344 0.512q-0.448 0.128-1.376 0.352l-0.608 0.16q0.016-3.392 0.016-8.472t-0.016-11.848v-10.176zM10.556 2.176v0.8l3.392-0.288q0-0.576 0.032-0.768-1.312 0.256-3.424 0.256zM2.236 1.952q0.032 0.064 0.064 0.32l0.064 0.352q0.8 0.16 2.4 0.256l1.024 0.064v-0.704q-2.368-0.128-3.552-0.288zM6.492 2.24v0.736q0.848 0.032 1.68 0.032t1.648-0.032q0-0.224-0.096-0.704h-1.376q-1.248 0-1.856-0.032zM6.876 10.24l-1.92 1.152-0.224-0.128q-0.576-0.256-0.896-0.288-0.544 0.064-0.912 0.512-0.292 0.355-0.292 0.771 0 0.108 0.020 0.221 0.032 0.256 0.224 0.48 0.128 0.16 0.448 0.384 0.224 0.192 0.32 0.288 0 1.472-0.032 2.24-0.608 0.256-0.864 0.8-0.139 0.264-0.139 0.517 0 0.328 0.235 0.635 0.32 0.576 0.96 0.592 0.024 0.001 0.047 0.001 0.612 0 1.105-0.401l1.152 0.672 0.736 0.448q0 0.64 0.224 1.088 0.32 0.576 0.896 0.64 0.125 0.024 0.242 0.024 0.511 0 0.862-0.456 0.376-0.488 0.376-1.085 0-0.088-0.008-0.179 1.28-0.768 1.952-1.152 0.288 0.16 0.864 0.416 0.448 0.064 0.832-0.208t0.528-0.72-0.080-0.832q-0.096-0.224-0.256-0.384-0.128-0.128-0.384-0.288l-0.256-0.192q0-1.472 0.032-2.24 0.608-0.288 0.864-0.832 0.149-0.283 0.149-0.555 0-0.313-0.197-0.613-0.368-0.56-0.976-0.56t-1.12 0.384q-0.672-0.352-1.952-1.12 0.064-0.448-0.128-0.896t-0.56-0.672-0.848-0.128q-0.544 0.064-0.8 0.608-0.224 0.416-0.224 1.056zM9.116 10.624q0.512 0.32 1.6 0.928l0.416 0.256q0 0.576 0.032 0.864-1.856 1.088-2.752 1.632v-3.168l0.256-0.192q0.288-0.224 0.448-0.32zM5.116 11.872q0.96-0.608 2.048-1.216 0.192 0.096 0.512 0.32l0.224 0.128v3.168l-2.752-1.568zM4.156 13.568q0.224-0.16 0.736-0.48 1.6 0.992 2.816 1.6l-0.416 0.224q-1.6 0.928-2.368 1.408l-0.768-0.448v-2.304zM8.636 14.688q0.928-0.512 2.784-1.6l0.736 0.48q0 1.568-0.032 2.336-0.288 0.192-0.736 0.416-0.704-0.448-2.112-1.28zM5.148 16.704q0.64-0.352 1.952-1.088l0.8-0.48q0 2.144-0.032 3.232l-0.736 0.416q-1.12-0.736-2.016-1.216 0.032-0.288 0.032-0.864zM8.412 15.136q0.352 0.192 1.056 0.608 1.088 0.64 1.664 0.96 0 0.576 0.032 0.864-1.088 0.608-1.952 1.184l-0.832-0.416q0.032-1.088 0.032-3.2z"></path>
</svg>
