<!-- Generated by IcoMoon.io -->
<svg version="1.1" xmlns="http://www.w3.org/2000/svg" width="18" height="32" viewBox="0 0 18 32">
<title>voidFissure</title>
<path d="M6.583 13.568q-4.672 4.352-5.6 7.936-0.8 3.136 1.216 5.536 1.696 2.048 5.216 3.392 2.912 1.152 6.336 1.568-2.88-1.376-4.352-3.712-1.248-1.984-1.408-4.544-0.128-2.112 0.48-4.288 0.256-0.928 0.864-1.888 0.416-0.704 1.216-1.696 2.208-2.816 3.456-5.152 1.024-1.952 1.28-3.392 0.224-1.216-0.064-1.824-0.544-1.856-2.56-3.168-1.632-1.088-4.096-1.728-1.952-0.512-3.776-0.608 3.456 1.376 4.896 3.36 1.248 1.696 0.992 3.808-0.256 1.728-1.536 3.616-1.056 1.536-2.56 2.784zM13.751 14.72l-2.592 3.488q2.016 0.864 2.88 3.040 0.704 1.76 0.544 4.16-0.096 1.952-0.672 3.68 1.088-1.12 1.888-2.4 0.64-1.056 0.992-2.080 0.64-1.856 0.608-3.36-0.032-2.016-1.28-3.968-0.992-1.536-2.368-2.56zM6.583 3.776q-0.576 0.96-0.832 2.048-0.32 1.344 0.096 2.368 0.48 1.216 2.048 1.728l-2.944 2.528q-0.48-1.312-0.672-2.752-0.192-1.888 0.256-3.296 0.544-1.76 2.048-2.624z"></path>
</svg>
