<svg viewBox="0 0 1024 1024" xmlns="http://www.w3.org/2000/svg"><path d="m442.942 134.342c17.468-42.584 31.636-86.939 35.097-133.145 4.347 45.401 17.307 89.354 35.258 131.133 17.468-41.699 31.072-85.249 34.856-130.489 4.105 46.207 17.629 90.803 35.742 133.387 151.983 27.451 279.815 153.512 306.46 306.057 42.423 18.515 87.1 32.763 133.548 35.983-44.919 4.991-88.629 17.549-130.086 35.339 41.699 17.227 85.088 31.153 130.167 35.258-45.241 4.508-90.481 15.375-130.972 36.305-17.147 56.269-36.385 113.423-73.818 160.032-55.786 76.393-141.92 124.854-232.642 146.991-23.345 39.444-32.683 86.376-38.156 131.616-4.347-44.677-17.629-87.905-35.017-129.12-17.79 41.055-31.153 84.202-35.258 128.959-3.864-46.126-18.193-90.561-36.466-132.823-118.012-22.299-223.063-102.394-274.26-211.229-15.777-29.785-21.815-63.272-33.649-94.587-41.296-21.172-87.502-32.199-133.709-35.903 45.885-3.784 90.159-17.468 132.259-35.661-41.618-17.468-85.329-30.912-130.57-34.615 46.689-3.623 91.688-18.193 134.434-36.949 20.447-105.776 86.295-202.455 179.593-257.114 39.123-23.828 82.833-38.72 127.189-49.426zm15.697 30.751c13.202 0 26.404 0 39.686-.08-7.004-18.032-13.604-36.224-19.883-54.578-6.359 18.354-12.961 36.547-19.803 54.659zm89.515-54.981c-6.279 18.434-12.88 36.788-19.803 54.98h39.364c-6.762-18.193-13.363-36.547-19.561-54.98zm-382.289 317.649c7.728-4.508 23.345-13.443 31.153-17.951-5.877 34.453-4.186 69.309-1.449 103.924-3.3 33.971-3.864 68.182 1.368 101.992-10.223-6.038-20.527-11.995-30.831-17.87 31.233 127.108 135.722 231.194 262.829 262.347-6.279-10.465-12.638-20.849-18.917-31.233 46.528 9.499 93.54-2.737 140.149 3.784 22.218 1.449 44.355-1.288 66.412-3.623-6.198 10.304-12.316 20.688-18.434 31.072 127.108-31.717 230.791-135.722 262.668-262.749-10.465 6.198-20.929 12.397-31.394 18.676 5.554-34.212 4.669-68.746 1.207-103.039 3.3-34.453 4.588-69.229-1.288-103.522 10.384 6.118 20.849 12.156 31.233 18.274-31.314-126.866-135.158-231.274-262.105-262.427 4.347 7.728 13.041 23.184 17.388 30.912-35.097-6.038-70.436-3.22-105.615-1.046-33.165-3.623-66.653-4.025-99.578 1.368 5.877-10.384 11.752-20.849 17.549-31.314-127.108 31.153-230.549 135.722-262.347 262.427zm-56.672 50.232c18.997 5.877 37.754 12.477 56.35 19.561-.08-13.202-.161-26.404-.241-39.605-18.515 7.004-37.19 13.927-56.108 20.044zm751.62-20.125c.08 13.363.161 26.726.241 40.089 18.354-7.245 36.788-14.248 55.384-20.608-18.676-6.118-37.19-12.638-55.625-19.481zm-752.264 89.836c19.24 6.038 38.398 12.638 57.316 19.561-.402-13.041-.725-26.162-1.127-39.203-18.595 6.843-37.351 13.443-56.189 19.642zm752.264-19.722c.08 13.202.08 26.404.08 39.605 18.515-7.004 37.11-13.765 55.866-20.206-18.756-6.038-37.432-12.558-55.946-19.4zm-402.495 332.381c6.923 18.274 13.685 36.547 20.206 54.98 6.359-18.434 12.961-36.708 19.803-54.82-13.363-.08-26.645-.08-40.008-.161zm69.873.08c6.843 18.193 13.524 36.547 19.722 55.061 6.359-18.515 13.202-36.869 20.206-55.142-13.363.08-26.645.08-39.928.08zm-23.667-547.635c4.266-21.493-4.427-47.092 12.638-64.48 2.657 21.172 2.093 42.664 4.83 63.755 12.718 34.937 41.215 62.387 52.083 98.048-5.957 27.772-23.425 51.359-34.937 76.957 25.115-11.995 48.702-28.336 75.83-35.742 31.556 9.66 56.591 33.165 86.134 47.494 23.345 14.409 54.739-1.771 76.716 16.824-27.531 7.084-58.684-2.013-83.477 14.49-26.806 13.685-49.909 36.144-79.613 43.228-27.29-5.877-50.232-23.747-75.67-34.615 9.418 31.153 48.46 62.789 27.29 96.599-13.765 26.162-33.005 49.426-44.274 76.957-3.381 21.333-2.173 43.067-4.508 64.48-19.803-17.227-6.601-45.562-14.168-67.459-13.765-31.797-38.478-57.718-50.312-90.401 1.207-29.383 23.988-53.21 34.212-80.097-25.196 10.948-48.058 28.417-75.267 34.212-43.389-8.452-73.254-55.223-119.944-53.13-13.363-3.059-35.822 5.957-39.847-13.363 20.206-.966 40.571.644 60.616-2.495 34.615-14.731 64.4-38.801 98.531-54.82 25.599 11.914 50.956 24.633 76.233 37.351-11.995-25.277-29.704-48.782-35.178-76.635 10.223-35.581 38.881-62.628 52.083-97.162zm7.486 11.915c-12.236 24.472-26.081 48.058-40.169 71.483 14.007 13.765 28.577 26.967 43.308 39.847 3.461-14.49 16.261-21.01 28.336-27.611-9.579-.161-28.819-.483-38.478-.644 18.434-4.347 37.03-7.889 55.223-13.122-18.354-1.852-36.708-2.737-55.061-4.266 15.858-2.818 31.797-5.072 47.736-8.05-15.134-4.588-30.912-5.877-46.609-7.004 12.075-4.025 24.069-8.211 36.064-12.638-9.338-1.207-28.013-3.542-37.351-4.75 6.038-1.207 18.032-3.623 24.069-4.83-5.957-9.338-11.511-18.836-17.066-28.417zm-22.781 156.49c7.406 7.084 14.892 14.168 22.379 21.172 7.245-6.923 14.57-13.927 21.895-20.929-7.406-7.406-14.811-14.811-22.138-22.218-7.406 7.325-14.811 14.651-22.138 21.976zm-163.574 31.394c8.936 3.784 17.79 7.567 26.645 11.35 17.388 8.533 33.649 19.159 48.46 31.556-.08-5.554-.241-16.744-.322-22.379 4.508.483 13.604 1.529 18.193 2.013-.805-4.025-2.334-12.075-3.139-16.1 5.796-.886 17.227-2.737 22.942-3.623-13.524-14.892-27.37-29.463-41.376-43.953-23.908 13.524-47.736 27.29-71.402 41.135zm262.668 3.3c5.634.725 16.986 2.173 22.62 2.898-.805 4.105-2.415 12.156-3.22 16.181 4.508-.402 13.604-1.207 18.113-1.61 0 5.474-.08 16.341-.161 21.815 11.592-9.016 24.069-16.744 37.271-23.103.483-1.288 1.449-3.703 1.932-4.911 12.075-4.911 24.149-9.579 36.224-14.168-23.908-14.088-48.058-27.853-71.966-41.94-13.685 14.811-27.37 29.704-40.813 44.838zm-108.834-25.115c-7.406 7.325-14.892 14.651-22.299 21.976l21.735 21.735c7.164-7.406 14.409-14.892 21.654-22.299-7.084-7.164-14.088-14.248-21.09-21.413zm43.872 22.298c7.406 7.486 14.811 14.973 22.299 22.459 7.486-7.567 14.973-15.215 22.459-22.781-7.486-7.486-14.973-15.054-22.459-22.54-7.406 7.647-14.892 15.295-22.299 22.862zm-11.672 9.097c-7.486 7.406-14.892 14.811-22.379 22.299 7.325 7.164 14.57 14.409 21.895 21.574 7.486-7.325 14.973-14.57 22.459-21.895-7.325-7.325-14.651-14.651-21.976-21.976zm-11.915 71.724c3.864 3.139 11.511 9.418 15.295 12.558-11.431 2.254-22.781 4.669-34.131 7.164 12.558 3.059 25.196 6.118 37.754 9.257-17.227 1.288-34.373 2.898-51.6 4.75 16.422 9.338 35.178 11.914 53.451 15.054-11.19 1.127-33.569 3.381-44.757 4.508 14.088 3.703 28.174 7.245 42.262 10.545-8.131 1.61-24.472 4.83-32.602 6.44 10.786 3.139 21.654 6.198 32.602 9.177-4.186.564-12.558 1.771-16.744 2.334 2.898 6.44 8.775 19.159 11.752 25.518 13.363-24.633 27.692-48.862 41.779-73.093-17.388-12.236-30.51-39.605-55.061-34.212zm-115.676-301.308c30.267 20.206 35.983 60.052 53.693 89.756-18.997-29.14-43.308-55.866-53.693-89.756zm204.87 89.354c16.502-30.267 24.311-67.459 52.164-89.917-7.97 34.615-33.89 60.616-52.164 89.917zm-294.546.564c30.912 12.075 56.913 33.407 84.122 51.841-28.174-16.261-68.746-20.366-84.122-51.841zm351.942 53.612c25.115-16.904 48.38-37.432 76.152-49.748l11.109 6.601c-28.497 15.617-57.959 29.221-87.261 43.148zm-15.859 165.506c28.577 18.756 60.857 33.326 83.397 59.891-35.178-6.44-55.705-40.169-83.397-59.891zm-317.81 60.857c20.125-27.047 52.244-40.33 79.452-58.684-25.277 20.769-46.207 50.312-79.452 58.684zm105.695 81.626c-5.957-33.729 22.299-60.616 34.776-89.837-9.418 30.67-18.354 61.984-34.776 89.837zm154.317-92.171c11.35 30.026 41.86 57.476 34.453 91.528-15.858-28.738-25.196-60.294-34.453-91.528z"/></svg>