<svg height="256" viewBox="0 0 128 128" width="256" xmlns="http://www.w3.org/2000/svg"><path d="m55.77 16.81c2.17-5.29 3.93-10.8 4.36-16.54.54 5.64 2.15 11.1 4.38 16.29 2.17-5.18 3.86-10.59 4.33-16.21.51 5.74 2.19 11.28 4.44 16.57 18.88 3.41 34.76 19.07 38.07 38.02 5.27 2.3 10.82 4.07 16.59 4.47-5.58.62-11.01 2.18-16.16 4.39 5.18 2.14 10.57 3.87 16.17 4.38-5.62.56-11.24 1.91-16.27 4.51-2.13 6.99-4.52 14.09-9.17 19.88-6.93 9.49-17.63 15.51-28.9 18.26-2.9 4.9-4.06 10.73-4.74 16.35-.54-5.55-2.19-10.92-4.35-16.04-2.21 5.1-3.87 10.46-4.38 16.02-.48-5.73-2.26-11.25-4.53-16.5-14.66-2.77-27.71-12.72-34.07-26.24-1.96-3.7-2.71-7.86-4.18-11.75-5.13-2.63-10.87-4-16.61-4.46 5.7-.47 11.2-2.17 16.43-4.43-5.17-2.17-10.6-3.84-16.22-4.3 5.8-.45 11.39-2.26 16.7-4.59 2.54-13.14 10.72-25.15 22.31-31.94 4.86-2.96 10.29-4.81 15.8-6.14m1.95 3.82c1.64 0 3.28 0 4.93-.01-.87-2.24-1.69-4.5-2.47-6.78-.79 2.28-1.61 4.54-2.46 6.79m11.12-6.83c-.78 2.29-1.6 4.57-2.46 6.83h4.89c-.84-2.26-1.66-4.54-2.43-6.83m-47.49 39.46c.96-.56 2.9-1.67 3.87-2.23-.73 4.28-.52 8.61-.18 12.91-.41 4.22-.48 8.47.17 12.67-1.27-.75-2.55-1.49-3.83-2.22 3.88 15.79 16.86 28.72 32.65 32.59-.78-1.3-1.57-2.59-2.35-3.88 5.78 1.18 11.62-.34 17.41.47 2.76.18 5.51-.16 8.25-.45-.77 1.28-1.53 2.57-2.29 3.86 15.79-3.94 28.67-16.86 32.63-32.64-1.3.77-2.6 1.54-3.9 2.32.69-4.25.58-8.54.15-12.8.41-4.28.57-8.6-.16-12.86 1.29.76 2.59 1.51 3.88 2.27-3.89-15.76-16.79-28.73-32.56-32.6.54.96 1.62 2.88 2.16 3.84-4.36-.75-8.75-.4-13.12-.13-4.12-.45-8.28-.5-12.37.17.73-1.29 1.46-2.59 2.18-3.89-15.79 3.87-28.64 16.86-32.59 32.6m-7.04 6.24c2.36.73 4.69 1.55 7 2.43-.01-1.64-.02-3.28-.03-4.92-2.3.87-4.62 1.73-6.97 2.49m93.37-2.5c.01 1.66.02 3.32.03 4.98 2.28-.9 4.57-1.77 6.88-2.56-2.32-.76-4.62-1.57-6.91-2.42m-93.45 11.16c2.39.75 4.77 1.57 7.12 2.43-.05-1.62-.09-3.25-.14-4.87-2.31.85-4.64 1.67-6.98 2.44m93.45-2.45c.01 1.64.01 3.28.01 4.92 2.3-.87 4.61-1.71 6.94-2.51-2.33-.75-4.65-1.56-6.95-2.41m-50 41.29c.86 2.27 1.7 4.54 2.51 6.83.79-2.29 1.61-4.56 2.46-6.81-1.66-.01-3.31-.01-4.97-.02m8.68.01c.85 2.26 1.68 4.54 2.45 6.84.79-2.3 1.64-4.58 2.51-6.85-1.66.01-3.31.01-4.96.01z"/><path d="m63.42 38.98c.53-2.67-.55-5.85 1.57-8.01.33 2.63.26 5.3.6 7.92 1.58 4.34 5.12 7.75 6.47 12.18-.74 3.45-2.91 6.38-4.34 9.56 3.12-1.49 6.05-3.52 9.42-4.44 3.92 1.2 7.03 4.12 10.7 5.9 2.9 1.79 6.8-.22 9.53 2.09-3.42.88-7.29-.25-10.37 1.8-3.33 1.7-6.2 4.49-9.89 5.37-3.39-.73-6.24-2.95-9.4-4.3 1.17 3.87 6.02 7.8 3.39 12-1.71 3.25-4.1 6.14-5.5 9.56-.42 2.65-.27 5.35-.56 8.01-2.46-2.14-.82-5.66-1.76-8.38-1.71-3.95-4.78-7.17-6.25-11.23.15-3.65 2.98-6.61 4.25-9.95-3.13 1.36-5.97 3.53-9.35 4.25-5.39-1.05-9.1-6.86-14.9-6.6-1.66-.38-4.45.74-4.95-1.66 2.51-.12 5.04.08 7.53-.31 4.3-1.83 8-4.82 12.24-6.81 3.18 1.48 6.33 3.06 9.47 4.64-1.49-3.14-3.69-6.06-4.37-9.52 1.27-4.42 4.83-7.78 6.47-12.07m.93 1.48c-1.52 3.04-3.24 5.97-4.99 8.88 1.74 1.71 3.55 3.35 5.38 4.95.43-1.8 2.02-2.61 3.52-3.43-1.19-.02-3.58-.06-4.78-.08 2.29-.54 4.6-.98 6.86-1.63-2.28-.23-4.56-.34-6.84-.53 1.97-.35 3.95-.63 5.93-1-1.88-.57-3.84-.73-5.79-.87 1.5-.5 2.99-1.02 4.48-1.57-1.16-.15-3.48-.44-4.64-.59.75-.15 2.24-.45 2.99-.6-.74-1.16-1.43-2.34-2.12-3.53m-2.83 19.44c.92.88 1.85 1.76 2.78 2.63.9-.86 1.81-1.73 2.72-2.6-.92-.92-1.84-1.84-2.75-2.76-.92.91-1.84 1.82-2.75 2.73m-20.32 3.9c1.11.47 2.21.94 3.31 1.41 2.16 1.06 4.18 2.38 6.02 3.92-.01-.69-.03-2.08-.04-2.78.56.06 1.69.19 2.26.25-.1-.5-.29-1.5-.39-2 .72-.11 2.14-.34 2.85-.45-1.68-1.85-3.4-3.66-5.14-5.46-2.97 1.68-5.93 3.39-8.87 5.11m32.63.41c.7.09 2.11.27 2.81.36-.1.51-.3 1.51-.4 2.01.56-.05 1.69-.15 2.25-.2 0 .68-.01 2.03-.02 2.71 1.44-1.12 2.99-2.08 4.63-2.87.06-.16.18-.46.24-.61 1.5-.61 3-1.19 4.5-1.76-2.97-1.75-5.97-3.46-8.94-5.21-1.7 1.84-3.4 3.69-5.07 5.57m-13.52-3.12c-.92.91-1.85 1.82-2.77 2.73l2.7 2.7c.89-.92 1.79-1.85 2.69-2.77-.88-.89-1.75-1.77-2.62-2.66m5.45 2.77c.92.93 1.84 1.86 2.77 2.79.93-.94 1.86-1.89 2.79-2.83-.93-.93-1.86-1.87-2.79-2.8-.92.95-1.85 1.9-2.77 2.84m-1.45 1.13c-.93.92-1.85 1.84-2.78 2.77.91.89 1.81 1.79 2.72 2.68.93-.91 1.86-1.81 2.79-2.72-.91-.91-1.82-1.82-2.73-2.73m-1.48 8.91c.48.39 1.43 1.17 1.9 1.56-1.42.28-2.83.58-4.24.89 1.56.38 3.13.76 4.69 1.15-2.14.16-4.27.36-6.41.59 2.04 1.16 4.37 1.48 6.64 1.87-1.39.14-4.17.42-5.56.56 1.75.46 3.5.9 5.25 1.31-1.01.2-3.04.6-4.05.8 1.34.39 2.69.77 4.05 1.14-.52.07-1.56.22-2.08.29.36.8 1.09 2.38 1.46 3.17 1.66-3.06 3.44-6.07 5.19-9.08-2.16-1.52-3.79-4.92-6.84-4.25z"/><path d="m48.46 36.47c3.76 2.51 4.47 7.46 6.67 11.15-2.36-3.62-5.38-6.94-6.67-11.15z"/><path d="m73.91 47.57c2.05-3.76 3.02-8.38 6.48-11.17-.99 4.3-4.21 7.53-6.48 11.17z"/><path d="m37.32 47.64c3.84 1.5 7.07 4.15 10.45 6.44-3.5-2.02-8.54-2.53-10.45-6.44z"/><path d="m81.04 54.3c3.12-2.1 6.01-4.65 9.46-6.18l1.38.82c-3.54 1.94-7.2 3.63-10.84 5.36z"/><path d="m79.07 74.86c3.55 2.33 7.56 4.14 10.36 7.44-4.37-.8-6.92-4.99-10.36-7.44z"/><path d="m39.59 82.42c2.5-3.36 6.49-5.01 9.87-7.29-3.14 2.58-5.74 6.25-9.87 7.29z"/><path d="m52.72 92.56c-.74-4.19 2.77-7.53 4.32-11.16-1.17 3.81-2.28 7.7-4.32 11.16z"/><path d="m71.89 81.11c1.41 3.73 5.2 7.14 4.28 11.37-1.97-3.57-3.13-7.49-4.28-11.37z"/></svg>