<svg height="256" viewBox="0 0 128 128" width="256" xmlns="http://www.w3.org/2000/svg"><path d="m59.72 16.5c2.27-4.91 3.63-10.18 4.28-15.53.69 5.34 2 10.61 4.26 15.51 20.94 1.63 39.55 18.63 42.62 39.47.44 5.02.37 10.08.11 15.11-2.44 19.86-19.15 36.87-38.91 39.87-1.38.52-3.65-.09-4.26 1.66-2.15 4.54-3.08 9.54-3.82 14.48-.63-5.37-2.01-10.65-4.28-15.56-23.25-1.7-43.85-22.89-42.89-46.54-1.03-13.55 5.11-27.04 15.02-36.12 7.62-7.02 17.56-11.41 27.87-12.35m1.79 4.31c1.65.01 3.3.01 4.95.02-.77-2.11-1.53-4.22-2.3-6.32-1.04 2.03-1.89 4.15-2.65 6.3m-38.63 26.96c-5.87 14.37-3.22 31.74 6.48 43.81 7.03 8.94 17.58 14.82 28.81 16.41-.83-1.56-1.69-3.12-2.55-4.67 5.53.72 11.14.75 16.67-.01-.82 1.56-1.63 3.13-2.41 4.7 15.81-2.16 30.17-13.31 35.5-28.46 5.57-14.21 2.8-31.2-6.71-43.09-7.02-8.95-17.58-14.82-28.8-16.48.8 1.58 1.63 3.14 2.46 4.71-5.55-.72-11.17-.73-16.71.02.85-1.57 1.7-3.14 2.53-4.72-15.57 2.14-29.77 12.96-35.27 27.78m38.67 59.35c.7 2.19 1.52 4.34 2.62 6.37.76-2.1 1.51-4.2 2.27-6.29-1.63-.02-3.26-.05-4.89-.08z"/><path d="m64.91 44.22c2.25-1.04 3.53-5.31 6.44-3.66 4.09 1.65 6.8 5.35 10.61 7.47 1.51 1.08 3.62 1.61 4.51 3.36.95 3.12 1.31 6.39 1.62 9.62-1.46 1.3-2.89 2.62-4.32 3.96 1.11 1.36 2.6 2.52 3.29 4.17.14 3.62-3.59 5.37-5.45 7.75.39 3.41-.34 6.94-2.68 9.56-1.97-.38-3.79-1.49-5.81-1.57-4.25 1.34-8.53 2.81-13.02 3.09-2.65-1.61-4.9-3.85-7.68-5.31-.82-4.3-5.44-6.14-6.58-10.35-1.86-.7-4.8-.45-5.81-2.33 1.12-3.21 1.82-6.52 2.16-9.9 1.12-2.76 2.33-5.5 3.66-8.16 4.51-1.54 8.1-5.2 8.61-10.08 3.6.21 6.99 1.47 10.45 2.38m3.59 4.33c.48 2.47-.69 4.67-1.61 6.87 1.76-1.29 3.38-2.75 5-4.21.54.42 1.63 1.25 2.17 1.66-.28-1.38-.58-2.76-.88-4.13-1.56-.06-3.12-.12-4.68-.19m-18.22 6.42c.2 1.33.39 2.65.57 3.98-3.73 2.7-5.68 7.13-8.49 10.67 2.06.48 4.1 1.05 6.15 1.61-.73-.5-2.18-1.48-2.91-1.97 1.06-.85 2.21-1.57 3.39-2.23.94.83 1.88 1.65 2.83 2.47.11-.46.35-1.38.47-1.84 1.08-.17 2.17-.35 3.25-.53.12 1.11-.12 2.14-.79 3.04-.85 2.24-2.11 4.28-3.77 6.02-.34-1.86-.64-3.71-.94-5.57-.52.44-1.57 1.33-2.09 1.78 1.07 2.69 3.21 4.58 5.7 5.97l-.3-2.16c.84 1.02 1.69 2.02 2.53 3.03.65-.35 1.96-1.05 2.61-1.4-.11 1.21-.2 2.54-1.36 3.25-1.58-.89-2.97-2.09-4.45-3.12.64 4.31 5.13 5.34 7.76 8.11 3.75-.49 7.47-1.29 10.97-2.78 2.32-1.33 4.71.32 6.88 1.13 1.42-2.69 1.4-5.66 1.45-8.6 1.14-1.59 2.86-2.64 4.26-3.97-2.55-.03-4.79 1.16-6.98 2.32.17-1.1.35-2.21.53-3.31 1.82-.8 3.76-1.54 5.02-3.17-1.07.13-3.22.39-4.29.52.96-2.9 3.35-4.82 5.78-6.47-.33-1.43-.66-2.87-1.02-4.29-2.52 2.55-4.28 5.75-4.98 9.28-.68.11-2.06.34-2.75.46-.77 1.26-1.56 2.52-2.35 3.77.33-2.73-1.09-4.9-3.52-5.94-.13-.75-.37-2.24-.49-2.99-1.51.43-2.14 2.18-3.17 3.23-.8-.32-1.59-.64-2.38-.96-1.14.66-2.28 1.3-3.43 1.92-.24.41-.71 1.22-.95 1.62-1.6-1.14-3.45-1.78-5.3-2.41-.68-1.27-1.23-2.6-1.65-3.99.81-.84 1.63-1.66 2.44-2.49-1.92-.67-2.94-2.56-4.23-3.99m4.4 4.51c.09.57.28 1.72.37 2.29l.23-1.08c1.15 1.44 2.59 2.49 4.49 2.42.79-2.41 1.57-4.84 2.38-7.25-2.08 1.78-4.3 4.94-7.47 3.62z"/><path d="m63.8 68.54c2.29-.74 4.71-.2 7.05-.11.42 1.07.96 2.12 1.06 3.28-2.29-.34-4.59-.37-6.84.24.26.8.52 1.6.78 2.4-.48 1.05-.96 2.11-1.43 3.17-.8.83-1.59 1.67-2.38 2.51-1.03-1.01-2.11-1.95-3.24-2.85 2.41-.81 2.76-3.25 2.74-5.46-.68 1.14-1.35 2.29-2 3.46-1.23-1.24-3.27-2.59-2.01-4.55.59-.57 1.78-1.72 2.38-2.29-.21 1.09-.64 3.25-.85 4.34 1.53-1.42 2.72-3.35 4.74-4.14z"/><path d="m70.2 74.31c1.86.13 1.37 3.33-.31 3.36-1.91-.21-1.51-3.34.31-3.36z"/></svg>