<svg viewBox="0 0 1024 1024" xmlns="http://www.w3.org/2000/svg"><path d="m477.589 126.105c18.434-39.871 29.477-82.666 34.755-126.109 5.603 43.363 16.241 86.157 34.593 125.947 170.041 13.237 321.162 151.283 346.091 320.513 3.573 40.764 3.005 81.854.893 122.699-19.814 161.271-155.506 299.399-315.964 323.761-11.206 4.223-29.64-.731-34.593 13.48-17.459 36.867-25.011 77.469-31.02 117.583-5.116-43.607-16.322-86.482-34.755-126.354-188.799-13.804-356.08-185.876-348.284-377.923-8.364-110.031 41.495-219.575 121.968-293.308 61.878-57.005 142.594-92.654 226.316-100.287zm14.536 34.999c13.399.081 26.798.081 40.196.162-6.253-17.135-12.424-34.268-18.677-51.32-8.445 16.485-15.348 33.699-21.519 51.158zm-313.691 218.926c-47.667 116.69-26.148 257.741 52.621 355.755 57.086 72.596 142.756 120.344 233.948 133.255-6.739-12.668-13.723-25.335-20.707-37.923 44.906 5.847 90.461 6.09 135.367-.081-6.658 12.668-13.237 25.416-19.57 38.166 128.384-17.54 244.993-108.082 288.275-231.107 45.231-115.391 22.737-253.356-54.487-349.908-57.005-72.678-142.756-120.344-233.867-133.824 6.496 12.83 13.237 25.499 19.976 38.247-45.068-5.847-90.705-5.928-135.692.162 6.903-12.749 13.804-25.499 20.545-38.328-126.435 17.378-241.745 105.24-286.407 225.584zm314.015 481.946c5.684 17.784 12.343 35.243 21.275 51.727 6.172-17.052 12.262-34.106 18.434-51.077-13.237-.162-26.472-.406-39.709-.65zm27.285-510.774c18.271-8.445 28.665-43.12 52.295-29.721 33.212 13.399 55.219 43.444 86.157 60.659 12.262 8.77 29.396 13.074 36.623 27.284 7.714 25.335 10.637 51.889 13.155 78.118-11.855 10.556-23.468 21.275-35.08 32.157 9.014 11.044 21.113 20.464 26.716 33.862 1.137 29.396-29.152 43.607-44.257 62.933 3.167 27.691-2.761 56.355-21.763 77.631-15.997-3.086-30.777-12.1-47.179-12.749-34.511 10.881-69.267 22.818-105.728 25.092-21.519-13.074-39.79-31.263-62.365-43.12-6.658-34.918-44.175-49.859-53.432-84.046-15.104-5.684-38.978-3.655-47.179-18.92 9.095-26.066 14.779-52.945 17.54-80.392 9.095-22.413 18.92-44.662 29.721-66.263 36.623-12.505 65.775-42.226 69.916-81.854 29.233 1.706 56.762 11.936 84.858 19.327zm29.153 35.162c3.898 20.057-5.603 37.923-13.074 55.787 14.292-10.475 27.447-22.332 40.602-34.187 4.385 3.41 13.237 10.151 17.621 13.48-2.274-11.206-4.71-22.413-7.146-33.537-12.668-.487-25.335-.975-38.004-1.542zm-147.955 52.132c1.625 10.8 3.167 21.519 4.628 32.319-30.289 21.925-46.123 57.899-68.942 86.644 16.728 3.898 33.294 8.526 49.94 13.074-5.928-4.06-17.702-12.019-23.631-15.997 8.607-6.903 17.946-12.749 27.529-18.108 7.633 6.739 15.267 13.399 22.981 20.057.893-3.736 2.842-11.206 3.817-14.941 8.77-1.38 17.621-2.842 26.391-4.304.975 9.014-.975 17.378-6.415 24.686-6.903 18.19-17.135 34.755-30.613 48.885-2.761-15.104-5.197-30.127-7.633-45.231-4.223 3.573-12.749 10.8-16.971 14.454 8.688 21.844 26.066 37.192 46.287 48.479l-2.436-17.54c6.822 8.283 13.723 16.403 20.545 24.605 5.278-2.842 15.916-8.526 21.194-11.369-.893 9.825-1.625 20.626-11.044 26.391-12.83-7.227-24.117-16.971-36.136-25.335 5.197 34.999 41.658 43.363 63.015 65.856 30.451-3.979 60.659-10.475 89.081-22.575 18.839-10.8 38.247 2.599 55.869 9.176 11.531-21.844 11.369-45.961 11.774-69.835 9.257-12.911 23.224-21.438 34.593-32.238-20.707-.243-38.896 9.42-56.681 18.839 1.38-8.933 2.842-17.946 4.304-26.879 14.779-6.496 30.532-12.505 40.764-25.742-8.688 1.056-26.148 3.167-34.837 4.223 7.796-23.549 27.203-39.141 46.936-52.539-2.68-11.612-5.359-23.305-8.283-34.837-20.464 20.707-34.755 46.692-40.44 75.358-5.522.893-16.728 2.761-22.332 3.736-6.253 10.232-12.668 20.464-19.083 30.613 2.68-22.168-8.852-39.79-28.584-48.235-1.056-6.09-3.005-18.19-3.979-24.28-12.262 3.491-17.378 17.702-25.742 26.229-6.496-2.599-12.911-5.197-19.327-7.796-9.257 5.359-18.515 10.556-27.853 15.591-1.949 3.329-5.766 9.907-7.714 13.155-12.993-9.257-28.015-14.454-43.038-19.57-5.522-10.313-9.988-21.113-13.399-32.4 6.577-6.822 13.237-13.48 19.814-20.219-15.591-5.44-23.874-20.788-34.349-32.4zm35.731 36.623c.731 4.628 2.274 13.967 3.005 18.596l1.868-8.77c9.338 11.693 21.032 20.219 36.46 19.651 6.415-19.57 12.749-39.303 19.327-58.873-16.89 14.454-34.918 40.115-60.659 29.396zm74.058 73.571c18.596-6.009 38.247-1.625 57.249-.893 3.41 8.688 7.796 17.216 8.607 26.635-18.596-2.761-37.273-3.005-55.543 1.949 2.111 6.496 4.223 12.993 6.334 19.489-3.898 8.526-7.796 17.135-11.612 25.742-6.496 6.739-12.911 13.561-19.327 20.383-8.364-8.202-17.135-15.835-26.31-23.143 19.57-6.577 22.413-26.391 22.249-44.338-5.522 9.257-10.963 18.596-16.241 28.097-9.988-10.07-26.554-21.032-16.322-36.948 4.791-4.628 14.454-13.967 19.327-18.596-1.706 8.852-5.197 26.391-6.903 35.243 12.424-11.531 22.087-27.203 38.491-33.618zm51.97 46.855c15.104 1.056 11.125 27.041-2.517 27.284-15.51-1.706-12.262-27.122 2.517-27.284z"/></svg>