<svg height="256" viewBox="0 0 128 128" width="256" xmlns="http://www.w3.org/2000/svg"><path d="m59.84 16.93c2-4.73 3.37-9.71 4.16-14.78.77 5.07 2.27 9.99 4.11 14.77 15.76 1.46 30.58 11 37.91 25.1 7.26 13.07 7.24 29.33 1.3 42.9 3.49 4.08 7.03 8.19 11.52 11.22-5.01-2.24-10.38-3.47-15.79-4.22-8.74 12.49-23.7 20.57-39.04 20.12-15.34.45-30.3-7.64-39.06-20.12-5.49.76-10.94 2.02-15.99 4.35 4.62-3.09 8.34-7.26 11.79-11.57-5.76-12.5-5.95-27.51-.09-40 6.83-15.46 22.42-26.26 39.18-27.77m1.68 4.4c1.65 0 3.29 0 4.94.01-.84-2.24-1.65-4.49-2.43-6.76-.79 2.27-1.64 4.51-2.51 6.75m-35.68 20.63c-7.15 11.72-7.97 26.73-2.95 39.42 1.03-1.45 1.98-2.96 2.94-4.45 2.03 5.22 4.86 10.1 8.35 14.48-1.81.03-3.63.07-5.45.11 8.37 10.72 21.67 17.52 35.34 17.35 13.63.13 26.85-6.68 35.21-17.35-1.82-.04-3.63-.08-5.45-.1 3.36-4.48 6.38-9.25 8.35-14.51.96 1.37 1.5 3.21 3.01 4.12 5.35-13.28 3.82-29.17-4.26-41.03-6.94-10.65-18.7-17.84-31.27-19.51.93 1.6 1.88 3.18 2.82 4.77-5.62-.79-11.33-.78-16.95 0 .93-1.59 1.88-3.18 2.81-4.77-13.35 1.76-25.73 9.79-32.5 21.47m-.54 42.07c-1.48 1.85-2.98 3.67-4.5 5.48 2.35-.44 4.71-.86 7.07-1.26-.86-1.4-1.73-2.81-2.57-4.22m74.81 4.23c2.37.39 4.73.81 7.09 1.24-1.52-1.8-3.02-3.63-4.5-5.48-.84 1.43-1.73 2.83-2.59 4.24z"/><path d="m53.85 43.72c2.67-2.49 6.68-2.36 10.1-2.52 4.46-.26 10.34.63 12.18 5.35 1.43.76 2.32 1.9 2.11 3.61.56.02 1.68.06 2.24.09 1.97 2.11 4.39 3.93 5.76 6.52.75 2.99.08 6.12.5 9.16.06 2.3 1.09 5.13-.89 6.94-3.88 4.33-8.41 8.02-12.35 12.3-6.01 3.11-13.13 2.36-19.35.23-.15-.39-.45-1.16-.6-1.55-1.64-1.24-3-2.79-4.34-4.35-.13-.58-.39-1.73-.51-2.31-.62-.01-1.86-.03-2.48-.05-1.79-1.96-4.05-3.65-5.2-6.1-.18-2.67.47-5.32.38-8 .12-2.31-.44-4.84.7-6.98 3.31-4.68 8.43-7.68 11.75-12.34m1.32.36c-.07 3.55 2.46 6.14 3.95 9.11-.89-3.22-1.21-6.81-3.95-9.11m13.72 7.4c1.1-1.26 2.11-2.58 3.14-3.9.02-.94.08-2.81.1-3.75-1.78 2.22-2.91 4.82-3.24 7.65m-23.43 4.98c.09.08.09.08 0 0m7.38 7.83c.86 3.97 4.84 5.58 7.59 8.03-2.87-1.09-6.1-1.76-8.31-4.06-2.25 1.26-5.72 1.76-6.5 4.59 3.85 1.88 6.28 5.36 9.04 8.48 1.86-1.25 3.17-3.1 4.54-4.84-.44 2.13-.89 4.26-1.26 6.41 4.03.13 8.07.32 12.1 0-.5-2.22-1.04-4.43-1.46-6.66 1.56 1.9 2.9 3.96 4.3 5.98.39-.62 1.18-1.86 1.57-2.48 2.81-2.66 5.27-5.67 8.58-7.78-2.06-1.67-4.42-2.87-6.92-3.72-2.63 1.76-5.49 3.15-8.48 4.17 2.58-2.71 7.07-4.12 7.57-8.29-2.24-2.11-4.19-4.51-6.49-6.56.97 1.83 2.12 3.55 3.1 5.37-.88 2.46-4.16 2.52-5.91 4.18 1.24-.42 3.74-1.27 4.99-1.69-1.72 2.13-2.84 4.89-5.17 6.46-2.82 1.35-4.95-1.51-6.91-2.99 2.92.87 5.99 1.29 9 .67-4.01-.05-8.63-.22-11.15-3.9 1.74.38 3.48.76 5.23 1.14-1.7-.83-3.44-1.59-5.12-2.45-1.17-2.44 1.8-4.52 2.46-6.76-2.3 2.07-4.24 4.48-6.39 6.7m-8.93-5.8c.71 3.77.11 7.6.32 11.4 1.13-.38 2.26-.77 3.38-1.17 1.37-1.79 4.4-2.72 2.87-5.44.35-.3 1.05-.9 1.4-1.2-2.79-.87-5.77-1.52-7.97-3.59m32.4 3.55c1.45 1.02 1.07 2.54.71 3.99 2.39 1.27 4.17 3.53 6.98 3.92.37-3.81.21-7.63-.07-11.43-2.12 1.95-4.91 2.75-7.62 3.52z"/><path d="m59.44 74.58c2.88-1.37 6.23-1.36 9.12-.01-2.99.78-6.13.78-9.12.01z"/></svg>