<svg viewBox="0 0 1024 1024" xmlns="http://www.w3.org/2000/svg"><path d="m474.173 137.715c18.634-44.067 31.396-90.464 38.757-137.699 7.174 47.235 21.149 93.072 38.291 137.606 146.829 13.602 284.901 102.482 353.191 233.846 67.639 121.767 67.452 273.255 12.111 399.68 32.514 38.012 65.496 76.303 107.327 104.532-46.676-20.87-96.706-32.328-147.108-39.316-81.426 116.364-220.802 191.642-363.719 187.449-142.916 4.193-282.292-71.179-363.905-187.449-51.148 7.081-101.924 18.82-148.972 40.527 43.042-28.788 77.7-67.639 109.842-107.792-53.663-116.457-55.434-256.299-.839-372.663 63.632-144.034 208.877-244.653 365.023-258.721zm15.652 40.993c15.372 0 30.652 0 46.024.093-7.826-20.87-15.372-41.831-22.639-62.98-7.36 21.149-15.279 42.017-23.385 62.887zm-332.415 192.2c-66.614 109.191-74.253 249.032-27.484 367.259 9.596-13.509 18.446-27.577 27.391-41.459 18.913 48.633 45.279 94.097 77.793 134.904-16.863.279-33.819.653-50.776 1.025 77.979 99.874 201.89 163.226 329.247 161.643 126.985 1.211 250.15-62.234 328.036-161.643-16.956-.372-33.819-.746-50.776-.932 31.303-41.738 59.44-86.178 77.793-135.183 8.944 12.764 13.975 29.906 28.043 38.384 49.844-123.724 35.589-271.764-39.688-382.259-64.657-99.221-174.22-166.208-291.33-181.767 8.664 14.907 17.516 29.627 26.273 44.44-52.359-7.36-105.557-7.267-157.916 0 8.664-14.813 17.516-29.627 26.18-44.44-124.376 16.397-239.715 91.21-302.788 200.027zm-5.031 391.948c-13.789 17.235-27.763 34.192-41.924 51.055 21.894-4.099 43.881-8.013 65.868-11.739-8.013-13.043-16.118-26.18-23.943-39.316zm696.973 39.409c22.081 3.633 44.067 7.546 66.054 11.553-14.161-16.77-28.136-33.819-41.924-51.055-7.826 13.322-16.118 26.366-24.13 39.502zm-430.985-414.96c24.875-23.198 62.234-21.987 94.097-23.478 41.552-2.422 96.334 5.87 113.476 49.844 13.322 7.081 21.614 17.702 19.659 33.633 5.217.186 15.652.558 20.87.839 18.353 19.659 40.899 36.614 53.663 60.744 6.988 27.856.746 57.018 4.658 85.34.558 21.428 10.156 47.794-8.292 64.657-36.148 40.341-78.353 74.719-115.06 114.594-55.993 28.974-122.327 21.987-180.275 2.143-1.397-3.633-4.193-10.807-5.59-14.441-15.279-11.553-27.949-25.993-40.434-40.527-1.211-5.404-3.633-16.118-4.751-21.521-5.776-.093-17.329-.279-23.105-.465-16.677-18.26-37.732-34.006-48.447-56.831-1.677-24.875 4.379-49.565 3.54-74.533 1.118-21.521-4.099-45.092 6.521-65.03 30.838-43.602 78.539-71.551 109.47-114.967zm12.297 3.355c-.653 33.074 22.918 57.204 36.801 84.874-8.292-29.999-11.273-63.446-36.801-84.874zm127.825 68.942c10.249-11.739 19.659-24.037 29.255-36.334.186-8.757.746-26.18.932-34.937-16.584 20.682-27.112 44.906-30.185 71.272zm-218.288 46.397c.839.746.839.746 0 0zm68.756 72.948c8.013 36.987 45.092 51.987 70.712 74.812-26.738-10.156-56.831-16.397-77.421-37.826-20.963 11.739-53.291 16.397-60.558 42.763 35.869 17.516 58.508 49.937 84.222 79.004 17.329-11.646 29.534-28.881 42.298-45.092-4.099 19.845-8.292 39.688-11.739 59.719 37.546 1.211 75.185 2.982 112.731 0-4.658-20.682-9.689-41.273-13.602-62.048 14.534 17.702 27.018 36.894 40.062 55.713 3.633-5.776 10.993-17.329 14.627-23.105 26.18-24.782 49.098-52.825 79.936-72.483-19.192-15.559-41.18-26.738-64.471-34.658-24.503 16.397-51.148 29.348-79.004 38.851 24.037-25.248 65.868-38.384 70.526-77.235-20.87-19.659-39.037-42.017-60.465-61.116 9.038 17.049 19.752 33.074 28.881 50.03-8.199 22.918-38.757 23.478-55.061 38.944 11.553-3.913 34.844-11.832 46.49-15.745-16.024 19.845-26.459 45.558-48.166 60.186-26.273 12.578-46.117-14.068-64.377-27.856 27.205 8.106 55.806 12.018 83.849 6.242-37.359-.465-80.401-2.05-103.88-36.334 16.211 3.54 32.421 7.081 48.726 10.621-15.838-7.732-32.049-14.813-47.701-22.825-10.9-22.732 16.77-42.111 22.918-62.98-21.428 19.285-39.502 41.738-59.533 62.421zm-83.197-54.035c6.615 35.123 1.025 70.805 2.982 106.209 10.528-3.54 21.056-7.174 31.49-10.9 12.764-16.677 40.992-25.341 26.738-50.683 3.261-2.795 9.782-8.385 13.043-11.179-25.993-8.106-53.756-14.161-74.253-33.446zm301.857 33.073c13.509 9.503 9.968 23.664 6.615 37.173 22.267 11.832 38.851 32.888 65.03 36.521 3.447-35.496 1.957-71.086-.653-106.488-19.752 18.167-45.744 25.621-70.993 32.795zm-157.17 116.831c26.832-12.764 58.043-12.671 84.967-.093-27.856 7.267-57.111 7.267-84.967.093z"/></svg>