<svg height="256" viewBox="0 0 128 128" width="256" xmlns="http://www.w3.org/2000/svg"><path d="m59.75 16.11c2.18-4.92 3.6-10.14 4.25-15.49.64 5.32 2.07 10.52 4.22 15.43 12.78 1.26 24.98 7.66 32.97 17.76 5.97 7.3 9.45 16.45 10.35 25.81 4.81 2.13 9.89 3.52 15.07 4.39-5.2.83-10.28 2.3-15.12 4.38-1.41 13.05-8.26 25.41-18.78 33.29-6.98 5.37-15.52 8.37-24.2 9.49-2.21 5.12-3.82 10.49-4.52 16.04-.69-5.54-2.28-10.92-4.5-16.04-13.44-1.48-26.23-8.51-34.1-19.61-4.95-6.77-7.87-14.87-8.88-23.16-5.03-2.16-10.3-3.72-15.73-4.4 5.41-.69 10.69-2.18 15.68-4.38 1.12-12.92 7.63-25.29 17.87-33.28 7.2-5.89 16.21-9.29 25.42-10.23m1.8 4.33h4.9c-.86-2.28-1.68-4.58-2.45-6.9-.77 2.32-1.59 4.62-2.45 6.9m-23.67 7.41c-9.83 7.03-16.24 18.27-17.97 30.17 1.49-.8 2.97-1.61 4.45-2.43-.77 5.6-.75 11.28-.01 16.89-1.44-.86-2.89-1.72-4.34-2.57 1.23 6.87 3.69 13.59 7.8 19.27 6.9 9.93 18.06 16.59 29.99 18.34-.75-1.29-1.51-2.58-2.27-3.87 5.61.75 11.3.75 16.91 0-.75 1.29-1.49 2.58-2.22 3.88 19.12-2.47 35.09-18.59 37.77-37.62-1.45.85-2.9 1.71-4.34 2.57.74-5.61.76-11.29-.01-16.89 1.48.82 2.96 1.63 4.45 2.43-1.23-7.68-4.09-15.14-8.89-21.3-7.06-9.38-17.96-15.51-29.54-17.16.92 1.6 1.86 3.2 2.8 4.79-5.62-.75-11.3-.75-16.92 0 .94-1.59 1.88-3.19 2.81-4.79-7.32 1.22-14.51 3.79-20.47 8.29m-24.34 36.15c2.32.77 4.62 1.59 6.9 2.45 0-1.64 0-3.27 0-4.9-2.28.86-4.58 1.67-6.9 2.45m94.02-2.45v4.9c2.28-.86 4.58-1.68 6.9-2.45-2.32-.78-4.62-1.59-6.9-2.45m-46.01 46.01c.86 2.27 1.67 4.57 2.45 6.88.78-2.31 1.59-4.6 2.45-6.88-1.64 0-3.27 0-4.9 0z"/><path d="m52.11 52.11c3.96-4.28 8.73-7.88 11.89-12.85 4.24 6.21 10.32 10.84 15.39 16.34 2.81 2.79 5.4 5.91 8.88 7.93-5.63 4.57-10.38 10.09-15.61 15.09-2.97 2.99-6.11 5.84-8.66 9.22-3.44-4.47-7.74-8.14-11.64-12.19-4.2-4.05-8.04-8.5-12.63-12.12 4.83-2.97 8.24-7.63 12.38-11.42m11.84-10.66c-.14 1.95-.2 3.89-.23 5.84-1.22 1.84-2.52 3.63-3.87 5.38 1.36-.81 2.77-1.51 4.23-2.1 1.39.63 2.73 1.35 4.02 2.19-3.34-2.92-4.18-7.08-4.15-11.31m-.91 17.25c1.68 2.27 3.75 4.23 5.96 5.97l1.28-.73c-1.43-2.96-4.29-4.85-6.56-7.11-.17.46-.51 1.4-.68 1.87m-15.87 1.01c-1.38 1.41-2.77 2.82-4.16 4.22 2.85 2.8 5.68 5.61 8.47 8.47 1.87-.64 3.75-1.23 5.65-1.78-2.16-1.79-4.2-3.7-6.19-5.67.44-.88.87-1.76 1.3-2.64-1.82-.59-3.59-1.35-5.07-2.6m12.66.91c2 2.17 3.89 4.48 6.23 6.3.52-.15 1.57-.46 2.09-.62-1.99-2.16-3.87-4.48-6.24-6.25-.52.14-1.56.43-2.08.57m21-.89c-1.48 1.25-3.27 1.97-5.07 2.58.43.88.86 1.75 1.28 2.63-1.06 1.03-2.12 2.06-3.19 3.09 1.25.28 2.32.84 3.21 1.67-1.29-.25-2.53-.64-3.73-1.19-.61.53-1.83 1.57-2.45 2.09 1.81.63 3.6 1.29 5.39 1.98 1.36-1.55 2.87-2.95 4.47-4.25-.81-.28-2.42-.82-3.23-1.1.86.17 2.6.5 3.46.67 1.34-1.33 2.68-2.65 4.03-3.97-1.4-1.4-2.79-2.8-4.17-4.2m-22.68 4.19c1.63 2.23 3.71 4.1 5.86 5.82l1.08-.73c-.94-3.1-4.25-4.86-6.35-7.19-.15.53-.44 1.57-.59 2.1m-6.15 9.01c.86.85 1.73 1.7 2.59 2.55 2.23-.93 4.63-1.63 7.04-.83-1.34-1.07-2.66-2.18-3.95-3.3-1.88.6-3.78 1.1-5.68 1.58m18.35-1.61c-1.31 1.14-2.64 2.26-3.99 3.35 2.41-.83 4.81-.12 7.05.81.78-.77 1.57-1.54 2.36-2.31-1.81-.6-3.62-1.2-5.42-1.85m-15.18 4.99c.9.8 1.81 1.6 2.73 2.4 4.01-.98 8.19-.98 12.2 0 .91-.8 1.82-1.6 2.73-2.4-5.79-1.22-11.87-1.21-17.66 0m3.69 4.15c.78.46 2.36 1.39 3.15 1.85 1.32-.01 2.65-.01 3.98-.01.79-.46 2.37-1.38 3.16-1.85-3.42-.45-6.88-.44-10.29.01z"/><path d="m51.36 68.79c3.14-1.15-.36 3.33 0 0z"/></svg>