<svg viewBox="0 0 1024 1024" xmlns="http://www.w3.org/2000/svg"><path d="m480.088 125.298c17.634-39.798 29.12-82.022 34.378-125.299 5.177 43.034 16.744 85.096 34.136 124.814 103.378 10.192 202.063 61.962 266.695 143.661 48.292 59.05 76.441 133.065 83.721 208.778 38.909 17.23 80 28.474 121.902 35.51-42.063 6.713-83.155 18.605-122.306 35.43-11.405 105.562-66.816 205.542-151.912 269.283-56.462 43.438-125.541 67.705-195.754 76.765-17.876 41.416-30.9 84.854-36.562 129.748-5.581-44.813-18.443-88.332-36.4-129.748-108.716-11.972-212.175-68.838-275.836-158.625-40.041-54.763-63.661-120.283-71.83-187.342-40.687-17.472-83.317-30.091-127.24-35.591 43.761-5.581 86.472-17.634 126.836-35.43 9.06-104.51 61.72-204.572 144.551-269.202 58.241-47.644 131.123-75.147 205.623-82.751zm14.56 35.026h39.636c-6.957-18.443-13.589-37.048-19.818-55.814-6.229 18.766-12.861 37.371-19.818 55.814zm-191.467 59.939c-79.515 56.866-131.366 147.787-145.36 244.046 12.053-6.471 24.024-13.024 35.996-19.656-6.229 45.299-6.067 91.244-.081 136.624-11.648-6.957-23.378-13.913-35.106-20.789 9.95 55.572 29.849 109.93 63.094 155.876 55.814 80.324 146.088 134.197 242.59 148.352-6.067-10.435-12.215-20.87-18.362-31.304 45.38 6.067 91.406 6.067 136.785 0-6.067 10.435-12.053 20.87-17.957 31.385 154.663-19.98 283.843-150.375 305.522-304.309-11.729 6.876-23.458 13.832-35.106 20.789 5.986-45.38 6.148-91.325-.081-136.624 11.972 6.633 23.943 13.185 35.996 19.656-9.95-62.124-33.084-122.467-71.912-172.297-57.108-75.875-145.278-125.46-238.95-138.807 7.442 12.943 15.046 25.885 22.649 38.746-45.46-6.067-91.406-6.067-136.866 0 7.603-12.861 15.208-25.804 22.73-38.746-59.211 9.869-117.371 30.658-165.582 67.058zm-196.887 292.419c18.766 6.229 37.371 12.861 55.814 19.818 0-13.266 0-26.452 0-39.636-18.443 6.957-37.048 13.509-55.814 19.818zm760.53-19.818v39.636c18.443-6.957 37.048-13.589 55.814-19.818-18.766-6.309-37.371-12.861-55.814-19.818zm-372.176 372.175c6.957 18.362 13.509 36.967 19.818 55.653 6.309-18.686 12.861-37.21 19.818-55.653-13.266 0-26.452 0-39.636 0zm-76.36-448.536c32.033-34.621 70.617-63.742 96.179-103.943 34.297 50.233 83.479 87.685 124.49 132.175 22.73 22.569 43.68 47.806 71.83 64.146-45.541 36.967-83.964 81.618-126.27 122.063-24.024 24.186-49.424 47.24-70.051 74.581-27.826-36.158-62.61-65.845-94.156-98.605-33.974-32.761-65.036-68.756-102.165-98.039 39.07-24.024 66.653-61.72 100.142-92.376zm95.774-86.229c-1.132 15.773-1.618 31.466-1.861 47.24-9.869 14.883-20.385 29.363-31.304 43.519 11.001-6.552 22.407-12.215 34.216-16.987 11.244 5.096 22.083 10.921 32.517 17.715-27.017-23.62-33.812-57.27-33.569-91.486zm-7.361 139.535c13.589 18.362 30.334 34.216 48.211 48.292l10.354-5.905c-11.567-23.943-34.702-39.232-53.064-57.513-1.375 3.721-4.125 11.325-5.5 15.127zm-128.373 8.17c-11.163 11.405-22.407 22.811-33.651 34.136 23.053 22.649 45.945 45.38 68.514 68.514 15.127-5.177 30.334-9.95 45.703-14.399-17.472-14.479-33.974-29.929-50.071-45.864 3.559-7.118 7.038-14.237 10.516-21.355-14.722-4.773-29.04-10.921-41.012-21.031zm102.407 7.361c16.178 17.553 31.466 36.239 50.395 50.961 4.206-1.213 12.699-3.721 16.906-5.015-16.098-17.472-31.304-36.239-50.476-50.557-4.206 1.132-12.619 3.478-16.825 4.61zm169.869-7.199c-11.972 10.112-26.452 15.935-41.012 20.87 3.478 7.118 6.957 14.156 10.354 21.275-8.574 8.332-17.149 16.663-25.804 24.995 10.112 2.265 18.766 6.795 25.966 13.509-10.435-2.022-20.465-5.177-30.172-9.626-4.935 4.287-14.803 12.699-19.818 16.906 14.641 5.096 29.12 10.435 43.6 16.016 11.001-12.538 23.215-23.863 36.158-34.378-6.552-2.265-19.576-6.633-26.127-8.898 6.957 1.375 21.031 4.045 27.988 5.419 10.839-10.758 21.679-21.436 32.599-32.113-11.325-11.325-22.569-22.649-33.732-33.974zm-183.458 33.893c13.185 18.038 30.01 33.165 47.402 47.079l8.736-5.905c-7.603-25.076-34.378-39.313-51.366-58.16-1.213 4.287-3.559 12.699-4.773 16.987zm-49.748 72.883c6.957 6.876 13.994 13.751 20.95 20.627 18.038-7.523 37.452-13.185 56.947-6.713-10.839-8.655-21.517-17.634-31.952-26.694-15.208 4.854-30.577 8.898-45.945 12.78zm148.433-13.024c-10.596 9.222-21.355 18.282-32.275 27.098 19.495-6.713 38.909-.971 57.027 6.552 6.309-6.229 12.699-12.457 19.09-18.686-14.641-4.854-29.282-9.706-43.842-14.964zm-122.791 40.364c7.28 6.471 14.641 12.943 22.083 19.414 32.437-7.928 66.249-7.928 98.686 0 7.361-6.471 14.722-12.943 22.083-19.414-46.835-9.869-96.017-9.787-142.852 0zm29.848 33.57c6.309 3.721 19.09 11.244 25.481 14.964 10.677-.081 21.436-.081 32.194-.081 6.39-3.721 19.171-11.163 25.562-14.964-27.665-3.641-55.653-3.559-83.236.081zm-60.667-94.399c25.4-9.302-2.912 26.936 0 0z"/></svg>