<svg viewBox="0 0 575 500" xmlns="http://www.w3.org/2000/svg"><path d="m0 0h192.2c26.23 25.78 52.1 51.96 78.1 77.98.08 58.37.03 116.74.02 175.11-25.79 25.99-51.72 51.84-77.63 77.72-23.48.12-46.96-.06-70.44.09-.09 56.36-.04 112.73-.02 169.1h-122.23zm122.22 100.2c-.05 44.36.01 88.71-.04 133.07 7.4.23 14.82.03 22.23.1-.01-44.4.04-88.79-.02-133.18-7.39 0-14.78-.03-22.17.01z"/><path d="m368.47 0h128.16c12.18 11.58 23.83 23.75 35.81 35.56 13.93 14 27.98 27.89 41.86 41.95.18-.04.53-.13.7-.17v.3c-.14-.03-.42-.08-.56-.1.72 2.09.28 4.27.39 6.42-.01 37.21.01 74.43-.01 111.64-42.87-.01-85.74.02-128.61-.02.14-31.35.05-62.71.05-94.06-6.91-.08-13.81.04-20.71-.06-.46 20.48-.07 41.05-.2 61.56.02 78.87-.03 157.74.03 236.61 6.9.06 13.8.01 20.7.02.48-38.13.03-76.4.22-114.59 17.52-.44 35.14-.06 52.7-.19 25.33.07 50.67-.13 76 .1v136.55c-7.73 8.39-16.1 16.2-24.08 24.37-17 17-34.01 34-51 51.03-.85 1.08-2.35 1.69-2.76 3.08h-128.42c-5.14-4.41-9.64-9.52-14.53-14.21-21.21-21.4-42.82-42.48-63.8-64.07-.02-114.23.01-228.46-.01-342.68-.3-1.37 1.08-2.04 1.82-2.9 25.45-25.35 50.71-50.89 76.25-76.14z"/></svg>