<svg viewBox="0 0 650 500" xmlns="http://www.w3.org/2000/svg"><path d="m248.29 0h.4c43.57 9.59 86.45 22.03 128.96 35.52 15.13 4.49 29.91 10.13 44.28 16.66 17.26 8.18 34.11 17.79 48.05 30.99 6.73 6.25 12.36 13.54 17.95 20.8 14.39 20.33 19.85 45.51 21.58 69.98 1.6 22.88 1.41 46.51-6.3 68.39-5.15 14.86-14.62 28.41-27.68 37.34-10.67 8.11-24.24 11.87-37.55 11.45-16.16-.41-31.78-5.61-46.31-12.4-.04-51.92.01-103.83-.02-155.75-.02-10.01-1.02-20.54-6.41-29.24-4.32-7.02-12.2-11.1-20.13-12.47-5.42-.65-9.08 4.18-11.78 8.14-3.27 5.58-3.02 12.35-3.26 18.6-.08 130.66.06 261.33-.07 391.99h-.24c-33.78-10.54-67.69-20.67-101.49-31.13.03-156.29-.02-312.58.02-468.87z"/><path d="m130.82 313.59c28.72-10.07 57.16-20.97 86.17-30.18.02 20.53.01 41.05 0 61.58-32.65 11.69-65.47 22.89-97.98 34.99-6.6 2.4-12.92 5.54-18.88 9.24-2.52 1.57-3.7 5.21-1.95 7.78 1.97 2.91 4.96 5.65 8.68 5.74 8.21.95 16.42 2 24.62 3.03 3.14.35 6.33 1.13 9.49.46 10.29-1.98 20.59-3.97 30.9-5.89 4.83-.83 9.19-3.18 13.75-4.85 10.3-4.28 20.84-7.91 31.35-11.65.01 17.67.01 35.34-.01 53.01-8.63.98-17.22 2.39-25.9 2.91-47.6 4.19-96.03-1.05-141.64-15.3-12.54-4.19-25.18-8.96-35.71-17.15-6.97-5.31-12.64-12.91-13.71-21.8v-2.98c1.04-6.58 5.44-11.94 10.21-16.29 11.33-9.85 24.97-16.49 38.65-22.41 26.89-11.2 54.61-20.23 81.96-30.24z"/><path d="m424.97 315c24.36-4.72 49.21-6.31 73.99-6.26 26.64.16 53.24 3.78 78.97 10.68 18.02 5.12 36.16 10.74 52.4 20.29 9.28 5.57 18.43 13.8 19.67 25.21v4.52c-.89 10.32-8.42 18.41-16.56 24.02-12.94 9.17-28.27 13.78-42.48 20.49-8.62 4.15-17.83 6.82-26.78 10.13-62.61 22.18-125.25 44.31-187.82 66.61-.03-20.41-.03-40.82-.01-61.23 53.26-19.38 106.83-37.89 159.81-58.03 4.97-2.01 10.18-3.54 14.84-6.26 2.54-1.59 5.47-3.8 5.47-7.11-.64-4.77-5.22-7.82-9.54-8.98-10.87-2.23-21.85-5.69-33.07-3.85-10.2 1.88-20.22 4.69-30.25 7.28-35.68 12.75-71.45 25.22-107.23 37.69-.02-20.99 0-41.98-.01-62.97 15.96-4.95 32.16-9.18 48.6-12.23z"/></svg>