<svg height="256" viewBox="0 0 500 500" width="256" xmlns="http://www.w3.org/2000/svg">
    <path
        d="m240.58 0h19.82c6.33.63 12.69.96 19.01 1.71 30.05 3.54 59.44 12.58 86.25 26.63 3.83 2.08 8.13 3.69 10.93 7.21-7.89-.91-15.86-1.83-23.8-.77-19.54 2.19-38.23 9-56.14 16.87-16.1 7.11-31.54 15.61-46.65 24.61-23.5-14.03-47.98-26.8-74.12-35.16-12.26-3.86-24.98-6.81-37.9-6.79-4.89-.06-9.72.88-14.58 1.25 2.82-3.49 7.11-5.12 10.94-7.2 32.72-17.29 69.34-26.62 106.24-28.36z" />
    <path
        d="m69.29 77.3c2.87-2.78 5.47-6.59 9.73-7.18 6.36-.89 12.7.97 18.57 3.3 12.61 5.2 23.92 13.04 34.73 21.25 16.32 12.63 31.58 26.61 46.04 41.31-33.09 40.48-62.29 84.14-87.42 129.98-15.05 28.1-29.01 57.17-36.83 88.2-2.72 11.33-4.57 23.04-3.64 34.72.36 4.58 1.63 9.02 2.23 13.56-1.44-1.26-2.83-2.6-4-4.12-16.53-22.5-29.37-47.73-37.59-74.43-6.46-20.58-9.76-42-11.11-63.48v-19.81c.74-9.24 1.32-18.49 2.74-27.65 7.42-50.67 31.1-98.72 66.55-135.65z" />
    <path
        d="m395.6 76.52c7.6-3.69 15.82-7.22 24.45-6.52 4.72.15 7.64 4.26 10.67 7.29 28.91 30.18 50.12 67.7 60.85 108.11 4.84 17.68 7.27 35.91 8.43 54.18v20.83c-.86 10.41-1.56 20.85-3.42 31.14-6.44 38.74-22.3 75.83-45.72 107.34-1.05 1.3-2.32 2.41-3.59 3.5.97-6.1 2.62-12.12 2.5-18.34.11-20.05-5.93-39.49-12.72-58.14-13.98-36.59-33.17-70.94-53.88-104.1-18.77-29.8-39.14-58.63-61.52-85.84 11.1-11.34 22.77-22.13 34.9-32.36 12.21-10.11 24.91-19.83 39.05-27.09z" />
    <path
        d="m182.49 257.5c21.21-21.62 43.36-42.45 67.52-60.76 19.69 14.82 37.9 31.52 55.54 48.71 21.18 20.87 41.3 42.85 59.94 66.03 11.94 14.95 23.33 30.38 33.35 46.7 7.65 12.57 14.69 25.65 19.31 39.68 2.8 8.82 4.77 18.26 3.04 27.5-1.02 5.6-3.97 10.82-8.4 14.44-14.64 12.49-30.66 23.4-47.76 32.25-32.26 16.9-68.28 26.1-104.61 27.95h-21.82c-13-1.05-26.01-2.28-38.79-5.01-41.88-8.5-81.44-28.09-113.65-56.17-6.13-5.41-8.32-13.96-7.97-21.88.47-11.41 4.41-22.34 8.99-32.69 8.59-18.85 19.99-36.25 32.14-52.95 19.19-26.13 40.58-50.58 63.17-73.8z" />
</svg>